<?xml version="1.0" encoding="utf-8"?>
<!-- Generator: Adobe Illustrator 23.0.1, SVG Export Plug-In . SVG Version: 6.00 Build 0)  -->
<svg version="1.1" id="Layer_1" xmlns="http://www.w3.org/2000/svg" xmlns:xlink="http://www.w3.org/1999/xlink" x="0px" y="0px"
	 viewBox="0 0 200 170" style="enable-background:new 0 0 200 170;" xml:space="preserve">
<style type="text/css">
	.st0{fill:#EAB9C5;}
	.st1{fill:#D97294;}
	.st2{fill:#F5E1E5;}
	.st3{fill:#F8E9EC;}
	.st4{fill:#E299AD;}
	.st5{fill:#D45D85;}
	.st6{fill:#FDF8F9;}
	.st7{fill:#F3DADF;}
	.st8{fill:none;}
	.st9{fill:none;stroke:#B5DFCC;stroke-width:2;stroke-linecap:round;stroke-linejoin:round;stroke-miterlimit:10;}
	.st10{fill:#DB7C99;}
	.st11{fill:#FAF0F2;}
	.st12{fill:#F6E5E8;}
	.st13{fill:#DA7194;}
	.st14{fill:#F3A169;}
	.st15{fill:none;stroke:#EBB1C5;stroke-miterlimit:10;}
	.st16{fill:#0075C2;}
</style>
<g>
	<g>
		
			<rect x="83.5" y="77" transform="matrix(0.6184 -0.7859 0.7859 0.6184 -18.2301 122.1514)" class="st2" width="66.4" height="5.7"/>
		<g>
			<g>
				<g>
					<g>
						<polygon class="st5" points="93.5,104.7 93.5,104.8 93.7,104.8 						"/>
						<path class="st5" d="M94.5,105.3C94.5,105.2,94.6,105.2,94.5,105.3l-0.7-0.3C94,105.3,94.5,105.1,94.5,105.3z"/>
						<path class="st5" d="M94.7,105.4c0.2,0.2,0.3,0.2,0.4,0.2C95,105.6,94.7,105.3,94.7,105.4z"/>
						<path class="st5" d="M113.8,88L113.8,88c-0.5,0.9-1.5,1.8-2.2,2.8v-0.1c-1.9,2.4-3.5,4.7-5.3,7.1v-0.1
							c-0.1,0.1-0.1,0.3-0.2,0.4V98c-0.5,0.4-1.1,1.5-1.4,1.8c-0.1,0.2-0.1,0.3,0,0.2c-1.4,1.9-3,3.9-4.3,5.9
							c-0.1,0.1-0.1,0.1-0.2,0c-0.2,0.4-0.4,0.7-0.7,1.1l-0.4,0.6l-0.7,0.9l-1.1-0.9l-0.7-0.6c-0.5-0.4-1-0.8-1.4-1.2
							c-0.1,0,0.1,0.2-0.1,0.1c0.5,0.5,1.1,0.6,1.5,1.1h-0.1c0.3,0.3,0.2-0.1,0.5,0.3c0.1,0.2-0.1,0,0,0.1c0.5,0.4,1,0.8,1.6,1.2
							c0.3-0.4,0.6-0.8,0.8-1.1c0.1-0.2,0.3-0.4,0.4-0.6c0.3-0.1,0.6-0.8,1-1c0.1-0.2,0.3-0.4,0.2-0.6c2.1-2.6,4.1-5.3,6.2-8
							c0.7-1.4,2.2-2.7,3.3-4.3l0,0c0.3-0.5,0.8-1.3,1.3-1.8l0.3-0.6c3-3.3,5.6-7,8.5-10.5c3.2-4,6.2-7.3,8.9-11.5c0,0,0.1,0,0,0.1
							c0.8-1.2,1.7-2.1,2.5-3.2l0,0c1.9-2.8,4.3-5.5,6.1-8.2c0.5-0.6,1-1.2,1.5-1.9c-1.5-1.1-3.1-2.4-4.7-3.6
							c-0.9,1.2-1.8,2.4-2.8,3.6l0,0c-2,2.7-4.2,5-6.2,7.7c-2.2,2.6-4.1,5.8-6.4,8.4c-1.6,1.5-2.8,4.1-4.3,5.5
							c-2.9,2.9-5.2,6.3-7.5,9.7c-2.5,2.9-4.5,6.1-7,8.8c-0.9,1.5-2.5,2.7-3.6,4.3h0.1c-0.6,0.4-0.7,1.4-1.2,1.5v-0.1
							c-0.4,0.2-0.2,0.9-0.5,1v0.1c-0.3,0.4-0.1,0-0.4,0.2c-0.1,0.1,0.1,0.1-0.1,0.3c-0.3-0.2-0.6,0.9-1,0.7
							c0.2-0.2-0.4,0.2-0.1-0.3c-0.1,0.1-0.6,0.7-0.4,0.8c0.1,0.2,0,0.5,0.4,0.2V104c0.2,0,0.1-0.1,0.2,0c0.4-0.5,0.6-0.4,0.9-0.7
							l0,0c0.1-0.3,0.4-0.6,0.5-0.8h0.1c0.2,0,0.2-0.7,0.3-0.4c0.7-1,1.6-2.1,2.4-3.1c0-0.2,0.6-0.8,0.3-0.7c0.4-0.1,1-0.9,1.3-1.2
							v0.1c0.7-0.4,0.3-0.8,1-1.2c-0.1-0.2,0.8-0.9,0.8-1.4c0.1,0,0.2,0,0.2,0c0.8-1,1.7-2,2.3-2.8c0.4-0.8,1.4-1.6,1.6-2.4
							c0.4-0.5,1.2-1.2,1.6-1.9v0.1c0.6-0.8,1.4-1.8,1.6-2.4c0.4-0.1,0.6-0.4,1-0.7c0.3-0.6,1.2-1.6,1.7-2.5c0.2,0,0.5-0.7,0.7-0.6
							c1.5-2.5,3.7-5.1,5.8-7.3l0,0c0.2-0.4,0.3-0.9,0.4-1.3c0,0,0.1,0,0,0.1c0.3-0.5,0.8-0.7,1.1-1.2c0,0,0,0,0,0.1
							c0.3-0.5,0.8-0.7,1-1.3h0.1l0.2-0.3c0,0,0.1,0.1,0,0.3c3-3.7,5.7-7.7,8.8-11.5l-0.1,0.2l0.5-0.8v0.1c0.8-0.9,1.5-2,2.2-2.9
							c0,0,0,0.2,0.1,0.1c0.4-0.8,1-1,1-1.5c0,0,0.1,0,0.1,0.1c0.4-0.6,0.9-1.2,1.3-1.8l0.7,0.5l0.9,0.7c0.6,0.5,1.2,1,1.8,1.5
							l0.2,0.1l0.1,0.1c0.1,0,0.2,0.1,0.3,0.2c-0.1,0.1-0.1,0.2-0.2,0.4l-0.4,0.5c-0.3,0.4-0.6,0.7-0.8,1.1
							c-0.6,0.7-1.1,1.4-1.6,2.2l0,0c-1.5,2.3-3.5,4.4-5.2,6.6c-0.7,0.9-1.2,1.6-1.9,2.5h-0.1c-1,1.7-2.8,3.1-3.8,4.9v-0.2
							c-0.1,0.4-0.8,0.9-0.5,1l-0.3,0.2c-0.6,1.3-1.7,1.9-2.6,3.4v-0.1c-0.2,0.4-0.5,0.8-0.8,1.1c0,0,0,0,0-0.1
							c-1.1,1-1.8,2.4-2.8,3.6v-0.2c-0.3,0.7-1.3,1.6-1.8,2.4v-0.1l-0.2,0.4l0.1-0.1C115.2,86.1,114.6,87.1,113.8,88z"/>
						<path class="st5" d="M95.3,103.3L95.3,103.3C95.3,103.4,95.3,103.3,95.3,103.3z"/>
					</g>
				</g>
			</g>
		</g>
	</g>
	<g>
		<path class="st4" d="M40.9,69.6c-20,0-36.3,16.3-36.3,36.3s16.3,36.3,36.3,36.3s36.3-16.3,36.3-36.3
			C77.2,85.8,60.9,69.6,40.9,69.6z M40.9,135.7c-16.5,0-29.8-13.4-29.8-29.8c0-16.5,13.4-29.8,29.8-29.8c16.5,0,29.8,13.4,29.8,29.8
			S57.4,135.7,40.9,135.7z"/>
		<g>
			<path class="st8" d="M40.9,69.6c-20,0-36.3,16.3-36.3,36.3s16.3,36.3,36.3,36.3s36.3-16.3,36.3-36.3
				C77.2,85.8,60.9,69.6,40.9,69.6z M40.9,135.7c-16.5,0-29.8-13.4-29.8-29.8c0-16.5,13.4-29.8,29.8-29.8
				c16.5,0,29.8,13.4,29.8,29.8S57.4,135.7,40.9,135.7z"/>
			<g>
				<g>
					<g>
						<polygon class="st5" points="40.9,136.4 41,136.4 41.2,136.3 						"/>
						<path class="st5" d="M42.4,136.1C42.4,136.1,42.4,136,42.4,136.1l-1,0.3C41.9,136.5,42.1,136,42.4,136.1z"/>
						<path class="st5" d="M42.7,136.1c0.4,0.1,0.5-0.1,0.6-0.1C43.1,136.1,42.6,135.9,42.7,136.1z"/>
						<path class="st5" d="M69.8,112.7L69.8,112.7c-0.2,0.6-0.4,1.4-0.6,2.2c-0.3,0.7-0.6,1.5-0.8,2.2V117c-1.5,3.6-3.4,6.8-6.1,9.7
							c0-0.1,0-0.1,0.1-0.1c-0.1,0.2-0.2,0.4-0.3,0.5c-0.1,0,0-0.1,0-0.1c-0.7,0.4-1.7,1.7-2.2,2c-0.2,0.2-0.2,0.3-0.1,0.2
							c-2.4,2-5.2,3.7-8.2,5c-0.2,0-0.2,0-0.2-0.1c-2.4,1.3-5.3,1.7-8,2c-0.1,0.1,0.3,0.1,0,0.2c0.9,0.1,1.6-0.4,2.4-0.4l-0.1,0.1
							c0.6,0,0.1-0.2,0.7-0.2c0.3,0,0,0.1,0.1,0.1c0.6-0.1,1.2-0.3,1.9-0.5c0.6-0.2,1.2-0.3,1.7-0.6c0.3,0.1,1.3-0.5,1.8-0.5
							c0.3-0.2,0.6-0.3,0.7-0.4c4.1-1.6,7.7-4.4,10.7-7.8c1.2-1.7,2.9-3.6,4.1-5.8l0,0c0.3-0.8,0.8-1.8,1.2-2.7l0.2-0.8
							c1.3-2.6,1.8-5.6,2.1-8.5l0.1-2.2c0-0.7-0.1-1.5-0.1-2.2l-0.1-1.1l-0.2-1.1c-0.1-0.7-0.2-1.5-0.3-2.2c-0.7-3.3-1.9-6.3-3.4-9
							c-0.4-0.7-0.8-1.4-1.3-2s-1-1.2-1.4-1.9c-0.6-0.6-1.1-1.1-1.7-1.7c-0.5-0.6-1.2-1-1.8-1.6c0,0,0-0.1,0.1,0
							c-0.7-0.6-1.4-1.2-2.1-1.7c-0.4-0.3-0.7-0.5-1.1-0.8c-0.4-0.2-0.8-0.5-1.1-0.7l0,0c-3.9-2.1-8.4-3.9-12.6-4
							c-5.1-0.5-11.1,0.3-15.9,2.8v-0.1c-3.8,2-7.4,4.3-10.2,7.7c-0.7,0.9-1.4,1.8-2,2.7c-0.3,0.5-0.6,1-0.9,1.5l-0.4,0.8l-0.3,0.8
							l-0.7,1.6c-0.2,0.5-0.4,1.1-0.6,1.6c-0.2,0.5-0.4,1.1-0.6,1.6c-0.1,0.5-0.3,1.1-0.5,1.6c-0.1,0.3-0.2,0.7-0.3,1
							c-0.1,0.4-0.1,0.7-0.2,1.1c-0.1,0.8-0.2,1.6-0.2,2.4s0,1.6,0,2.3c0,0.7,0.1,1.5,0,2.1c-0.1,1.4,0.1,2.7,0.3,4
							c0.1,0.7,0.3,1.3,0.5,1.9s0.3,1.3,0.6,1.9l0.7,1.9c0.3,0.6,0.6,1.2,0.9,1.8l0.5,0.9l0.6,0.8c0.4,0.5,0.8,1.1,1.1,1.6l1.1,1.5
							l0.6,0.7l0.6,0.7l1.3,1.3c0.4,0.4,0.9,0.8,1.4,1.2c0.9,0.8,1.9,1.5,2.9,2.2c0.5,0.4,1,0.7,1.5,1s1,0.7,1.5,1
							c1.1,0.4,2.1,1,3.2,1.5c0.6,0.3,1.1,0.5,1.7,0.8c0.6,0.2,1.2,0.4,1.8,0.5l-0.1-0.1c0.4,0.2,0.9,0.3,1.4,0.3s0.9,0,1.1,0.2
							h-0.1c0.5,0.2,1.2-0.2,1.4,0l0.1-0.1c0.6,0,0.1,0.1,0.5,0.2c0.2,0,0.1-0.2,0.4-0.1c0.1,0.4,1.4,0,1.4,0.4
							c-0.3,0,0.5,0.2-0.2,0.2c0.2,0.1,1.2,0.1,1.1-0.1c0.1-0.2,0.5-0.3-0.1-0.5l-0.1,0.1c-0.2-0.1-0.1-0.1-0.2-0.2
							c-0.8-0.1-0.9-0.3-1.4-0.4l0,0c-0.4,0.1-0.9,0-1.2,0l-0.1-0.1c-0.2-0.2-0.9,0.2-0.6-0.1c-0.8-0.1-1.6-0.2-2.4-0.3
							c-0.8-0.2-1.7-0.4-2.5-0.6c-0.3,0-1.2-0.5-0.9-0.1c-0.3-0.4-1.5-0.8-2-1h0.1c-0.7-0.7-1.1-0.2-1.7-0.9
							c-0.1,0.1-0.5-0.1-0.8-0.3c-0.4-0.2-0.8-0.5-1.1-0.5c-0.1-0.1-0.1-0.2,0-0.2c-0.7-0.4-1.4-0.8-2-1.4c-0.6-0.5-1.2-0.9-1.7-1.4
							c-1-0.6-2-1.9-2.8-2.4c-0.2-0.3-0.6-0.7-0.9-1.2c-0.3-0.5-0.7-0.9-1.1-1.4l0.1,0.1c-0.8-1-1.6-2.3-2.2-3
							c0-0.4-0.2-0.9-0.4-1.5c-0.2-0.3-0.5-0.9-0.9-1.5c-0.3-0.6-0.5-1.3-0.8-1.9c0.1-0.2-0.4-1-0.2-1.1c-0.3-0.8-0.6-1.8-0.9-2.7
							c-0.2-1-0.4-2-0.5-3c0-1-0.1-2.1,0-3.1s0.2-2,0.4-3v0.1c0-0.5-0.2-1.1-0.2-1.6c0,0,0.1,0,0,0.1c0-0.4,0.1-0.7,0.2-1
							c0.1-0.3,0.2-0.6,0.3-1c0,0,0,0,0,0.1c0.1-0.7,0.5-1.3,0.6-2.1H13l0.1-0.5c0.1,0,0.1,0.1,0,0.3c0.9-2.9,2.3-5.6,4.1-8.2
							c0.5-0.6,0.9-1.3,1.4-1.9l1.5-1.8l1.7-1.6c0.6-0.5,1.2-1,1.9-1.4l-0.1,0.2l0.9-0.8c0,0,0,0.1-0.1,0.1c1.4-0.7,2.6-1.7,4-2.3
							c0,0-0.2,0.2,0,0.1c0.9-0.7,1.7-0.5,2.1-1c0.1,0,0.1,0.1,0,0.1c1.4-0.6,2.9-1,4.5-1.4l2.3-0.3c0.8-0.2,1.6-0.1,2.3-0.1
							c1.3-0.3,2.7-0.1,4.1-0.1c0.7,0.1,1.4,0.2,2.1,0.3l1,0.1c0.3,0.1,0.7,0.1,1,0.2v0.1c3.5,0.6,6.9,2.3,9.9,4.4
							c1.2,0.9,2.1,1.4,3.2,2.5v0.1c1.1,0.7,1.9,1.8,2.8,2.8c0.4,0.5,0.8,1.1,1.2,1.7c0.2,0.3,0.4,0.5,0.6,0.8
							c0.2,0.3,0.4,0.6,0.6,0.8l-0.2-0.1c0.4,0.3,0.8,1.4,1,1.1l0.2,0.4c0.6,0.7,0.9,1.5,1.2,2.3s0.5,1.7,1,2.7l-0.1-0.1
							c0.3,0.5,0.5,1.2,0.5,1.6c0-0.1,0,0-0.1-0.2c0.1,0.9,0.4,1.9,0.5,2.8c0.2,1,0.5,2,0.5,2.9l-0.1-0.2c0.1,0.5,0.1,1.1,0.2,1.8
							c0.1,0.7-0.1,1.4,0,2.1l-0.1-0.1l0.1,0.6h-0.1c0,0.8-0.1,1.6-0.2,2.4C70.1,111.2,70.1,111.9,69.8,112.7z"/>
					</g>
				</g>
			</g>
			<g>
				<g>
					<g>
						<polygon class="st5" points="40.9,70.2 41,70.3 41.3,70.2 						"/>
						<path class="st5" d="M42.7,70.1C42.6,70.1,42.7,70,42.7,70.1l-1.1,0.2C42,70.5,42.4,70,42.7,70.1z"/>
						<path class="st5" d="M43,70.1c0.4,0.1,0.6,0,0.7-0.1C43.5,70.2,42.9,70,43,70.1z"/>
						<path class="st5" d="M72.4,88.8L72.4,88.8C72.4,88.7,72.4,88.7,72.4,88.8z"/>
						<path class="st5" d="M76.2,97.5L76.2,97.5c-0.2-0.7-0.4-1.7-0.7-2.6c-0.3-0.9-0.6-1.8-1-2.7l0.1,0.1
							c-1.8-4.5-4.4-8.2-7.8-11.6c0.1,0,0.1,0,0.2,0.1c-0.2-0.1-0.4-0.3-0.6-0.5c0-0.1,0.1,0,0.1,0.1c-0.6-0.8-2.3-1.9-2.6-2.4
							c-0.2-0.2-0.4-0.2-0.3,0c-2.9-2.3-6.4-4.3-10-5.5c-0.2-0.1-0.2-0.1-0.1-0.2c-3.1-0.9-6.4-1.7-9.6-2.1c-0.1,0.1,0.3,0.1,0,0.2
							c1,0.1,1.9,0.1,2.9,0.3l-0.1,0.1c0.7,0.2,0.2-0.2,0.9,0c0.3,0.1-0.1,0.1,0,0.1c0.7,0.1,1.5,0.3,2.2,0.5s1.5,0.3,2.1,0.5
							c0.3,0.3,1.5,0.6,1.9,0.9c0.4,0.1,0.7,0.2,0.9,0.2c4.7,2.1,9.2,5.1,12.8,9.1c2,1.6,3.3,4.3,4.9,6.8l0,0
							c0.5,0.8,1.1,2.1,1.6,3.1l0.5,0.9c1.2,3.3,1.8,6.7,2.2,10.2l0.1,2.6c0,0.9-0.1,1.8-0.1,2.6l-0.1,1.3l-0.2,1.3
							c-0.2,0.9-0.2,1.7-0.5,2.6c-0.9,3.9-2.4,7.4-4.3,10.5l-0.7,1.2c-0.2,0.4-0.5,0.8-0.8,1.2c-0.5,0.7-1.1,1.5-1.6,2.3
							c-0.6,0.7-1.2,1.4-1.8,2.1c-0.6,0.7-1.3,1.4-2,2.1c0,0-0.1,0,0.1-0.1c-0.4,0.4-0.8,0.8-1.2,1.1s-0.9,0.6-1.3,1
							c-0.4,0.3-0.9,0.6-1.3,0.9c-0.4,0.3-0.9,0.5-1.3,0.8l0,0c-0.5,0.4-1.1,0.7-1.7,1.1c-0.6,0.3-1.2,0.6-1.8,0.9
							c-1.2,0.7-2.5,1-3.8,1.5c-0.6,0.3-1.3,0.4-1.9,0.6c-0.7,0.2-1.3,0.3-1.9,0.5c-1.3,0.3-2.6,0.5-3.8,0.7
							c-6.2,0.5-13.3-0.4-19.3-3.3v-0.1c-4.8-2.2-8.7-5.6-12.2-9.5c-3.3-4.2-6.4-9.2-7.5-14.6c-0.1-0.4-0.2-0.8-0.3-1.3
							c-0.1-0.4-0.1-0.9-0.2-1.4c-0.1-0.9-0.4-1.9-0.5-2.8c-0.1-1-0.2-1.9-0.2-2.8s0.1-1.8,0.2-2.6c0.1-1.6,0.6-3.2,0.8-4.8
							c0.2-0.8,0.4-1.5,0.6-2.3c0.2-0.8,0.4-1.5,0.7-2.3l0.8-2.3c0.3-0.7,0.6-1.5,1-2.2l0.5-1.1l0.6-1.1c0.4-0.7,0.8-1.4,1.2-2.1
							l1.4-1.8l0.7-0.9l0.8-0.8l1.5-1.7c0.5-0.5,1.1-1,1.6-1.5c1-1.1,2.3-1.9,3.5-2.8c0.6-0.4,1.3-0.8,1.9-1.2
							c0.6-0.3,1.3-0.8,1.9-1c0.6-0.3,1.2-0.7,1.9-1c0.3-0.1,0.7-0.3,1-0.4c0.4-0.1,0.7-0.2,1.1-0.3c0.7-0.2,1.4-0.4,2.2-0.7
							c0.7-0.2,1.5-0.3,2.2-0.5h-0.1c0.6,0,1.1-0.3,1.7-0.4c0.5-0.2,1-0.3,1.4-0.2h-0.1c0.6,0.1,1.3-0.6,1.7-0.5l0.1-0.1
							c0.7-0.1,0.1,0.1,0.6,0.1c0.2,0,0.1-0.2,0.5-0.1c0.1,0.4,1.7-0.2,1.8,0.2c-0.4,0,0.6,0.1-0.3,0.3c0.2,0,1.4-0.1,1.3-0.2
							c0.1-0.2,0.6-0.3-0.2-0.5L41,69.4c-0.2-0.1-0.2-0.1-0.3-0.2c-0.9,0-1.1-0.2-1.8-0.2l0,0c-0.5,0.2-1.1,0.1-1.5,0.1L37.2,69
							c-0.2-0.1-1,0.5-0.8,0.2c-1,0.2-2,0.3-3,0.6c-1,0.3-2.1,0.5-3.1,0.8c-0.3,0.2-1.6,0.6-1.1,0.6c-0.6,0-2.1,0.5-2.7,0.7
							c0,0,0-0.1,0.1-0.1c-1.2,0.2-1.1,0.8-2.3,1c0,0.2-0.5,0.3-1,0.6c-0.5,0.3-1,0.6-1.2,0.9c-0.1,0-0.2,0-0.2-0.1
							c-0.4,0.2-0.9,0.5-1.3,0.8c-0.4,0.3-0.8,0.6-1.2,0.9c-0.8,0.6-1.6,1.1-2.2,1.7c-0.9,1.1-2.6,2.2-3.2,3.4
							c-0.4,0.4-0.8,0.8-1.3,1.3s-0.9,1.2-1.3,1.8l0.1-0.1c-1,1.2-1.9,3-2.4,4c-0.5,0.2-0.7,0.9-1.1,1.5c-0.2,0.5-0.5,1.2-0.9,2
							c-0.3,0.8-0.6,1.7-0.8,2.5c-0.2,0.2-0.4,1.3-0.6,1.3c-0.2,1.1-0.5,2.3-0.7,3.5c-0.1,1.2-0.4,2.5-0.5,3.8s-0.2,2.6-0.2,3.8
							c0,1.3,0,2.5,0.1,3.8v-0.1c0.2,0.6,0.5,1.3,0.8,1.9c0,0.1,0,0.1-0.1-0.1c0.1,0.4,0.1,0.9,0.1,1.3c0.1,0.4,0.1,0.8,0.3,1.3
							c0,0,0,0-0.1-0.1c0.3,0.8,0.3,1.7,0.7,2.6v0.1l0.3,0.6c-0.1,0-0.2,0-0.3-0.3c1.1,3.6,3,7.1,5.3,10.2l0.9,1.1
							c0.3,0.4,0.6,0.8,0.9,1.1l2,2.1l2.2,1.9c0.7,0.7,1.5,1.2,2.3,1.8l-0.3-0.1l1.3,0.8c0,0-0.1,0-0.2,0c1.6,1.1,3.3,2,5,2.8
							c0,0-0.3,0-0.1,0.1c0.7,0.2,1.1,0.5,1.6,0.7c0.4,0.2,0.8,0.3,1.2,0.3c0.1,0,0.1,0.1-0.1,0.1l1.4,0.5l0.7,0.2l0.7,0.2
							c0.9,0.2,1.9,0.5,2.8,0.7l2.9,0.4l0.7,0.1H38l1.5,0.1c1.6,0,3.3-0.2,5-0.3c0.9-0.1,1.7-0.2,2.5-0.4c0.4-0.1,0.8-0.2,1.3-0.2
							c0.4-0.1,0.8-0.2,1.2-0.4v0.1c4.1-1.2,8.5-2.8,12.1-5.4c1.5-1.1,2.5-1.8,3.8-3.2h0.1c1.1-1.1,2.2-2.3,3.4-3.5
							c0.6-0.6,1.1-1.3,1.6-1.9c0.3-0.3,0.5-0.7,0.7-1c0.2-0.4,0.4-0.7,0.6-1.1v0.3c0.1-0.5,1.1-1.7,0.7-1.6l0.4-0.4
							c0.3-1.1,0.8-2,1.3-2.9s0.9-2,1.3-3.3v0.2c0.2-0.7,0.3-1.5,0.6-2c0,0.1,0,0.1,0,0.2c0.4-1.1,0.8-2.2,0.9-3.4
							c0.1-1.2,0.3-2.4,0.3-3.6l0.1,0.3c0-0.6,0-1.4,0-2.3c0.1-0.9,0-1.8-0.1-2.5l0.1,0.1l-0.1-0.8h0.1c0-1-0.2-1.9-0.4-2.9
							C76.7,99.4,76.5,98.4,76.2,97.5z"/>
					</g>
				</g>
			</g>
		</g>
	</g>
	<g>
		<path class="st4" d="M159.1,69.6c-20,0-36.3,16.3-36.3,36.3s16.3,36.3,36.3,36.3s36.3-16.3,36.3-36.3
			C195.4,85.8,179.2,69.6,159.1,69.6z M159.1,135.7c-16.5,0-29.8-13.4-29.8-29.8c0-16.5,13.4-29.8,29.8-29.8
			c16.5,0,29.8,13.4,29.8,29.8C189,122.3,175.6,135.7,159.1,135.7z"/>
		<g>
			<path class="st8" d="M159.1,69.6c-20,0-36.3,16.3-36.3,36.3s16.3,36.3,36.3,36.3s36.3-16.3,36.3-36.3
				C195.4,85.8,179.2,69.6,159.1,69.6z M159.1,135.7c-16.5,0-29.8-13.4-29.8-29.8c0-16.5,13.4-29.8,29.8-29.8
				c16.5,0,29.8,13.4,29.8,29.8C189,122.3,175.6,135.7,159.1,135.7z"/>
			<g>
				<g>
					<g>
						<polygon class="st5" points="159.1,136.4 159.2,136.4 159.4,136.3 						"/>
						<path class="st5" d="M160.7,136.1C160.6,136.1,160.6,136,160.7,136.1l-1,0.3C160.1,136.5,160.4,136,160.7,136.1z"/>
						<path class="st5" d="M160.9,136.1c0.4,0.1,0.5-0.1,0.6-0.1C161.4,136.1,160.8,135.9,160.9,136.1z"/>
						<path class="st5" d="M188.1,112.7L188.1,112.7c-0.2,0.6-0.4,1.4-0.6,2.2c-0.3,0.7-0.6,1.5-0.8,2.2V117
							c-1.5,3.6-3.4,6.8-6.1,9.7c0-0.1,0-0.1,0.1-0.1c-0.1,0.2-0.2,0.4-0.3,0.5c-0.1,0,0-0.1,0-0.1c-0.7,0.4-1.7,1.7-2.2,2
							c-0.2,0.2-0.2,0.3-0.1,0.2c-2.4,2-5.3,3.7-8.2,5c-0.2,0-0.2,0-0.2-0.1c-2.4,1.3-5.3,1.7-8,2c-0.1,0.1,0.3,0.1,0,0.2
							c0.9,0.1,1.6-0.4,2.4-0.4L164,136c0.6,0,0.1-0.2,0.7-0.2c0.3,0,0,0.1,0.1,0.1c0.6-0.1,1.2-0.3,1.9-0.5
							c0.6-0.2,1.2-0.3,1.7-0.6c0.3,0.1,1.3-0.5,1.8-0.5c0.3-0.2,0.6-0.3,0.7-0.4c4.1-1.6,7.7-4.4,10.7-7.8c1.2-1.7,2.9-3.6,4.1-5.8
							l0,0c0.3-0.8,0.8-1.8,1.2-2.7l0.2-0.8c1.3-2.6,1.8-5.6,2.1-8.5l0.1-2.2c0-0.7-0.1-1.5-0.1-2.2l-0.1-1.1l-0.2-1.1
							c-0.1-0.7-0.2-1.5-0.3-2.2c-0.7-3.3-1.9-6.3-3.4-9c-0.4-0.7-0.8-1.4-1.3-2s-1-1.2-1.4-1.9c-0.6-0.6-1.1-1.1-1.7-1.7
							c-0.5-0.6-1.2-1-1.8-1.6c0,0,0-0.1,0.1,0c-0.7-0.6-1.4-1.2-2.1-1.7c-0.4-0.3-0.7-0.5-1.1-0.8c-0.4-0.2-0.8-0.5-1.1-0.7l0,0
							c-3.9-2.1-8.4-3.9-12.6-4c-5.1-0.5-11.1,0.3-15.9,2.8v-0.1c-3.8,2-7.4,4.3-10.2,7.7c-0.7,0.9-1.4,1.8-2,2.7
							c-0.3,0.5-0.6,1-0.9,1.5l-0.4,0.8l-0.3,0.8l-0.7,1.6c-0.2,0.5-0.4,1.1-0.6,1.6c-0.2,0.5-0.4,1.1-0.6,1.6
							c-0.1,0.5-0.3,1.1-0.5,1.6c-0.1,0.3-0.2,0.7-0.3,1c-0.1,0.4-0.1,0.7-0.2,1.1c-0.1,0.8-0.2,1.6-0.2,2.4s0,1.6,0,2.3
							c0,0.7,0.1,1.5,0,2.1c-0.1,1.4,0.1,2.7,0.3,4c0.1,0.7,0.3,1.3,0.5,1.9s0.3,1.3,0.6,1.9l0.7,1.9c0.3,0.6,0.6,1.2,0.9,1.8
							l0.5,0.9l0.6,0.8c0.4,0.5,0.8,1.1,1.1,1.6l1.1,1.5l0.5,0.7l0.6,0.7l1.3,1.3c0.4,0.4,0.9,0.8,1.4,1.2c0.9,0.8,1.9,1.5,2.9,2.2
							c0.5,0.4,1,0.7,1.5,1s1,0.7,1.5,1c1.1,0.4,2.1,1,3.2,1.5c0.6,0.3,1.1,0.5,1.7,0.8c0.6,0.2,1.2,0.4,1.8,0.5l-0.1-0.1
							c0.4,0.2,0.9,0.3,1.4,0.3s0.9,0,1.1,0.2h-0.1c0.5,0.2,1.2-0.2,1.4,0l0.1-0.1c0.6,0,0.1,0.1,0.5,0.2c0.2,0,0.1-0.2,0.4-0.1
							c0.1,0.4,1.4,0,1.4,0.4c-0.3,0,0.5,0.2-0.2,0.2c0.2,0.1,1.2,0.1,1.1-0.1c0.1-0.2,0.5-0.3-0.1-0.5l-0.1,0.1
							c-0.2-0.1-0.1-0.1-0.2-0.2c-0.8-0.1-0.9-0.3-1.4-0.4l0,0c-0.4,0.1-0.9,0-1.2,0l-0.1-0.1c-0.2-0.2-0.9,0.2-0.6-0.1
							c-0.8-0.1-1.6-0.2-2.4-0.3c-0.8-0.2-1.7-0.4-2.5-0.6c-0.3,0-1.2-0.5-0.9-0.1c-0.3-0.4-1.5-0.8-2-1h0.1
							c-0.7-0.7-1.1-0.2-1.7-0.9c-0.1,0.1-0.5-0.1-0.8-0.3c-0.4-0.2-0.8-0.5-1.1-0.5c-0.1-0.1-0.1-0.2,0-0.2c-0.7-0.4-1.4-0.8-2-1.4
							c-0.6-0.5-1.2-0.9-1.7-1.4c-1-0.6-2-1.9-2.8-2.4c-0.2-0.3-0.6-0.7-0.9-1.2c-0.3-0.5-0.7-0.9-1.1-1.4l0.1,0.1
							c-0.8-1-1.6-2.3-2.2-3c0-0.4-0.2-0.9-0.4-1.5c-0.2-0.3-0.5-0.9-0.9-1.5c-0.3-0.6-0.5-1.3-0.8-1.9c0.1-0.2-0.4-1-0.2-1.1
							c-0.3-0.8-0.6-1.8-0.9-2.7c-0.2-1-0.4-2-0.5-3c0-1-0.1-2.1,0-3.1s0.2-2,0.4-3v0.1c0-0.5-0.2-1.1-0.2-1.6c0,0,0.1,0,0,0.1
							c0-0.4,0.1-0.7,0.2-1c0.1-0.3,0.2-0.6,0.3-1c0,0,0,0,0,0.1c0.1-0.7,0.5-1.3,0.6-2.1h0.1l0.1-0.5c0.1,0,0.1,0.1,0,0.3
							c0.9-2.9,2.3-5.6,4.1-8.2c0.5-0.6,0.9-1.3,1.4-1.9l1.5-1.8L140,83c0.6-0.5,1.2-1,1.9-1.4l-0.1,0.2l0.9-0.8c0,0,0,0.1-0.1,0.1
							c1.4-0.7,2.6-1.7,4-2.3c0,0-0.2,0.2,0,0.1c0.9-0.7,1.7-0.5,2.1-1c0.1,0,0.1,0.1,0,0.1c1.4-0.6,2.9-1,4.5-1.4l2.3-0.3
							c0.8-0.2,1.6-0.1,2.3-0.1c1.3-0.3,2.7-0.1,4.1-0.1c0.7,0.1,1.4,0.2,2.1,0.3l1,0.1c0.3,0.1,0.7,0.1,1,0.2v0.1
							c3.5,0.6,6.9,2.3,9.9,4.4c1.2,0.9,2.1,1.4,3.2,2.5v0.1c1.1,0.7,1.9,1.8,2.8,2.8c0.4,0.5,0.8,1.1,1.2,1.7
							c0.2,0.3,0.4,0.5,0.6,0.8c0.2,0.3,0.4,0.6,0.6,0.8l-0.2-0.1c0.4,0.3,0.8,1.4,1,1.1l0.2,0.4c0.6,0.7,0.9,1.5,1.2,2.3
							s0.5,1.7,1,2.7l-0.1-0.1c0.3,0.5,0.5,1.2,0.5,1.6c0-0.1,0,0-0.1-0.2c0.1,0.9,0.4,1.9,0.5,2.8c0.2,1,0.5,2,0.5,2.9l-0.1-0.2
							c0.1,0.5,0.1,1.1,0.2,1.8c0.1,0.7-0.1,1.4,0,2.1l-0.1-0.1l0.1,0.6h-0.1c0,0.8-0.1,1.6-0.2,2.4
							C188.4,111.2,188.3,111.9,188.1,112.7z"/>
					</g>
				</g>
			</g>
			<g>
				<g>
					<g>
						<polygon class="st5" points="159.1,70.2 159.2,70.3 159.5,70.2 						"/>
						<path class="st5" d="M160.9,70.1C160.9,70.1,160.9,70,160.9,70.1l-1.1,0.2C160.3,70.5,160.6,70,160.9,70.1z"/>
						<path class="st5" d="M161.2,70.1c0.4,0.1,0.6,0,0.7-0.1C161.8,70.2,161.2,70,161.2,70.1z"/>
						<path class="st5" d="M190.7,88.8L190.7,88.8C190.6,88.7,190.7,88.7,190.7,88.8z"/>
						<path class="st5" d="M194.5,97.5L194.5,97.5c-0.2-0.7-0.4-1.7-0.7-2.6c-0.3-0.9-0.6-1.8-1-2.7l0.1,0.1
							c-1.8-4.5-4.4-8.2-7.8-11.6c0.1,0,0.1,0,0.2,0.1c-0.2-0.1-0.4-0.3-0.6-0.5c0-0.1,0.1,0,0.1,0.1c-0.6-0.8-2.3-1.9-2.6-2.4
							c-0.2-0.2-0.4-0.2-0.3,0c-2.9-2.3-6.4-4.3-10-5.5c-0.2-0.1-0.2-0.1-0.1-0.2c-3.1-0.9-6.4-1.7-9.6-2.1c-0.1,0.1,0.3,0.1,0,0.2
							c1,0.1,1.9,0.1,2.9,0.3l-0.1,0.1c0.7,0.2,0.2-0.2,0.9,0c0.3,0.1-0.1,0.1,0,0.1c0.7,0.1,1.5,0.3,2.2,0.5s1.5,0.3,2.1,0.5
							c0.3,0.3,1.5,0.6,1.9,0.9c0.4,0.1,0.7,0.2,0.9,0.2c4.7,2.1,9.2,5.1,12.8,9.1c2,1.6,3.3,4.3,4.9,6.8l0,0
							c0.5,0.8,1.1,2.1,1.6,3.1l0.5,0.9c1.2,3.3,1.8,6.7,2.2,10.2l0.1,2.6c0,0.9-0.1,1.8-0.1,2.6l-0.1,1.3l-0.2,1.3
							c-0.2,0.9-0.2,1.7-0.5,2.6c-0.9,3.9-2.4,7.4-4.3,10.5l-0.7,1.2c-0.2,0.4-0.5,0.8-0.8,1.2c-0.5,0.7-1.1,1.5-1.6,2.3
							c-0.6,0.7-1.2,1.4-1.8,2.1c-0.6,0.7-1.3,1.4-2,2.1c0,0-0.1,0,0.1-0.1c-0.4,0.4-0.8,0.8-1.2,1.1s-0.9,0.6-1.3,1
							c-0.4,0.3-0.9,0.6-1.3,0.9c-0.4,0.3-0.9,0.5-1.3,0.8l0,0c-0.5,0.4-1.1,0.7-1.7,1.1c-0.6,0.3-1.2,0.6-1.8,0.9
							c-1.2,0.7-2.5,1-3.8,1.5c-0.6,0.3-1.3,0.4-1.9,0.6c-0.7,0.2-1.3,0.3-1.9,0.5c-1.3,0.3-2.6,0.5-3.8,0.7
							c-6.2,0.5-13.3-0.4-19.3-3.3v-0.1c-4.8-2.2-8.7-5.6-12.2-9.5c-3.3-4.2-6.4-9.2-7.5-14.6c-0.1-0.4-0.2-0.8-0.3-1.3
							c-0.1-0.4-0.1-0.9-0.2-1.4c-0.1-0.9-0.4-1.9-0.5-2.8c-0.1-1-0.2-1.9-0.2-2.8s0.1-1.8,0.2-2.6c0.1-1.6,0.6-3.2,0.8-4.8
							c0.2-0.8,0.4-1.5,0.6-2.3c0.2-0.8,0.4-1.5,0.7-2.3l0.8-2.3c0.3-0.7,0.6-1.5,1-2.2l0.5-1.1l0.6-1.1c0.4-0.7,0.8-1.4,1.2-2.1
							l1.4-1.8l0.7-0.9l0.8-0.8l1.5-1.7c0.5-0.5,1.1-1,1.6-1.5c1-1.1,2.3-1.9,3.5-2.8c0.6-0.4,1.3-0.8,1.9-1.2
							c0.6-0.3,1.3-0.8,1.9-1c0.6-0.3,1.2-0.7,1.9-1c0.3-0.1,0.7-0.3,1-0.4c0.4-0.1,0.7-0.2,1.1-0.3c0.7-0.2,1.4-0.4,2.2-0.7
							c0.7-0.2,1.5-0.3,2.2-0.5h-0.1c0.6,0,1.1-0.3,1.7-0.4c0.5-0.2,1-0.3,1.4-0.2h-0.1c0.6,0.1,1.3-0.6,1.7-0.5l0.1-0.1
							c0.7-0.1,0.1,0.1,0.6,0.1c0.2,0,0.1-0.2,0.5-0.1c0.1,0.4,1.7-0.2,1.8,0.2c-0.4,0,0.6,0.1-0.3,0.3c0.2,0,1.4-0.1,1.3-0.2
							c0.1-0.2,0.6-0.3-0.2-0.5l-0.1,0.1c-0.2-0.1-0.2-0.1-0.3-0.2c-0.9,0-1.1-0.2-1.8-0.2l0,0c-0.5,0.2-1.1,0.1-1.5,0.1l-0.2-0.1
							c-0.2-0.1-1,0.5-0.8,0.2c-0.9,0.2-2,0.3-3,0.6c-1,0.3-2.1,0.5-3.1,0.8c-0.3,0.2-1.6,0.6-1.1,0.6c-0.6,0-2.1,0.5-2.7,0.7
							c0,0,0-0.1,0.1-0.1c-1.2,0.2-1.1,0.8-2.3,1c0,0.2-0.5,0.3-1,0.6c-0.5,0.3-1,0.6-1.2,0.9c-0.1,0-0.2,0-0.2-0.1
							c-0.4,0.2-0.9,0.5-1.3,0.8c-0.4,0.3-0.8,0.6-1.2,0.9c-0.8,0.6-1.6,1.1-2.2,1.7c-0.9,1.1-2.6,2.2-3.2,3.4
							c-0.4,0.4-0.8,0.8-1.3,1.3s-0.9,1.2-1.3,1.8l0.1-0.1c-1,1.2-1.9,3-2.4,4c-0.5,0.2-0.7,0.9-1.1,1.5c-0.2,0.5-0.5,1.2-0.9,2
							c-0.3,0.8-0.6,1.7-0.8,2.5c-0.2,0.2-0.4,1.3-0.6,1.3c-0.2,1.1-0.5,2.3-0.7,3.5c-0.1,1.2-0.4,2.5-0.5,3.8s-0.2,2.6-0.2,3.8
							c0,1.3,0,2.5,0.1,3.8v-0.1c0.2,0.6,0.5,1.3,0.8,1.9c0,0.1,0,0.1-0.1-0.1c0.1,0.4,0.1,0.9,0.1,1.3c0.1,0.4,0.1,0.8,0.3,1.3
							c0,0,0,0-0.1-0.1c0.3,0.8,0.3,1.7,0.7,2.6v0.1l0.3,0.6c-0.1,0-0.2,0-0.3-0.3c1.1,3.6,3,7.1,5.3,10.2l0.9,1.1
							c0.3,0.4,0.6,0.8,0.9,1.1l2,2.1l2.2,1.9c0.7,0.7,1.5,1.2,2.3,1.8l-0.3-0.1l1.3,0.8c0,0-0.1,0-0.2,0c1.6,1.1,3.3,2,5,2.8
							c0,0-0.3,0-0.1,0.1c0.7,0.2,1.1,0.5,1.6,0.7c0.4,0.2,0.8,0.3,1.2,0.3c0.1,0,0.1,0.1-0.1,0.1l1.4,0.5l0.7,0.2l0.7,0.2
							c0.9,0.2,1.9,0.5,2.8,0.7l2.9,0.4l0.7,0.1h0.7l1.5,0.1c1.6,0,3.3-0.2,5-0.3c0.9-0.1,1.7-0.2,2.5-0.4c0.4-0.1,0.8-0.2,1.3-0.2
							c0.4-0.1,0.8-0.2,1.2-0.4v0.1c4.1-1.2,8.5-2.8,12.1-5.4c1.5-1.1,2.5-1.8,3.8-3.2h0.1c1.1-1.1,2.2-2.3,3.4-3.5
							c0.6-0.6,1.1-1.3,1.6-1.9c0.3-0.3,0.5-0.7,0.7-1c0.2-0.4,0.4-0.7,0.6-1.1v0.3c0.1-0.5,1.1-1.7,0.7-1.6l0.4-0.4
							c0.3-1.1,0.8-2,1.3-2.9s0.9-2,1.3-3.3v0.2c0.2-0.7,0.3-1.5,0.6-2c0,0.1,0,0.1,0,0.2c0.4-1.1,0.8-2.2,0.9-3.4
							c0.1-1.2,0.3-2.4,0.3-3.6l0.1,0.3c0-0.6,0-1.4,0-2.3c0.1-0.9,0-1.8-0.1-2.5l0.1,0.1l-0.1-0.8h0.1c0-1-0.2-1.9-0.4-2.9
							C194.9,99.4,194.8,98.4,194.5,97.5z"/>
					</g>
				</g>
			</g>
		</g>
	</g>
	<g>
		
			<rect x="61.2" y="85.8" transform="matrix(5.920975e-02 -0.9982 0.9982 5.920975e-02 -46.4166 164.4736)" class="st2" width="5.7" height="42.2"/>
		<g>
			<g>
				<g>
					<g>
						<polygon class="st5" points="85.7,110.9 85.7,110.9 85.6,110.8 						"/>
						<path class="st5" d="M85.5,110.2C85.4,110.2,85.4,110.2,85.5,110.2l0.2,0.5C85.8,110.5,85.3,110.3,85.5,110.2z"/>
						<path class="st5" d="M85.5,110c0.1-0.2-0.1-0.3-0.1-0.3C85.5,109.8,85.4,110.1,85.5,110z"/>
						<path class="st5" d="M70.6,104.4L70.6,104.4c0.8-0.1,1.6,0.2,2.4,0.2h-0.1c2,0.2,3.9,0.1,5.9,0.1c0,0,0,0-0.1,0.1
							c0.1,0,0.2-0.1,0.3-0.1c0,0,0,0-0.1,0.1c0.4,0.2,1.3,0,1.5,0.1c0.1,0,0.2-0.1,0.1-0.1c0.8,0,1.6,0,2.3,0.1c0.9,0,1.9,0,2.8,0
							v0.2c0,0.1-0.1,0.2-0.2,0.2c0,0.2,0,0.5,0.1,0.7c0,0.2,0,0.3,0,0.5c0,0.3,0,0.7,0,1.1c0,0.7-0.1,1.4-0.2,2.1
							c0.1,0.1,0.1-0.1,0.2,0c0.1-0.4-0.1-0.8,0-1.2l0.1,0.1c0.1-0.3-0.2-0.1-0.1-0.4c0.1-0.1,0.1,0,0.1,0c0-0.6,0.1-1.3,0-1.9
							c0.2,0,0.1-1,0.3-1.5l0,0c-0.3,0-0.6,0-0.8,0.1l-1.1-0.1l-0.8-0.1c-0.6,0-1.1,0-1.7-0.1c-1.1,0-2.3-0.1-3.4-0.1
							c-1.1,0.3-2.3-0.2-3.6-0.2l0,0c-0.4,0.1-1,0.1-1.5,0l-0.4,0.1c-2.9-0.4-5.9-0.4-8.9-0.7c-3.4-0.3-6.3-0.7-9.7-0.5
							c0,0,0,0,0.1-0.1c-1,0-1.8-0.2-2.7-0.1l0,0c-2.2,0.1-4.6-0.3-6.8-0.2c-0.5,0-1.1-0.1-1.7-0.1c-0.1,0.9-0.1,1.9-0.2,2.9
							c0,1-0.1,2-0.1,3h1.1v0.1c2.2,0,4.3,0.5,6.6,0.5c2.3,0.3,4.7-0.1,7,0.2c1.4,0.4,3.3-0.2,4.6,0.2c2.7,0.6,5.4,0.5,8.1,0.4
							c2.5,0.3,5.1,0,7.5,0.5c1.2-0.2,2.4,0.4,3.7,0.4v-0.1c0.4,0.3,1.1-0.3,1.3,0.1l0,0c0.2,0.2,0.6-0.4,0.7-0.2v-0.1
							c0.3,0,0,0.1,0.3,0.2c0.1,0,0-0.2,0.2-0.1c0,0.4,0.7,0,0.7,0.4c-0.2,0,0.2,0.2-0.1,0.2c0.1,0,0.6,0.1,0.6-0.1
							c0.1-0.2,0.3-0.3,0-0.5l-0.1,0.1c-0.1-0.1-0.1-0.1-0.1-0.2c-0.4,0-0.4-0.2-0.7-0.3l0,0c-0.2,0.1-0.5,0-0.6,0l-0.1-0.1
							c-0.1-0.2-0.5,0.3-0.3,0c-0.8,0-1.7,0-2.6-0.1c-0.1,0.1-0.7,0-0.5,0.2c-0.2-0.2-0.9-0.3-1.1-0.3c0,0,0,0,0.1,0
							c-0.5-0.3-0.6,0.2-1-0.1c-0.1,0.2-0.8-0.1-1.1,0.1c-0.1-0.1-0.1-0.1,0-0.2c-0.8-0.1-1.7-0.2-2.4-0.2c-0.6,0.2-1.4-0.2-1.9,0.1
							c-0.4-0.1-1.1-0.3-1.7-0.2h0.1c-0.7,0-1.5-0.1-1.9,0.1c-0.2-0.3-0.5-0.3-0.7-0.4c-0.4,0.1-1.3,0-2,0.1c-0.1-0.1-0.6,0-0.6-0.2
							c-1.9,0.3-4.2,0-6.2-0.4l0,0c-0.3,0.1-0.6,0.3-0.9,0.4c0,0,0-0.1,0,0c-0.4,0-0.7-0.2-1.1-0.2c0,0,0,0,0.1-0.1
							c-0.3,0.1-0.7-0.2-1.1-0.1v-0.1l-0.3,0.1c0-0.1,0-0.2,0.2-0.1c-3.1-0.2-6.4-0.1-9.6-0.3l0.1-0.1l-0.6,0.1c0,0,0,0,0.1-0.1
							c-0.8-0.2-1.6,0-2.4-0.1c0,0,0.1-0.1,0-0.1s-0.2,0-0.3,0h-0.1c-0.1,0-0.1-0.1-0.1,0h-0.1l0.1-0.1c0-0.1,0-0.1,0-0.3V107v-1.2
							c0-0.8,0.1-1.7,0.2-2.4c0-0.1-0.1-0.3-0.1-0.4c0.2,0,0.3,0,0.6,0s0.6,0,0.9,0c0.6,0,1.2,0.1,1.8,0v0.1
							c1.8-0.1,3.7,0.2,5.6,0.3c0.8,0.1,1.3,0,2.1,0.1v0.1c1.3-0.2,2.7,0.4,4.1,0.2l-0.1,0.1c0.2-0.2,0.8,0.1,0.8-0.2l0.2,0.1
							c1-0.3,1.7,0.3,2.8,0.1l-0.1,0.1c0.3,0,0.7-0.1,0.9,0c0,0,0,0-0.1,0c0.9,0.3,2,0.1,3,0.2l-0.1,0.1c0.5-0.1,1.4,0.1,2,0v0.1
							l0.3-0.1v0.1C69,104.4,69.8,104.4,70.6,104.4z"/>
					</g>
				</g>
			</g>
		</g>
	</g>
	<g>
		
			<rect x="26.5" y="76.4" transform="matrix(0.4513 -0.8924 0.8924 0.4513 -41.2742 91.4381)" class="st2" width="54.5" height="5.7"/>
		<g>
			<g>
				<g>
					<g>
						<path class="st5" d="M39.6,103.1L39.6,103.1L39,103C39.1,103.3,39.5,102.9,39.6,103.1z"/>
						<path class="st5" d="M39.7,103.2c0.2,0.2,0.3,0.1,0.4,0.1C40,103.3,39.8,103.1,39.7,103.2z"/>
						<path class="st5" d="M53,87.1L53,87.1c-0.3,0.8-1,1.7-1.4,2.6v-0.1c-1.2,2.2-2.1,4.4-3.1,6.7v-0.1c0,0.1,0,0.3-0.1,0.4v-0.1
							c-0.4,0.4-0.6,1.4-0.9,1.7c-0.1,0.1,0,0.2,0.1,0.2c-0.8,1.8-1.8,3.7-2.5,5.5c-0.1,0.1-0.1,0.1-0.2,0c-0.1,0.2-0.1,0.3-0.2,0.6
							l-0.4,0.9l-1.3-0.6l-0.9-0.5c-0.6-0.3-1.2-0.7-1.8-1c-0.1,0,0.1,0.2-0.1,0.1c0.5,0.3,1,0.3,1.4,0.7h-0.1
							c0.3,0.2,0.2-0.1,0.5,0.1c0.1,0.1-0.1,0.1,0,0.1c0.3,0.2,0.6,0.3,0.9,0.5c0.2,0.1,1,0.5,1.4,0.6c0.1-0.2,0.1-0.3,0.2-0.5
							c0.1,0,0.1-0.1,0.2-0.3c0.1-0.1,0.2-0.4,0.2-0.4c0.1-0.2,0.2-0.4,0.3-0.5c0-0.2,0.1-0.4,0.1-0.5c1.3-2.4,2.5-5,3.8-7.6
							c0.3-1.3,1.4-2.6,2-4l0,0c0.2-0.5,0.5-1.2,0.8-1.7l0.1-0.5c1.9-3.2,3.4-6.6,5.2-9.9c2-3.8,3.9-7,5.4-10.9c0,0,0.1,0,0,0.1
							c0.5-1.1,1.1-2,1.5-3.1l0,0c1-2.6,2.7-5.2,3.6-7.7c0.3-0.6,0.6-1.2,1-1.9c-1.7-0.8-3.5-1.7-5.3-2.6c-0.4,0.8-0.8,1.7-1.2,2.6
							h-0.1c-1.1,2.5-2.7,4.8-3.8,7.3c-1.4,2.5-2.3,5.4-3.8,7.9c-1.1,1.5-1.5,3.8-2.6,5.2c-2,2.9-3.2,6-4.5,9.2
							c-1.6,2.8-2.6,5.8-4.3,8.4c-0.5,1.4-1.6,2.6-2.3,4.1h0.1c-0.5,0.4-0.3,1.3-0.8,1.5v-0.1c-0.3,0.2,0.1,0.8-0.2,0.9l0.1,0.1
							c-0.1,0.3-0.1,0-0.3,0.2c0,0.1,0.1,0.1,0,0.3c-0.3-0.1-0.3,0.9-0.7,0.7c0.1-0.2-0.3,0.2-0.2-0.2c-0.1,0.1-0.4,0.7-0.2,0.7
							c0.1,0.1,0.2,0.4,0.5,0.1l-0.1-0.1c0.2-0.1,0.1-0.1,0.2-0.1c0.2-0.4,0.4-0.4,0.7-0.7l0,0c0-0.3,0.2-0.5,0.3-0.7h0.1
							c0.2,0,0-0.6,0.2-0.4c0.4-0.9,0.9-2,1.4-3c0-0.2,0.4-0.8,0.1-0.6c0.3-0.2,0.8-0.9,0.9-1.2c0,0,0,0,0,0.1
							c0.5-0.4,0.1-0.8,0.7-1.1c-0.2-0.2,0.5-0.9,0.4-1.3c0.1,0,0.1,0,0.2,0c0.5-0.9,1.1-1.9,1.5-2.6c0.1-0.8,0.9-1.5,0.9-2.2
							c0.3-0.4,0.8-1.1,1-1.8v0.1c0.4-0.7,0.8-1.7,0.9-2.3c0.4-0.1,0.5-0.4,0.7-0.7c0.1-0.6,0.7-1.5,0.9-2.3
							c0.2-0.1,0.3-0.6,0.5-0.6c0.7-2.3,2.2-4.8,3.6-6.9l0,0c0.1-0.3,0-0.8,0-1.1c0,0,0.1,0,0,0.1c0.2-0.4,0.5-0.7,0.7-1.2
							c0,0,0,0,0,0.1c0.1-0.4,0.5-0.7,0.6-1.2h0.1l0.1-0.3c0.1,0,0.1,0.1,0,0.2c1.8-3.5,3.4-7.3,5.3-10.9v0.2l0.3-0.8v0.1
							c0.5-0.8,0.9-1.9,1.3-2.7c0,0,0,0.2,0.1,0.1c0.2-0.7,0.7-0.9,0.6-1.4c0,0,0.1,0,0.1,0.1l0.2-0.5l0.1-0.3l0.3,0.1l0.5,0.2
							l1.1,0.5c0.7,0.4,1.5,0.8,2.2,1.1c0.2,0.1,0.3,0.1,0.5,0.2c-0.1,0.2-0.2,0.4-0.3,0.8c-0.2,0.3-0.3,0.7-0.5,1
							c-0.3,0.7-0.7,1.4-0.9,2.1h-0.1c-0.8,2.1-2.1,4.2-3.1,6.3c-0.5,0.9-0.7,1.5-1.1,2.4h-0.1c-0.5,1.6-1.8,3-2.3,4.7v-0.2
							c0,0.3-0.5,0.9-0.2,0.9l-0.2,0.2c-0.2,1.2-1.1,1.8-1.5,3.2v-0.1c-0.1,0.4-0.3,0.8-0.5,1c0,0,0,0,0-0.1
							c-0.8,0.9-1.1,2.3-1.7,3.4l-0.1-0.2c-0.1,0.6-0.8,1.5-1.1,2.3v-0.1l-0.1,0.4h-0.1C53.8,85.2,53.4,86.1,53,87.1z"/>
						<path class="st5" d="M40,101.3L40,101.3C40,101.4,40,101.4,40,101.3z"/>
					</g>
				</g>
			</g>
		</g>
	</g>
	<g>
		<rect x="66.7" y="49.7" class="st2" width="70.6" height="5.7"/>
		<g>
			<g>
				<g>
					<g>
						<polygon class="st5" points="66,49.6 65.9,49.7 66.1,49.9 						"/>
						<path class="st5" d="M66.2,50.9C66.2,50.8,66.3,50.9,66.2,50.9L66,50.1C65.8,50.4,66.3,50.7,66.2,50.9z"/>
						<path class="st5" d="M66.2,51.1c-0.1,0.3,0.1,0.4,0.1,0.5C66.2,51.5,66.3,51,66.2,51.1z"/>
						<path class="st5" d="M93.5,55.3L93.5,55.3c-1.1,0.1-2.5-0.1-3.7,0h0.1c-3.2,0-6.2,0.1-9.4,0.2c0,0,0.1,0,0.1-0.1
							c-0.2,0-0.3,0.1-0.5,0.1c0,0,0-0.1,0.1-0.1c-0.7-0.2-2,0.1-2.4,0c-0.2,0-0.3,0.1-0.2,0.2c-2.5,0-5.2,0.1-7.7,0.2
							c-0.1,0-0.1-0.1-0.1-0.1c-0.5,0.1-1,0.1-1.5,0.1h-0.8h-1.2v-1.4v-0.9c0-0.6,0-1.2,0-1.8c-0.1-0.1-0.1,0.2-0.2,0
							c-0.1,0.7,0.2,1.3,0,2L66,53.6c0,0.5,0.2,0.1,0.1,0.6c-0.1,0.2-0.1,0-0.1,0c0,0.6,0,1.1,0,1.7h0.9h0.4h0.2
							c0.3,0,0.6-0.1,0.9-0.1c0.2,0.2,1.1,0,1.5,0.2c0.3-0.1,0.5,0,0.6-0.2c3.5,0.1,7.1-0.1,10.7-0.1c1.7-0.3,3.7,0.1,5.7,0l0,0
							c0.7-0.1,1.6-0.1,2.4-0.1l0.7-0.1c4.7,0.3,9.5,0.1,14.2,0.2c5.4,0.1,10.1,0.3,15.4-0.1c0,0,0,0-0.1,0.1c1.5-0.1,2.9,0.1,4.3,0
							l0,0c3.6-0.3,7.4,0,10.8-0.2c0.8,0,1.7,0,2.6,0c0-1.8,0-3.9,0-5.9c-1.7,0-3.4,0-5.2,0.1v-0.1c-3.5,0.1-6.9-0.2-10.5-0.1
							c-3.6-0.1-7.4,0.4-11.1,0.2c-2.3-0.3-5.2,0.3-7.4,0c-4.4-0.5-8.6-0.2-13,0.1c-4-0.2-8,0.3-11.9-0.1c-1.8,0.2-3.9-0.3-5.9-0.2
							l0.1,0.1c-0.7-0.2-1.6,0.3-2.1,0h0.1c-0.4-0.2-0.9,0.4-1.1,0.2l-0.1,0.1c-0.5,0-0.1-0.1-0.4-0.1c-0.1,0-0.1,0.2-0.3,0.1
							c-0.1-0.4-1.2,0.1-1.2-0.3c0.3,0-0.4-0.2,0.2-0.2c-0.2,0-1,0-0.9,0.1c-0.1,0.2-0.4,0.3,0.1,0.5l0.1-0.1
							c0.2,0.1,0.1,0.1,0.2,0.2c0.6,0,0.7,0.2,1.2,0.3l0,0c0.3-0.2,0.7-0.1,1,0l0.1,0.1c0.1,0.2,0.7-0.3,0.5,0
							c1.3-0.1,2.7-0.1,4.2-0.1c0.2-0.1,1.1,0,0.8-0.2c0.4,0.2,1.4,0.3,1.8,0.3c0,0,0,0-0.1,0c0.8,0.3,0.9-0.3,1.6,0.1
							c0.1-0.2,1.3,0.1,1.7-0.2c0.1,0.1,0.1,0.1,0.1,0.1c1.3,0,2.7,0.1,3.8,0.1c0.9-0.2,2.3,0.1,3.1-0.2c0.7,0.1,1.7,0.2,2.7,0.1
							h-0.1c1,0,2.4,0,3.1-0.2c0.3,0.3,0.8,0.2,1.2,0.3c0.7-0.1,2.1-0.1,3.2-0.2c0.2,0.1,0.9-0.1,0.9,0.1c3-0.4,6.7-0.2,9.9,0l0,0
							c0.4-0.1,0.9-0.3,1.3-0.5c0,0,0,0-0.1,0c0.6,0,1.1,0.2,1.7,0.1c0,0,0,0-0.1,0.1c0.5-0.1,1.1,0.2,1.8,0v0.1l0.4-0.1
							c0,0.1,0,0.2-0.2,0.1c5,0.1,10.2-0.3,15.3-0.2l-0.2,0.1l1-0.1c0,0-0.1,0-0.1,0.1c1.3,0.1,2.6-0.1,3.8,0c0,0-0.2,0.1,0,0.1
							c0.9-0.2,1.5,0.2,1.9-0.1c0,0,0.1,0.1,0,0.1c0.5,0,1,0,1.5-0.1c0.4,0,0.8,0,1.2,0c0,0.7,0,1.3,0,2c0,0.8,0,1.6,0,2.3
							c0.1,0.4,0.1,0.5,0.1,0.8c-0.1,0-0.3,0-0.4,0h-0.7c-0.5,0-1,0-1.4,0c-1,0-1.9,0-2.9,0.1v-0.1c-2.9,0.2-5.9,0-8.9,0
							c-1.2,0-2.1,0-3.3,0.1v-0.1c-2.1,0.3-4.4-0.3-6.6,0.1l0.2-0.1c-0.3,0.2-1.3-0.1-1.2,0.2l-0.4-0.1c-1.5,0.4-2.7-0.2-4.5,0.1
							l0.1-0.1c-0.5,0.1-1,0.1-1.4,0c0.1,0,0,0,0.1,0c-1.5-0.3-3.2,0-4.8,0l0.2-0.1c-0.8,0.2-2.2,0-3.2,0.1l0.1-0.1l-0.5,0.1v-0.1
							C96,55.2,94.7,55.3,93.5,55.3z"/>
						<path class="st5" d="M80.1,55.5L80.1,55.5C80.2,55.4,80.2,55.4,80.1,55.5z"/>
					</g>
				</g>
			</g>
		</g>
	</g>
	<g>
		
			<rect x="72.3" y="44.9" transform="matrix(0.9157 -0.4019 0.4019 0.9157 -24.1684 36.6112)" class="st2" width="5.7" height="62.1"/>
		<g>
			<g>
				<g>
					<g>
						<polygon class="st5" points="65,45.6 65,45.6 64.9,45.8 						"/>
						<path class="st5" d="M64.1,46.3C64.2,46.3,64.2,46.3,64.1,46.3l0.5-0.5C64.4,45.7,64.4,46.3,64.1,46.3z"/>
						<path class="st5" d="M64,46.3c-0.3,0-0.3,0.2-0.3,0.3C63.7,46.5,64.1,46.4,64,46.3z"/>
						<path class="st5" d="M69.5,69.7L69.5,69.7c-0.5-0.9-0.8-2.1-1.3-3.1l0.1,0.1c-1.1-2.6-2.3-5-3.6-7.5c0,0,0.1,0,0.1,0.1
							c-0.1-0.1-0.2-0.2-0.3-0.4c0,0,0.1,0,0.1,0.1c-0.1-0.6-0.8-1.6-0.8-2c-0.1-0.1-0.2-0.2-0.2-0.1c-0.9-2-1.9-4.2-3-6.2
							c0-0.1,0-0.1,0.1-0.1c-0.4-0.6-0.6-1-1.2-2.3l1.3-0.6l0.9-0.4c0.6-0.2,1.2-0.5,1.8-0.7c0-0.1-0.2,0-0.1-0.1
							c-0.6,0.2-1,0.6-1.6,0.7v-0.1c-0.4,0.1,0,0.2-0.4,0.3c-0.2,0,0-0.1-0.1-0.1c-0.7,0.3-1.4,0.6-2,0.9c0.3,0.6,0.6,1.3,0.8,1.4
							c-0.1,0.3,0.4,0.9,0.4,1.2c0.2,0.2,0.2,0.4,0.4,0.4c1.2,2.9,2.6,5.8,3.9,8.7c0.9,1.2,1.3,3,2.1,4.6l0,0
							c0.3,0.5,0.7,1.3,0.9,1.9l0.2,0.7c1.4,3.9,3.3,7.7,4.9,11.7c1.9,4.4,3.3,8.4,5.6,12.5c0,0,0,0-0.1-0.1c0.6,1.2,1,2.4,1.6,3.5
							l0,0c1.5,2.8,2.6,6,4.1,8.7c0.3,0.7,0.6,1.4,0.9,2.1c1.7-0.8,3.5-1.6,5.4-2.4c-0.5-1.2-1.1-2.4-1.6-3.6h0.1
							c-1.4-2.8-2.3-5.7-3.6-8.5c-1.2-3-3-5.9-4.1-9c-0.5-2-2.2-4.1-2.7-6c-1.1-3.7-2.9-7.1-4.7-10.5c-1.3-3.3-3.1-6.4-4.2-9.7
							c-0.9-1.4-1.1-3.3-1.9-4.9V51c0-0.7-0.9-1.2-0.7-1.7v0.1c0-0.4-0.7-0.6-0.6-0.8h-0.1c-0.2-0.4,0.1-0.1,0-0.4
							c-0.1-0.1-0.2,0-0.2-0.2c0.3-0.2-0.5-0.9-0.1-1.1c0.1,0.2,0-0.4,0.3,0c0-0.2-0.3-0.8-0.5-0.7c-0.2,0-0.4-0.2-0.4,0.3h0.2
							c-0.1,0.2,0,0.1-0.1,0.2c0.2,0.5,0.1,0.7,0.1,1.1l0,0c0.3,0.2,0.3,0.6,0.4,0.8v0.1c-0.1,0.2,0.5,0.5,0.2,0.4
							c0.5,1,1,2.2,1.6,3.4c0.2,0.1,0.4,0.9,0.4,0.6c-0.1,0.4,0.3,1.3,0.4,1.6c0,0-0.1,0-0.1-0.1c0,0.7,0.6,0.6,0.5,1.4
							c0.3,0,0.4,1.1,0.8,1.3c0,0.1-0.1,0.1-0.1,0.1c0.5,1.1,0.9,2.2,1.3,3.1c0.5,0.7,0.7,1.9,1.3,2.4c0.2,0.6,0.4,1.5,0.9,2.2
							L73.1,65c0.4,0.8,0.9,1.9,1.3,2.4c-0.2,0.4,0.1,0.7,0.1,1.1c0.4,0.5,0.8,1.7,1.3,2.5c-0.1,0.2,0.4,0.7,0.2,0.8
							c1.4,2.3,2.6,5.3,3.5,8.1l0,0c0.2,0.3,0.6,0.6,0.9,0.9c0,0,0,0-0.1,0c0.2,0.5,0.3,1,0.5,1.4c0,0,0,0-0.1-0.1
							c0.3,0.4,0.3,1,0.6,1.4l0,0l0.2,0.3c-0.1,0-0.2,0-0.2-0.1c1.7,4.1,3.9,8.2,5.7,12.4L86.9,96l0.5,0.8c0,0-0.1,0-0.1-0.1
							c0.4,1.1,1,2.1,1.4,3.1c0,0-0.2-0.1-0.1,0c0.5,0.7,0.3,1.3,0.8,1.5c0,0-0.1,0.1-0.1,0c0.3,0.5,0.5,1,0.8,1.5l-0.3,0.1
							l-0.5,0.2l-1.1,0.5c-0.7,0.3-1.5,0.6-2.2,0.9l-0.2,0.1l-0.1,0.1c-0.1,0.1-0.2,0.1-0.3,0.2c-0.1-0.1-0.1-0.2-0.2-0.3l-0.3-0.5
							c-0.2-0.4-0.3-0.8-0.5-1.2c-0.3-0.8-0.7-1.6-1.1-2.3h0.1c-1.2-2.2-2.1-4.8-3.2-7.2c-0.4-1-0.8-1.7-1.2-2.7l0.1-0.1
							c-1-1.6-1.3-3.7-2.4-5.3l0.2,0.1c-0.3-0.2-0.4-1.1-0.6-0.9l-0.1-0.3c-0.9-1.1-0.8-2.3-1.7-3.6l0.1,0.1
							c-0.2-0.4-0.5-0.8-0.5-1.1c0,0,0,0,0.1,0.1c-0.3-1.3-1.2-2.6-1.7-3.9l0.2,0.1c-0.4-0.6-0.8-1.8-1.2-2.6h0.1l-0.3-0.4l0.1-0.1
							C70.5,71.7,69.9,70.8,69.5,69.7z"/>
					</g>
				</g>
			</g>
		</g>
	</g>
	<g>
		
			<rect x="59.3" y="39.9" transform="matrix(0.9156 -0.4021 0.4021 0.9156 -12.4613 28.2602)" class="st4" width="3.6" height="7.9"/>
		<g>
			<g>
				<g>
					<g>
						<path class="st5" d="M60.8,39.1C60.8,39.1,60.9,39.2,60.8,39.1v-0.3C60.7,38.7,60.9,39.2,60.8,39.1z"/>
						<path class="st5" d="M60.8,39.1C60.7,39.1,60.8,39.2,60.8,39.1C60.7,39.1,60.9,39.2,60.8,39.1z"/>
						<path class="st5" d="M58.5,42.1L58.5,42.1c-0.2-0.1-0.1-0.4-0.2-0.5l0,0c-0.1-0.2-0.2-0.4-0.3-0.6c0.1-0.1,0.3-0.2,0.5-0.4
							c0,0,0,0,0,0.1v-0.1v0.1c0.2,0.1,0.2-0.2,0.3-0.1c0,0,0-0.1,0-0.2c0.3-0.2,0.7-0.4,1-0.7l0.1,0.1c0.2-0.4,0.5-0.4,0.9-0.5
							c0-0.1-0.1-0.1-0.1-0.1c-0.1,0-0.1,0.3-0.3,0.2v-0.1c-0.1,0,0.1,0.2,0,0.1c-0.1,0,0-0.1,0-0.1c-0.1,0.1-0.3,0.1-0.4,0.3
							c-0.1-0.1-0.2,0.1-0.3-0.1c0,0.1-0.1,0.1,0,0.2c-0.3,0.1-0.5,0.2-0.7,0.3l-0.4,0.2l-0.2,0.1l-0.3,0.1
							c-0.1,0.3-0.3,0.3-0.7,0.4c0,0.1,0.1,0.3,0.2,0.5l0,0c0.2,0.1,0.3,0.3,0.3,0.5c0.1,0,0.1,0,0.2,0c0,0.8,0.5,1.3,0.7,2
							c0.3,0.8,0.3,1.5,1,2.1c0,0,0,0-0.1,0c0.2,0.2,0.1,0.4,0.3,0.6l0,0c0.5,0.4,0.4,1,0.9,1.4c0.1,0.1,0.1,0.3,0.2,0.4
							c0.3-0.1,0.6-0.3,0.8-0.4c0.2-0.1,0.5-0.3,0.7-0.4v0.1c0.2-0.2,0.5-0.2,0.7-0.3c0.3-0.1,0.5-0.1,0.8-0.3
							c0.2,0,0.3-0.1,0.5-0.2c-0.3-0.6-0.7-0.8-0.8-1.3c0.1-0.4-0.6-0.6-0.5-1c0.2-0.8-0.4-1.3-0.9-1.7c-0.1-0.6-0.7-1-0.6-1.7
							c-0.3-0.2,0-0.6-0.2-0.9h-0.1c0.2-0.2-0.4-0.1-0.1-0.3l0,0c0.1-0.1-0.4,0-0.3-0.1H61c-0.1-0.1,0.1,0,0.1-0.1
							c0,0-0.2,0.1-0.1,0c0.3-0.2-0.1-0.1,0.2-0.3c0,0,0.1-0.1,0.2-0.1c0,0,0-0.1-0.2-0.1c-0.2,0.1-0.3,0.1-0.4,0.2h0.1
							c-0.1,0.1-0.1,0-0.1,0.1s-0.1,0.2-0.2,0.3l0,0c0.2,0,0.1,0.1,0.1,0.1h-0.1c-0.1,0.1,0.3,0,0.1,0.1c0.1,0.1,0.2,0.4,0.3,0.5
							c0.1,0,0.1,0.2,0.2,0c-0.2,0.1-0.2,0.3-0.1,0.4l0,0c-0.2,0.2,0.3,0,0,0.3c0.2-0.1,0,0.2,0.3,0.1l-0.1,0.1
							c0.1,0.2,0.1,0.4,0.1,0.6c0.3,0,0,0.4,0.4,0.3c0,0.1-0.1,0.3,0.1,0.4l0,0c0.1,0.1,0.2,0.3,0.4,0.3c-0.2,0.2-0.2,0.2-0.2,0.3
							c0.2,0,0.2,0.3,0.4,0.4c-0.1,0.1,0.1,0.1-0.1,0.2c0.5,0.3,0.6,0.8,0.6,1.4l0,0c0.1,0,0.4,0,0.5,0l0,0c0.1,0.1-0.1,0.2,0,0.3
							c0,0,0,0-0.1,0c0.1,0-0.1,0.2,0.1,0.2l0,0h0.1c-0.1,0-0.1,0.1-0.1,0c0,0.1,0.1,0.2,0.1,0.2c0,0.1,0,0,0,0.1l0.1,0.1
							c0,0-0.1,0.1-0.1,0.2c-0.1,0.1-0.4,0.2-0.6,0.3v-0.1l-0.1,0.2c0,0,0,0,0-0.1c-0.2,0-0.3,0.2-0.5,0.3v-0.1
							c-0.1,0.2-0.3-0.1-0.2,0.2V47c-0.2,0.1-0.3,0.2-0.5,0.3c-0.1,0.1-0.2,0.1-0.3,0.1c0,0.1-0.1,0.1-0.1,0.2
							c-0.1,0-0.1-0.1-0.2-0.2c0-0.1-0.1-0.2-0.3-0.3h0.1c-0.4-0.3-0.3-0.8-0.6-1.2c-0.1-0.2-0.2-0.3-0.3-0.4h0.1
							c-0.4-0.2,0-0.7-0.5-0.9h0.1c-0.2,0,0-0.2-0.3-0.1l0.1-0.1c-0.4,0,0-0.4-0.3-0.6h0.1c-0.1,0-0.2-0.1-0.1-0.2c0,0,0,0,0.1,0
							c0.2-0.3-0.2-0.4-0.3-0.7h0.1c-0.2,0-0.1-0.3-0.3-0.4h0.1h-0.1l0.1-0.1C58.7,42.4,58.6,42.2,58.5,42.1z"/>
					</g>
				</g>
			</g>
		</g>
	</g>
	<g>
		<path class="st0" d="M53.8,33.6c4.1,0.9,12,0.2,15.8,0c3.9-0.2,5.3,3.1,2.2,3.5s-4.1,1.3-6.3,2.9c-2.2,1.7-9.4,2.4-15.1,1.1
			c-5.7-1.3-5.7-2.6-5.2-5.9S48.5,32.5,53.8,33.6z"/>
		<g>
			<g>
				<g>
					<g>
						<polygon class="st5" points="53.9,32.9 53.9,32.9 53.8,33 						"/>
						<path class="st5" d="M53.4,33C53.4,33.1,53.4,33.1,53.4,33l0.4-0.2C53.6,32.7,53.4,33.2,53.4,33z"/>
						<path class="st5" d="M53.3,33c-0.1-0.1-0.2,0-0.2,0.1C53.1,33,53.3,33.1,53.3,33z"/>
						<path class="st5" d="M45.6,38.9L45.6,38.9c-0.4-0.3-0.3-0.9-0.4-1.4l0,0c0-0.7,0-1.3,0.1-2c0-0.6,0.1-1.3,0.5-1.9v0.1
							c0-0.1,0-0.2,0.1-0.2v0.1c0.1-0.1,0.3-0.2,0.4-0.3c0.2-0.1,0.3-0.2,0.4-0.2c0.1,0,0.1-0.1,0-0.2c1.1-0.4,2.3-0.3,3.4-0.3
							c0,0,0.1,0.1,0,0.1c1-0.2,1.9,0.2,2.8,0.4c0.1-0.1-0.1-0.1,0-0.2c-0.3-0.2-0.6,0.1-0.8-0.1v-0.1c-0.2-0.1-0.1,0.2-0.3,0
							c-0.1-0.1,0-0.1,0-0.1c-0.4,0-0.9-0.2-1.3-0.1c-0.1-0.2-0.5-0.1-0.6-0.3c-0.1,0-0.2,0-0.3,0.1c-0.8-0.1-1.6-0.2-2.4-0.1
							c-0.4,0.1-0.8,0.2-1.2,0.4s-0.7,0.6-0.9,1c-0.1,0.8-0.5,1.6-0.5,2.5l0,0c0.1,0.3,0.1,0.7,0,1.1c0,0.1,0.1,0.2,0.2,0.3
							c0,0.5,0.1,1.1,0.4,1.6c0.3,0.5,0.8,0.8,1.3,1c1,0.5,2,0.8,2.9,1.1c2.2,0.7,4.3,1.1,6.6,0.8c0,0,0,0,0,0.1
							c0.7-0.1,1.2,0.1,1.9,0l0,0c1.5-0.3,3.2-0.2,4.6-0.8c0.9-0.2,1.8-0.4,2.7-0.9c0.8-0.5,1.5-1.2,2.3-1.7v0.1
							c0.6-0.5,1.3-0.8,2-1s1.4-0.3,2.1-0.4c0.4,0,0.8-0.1,1.2-0.3s0.8-0.5,0.8-0.9c0.1-0.4-0.1-0.8-0.3-1.1s-0.5-0.6-0.8-0.8
							c-0.3-0.4-1-0.5-1.5-0.5c-0.6,0-1.1,0.1-1.5,0c-1.9-0.4-3.7,0-5.5,0.4c-1.7-0.1-3.4,0.4-5.1,0c-0.8,0.2-1.6-0.3-2.5-0.3V34
							c-0.3-0.3-0.7,0.3-0.9-0.1l0,0c-0.1-0.2-0.4,0.4-0.5,0.1v0.1c-0.2,0,0-0.1-0.2-0.2c-0.1,0,0,0.2-0.2,0.1c0-0.4-0.5,0-0.4-0.4
							c0.1,0-0.1-0.2,0.1-0.2c-0.1-0.1-0.4-0.1-0.4,0.1c-0.1,0.2-0.2,0.3-0.1,0.5l0.1-0.1c0,0.1,0,0.1,0,0.2
							c0.3,0.1,0.3,0.3,0.5,0.4l0,0c0.2-0.1,0.3,0,0.4,0v0.1c0,0.2,0.3-0.3,0.2,0c0.6,0,1.2,0.1,1.8,0.1c0.1-0.1,0.5,0,0.3-0.2
							c0.1,0.2,0.6,0.3,0.8,0.3l0,0c0.3,0.3,0.4-0.3,0.7,0.1c0.1-0.2,0.6,0.1,0.7-0.2c0,0.1,0.1,0.1,0,0.1c0.6,0,1.2,0.1,1.6,0.1
							c0.4-0.2,1,0.1,1.3-0.2c0.3,0.1,0.8,0.2,1.1,0l0,0c0.4,0,1-0.1,1.3-0.3c0.1,0.3,0.3,0.2,0.5,0.3c0.3-0.1,0.9-0.1,1.3-0.3
							c0.1,0.1,0.4-0.1,0.4,0.1c0.6-0.2,1.3-0.3,2.1-0.3c0.7,0,1.4,0.1,1.9,0.4l0,0c0.2-0.1,0.4-0.3,0.6-0.3c0,0,0,0.1,0,0
							c0.2,0,0.4,0.3,0.6,0.4c0,0,0,0-0.1,0c0.2,0,0.3,0.3,0.5,0.4l0,0l0.2,0.1c0,0-0.1,0.1-0.2,0c0.3,0.3,0.4,0.7,0.4,0.9
							c-0.1,0.2-0.4,0.5-0.8,0.6c-0.2,0.1-0.5,0.1-0.8,0.2c-0.3,0.1-0.6,0.1-0.8,0.2c-0.5,0.1-1.1,0.3-1.6,0.5l0.1-0.1l-0.4,0.3
							v-0.1c-0.6,0.1-1,0.6-1.4,0.9c0,0,0-0.1-0.1-0.1c-0.2,0.4-0.7,0.2-0.6,0.6L66.3,39c-0.4,0.4-0.8,0.8-1.2,1
							c-0.4,0.3-0.9,0.5-1.4,0.6c-0.7,0.6-1.8,0.5-2.7,0.9v-0.1c-1.2,0.4-2.5,0.3-3.8,0.3c-0.5,0-0.9,0.1-1.4,0v-0.1
							c-0.9,0.3-1.8-0.4-2.8-0.1l0.1-0.1c-0.2,0.2-0.5-0.1-0.5,0.2l-0.2-0.1c-0.7,0.3-1.1-0.4-1.9-0.3l0.1-0.1c-0.2,0-0.5,0-0.6-0.1
							c0,0,0,0,0.1,0c-0.6-0.4-1.3-0.3-2-0.5l0.1-0.1c-0.4,0-0.9-0.3-1.3-0.4l0,0h-0.2l0.1-0.1C46.4,39.5,45.9,39.3,45.6,38.9z"/>
						<path class="st5" d="M54.4,34.3C54.4,34.2,54.4,34.2,54.4,34.3C54.3,34.2,54.4,34.2,54.4,34.3z"/>
					</g>
				</g>
			</g>
		</g>
	</g>
	<g>
		<path class="st0" d="M136.9,32.7h-18.6c-1.1,0-2.1-0.9-2.1-2.1v-0.5c0-1.1,0.9-2.1,2.1-2.1h18.6c1.1,0,2.1,0.9,2.1,2.1v0.5
			C138.9,31.8,138,32.7,136.9,32.7z"/>
		<g>
			<g>
				<g>
					<g>
						<polygon class="st5" points="136.9,33.4 136.9,33.4 137,33.3 						"/>
						<path class="st5" d="M137.4,33.1C137.3,33.1,137.3,33.1,137.4,33.1c-0.1,0-0.2,0.2-0.3,0.3C137.2,33.5,137.3,33,137.4,33.1z"
							/>
						<path class="st5" d="M137.4,33.1c0.1,0,0.1-0.1,0.1-0.2C137.6,33.1,137.4,33,137.4,33.1z"/>
						<path class="st5" d="M133,28.1v0.1c0.4-0.2,0.9,0,1.3-0.1l0,0c0.5,0,1.1,0,1.6-0.1c0.5,0,1-0.2,1.6-0.1c0,0,0,0-0.1,0
							c0.1,0,0.1-0.1,0.2-0.1c0,0,0,0-0.1,0.1c0.2,0.2,0.7,0.2,0.7,0.4c0.1,0,0.1,0,0.1-0.1c0.4,0.3,0.7,0.7,0.8,1.2
							c0.1,0.2,0.1,0.5,0.1,0.7s0.1,0.4,0.1,0.7h-0.1c0.1,0.4-0.1,0.9-0.3,1.3c-0.3,0.4-0.7,0.6-1.1,0.7c0,0.1,0.1,0,0.1,0.2
							c0.3,0,0.4-0.4,0.7-0.4v0.1c0.2-0.1-0.1-0.2,0.1-0.2c0.1,0,0.1,0.1,0.1,0.1c0.3-0.3,0.6-0.7,0.6-1.1c0.2,0,0.1-0.4,0.3-0.6
							c-0.1-0.1,0-0.2-0.1-0.3c0-0.3,0.1-0.6,0-1s-0.2-0.7-0.4-1c-0.4-0.6-1.1-1-1.9-1c-0.6,0.3-1.3-0.1-1.9,0l0,0
							c-0.2,0.1-0.5,0.1-0.8,0.1l-0.2,0.1c-1.6-0.3-3.2-0.1-4.8-0.2c-1.8-0.1-3.4-0.3-5.2,0.1c0,0,0,0,0-0.1c-0.5,0.1-1-0.1-1.5,0
							l0,0c-1.2,0.3-2.5,0-3.6,0.2c-0.4,0-0.7,0-1.1,0c-0.4,0-0.8,0.2-1.1,0.5c-0.6,0.5-0.9,1.4-0.8,2.1h-0.1c0,0.6,0.2,1.2,0.6,1.7
							c0.4,0.5,1,0.8,1.7,0.7c1.2,0.1,2.5-0.4,3.7-0.2c0.8,0.3,1.8-0.4,2.5,0c1.5,0.5,2.9,0.2,4.3-0.1c1.3,0.2,2.7-0.3,4,0.1
							c0.6-0.2,1.3,0.3,2,0.2v-0.1c0.2,0.2,0.6-0.3,0.7,0l0,0c0.1,0.2,0.3-0.4,0.4-0.2v-0.1c0.2,0,0,0.1,0.1,0.1c0,0,0-0.2,0.1-0.1
							c0,0.4,0.4-0.1,0.4,0.3c-0.1,0,0.1,0.2-0.1,0.2c0.1,0,0.3,0,0.3-0.2s0.1-0.3,0-0.5v0.1c-0.1-0.1,0-0.1-0.1-0.2
							c-0.2,0-0.2-0.2-0.4-0.3l0,0c-0.1,0.2-0.2,0.1-0.3,0v-0.1c0-0.2-0.2,0.3-0.2,0c-0.4,0.1-0.9,0.1-1.4,0.1
							c-0.1,0.1-0.4,0-0.3,0.2c-0.1-0.2-0.5-0.3-0.6-0.3l0,0c-0.3-0.3-0.3,0.3-0.5-0.1c0,0.2-0.4-0.1-0.6,0.2c0-0.1,0-0.1,0-0.1
							c-0.4,0-0.9-0.1-1.3-0.1c-0.3,0.2-0.8-0.1-1,0.2c-0.2-0.1-0.6-0.2-0.9-0.1l0,0c-0.4,0-0.8,0-1,0.2c-0.1-0.3-0.3-0.2-0.4-0.3
							c-0.2,0.1-0.7,0.1-1.1,0.2c-0.1-0.1-0.3,0.1-0.3-0.1c-1,0.4-2.2,0.2-3.3,0l0,0c-0.1,0.1-0.3,0.3-0.4,0.5l0,0
							c-0.2,0-0.4-0.2-0.6-0.1c0,0,0,0,0-0.1c-0.2,0.1-0.4-0.2-0.6,0v-0.1l-0.1,0.1c0-0.1,0-0.2,0.1-0.1c-0.8,0-1.7,0-2.6,0.1
							l-0.6,0.1c-0.2,0-0.4,0-0.5,0c-0.3-0.1-0.7-0.3-0.9-0.6h0.1c-0.1,0-0.2-0.1-0.2-0.2c0,0,0,0,0.1,0c-0.1-0.4-0.3-0.6-0.3-1.1
							c0,0,0.1,0.1,0.1,0c-0.1-0.2,0-0.3,0-0.4s0-0.1-0.1-0.2h0.1c0-0.7,0.6-1.4,1.3-1.4c0.3-0.2,0.7-0.2,1.1-0.2
							c0.4,0,0.8,0,1.1-0.1V28c1-0.2,2,0,3,0c0.4,0,0.7-0.1,1.1-0.1V28c0.7-0.3,1.5,0.3,2.2-0.1l-0.1,0.1c0.1-0.2,0.4,0.1,0.4-0.2
							l0.1,0.3c0.5-0.4,0.9,0.2,1.5-0.1v0.1c0.2-0.1,0.4-0.1,0.5,0l0,0c0.5,0.3,1.1,0,1.6,0l-0.1,0.1c0.3-0.2,0.7,0,1.1-0.1v0.1
							l0.2-0.1v0.1C132.1,28.2,132.5,28.1,133,28.1z"/>
					</g>
				</g>
			</g>
		</g>
	</g>
	<g>
		<path class="st2" d="M136.6,28c0,0,3.4,1.1,6.3,4.7c0,0-5.5,4.4-5.5,8.2s6.8,37.6,10.5,44.7s8,13.8,11.3,15.8c0,0-0.8,5.2-3.7,4.3
			c0,0-10.2-10.3-13.4-20.2s-7.9-39.4-9.8-43.9S137.3,36,136.6,28z"/>
		<g>
			<g>
				<g>
					<g>
						<polygon class="st5" points="135.9,28.1 135.9,28.2 136,28.4 						"/>
						<path class="st5" d="M136.2,29.4L136.2,29.4l-0.3-0.8C135.8,28.9,136.3,29.2,136.2,29.4z"/>
						<path class="st5" d="M136.1,29.7c-0.1,0.3,0,0.4,0.1,0.5C136.1,30.1,136.3,29.6,136.1,29.7z"/>
						<path class="st5" d="M137,63.5L137,63.5c-0.4-1.2-0.5-2.8-0.8-4.2l0.1,0.1c-0.7-3.6-1.5-6.9-2.3-10.5c0,0.1,0.1,0.1,0.1,0.1
							c-0.1-0.2-0.2-0.3-0.2-0.5c0-0.1,0.1,0,0.1,0.1c0-0.8-0.6-2.2-0.6-2.7c-0.1-0.2-0.2-0.3-0.2-0.2c-0.3-1.4-0.7-2.8-1.2-4.2
							c-0.3-0.7-0.3-1.6-0.1-2.4c0.2-0.8,0.6-1.4,1-2.1c0.1-0.1,0.2-0.1,0.2,0c0.6-1.1,1.4-2.1,2-3.2c0.6-1.1,1-2.2,1.2-3.5
							c-0.1-0.1-0.1,0.2-0.2,0c-0.2,0.7-0.1,1.4-0.4,2.1v-0.1c-0.2,0.5,0.2,0.2-0.1,0.6c-0.1,0.2-0.1-0.1-0.1,0
							c-0.4,1-1.1,1.9-1.6,2.9c-0.3,0.1-0.7,1-1.1,1.3c-0.1,0.3-0.3,0.6-0.3,0.7c-0.6,0.9-1,2.1-0.8,3.2c0.1,0.3,0.2,0.5,0.2,0.8
							l0.2,0.7c0.2,0.5,0.3,0.9,0.4,1.4c0.5,2,1,4,1.4,6c0.7,1.8,0.8,4.2,1.3,6.4l0,0c0.2,0.7,0.5,1.8,0.6,2.7l0.3,0.7
							c0.8,5.3,2,10.6,3.1,16c0.6,3,1.2,5.9,2,8.7c0.8,2.8,2,5.5,3.7,8c0,0,0,0.1-0.1-0.1c0.9,1.5,1.7,2.9,2.7,4.2l0,0
							c2.6,3.2,5.1,6.8,8.1,9.4c0.6,0.2,1.3,0.1,1.8-0.3s0.9-0.9,1.2-1.5s0.5-1.2,0.6-1.8c0-0.2,0.1-0.3,0.1-0.5v-0.3v-0.1l-0.1-0.1
							c-0.3-0.2-0.6-0.4-0.8-0.6c-2-1.6-3.6-3.7-5-5.8h0.1c-1.2-1.6-2.2-3.4-3.1-5.1c-0.5-0.9-0.9-1.8-1.4-2.6
							c-0.5-0.9-0.9-1.8-1.3-2.7c-0.7-1.9-1.4-3.9-2.1-5.9c-0.7-2-1.3-4.1-1.7-6.1c-0.3-2.6-1.8-5.7-2-8.2c-0.6-5-1.9-9.6-3.1-14.5
							c-0.3-2.3-0.8-4.5-1.2-6.8c-0.2-1.1-0.4-2.3,0-3.4c0.3-1.1,0.9-2.1,1.7-3c0.4-0.8,1.1-1.4,1.7-2c0.3-0.3,0.7-0.6,1.1-0.9
							c0.4-0.3,0.8-0.6,1.2-1c-0.3-0.4-0.7-0.8-0.9-1.1v0.1c-0.4-0.8-1.6-1.1-1.8-1.6h0.1c-0.2-0.4-1.1-0.3-1.2-0.6h-0.1
							c-0.5-0.3,0-0.1-0.3-0.4c-0.1-0.1-0.1,0.1-0.4-0.1c0.1-0.4-1.2-0.6-1.1-0.9c0.3,0.1-0.4-0.3,0.3-0.1c-0.2-0.1-1-0.5-1-0.3
							c-0.1,0.2-0.5,0.2,0,0.5l0.1-0.1c0.1,0.2,0.1,0.1,0.1,0.2c0.6,0.3,0.6,0.5,1,0.8l0,0c0.4,0,0.7,0.4,0.9,0.5v0.1
							c0,0.2,0.8,0.2,0.5,0.3c0.5,0.3,1.1,0.8,1.6,1.3c0.3,0.2,0.5,0.5,0.8,0.8l0.2,0.2l0.1,0.1c0.1,0.1,0.1,0.1,0.2,0.2l-0.1,0.1
							c0,0,0,0.1-0.1,0.1c-0.1,0.1-0.2,0.2-0.3,0.3c-0.2,0.2-0.3,0.3-0.1,0.3c-0.5,0.1-1.4,0.9-1.7,1.3v-0.1c-0.8,0.5-0.5,1-1.3,1.4
							c0.1,0.2-1,1.2-0.9,1.8c-0.1,0.1-0.2,0.1-0.2,0c-0.4,0.7-0.7,1.5-0.9,2.3c-0.1,0.9-0.1,1.6,0,2.3c0.3,1.1,0.3,2.6,0.7,3.5
							c0.1,0.8,0.2,2,0.5,3l-0.1-0.1c0.2,1.2,0.5,2.7,0.9,3.4c-0.2,0.4-0.1,0.9,0,1.4c0.3,0.8,0.6,2.4,0.9,3.5
							c-0.1,0.2,0.3,1,0.1,1.1c1.1,3.3,1.9,7.4,2.5,11.1l0,0c0.2,0.4,0.6,0.9,0.8,1.3c0,0.1,0,0.1-0.1,0c0.2,0.6,0.2,1.3,0.4,1.9
							c0,0,0,0-0.1-0.1c0.2,0.6,0.2,1.3,0.5,2v0.1l0.2,0.4c-0.1,0-0.2,0-0.2-0.2c0.7,2.8,1.6,5.6,2.6,8.4s2.6,5.3,4,7.9l-0.2-0.2
							l0.7,0.9c0,0-0.1,0-0.1-0.1c0.6,1.3,1.6,2.5,2.4,3.7c0,0-0.2-0.1-0.1,0.1c0.7,0.8,0.8,1.5,1.4,1.7c0,0,0,0.1-0.1,0.1
							c0.9,1.1,1.9,2.3,3,3.3c0.3,0.3,0.6,0.5,0.9,0.7c0.1,0.1,0.3,0.2,0.4,0.3l0.1,0.1c0,0,0,0,0.1,0v0.1c0,0.1-0.1,0.6-0.2,0.9
							c-0.1,0.3-0.2,0.7-0.4,1c-0.2,0.6-0.4,1.1-0.8,1.5c-0.4,0.4-1,0.6-1.6,0.5h-0.2l-0.1-0.1l-0.3-0.4l-0.7-0.7
							c-0.5-0.5-0.9-0.9-1.4-1.4h0.1c-2.3-2.3-4.3-5.2-6.2-8.1c-0.7-1.2-1.3-2-2-3.2l0.1-0.1c-1.5-2-2-4.6-3.1-6.8l-0.1,0.3
							c-0.3-0.3-0.4-1.5-0.6-1.2v-0.4c-0.8-1.5-0.6-3-1.3-5l0.1,0.1c-0.2-0.5-0.4-1.1-0.4-1.6c0,0.1,0,0,0.1,0.2
							c-0.1-1.7-0.8-3.6-1.2-5.4l0.2,0.2c-0.3-0.8-0.5-2.5-0.8-3.6l0.1,0.1l-0.2-0.6h0.1C137.7,66.3,137.3,64.9,137,63.5z"/>
						<path class="st5" d="M138.1,29.4c-0.1,0-0.1-0.1-0.1-0.1C137.9,29.3,138,29.3,138.1,29.4z"/>
					</g>
				</g>
			</g>
		</g>
	</g>
	<g>
		<circle class="st4" cx="40.9" cy="105.9" r="4.3"/>
		<g>
			<g>
				<g>
					<g>
						<path class="st5" d="M36.1,106.1C36.1,106.1,36.2,106.1,36.1,106.1l-0.2-0.1C35.7,106,36.2,106.1,36.1,106.1z"/>
						<path class="st5" d="M36.1,106.1C36,106.2,36.2,106.2,36.1,106.1C36.1,106.2,36.2,106.1,36.1,106.1z"/>
						<path class="st5" d="M39.9,110L39.9,110c-0.3,0-0.4-0.2-0.7-0.2l0,0c-0.5-0.2-1-0.4-1.5-0.7c0,0,0,0,0.1,0h-0.1c0,0,0,0,0.1,0
							c0-0.2-0.3-0.2-0.3-0.3c0,0-0.1,0-0.1,0.1c-0.3-0.3-0.6-0.8-0.9-1.2l0.1-0.1c-0.4-0.3-0.4-0.8-0.4-1.2c-0.1,0-0.1,0.1-0.2,0
							c-0.1,0.2,0.2,0.2,0.1,0.4H36c0,0.1,0.2,0,0.1,0.1c-0.1,0.1-0.1,0-0.1,0c0.1,0.2,0.1,0.4,0.3,0.5c-0.1,0.1,0.1,0.2-0.1,0.3
							c0.1,0,0.1,0.1,0.2,0.1c0.2,0.7,0.8,1.2,1.3,1.7c0.4,0,0.5,0.5,0.9,0.6l0,0c0.2,0,0.3,0,0.4,0.1l0.2-0.1
							c0.7,0.6,1.7,0.5,2.6,0.4c1-0.1,2.1-0.5,2.5-1.6c0,0,0,0,0,0.1c0.1-0.3,0.4-0.4,0.5-0.7l0,0c0.1-0.7,0.6-1.3,0.4-2
							c0.1-0.8-0.1-1.7-0.5-2.3h0.1c-0.4-0.5-0.5-1.2-1.1-1.6c-0.5-0.6-1.3-0.4-1.9-0.8c-0.4-0.4-0.9,0.2-1.3-0.1
							c-0.8-0.4-1.7,0.2-2.1,0.8c-0.3,0.1-0.6,0.4-0.8,0.7c-0.2,0.3-0.4,0.6-0.7,0.8c0.1,0.4-0.6,0.5-0.6,0.9h0.1
							c-0.3,0.1,0.3,0.4-0.1,0.4l0,0c-0.2,0,0.4,0.2,0.2,0.2h0.1c0,0.1-0.1,0-0.1,0.1c0,0,0.2,0,0.1,0.1c-0.4,0,0.1,0.2-0.3,0.2
							c0,0-0.2,0.1-0.2,0c0,0,0,0.2,0.1,0.2c0.2,0,0.3,0.1,0.5,0h-0.1c0.1,0,0.1,0,0.2,0c0-0.1,0.2-0.1,0.3-0.2l0,0
							c-0.2-0.1-0.1-0.1,0-0.2h0.1c0.2,0-0.3-0.1,0-0.1c0-0.2,0-0.4,0.1-0.7c-0.1-0.1,0.1-0.2-0.1-0.2c0.2,0,0.3-0.1,0.4-0.2l0,0
							c0.3,0-0.2-0.2,0.2-0.2c-0.2-0.1,0.2-0.1-0.1-0.3c0.1,0,0.1,0,0.1,0.1c0.1-0.2,0.3-0.3,0.4-0.4c-0.1-0.3,0.3-0.2,0.2-0.5
							c0.1,0,0.3,0,0.4-0.2l0,0c0.1-0.1,0.3-0.2,0.3-0.5c0.2,0.2,0.2,0.1,0.3,0.2c0-0.2,0.2-0.2,0.4-0.4c0.1,0.1,0.1-0.1,0.2,0.1
							c0.3-0.5,1.1-0.4,1.5-0.1l0,0c0.1-0.1,0.2-0.3,0.3-0.4l0,0c0.1,0,0.2,0.2,0.3,0.2c0,0,0,0,0,0.1c0.1-0.1,0.1,0.2,0.3,0.1v0.1
							h0.1c0,0.1-0.1,0.1-0.1,0.1c0.7,0.3,1.6,0.5,2.1,1.3h-0.1l0.2,0.1c0,0,0,0-0.1,0c0,0.2,0.3,0.3,0.3,0.5c0,0-0.1,0-0.1,0.1
							c0.2,0.1-0.1,0.3,0.2,0.2h-0.1c0.3,0.3,0.3,0.8,0.3,1.2c0.3,0.4,0,0.7,0.2,1.2h-0.1c0.1,0.6-0.3,1-0.6,1.4
							c-0.2,0.2-0.2,0.3-0.3,0.5l-0.1-0.1c0,0.5-0.7,0.3-0.8,0.8v-0.1c0,0.2-0.2,0.1-0.1,0.3h-0.1c-0.1,0.5-0.5,0.1-0.7,0.4V110
							c-0.1,0.1-0.2,0.1-0.2,0.1s0,0,0-0.1c-0.3-0.2-0.5,0.2-0.8,0.2v-0.1c-0.1,0.2-0.4,0-0.6,0.1v-0.1l-0.1,0.1v-0.1
							C40.4,110,40.1,110,39.9,110z"/>
					</g>
				</g>
			</g>
		</g>
	</g>
	<g>
		<circle class="st4" cx="159.1" cy="105.9" r="4.3"/>
		<g>
			<g>
				<g>
					<g>
						<path class="st5" d="M154.4,106.1L154.4,106.1l-0.2-0.1C154,106,154.5,106.1,154.4,106.1z"/>
						<path class="st5" d="M154.3,106.1C154.2,106.2,154.4,106.2,154.3,106.1C154.3,106.2,154.5,106.1,154.3,106.1z"/>
						<path class="st5" d="M158.1,110L158.1,110c-0.3,0-0.4-0.2-0.7-0.2l0,0c-0.5-0.2-1-0.4-1.5-0.7c0,0,0,0,0.1,0h-0.1
							c0,0,0,0,0.1,0c0-0.2-0.3-0.2-0.3-0.3c0,0-0.1,0-0.1,0.1c-0.3-0.3-0.6-0.8-0.9-1.2l0.1-0.1c-0.4-0.3-0.4-0.8-0.4-1.2
							c-0.1,0-0.1,0.1-0.2,0c-0.1,0.2,0.2,0.2,0.1,0.4h-0.1c0,0.1,0.2,0,0.1,0.1c-0.1,0.1-0.1,0-0.1,0c0.1,0.2,0.1,0.4,0.3,0.5
							c-0.1,0.1,0.1,0.2-0.1,0.3c0.1,0,0.1,0.1,0.2,0.1c0.2,0.7,0.8,1.2,1.3,1.7c0.4,0,0.5,0.5,0.9,0.6l0,0c0.2,0,0.3,0,0.4,0.1
							l0.2-0.1c0.7,0.6,1.7,0.5,2.6,0.4c1-0.1,2.1-0.5,2.5-1.6c0,0,0,0,0,0.1c0.1-0.3,0.4-0.4,0.5-0.7l0,0c0.1-0.7,0.6-1.3,0.4-2
							c0.1-0.8-0.1-1.7-0.5-2.3h0.1c-0.4-0.5-0.5-1.2-1.1-1.6c-0.5-0.6-1.3-0.4-1.9-0.8c-0.4-0.4-0.9,0.2-1.3-0.1
							c-0.8-0.4-1.7,0.2-2.1,0.8c-0.3,0.1-0.6,0.4-0.8,0.7c-0.2,0.3-0.4,0.6-0.7,0.8c0.1,0.4-0.6,0.5-0.6,0.9h0.1
							c-0.3,0.1,0.3,0.4-0.1,0.4l0,0c-0.2,0,0.4,0.2,0.2,0.2h0.1c0,0.1-0.1,0-0.1,0.1c0,0,0.2,0,0.1,0.1c-0.4,0,0.1,0.2-0.3,0.2
							c0,0-0.2,0.1-0.2,0c0,0,0,0.2,0.1,0.2c0.2,0,0.3,0.1,0.5,0h-0.1c0.1,0,0.1,0,0.2,0c0-0.1,0.2-0.1,0.3-0.2l0,0
							c-0.2-0.1-0.1-0.1,0-0.2h0.1c0.2,0-0.3-0.1,0-0.1c0-0.2,0-0.4,0.1-0.7c-0.1-0.1,0.1-0.2-0.1-0.2c0.2,0,0.3-0.1,0.4-0.2l0,0
							c0.3,0-0.2-0.2,0.2-0.2c-0.2-0.1,0.2-0.1-0.1-0.3c0.1,0,0.1,0,0.1,0.1c0.1-0.2,0.3-0.3,0.4-0.4c-0.1-0.3,0.3-0.2,0.2-0.5
							c0.1,0,0.3,0,0.4-0.2l0,0c0.1-0.1,0.3-0.2,0.3-0.5c0.2,0.2,0.2,0.1,0.3,0.2c0-0.2,0.2-0.2,0.4-0.4c0.1,0.1,0.1-0.1,0.2,0.1
							c0.3-0.5,1.1-0.4,1.5-0.1l0,0c0.1-0.1,0.2-0.3,0.3-0.4l0,0c0.1,0,0.2,0.2,0.3,0.2c0,0,0,0,0,0.1c0.1-0.1,0.1,0.2,0.3,0.1v0.1
							h0.1c0,0.1-0.1,0.1-0.1,0.1c0.7,0.3,1.6,0.5,2.1,1.3h-0.1l0.2,0.1c0,0,0,0-0.1,0c0,0.2,0.3,0.3,0.3,0.5c0,0-0.1,0-0.1,0.1
							c0.2,0.1-0.1,0.3,0.2,0.2H163c0.3,0.3,0.3,0.8,0.3,1.2c0.3,0.4,0,0.7,0.2,1.2h-0.1c0.1,0.6-0.3,1-0.6,1.4
							c-0.2,0.2-0.2,0.3-0.3,0.5l-0.1-0.1c0,0.5-0.7,0.3-0.8,0.8v-0.1c0,0.2-0.2,0.1-0.1,0.3h-0.1c-0.1,0.5-0.5,0.1-0.7,0.4V110
							c-0.1,0.1-0.2,0.1-0.2,0.1s0,0,0-0.1c-0.3-0.2-0.5,0.2-0.8,0.2v-0.1c-0.1,0.2-0.4,0-0.6,0.1v-0.1l-0.1,0.1v-0.1
							C158.6,110,158.4,110,158.1,110z"/>
					</g>
				</g>
			</g>
		</g>
	</g>
	<g>
		<circle class="st4" cx="91.6" cy="108.7" r="8.2"/>
		<g>
			<g>
				<g>
					<g>
						<path class="st5" d="M85.8,115.1L85.8,115.1h-0.4C85.4,115.3,85.8,115,85.8,115.1z"/>
						<path class="st5" d="M85.8,115.2c0,0.1,0.2,0,0.2,0C85.9,115.3,85.9,115.1,85.8,115.2z"/>
						<path class="st5" d="M95.9,115.6L95.9,115.6c-0.2,0.3-0.7,0.3-1.1,0.6l0,0c-1,0.4-1.9,0.8-3,0.9c0,0,0,0,0-0.1
							c-0.1,0-0.1,0.1-0.2,0.1V117c-0.2-0.2-0.7,0.1-0.8-0.1c-0.1,0-0.1,0.1-0.1,0.1c-0.9,0-1.8-0.3-2.7-0.5v-0.1
							c-0.8,0-1.5-0.6-2.1-1.1c-0.1,0,0,0.1-0.1,0.1c0.1,0.3,0.5,0.1,0.6,0.4h-0.1c0.1,0.1,0.1-0.1,0.2,0c0,0.1-0.1,0.1,0,0.1
							c0.3,0.2,0.6,0.4,1,0.4c0,0.2,0.3,0.2,0.4,0.4c0.1,0,0.2,0,0.3-0.1c1.1,0.6,2.5,0.6,3.8,0.6c0.6-0.3,1.3-0.1,2-0.4l0,0
							c0.2-0.2,0.5-0.3,0.8-0.4l0.2-0.2c1.6-0.4,2.9-1.7,3.9-3.1c0.6-0.8,1-1.6,1.2-2.5s0.3-1.8,0-2.7c0,0,0,0,0.1,0
							c0-0.3-0.1-0.5-0.1-0.8s-0.1-0.5-0.2-0.7l0,0c-0.5-1.1-0.9-2.5-1.9-3.2c-0.9-1.1-2.3-2.1-3.7-2.5v-0.1
							c-1.2-0.3-2.3-0.8-3.5-0.6c-1.3,0-2.4,0.9-3.5,1.3c-0.9,0.2-1.2,1.3-1.9,1.6c-1.4,0.8-1.8,2.5-1.8,3.9c-0.2,0.6-0.2,1.3-0.1,2
							c0.1,0.7,0.2,1.3,0.2,2c0.4,0.5,0.2,1.3,0.6,1.9l0.1-0.1c-0.1,0.4,0.6,0.3,0.4,0.6l0,0c-0.1,0.2,0.5,0,0.4,0.2h0.1
							c0.1,0.1-0.1,0.1,0,0.2c0,0,0.1-0.1,0.2,0c-0.3,0.3,0.3,0.2,0,0.5c-0.1-0.1,0,0.2-0.2,0.1c0,0.1,0.2,0.3,0.3,0.1
							c0.1-0.1,0.3-0.2,0.3-0.4l-0.1,0.1c0.1-0.1,0-0.1,0.1-0.2c-0.1-0.2,0-0.3,0-0.5l0,0c-0.2,0-0.2-0.1-0.2-0.2V113
							c0.1-0.1-0.4,0-0.1-0.1c-0.3-0.3-0.6-0.7-0.8-1.1c-0.1,0-0.1-0.3-0.3-0.1c0.2-0.2,0.1-0.5,0-0.6l0,0c0.2-0.3-0.3-0.2-0.1-0.5
							c-0.3,0,0-0.4-0.4-0.5l0.1-0.1c-0.1-0.4-0.1-0.9-0.1-1.2c-0.2-0.3,0.1-0.7-0.2-1c0.1-0.2,0.2-0.5,0.1-0.8l0,0
							c0-0.3,0.1-0.7,0-1c0.3,0,0.3-0.2,0.4-0.3c-0.1-0.3,0.1-0.7,0.2-1c0.1,0,0.1-0.3,0.3-0.2c0.1-1,1-1.9,2-2.3l0,0
							c0-0.2,0-0.4,0.1-0.6l0,0c0.1-0.1,0.4-0.1,0.5-0.2c0,0,0,0,0,0.1c0.1-0.2,0.4-0.1,0.5-0.3l0,0l0.1-0.1c0,0.1,0.1,0.1,0,0.2
							c1.4-0.6,3.1-1.3,4.7-1l-0.1,0.1l0.3-0.1c0,0,0,0,0,0.1c0.4,0.2,0.8,0.1,1.2,0.3c0,0-0.1,0.1,0,0.1c0.3-0.1,0.4,0.4,0.6,0.1
							c0,0,0,0.1-0.1,0.1c0.8,0.2,1.5,0.7,2.1,1.3c0.8,0.2,1,1,1.6,1.5h-0.1c0.7,0.7,0.9,1.8,1.1,2.7c0,0.4,0.2,0.7,0.2,1.1h-0.1
							c0.4,0.7-0.3,1.4-0.1,2.2l-0.1-0.1c0.1,0.1-0.2,0.4,0.1,0.4l-0.1,0.1c0.2,0.6-0.5,0.8-0.5,1.4v-0.1c0,0.2-0.1,0.4-0.2,0.4
							c0,0,0,0,0-0.1c-0.5,0.3-0.5,0.9-0.9,1.3l-0.1-0.1c-0.1,0.3-0.5,0.6-0.7,0.8v-0.1l-0.1,0.2l-0.1-0.1
							C96.5,115.1,96.3,115.4,95.9,115.6z"/>
						<path class="st5" d="M85.8,113.7C85.8,113.7,85.8,113.8,85.8,113.7C85.9,113.8,85.8,113.7,85.8,113.7z"/>
					</g>
				</g>
			</g>
		</g>
	</g>
	<g>
		<path class="st4" d="M98,93.7h-6.1c-1.3,0-2.4-1.1-2.4-2.4v-0.6c0-1.3,1.1-2.4,2.4-2.4H98c1.3,0,2.4,1.1,2.4,2.4v0.6
			C100.3,92.6,99.3,93.7,98,93.7z"/>
		<g>
			<g>
				<g>
					<g>
						<path class="st5" d="M98.2,94.1C98.2,94.1,98.2,94,98.2,94.1c-0.1,0-0.1,0.1-0.2,0.2C98.2,94.5,98.2,94,98.2,94.1z"/>
						<path class="st5" d="M98.3,94.1C98.4,94.2,98.4,94,98.3,94.1C98.4,94.1,98.3,94,98.3,94.1z"/>
						<path class="st5" d="M99.7,89.2L99.7,89.2c0.2,0.1,0.2,0.4,0.3,0.6l0,0c0.2,0.5,0.3,1,0.4,1.7c0,0,0,0-0.1,0l0.1,0.1h-0.1
							c-0.2,0.1,0.1,0.4-0.1,0.4l0.1,0.1c-0.1,0.5-0.3,1-0.7,1.5c0,0-0.1,0-0.1-0.1c-0.2,0.5-0.8,0.7-1.2,0.7c0,0.1,0.1,0.1,0,0.2
							c0.2,0.1,0.2-0.2,0.4-0.2v0.1c0.1,0,0-0.2,0.1-0.1c0.1,0,0,0.1,0,0.1c0.2-0.1,0.5-0.2,0.5-0.4c0.1,0.1,0.2-0.1,0.4-0.1
							c0-0.1,0.1-0.1,0-0.2c0.6-0.5,0.8-1.4,0.8-2.1c-0.2-0.2-0.1-0.3-0.1-0.5s0.1-0.4,0-0.6l0,0c-0.1-0.1-0.2-0.3-0.2-0.5l-0.2-0.1
							c-0.1-0.5-0.4-0.9-0.8-1.2c-0.4-0.3-0.9-0.4-1.4-0.5c-1-0.1-1.9-0.3-2.9,0.1c0,0,0,0,0-0.1c-0.3,0.1-0.5-0.1-0.8,0l0,0
							c-0.7,0.3-1.4,0-2,0.2c-0.4,0-0.8,0-1.2,0.1c-0.4,0.2-0.8,0.4-1,0.8l0,0c-0.2,0.3-0.4,0.5-0.5,0.9c-0.2,0.3-0.2,0.7-0.2,1
							c-0.1,0.3,0,0.7,0.2,1s0.4,0.6,0.5,0.9c0,0.3,0.3,0.4,0.5,0.4c0.2,0.1,0.5,0.1,0.6,0.3c0.3,0.4,0.8,0.4,1.2,0.3
							s0.8-0.2,1.2-0.3c0.7,0.2,1.5-0.3,2.2,0.1c0.3-0.2,0.7,0.3,1.1,0.2v-0.1c0.1,0.2,0.3-0.3,0.4,0l0,0c0.1,0.2,0.2-0.4,0.2-0.2
							v-0.1c0.1,0,0,0.1,0.1,0.1c0,0,0-0.2,0.1-0.1c0,0.4,0.2-0.1,0.2,0.3c0,0,0.1,0.2,0,0.2c0,0,0.2,0,0.2-0.2s0.1-0.3,0-0.5v0.1
							c0-0.1,0-0.1,0-0.2c-0.1,0-0.1-0.2-0.2-0.3l0,0c-0.1,0.2-0.1,0.1-0.2,0v-0.1c0-0.2-0.1,0.3-0.1,0C97.2,93,96.9,93,96.6,93
							c0,0.1-0.2,0-0.1,0.2c-0.1-0.2-0.3-0.3-0.3-0.3l0,0c-0.1-0.3-0.2,0.3-0.3-0.1c0,0.2-0.2-0.1-0.3,0.2c0-0.1,0-0.1,0-0.1
							c-0.2,0-0.5-0.1-0.7-0.1c-0.2,0.2-0.4-0.1-0.6,0.2c-0.1-0.1-0.3-0.2-0.5-0.1l0,0c-0.2,0-0.4,0-0.6,0.2
							c-0.1-0.3-0.1-0.2-0.2-0.3c-0.1,0.1-0.4,0.1-0.6,0.2c0-0.1-0.2,0.1-0.2-0.1c-0.3,0.2-0.5,0.3-0.8,0.2
							c-0.3-0.1-0.5-0.3-0.5-0.5l0,0c-0.1,0.1-0.3,0.2-0.5,0.2l0,0c-0.1,0,0-0.2-0.1-0.3c0,0,0,0,0.1,0c-0.1,0,0-0.2-0.2-0.2l0,0
							h-0.1c0.1,0,0.1-0.1,0.1,0c-0.2-0.3-0.3-0.6-0.4-1c-0.1-0.5-0.2-0.9,0-1.3l0,0c0-0.1,0-0.1,0-0.2l0,0c0.2-0.1,0.1-0.4,0.3-0.5
							c0,0,0,0.1,0.1,0.1c0-0.2,0.3,0,0.1-0.3l0.1,0.1c0.2-0.3,0.7-0.5,1.1-0.5c0.3-0.3,0.8,0,1.2-0.3v0.1c0.5-0.2,1.1,0,1.7,0
							c0.2,0,0.4-0.1,0.6-0.1v0.1c0.4-0.3,0.8,0.3,1.2-0.1v0.1c0.1-0.2,0.2,0.1,0.2-0.2l0.1,0.1c0.3-0.4,0.5,0.2,0.8-0.1v0.1
							c0.1-0.1,0.2-0.1,0.3,0l0,0c0.3,0.3,0.6,0,0.9,0.1l-0.1,0.1c0.2-0.1,0.4,0.1,0.5,0.1l0,0H99l-0.1,0.1
							C99.3,88.9,99.5,89,99.7,89.2z"/>
					</g>
				</g>
			</g>
		</g>
	</g>
	<g>
		<path class="st4" d="M91.5,129.1h-6.1c-1.3,0-2.4-1.1-2.4-2.4v-0.6c0-1.3,1.1-2.4,2.4-2.4h6.1c1.3,0,2.4,1.1,2.4,2.4v0.6
			C93.9,128,92.8,129.1,91.5,129.1z"/>
		<g>
			<g>
				<g>
					<g>
						<polygon class="st5" points="91.5,129.7 91.6,129.8 91.6,129.7 						"/>
						<path class="st5" d="M91.8,129.5C91.8,129.5,91.8,129.4,91.8,129.5c-0.1,0-0.1,0.1-0.2,0.2C91.7,129.9,91.8,129.4,91.8,129.5z
							"/>
						<path class="st5" d="M91.9,129.5c0.1,0.1,0.1-0.1,0.1-0.1C91.9,129.5,91.8,129.4,91.9,129.5z"/>
						<path class="st5" d="M93.3,124.6L93.3,124.6c0.2,0.1,0.2,0.4,0.3,0.6l0,0c0.2,0.5,0.3,1,0.4,1.7c0,0,0,0-0.1,0L94,127h-0.1
							c-0.2,0.1,0.1,0.4-0.1,0.4l0.1,0.1c-0.1,0.5-0.3,1-0.7,1.5c0,0-0.1,0-0.1-0.1c-0.2,0.5-0.8,0.7-1.2,0.7c0,0.1,0.1,0.1,0,0.2
							c0.2,0.1,0.2-0.2,0.4-0.2v0.1c0.1,0,0-0.2,0.1-0.1c0.1,0,0,0.1,0,0.1c0.2-0.1,0.5-0.2,0.5-0.4c0.1,0.1,0.2-0.1,0.4-0.1
							c0-0.1,0.1-0.1,0-0.2c0.6-0.5,0.8-1.4,0.8-2.1c-0.2-0.2-0.1-0.3-0.1-0.5s0.1-0.4,0-0.6l0,0c-0.1-0.1-0.2-0.3-0.2-0.5l-0.2-0.1
							c-0.1-0.5-0.4-0.9-0.8-1.2c-0.4-0.3-0.9-0.4-1.4-0.5c-1-0.1-1.9-0.3-2.9,0.1c0,0,0,0,0-0.1c-0.3,0.1-0.5-0.1-0.8,0l0,0
							c-0.7,0.3-1.4,0-2,0.2c-0.4,0-0.8,0-1.2,0.1c-0.4,0.2-0.8,0.4-1,0.8l0,0c-0.2,0.3-0.4,0.5-0.5,0.9c-0.2,0.3-0.2,0.7-0.2,1
							c-0.1,0.3,0,0.7,0.2,1s0.4,0.6,0.5,0.9c0,0.3,0.3,0.4,0.5,0.4c0.2,0.1,0.5,0.1,0.6,0.3c0.3,0.4,0.8,0.4,1.2,0.3
							c0.4-0.1,0.8-0.2,1.2-0.3c0.7,0.2,1.5-0.3,2.2,0.1c0.3-0.2,0.7,0.3,1.1,0.2v-0.1c0.1,0.2,0.3-0.3,0.4,0l0,0
							c0.1,0.2,0.2-0.4,0.2-0.2V129c0.1,0,0,0.1,0.1,0.1c0,0,0-0.2,0.1-0.1c0,0.4,0.2-0.1,0.2,0.3c0,0,0.1,0.2,0,0.2
							c0,0,0.2,0,0.2-0.2s0.1-0.3,0-0.5v0.1c0-0.1,0-0.1,0-0.2c-0.1,0-0.1-0.2-0.2-0.3l0,0c-0.1,0.2-0.1,0.1-0.2,0v-0.1
							c0-0.2-0.1,0.3-0.1,0c-0.2,0.1-0.5,0.1-0.8,0.1c0,0.1-0.2,0-0.1,0.2c-0.1-0.2-0.3-0.3-0.3-0.3l0,0c-0.1-0.3-0.2,0.3-0.3-0.1
							c0,0.2-0.2-0.1-0.3,0.2c0-0.1,0-0.1,0-0.1c-0.2,0-0.5-0.1-0.7-0.1c-0.2,0.2-0.4-0.1-0.6,0.2c-0.1-0.1-0.3-0.2-0.5-0.1l0,0
							c-0.2,0-0.4,0-0.6,0.2c-0.1-0.3-0.1-0.2-0.2-0.3c-0.1,0.1-0.4,0.1-0.6,0.2c0-0.1-0.2,0.1-0.2-0.1c-0.3,0.2-0.5,0.3-0.8,0.2
							s-0.5-0.3-0.5-0.5l0,0c-0.1,0.1-0.3,0.2-0.5,0.2l0,0c-0.1,0,0-0.2-0.1-0.3c0,0,0,0,0.1,0c-0.1,0,0-0.2-0.2-0.2l0,0h-0.1
							c0.1,0,0.1-0.1,0.1,0c-0.2-0.3-0.3-0.6-0.4-1c-0.1-0.5-0.2-0.9,0-1.3l0,0c0-0.1,0-0.1,0-0.2l0,0c0.2-0.1,0.1-0.4,0.3-0.5
							c0,0,0,0.1,0.1,0.1c0-0.2,0.3,0,0.1-0.3l0.1,0.1c0.2-0.3,0.7-0.5,1.1-0.5c0.3-0.3,0.8,0,1.2-0.3v0.1c0.5-0.2,1.1,0,1.7,0
							c0.2,0,0.4-0.1,0.6-0.1v0.1c0.4-0.3,0.8,0.3,1.2-0.1v0.1c0.1-0.2,0.2,0.1,0.2-0.2l0.1,0.1c0.3-0.4,0.5,0.2,0.8-0.1v0.1
							c0.1-0.1,0.2-0.1,0.3,0l0,0c0.3,0.3,0.6,0,0.9,0.1L92,124c0.2-0.1,0.4,0.1,0.5,0.1l0,0h0.1l-0.1,0.1
							C92.8,124.4,93.1,124.4,93.3,124.6z"/>
					</g>
				</g>
			</g>
		</g>
	</g>
	<g>
		<polygon class="st2" points="90.6,123.7 97,93.7 93.1,93.7 86.7,123.7 		"/>
		<g>
			<g>
				<g>
					<g>
						<polygon class="st5" points="90.6,123.1 90.5,123 90.4,123.1 						"/>
						<path class="st5" d="M90,123.3L90,123.3l0.4-0.2C90.2,122.9,90.1,123.4,90,123.3z"/>
						<path class="st5" d="M89.9,123.3c-0.1-0.1-0.2,0.1-0.2,0.1C89.7,123.3,89.9,123.4,89.9,123.3z"/>
						<path class="st5" d="M88.9,113.1L88.9,113.1c0,0.5-0.3,1-0.4,1.6l0,0c-0.3,1.4-0.4,2.8-0.7,4.2c0,0,0,0,0-0.1
							c0,0.1,0.1,0.2,0.1,0.2s0,0-0.1-0.1c-0.2,0.3-0.1,0.9-0.3,1.1c0,0.1,0.1,0.1,0.1,0.1c-0.1,0.6-0.2,1.1-0.3,1.7l-0.1,0.9v0.2
							v0.1c0,0.1,0,0.1,0,0.2c0,0-0.1,0.1-0.2,0.1l0,0c0.4-0.2,1.6-0.1,2.5-0.1c0-0.1-0.1-0.1,0-0.2c-0.3-0.1-0.6,0.2-0.9,0v-0.1
							c-0.2,0,0,0.2-0.3,0.1c-0.1-0.1,0-0.1,0-0.1c-0.2,0-0.5,0-0.7,0h-0.2c0,0,0,0-0.1,0l-0.1,0.1c0-0.1,0-0.1,0-0.1s0-0.1,0.1-0.1
							c-0.1,0,0,0-0.2,0v-0.1l0.1-0.3l0.1-0.6l0.2-1.2c0.1-0.8,0.3-1.6,0.5-2.4c-0.2-0.8,0.4-1.6,0.5-2.5l0,0c0-0.3,0-0.7,0.2-1.1
							l-0.1-0.3c0.7-2,1-4.2,1.5-6.3c0.6-2.4,1.3-4.4,1.4-6.9c0,0,0.1,0,0,0.1c0.1-0.7,0.3-1.3,0.4-1.9l0,0c0.1-1.6,0.7-3.3,0.8-4.8
							c0.1-0.3,0.1-0.6,0.2-1c1,0,2.6,0,3.7-0.1l-0.2,1h-0.1c-0.2,1.6-0.9,3-1.1,4.6c-0.5,1.6-0.4,3.4-0.9,5
							c-0.5,0.9-0.2,2.4-0.7,3.3c-0.9,1.8-1,3.8-1.1,5.8c-0.5,1.7-0.5,3.6-1.2,5.3c0,0.9-0.6,1.7-0.8,2.6h0.1
							c-0.3,0.3,0.2,0.8-0.2,0.9l0,0c-0.2,0.1,0.3,0.5,0.1,0.6h0.1c0,0.2-0.1,0-0.2,0.2c0,0.1,0.2,0.1,0.1,0.2c-0.4,0,0,0.5-0.4,0.5
							c0-0.1-0.2,0.1-0.2-0.1c-0.1,0.1-0.1,0.4,0.1,0.4c0.2,0.1,0.3,0.2,0.5,0.1l-0.1-0.1c0.1,0,0.1,0,0.2,0
							c0.1-0.3,0.3-0.3,0.4-0.5l0,0c-0.1-0.2,0-0.3,0.1-0.4h0.1c0.2,0-0.2-0.4,0-0.2c0.1-0.6,0.2-1.2,0.3-1.9
							c-0.1-0.1,0.1-0.5-0.1-0.4c0.3-0.1,0.4-0.6,0.4-0.7l0,0c0.4-0.3-0.2-0.5,0.2-0.7c-0.2-0.1,0.2-0.6,0-0.8c0.1,0,0.1,0,0.2,0
							c0.1-0.6,0.4-1.2,0.5-1.7c-0.1-0.5,0.3-1,0.1-1.4c0.1-0.3,0.4-0.7,0.3-1.2l0,0c0.1-0.5,0.2-1.1,0.1-1.4
							c0.3-0.1,0.3-0.3,0.4-0.5c-0.1-0.3,0.1-1,0.1-1.5c0.1,0,0-0.4,0.2-0.4c-0.1-1.4,0.4-3,1-4.4l0,0c-0.1-0.2-0.2-0.5-0.3-0.7
							c0,0,0.1,0,0,0c0-0.3,0.3-0.5,0.3-0.7c0,0,0,0,0.1,0.1c0-0.3,0.3-0.5,0.2-0.8h0.1v-0.2c0.1,0,0.2,0,0.1,0.1
							c0.5-2.2,0.7-4.6,1.2-6.8v0.1v-0.5c0,0,0,0,0.1,0.1c0.2-0.5,0.2-1.2,0.3-1.7c0,0,0.1,0.1,0.1,0c0-0.2,0.1-0.5,0.2-0.7
							c0.1-0.2,0.1-0.5,0-0.5l0.1-0.1v-0.2l-1.3,0.1h-0.9c-0.6,0-1.1,0-1.7,0c-0.2,0.1-0.4,0.1-0.6,0.1c0,0.3-0.1,0.6-0.1,0.8
							l-0.1,0.6c-0.1,0.4-0.2,0.9-0.2,1.3h-0.1c0,1.3-0.6,2.6-0.8,4c-0.1,0.5-0.1,0.9-0.3,1.5h-0.1c0.1,1-0.7,1.9-0.6,2.9l-0.1-0.1
							c0.1,0.2-0.2,0.6,0.1,0.6l-0.1,0.2c0.2,0.7-0.4,1.2-0.4,2L90,107c0,0.2,0,0.5-0.1,0.6c0,0,0,0,0-0.1c-0.4,0.6-0.3,1.4-0.4,2.1
							l-0.1-0.1c0.1,0.4-0.2,1-0.2,1.4h-0.1v0.2H89C89,111.9,89,112.5,88.9,113.1z"/>
						<path class="st5" d="M91.3,123.1C91.3,123.1,91.2,123.1,91.3,123.1C91.3,123.2,91.3,123.1,91.3,123.1z"/>
					</g>
				</g>
			</g>
		</g>
	</g>
</g>
</svg>
