<?xml version="1.0" encoding="utf-8"?>
<!-- Generator: Adobe Illustrator 23.0.1, SVG Export Plug-In . SVG Version: 6.00 Build 0)  -->
<svg version="1.1" id="Layer_1" xmlns="http://www.w3.org/2000/svg" xmlns:xlink="http://www.w3.org/1999/xlink" x="0px" y="0px"
	 viewBox="0 0 200 170" style="enable-background:new 0 0 200 170;" xml:space="preserve">
<style type="text/css">
	.st0{fill:#EAB9C5;}
	.st1{fill:#D97294;}
	.st2{fill:#F5E1E5;}
	.st3{fill:#F8E9EC;}
	.st4{fill:#E299AD;}
	.st5{fill:#D45D85;}
	.st6{fill:#FDF8F9;}
	.st7{fill:#F3DADF;}
	.st8{fill:none;}
	.st9{fill:none;stroke:#B5DFCC;stroke-width:2;stroke-linecap:round;stroke-linejoin:round;stroke-miterlimit:10;}
	.st10{fill:#DB7C99;}
	.st11{fill:#FAF0F2;}
	.st12{fill:#F6E5E8;}
	.st13{fill:#DA7194;}
	.st14{fill:#F3A169;}
	.st15{fill:none;stroke:#EBB1C5;stroke-miterlimit:10;}
	.st16{fill:#0075C2;}
</style>
<g>
	<g>
		<path class="st0" d="M163.4,17.2c0,0-92.7-6.5-110.6-6c-8.4,0.2-20.4,7.7-20.4,7.7S159.5,41.8,163.4,17.2z"/>
		<g>
			<g>
				<g>
					<g>
						<polygon class="st4" points="162.8,17.1 162.7,17.2 162.7,17.5 						"/>
						<path class="st4" d="M162.4,19L162.4,19c0.1-0.5,0.3-0.8,0.2-1.3c-0.1,0.2-0.1,0.5-0.1,0.7C162.5,18.7,162.5,18.9,162.4,19z"
							/>
						<path class="st4" d="M162.2,19.3c-0.3,0.4-0.3,0.6-0.3,0.7C161.9,19.8,162.4,19.3,162.2,19.3z"/>
						<path class="st5" d="M110.2,28.2L110.2,28.2c2,0,4.4,0.3,6.6,0.3h-0.2c5.7,0.2,10.9,0.1,16.5-0.3c-0.1,0-0.1,0-0.2,0.1
							c0.3,0,0.6-0.1,0.9-0.1c0.1,0-0.1,0.1-0.2,0.1c1.2,0.1,3.5-0.3,4.2-0.2c0.3,0,0.5-0.1,0.3-0.2c4.4-0.4,9-1,13.3-2.3
							c0.2,0,0.3,0,0.2,0.1c1.8-0.6,3.6-1.3,5.4-2.1c1.7-0.8,3.4-1.9,4.6-3.3c0-0.2-0.3,0.2-0.1-0.1c-0.2,0.2-0.4,0.4-0.6,0.6
							c-0.2,0.2-0.4,0.4-0.6,0.6c-0.3,0.4-0.8,0.7-1.3,1l0.1-0.1c-0.7,0.4,0,0.3-0.8,0.6c-0.3,0.1,0-0.1-0.1-0.1
							c-1.5,0.9-3.2,1.5-4.7,2.2c-0.4,0-1.8,0.5-2.5,0.5c-0.4,0.2-0.9,0.3-1,0.4c-6,1.3-12.3,1.9-18.6,2.1c-2.9,0.4-6.5,0.1-10,0.1
							l0,0c-1.1,0.1-2.8,0.1-4.2,0l-1.2,0.1c-8.2-0.5-16.6-0.9-24.9-1.8c-9.5-1-17.7-2.2-26.9-2.9c0,0-0.1-0.1,0.2,0
							c-2.7-0.3-5.1-0.7-7.5-1l0,0c-6.2-0.6-12.8-1.9-18.8-2.6c-1.7-0.3-3.4-0.6-5.4-0.9c0.4-0.3,1-0.6,1.5-0.9
							c0.6-0.3,1.3-0.7,1.9-1c1.3-0.7,2.6-1.3,3.9-2c2.7-1.2,5.5-2.4,8.3-3.1v0.1c1.5-0.4,3-0.6,4.5-0.7c1.5,0,3.1,0,4.6,0.1
							c3,0.1,6.1,0.2,9.2,0.3c6.4,0.4,13.1,0.2,19.5,0.7C90,13,95.3,12.6,99,13.2c7.6,0.9,15.1,1.1,22.7,1.3
							c7,0.6,14.1,0.6,20.9,1.4c3.3,0,6.8,0.7,10.4,0.9l-0.1-0.1c1.3,0.3,2.9-0.1,3.7,0.3h-0.1c0.7,0.2,1.6-0.3,2-0.1l0.1-0.1
							c0.8,0,0.1,0.1,0.7,0.2c0.2,0,0.1-0.2,0.6-0.1c0.1,0.4,2,0.1,2.1,0.5c-0.5,0,0.7,0.2-0.3,0.2c0.3,0.1,1.7,0.1,1.6,0
							c0.1-0.2,0.7-0.3-0.1-0.5l-0.2,0.1c-0.3-0.2-0.2-0.1-0.3-0.2c-1.1-0.1-1.2-0.3-2-0.4l0,0c-0.6,0.1-1.3,0-1.7-0.1l-0.2-0.1
							c-0.2-0.2-1.3,0.2-0.9,0c-2.2-0.1-4.8-0.3-7.3-0.4c-0.4,0.1-1.9-0.1-1.4,0.1c-0.6-0.3-2.5-0.4-3.2-0.5c0,0,0.1,0,0.2,0
							c-1.3-0.4-1.6,0.2-2.8-0.3c-0.2,0.2-2.3-0.2-3,0c-0.2-0.1-0.2-0.1-0.1-0.2c-2.3-0.2-4.8-0.4-6.7-0.5c-1.7,0.1-4-0.4-5.4-0.1
							c-1.2-0.1-3-0.4-4.7-0.4h0.2c-1.8-0.1-4.1-0.2-5.4-0.1c-0.5-0.3-1.3-0.3-2.1-0.5c-1.2,0.1-3.7-0.1-5.6-0.1
							c-0.3-0.2-1.5,0-1.6-0.2c-5.3,0.1-11.8-0.5-17.4-1h0.1c-0.7,0.1-1.6,0.3-2.3,0.3c-0.1,0-0.1-0.1,0.1,0c-1,0-2-0.3-3-0.3
							c0,0,0,0,0.2-0.1c-1,0-2-0.3-3.1-0.2l-0.1-0.1h-0.7c0-0.1,0.1-0.2,0.4-0.1c-8.8-0.5-17.9-0.7-26.9-0.8l0.3-0.1l-1.8,0.1
							c0,0,0.1,0,0.2-0.1c-1.1-0.1-2.3,0-3.4,0.1c-1.1,0.2-2.3,0.4-3.3,0.7c0,0,0.3-0.2,0-0.1c-1.5,0.6-2.6,0.5-3.2,1.1
							c-0.1,0-0.2-0.1,0-0.1c-2.1,0.8-4.2,1.7-6.3,2.7c-1,0.5-2.1,1-3.1,1.5l-1.5,0.8l-1,0.6l-1.1,0.6c-0.1,0.1-0.3,0.2-0.4,0.3
							c1.2,0.2,2.4,0.3,3.7,0.5c0.9,0.2,1.9,0.3,2.8,0.5c1.9,0.3,3.8,0.6,5.7,0.8v0.1c5,0.6,10.3,1.6,15.5,2.3
							c2.2,0.3,3.6,0.4,5.8,0.7V24c3.7,0.2,7.6,1.3,11.5,1.4l-0.3,0.1c0.6-0.1,2.3,0.3,2.1,0l0.7,0.2c2.6-0.1,4.7,0.7,7.9,0.8h-0.2
							c0.9,0,1.8,0.1,2.5,0.2c-0.1,0-0.1,0-0.3,0c2.6,0.5,5.6,0.5,8.4,0.7l-0.3,0.1c1.4,0,3.8,0.3,5.6,0.3l-0.1,0.1h0.9V28
							C105.8,28.1,108,28.1,110.2,28.2z"/>
					</g>
				</g>
			</g>
		</g>
	</g>
	<g>
		<path class="st3" d="M32.4,18.9C32,18.8,36.8,33,35.5,44.6c-1.3,11.6-2.3,46.6-1.5,56.9c0.8,9.4,1.3,32.4,0.3,38.6
			c-0.1,0.7,0.3,1.4,1,1.5c11.6,2.2,95.1,18.3,108.6,17.1c0.2,0,0.5-0.1,0.7-0.3l2.7-2.1c0.3-0.3,0.5-0.6,0.5-1
			c-0.2-9.1-2.3-109.4-0.2-128.8c0.1-0.8-21.5,0.7-51.3-1.6C77.6,23.3,44.6,21.9,32.4,18.9z"/>
		<g>
			<g>
				<g>
					<g>
						<polygon class="st4" points="32.3,19.5 32.5,19.6 33.1,19.6 						"/>
						<path class="st4" d="M36.2,20.1c-0.1,0,0-0.1-0.2-0.1c-0.8,0-1.5-0.1-2.3-0.1C34.7,20.2,35.5,19.8,36.2,20.1z"/>
						<path class="st4" d="M36.8,20.2c0.9,0.2,1.3,0.1,1.5,0.1C38,20.4,36.7,20,36.8,20.2z"/>
						<path class="st5" d="M135.1,26l0.2-0.1c-3.8,0.2-8.1,0-12.1,0h0.3c-10.2-0.2-19.6-0.5-29.7-1.2c0.2,0,0.2,0,0.4,0
							c-0.5,0-1,0-1.6,0c-0.1,0,0.2,0,0.3,0c-2.1-0.3-6.3-0.3-7.6-0.5c-0.6,0-0.9,0-0.5,0.1c-7.9-0.5-16.4-1-24.4-1.4
							c-0.4-0.1-0.5-0.1-0.3-0.2c-6.9-0.2-14.1-1-21.1-2c-0.3,0,0.7,0.2,0,0.2c2.2,0.4,4.2,0.4,6.2,0.7h-0.3
							c1.5,0.2,0.3-0.2,1.9,0.1c0.6,0.1-0.2,0.1,0.1,0.1c3.2,0.3,6.5,0.7,9.5,0.7c0.7,0.2,3.4,0.3,4.6,0.5c0.8,0,1.6,0.1,2,0
							c11.1,0.9,22.5,1.4,33.8,2.3c5.3,0.1,11.7,0.8,18.1,1l0,0c2.1,0,5.1,0.1,7.5,0.1l2.1-0.1c3.9,0.1,7.8,0.2,11.8,0.2
							c2,0,3.9,0,5.9,0h3c0.5,0,1,0,1.5,0h0.4h0.2c0.1,0,0.1,0,0.2,0c0,0,0,0.1,0,0.2l-0.2,2.5c-0.1,0.9-0.1,1.8-0.2,2.7l-0.2,5.4
							c-0.1,3.6-0.2,7.2-0.3,10.7c-0.3,17.1-0.4,32.1,0.2,48.8c0,0,0,0.1-0.1-0.3c0.1,4.8,0.1,9.2,0.2,13.7l0,0
							c0.4,11.2,0.3,23.4,0.8,34.2c0.1,3.3,0.1,6.7,0.2,10.2c0,0.4,0.1,0.9-0.2,1.2c-0.2,0.3-0.6,0.5-1,0.8
							c-0.7,0.5-1.4,1.1-2.1,1.6c-0.3,0.3-0.8,0.2-1.2,0.2h-1.3h-1.3l-1.3-0.1c-7.1-0.5-14.3-1.4-21.2-2.4v-0.1
							c-11.1-1.5-21.7-3.6-32.7-5.4c-11.3-2.1-23.3-3.8-34.6-6.1c-3.5-0.8-7.6-1.5-11.6-2.2c-1-0.2-2-0.3-3-0.5l-0.7-0.1
							c-0.2,0-0.5-0.1-0.7-0.3c-0.4-0.3-0.6-0.9-0.5-1.4c0.3-1.9,0.3-3.8,0.5-5.4c0.5-6.9,0.4-13.7,0.1-20.5
							c-0.1-3.4-0.3-6.8-0.6-10.2c-0.3-3.4-0.6-6.8-0.7-10.3c0.1-12.7,0-25.5,1-37.8c0-2.9,0.3-6,0.7-9.1c0.2-1.6,0.4-3.2,0.5-4.8
							s0.1-3.2-0.1-4.9L35.8,37c0.1-2.4-0.8-5.1-0.7-6.6l0.1,0.2c0-1.3-0.9-2.8-0.8-3.5l-0.1-0.2c-0.3-1.5,0.1-0.2-0.1-1.3
							c-0.1-0.4-0.2-0.1-0.3-1c0.3-0.3-0.9-3.5-0.6-3.7c0.2,0.8-0.2-1.3,0.4,0.5c0-0.3-0.2-1-0.4-1.6c-0.1-0.3-0.2-0.6-0.2-0.8v-0.1
							l0,0c-0.1,0-0.2,0-0.3,0c0,0,0,0-0.1,0l0,0l0,0l0,0l0,0l-0.1,0.3l0,0l0,0l0,0l0,0l0,0l0,0l0,0l0,0l0,0l0,0l0,0l0,0l0.1-0.2
							l-0.1,0.2l0,0l0,0l0,0l0,0l0,0l0,0l0,0l0,0h0.1c0,0,0.1,0,0.2,0c0.1,0,0.2,0,0.3-0.1c0,0,0-0.1-0.1-0.1s-0.1-0.1-0.2-0.1h-0.1
							l0,0c0,0-0.1,0-0.2,0.1c0,0,0,0.1-0.1,0.1v0.1c0,0.1,0,0.2,0,0.3l0.2,0.3c0,0.5,0,0.4,0,0.6c0.5,1.9,0.3,2.2,0.6,3.6l0,0
							c0.4,0.9,0.6,2.2,0.7,3v0.3c-0.1,0.5,0.7,2.2,0.4,1.6c0.8,3.9,1.4,8.5,1.2,13c0.1,0.6-0.2,3.4,0,2.5c-0.2,0.5-0.3,1.7-0.5,2.8
							c-0.1,1.1-0.2,2.3-0.3,2.9c0,0,0-0.1,0-0.3c-0.4,2.4,0.1,2.9-0.4,5.1c0.2,0.4-0.3,4.1-0.1,5.4c-0.1,0.3-0.1,0.4-0.2,0.3
							c-0.2,4.1-0.4,8.6-0.6,12.1c0.1,3-0.3,7.2,0,9.7c-0.1,2.1-0.3,5.5-0.1,8.5v-0.3c0,3.3,0.1,7.5,0.4,9.8c-0.2,1-0.1,2.4-0.1,3.9
							c0.3,2.2,0.4,6.7,0.7,10c-0.1,0.5,0.1,2.8-0.1,3c0.3,4.7,0.4,10,0.3,15.4c0,1.3-0.1,2.7-0.2,4c0,0.7-0.1,1.3-0.2,2
							c0,0.3-0.1,0.7-0.1,1l-0.1,0.5c0,0.2-0.1,0.4,0,0.7c0.1,0.5,0.3,0.9,0.7,1.2c0.2,0.1,0.4,0.2,0.6,0.3l0.5,0.1
							c0.6,0.1,1.3,0.3,1.9,0.4c1.3,0.3,2.5,0.6,3.8,0.8h-0.1c1.3,0.1,2.8,0.2,4.2,0.3c0.1,0,0.1,0.1-0.2,0c1.8,0.3,3.5,0.8,5.3,1.1
							c0,0,0,0-0.3,0c1.7,0.2,3.5,0.8,5.5,1l0.1,0.1l1.3,0.2c0,0.1-0.1,0.1-0.8,0c15.6,3,31.8,5.5,47.8,8.2h-0.6l3.1,0.4
							c0,0-0.2,0-0.3,0c4,0.7,8.1,1.2,12,1.8c0,0-0.6,0-0.1,0.1c2.9,0.2,4.6,0.9,6.1,0.7c0.1,0,0.2,0.1-0.1,0.1c2,0.2,4,0.5,6.1,0.7
							c2,0.2,4.1,0.4,6.1,0.6c2.1,0.1,4.1,0.4,6.2,0.3h0.8c0.3,0,0.5,0,0.8-0.1s0.6-0.3,0.8-0.5l0.6-0.5l1.2-0.9l0.6-0.5
							c0.2-0.2,0.5-0.4,0.6-0.7c0.1-0.2,0.1-0.6,0.1-0.8v-0.6c0-0.4,0-0.9-0.1-1.3c0-0.9-0.1-1.7-0.1-2.6c0-1.8-0.1-3.6-0.1-5.4
							c-0.1-3.6-0.1-7.3-0.3-10.8h0.1c-0.4-9.1-0.3-18.8-0.5-28.2c0-3.9-0.1-6.6-0.2-10.5l0.1-0.1c-0.4-6.6,0.2-13.9-0.2-20.9
							l0.1,0.5c-0.2-1.1,0-4.2-0.2-3.8l0.1-1.2c-0.4-4.7,0.2-8.6-0.1-14.3l0.1,0.4c0-1.5-0.1-3.3,0-4.5c0,0.2,0,0.1,0,0.5
							c0.2-2.4,0.2-4.9,0.2-7.5s0-5.2,0.1-7.7l0.1,0.6c-0.1-2.4,0.2-6.9,0.5-10.1V28v-1.1c0-0.1,0-0.2,0-0.3
							c-0.1-0.1-0.2-0.1-0.3-0.1v-0.1c-0.3-0.1-0.6-0.1-0.9-0.1h-0.8c-0.5,0-1,0-1.5,0c-1,0-2,0-3,0C139.1,26,137.1,26,135.1,26z"/>
						<path class="st4" d="M33.1,24.2c0-0.2-0.1-0.3-0.1-0.5C33,23.8,33,24.1,33.1,24.2z"/>
					</g>
				</g>
			</g>
		</g>
	</g>
	<g>
		<path class="st3" d="M167.3,132.8l-17,20.4c-0.8,0.9-2.2,0.4-2.3-0.8c-3-77-1.2-115.4-0.5-126.1c0.1-1,1.2-1.6,2-0.9
			c2.2,1.7,10.5-0.4,12.8-7.9c0.4-1.2,2.3-0.6,2.4,0.6c0.2,3.1,0.4,7.9,0.7,14.9c0.6,13.6,0.6,51.2,0.6,58.9
			c0,7.4-0.6,33.5,1.4,39.8C167.7,132,167.6,132.5,167.3,132.8z"/>
		<g>
			<g>
				<g>
					<g>
						<path class="st4" d="M167.8,133.2c0.1,0,0.1-0.1,0.2-0.1c0.1-0.2,0.1-0.4,0.1-0.5C168.1,132.8,168,133,167.8,133.2z"/>
						<path class="st4" d="M167.7,130.5c0,0.1,0,0,0,0.1l0.3,0.6c0.1,0.2,0.3,0.5,0.3,0.8c0-0.2,0-0.5-0.1-0.6s-0.1-0.2-0.2-0.3
							C167.9,130.9,167.7,130.7,167.7,130.5z"/>
						<path class="st4" d="M167.7,130.1c0-0.5-0.2-0.7-0.3-0.8C167.5,129.4,167.5,130.2,167.7,130.1z"/>
						<path class="st5" d="M166.1,70.4l-0.1-0.1c0.2,2.3,0,4.9,0.1,7.4v-0.2c0,6.2,0.2,11.9,0.2,18.1c0-0.1,0-0.1-0.1-0.2
							c0,0.3,0.1,0.6,0.1,1c0,0.1-0.1-0.1-0.1-0.2c-0.2,1.3,0.1,3.8-0.1,4.6c0,0.4,0.1,0.5,0.2,0.3c0,4.8,0,10,0.3,14.8
							c0,0.2-0.1,0.3-0.1,0.2c0.4,4.2,0.4,8.6,0.9,12.8c0.1,0.1,0-0.4,0.2,0c-0.1-1.4-0.5-2.5-0.4-3.7l0.1,0.2
							c0-0.9-0.2-0.2-0.2-1.1c0-0.4,0.1,0.1,0.1-0.1c-0.2-1.9-0.2-3.9-0.4-5.7c0.1-0.5,0-2.1,0.1-2.8c-0.1-0.5-0.1-1-0.2-1.2
							c0-6.8-0.1-13.7-0.1-20.6c-0.3-3.2,0.1-7.1,0-11l0,0c-0.1-1.3-0.1-3.1-0.1-4.6l-0.1-1.3c0.2-9,0-18.2,0-27.4
							c0-5.2,0-10.1-0.2-14.9c-0.2-4.8-0.5-9.6-0.9-14.7c0,0,0-0.1,0.1,0.2c0-0.7-0.1-1.5-0.1-2.2c-0.1-0.9-0.9-1.5-1.8-1.5
							c-0.4,0-0.9,0.2-1.1,0.7c-0.1,0.2-0.1,0.4-0.2,0.5l-0.2,0.5c-0.2,0.6-0.5,1.2-0.8,1.8l0,0c-1.6,2.9-4.7,5.1-8.1,5.7
							c-0.8,0.1-1.7,0.1-2.5-0.1c-0.2,0-0.3-0.2-0.5-0.3s-0.4-0.3-0.7-0.3c-0.5-0.1-1,0.1-1.4,0.5c-0.2,0.2-0.3,0.4-0.3,0.7
							s0,0.5-0.1,0.7c0,0.4,0,0.9-0.1,1.3c0,0.8,0,1.7-0.1,2.5c-0.5,8-0.7,17.1-0.7,25.5h-0.1c0,6.8-0.4,13.3-0.2,20.1
							c-0.1,7,0.4,14.3,0.3,21.3c-0.3,4.4,0.5,10,0.3,14.1c-0.3,8.4,0.2,16.5,0.8,24.9c0,3.9,0.3,7.7,0.4,11.6c0,1,0.1,1.9,0.1,2.9
							l0.1,1.4c0,0.4,0.2,0.8,0.6,1c0.4,0.2,0.8,0.2,1.2-0.1c0.3-0.3,0.6-0.7,0.9-1c0.6-0.7,1.3-1.4,1.9-2.1c2.1-2.9,5-5.6,7.5-8.6
							l-0.2,0.1c1.1-0.9,1.8-2.6,2.6-3.1l-0.1,0.1c0.6-0.5,0.8-1.6,1.2-1.8v-0.1c0.6-0.7,0.1,0,0.6-0.5c0.2-0.2-0.1-0.2,0.3-0.6
							c0.4,0.1,1.4-1.8,1.7-1.6c-0.3,0.4,0.6-0.5,0,0.4c0.2-0.2,1.2-1.4,1-1.4c-0.1-0.2,0.2-0.8-0.5-0.2v0.2
							c-0.3,0.2-0.2,0.1-0.4,0.2c-0.8,0.9-1,0.9-1.7,1.5l0,0c-0.3,0.6-0.9,1.1-1.2,1.5l-0.2,0.1c-0.3,0.1-0.6,1.3-0.6,0.8
							c-1.5,1.9-3.3,4.1-5.1,6.2c-0.2,0.4-1.4,1.6-0.8,1.3c-0.6,0.4-2,1.9-2.4,2.5c0,0,0-0.1,0.1-0.2c-1.2,0.9-0.9,1.5-2.1,2.4
							c0.1,0.3-1.7,1.9-1.9,2.7c-0.2,0.1-0.2,0.1-0.2,0c-0.2,0.2-0.4,0.5-0.6,0.7c-0.2,0.2-0.3,0.3-0.4,0.3
							c-0.3,0.1-0.7-0.2-0.8-0.4c0-0.1,0-0.1,0-0.3V152c0-0.3,0-0.6,0-0.9c0-0.6,0-1.2,0-1.7c-0.3-1.8-0.1-4.3-0.4-5.9
							c0-1.3,0.1-3.4-0.1-5.1v0.2c-0.1-2-0.2-4.5-0.4-5.9c0.3-0.6,0.2-1.5,0.3-2.3c-0.2-1.3-0.2-4.1-0.4-6.1
							c0.1-0.3-0.1-1.7,0.1-1.8c-0.5-5.7-0.6-12.9-0.4-19v0.1c-0.1-0.8-0.4-1.7-0.5-2.5c0-0.1,0-0.1,0,0.1c-0.1-1.1,0.1-2.2,0.1-3.3
							c0,0,0,0,0.1,0.2c-0.1-1.1,0.1-2.2,0-3.4l0.1-0.1l-0.1-0.8c0.1,0,0.2,0,0.1,0.5c0-9.6-0.4-19.6-0.3-29.5l0.1,0.4l-0.1-1.9
							c0,0,0,0.1,0.1,0.2c0.1-2.4,0-5,0.1-7.4c0,0,0.1,0.4,0.1,0c-0.1-1.8,0.3-2.8-0.1-3.7c0-0.1,0.1-0.1,0.1,0
							c0-4.9,0.1-9.9,0.4-14.9c-0.1-2.1,0-4.2,0.1-6.4c0.1-1.1,0.1-2.2,0.2-3.3V27c0-0.3,0-0.6,0.1-0.8c0.1-0.5,0.6-0.8,1.1-0.8v0.1
							c0.3,0,0.6,0.1,0.9,0.3c0.3,0.2,0.7,0.3,1,0.3c0.7,0.1,1.4,0.1,2.1-0.1c1.4-0.2,2.8-0.7,4-1.5c2.5-1.4,4.6-3.8,5.4-6.6
							c0.1-0.3,0.2-0.6,0.3-0.7c0.2-0.2,0.4-0.2,0.7-0.2c0.5,0,0.9,0.3,1.2,0.7c0.2,0.4,0.1,0.9,0.2,1.5c0,0.5,0.1,1.1,0.1,1.7
							L165,21c0.5,4,0.1,8.5,0.7,12.7l-0.1-0.3c0.2,0.6,0,2.5,0.3,2.3l-0.1,0.7c0.5,2.8,0,5.2,0.3,8.7l-0.1-0.2
							c0.1,0.9,0.1,2,0.1,2.7c0-0.1,0-0.1-0.1-0.3c-0.2,2.9,0.1,6.2,0.1,9.2l-0.1-0.3c0.2,1.5,0.1,4.2,0.1,6.2l-0.1-0.1l0.1,1H166
							C165.9,65.6,166,67.9,166.1,70.4z"/>
						<path class="st4" d="M164.8,135c0.1-0.1,0.1-0.2,0.2-0.2C165,134.8,164.8,134.9,164.8,135z"/>
					</g>
				</g>
			</g>
		</g>
	</g>
	<g>
		<path class="st0" d="M36.7,33.1c12.9,0.9,97.9,5.2,109.1,5.8c0.7,0,1.2,0.6,1.2,1.3v0.3c0,0.7-0.6,1.3-1.4,1.3L36.5,35.7
			c-0.6,0-1.1-0.5-1.2-1.1l0,0C35.2,33.8,35.9,33.1,36.7,33.1z"/>
		<g>
			<g>
				<g>
					<g>
						<path class="st4" d="M36.8,32.4h-0.2c-0.1,0-0.3,0.1-0.4,0.2C36.4,32.5,36.6,32.5,36.8,32.4z"/>
						<path class="st4" d="M34.9,34C35,34,35,34,34.9,34c0.1-0.6,0.4-1.1,0.8-1.4c-0.4,0.1-0.6,0.4-0.7,0.7C35,33.6,35,33.8,34.9,34
							z"/>
						<path class="st4" d="M34.9,34.4c0,0.6,0.3,0.8,0.4,0.8c-0.1,0-0.2-0.3-0.2-0.5C34.9,34.6,34.9,34.4,34.9,34.4z"/>
						<path class="st5" d="M80.8,38.1L80.8,38.1c-1.7,0-3.7-0.3-5.6-0.3h0.1c-4.8-0.3-9.2-0.4-13.9-0.6c0.1,0,0.1,0,0.2,0
							c-0.2,0-0.5,0.1-0.7,0.1c-0.1,0,0.1,0,0.2-0.1c-1-0.2-2.9,0-3.6-0.2c-0.3,0-0.4,0.1-0.3,0.1c-3.7-0.2-7.7-0.3-11.5-0.4
							c-0.2,0-0.2-0.1-0.2-0.1c-1.6,0.1-3.3,0-4.9-0.1l-2.5-0.2l-1.2-0.1h-0.3c-0.1,0-0.3,0-0.4-0.1c-0.3-0.1-0.5-0.2-0.7-0.4
							c-0.2-0.1,0.3,0.4-0.1,0.1c0.3,0.3,0.6,0.5,1,0.5c0.2,0,0.3,0,0.4,0h0.4c0.5,0,0.9,0,1.4,0.1l-0.1,0.1c0.7,0.1,0.2-0.2,0.9,0
							c0.3,0.1-0.1,0.1,0.1,0.1c1.5,0.1,3,0.2,4.5,0.1c0.3,0.2,1.6,0.1,2.1,0.3c0.4,0,0.8,0,0.9-0.1c5.2,0.4,10.6,0.5,15.9,0.8
							c2.5-0.2,5.5,0.4,8.5,0.4l0,0c1,0,2.4,0,3.5,0.1l1-0.1C82.8,38.8,90,39,97,39.5c8,0.5,15,1.1,22.9,1.2c0,0,0.1,0.1-0.2,0.1
							c2.3,0.1,4.3,0.3,6.4,0.3l0,0c5.3,0,11,0.6,16.1,0.7c0.8,0,1.6,0.1,2.4,0.1c0.4,0,0.8,0,1.2,0.1c0.4,0,0.9-0.1,1.2-0.5
							c0.3-0.3,0.4-0.8,0.3-1.2c0-0.4-0.2-0.9-0.6-1.1c-0.4-0.3-0.9-0.2-1.3-0.3l-1.3-0.1c-3.3-0.2-6.7-0.3-10-0.5v-0.1
							c-5.2-0.1-10.3-0.7-15.5-0.9c-5.4-0.4-11.1-0.2-16.5-0.7c-3.3-0.5-7.8-0.1-10.9-0.5c-6.4-0.8-12.7-0.8-19.2-0.9
							c-6-0.5-11.9-0.4-17.7-1c-2.8,0.1-5.7-0.6-8.8-0.7l0.1,0.1c-1.1-0.3-2.5,0.2-3.1-0.2h0.1c-0.6-0.2-1.4,0.3-1.7,0.1l-0.1,0.1
							c-0.7,0-0.1-0.1-0.6-0.2c-0.2,0-0.1,0.2-0.5,0.1c-0.1-0.4-1.7,0-1.7-0.4c0.4,0-0.6-0.2,0.3-0.2c-0.2-0.1-1.4-0.1-1.3,0.1
							c-0.1,0.2-0.6,0.3,0.1,0.5l0.2-0.1c0.2,0.1,0.2,0.1,0.3,0.2c0.9,0.1,1,0.3,1.7,0.4l0,0c0.5-0.1,1.1,0,1.5,0l0.1,0.1
							c0.2,0.2,1.1-0.2,0.8,0c1.9,0,4.1,0.2,6.2,0.3c0.3-0.1,1.6,0.1,1.2-0.1c0.5,0.2,2.1,0.4,2.7,0.4c0,0,0,0-0.1,0
							c1.1,0.3,1.4-0.2,2.4,0.2c0.2-0.2,1.9,0.2,2.6-0.1c0.1,0.1,0.2,0.1,0.1,0.2c1.9,0.1,4,0.3,5.7,0.4c1.4-0.1,3.4,0.3,4.6,0
							c1,0.1,2.6,0.3,4,0.3H71c1.6,0.1,3.5,0.2,4.6,0c0.4,0.3,1.1,0.3,1.8,0.4c1-0.1,3.1,0.1,4.7,0c0.2,0.1,1.3,0,1.4,0.2
							c4.5-0.1,9.9,0.3,14.7,0.8h-0.1c0.6-0.1,1.3-0.3,2-0.4c0.1,0,0.1,0.1-0.1,0c0.9,0,1.7,0.2,2.5,0.3c0,0,0,0-0.2,0.1
							c0.8,0,1.7,0.2,2.6,0.1l0.1,0.1h0.6c0,0.1,0,0.2-0.4,0.1c7.4,0.5,15.1,0.5,22.8,1h-0.3h1.5c0,0-0.1,0-0.2,0.1
							c1.9,0.2,3.8,0.1,5.7,0.3c0,0-0.3,0.1,0,0.1c1.4-0.1,2.2,0.3,2.9,0c0.1,0,0.1,0.1,0,0.1c1.9,0,3.8,0.1,5.7,0.2l2.9,0.2
							c0.5,0,0.7,0.2,0.9,0.5c0.1,0.2,0.1,0.3,0.1,0.5c0,0.3,0,0.4-0.1,0.6c-0.1,0.3-0.3,0.6-0.6,0.7c-0.3,0.1-0.7,0-1.1,0.1
							c-0.8,0-1.7-0.1-2.5-0.1c-1.7-0.1-3.4-0.2-5.1-0.2v-0.1c-4.3,0-8.8-0.5-13.2-0.7c-1.8-0.1-3.1-0.1-4.9-0.2v-0.1
							c-3.1,0.1-6.5-0.6-9.8-0.5l0.2-0.1c-0.5,0.1-2-0.2-1.8,0.1l-0.6-0.1c-2.2,0.3-4-0.4-6.7-0.3l0.2-0.1c-0.7,0-1.6,0-2.1-0.1
							c0.1,0,0,0,0.2,0c-2.2-0.4-4.8-0.2-7.1-0.4l0.3-0.1c-1.2,0.1-3.3-0.2-4.8-0.2l0.1-0.1H87v-0.1C84.5,38.2,82.7,38.2,80.8,38.1z
							"/>
					</g>
				</g>
			</g>
		</g>
	</g>
	<g>
		<path class="st0" d="M44,19.2c-0.8-0.2-1.6,0.5-1.5,1.3c0.4,10.4,2.7,67.2,2.6,71.7c-0.2,5,1.1,12.6,1.1,17.7
			c0,4.8-0.9,27.1-0.2,32.7c0.1,0.6,0.5,1,1,1.1l7.1,1.3c0.8,0.1,1.5-0.4,1.5-1.2c0.1-5.5,0.4-24.3,0-29.7
			c-0.5-6.4-1.7-13.3-1.2-17.1c0.5-3.7-3-65.5-2.6-75.1c0-0.6-0.4-1.2-1-1.3L44,19.2z"/>
		<g>
			<g>
				<g>
					<g>
						<polygon class="st4" points="43.8,19.8 44,19.9 44.3,19.9 						"/>
						<path class="st4" d="M46,20C45.9,20,46,20,46,20h-1.4C45.1,20.3,45.7,19.8,46,20z"/>
						<path class="st4" d="M46.4,20.1c0.5,0.2,0.7,0.1,0.8,0C47,20.2,46.3,20,46.4,20.1z"/>
						<path class="st5" d="M53.6,69.9l0.1,0.1c-0.3-2.1-0.2-4.5-0.4-6.7v0.1c-0.2-5.6-0.6-10.8-0.9-16.4c0,0.1,0,0.1,0.1,0.2
							c0-0.3-0.1-0.6-0.1-0.9c0-0.1,0.1,0.1,0.1,0.2c0.1-1.2-0.3-3.5-0.1-4.2c0-0.3-0.1-0.5-0.2-0.3c-0.2-4.4-0.5-9-0.7-13.5
							c0-0.2,0.1-0.3,0.1-0.2c-0.2-1.9-0.3-3.8-0.2-5.8v-0.7c0-0.2,0-0.3-0.1-0.5C51.2,21.2,51.1,21,51,21s-0.1-0.1-0.2-0.1
							l-0.3-0.1c-1-0.2-1.9-0.4-2.9-0.6c-0.2,0,0.4,0.2,0,0.2c0.6,0.2,1.2,0.2,1.7,0.3c0.3,0,0.6,0.1,0.8,0.1c0.1,0,0.3,0.1,0.4,0.1
							c0.1,0,0.3,0.1,0.3,0.1h-0.1c0.2,0.1,0.2,0.1,0.3,0.1c0,0,0.1,0,0.2,0.2c0,0.2-0.1,0-0.1,0.1c0.1,0.1,0.1,0.2,0.1,0.3v0.7
							c0,0.4,0,0.9,0,1.3c0,0.9,0.1,1.8,0.2,2.6c-0.2,0.4,0,1.9-0.1,2.5c0.1,0.5,0.1,0.9,0.2,1.1c0.1,6.1,0.5,12.4,0.7,18.7
							c0.4,2.9,0.2,6.5,0.5,9.9l0,0c0.1,1.1,0.2,2.8,0.3,4.1l0.2,1.1c0.1,8.2,0.7,16.5,0.8,24.8c0.1,2.4,0.1,4.6,0.1,6.9
							c0,1-0.2,2.2-0.2,3.3c0,1.1,0,2.2,0.1,3.3c0.3,4.4,1.1,8.7,1.5,13.3c0,0,0,0.1-0.1-0.2c0.2,2.6,0.1,5.1,0.2,7.6l0,0
							c0.3,6.2-0.1,12.9,0.1,18.9c0,0.5,0,0.9,0,1.4s0,0.9-0.3,1.3c-0.6,0.8-1.6,0.3-2.5,0.2c-1.9-0.3-3.8-0.7-5.7-1.1
							c-0.5-0.1-0.8-0.4-1-0.9c-0.1-0.5-0.1-1-0.2-1.5c-0.1-1-0.1-2-0.1-2.9c-0.1-2-0.1-3.9-0.1-5.8h0.1c-0.1-6.2,0.4-12.1,0.5-18.3
							c0.1-1.6,0.1-3.2,0.1-4.8c0-1.6-0.2-3.2-0.4-4.9c-0.3-3.2-0.8-6.5-0.8-9.7c0-1,0.1-2,0.1-3.1s-0.1-2.2-0.1-3.4
							c-0.1-2.2-0.3-4.5-0.2-6.3c0.2-7.6-0.3-15-0.9-22.6c-0.1-7-0.8-14-0.7-20.8c-0.4-3.2,0-6.8-0.2-10.4l-0.1,0.1
							c0.2-1.3-0.4-2.9-0.1-3.7v0.1c0.2-0.7-0.5-1.6-0.3-2l-0.1-0.1c-0.1-0.8,0.1-0.1,0.1-0.7c0-0.2-0.2-0.1-0.1-0.6
							c0.2-0.1,0.1-0.6,0.1-1.1s0.4-0.9,0.5-0.8c-0.1,0.1,0,0.1,0.1,0c0.1,0,0.1,0-0.1,0.3c0.1-0.1,0.3-0.3,0.5-0.4
							c0.2-0.1,0.5-0.1,0.4-0.2c0.1-0.2,0.7-0.2-0.1-0.5c-0.1,0-0.1,0.1-0.2,0.1c-0.3-0.1-0.2,0-0.4-0.1c-0.6,0.2-0.9,0.6-1.1,0.9
							c-0.2,0.3-0.2,0.7-0.3,1l0,0c0.2,0.5,0.1,1.3,0.1,1.7l-0.1,0.2c-0.1,0.3,0.4,1.2,0.1,0.9c0.2,2.2,0.3,4.8,0.4,7.3
							c0.1,0.3,0.1,1.9,0.2,1.4c-0.2,0.6-0.2,2.5-0.1,3.2c0,0,0-0.1,0-0.2c-0.2,1.3,0.3,1.6,0,2.8c0.3,0.2,0,2.3,0.3,3
							c0,0.2-0.1,0.2-0.1,0.2c0.1,2.3,0.1,4.7,0.2,6.7c0.3,1.6,0.1,3.9,0.4,5.3c0,1.2-0.1,3,0.1,4.7v-0.2c0.1,1.8,0.2,4.1,0.4,5.4
							c-0.3,0.6-0.2,1.3-0.2,2.1c0.2,1.2,0.2,3.7,0.4,5.5c-0.1,0.3,0.1,1.5-0.1,1.6c0.6,5.2,0.7,11.7,0.5,17.2V89
							c0.1,0.7,0.4,1.5,0.5,2.3c0,0.1,0,0.1,0-0.1c0,1-0.2,2-0.1,3c0,0,0,0-0.1-0.2c0.1,1-0.1,2,0.2,3.1v0.1l0.1,0.7
							c-0.1,0-0.2,0-0.2-0.4c0.3,4.4,1,8.8,0.9,13.2c0,4.5-0.1,9-0.2,13.5l-0.1-0.3l0.1,1.7c0,0,0-0.1-0.1-0.2c-0.1,2.2,0,4.5,0,6.7
							c0,0-0.1-0.3-0.1,0c0.2,1.6-0.2,2.6,0.1,3.4c0,0.1-0.1,0.1-0.1,0c0.1,2.2,0.1,4.5,0.4,6.8c0.1,0.3,0.3,0.7,0.6,0.9
							c0.3,0.2,0.7,0.3,0.9,0.4l1.7,0.3c1.1,0.2,2.2,0.4,3.3,0.7c0.5,0,0.9,0.1,1.4,0.2c0.3,0,0.4,0.1,0.7,0.1s0.6-0.1,0.8-0.2
							c0.5-0.3,0.8-0.9,0.8-1.4s0-1,0-1.5c0-2,0.1-4,0-5.9h0.1c-0.2-5,0.1-10.4,0-15.6c0-2.2-0.1-3.6-0.2-5.8l0.1-0.1
							c-0.5-3.6-0.5-7.7-1.2-11.4l0.1,0.3c-0.2-0.6-0.1-2.3-0.4-2.1l0.1-0.7c-0.3-1.3-0.2-2.5,0-3.7s0.2-2.6,0.1-4.2l0.1,0.2
							c-0.1-0.8-0.1-1.8-0.1-2.5c0,0.1,0,0.1,0.1,0.3c0.2-2.7-0.2-5.6-0.3-8.4l0.1,0.3c-0.2-1.3-0.2-3.8-0.3-5.6l0.1,0.1l-0.1-0.9
							h0.1C53.9,74.3,53.7,72.1,53.6,69.9z"/>
					</g>
				</g>
			</g>
		</g>
	</g>
	<g>
		<path class="st0" d="M119.8,25.7c0.1,12.6,0.7,117,3.3,130.2c0.1,0.5,0.5,0.9,1,1l8.8,1.5c0.8,0.1,1.5-0.5,1.5-1.3
			c-0.6-13.9-4.9-114.5-2.5-131.5c0.1-0.8-0.5-1.5-1.3-1.5l-9.5,0.4C120.3,24.5,119.8,25,119.8,25.7z"/>
		<g>
			<g>
				<g>
					<g>
						<path class="st4" d="M120.5,25.7L120.5,25.7c0-0.1,0-0.2,0-0.3C120.4,25.6,120.4,25.7,120.5,25.7z"/>
						<path class="st4" d="M121.4,24.9C121.3,24.9,121.4,24.9,121.4,24.9c-0.4,0-0.5,0-0.6,0.1c-0.1,0.1-0.2,0.2-0.2,0.3
							C120.8,25.3,120.8,24.8,121.4,24.9z"/>
						<path class="st4" d="M121.8,24.9c0.5,0,0.7-0.1,0.9-0.1C122.5,24.9,121.7,24.7,121.8,24.9z"/>
						<path class="st5" d="M131.6,73.2l0.1,0.1c-0.3-2.3-0.1-4.8-0.2-7.2v0.2c-0.1-6.1-0.3-11.7-0.4-17.7c0,0.1,0,0.1,0.1,0.2
							c0-0.3-0.1-0.6-0.1-0.9c0-0.1,0.1,0.1,0.1,0.2c0.2-1.3-0.1-3.7,0-4.5c0-0.4-0.1-0.5-0.2-0.3c0-2.4,0-4.8,0-7.3
							c0-1.2,0-2.5,0.1-3.7c0-1.2,0-2.4,0.1-3.7c0-0.2,0.1-0.3,0.2-0.2c0-0.5,0-1,0-1.6V26c0-0.3,0-0.6,0-0.7c0-0.3-0.3-0.6-0.6-0.7
							c-0.1,0-0.2,0-0.3,0h-0.4h-0.8c-2.1,0.1-4.2,0.1-6.4,0.2c-0.2,0.1,0.4,0.1,0,0.2c1.4,0,2.5-0.3,3.7-0.2l-0.2,0.1
							c0.9,0,0.2-0.2,1.1-0.1c0.4,0-0.1,0.1,0.1,0.1c0.9,0,1.9-0.1,2.8-0.1c0.3,0,0.5,0.1,0.6,0.4c0.1,0.1,0.1,0.2,0.1,0.4
							s0,0.4,0,0.7c-0.2,0.4-0.2,2-0.4,2.7c0,0.5,0,1,0.1,1.2c-0.4,6.7-0.2,13.4-0.2,20.3c0.3,3.2,0,7,0.2,10.8l0,0
							c0.1,1.2,0.2,3,0.2,4.5l0.2,1.2c-0.1,8.9,0.3,17.9,0.5,26.9c0.2,10.2,0.3,19.2,1.1,29.1c0,0,0,0.1-0.1-0.2
							c0.2,2.9,0.2,5.5,0.3,8.2l0,0c0.5,6.7,0.5,14,1.1,20.4c0.1,2,0.2,4,0.2,6.1c0,0.5-0.4,0.9-0.8,1c-0.2,0.1-0.5,0-0.7,0
							l-0.8-0.1c-1-0.2-2.1-0.3-3.1-0.5s-2.1-0.3-3.2-0.5l-1.6-0.3c-0.5-0.1-0.9-0.5-1-1c-0.1-1.1-0.3-2.1-0.4-3.1
							c-0.1-1-0.2-2.1-0.3-3.1h0.1c-0.6-6.6-0.5-13.1-0.9-19.7c-0.1-6.8-0.8-14.1-0.7-21c0.2-4.3-0.6-9.9-0.3-13.9
							c0.3-8.2-0.1-16.2-0.5-24.5c0.1-7.6-0.4-15.2-0.2-22.5c-0.3-3.5,0.2-7.3,0.1-11.2l-0.1,0.1c0.2-1.4-0.4-3.1,0-4v0.1
							c0.2-0.7-0.4-1.7-0.2-2.2l-0.1-0.1c0-0.9,0.1-0.1,0.1-0.8c0-0.3-0.2-0.1-0.1-0.6c0.4-0.1-0.1-2.2,0.3-2.2
							c0,0.5,0.2-0.8,0.2,0.3c0-0.3,0-1.8-0.2-1.7c-0.2-0.1-0.3-0.7-0.5,0.2l0.1,0.2c-0.1,0.3-0.1,0.2-0.2,0.3
							c0,1.2-0.2,1.3-0.3,2.2l0,0c0.2,0.6,0.1,1.4,0.1,1.8l-0.1,0.2c-0.2,0.3,0.3,1.3,0,1c0.1,2.4,0.1,5.2,0.1,7.9
							c0.1,0.4,0,2.1,0.2,1.5c-0.2,0.7-0.3,2.7-0.2,3.4c0,0,0-0.1,0-0.2c-0.3,1.4,0.3,1.7-0.1,3.1c0.3,0.2-0.1,2.5,0.2,3.2
							c-0.1,0.2-0.1,0.2-0.1,0.2c0,2.4,0,5.1,0,7.2c0.2,1.8,0,4.3,0.3,5.8c0,1.3-0.2,3.3,0,5v-0.2c0,2,0.1,4.5,0.3,5.8
							c-0.3,0.6-0.2,1.4-0.3,2.3c0.1,1.3,0.1,4,0.3,6c-0.1,0.3,0.1,1.7-0.1,1.8c0.5,5.6,0.5,12.6,0.3,18.7v-0.1
							c0.1,0.8,0.4,1.7,0.5,2.5c0,0.1,0,0.1,0-0.1c0.1,1.1-0.1,2.1,0,3.2c0,0,0,0-0.1-0.2c0.1,1-0.1,2.1,0.1,3.4v0.1l0.1,0.8
							c-0.1,0-0.2,0-0.2-0.5c0.2,9.5,0.8,19.2,1.2,28.9l-0.1-0.4l0.2,1.9c0,0-0.1-0.1-0.1-0.2c0,2.4,0.3,4.9,0.5,7.2
							c0,0-0.1-0.4-0.1,0c0.3,1.7,0,2.8,0.5,3.6c0,0.1-0.1,0.1-0.1,0c0.1,0.6,0.2,1.2,0.3,1.8c0.1,0.3,0.1,0.6,0.1,0.9
							c0.1,0.4,0.4,0.7,0.7,0.9c0.2,0.1,0.3,0.2,0.5,0.2s0.3,0.1,0.5,0.1l0.9,0.1l1.8,0.3l3.6,0.6l1.8,0.3c0.3,0.1,0.7,0.1,1.1,0
							c0.4-0.1,0.7-0.4,0.9-0.7c0.2-0.3,0.2-0.6,0.2-0.9l-0.1-0.8c0-0.5-0.1-1-0.1-1.6c-0.1-1.1-0.1-2.1-0.2-3.2
							c-0.1-2.2-0.2-4.3-0.4-6.4h0.1c-0.4-5.4-0.4-11.2-0.7-16.8c-0.1-2.3-0.2-3.9-0.3-6.3l0.1-0.1c-0.4-3.9,0-8.3-0.5-12.4l0.1,0.3
							c-0.2-0.6,0-2.5-0.3-2.2l0.1-0.7c-0.5-2.8,0-5.1-0.3-8.5l0.1,0.2c-0.1-0.9-0.2-2-0.1-2.7c0,0.1,0,0.1,0.1,0.3
							c0.2-2.9-0.2-6-0.3-9.1l0.1,0.3c-0.2-1.5-0.1-4.1-0.2-6.1l0.1,0.1l-0.1-1h0.1C131.8,78,131.7,75.6,131.6,73.2z"/>
					</g>
				</g>
			</g>
		</g>
	</g>
	<g>
		<path class="st0" d="M119.2,24.5c-1.8,1.2-5,14.3-6.6,24.3c-1.4,8.8-13.1,39.9-30.6,44.6c-5.5,1.5,9.1,8.4,9.1,8.4
			c2.4-2.9,23.9-3.8,40.4-77.4C131.8,23.7,122.8,22.1,119.2,24.5z"/>
		<g>
			<g>
				<g>
					<g>
						<polygon class="st4" points="120,25.6 120.1,25.6 120.1,25.4 						"/>
						<path class="st4" d="M120.9,24.7C120.8,24.7,120.8,24.6,120.9,24.7c-0.3,0.2-0.5,0.5-0.6,0.7
							C120.7,25.6,120.6,24.5,120.9,24.7z"/>
						<path class="st4" d="M121.2,24.6c0.3,0,0.4-0.3,0.5-0.4C121.6,24.5,121,24.4,121.2,24.6z"/>
						<path class="st5" d="M124,53.1l0.2,0.2c0.1-1.6,1-3.2,1.4-4.8v0.1c1.3-4,2-7.8,2.9-11.9c0,0.1,0.1,0.1,0.1,0.2
							c0-0.2-0.1-0.5,0-0.7c0.1,0,0.1,0.1,0.1,0.2c0.6-0.8,0.4-2.6,0.8-3c0-0.2-0.1-0.4-0.2-0.3c0.3-1.3,0.6-2.7,0.9-4l0.4-2.1
							l0.2-1l0.1-0.5v-0.3c0-0.1,0.1-0.3-0.1-0.3c-0.1-0.1-0.3-0.1-0.4-0.1c0-0.1,0-0.2,0-0.3c-2.7,0-5.6-0.5-8.3-0.1
							c-0.1,0.2,0.3,0.1,0.1,0.3c0.8,0,1.5-0.6,2.3-0.4l-0.1,0.2c0.6,0.1,0.1-0.4,0.7-0.2c0.2,0.1-0.1,0.2,0.1,0.2
							c1.2-0.1,2.5,0.2,3.7,0c0.1,0.2,0.4,0.2,0.8,0.3c0.2,0,0.3,0.1,0.5,0.1V25c0.1-0.1,0.2,0,0.4-0.2c0.1,0.1,0,0.2,0,0.2
							c0,0.1,0,0.1-0.1,0.4l-0.2,0.8l-0.4,1.6c-0.2,1.1-0.5,2.1-0.7,3.2c-0.5,2.1-1,4.3-1.5,6.5c0,2.3-1.4,4.6-1.9,7.2
							c0,0,0,0-0.1,0c-0.1,0.9-0.4,2.1-0.7,3v0.9c-2.3,5.7-4,11.7-6.6,17.3c-0.7,1.6-1.4,3.1-2.2,4.6s-1.5,3-2.2,4.4
							c-1.5,2.9-3,5.8-4.4,8.9c0,0-0.1,0,0-0.2c-0.5,0.9-1,1.6-1.6,2.4c-0.5,0.7-1.1,1.5-1.6,2.2l0,0c-1.2,2-2.7,3.8-4.4,5.5
							s-3.5,3.1-5.2,4.6c-0.8,0.6-1.7,1.1-2.7,1.6c-0.5,0.3-1,0.5-1.5,0.8c-0.2,0.1-0.5,0.3-0.7,0.4s-0.4,0.3-0.6,0.5
							c-0.6-0.2-1.5-0.7-2.2-1.1c-0.8-0.4-1.6-0.8-2.4-1.3c-1.6-0.9-3.2-1.8-4.5-3l0.1-0.1c-0.4-0.4-0.8-0.7-1-1.2
							c-0.1-0.2-0.1-0.5,0-0.8c0.1-0.2,0.4-0.4,0.6-0.5c1-0.3,2.2-0.6,3.2-1c2.1-0.8,4.2-2,5.9-3.5c2-1.4,3.6-3.3,5-5.2
							c1.5-2,2.8-4,4.3-5.9c2.2-2.1,3-6.2,4.8-8.3c3.4-4.6,5-10.1,6.2-15.7c0.5-1.2,0.8-2.5,1.1-3.8s0.4-2.6,0.6-3.9
							c0.4-2.6,0.8-5.1,1.7-7.5c0.1-2.5,1.7-4.8,2.3-7.4h-0.2c0.7-0.8,0-2.2,0.8-2.6v0.1c0.5-0.4-0.4-1.4,0.1-1.5l-0.1-0.1
							c0.2-0.6,0.2,0,0.5-0.4c0-0.2-0.3-0.2,0-0.5c0.7,0.2,0.5-1.5,1.3-1.1c-0.2,0.3,0.5-0.2,0.3,0.4c0.1,0,0.2-0.3,0.3-0.5
							c0.1-0.1,0.1-0.3,0-0.4c-0.1-0.3,0-0.9-0.7-0.7c0,0.1,0,0.2,0.1,0.3c-0.4,0-0.2,0-0.4,0c-0.5,0.7-0.9,0.7-1.3,1.2l0,0
							c0.1,0.5-0.3,1-0.4,1.3l-0.2,0.1c-0.4,0.1,0.3,1.1-0.2,0.7c-0.4,1.6-0.9,3.5-1.4,5.3c0.1,0.3-0.4,1.4,0.1,1.1
							c-0.5,0.3-1,1.7-1.1,2.2c0,0-0.1-0.1,0-0.1c-0.8,0.9,0.3,1.3-0.6,2c0.4,0.2-0.5,1.6-0.1,2.3c-0.1,0.1-0.2,0.1-0.3,0
							c-0.4,1.7-0.9,3.5-1.2,4.9c0.2,1.3-0.7,2.9-0.3,4c-0.3,0.8-0.9,2.1-1,3.3v-0.1c-0.3,1.3-0.8,2.9-0.8,3.9
							c-0.7,0.2-0.8,0.8-1.1,1.3c0,0.9-0.8,2.6-1.1,4c-0.3,0.1-0.3,1.1-0.7,1c-0.8,3.8-3.2,8.1-5.8,11.3V74c-0.1,0.6,0,1.3-0.1,1.9
							c-0.1,0-0.1,0,0-0.1c-0.3,0.7-1,1.1-1.4,1.7c-0.1,0,0,0,0-0.2c-0.3,0.7-1.1,1-1.3,1.9h-0.1l-0.2,0.5c-0.1-0.1-0.2-0.2,0-0.4
							c-1.9,2.6-3.9,5.2-6.2,7.5C91.1,88,89.8,89,88.5,90c-1.3,0.9-2.8,1.7-4.3,2.3l0.2-0.2c-0.3,0.2-0.7,0.4-1.1,0.6
							c0-0.1,0-0.1,0.1-0.2c-0.2,0-0.4,0.1-0.6,0.1l-0.3,0.1l-0.4,0.2c-0.6,0.2-1.1,0.7-1.2,1.3c-0.1,0.6,0.2,1.2,0.5,1.6l0.3,0.3
							l0.2,0.2c0.2,0.2,0.3,0.3,0.5,0.5c0,0-0.3-0.1-0.2,0.2c1.2,0.6,1.3,1.6,2.2,1.4c0,0.1,0,0.2-0.2,0.2c1.2,0.7,2.4,1.3,3.6,2
							l1.8,1l0.9,0.5c0.4,0.2,0.9,0.5,1.3,0.7c0.3-0.3,0.7-0.6,1-0.8c0.3-0.1,0.5-0.3,0.8-0.4c2.2-1.8,5.2-3,7.1-5.4l0.1,0.1
							c2.6-2.8,5.5-5.5,7.7-8.7c0.5-0.6,0.9-1.2,1.2-1.8c0.3-0.6,0.7-1.2,1.1-1.9L111,84c0.9-2.6,3.4-4.7,4.1-7.6l0.1,0.3
							c-0.1-0.6,0.9-1.5,0.3-1.6l0.4-0.4c0.1-2.1,1.9-3,2.3-5.4l0.1,0.2c0.2-0.6,0.4-1.3,0.7-1.7c0,0.1,0,0.1,0,0.2
							c1.3-1.6,1.5-3.9,2.3-5.8l0.2,0.3c0.1-1.1,1-2.7,1.3-4l0.1,0.1l0.1-0.7l0.2,0.1C123.1,56.3,123.5,54.7,124,53.1z"/>
						<path class="st4" d="M117,25.9c0-0.1,0.1-0.1,0.1-0.2C117.1,25.8,117.1,25.9,117,25.9z"/>
					</g>
				</g>
			</g>
		</g>
	</g>
	<g>
		<path class="st0" d="M42.4,20.5c0,0-2.5,15.7,6.7,33c35.1,66.2,47.2,45.4,47.2,45.4C87,94.3,57.9,60.6,51.8,21.8
			C51.8,21.8,42.7,18.6,42.4,20.5z"/>
		<g>
			<g>
				<g>
					<g>
						<path class="st4" d="M43,20.6L43,20.6C42.9,20.6,42.9,20.5,43,20.6L43,20.6L43,20.6L43,20.6z"/>
						<path class="st4" d="M43.8,20.3L43.8,20.3c-0.4,0-0.7,0.2-0.8,0.3C43.3,20.7,43.6,20.2,43.8,20.3z"/>
						<path class="st4" d="M44.1,20.4c0.3,0.1,0.5,0,0.6-0.1C44.6,20.4,44,20.2,44.1,20.4z"/>
						<path class="st4" d="M58.4,46.6C58.4,46.6,58.4,46.5,58.4,46.6C58.4,46.5,58.4,46.6,58.4,46.6z"/>
						<path class="st5" d="M62.3,54.4L62.3,54.4c-0.8-1.4-1.3-3.2-2.1-4.7l0.1,0.1c-0.8-2-1.6-4-2.4-5.9c-0.4-1-0.8-2-1.1-2.9
							c-0.4-1-0.7-2-1.1-3c0,0.1,0.1,0.1,0.1,0.1c-0.1-0.2-0.2-0.4-0.3-0.6c0-0.1,0.1,0,0.1,0.1c-0.1-0.5-0.3-1.1-0.5-1.7
							c-0.2-0.6-0.4-1.2-0.4-1.5c-0.1-0.2-0.2-0.3-0.2-0.2c-0.5-1.6-0.9-3.3-1.4-5c-0.4-1.7-0.8-3.5-1.2-5.2c0-0.2,0-0.2,0.1-0.2
							l-0.3-1.1l-0.1-0.5c0,0,0-0.2-0.1-0.2c-0.7-0.2-1.3-0.4-2-0.6c-1.4-0.4-2.9-0.9-4.4-1.1c-0.1,0.1,0.3,0.1,0,0.2
							c0.9,0.2,1.7,0.1,2.6,0.5h-0.1c0.6,0.2,0.2-0.2,0.8,0.1c0.2,0.1-0.1,0.1,0,0.1c0.7,0.2,1.3,0.4,2,0.6c0.3,0.1,0.7,0.2,1,0.3
							c0.1,0,0.1,0,0.1,0h0.1l0,0c0,0,0,0,0.1,0.1c-0.1,0.3,0.3,1.4,0.2,2c0.1,0.3,0.2,0.7,0.3,0.8c0.2,1.2,0.4,2.4,0.7,3.6
							c0.3,1.2,0.6,2.3,0.9,3.5c0.3,1.2,0.7,2.4,1,3.5c0.3,1.2,0.8,2.3,1.2,3.5c0.5,1,0.9,2.2,1.3,3.5c0.4,1.2,0.9,2.5,1.4,3.8l0,0
							c0.4,0.8,0.9,2,1.3,3c0.1,0.3,0.3,0.5,0.5,0.8c2.3,6,5.5,11.7,8.7,17.3c3.8,6.3,7.3,11.8,12.1,17.1c0,0,0,0.1-0.1-0.1
							c0.7,0.8,1.3,1.6,1.9,2.3c0.6,0.7,1.3,1.5,1.9,2.2l0,0c0.4,0.4,0.8,0.9,1.3,1.3c0.4,0.4,0.9,0.9,1.3,1.3
							c0.9,0.9,1.7,1.8,2.7,2.6c0.9,0.8,1.8,1.7,2.8,2.4c0.5,0.4,1,0.7,1.5,1.1c0.5,0.3,1.1,0.6,1.5,0.8c0.1,0.1,0.3,0.1,0.3,0.3
							c-0.1,0.1-0.2,0.2-0.3,0.4c-0.2,0.2-0.5,0.5-0.7,0.7c-0.5,0.5-1.1,0.9-1.8,1.2c-1.3,0.6-2.9,0.7-4.4,0.5
							c-3-0.5-5.8-2.1-8.2-3.8l0,0c-3.9-2.8-6.8-6.5-9.9-10.1c-3-3.9-6.4-7.9-8.9-12.1c-1.4-2.7-4.1-5.8-5.3-8.5
							c-2.6-5.4-5.7-10.2-8.6-15.4c-1.2-2.5-2.2-5-3.1-7.6c-0.8-2.6-1.6-5.2-1.9-7.8c-0.7-2.4-0.6-5.3-0.7-8l-0.1,0.1
							c0.2-1-0.4-2.2,0-2.9v0.1c0.2-0.5-0.4-1.2-0.2-1.6l-0.1-0.1c0-0.6,0.1-0.1,0.2-0.6c0-0.2-0.2-0.1-0.1-0.5
							c0.4-0.1,0-1.6,0.4-1.6c0,0.3,0.2-0.5,0.2,0.3c0.1-0.2,0.2-1.3,0-1.2c-0.2-0.1-0.3-0.6-0.5,0.1l0.1,0.1
							c-0.2,0.2-0.1,0.2-0.2,0.2c-0.1,0.9-0.3,1-0.4,1.6l0,0c0.1,0.4,0,1,0,1.3l-0.1,0.1c-0.2,0.2,0.3,1,0,0.7
							c0,1.8,0.1,3.8,0.3,5.7c0.1,0.3,0.1,1.5,0.3,1c-0.2,0.5-0.1,2,0,2.5c0,0-0.1,0-0.1-0.1c-0.1,1.1,0.4,1.2,0.3,2.2
							c0.3,0.1,0.3,1.8,0.7,2.3c0,0.1-0.1,0.2-0.1,0.1c0.2,0.9,0.4,1.8,0.6,2.7c0.2,0.9,0.5,1.7,0.7,2.4c0.6,1.2,0.9,3,1.6,3.9
							c0.3,0.9,0.7,2.3,1.4,3.4l-0.1-0.1c0.7,1.3,1.4,2.9,2.1,3.7c-0.1,0.5,0.3,1,0.5,1.6c0.6,0.8,1.5,2.5,2.3,3.7
							c0,0.3,0.6,1,0.5,1.2c2.3,3.4,4.7,7.8,6.8,11.6l0,0c0.4,0.4,0.9,0.9,1.3,1.3c0,0.1,0,0.1-0.1,0c0.4,0.7,0.7,1.4,1.2,2
							c0,0,0,0-0.1-0.1c0.5,0.6,0.7,1.4,1.3,2v0.1l0.4,0.4c-0.1,0-0.2,0.1-0.3-0.2c3.7,5.7,8.2,11.2,13.1,16.2l-0.2-0.1l1.1,0.9
							c0,0-0.1,0-0.1-0.1c1.2,1.3,2.7,2.3,4,3.4c0,0-0.3-0.1-0.1,0.1c1.1,0.6,1.5,1.4,2.3,1.4c0,0,0,0.1-0.1,0.1
							c1.5,0.9,3.2,1.6,4.9,2.1c1.7,0.4,3.7,0.5,5.4-0.1c0.7-0.3,1.4-0.7,2-1.3c0.3-0.3,0.6-0.5,0.9-0.8c0.1-0.1,0.3-0.4,0.4-0.6
							c0.1-0.1,0.1-0.2,0.2-0.3v-0.1H97l-0.2-0.1c-0.2-0.1-0.4-0.3-0.6-0.4l-0.5-0.3c-0.3-0.2-0.7-0.4-1-0.6
							c-0.6-0.5-1.2-0.9-1.9-1.3h0.1c-3.1-2.4-5.9-5.5-8.6-8.5c-1.1-1.3-1.8-2.1-2.9-3.4v-0.1c-1-1-1.9-2.2-2.7-3.5
							c-0.9-1.2-1.7-2.5-2.7-3.6l0.2,0.1c-0.4-0.3-1-1.5-1.1-1.2l-0.2-0.5c-0.7-0.7-1.2-1.5-1.7-2.3c-0.5-0.9-1-1.8-1.7-2.7l0.1,0.1
							c-0.4-0.5-0.8-1.2-1.1-1.6c0,0.1,0,0,0.1,0.1c-0.9-1.9-2.2-3.7-3.3-5.6l0.2,0.1c-0.7-0.8-1.5-2.6-2.1-3.8h0.1l-0.4-0.6
							l0.1-0.1C64,57.4,63,56,62.3,54.4z"/>
						<path class="st4" d="M55.5,37.6L55.5,37.6C55.6,37.7,55.5,37.7,55.5,37.6z"/>
					</g>
				</g>
			</g>
		</g>
	</g>
</g>
</svg>
