<?xml version="1.0" encoding="utf-8"?>
<!-- Generator: Adobe Illustrator 23.0.1, SVG Export Plug-In . SVG Version: 6.00 Build 0)  -->
<svg version="1.1" id="Layer_1" xmlns="http://www.w3.org/2000/svg" xmlns:xlink="http://www.w3.org/1999/xlink" x="0px" y="0px"
	 viewBox="0 0 200 170" style="enable-background:new 0 0 200 170;" xml:space="preserve">
<style type="text/css">
	.st0{fill:#EAB9C5;}
	.st1{fill:#D97294;}
	.st2{fill:#F5E1E5;}
	.st3{fill:#F8E9EC;}
	.st4{fill:#E299AD;}
	.st5{fill:#D45D85;}
	.st6{fill:#FDF8F9;}
	.st7{fill:#F3DADF;}
	.st8{fill:none;}
	.st9{fill:none;stroke:#B5DFCC;stroke-width:2;stroke-linecap:round;stroke-linejoin:round;stroke-miterlimit:10;}
	.st10{fill:#DB7C99;}
	.st11{fill:#FAF0F2;}
	.st12{fill:#F6E5E8;}
	.st13{fill:#DA7194;}
	.st14{fill:#F3A169;}
	.st15{fill:none;stroke:#EBB1C5;stroke-miterlimit:10;}
	.st16{fill:#0075C2;}
</style>
<g>
	<g>
		<path class="st7" d="M45.3,71.7c0,0,12.9,75.6,13.6,80.4s0.9,10.1,7,11.1s51.6,3.5,55.8,3.3s10.1-1.5,13.6-4.8s6.4-5.5,7.9-7.4
			c1.5-1.8,3.7-3.1,4.6-13.6c0.9-10.5,10.7-78.1,10.7-78.1"/>
		<g>
			<g>
				<g>
					<g>
						<polygon class="st4" points="157.3,62.4 157.2,62.5 157.4,62.9 						"/>
						<path class="st4" d="M157.5,64.6c0-0.1,0.1,0,0.2-0.1l-0.4-1.4C156.8,63.7,157.7,64.3,157.5,64.6z"/>
						<path class="st4" d="M157.4,65c-0.2,0.5,0,0.7,0.1,0.8C157.3,65.7,157.7,64.9,157.4,65z"/>
						<path class="st5" d="M150.7,119.8l0.2,0.1c-0.1-2.2,0.6-4.5,0.8-6.7l0.1,0.2c0.9-5.7,1.2-10.9,1.9-16.6c0,0.1,0.1,0.1,0.1,0.2
							c0-0.3-0.1-0.6-0.1-0.9c0.1-0.1,0.1,0.1,0.1,0.2c0.5-1.1,0.3-3.5,0.6-4.2c0-0.3-0.1-0.5-0.3-0.3c0.5-4.4,1.1-9.1,1.5-13.6
							c0.1-0.2,0.2-0.2,0.3-0.2c0-3.9,0.8-7.9,1.4-11.8c-0.1-0.2-0.2,0.4-0.3,0c-0.4,1.2,0,2.4-0.4,3.5l-0.1-0.2
							c-0.2,0.8,0.4,0.2,0,1.1c-0.2,0.3-0.2-0.1-0.2,0c-0.2,1.8-0.6,3.6-0.5,5.3c-0.4,0.4-0.3,1.9-0.7,2.5c0.1,0.5,0,0.9,0.2,1.1
							c-1.1,6.2-1.6,12.5-2.6,18.8c0.2,3.1-1,6.5-1.3,10c0,0,0,0-0.1,0c0,1.2-0.2,2.8-0.4,4.2l0.1,1.2c-1.7,8.2-2.5,16.6-3.7,25
							c-0.3,2.4-0.5,4.7-1,6.9c-0.5,2.2-1,4.3-2.1,6c-0.3,0.4-0.6,0.8-0.9,1.2c-0.3,0.4-0.8,0.9-1.1,1.3c-0.7,0.8-1.5,1.5-2.3,2.3
							c-1.6,1.5-3.3,3.1-4.9,4.9c0-0.1-0.1,0,0-0.2c-1.8,1.9-4.1,2.7-6.4,3.6v-0.1c-2.9,1.1-6.1,1.6-9.3,1.4
							c-3.2-0.1-6.5-0.3-9.5-0.1c-7.4-0.4-15.7-0.8-23.6-1.2v-0.1c-6.3-0.1-12.3-1.2-18.5-1.6c-1.6-0.2-3.2-0.4-4.5-1.1
							c-0.7-0.4-1.3-0.9-1.8-1.5s-0.9-1.3-1.2-2.1c-0.6-1.5-0.9-3.2-1.2-4.8c-0.3-1.6-0.6-3.2-0.7-4.9c-0.1-4-2.2-9-2.2-12.9
							c-0.3-7.8-2.2-15.1-4.1-22.6c-0.9-7.1-2.9-14-3.4-20.9c-1-3.2-0.6-6.9-1.3-10.5l-0.1,0.2c0.2-1.4-1.1-2.8-0.6-3.7l0.1,0.1
							c0.2-0.7-1.1-1.4-0.7-1.9l-0.2-0.1c-0.2-0.8,0.2-0.1,0.1-0.8c-0.1-0.2-0.3,0-0.3-0.6c0.7-0.2-0.5-2,0.3-2.2
							c0.1,0.5,0.2-0.8,0.5,0.2c0-0.3-0.2-1.7-0.6-1.5c-0.4-0.1-0.8-0.5-0.9,0.3l0.3,0.1c-0.2,0.3-0.1,0.2-0.3,0.4
							c0.2,1.1-0.2,1.3-0.2,2.1l0,0c0.4,0.5,0.3,1.3,0.4,1.7L45,76.2c-0.3,0.3,0.8,1.2,0.2,0.9c0.5,2.2,0.9,4.8,1.4,7.3
							c0.3,0.3,0.3,1.9,0.6,1.3c-0.3,0.7-0.1,2.6,0,3.3c0,0-0.1,0-0.1-0.2c-0.3,1.4,0.8,1.5,0.3,2.9c0.5,0.1,0.2,2.3,0.9,2.9
							c-0.1,0.2-0.2,0.2-0.3,0.2c0.4,2.3,0.6,4.8,0.9,6.7c0.7,1.6,0.5,4,1.3,5.3c0.1,1.2,0.1,3.1,0.7,4.7l-0.1-0.1
							c0.3,1.8,0.8,4.1,1.4,5.3c-0.5,0.6-0.2,1.4-0.3,2.2c0.5,1.2,0.8,3.7,1.4,5.5c-0.2,0.3,0.4,1.5,0,1.7
							c1.6,5.1,2.5,11.6,2.9,17.3v-0.1c0.3,0.7,0.9,1.5,1.3,2.2c0,0.1-0.1,0.1-0.1-0.1c0.2,1,0,2,0.3,3c-0.1,0-0.1,0-0.2-0.2
							c0.3,0.9,0,2,0.5,3.1l-0.1,0.1l0.3,0.7c-0.1,0-0.3,0-0.3-0.4c0.3,2.2,0.5,4.5,1.4,6.8c0.4,1.1,1.1,2.3,2.1,3.2
							c1,0.9,2.2,1.5,3.4,1.8c1.2,0.3,2.4,0.3,3.5,0.4l3.4,0.2c2.3,0.1,4.6,0.3,6.8,0.5l-0.3,0.1l1.8-0.1c0,0.1-0.1,0.1-0.2,0.1
							c2.2,0.4,4.6,0.2,6.8,0.4c0,0.1-0.4,0.2-0.1,0.3c1.6-0.2,2.6,0.6,3.4-0.1c0.1,0,0.1,0.2-0.1,0.3c4.5,0,9.2,0.3,13.7,0.7
							c3.8-0.5,8,0.4,12,0v0.1c1.3-0.1,2.6-0.1,3.9-0.1c1.3,0,2.6,0,4-0.1c2.6-0.2,5.3-0.7,7.8-1.8c2.1-0.9,3.3-1.8,4.9-3.4l0.2,0.1
							c1.1-1.5,2.7-2.7,4.3-3.9c0.8-0.6,1.6-1.2,2.3-1.9c0.4-0.3,0.7-0.8,1-1.2c0.3-0.4,0.6-0.8,0.8-1.2v0.4
							c0.1-0.3,0.5-0.8,0.7-1.2c0.3-0.4,0.4-0.8,0.1-0.8c0.2-0.2,0.3-0.3,0.5-0.5c0.2-1.4,0.6-2.4,1-3.6s0.8-2.5,0.7-4.2l0.1,0.2
							c0-0.9,0-1.9,0.2-2.5c0,0.1,0.1,0.1,0.1,0.3c0.8-2.6,0.6-5.6,0.9-8.5l0.2,0.4c-0.1-1.4,0.5-3.9,0.6-5.7l0.1,0.1l-0.1-0.9h0.2
							C150.4,124.3,150.4,122.1,150.7,119.8z"/>
					</g>
				</g>
			</g>
		</g>
	</g>
	<g>
		<line class="st8" x1="138.4" y1="71.7" x2="130.2" y2="164.8"/>
		<g>
			<g>
				<g>
					<g>
						<polygon class="st4" points="131.5,164.9 131.6,164.9 131.4,164.8 						"/>
						<path class="st4" d="M131.1,164.2L131.1,164.2l0.5,0.5C131.9,164.5,130.9,164.3,131.1,164.2z"/>
						<path class="st4" d="M131.2,164c0.2-0.2-0.1-0.3-0.2-0.3C131.2,163.8,130.9,164,131.2,164z"/>
						<path class="st5" d="M131.8,145l-0.2-0.1c0.3,0.8-0.1,1.6,0,2.3l-0.1-0.1c-0.3,2-0.1,3.8-0.1,5.8c0,0-0.1,0-0.1-0.1
							c0.1,0.1,0.2,0.2,0.2,0.3c-0.1,0-0.1,0-0.1-0.1c-0.4,0.4,0.1,1.2-0.2,1.5c0,0.1,0.2,0.2,0.3,0.1c0,1.5-0.1,3.2,0,4.8
							c-0.1,0.1-0.2,0.1-0.3,0c0.5,1.4,0.1,2.8-0.1,4.1c0.2,0.1,0.2-0.1,0.3,0c0.2-0.4-0.3-0.8,0-1.2l0.1,0.1
							c0.1-0.3-0.4-0.1-0.2-0.4c0.1-0.1,0.2,0,0.2,0c0-0.6,0.2-1.2-0.1-1.9c0.3-0.1,0.1-0.7,0.4-0.9c-0.1-0.2-0.1-0.3-0.3-0.4
							c0.4-2.1,0.2-4.4,0.5-6.5c-0.5-1.1,0.3-2.2,0.2-3.5c0,0,0,0,0.1,0c-0.1-0.4-0.1-1,0-1.5l-0.2-0.4c0.8-2.8,0.7-5.8,1.2-8.6
							c0.5-3.3,1.2-6.1,0.6-9.4c0.1,0,0.1,0,0.1,0.1c0-0.9,0.3-1.8,0.2-2.6h0.1c-0.3-2.2,0.5-4.5,0.1-6.6c0.3-2.5,0.5-5.4,0.6-8.1
							h0.1c-0.1-2.2,0.8-4.2,0.8-6.4c0.5-2.2-0.3-4.6,0.3-6.8c0.7-1.3-0.4-3.3,0.3-4.5c1.2-2.6,0.8-5.2,0.5-7.9
							c0.6-2.4-0.1-5,0.8-7.3c-0.3-1.2,0.8-2.3,0.7-3.6h-0.2c0.5-0.4-0.6-1.1,0.2-1.3V74c0.4-0.2-0.8-0.6-0.4-0.7l-0.2-0.1
							c0-0.3,0.2,0,0.3-0.2c0-0.1-0.3-0.1-0.2-0.2c0.7,0-0.1-0.7,0.7-0.7c0,0.2,0.3-0.2,0.5,0.1c0.1-0.1,0.1-0.6-0.3-0.6
							c-0.4-0.1-0.7-0.3-1,0l0.3,0.1c-0.3,0.1-0.1,0.1-0.3,0.1c-0.1,0.4-0.5,0.4-0.6,0.7l0,0c0.3,0.2,0.1,0.5,0,0.6h-0.2
							c-0.3,0.1,0.6,0.5,0,0.3c0.1,0.8,0,1.7-0.1,2.6c0.2,0.1-0.1,0.7,0.3,0.5c-0.5,0.2-0.6,0.8-0.6,1.1c0,0-0.1,0-0.1-0.1
							c-0.6,0.4,0.5,0.6-0.3,1c0.5,0.1-0.2,0.8,0.3,1.1c-0.1,0-0.2,0.1-0.3,0c-0.1,0.8-0.3,1.6-0.4,2.3c0.4,0.6-0.3,1.4,0.2,1.9
							c-0.2,0.4-0.5,1-0.3,1.6l-0.1-0.1c0,0.6-0.1,1.4,0.3,1.9c-0.6,0.1-0.5,0.4-0.7,0.7c0.2,0.5,0.1,1.3,0.3,2
							c-0.3,0.1,0.1,0.5-0.3,0.5c0.6,1.9,0.1,4.1-0.6,6l0,0c0.2,0.3,0.6,0.6,0.9,0.9h-0.1c0,0.4-0.4,0.7-0.3,1c-0.1,0-0.1,0-0.1-0.1
							c0.1,0.3-0.4,0.7-0.1,1.1h-0.1l0.1,0.3c-0.1,0-0.3,0-0.3-0.2c-0.4,3,0,6.3-0.4,9.4l-0.1-0.1l0.2,0.6c-0.1,0-0.1,0-0.1-0.1
							c-0.3,0.8,0,1.6-0.1,2.3c-0.1,0-0.2-0.1-0.3,0c0.3,0.6-0.5,0.9,0.2,1.2c0,0-0.2,0-0.3,0c0.1,1.6-0.1,3.2-0.3,4.7
							c0.5,1.4-0.2,2.8,0.2,4.2h-0.1c0.3,1.8-0.4,3.6-0.4,5.4c-0.1,0.8,0,1.3-0.1,2h-0.2c0.5,1.3-0.8,2.6-0.2,4l-0.2-0.1
							c0.3,0.2-0.2,0.8,0.4,0.8l-0.2,0.2c0.7,1-0.5,1.6-0.1,2.8l-0.1-0.1c0.1,0.3,0.1,0.7,0,0.9c0,0-0.1,0-0.1-0.1
							c-0.6,0.9-0.1,2-0.2,2.9l-0.2-0.1c0.3,0.5-0.1,1.3,0,2h-0.1l0.1,0.3h-0.2C131.7,143.4,131.8,144.2,131.8,145z"/>
					</g>
				</g>
			</g>
		</g>
	</g>
	<g>
		<g>
			<path class="st6" d="M94.4,109.7c1.1-0.6,2.2-1.3,3.3-1.9c-1.2-2.1-2.4-4.1-3.6-6.2c-1.9,3.3-3.8,6.6-5.7,9.9
				c-3.4-2-6.8-4-10.3-5.9c0.3-0.6,0.6-1.1,1-1.7c2.1-3.6,4.1-7.2,6.2-10.8c1.3-2.2,3.2-3.3,5.8-3.3c2,0,4,0,6.1,0
				c2.5,0.1,4.5,1.2,5.8,3.3c1.7,2.8,3.3,5.7,4.9,8.5c0,0.1,0.1,0.1,0.2,0.3c1.1-0.6,2.1-1.2,3.2-1.9c-1.5,3.9-3,7.6-4.6,11.4
				C102.6,110.9,98.5,110.3,94.4,109.7z"/>
			<g>
				<g>
					<g>
						<g>
							<polygon class="st4" points="94.2,111 94.3,111.1 94.4,110.9 							"/>
							<path class="st4" d="M95.2,110.7v-0.1l-0.6,0.5C94.7,111.4,95.1,110.4,95.2,110.7z"/>
							<path class="st4" d="M95.3,110.8c0.2,0.2,0.3-0.1,0.4-0.2C95.6,110.8,95.3,110.5,95.3,110.8z"/>
							<path class="st4" d="M110.4,101.6l-0.2-0.1c0.1,0.9-0.7,1.7-0.8,2.6l-0.1-0.1c-0.9,2.1-1.3,4.1-2,6.3l-0.1-0.1
								c0,0.1,0.1,0.3,0.1,0.4c-0.1,0-0.1-0.1-0.1-0.1c-0.3,0.2-0.4,0.7-0.5,1.2c-0.2,0-0.4,0-0.6-0.1c-0.1,0-0.2,0.2-0.1,0.3
								c-0.5,0-1-0.1-1.5-0.1s-0.9-0.1-1.4-0.1c-0.9-0.1-1.8-0.1-2.7-0.1c-0.1-0.1-0.1-0.2,0-0.3c-1.6,0.4-3.2-0.1-4.7-0.4
								c-0.1,0.1,0.1,0.2,0,0.3c0.5,0.3,1-0.2,1.4,0.1l-0.1,0.1c0.3,0.1,0.1-0.4,0.4-0.1c0.1,0.1-0.1,0.2,0,0.2c0.7,0,1.4,0.3,2.1,0
								c0.1,0.3,0.7,0.1,1,0.5c0.2-0.1,0.4,0,0.5-0.2c0.9,0.2,1.8,0.3,2.7,0.4c1.1,0.1,2.3,0.3,3.4,0.4l0.6-1.5l0.4-1
								c-0.2-1.3,1.1-2.4,1.4-3.8c0,0,0,0,0.1,0c0-0.5,0.2-1.1,0.5-1.6l-0.1-0.5c0.7-1.2,1.3-2.5,1.8-3.8l0.8-1.9l-1.8,1
								c-0.8,0.4-1.5,0.9-2.3,1.3l-0.3,0.2c-0.1,0-0.1-0.2-0.2-0.3l-0.5-1c-0.9-1.7-1.6-3.3-2.5-4.9c-0.4-0.8-0.9-1.5-1.4-2.3
								c-0.6-0.8-1.3-1.5-2.3-2c0,0,0-0.1,0.1-0.1c-1-0.6-1.9-1.2-3.1-1.3V89c-0.7,0-1.4,0-2,0.1c-0.6,0-1.3,0-1.9,0
								c-1.3,0-2.6,0-3.8,0.3c-1.5,0-3.1,0.6-4.3,1.7c-0.6,0.6-1.1,1.2-1.4,2c-0.4,0.7-0.7,1.4-1.1,2.1l-0.1-0.1
								c-1,2.3-2.8,4-3.9,6.3c-0.4,0.5-0.7,1.1-1,1.7c-0.1,0.3-0.3,0.6-0.4,0.9l-0.4,1l-0.2,0.5c0,0,0,0.1,0.1,0.1l0.1,0.1l0.3,0.1
								c0.3,0.2,0.6,0.3,0.9,0.4c0.6,0.3,1.1,0.6,1.6,1c1.1,1.3,3.5,1.2,4.5,2.5c0.4,0.4,0.8,0.8,1.3,1.2c0.2,0.2,0.5,0.4,0.8,0.6
								s0.6,0.4,1,0.6c0.3-0.5,0.6-1.1,0.9-1.7c0.2-0.4,0.4-0.9,0.6-1.3c0.4-0.9,0.7-1.8,1-2.8c0.6-0.8,1-1.6,1.5-2.4
								c0.4-0.8,1-2.1,1.6-3.1c0.6,1,1.2,2.2,1.4,3.1c0.5,0.4,0.7,1.1,0.9,1.8c0.1,0.3,0.2,0.7,0.3,1s0.2,0.5,0.4,0.8h0.2
								c-0.1,0.1-0.1,0.1,0,0.2c-0.1,0.1-0.1,0.3-0.2,0.4c-0.1,0.1-0.3,0.2-0.5,0.1l0,0c-0.4-0.2-0.1,1-0.4,0.7v0.2
								c-0.3,0.2-0.1-0.2-0.4-0.1c-0.1,0.1,0.1,0.3-0.1,0.3c-0.4-0.6-0.6,0.5-1.1-0.1c0.2-0.1-0.4-0.1-0.1-0.5
								c-0.1,0-0.6,0.3-0.4,0.6c0.1,0.3,0.1,0.7,0.5,0.8l-0.1-0.3c0.2,0.2,0.1,0.1,0.3,0.2c0.4-0.2,0.6,0.1,1,0.1l0,0
								c0-0.4,0.4-0.4,0.6-0.4l0.1,0.1c0.2,0.2,0.1-0.8,0.3-0.2c0.1-0.1,0.2-0.2,0.4-0.3c0.2-0.1,0.4-0.2,0.5-0.3
								c0.4-0.2,0.7-0.5,1.1-0.7c-0.4-0.6-0.8-1.3-1.2-2c-0.3-0.1-0.4-0.7-0.6-0.3c0.3-0.4,0-1.1-0.2-1.4h0.1
								c0.2-0.8-0.8-0.3-0.4-1.1c-0.2,0.1-0.3-0.1-0.4-0.4c-0.2-0.4-0.5-0.9-0.8-0.8c0-0.2,0.1-0.3,0.1-0.4c-0.5-0.9-1-2-1.5-2.9
								c-0.4,0.6-0.7,1.1-1,1.6c-0.4,1.6-1.8,2.7-1.4,3.3c-0.3,0.3-0.9,0.9-1.1,1.6v-0.1c-0.3,0.7-0.8,1.5-0.7,2.1
								c-0.6-0.1-0.7,0.2-1,0.4c0,0.3-0.2,0.6-0.3,1c-0.1,0.2-0.2,0.4-0.2,0.6c-0.1,0.2-0.2,0.4-0.1,0.5c-0.2-0.2,0,0.3-0.3-0.1
								c0,0.1,0,0.2,0,0.3c0,0.1-0.1,0.1-0.2,0.1h-0.1c-0.1,0-0.1,0-0.2-0.1c-0.5-0.2-1-0.5-1.4-0.8c-0.9-0.6-1.8-1.3-2.5-2.1l0,0
								c-0.4,0-0.9,0.3-1.3,0.4c0,0,0-0.1,0.1-0.1c-0.4-0.1-0.5-0.7-0.9-0.8c0-0.1,0-0.1,0.1-0.1c-0.4,0-0.5-0.7-1.1-0.6V106h-0.3
								c0.1-0.1,0.2-0.3,0.3-0.2l-0.6-0.3c-0.1,0-0.1-0.1-0.1-0.1l-0.1-0.1v-0.1v-0.1l0,0l0.1-0.1l0.1-0.3l0.6-1.2
								c0.8-1.6,1.6-3.3,2.5-4.8v0.2l0.2-0.7c0.1,0,0.1,0.1,0.1,0.1c0.6-0.7,0.8-1.6,1.3-2.4c0.1,0,0.1,0.2,0.2,0.1
								c0-0.7,0.9-0.7,0.4-1.3l0.2,0.1c0.2-0.4,0.4-0.8,0.6-1.2c0.2-0.4,0.4-0.7,0.7-1c0.5-0.6,1.2-1.1,2-1.3c0.5-0.6,1.3-0.8,2-0.8
								c0.8,0,1.6,0,2.4-0.3v0.1c1-0.2,2-0.2,3.1-0.2s2.1,0.2,3.1,0.4c0.8,0.3,1.3,0.5,2,1l-0.1,0.1c0.8,0.2,1.2,0.9,1.5,1.6
								s0.6,1.5,1.2,2h-0.2c0.4,0,0.4,0.9,0.8,0.5V96c1.2,0.5,0.6,1.8,1.7,2.7h-0.2c0.3,0.2,0.5,0.5,0.6,0.8h-0.1
								c0,0.6,0.3,1.1,0.7,1.5c0.2,0.3,0.4,0.5,0.6,0.7l0.3,0.3c0,0.1,0.1,0,0.2,0l0.2-0.1c-0.1,0.1-0.1,0.3-0.2,0.4
								c0.6-0.7,1.6-0.9,2.1-1.4v0.1l0.2-0.3l0.1,0.2c0.3-0.2,0.5-0.3,0.8-0.5l-0.5-0.4C110.7,100.5,110.6,101.1,110.4,101.6z"/>
						</g>
					</g>
				</g>
			</g>
		</g>
		<g>
			<path class="st6" d="M92.6,131.2c2.6-3.2,5.1-6.3,7.7-9.5c0,0.8,0,1.5,0,2.2c0,0.4,0,0.8,0,1.2c0,0.2,0,0.3,0.2,0.3
				c2.3,0,4.5,0,6.8,0.1c0,0,0.1,0,0.2,0c-1.9-3.3-3.7-6.6-5.6-9.9c3.5-1.9,6.9-3.9,10.4-5.8c0.3,0.5,0.5,1,0.8,1.4
				c2.1,3.7,4.2,7.4,6.2,11.1c1.2,2.2,1.2,4.5-0.1,6.8c-1,1.7-2,3.4-3,5.1c-1.2,1.9-2.9,3-5.1,3.2c-1.3,0.1-2.6,0-3.9,0
				c-2.2,0-4.3,0-6.5-0.1c-0.2,0-0.3,0-0.5,0c0,1.2,0,2.4,0,3.6h-0.1C97.6,137.7,95.1,134.4,92.6,131.2z"/>
			<g>
				<g>
					<g>
						<g>
							<polygon class="st4" points="91.6,132 91.5,132.1 91.8,132.1 							"/>
							<path class="st4" d="M92.5,132.4l0.1-0.1h-0.8C91.6,132.6,92.6,132.2,92.5,132.4z"/>
							<path class="st4" d="M92.5,132.6c0,0.2,0.3,0.1,0.4,0.1C92.7,132.8,92.7,132.3,92.5,132.6z"/>
							<path class="st4" d="M107,137.2V137c-0.8,0.4-1.8,0-2.7,0.1l0.1-0.1c-1.2-0.1-2.2,0-3.3,0.1l-0.8,0.1c-0.2,0-0.1,0.2-0.1,0.3
								v0.4c0.1,0.6,0.1,1.1,0.2,1.6c0,0-0.1,0-0.1-0.1c0.1,0.1,0.2,0.2,0.2,0.3c0,0-0.1,0-0.1-0.1c-0.2,0.3-0.1,0.7,0,1.1v0.1
								l-0.1,0.1h-0.1h-0.1l-0.1-0.1c-0.2-0.1-0.3-0.3-0.2-0.4c-0.1-0.1-0.3,0-0.3,0.1c-1.1-1.3-2.3-2.8-3.7-4
								c0-0.1,0.1-0.2,0.2-0.2c-1.4-0.8-2.2-2.3-3.1-3.6c-0.2,0,0,0.2-0.3,0.2c0.2,0.5,0.9,0.5,0.9,1h-0.2c0.1,0.3,0.3-0.2,0.4,0.2
								c0,0.2-0.2,0.1-0.1,0.1c0.5,0.5,0.8,1.2,1.5,1.5c-0.2,0.3,0.5,0.6,0.4,1c0.2,0.1,0.3,0.2,0.5,0.2c1,1.5,2.2,2.9,3.4,4.3
								l0.4,0.5l0.5-0.2h0.1l0.6-0.2v-0.6c0-0.6,0-1.3,0-1.9c-0.1-0.2-0.1-0.3-0.2-0.4c0-0.1-0.1-0.2-0.1-0.3c0-0.1,0-0.2,0-0.3
								v-0.1c0,0,0.1,0,0.2,0c0.2,0,0.4,0.1,0.6,0.1c0,0,0.3,0,0.4,0c0.2,0,0.4,0,0.5,0c0,0,0,0,0,0.1c0.5-0.2,1.1-0.2,1.7-0.1
								l0.5-0.3c1.7,0.3,3.3,0.4,5,0.4c0.8,0,1.7,0,2.6-0.2c0.9-0.2,1.8-0.6,2.6-1.1c0.9-0.6,1.6-1.4,2.2-2.2c0.5-0.8,1-1.5,1.5-2.2
								c0.5-0.8,0.9-1.5,1.3-2.3c0.4-0.8,0.8-1.8,0.8-2.8c0.1,0,0.1,0,0.1,0.1c0.2-1.1,0.4-2.3,0-3.3h0.1c-0.3-0.6-0.6-1.3-0.9-1.8
								c-0.3-0.6-0.6-1.1-1-1.7c-0.6-1.1-1.2-2.2-2.1-3.2c-0.7-1.3-1.4-2.6-2.2-4c-0.4-0.7-0.8-1.4-1.2-2l-0.6-1.1l-0.3-0.5
								c0-0.1-0.2,0-0.2,0l-0.3,0.2v-0.2c-0.6,0.4-1.1,0.7-1.7,1c-0.5,0.3-1.1,0.5-1.7,0.8c-1.1,0.5-2.2,1-3.3,1.7
								c-0.6,0.3-1.2,0.6-1.8,1l-0.9,0.6l-0.9,0.6c0.4,0.6,0.8,1.1,1.1,1.7c0.3,0.5,0.6,1.1,0.8,1.6c0.2,1.7,2.4,2.9,2.6,4.5
								c0.1,0.7,0.2,1.1,0.3,1.5l0.1,0.3v0.1h-0.1c-0.1,0-0.1,0-0.2,0c-0.2,0-0.4,0-0.6,0c-0.3,0-0.5,0-0.9,0.1
								c-0.4,0-0.9,0.1-1.3,0.2c-0.9,0.1-1.8,0.3-2.6,0.4h-0.3c-0.1,0-0.2,0-0.3-0.1c-0.1,0-0.2-0.1-0.2-0.2s0-0.1,0-0.2V125
								c0-0.3,0-0.6,0-0.9c0-0.6-0.1-1.1-0.1-1.5c0,0,0-0.1,0,0l-0.1,0.1l-0.1,0.2l-0.2,0.3c-0.2,0.2-0.3,0.4-0.5,0.6
								c-0.3,0.4-0.6,0.6-1.2,1c-0.5,1.3-2.1,1.8-2.9,3l0.2,0.1c-0.7,0.1-0.2,1.3-1,1.1v-0.1c-0.4,0,0.3,1-0.2,0.9l0.1,0.1
								c-0.2,0.3-0.2-0.1-0.4,0.1c0,0.1,0.2,0.2,0,0.3c-0.6-0.4-0.4,0.7-1,0.2c0.1-0.1-0.4,0-0.3-0.4c-0.1,0-0.5,0.5-0.2,0.7
								c0.3,0.3,0.4,0.6,0.8,0.6l-0.2-0.2c0.3,0.1,0.2,0,0.3,0.1c0.3-0.3,0.6-0.1,1-0.3l0,0c-0.1-0.4,0.2-0.5,0.4-0.6h0.2
								c0.3,0.1-0.2-0.8,0.2-0.3c0.5-0.8,1.1-1.6,1.7-2.4c-0.1-0.2,0.5-0.6,0.1-0.7c0.5,0.1,1.1-0.4,1.2-0.6c0,0,0.1,0.1,0,0.1
								c0.8-0.1,0-0.8,0.8-0.8c-0.1-0.1-0.1-0.2,0-0.3c0.1-0.1,0.1-0.1,0.1-0.1c0.1,0,0.1,0,0-0.4c0.1,0.1,0.1,0.2,0.1,0.3
								c0-0.1,0.1,0,0.1,0c0,0.1,0,0.2,0,0.2c0.2-0.6,0.2-0.4,0.1-0.3c0,0.1,0,0.1,0.3-0.3c-0.1,0.2-0.2,0.4-0.2,0.4v0.1l0,0l0,0
								c0,0,0,0,0,0.1s0.1,0.2,0.2,0.4c-0.1-0.1-0.2-0.3-0.3-0.4c0,0.2,0.4,0.7,0.7,0.9c0.3,0.1,0.5,0.1,0.6,0.1h0.3
								c0.2,0,0.4,0,0.6-0.1c0.4-0.1,0.7-0.2,1-0.3c0.2,0.6,0.5,0.5,0.8,0.7c0.2-0.1,0.6-0.2,1-0.2c0.2,0,0.4,0,0.6-0.1h0.2h0.2
								c0.2,0,0.3,0,0.5-0.1c0.3,0.3,1-0.1,1.3,0.3h0.1l0.3-0.1l0.2-0.1c0.1-0.1,0.2-0.2,0.3-0.2l0.2-0.1c0.1,0,0.1-0.1,0.1-0.1
								c0.1-0.1-0.1-0.3-0.1-0.5c-0.1-0.3-0.2-0.6-0.2-0.9c-0.2-0.4-0.5-0.8-0.7-1.2c-0.3-0.5-0.4-0.7-0.5-1s-0.2-0.5-0.3-0.8
								c-0.2-0.6-0.4-1.1-0.5-1.7l0,0c-0.3-0.1-0.9-0.2-1.3-0.3c0,0,0.1-0.1,0.1,0c-0.3-0.3-0.1-0.8-0.4-1.2c0.1,0,0.1,0,0.1,0
								c-0.3-0.3-0.1-0.8-0.6-1.1l0.1-0.1l-0.3-0.2c0.1-0.1,0.3-0.1,0.3,0l-0.3-0.5l0.1-0.3c0-0.1-0.1-0.1-0.2-0.2
								c-0.2,0,1.4-1,2.5-1.7c1.2-0.8,2.3-1.5,3.6-2.2l-0.1,0.2l0.5-0.5c0,0.1,0,0.1,0,0.1c0.4-0.1,0.8-0.4,1.2-0.6l0.3-0.2l0.1-0.1
								c0.1-0.1,0.2-0.2,0.3-0.2c0,0.1-0.1,0.3,0,0.3c0.1-0.1,0.1-0.2,0.2-0.2c0,0.1,0,0.2,0,0.3c0,0.2,0,0.2,0.3,0
								c0,0-0.1,0.2-0.2,0.2c0.1,0.1,0.1,0.1,0.2,0.2l0.4,0.5c0.2,0.4,0.5,0.8,0.7,1.2c0.5,0.8,0.9,1.6,1.3,2.4
								c1.3,1,1.6,2.7,2.8,3.8l-0.1,0.1c0.7,0.8,1.2,1.7,1.7,2.6s0.7,1.9,0.9,2.9c0,0.8,0.1,1.4-0.1,2.2h-0.2c0.1,0.8-0.4,1.4-0.9,2
								s-1,1.2-1.1,2l-0.1-0.2c0.2,0.4-0.6,0.7,0,1l-0.3,0.1c0.1,0.6-0.3,1-0.6,1.4c-0.4,0.4-0.7,0.7-1,1.4l-0.1-0.2
								c-0.1,0.3-0.3,0.7-0.6,0.8v-0.1c-0.6,0.2-1,0.5-1.4,0.8s-0.9,0.7-1.5,0.8l0.1-0.3c-0.4,0.4-1.5,0.3-2.1,0.4v-0.1l-0.4,0.2
								v-0.2C108.8,137,107.9,137.1,107,137.2z"/>
							<path class="st4" d="M94.3,131c0,0-0.1,0-0.1,0.1C94.2,131.1,94.2,131,94.3,131z"/>
						</g>
					</g>
				</g>
			</g>
		</g>
		<g>
			<path class="st6" d="M85.6,120.9c-1.1-0.6-2.2-1.2-3.3-1.9c-1.2,2.1-2.4,4.1-3.6,6.2c3.8,0,7.6,0,11.4,0c0,4,0,7.9,0,11.9
				c-0.1,0-0.2,0-0.3,0c-4.6,0-9.3,0-13.9,0c-2.6,0-4.7-1.2-6-3.4c-1-1.7-2-3.4-3-5.1c-0.7-1.2-0.9-2.4-0.9-3.7
				c0.1-1.2,0.5-2.3,1.1-3.4c1.6-2.7,3.1-5.4,4.7-8.1c0-0.1,0.1-0.1,0.1-0.2c-1-0.6-2.1-1.2-3.2-1.9c0.6-0.1,1.1-0.2,1.6-0.2
				c1.7-0.2,3.3-0.5,5-0.7c1.6-0.2,3.3-0.5,4.9-0.7c0.7-0.1,0.7-0.1,0.9,0.5c1.4,3.5,2.8,7,4.2,10.5
				C85.5,120.7,85.6,120.7,85.6,120.9z"/>
			<g>
				<g>
					<g>
						<g>
							<polygon class="st4" points="86.9,120.4 86.9,120.3 86.7,120.3 							"/>
							<path class="st4" d="M86.1,119.7l-0.1,0.1l0.7,0.3C87,119.7,86,120,86.1,119.7z"/>
							<path class="st4" d="M86.1,119.6c0.1-0.2-0.2-0.2-0.3-0.2C86,119.3,85.8,119.7,86.1,119.6z"/>
							<path class="st4" d="M70.6,111.1v0.2c0.8-0.5,1.8-0.3,2.6-0.6v0.1c2.3-0.2,4.2-0.9,6.5-1.4l-0.1,0.1c0.1-0.1,0.3-0.3,0.4-0.3
								c0,0,0,0.1-0.1,0.1c0.2,0.2,0.5,0,0.9-0.1s0.6,0.2,0.6,0.5c0.1,0.1,0.2,0.1,0.3-0.1c0.7,1.6,1.5,3.3,2.4,4.9
								c0,0.1-0.1,0.2-0.2,0.2c1.1,1.1,1.5,2.8,2,4.3c0.2,0,0.1-0.2,0.3-0.1c0-0.6-0.7-0.7-0.6-1.3h0.2c0-0.4-0.4,0.1-0.3-0.3
								c0.1-0.2,0.2-0.1,0.2-0.1c-0.3-0.6-0.5-1.4-1.1-1.9c0.2-0.3-0.3-0.7-0.1-1.1c-0.2-0.1-0.2-0.3-0.4-0.3
								c-0.4-1.2-0.9-2.4-1.4-3.5l-0.4-0.9c0-0.1-0.2-0.4-0.3-0.6s-0.3-0.3-0.6-0.4c-0.2-0.1-0.5-0.1-0.7,0l-0.5,0.1l-1,0.1
								c-0.6,0.4-1.3,0.5-2,0.5s-1.5,0-2.1,0.2c0,0,0,0,0-0.1c-0.4,0.2-1.1,0.4-1.6,0.4l-0.4,0.3c-1.4,0-2.7,0.1-4.1,0.3l-2,0.3
								l1.7,1c0.8,0.4,1.5,0.9,2.3,1.3l0.3,0.2c0,0.1-0.1,0.2-0.2,0.3l-0.6,0.9c-1,1.6-2,3.1-2.9,4.6c-0.5,0.8-0.9,1.5-1.3,2.4
								s-0.6,1.9-0.5,2.9c-0.1,0-0.1,0-0.1-0.1c0,1.2-0.1,2.3,0.4,3.3H66c0.3,0.6,0.8,1.2,1.1,1.7c0.3,0.5,0.7,1.1,1,1.7
								c0.6,1.1,1.2,2.2,2.1,3.1c0.8,1.3,2.1,2.4,3.7,2.8c0.8,0.2,1.6,0.3,2.4,0.3c0.8,0,1.6-0.1,2.3-0.1v0.1
								c2.5-0.3,4.9,0.4,7.3,0.2c0.7,0.1,1.4,0.1,2.2,0c0.7-0.1,1.6-0.2,2.3-0.3c-0.1-0.7-0.1-1.2-0.1-1.8c0-0.6,0-1.1,0.1-1.7
								c0.6-1.6-0.7-3.7-0.1-5.2c0.2-0.6,0.3-1.1,0.4-1.7c0-0.2,0.1-0.7,0.1-1c0-0.4,0-0.7,0-1.1c-0.6,0-1.3,0-1.9,0.1
								c-0.5,0-1,0.1-1.4,0.2c-1,0.1-1.9,0.3-2.9,0.5c-0.9-0.1-1.9-0.1-2.8,0c-0.9,0.1-2.3,0.1-3.5,0.2c0.5-1,1.3-2.1,1.9-2.8
								c0.1-0.7,0.6-1.2,1.1-1.7c0.3-0.3,0.5-0.5,0.8-0.8c0.2-0.2,0.4-0.4,0.5-0.7l-0.1-0.1c0.1,0,0.2,0,0.2-0.1
								c0.1,0,0.3-0.1,0.4-0.1c0.2,0,0.3,0.1,0.4,0.4l0,0c0,0.4,0.9-0.4,0.8,0l0.1-0.1c0.3,0.1-0.1,0.2,0.1,0.4
								c0.1,0,0.2-0.3,0.3-0.1c-0.3,0.6,0.8,0.3,0.4,1c-0.2-0.1,0.1,0.4-0.3,0.4c0.1,0.1,0.6,0.4,0.7,0c0.2-0.3,0.6-0.5,0.4-0.9
								l-0.2,0.2c0-0.3,0-0.2,0.1-0.4c-0.4-0.2-0.2-0.6-0.4-0.9l0,0c-0.3,0.2-0.5-0.1-0.6-0.3v-0.2c0.1-0.3-0.7,0.3-0.4-0.1
								c-0.1,0-0.3-0.1-0.5-0.2s-0.4-0.2-0.6-0.3c-0.4-0.2-0.8-0.4-1.2-0.6c-0.3,0.6-0.7,1.3-1.1,2c0.1,0.3-0.4,0.7,0,0.7
								c-0.5,0-1,0.6-1.1,0.8c0,0-0.1-0.1,0-0.1c-0.8,0.2,0.1,0.8-0.7,0.9c0.2,0.2,0.1,0.3-0.1,0.6c-0.3,0.4-0.5,0.9-0.3,1.1
								c-0.2,0.1-0.3,0.1-0.4,0.1c-0.5,0.9-1.2,1.9-1.8,2.8c0.7,0,1.3,0.1,1.9,0.1c1.5-0.4,3.2,0.2,3.6-0.4c0.5,0.1,1.2,0.4,1.9,0.1
								l-0.1,0.1c0.7,0,1.7-0.1,2.2-0.4c0.2,0.6,0.5,0.5,0.9,0.6c0.2-0.1,0.6-0.2,1-0.2c0.2,0,0.4,0,0.6-0.1c0.2,0,0.4-0.1,0.4-0.1
								c0,0.3,0.2-0.1,0,0.3c0.1-0.1,0.1-0.1,0.2-0.2c0.1,0,0.1,0,0.2,0.1c0,0,0,0.1,0.1,0.1c0,0.1,0,0.1,0,0.2c0,0.5,0,1.1,0,1.6
								c-0.1,1.1-0.3,2.2-0.5,3.2l0,0c0.2,0.3,0.7,0.6,1,0.9H90c0.1,0.4-0.3,0.8-0.2,1.2c-0.1,0-0.1,0-0.1-0.1
								c0.2,0.4-0.3,0.8,0,1.2h-0.1l0.1,0.3c-0.1,0-0.3,0-0.3-0.2c0,0.9,0,0.8,0,1c-0.2,0-0.1,0.1-1,0.1c-0.7,0.1-1.4,0.1-2.2,0.2
								c-1.4,0.1-2.9,0.2-4.3,0.2L82,136l-0.7,0.2c0-0.1,0-0.1,0.1-0.1c-0.9-0.2-1.8,0.1-2.7,0.1c0-0.1,0.1-0.2,0-0.3
								c-0.6,0.3-1-0.5-1.4,0.3c0,0-0.1-0.2,0-0.3c-0.9,0.1-1.8,0.2-2.6,0s-1.6-0.5-2.2-1c-0.7-0.1-1.3-0.7-1.7-1.3
								c-0.4-0.6-0.8-1.4-1.4-1.9l0.1-0.1c-0.7-0.8-1.2-1.7-1.7-2.6s-0.9-1.9-1.2-2.8c-0.1-0.8-0.3-1.4-0.2-2.2h0.2
								c-0.2-0.8,0.2-1.5,0.7-2.1s1-1.2,1.1-2.1l0.1,0.2c-0.2-0.4,0.6-0.7,0-1l0.3-0.1c-0.1-1.3,1.3-1.5,1.5-2.8l0.1,0.1
								c0.1-0.3,0.2-0.7,0.4-0.9c0,0,0,0,0,0.1c0.5-0.3,0.8-0.8,1-1.3c0.1-0.3,0.2-0.6,0.3-0.9c0.1-0.3,0.4-0.6,0-0.7
								c0.1,0,0.3,0,0.4,0c-0.9-0.2-1.6-0.9-2.3-1.1l0.1-0.1h-0.4l0.1-0.2c-0.3-0.2-0.6-0.3-0.9-0.4l-0.1,0.6
								C69.5,111.4,70,111.2,70.6,111.1z"/>
							<path class="st4" d="M85.1,119.3C85.2,119.3,85.2,119.4,85.1,119.3C85.2,119.3,85.2,119.3,85.1,119.3z"/>
						</g>
					</g>
				</g>
			</g>
		</g>
	</g>
	<g>
		<path class="st3" d="M46.6,54.5c0,0-7.3,2.3-10.1,4.3c-2.8,2-3.1,4.6-2.9,7.3c0.2,2.8,0.4,5.3,3.3,5.5s100.7,0,103.5,0
			s5.5-0.7,8.7-3.1c3.1-2.4,13.4-7.9,15.5-9.7c2-1.9,3.5-4.6,3.1-7.9s0.2-6.3-3.9-7.2s-5.7,0-5.7,0"/>
		<g>
			<g>
				<g>
					<g>
						<path class="st4" d="M158.7,44.9L158.7,44.9L158.7,44.9L158.7,44.9l-0.2-0.3l0,0l0,0l0,0v0.1L158.7,44.9L158.7,44.9
							L158.7,44.9C158.7,44.8,158.6,44.9,158.7,44.9z"/>
						<path class="st4" d="M159.5,44.2C159.5,44.2,159.5,44.1,159.5,44.2c-0.3,0.1-0.5,0.4-0.7,0.6C159.2,45,159.3,44,159.5,44.2z"
							/>
						<path class="st4" d="M159.8,44.2c0.3,0.1,0.4-0.2,0.5-0.3C160.2,44.2,159.7,43.9,159.8,44.2z"/>
						<path class="st5" d="M151.9,66.8V67c1-1.1,2.6-1.6,3.8-2.5v0.1c1.7-0.9,3.2-1.9,4.7-3c0.8-0.5,1.5-1.1,2.3-1.6
							c0.7-0.6,1.5-1.1,2.1-1.8c0,0.1,0,0.1,0,0.2c0.1-0.2,0.1-0.4,0.3-0.6c0.1,0,0,0.1,0,0.2c0.4-0.2,0.7-0.7,1-1.2s0.4-1,0.7-1.1
							c0.1-0.2,0-0.4-0.2-0.3c0.6-1.3,0.8-2.8,0.6-4.2c-0.2-1.5-0.3-3.2-0.8-4.4c0-0.1,0.1-0.2,0.2-0.2c-0.6-1-1.4-1.5-2.5-1.9
							c-1.1-0.3-2.4-0.6-3.6-0.7c-0.1,0.2,0.2,0.2,0,0.3c0.7,0.2,1.5-0.3,2.1,0.1l-0.1,0.1c0.5,0.2,0.2-0.4,0.7-0.1
							c0.2,0.2-0.1,0.2,0,0.2c0.6,0.1,1,0.2,1.4,0.4s0.7,0.4,1.1,0.6c-0.1,0.2,0,0.4,0.2,0.6c0.1,0.2,0.2,0.5,0.1,0.7
							c0.2,0.2,0.2,0.5,0.4,0.6c0.1,0.9,0.1,2,0.2,3.1c0.1,1,0.1,1.9-0.1,2.8c-0.4,1.9-1.5,3.7-3,4.9c-1.2,1.7-3.7,2.3-5.6,3.6
							c0,0,0,0,0-0.1c-0.6,0.5-1.5,1.2-2.4,1.6L155,64c-1.3,0.6-2.5,1.2-3.7,1.9c-0.6,0.4-1.2,0.7-1.8,1.1c-0.3,0.2-0.6,0.4-0.9,0.6
							c-0.3,0.2-0.5,0.4-0.8,0.6c-2.2,1.6-4.8,2.5-7.6,2.3c-6.4-0.1-12.1-0.6-18.3,0.2c0-0.1,0-0.1,0.1-0.1c-1.8,0.1-3.5-0.1-5.2,0
							v-0.1c-4.2,0.5-8.8-0.1-12.9,0.5c-5-0.1-10.6,0-15.8,0.2v-0.1c-4.2,0.3-8.2-0.4-12.4-0.2c-4.3-0.3-8.9,0.7-13.2,0.3
							c-2.7-0.6-6.2,0.7-8.7,0.1c-5.2-1-10.2-0.4-15.4,0.2l-1.8-0.1c-0.6-0.1-1.2-0.3-1.8-0.6c-1-0.8-1.3-2.2-1.5-3.3
							c-0.2-1.2-0.3-2.4-0.2-3.6c0.1-1.2,0.5-2.4,1.2-3.4c0.4-1.1,1.4-1.9,2.5-2.4s2.3-0.8,3.4-1.3l-0.1-0.1c1,0.1,1.6-1.4,2.3-0.9
							l-0.1,0.1c0.6,0.2,0.7-1.2,1.1-0.9v-0.2c0.5-0.2,0.1,0.2,0.6,0.1c0.1-0.1,0-0.3,0.3-0.3c0.3,0.7,1.3-0.6,1.5,0.2
							c-0.3,0.1,0.6,0.1,0,0.5c0.2,0,1.1-0.3,0.9-0.6c0-0.4,0.2-0.8-0.4-0.9v0.3C46,53.9,46.1,54,46,53.9c-0.7,0.2-0.9-0.1-1.5-0.1
							l0,0c-0.2,0.4-0.8,0.4-1.1,0.5l-0.2-0.1c-0.3-0.2-0.6,0.9-0.6,0.3c-1.4,0.7-3,1.3-4.6,2.1c-0.1,0.3-1.2,0.6-0.7,0.8
							c-0.6-0.2-1.9,0.5-2.2,0.9v-0.1c-0.6,0.1-0.7,0.5-0.8,0.8c-0.1,0.3-0.2,0.6-0.8,0.8c0.2,0.2-0.1,0.6-0.4,1s-0.4,1-0.2,1.3
							c-0.1,0.1-0.2,0.1-0.3,0c-0.5,1.7-0.5,3.6-0.4,4.9c0.3,0.6,0.3,1.3,0.4,2s0.5,1.6,1.1,1.9c0.3,0.5,0.8,1.1,1.5,1.4
							s1.5,0.4,2.1,0.3l-0.1,0.1c1.3,0,2.8,0,3.7-0.4c0.4,0.6,0.9,0.5,1.4,0.7c0.8-0.3,2.5-0.2,3.8-0.4c0.2,0.3,1-0.1,1.1,0.3
							c3.6-0.7,8-0.5,11.8,0.1h-0.1c0.5-0.2,1.1-0.7,1.6-1c0,0,0,0.1-0.1,0.1c0.7-0.1,1.3,0.3,2,0.2c0,0.1,0,0.1-0.1,0.1
							c0.7-0.2,1.3,0.3,2.1,0v0.1l0.5-0.1c0,0.1,0,0.3-0.3,0.3c6,0.1,12.1-0.5,18.2-0.4l-0.2,0.1l1.2-0.2c0,0.1-0.1,0.1-0.1,0.1
							c1.5,0.2,3.1-0.1,4.5-0.1c0,0.1-0.2,0.2,0,0.3c1.1-0.3,1.8,0.5,2.3-0.3c0.1,0,0.1,0.2,0,0.3c3-0.2,6.1-0.2,9.2-0.1
							c2.5-0.7,5.4-0.1,8-0.6v0.1c3.4-0.5,7,0,10.6-0.1c1.5,0.1,2.5-0.1,3.9-0.1v0.2c2.5-0.6,5.2,0.5,7.8-0.1l-0.2,0.2
							c0.4-0.3,1.6,0.1,1.4-0.5l0.5,0.2c1.8-0.8,3.2,0.4,5.4-0.2l-0.1,0.1c0.6-0.1,1.2-0.2,1.7-0.1c-0.1,0,0,0.1-0.2,0.1
							c0.9,0.3,1.8,0.3,2.8,0.1c1-0.2,1.9-0.5,2.8-0.8l-0.1,0.3c0.8-0.5,2.5-1,3.4-1.8v0.1c0.1-0.2,0.3-0.3,0.4-0.5l0.1,0.2
							c0.7-0.4,1.2-1,1.8-1.4C150.6,67.7,151.2,67.2,151.9,66.8z"/>
					</g>
				</g>
			</g>
		</g>
	</g>
	<g>
		<path class="st7" d="M33.8,62.6c0,0,101.2,0,104.6,0s6.2-0.3,11-3.8c4.8-3.5,17.4-13.1,17.4-13.1"/>
		<g>
			<g>
				<g>
					<g>
						<polygon class="st4" points="166,44.7 165.9,44.7 165.9,44.9 						"/>
						<path class="st4" d="M165.4,45.7L165.4,45.7l0.3-0.8C165.3,44.8,165.7,45.8,165.4,45.7z"/>
						<path class="st4" d="M165.2,45.8c-0.3,0-0.2,0.3-0.2,0.4C165,46,165.4,46,165.2,45.8z"/>
						<path class="st5" d="M142.6,62.4v0.2c1-0.6,2.3-0.7,3.3-1.4v0.1c2.7-1.3,4.6-3.3,6.8-5.2c0,0,0,0.1,0,0.2
							c0.1-0.1,0.1-0.4,0.2-0.4c0.1,0,0,0.1,0,0.2c0.7-0.1,1.3-1.3,1.8-1.3c0.1-0.1,0.1-0.3-0.1-0.3c1.8-1.4,3.7-2.9,5.3-4.6
							c0.1,0,0.2,0,0.2,0.2c1.2-1.7,3-2.7,4.7-3.8c0-0.2-0.3,0-0.2-0.3c-0.6,0.2-0.7,1-1.4,1.1v-0.2c-0.4,0.2,0.2,0.4-0.3,0.5
							c-0.2,0-0.1-0.2-0.2-0.1c-0.7,0.6-1.5,1.1-2,1.9c-0.4-0.1-0.8,0.6-1.2,0.5c-0.1,0.2-0.3,0.4-0.3,0.6c-2.7,1.8-5.1,4-7.7,5.9
							c-0.8,1.4-2.7,2-4.1,3.1c0,0,0,0,0-0.1c-0.4,0.4-1.1,0.9-1.7,1.2l-0.4,0.5c-2,0.7-4,1-6.1,1s-4.3,0-6.5-0.1
							c-4.9-0.2-9.2-0.6-14,0.2c0-0.1,0-0.1,0.1-0.1c-1.4,0.1-2.6-0.1-3.9,0v-0.1c-3.2,0.5-6.7-0.1-9.8,0.5c-3.8-0.1-8,0-12,0.2
							v-0.1c-3.2,0.3-6.3-0.4-9.5-0.2c-3.3-0.3-6.7,0.7-10.1,0.3c-2-0.6-4.7,0.7-6.7,0.1c-3.9-1-7.8-0.3-11.7,0.2
							c-3.6-0.3-7.3,0.5-10.8-0.2c-1.7,0.4-3.5-0.6-5.4-0.4l0.1,0.2c-0.7-0.5-1.5,0.7-1.9,0h0.1c-0.4-0.4-0.8,0.8-1,0.4L36.1,63
							c-0.4,0.1-0.1-0.2-0.4-0.3c-0.1,0,0,0.3-0.3,0.2c-0.1-0.7-1,0.2-1.1-0.7c0.2,0-0.4-0.3,0.2-0.5c-0.1-0.1-0.9,0-0.8,0.3
							c-0.1,0.4-0.3,0.7,0.1,1l0.1-0.3C34,63,34,62.8,34.1,63c0.6,0,0.6,0.4,1.1,0.6l0,0c0.3-0.3,0.7-0.1,0.9-0.1l0.1,0.1
							c0.1,0.3,0.6-0.6,0.5-0.1c1.2-0.1,2.5-0.1,3.8-0.1c0.2-0.2,1,0,0.7-0.4c0.3,0.4,1.3,0.6,1.6,0.5c0,0,0,0.1-0.1,0.1
							c0.7,0.6,0.8-0.5,1.5,0.2c0.1-0.5,1.2,0.2,1.5-0.4c0.1,0.1,0.1,0.2,0.1,0.3c1.2,0,2.5,0.2,3.5,0.2c0.8-0.4,2,0.2,2.8-0.4
							c0.6,0.1,1.6,0.4,2.4,0.1l-0.1,0.1c0.9,0,2.1-0.1,2.8-0.4c0.3,0.6,0.7,0.5,1.1,0.6c0.6-0.3,1.9-0.2,2.9-0.4
							c0.1,0.3,0.8-0.1,0.8,0.3c2.7-0.7,6.1-0.5,9,0.1l0,0c0.4-0.2,0.8-0.7,1.2-1V63c0.5-0.1,1,0.3,1.6,0.2c0,0.1,0,0.1-0.1,0.1
							c0.5-0.2,1,0.3,1.6,0v0.1l0.4-0.1c0,0.1,0,0.3-0.2,0.3c4.5,0.1,9.2-0.5,13.9-0.4l-0.2,0.1l0.9-0.2c0,0.1,0,0.1-0.1,0.1
							c1.2,0.2,2.3-0.1,3.5-0.1c0,0.1-0.2,0.2,0,0.3c0.8-0.3,1.3,0.5,1.7-0.3c0,0,0.1,0.2,0,0.3c2.3-0.2,4.7-0.2,7-0.1
							c1.9-0.7,4.1-0.1,6.1-0.6v0.1c2.6-0.5,5.4,0,8.1-0.1c1.1,0.1,1.9-0.1,3-0.1v0.2c1.9-0.6,4,0.6,6-0.1l-0.1,0.2
							c0.3-0.3,1.2,0.1,1.1-0.5l0.3,0.2c1.3-0.8,2.4,0.4,4.1-0.1l-0.1,0.1c0.4-0.1,0.9-0.2,1.3-0.1c-0.1,0,0,0.1-0.1,0.1
							c1.4,0.6,2.9-0.1,4.3,0l-0.2,0.3c0.7-0.3,2,0,2.9-0.2l-0.1,0.1l0.5-0.2v0.2C140.3,63,141.5,62.7,142.6,62.4z"/>
					</g>
				</g>
			</g>
		</g>
	</g>
	<g>
		<g>
			<g>
				<g>
					<g>
						<path class="st5" d="M144.2,63.8h0.2c-0.4-0.1,0-0.2-0.2-0.2h0.1c0.1-0.2-0.3-0.4-0.5-0.6h0.1c-0.1,0-0.2,0-0.2,0h0.1
							c0.4,0-0.2-0.1,0.1-0.1c0,0-0.2,0-0.3,0c-0.1-0.2-0.2-0.3-0.5-0.5c0.1,0,0.2,0,0.3,0c-0.6-0.1-0.4-0.3-0.3-0.4
							c-0.2,0-0.2,0-0.3,0c-0.2,0,0.4,0.1,0.1,0.1h-0.2c-0.1,0,0.4,0,0.2,0c-0.1,0-0.2,0-0.2,0c0.1,0.1-0.1,0.1,0.3,0.2
							c-0.3,0,0,0.1-0.3,0.1c0.1,0,0.1,0,0.3,0c-0.2,0.2,0.1,0.4,0.1,0.7c0.6,0.1-0.1,0.2,0.1,0.3c0,0,0,0-0.1,0
							c0.2,0,0.2,0.1,0.2,0.1h0.3c-0.6,0.3-0.2,0.6-0.4,0.9s-0.6,0.6,0.2,0.9c-0.1,0-0.1,0-0.1,0c0.1,0.1-0.1,0.2,0,0.3h-0.1
							c0.5,0.2-0.1,0.5,0.5,0.7c-0.1,0.3,0,0.5,0.2,0.8h-0.1c0.3,0.2-0.4,0.4-0.2,0.6c-0.3,0.2,0.7,0.5,0.3,0.7
							c-0.6,0.1,0.7,0.3,0.1,0.4c-1,0.3-0.3,0.5,0.2,0.8c-0.3,0.2,0.5,0.5-0.2,0.7c0.4,0.1-0.6,0.2-0.4,0.4h0.2
							c-0.5,0,0.7,0.1,0,0.1l0,0c-0.4,0,0.8,0.1,0.4,0.1h0.2c0.1,0-0.2,0-0.3,0c0,0,0.3,0,0.2,0c-0.7,0,0.2,0.1-0.7,0.1
							c0,0-0.3,0-0.5,0c-0.1,0,0,0.1,0.3,0.1c0.4,0,0.7,0,1,0h-0.3c0.3,0,0.1,0,0.3,0c0,0,0.4,0,0.6-0.1l0,0c-0.3,0-0.1,0-0.1-0.1
							h0.1c0.3,0-0.6,0-0.1,0c-0.1-0.1-0.1-0.2-0.1-0.3c-0.2,0,0-0.1-0.4,0c0.4,0,0.6-0.1,0.5-0.1h0.1c0.6,0-0.5-0.1,0.2-0.1
							c-0.5,0,0.2-0.1-0.4-0.1c0.1,0,0.2,0,0.3,0c0-0.1,0.2-0.2,0.2-0.2c-0.4-0.1,0.2-0.1-0.4-0.2c0.1,0,0.4-0.1,0.1-0.2h0.1
							c0-0.1-0.1-0.1-0.4-0.2c0.6,0,0.5,0,0.6-0.1c-0.3,0-0.2-0.1-0.4-0.2c0.3,0-0.1-0.1,0.3-0.1c-0.7-0.2-0.5-0.4,0.1-0.6l0,0
							c-0.2,0-0.7-0.1-1-0.1h0.1c-0.1,0,0.3-0.1,0.2-0.1c0.1,0,0.1,0,0.1,0c-0.2,0,0.3-0.1,0-0.1h0.1h-0.1c0.1,0,0.3,0,0.3,0
							c0.1-0.3-0.5-0.6-0.4-0.9h0.1l-0.2-0.1c0.1,0,0.1,0,0.1,0c0.2-0.1-0.1-0.2-0.1-0.2c0.1,0,0.2,0,0.3,0
							c-0.3-0.1,0.5-0.1-0.3-0.1c0,0,0.2,0,0.3,0c-0.2-0.2-0.2-0.3-0.1-0.5c-0.7-0.1-0.1-0.3-0.6-0.4h0.1c-0.5-0.2,0-0.4-0.1-0.5
							c0.1-0.1-0.1-0.1-0.1-0.2h0.2c-0.6-0.1,0.6-0.3-0.1-0.4h0.2c-0.3,0,0.1-0.1-0.5-0.1h0.2c-0.8-0.1,0.4-0.2-0.1-0.3h0.1
							c-0.1,0-0.2-0.1-0.1-0.1h0.1c0.6-0.1-0.1-0.2,0-0.3h0.3c-0.3,0,0-0.1-0.2-0.2L144.2,63.8l-0.2,0.1L144.2,63.8
							C144.4,64,144.2,63.9,144.2,63.8z"/>
					</g>
				</g>
			</g>
		</g>
	</g>
	<g>
		<path class="st3" d="M59.4,20C57,26,48.1,49,47.3,52.6c-0.8,3.6-1.6,5.2,2.4,6s84.4-0.4,87.2-0.4s6.2-2.4,10.9-5.6
			c4.8-3.2,12.5-7.7,10-11.6c-3.4-5.3-12.8-22.3-15.6-26.5S137.8,3.9,133,3.9s-37.5,0-41.5,0s-10,2-14,4
			C63.3,15.1,61.2,15.4,59.4,20z"/>
		<g>
			<g>
				<g>
					<g>
						<polygon class="st4" points="60.6,20.5 60.8,20.4 60.7,20 						"/>
						<path class="st4" d="M61.1,18.4c-0.1,0-0.1,0-0.2,0c-0.1,0.4-0.1,0.9-0.1,1.3C61.5,19.5,60.8,18.6,61.1,18.4z"/>
						<path class="st4" d="M61.4,18.2c0.4-0.3,0.3-0.6,0.3-0.7C61.7,17.7,61.1,18.1,61.4,18.2z"/>
						<path class="st5" d="M114.8,3.7l0.1-0.2c-2.2,0.4-4.7,0-7.1,0.2l0.2-0.1c-6-0.1-11.5,0.3-17.4,0.5c0.1,0,0.1-0.1,0.2-0.1
							c-0.3,0.1-0.6,0.3-0.9,0.3c-0.1,0,0.1-0.1,0.2-0.1C88.8,3.9,86.5,5,85.7,5c-0.3,0.1-0.4,0.3-0.2,0.4c-2.2,0.7-4.4,1.5-6.6,2.6
							c-2.1,1.1-4.2,2.3-6.3,3.4c-0.2,0.1-0.3,0-0.3-0.2c-1.7,1.2-3.5,2.1-5.3,3.1s-3.7,1.8-5.1,3.1c0,0.2,0.4-0.1,0.2,0.2
							c0.9-0.6,1.5-1.7,2.7-2l-0.1,0.2c0.8-0.3-0.1-0.4,0.8-0.7c0.4-0.1,0,0.2,0.2,0.1c1.6-0.9,3.4-1.7,4.8-2.8
							c0.5,0.1,1.8-0.9,2.6-0.9c0.4-0.3,0.8-0.5,0.9-0.8c1.5-0.7,3-1.4,4.4-2.1c1.4-0.7,2.9-1.3,4.5-1.9c3-1.1,6.2-2.1,9.4-2
							c3.1-0.6,6.9,0.1,10.6-0.1c0,0,0,0,0,0.1c1.2-0.2,3-0.2,4.4-0.2l1.2-0.3c4.3,0.3,8.7,0.3,13.1,0.3c2.2,0,4.4,0,6.6,0h3.3
							c0.5,0,1.1,0,1.6,0s0.9,0.1,1.3,0.3c1,0.4,1.8,1.2,2.4,2.1c0.7,0.9,1.2,2,1.7,3s1,2.1,1.6,3.2c0.3,0.5,0.6,1.1,0.9,1.6
							l0.9,1.5c2.4,4,4.7,8,7.5,12c-0.1,0,0,0.1-0.2-0.1c1.5,2.4,2.6,4.7,4,6.9h-0.1c0.9,1.4,1.8,2.8,2.7,4.2l0.7,1.1
							c0.2,0.4,0.5,0.7,0.6,1.1c0.3,0.6,0.4,1.4,0,2.1c-0.6,1.4-1.8,2.6-3,3.7c-1.2,1.1-2.5,2.1-3.8,3.1c-1.6,1.1-3.3,2.1-5,3.3
							c-1.7,1.1-3.4,2.3-5.2,3.2c-0.9,0.5-1.9,0.9-2.9,1s-2.1,0.1-3.1,0.1c-2.1,0.1-4.2,0.1-6.2,0.2V58c-6.5,0.3-12.9-0.2-19.4,0
							c-6.7-0.2-13.8,0.9-20.6,0.5c-4.2-0.6-9.7,0.8-13.6,0.2c-4-0.5-8-0.5-12-0.4s-7.9,0.4-12,0.5c-0.5-0.1-1-0.1-1.4-0.2
							c-0.5-0.1-0.9-0.2-1.4-0.4c-0.4-0.2-0.9-0.4-1.2-0.8C46,57,45.9,56.5,45.9,56c0-1,0.3-1.9,0.4-2.8c0.2-0.9,0.4-1.8,0.7-2.7
							c1.1-3.5,2.3-7,3.9-10.2c0.8-3.4,3.1-6.5,4.3-10.1l0.4,0c0.9-1.1,0.5-3.1,1.4-3.6v0.1c0.6-0.5-0.2-1.9,0.4-2.1l-0.1-0.2
							c0.3-0.8,0.2,0,0.5-0.6c0.1-0.2-0.3-0.2,0-0.7c0.7,0.2,0.6-2.1,1.4-1.8c-0.2,0.4,0.6-0.6,0.3,0.5c0.2-0.3,0.7-1.6,0.3-1.6
							c-0.3-0.3-0.4-0.9-1-0.2l0.2,0.3c-0.4,0.2-0.2,0.2-0.4,0.2c-0.5,1.1-0.9,1.1-1.3,1.8l0,0c0.1,0.6-0.4,1.3-0.6,1.7l-0.2,0.1
							c-0.4,0.1,0.1,1.5-0.3,0.9c-0.7,2.3-1.7,4.8-2.7,7.3c0.1,0.4-0.7,1.9-0.2,1.5c-0.7,0.5-1.5,2.3-1.7,3c0,0-0.1-0.1,0-0.2
							c-1,1.1-0.1,1.8-1.2,2.8c0.4,0.4-1,2.2-0.7,3.1c-0.2,0.1-0.3,0.1-0.3,0c-0.8,2.2-1.9,4.7-2.6,6.6C46.7,50,46.3,51,46,52
							s-0.5,1.9-0.4,2.8c-0.1,0.3-0.2,0.7-0.2,1.2s0,1.2,0.4,1.8c0.4,0.6,1,1,1.5,1.3c0.5,0.2,1,0.3,1.5,0.4h-0.2
							c0.5,0.1,1.1,0.2,1.7,0.2c0.3,0,0.6,0,0.9,0s0.5,0,0.8,0c1,0,2-0.1,2.6-0.3c0.6,0.6,1.4,0.5,2.2,0.7c1.3-0.2,3.9-0.2,5.9-0.4
							c0.3,0.3,1.6-0.1,1.7,0.3c5.5-0.8,12.4-0.5,18.3,0h-0.1c0.8-0.2,1.6-0.7,2.4-1c0.1,0,0.1,0.1-0.1,0.1c1.1-0.1,2.1,0.3,3.2,0.2
							c0,0.1,0,0.1-0.2,0.1c1-0.2,2.1,0.3,3.3,0l0.1,0.1l0.8-0.1c0,0.1,0,0.3-0.5,0.3c9.3,0,18.9-0.7,28.4-0.7l-0.3,0.1l1.8-0.2
							c0,0.1-0.1,0.1-0.2,0.1c2.4,0.2,4.8-0.2,7.1-0.2c0,0.1-0.4,0.2,0,0.3c1.7-0.4,2.7,0.4,3.6-0.3c0.1,0,0.1,0.2,0,0.3
							c1.2-0.1,2.4-0.1,3.6-0.2c0.6,0,1.2,0,1.9-0.1s1.3-0.3,1.9-0.5c2.4-0.9,4.4-2.3,6.4-3.5c1.5-1.4,3.2-2.5,5-3.7s3.6-2.4,4.9-4
							l0.1,0.1c0.9-1,1.8-2.1,2.3-3.4c0.3-0.7,0.3-1.4,0.1-2.1c-0.3-0.7-0.6-1.3-1-1.8c-1.4-2.4-2.7-4.9-4.1-7.2
							c-1.1-2-2-3.3-3.2-5.3l0.1-0.1c-2.5-3.1-3.6-7.4-6.2-10.5l0.3,0.1c-0.6-0.4-1.2-2.2-1.6-1.6l-0.2-0.7c-2.2-1.9-2-4.6-4.2-7.2
							l0.2,0.1c-0.6-0.7-1.3-1.4-1.7-2c0.1,0.1,0.1,0,0.3,0.1c-0.7-1.2-2.4-2.1-4-2c-1.5,0.1-3,0.2-4.5,0.2l0.3-0.3
							c-1.4,0.3-4.1,0-5.9,0.2l0.1-0.1l-1,0.2V3.6C119.5,3.5,117.2,3.7,114.8,3.7z"/>
						<path class="st4" d="M57.2,22.5c0.1-0.1,0.1-0.2,0.2-0.3C57.3,22.2,57.2,22.4,57.2,22.5z"/>
					</g>
				</g>
			</g>
		</g>
	</g>
	<g>
		<g>
			<g>
				<g>
					<g>
						<polygon class="st4" points="135.9,4.6 135.8,4.6 135.9,4.8 						"/>
						<path class="st4" d="M135.8,5.4L135.8,5.4V4.8C135.4,4.7,136,5.5,135.8,5.4z"/>
						<path class="st4" d="M135.6,5.5c-0.2,0-0.1,0.2,0,0.3C135.5,5.6,135.9,5.7,135.6,5.5z"/>
						<path class="st5" d="M123.8,16.7l0.1,0.2c0.4-0.6,1.3-0.7,1.7-1.2v0.1c1.4-1,2.4-2.3,3.5-3.5v0.1c0-0.1,0-0.3,0.1-0.3
							s0,0.1,0,0.1c0.5,0,0.6-0.9,1-0.8c0-0.1,0-0.2-0.1-0.3c0.9-0.9,1.9-1.9,2.7-3c0.1,0,0.2,0.1,0.2,0.2c0.5-1.2,1.5-1.8,2.4-2.5
							c-0.1-0.1-0.2,0-0.2-0.2c-0.4,0.1-0.3,0.7-0.7,0.8l-0.1-0.1c-0.2,0.1,0.2,0.3-0.1,0.3c-0.2,0-0.1-0.2-0.2-0.1
							c-0.3,0.4-0.8,0.7-1,1.3c-0.3-0.2-0.4,0.4-0.8,0.3c0,0.2-0.1,0.3,0,0.5c-1.5,1.1-2.7,2.6-4.1,3.8c-0.3,1.1-1.6,1.2-2.2,2
							c0,0,0,0,0-0.1c-0.2,0.3-0.5,0.7-0.9,0.9l-0.1,0.4c-1.1,0.5-2.1,0.9-3.2,0.9c-1.1,0.1-2.4-0.1-3.7-0.2
							c-2.9-0.2-5.4-0.5-8.1,0.3c0-0.1,0-0.1,0-0.1c-0.8,0.1-1.5-0.1-2.3,0.1v-0.1c-1.8,0.5-3.9,0-5.7,0.6c-2.2,0-4.7,0.1-7,0.3
							v-0.1c-1.8,0.3-3.7-0.4-5.5-0.1c-1.9-0.3-3.9,0.8-5.8,0.4c-1.2-0.6-2.7,0.7-3.9,0.1c-2.3-0.9-4.5-0.3-6.8,0.3
							c-2.1-0.3-4.2,0.6-6.3-0.1c-1,0.5-2.1-0.5-3.1-0.4v0.2c-0.4-0.5-0.9,0.7-1.1,0l0,0c-0.2-0.4-0.5,0.8-0.6,0.4v0.2
							c-0.2,0.1,0-0.2-0.2-0.3c-0.1,0,0,0.3-0.2,0.2c0-0.7-0.6,0.2-0.6-0.6c0.1,0-0.2-0.3,0.1-0.5c-0.1-0.1-0.5,0-0.5,0.3
							c0,0.4-0.2,0.7,0.1,1v-0.3c0.1,0.3,0.1,0.1,0.1,0.3c0.3,0,0.4,0.4,0.6,0.6l0,0c0.2-0.3,0.4-0.1,0.5-0.1l0.1,0.1
							c0.1,0.3,0.4-0.6,0.3-0.1c0.7-0.1,1.4-0.1,2.2-0.2c0.1-0.2,0.6,0,0.4-0.4c0.2,0.4,0.8,0.5,1,0.5v0.1c0.4,0.6,0.5-0.5,0.9,0.2
							c0.1-0.5,0.7,0.1,0.9-0.4c0,0.1,0.1,0.2,0,0.3c0.7,0,1.4,0.2,2,0.2c0.5-0.4,1.2,0.2,1.6-0.4c0.4,0.1,0.9,0.4,1.4,0.1V19
							c0.6,0,1.2-0.1,1.6-0.5c0.2,0.6,0.4,0.5,0.7,0.6c0.4-0.3,1.1-0.2,1.7-0.5c0.1,0.3,0.5-0.1,0.5,0.3c1.6-0.8,3.5-0.5,5.2,0l0,0
							c0.2-0.2,0.5-0.7,0.7-1V18c0.3-0.1,0.6,0.3,0.9,0.2c0,0.1,0,0.1,0,0.1c0.3-0.2,0.6,0.3,0.9,0v0.1l0.2-0.1c0,0.1,0,0.3-0.1,0.3
							c2.6,0.1,5.3-0.6,8.1-0.6l-0.1,0.1l0.5-0.2c0,0.1,0,0.1,0,0.1c0.7,0.2,1.4-0.2,2-0.1c0,0.1-0.1,0.2,0,0.3
							c0.5-0.4,0.8,0.4,1-0.3c0,0,0,0.2,0,0.3c1.3-0.3,2.7-0.3,4.1-0.2c1.1-0.7,2.4-0.1,3.5-0.6v0.1c1.5-0.5,3.1,0,4.7-0.1
							c0.7,0,1.1-0.1,1.7-0.1v0.2c1.1-0.6,2.3,0.5,3.5-0.2l-0.1,0.2c0.2-0.3,0.7,0.1,0.6-0.5l0.2,0.2c0.8-0.8,1.4,0.3,2.4-0.2
							l-0.1,0.1c0.3-0.1,0.6-0.2,0.7-0.1c0,0,0,0.1-0.1,0.1c0.8,0.6,1.7,0,2.5,0.1l-0.1,0.3c0.4-0.3,1.2,0,1.7-0.1v0.1l0.3-0.2v0.2
							C122.5,17.4,123.2,17,123.8,16.7z"/>
					</g>
				</g>
			</g>
		</g>
	</g>
	<g>
		<path class="st0" d="M68.1,27.7c-1.1,2.9-6.8,17.1-7.5,19.2c-0.7,2-1.9,4.7,2.6,5.1c4.4,0.3,51.9,0,56,0s7.1-0.2,5.9-3.6
			c-1.2-3.4-7-18.5-7.8-20.7s-2-4.6-4.9-4.6s-36.5,0.5-38.8,0.8C71.1,24.3,68.9,25.6,68.1,27.7z"/>
		<g>
			<g>
				<g>
					<g>
						<polygon class="st4" points="69.3,28.2 69.4,28.2 69.3,27.9 						"/>
						<path class="st4" d="M69.4,27.1c-0.1,0-0.1,0-0.1,0c0,0.3,0.1,0.6,0.2,0.8C69.9,27.8,69.1,27.1,69.4,27.1z"/>
						<path class="st4" d="M69.6,26.9c0.3-0.1,0.1-0.4,0.1-0.5C69.8,26.7,69.3,26.8,69.6,26.9z"/>
						<path class="st4" d="M102.3,23.1l0.1-0.2c-1.3,0.4-2.8,0-4.2,0.2l0.1-0.1c-3.5,0-6.8,0.4-10.3,0.6c0.1,0,0.1-0.1,0.1-0.1
							c-0.2,0.1-0.4,0.2-0.5,0.2s0.1-0.1,0.1-0.1c-0.7-0.4-2.2,0.3-2.6,0c-0.2,0-0.3,0.2-0.2,0.3c-2.7,0.2-5.7,0.3-8.5,0.7
							c-0.1,0-0.2-0.1-0.1-0.3c-0.6,0.2-1.2,0.3-1.8,0.4c-0.6,0.1-1.1,0.2-1.6,0.3c-1.1,0.3-2.1,0.7-2.9,1.3c0.1,0.2,0.3,0,0.2,0.2
							c0.6-0.3,0.7-1,1.4-1.1v0.2c0.4-0.1-0.1-0.4,0.4-0.4c0.2,0.1,0,0.2,0.1,0.2c0.4-0.2,0.9-0.3,1.4-0.4c0.5-0.1,0.9-0.2,1.5-0.4
							c0.3,0.3,1.2,0,1.6,0.3c0.3-0.1,0.6-0.1,0.7-0.3c3.8,0,7.8-0.4,11.7-0.4c1.8-0.7,4.1,0,6.3-0.2c0,0,0,0,0,0.1
							c0.7-0.2,1.8-0.3,2.6-0.2l0.7-0.3c2.6,0.2,5.2,0.2,7.8,0.2c1.3,0,2.6,0,3.9-0.1h2c0.6,0,1.1,0.1,1.6,0.4
							c1.1,0.5,1.7,1.7,2.2,2.9s0.9,2.6,1.4,3.9c0.9,2.6,2,5.1,3.4,7.7c-0.1,0-0.1,0.1-0.2-0.1c0.7,1.5,1,3,1.7,4.4h-0.1
							c0.9,1.7,1.6,3.6,2.3,5.5c0.1,0.4,0.2,0.9,0.2,1.3c0,0.4-0.2,0.7-0.5,0.9c-0.6,0.5-1.6,0.7-2.5,0.9c-2.3,0.1-4.7,0-7.2,0.1
							c-2.5,0-5,0.1-7.4,0.2v-0.1c-3.9,0.3-7.6-0.4-11.5-0.1c-4-0.3-8.2,0.8-12.2,0.4c-2.5-0.6-5.7,0.7-8.1,0.1
							c-2.4-0.5-4.7-0.6-7.1-0.5c-1.2,0-2.4,0.1-3.5,0.2c-1.2,0.1-2.4,0.3-3.6,0c-0.5-0.3-1-0.7-1.3-1.2c-0.3-0.6-0.2-1.2-0.1-1.7
							c0.2-1.1,0.6-2.2,0.9-3.2c0.7-2.1,1.5-4.1,2.6-6c0.3-2,2.1-3.8,2.8-5.9h-0.2c0.7-0.6,0-1.9,0.9-2.1v0.1
							c0.5-0.3-0.4-1.2,0.1-1.3l-0.1-0.1c0.1-0.5,0.2,0,0.4-0.3c0-0.1-0.3-0.2-0.1-0.4c0.7,0.2,0.3-1.2,1.1-1
							c-0.1,0.3,0.5-0.3,0.4,0.3c0.1-0.1,0.4-1,0.1-1c-0.3-0.2-0.5-0.6-0.9-0.2L68,28c-0.3,0.1-0.2,0.1-0.4,0.1
							c-0.3,0.6-0.7,0.6-1,1l0,0c0.2,0.4-0.2,0.8-0.3,1h-0.2c-0.3,0,0.3,0.9-0.1,0.6c-0.4,1.4-1,2.9-1.5,4.3c0.1,0.3-0.5,1.1,0,0.9
							c-0.6,0.2-1.1,1.3-1.2,1.7c0,0-0.1-0.1,0-0.1c-0.8,0.6,0.1,1.1-0.8,1.6c0.4,0.3-0.7,1.3-0.3,1.9c-0.1,0.1-0.2,0.1-0.3,0
							c-0.5,1.3-1.3,2.7-1.7,3.8c0,0.5-0.3,1.1-0.5,1.7c-0.2,0.5-0.4,1.1-0.3,1.7c-0.2,0.4-0.4,0.9-0.4,1.6c0,0.2,0,0.4,0,0.6
							c0,0.2,0.1,0.4,0.2,0.6c0.2,0.4,0.5,0.8,0.8,1c-0.1,0-0.1,0-0.2-0.1c0.7,0.7,1.5,1,2.2,1.1s1.3,0,1.7-0.1
							c0.3,0.6,0.9,0.5,1.3,0.7c0.8-0.2,2.3-0.1,3.5-0.4c0.2,0.3,1-0.1,1,0.3c3.3-0.7,7.3-0.5,10.9,0.1h-0.1c0.5-0.2,1-0.7,1.4-1
							c0,0,0,0.1-0.1,0.1c0.6-0.1,1.2,0.3,1.9,0.2c0,0.1,0,0.1-0.1,0.1c0.6-0.2,1.2,0.3,1.9,0v0.1l0.5-0.1c0,0.1,0,0.3-0.3,0.3
							c5.5,0.1,11.2-0.6,16.8-0.5l-0.2,0.1l1.1-0.2c0,0.1-0.1,0.1-0.1,0.1c1.4,0.2,2.8-0.2,4.2-0.1c0,0.1-0.2,0.2,0,0.3
							c1-0.4,1.6,0.4,2.1-0.3c0,0,0.1,0.2,0,0.3c2.8-0.3,5.7-0.3,8.5-0.2c1.2-0.3,2.4-0.3,3.7-0.4c0.6,0,1.3-0.1,1.9-0.3
							c0.6-0.2,1.3-0.6,1.6-1.2l0.1,0.1c0.4-0.9,0.2-1.8-0.1-2.5c-0.3-0.8-0.6-1.5-0.8-2.3c-0.5-1.6-1-3.1-1.6-4.7
							c-0.4-1.3-0.9-2.1-1.4-3.4l0.1-0.1c-1.4-1.9-1.2-4.7-2.7-6.7l0.3,0.1c-0.5-0.2-0.4-1.4-0.9-1.1v-0.5c-0.7-0.6-0.8-1.3-1-2.1
							s-0.4-1.6-1.1-2.4h0.2c-0.4-0.4-0.8-0.8-1-1.2c0.1,0,0.1,0,0.2,0c-0.4-0.8-1.4-1.3-2.3-1.3c-0.5,0-0.9,0-1.4,0.1
							c-0.4,0-0.9,0.1-1.3,0.1l0.2-0.3c-0.8,0.3-2.4,0.1-3.5,0.2l0.1-0.1l-0.6,0.2v-0.2C105,22.8,103.7,23.1,102.3,23.1z"/>
						<path class="st4" d="M87.6,23.7C87.6,23.7,87.7,23.7,87.6,23.7C87.7,23.6,87.7,23.7,87.6,23.7z"/>
						<path class="st4" d="M66.3,29.1c0-0.1,0.1-0.1,0.1-0.1C66.4,28.9,66.4,29,66.3,29.1z"/>
					</g>
				</g>
			</g>
		</g>
	</g>
	<g>
		<line class="st8" x1="138.4" y1="57.9" x2="122.7" y2="16.9"/>
		<g>
			<g>
				<g>
					<g>
						<path class="st4" d="M122,17.6C122,17.6,122.1,17.6,122,17.6l-0.5-0.1C121.2,17.7,122.2,17.4,122,17.6z"/>
						<path class="st4" d="M122,17.6c-0.1,0.1,0.2,0.1,0.3,0C122,17.7,122.3,17.5,122,17.6z"/>
						<path class="st5" d="M126.2,25.6l0.2-0.1c-0.5-0.2-0.3-0.7-0.5-1h0.1c-0.3-0.9-0.9-1.6-1.4-2.4h0.1c-0.1,0-0.2,0-0.2-0.1h0.1
							c0.3-0.3-0.4-0.4-0.2-0.7c-0.1,0-0.2,0-0.3,0.1c-0.3-0.6-0.7-1.3-1.2-1.9c0-0.1,0.1-0.1,0.2-0.1c-0.8-0.4-0.8-1.1-0.9-1.7
							c-0.2,0-0.1,0.1-0.3,0.1c-0.1,0.3,0.5,0.2,0.3,0.5h-0.1c0,0.2,0.4-0.1,0.2,0.1c-0.1,0.1-0.2,0.1-0.2,0.1
							c0.2,0.2,0.1,0.6,0.6,0.7c-0.3,0.2,0.1,0.3-0.2,0.5c0.1,0,0.1,0.1,0.4,0.1c0.2,1,0.9,1.9,1.2,2.8c0.8,0.2,0.3,1,0.7,1.5
							c0,0,0,0-0.1,0c0.2,0.1,0.4,0.3,0.4,0.6l0.3,0.1c0,1.5,0.8,2.6,1.1,4c0.4,1.5,0.5,2.9,1.8,4.1c-0.1,0-0.1,0-0.1,0
							c0.3,0.4,0.2,0.8,0.5,1.2h-0.1c0.9,0.8,0.7,2,1.6,2.7c0.4,1.1,0.9,2.4,1.5,3.5h-0.1c0.6,0.9,0.3,2,0.9,2.9
							c0.1,1.1,1.4,1.7,1.5,2.9c-0.3,0.8,1.2,1.2,0.8,2c-0.5,1.5,0.6,2.4,1.6,3.4c0.1,1.2,1.3,2,1.1,3.3c0.6,0.3-0.1,1.2,0.2,1.7
							l0.1-0.1c-0.4,0.4,0.8,0.2,0.2,0.6l0,0c-0.3,0.2,0.9-0.1,0.5,0.2h0.2c0.1,0.1-0.2,0.1-0.2,0.2c0,0,0.3-0.1,0.2,0
							c-0.7,0.3,0.3,0.3-0.5,0.6c0-0.1-0.3,0.2-0.5,0.1c-0.1,0.1,0.1,0.3,0.4,0.1c0.3-0.1,0.7-0.1,0.9-0.4l-0.3,0.1
							c0.2-0.1,0.1-0.1,0.3-0.2c0-0.2,0.3-0.3,0.4-0.5l0,0c-0.3,0-0.2-0.2-0.2-0.2l0.1-0.1c0.3-0.2-0.6,0-0.1-0.1
							c-0.3-0.3-0.4-0.7-0.6-1.1c-0.2,0-0.1-0.3-0.4-0.1c0.4-0.3,0.4-0.6,0.3-0.7h0.1c0.5-0.4-0.6-0.1,0-0.5c-0.5,0.1,0-0.4-0.6-0.3
							c0.1-0.1,0.2-0.1,0.3-0.1c-0.1-0.4-0.1-0.8-0.2-1.1c-0.5-0.1,0-0.7-0.7-0.7c0.1-0.2,0.2-0.6-0.1-0.8h0.1
							c-0.1-0.3-0.3-0.6-0.7-0.7c0.5-0.3,0.4-0.4,0.5-0.6c-0.3-0.1-0.4-0.5-0.7-0.7c0.2-0.1-0.2-0.2,0.2-0.3c-1-0.5-1.1-1.6-0.9-2.7
							l0,0c-0.2,0-0.7,0-1,0h0.1c-0.1-0.1,0.2-0.4,0-0.5c0.1,0,0.1,0,0.1,0c-0.2-0.1,0.2-0.4-0.2-0.5h0.1l-0.2-0.1
							c0.1,0,0.3-0.1,0.3,0c-0.4-1.4-1.6-2.5-2-4h0.1l-0.3-0.2c0.1,0,0.1,0,0.1,0c0.1-0.4-0.4-0.6-0.5-1c0.1,0,0.2,0,0.2-0.1
							c-0.4-0.1,0.3-0.6-0.5-0.4l0.2-0.1c-0.5-0.6-0.7-1.3-0.9-2c-0.8-0.3-0.5-1.2-1.2-1.6h0.1c-0.7-0.6-0.6-1.6-1-2.4
							c-0.1-0.4-0.3-0.5-0.4-0.9l0.1-0.1c-0.8-0.3,0.1-1.4-0.8-1.7h0.2c-0.4,0,0-0.4-0.6-0.2l0.1-0.2c-0.9-0.1,0.1-0.9-0.6-1.2h0.1
							c-0.2-0.1-0.3-0.2-0.2-0.4h0.1c0.4-0.6-0.4-0.8-0.5-1.3h0.3c-0.4-0.1-0.2-0.6-0.5-0.8h0.1l-0.2-0.1l0.2-0.1
							C126.7,26.2,126.4,25.9,126.2,25.6z"/>
					</g>
				</g>
			</g>
		</g>
	</g>
</g>
</svg>
