<?xml version="1.0" encoding="utf-8"?>
<!-- Generator: Adobe Illustrator 23.0.1, SVG Export Plug-In . SVG Version: 6.00 Build 0)  -->
<svg version="1.1" id="Layer_1" xmlns="http://www.w3.org/2000/svg" xmlns:xlink="http://www.w3.org/1999/xlink" x="0px" y="0px"
	 viewBox="0 0 200 170" style="enable-background:new 0 0 200 170;" xml:space="preserve">
<style type="text/css">
	.st0{fill:#EAB9C5;}
	.st1{fill:#D97294;}
	.st2{fill:#F5E1E5;}
	.st3{fill:#F8E9EC;}
	.st4{fill:#E299AD;}
	.st5{fill:#D45D85;}
	.st6{fill:#FDF8F9;}
	.st7{fill:#F3DADF;}
	.st8{fill:none;}
	.st9{fill:none;stroke:#B5DFCC;stroke-width:2;stroke-linecap:round;stroke-linejoin:round;stroke-miterlimit:10;}
	.st10{fill:#DB7C99;}
	.st11{fill:#FAF0F2;}
	.st12{fill:#F6E5E8;}
	.st13{fill:#DA7194;}
	.st14{fill:#F3A169;}
	.st15{fill:none;stroke:#EBB1C5;stroke-miterlimit:10;}
	.st16{fill:#0075C2;}
</style>
<g>
	<g>
		<path class="st7" d="M35.6,58.7c0,0-8.3-35.7-9.7-40.7c-1.5-5-2.4-9.6,4.8-9.6s89,0,94.8,0c5.8,0,13.3,1.3,14.3,9.9
			c0.8,8.6,4.8,47.8,4.8,47.8L35.6,58.7z"/>
		<g>
			<g>
				<g>
					<g>
						<polygon class="st5" points="35.5,59.5 35.6,59.5 36.1,59.4 						"/>
						<path class="st5" d="M38.2,59.4C38.1,59.4,38.1,59.3,38.2,59.4l-1.7,0.1C37.2,59.7,37.8,59.1,38.2,59.4z"/>
						<path class="st5" d="M38.6,59.4c0.6,0.1,0.8,0,0.9-0.1C39.4,59.5,38.5,59.3,38.6,59.4z"/>
						<path class="st5" d="M105.1,63.3l0.1-0.1c-2.6,0-5.4-0.4-8.1-0.5h0.2c-6.8-0.5-13.2-0.7-20-1.1c0.1,0,0.1,0,0.2,0
							c-0.4,0-0.7,0.1-1.1,0c-0.1,0,0.1,0,0.2,0c-1.4-0.4-4.2-0.1-5.2-0.4c-0.4,0-0.6,0.1-0.4,0.1C65.8,61,60,60.7,54.6,60.5
							c-0.2,0-0.4-0.1-0.2-0.2c-4.7,0-9.6-0.5-14.3-0.8c-0.2,0.1,0.5,0.1,0,0.2c1.5,0.2,2.8,0,4.2,0.2l-0.2,0.1
							c1.1,0.1,0.2-0.2,1.3,0c0.4,0.1-0.1,0.1,0.1,0.1c2.1,0.1,4.4,0.4,6.4,0.2c0.5,0.2,2.4,0.1,3.1,0.4c0.6,0,1.1,0,1.3-0.1
							c7.5,0.6,15.2,0.9,22.9,1.5c3.7-0.1,7.9,0.6,12.1,0.8l0,0c1.4,0,3.4,0.1,5.1,0.2l1.4-0.1c10,1.1,20.3,1.5,30.4,2.4
							c6,0.5,11.6,0.9,17.1,1.3l-0.5-4.8c-0.1-1.3-0.4-2.7-0.5-4.1c-0.4-2.7-0.7-5.5-1.1-8.3c0,0,0-0.1,0.1,0.2
							c-0.4-3.2-0.6-6.2-0.9-9.2l0,0c-1.1-7.5-1.5-15.8-2.7-23c-0.1-1.1-0.5-2.2-0.9-3.3c-0.6-1.1-1.2-2-2.1-2.8
							c-0.9-0.8-2-1.4-3.1-1.9c-1.2-0.5-2.4-0.7-3.5-0.9c-2.4-0.4-4.8-0.4-7.3-0.4c-2.4,0-4.8,0-7.2,0.1V8.3
							c-7.5,0.1-14.9-0.2-22.4-0.1c-7.8-0.1-15.9,0.5-23.8,0.2c-4.8-0.4-11.2,0.5-15.8,0c-4.7-0.2-9.3-0.4-13.9-0.2
							c-2.4,0-4.6,0.1-7,0.1c-1.2,0-2.4,0.1-3.4,0.1c-1.2,0.1-2.4,0.5-3.2,1.2c-0.8,0.6-1.3,1.7-1.3,2.7c-0.1,1.1,0.1,2.1,0.4,3.2
							s0.6,2,0.8,3.1c0.4,1.1,0.6,2.1,0.8,3.1c1.1,4.1,2.1,8.3,2.8,12.4c1.2,3.8,1.5,8.1,2.7,12.5v-0.1c0.1,1.7,1.2,3.3,0.9,4.4
							v-0.1c0,0.8,0.9,1.8,0.8,2.4l0.1,0.1c0.2,0.9-0.1,0.1,0,0.9c0.1,0.2,0.2,0.1,0.2,0.7c-0.4,0.2,0.6,2.4,0.2,2.6
							c-0.1-0.6,0,0.9-0.4-0.4c0,0.4,0.5,2,0.6,1.8c0.2,0.1,0.6,0.7,0.5-0.4l-0.2-0.1c0.1-0.4,0-0.2,0.1-0.5
							c-0.2-1.3-0.1-1.5-0.2-2.5l0,0c-0.4-0.6-0.5-1.5-0.5-2v-0.2c0.1-0.4-0.7-1.4-0.4-1.1c-0.7-2.6-1.4-5.7-2.1-8.7
							c-0.2-0.4-0.5-2.2-0.6-1.5c0.1-0.8-0.4-3.1-0.6-3.9c0,0,0.1,0,0.1,0.2c0-1.7-0.7-1.8-0.7-3.4c-0.4-0.1-0.6-2.7-1.1-3.5
							c0-0.2,0.1-0.2,0.1-0.2c-0.6-2.7-1.3-5.7-1.8-8c-0.4-0.9-0.6-2.1-0.9-3.3c-0.2-1.2-0.6-2.2-1.1-3.1c-0.2-1.3-0.7-3.7-0.4-5.2
							v0.1c0.2-0.8,0.9-1.7,2-2c0.9-0.4,2-0.5,2.8-0.6c0.6,0.4,1.7,0.2,2.6,0.4c1.5-0.1,4.5-0.1,6.8-0.2c0.4,0.1,1.9-0.1,2,0.1
							c6.4-0.5,14.4-0.2,21.2,0h-0.1c0.9-0.1,1.9-0.4,2.8-0.6c0.1,0,0.1,0-0.1,0c1.3,0,2.5,0.2,3.7,0.1c0,0,0,0-0.2,0.1
							c1.2-0.1,2.5,0.2,3.8,0l0.1,0.1l0.8-0.1c0,0.1,0,0.2-0.5,0.1C83.7,9,94.8,8.6,105.8,8.7l-0.4,0.1l2.1-0.1c0,0-0.1,0-0.2,0.1
							c2.7,0.1,5.5-0.1,8.3,0c0,0-0.5,0.1,0,0.1c2-0.2,3.2,0.2,4.1-0.1c0.1,0,0.1,0.1,0,0.1c1.4,0,2.7,0,4.1-0.1
							c1.4,0,2.7,0,4.1,0.1c2.7,0.2,5.4,0.9,7.5,2.5c1.9,1.2,3.2,3.3,3.7,5.7c0.4,2.4,0.5,4.8,0.9,7.2H140c0.9,6.1,1.3,12.6,2,19
							c0.2,2.6,0.5,4.4,0.8,7.1l-0.1,0.1c0.8,4.5,0.6,9.4,1.5,14l-0.1-0.4c0.1,0.2,0.1,0.5,0.1,0.8c0,0.2,0.1,0.6,0.1,0.8
							c-0.4,0-0.7,0-0.5,0.1l-0.8-0.1c-3.2,0.2-5.8-0.6-9.7-0.6l0.2-0.1c-1.1,0-2.2,0-3.1-0.1c0.1,0,0.1,0,0.4,0
							c-3.2-0.6-6.8-0.5-10.3-0.7l0.4-0.1c-1.7,0.1-4.7-0.4-6.8-0.4l0.1-0.1h-1.1v-0.1C110.5,63.5,107.9,63.5,105.1,63.3z"/>
						<path class="st5" d="M35.4,54.9c0,0.1,0,0.2,0,0.4C35.5,55.2,35.4,55,35.4,54.9z"/>
					</g>
				</g>
			</g>
		</g>
	</g>
	<g>
		<path class="st0" d="M136.6,11.5c0.4,0.4,30.3,12.7,32.9,13.8c2.6,1.1,4.8,1.8,5.1,5.7c0.1,3.9,0,23,0,23l-29.7,12.1L136.6,11.5z"
			/>
		<g>
			<g>
				<g>
					<g>
						<polygon class="st5" points="135.7,11.6 135.7,11.7 135.9,11.9 						"/>
						<path class="st5" d="M136.2,12.8C136.2,12.8,136.3,12.8,136.2,12.8l-0.4-0.7C135.7,12.4,136.3,12.6,136.2,12.8z"/>
						<path class="st5" d="M136.2,13c0,0.2,0.1,0.4,0.2,0.5C136.3,13.4,136.3,12.9,136.2,13z"/>
						<path class="st5" d="M141.5,44h0.1c-0.4-1.2-0.4-2.6-0.7-3.8v0.1c-0.5-3.2-1.1-6.1-1.7-9.3c0,0,0.1,0,0.1,0.1
							c-0.1-0.1-0.1-0.4-0.2-0.5c0,0,0.1,0,0.1,0.1c0.1-0.7-0.5-2-0.4-2.4c0-0.2-0.1-0.2-0.2-0.1c-0.5-2.5-0.8-5.2-1.4-7.7
							c0-0.1,0.1-0.1,0.1-0.1c-0.7-2.1-0.8-4.4-1.2-6.6c-0.1-0.1-0.1,0.2-0.2,0c0,0.7,0.5,1.3,0.4,2l-0.1-0.1c0,0.5,0.2,0.1,0.2,0.6
							c0,0.2-0.1,0-0.1,0.1c0.2,0.9,0.2,2,0.6,2.9c-0.1,0.2,0.1,1.1,0,1.5c0.1,0.2,0.1,0.5,0.2,0.6c0.5,3.5,1.2,7.1,1.7,10.7
							c0.6,1.7,0.5,3.7,0.9,5.7l0,0c0.2,0.6,0.4,1.5,0.5,2.4l0.2,0.6c0.4,4.7,1.3,9.4,1.9,14.3c0.2,2,0.5,3.9,0.7,5.8
							c0.1,0.9,0.2,1.9,0.4,2.8c0.2,1.2,0.4,2.4,0.6,3.5c0.5-0.2,1.1-0.5,1.5-0.7l0.9-0.5c0.6-0.4,1.3-0.6,1.9-0.9c0,0,0,0-0.1,0.1
							c1.4-0.7,2.7-1.1,4-1.7l0,0c3.2-1.7,7-2.8,10-4.4c2-0.8,4-1.7,6.1-2.5c1.1-0.5,2.1-0.9,3.2-1.3c0.5-0.2,1.1-0.5,1.5-0.7
							l0.8-0.4c0.1,0,0.1,0,0.2-0.1v-0.2v-0.5h0.1c-0.1-3.5,0.2-7,0.1-10.6c0.1-3.7-0.5-7.5-0.2-11.2c0.2-1.2,0-2.6-0.8-3.7
							c-0.8-1.1-2-1.5-2.9-2.1c-3.9-2.2-7.9-3.5-12.1-4.8c-3.7-1.8-7.7-2.8-11.1-4.7c-1.8-0.5-3.5-1.8-5.4-2.6v0.1
							c-0.6-0.6-1.7-0.2-1.9-0.8h0.1c-0.2-0.4-1.1,0.1-1.2-0.2l-0.1,0.1c-0.5-0.1,0-0.1-0.4-0.4c-0.1,0-0.1,0.1-0.4,0
							c0.1-0.4-1.1-0.4-0.9-0.8c0.2,0.1-0.4-0.4,0.2-0.2c0,0-0.4-0.1-0.5-0.2c-0.1,0-0.1,0-0.2,0h-0.1l0,0l-0.1,0.1l0,0l0,0l0,0
							l0.2-0.2l0,0l0,0c-0.1,0.1-0.1,0.1-0.2,0.2l0.2-0.2l0,0l0,0l0,0l0,0l0,0l0,0l0,0h-0.1h-0.1c-0.1,0-0.1,0.1,0,0.4l0.2-0.1
							c0.1,0.2,0.1,0.1,0.1,0.2c0.6,0.2,0.6,0.5,0.9,0.8l0,0c0.4,0,0.7,0.2,0.9,0.4v0.1c0.1,0.2,0.8,0,0.5,0.1
							c1.2,0.5,2.6,1.1,3.9,1.5c0.2,0,1.1,0.5,0.8,0.1c0.2,0.4,1.2,0.8,1.5,0.9c0,0,0,0-0.1,0c0.6,0.6,0.9,0.1,1.5,0.7
							c0.2-0.2,1.2,0.6,1.7,0.5c0,0.1,0.1,0.1,0,0.2c1.2,0.5,2.5,1.2,3.5,1.7c0.9,0.1,2,0.9,2.9,0.9c0.6,0.4,1.5,0.8,2.5,1.1h-0.1
							c0.9,0.4,2.2,0.8,2.9,0.9c0.1,0.5,0.6,0.6,0.9,0.8c0.7,0.1,2,0.7,3.1,0.9c0.1,0.2,0.8,0.2,0.8,0.5c1.5,0.4,3.1,0.9,4.6,1.7
							c0.8,0.4,1.5,0.7,2.1,1.2c0.6,0.5,1.1,1.1,1.2,1.7l0,0c0.2,0.2,0.6,0.6,0.8,0.9c0,0,0,0-0.1,0c0.1,0.6,0,1.1,0,1.7
							c0,0,0,0-0.1-0.1c0.1,0.6-0.2,1.2,0,1.8h-0.1l0.1,0.4c-0.1,0-0.2,0-0.1-0.2c-0.1,5.1,0.4,10.3,0.2,15.4l-0.1-0.2l0.1,1.1
							c0,0,0,0-0.1-0.1c-0.1,1.3,0.1,2.6,0,3.9c0,0-0.1-0.1-0.1,0c0,0.1,0.1,0.2,0,0.2c-0.1,0-0.1,0-0.2,0c-0.4,0.1-0.6,0.1-0.7,0.5
							c0,0-0.1-0.1,0-0.1c-2.4,1.1-4.8,2.1-7.2,3.1c-1.9,1.2-4.2,1.8-6.1,2.9v-0.1c-2.6,1.3-5.5,2.2-8.3,3.4
							c-1.2,0.5-1.9,0.8-3.1,1.3l-0.1-0.1c-0.5,0.4-1.1,0.6-1.7,0.8c-0.2,0.1-0.6,0.2-0.8,0.4l-0.7,0.2c0-0.5,0-0.7-0.1-1.3
							c-0.1-0.5-0.2-0.9-0.4-1.4l0.1,0.1c-0.2-0.4-0.1-1.3-0.5-1.2v-0.4c-0.7-1.4-0.2-2.7-0.7-4.5l0.1,0.1c-0.1-0.5-0.2-1.1-0.2-1.4
							c0,0,0,0,0.1,0.1c0.1-1.5-0.5-3.2-0.7-4.8l0.2,0.1c-0.2-0.7-0.4-2.2-0.6-3.2h0.1l-0.1-0.5h0.1C142,46.5,141.6,45.2,141.5,44z"
							/>
						<path class="st5" d="M137.9,12.8l-0.1-0.1C137.7,12.8,137.9,12.8,137.9,12.8z"/>
					</g>
				</g>
			</g>
		</g>
	</g>
	<g>
		<path class="st7" d="M138.8,160.9l-98-4.7c-5-0.2-5.9-1.4-5.9-6.4V62.9c0-5.1,0.8-5.8,5.9-5.4l98,3.5c5,0.2,5.9,2,5.9,7.1v87.4
			C144.7,160.5,143.9,161.1,138.8,160.9z"/>
		<g>
			<g>
				<g>
					<g>
						<path class="st5" d="M142.2,161.4c-0.1,0-0.1,0-0.1,0c-0.7,0.2-1.3,0.4-2,0.5C140.9,162,141.6,161.4,142.2,161.4z"/>
						<path class="st5" d="M142.9,161.2c0.8-0.2,1.1-0.7,1.2-0.8c0,0.1-0.4,0.5-0.7,0.6C143.1,161.1,142.8,161.1,142.9,161.2z"/>
						<path class="st5" d="M144.6,77.6l-0.1-0.2c0.2,3.2,0,6.8,0.1,10.3v-0.2c0,8.7,0.1,16.7,0.2,25.4c0-0.1,0-0.2-0.1-0.4
							c0,0.5,0.1,0.8,0.1,1.3c0,0.1-0.1-0.1-0.1-0.2c-0.2,1.8,0.1,5.3,0,6.5c0,0.5,0.1,0.7,0.2,0.5c0,6.7,0.1,13.9,0.2,20.9
							c0,0.4-0.1,0.4-0.1,0.4c0.1,2.9,0.2,5.9,0.2,9c0,1.5,0,3.1,0,4.6c0,0.7,0,1.5-0.1,2.4c-0.1,0.8-0.2,1.5-0.6,2.4
							c0,0.4,0.5-0.6,0.2,0.1c0.6-1.1,0.6-2,0.6-2.9c0-0.9,0-1.8,0-2.6l0.1,0.2c0-1.3-0.2-0.2-0.1-1.5c0.1-0.5,0.1,0.1,0.1-0.1
							c0-2.7,0-5.5-0.1-8.1c0.2-0.6,0-2.9,0.2-3.9c-0.1-0.7,0-1.4-0.2-1.7c0.1-9.4-0.1-19.2-0.1-28.9c-0.4-4.6,0.1-10,0-15.3l0,0
							c-0.1-1.8-0.1-4.4-0.1-6.4l-0.1-1.8c0.1-6.4,0.2-12.7,0.2-19.1c0-0.8,0-1.7-0.1-2.5c-0.1-0.8-0.2-1.7-0.7-2.5
							c-0.5-0.8-1.2-1.4-2-1.7c-0.8-0.4-1.7-0.5-2.5-0.6c-3.3-0.2-6.5-0.2-9.7-0.5c-14.6-0.6-27.4-1.4-41.5-1.4c0,0-0.1-0.1,0.2-0.1
							c-4.1-0.1-7.8-0.4-11.7-0.4l0,0c-9.6,0-19.9-0.8-29.1-0.8c-2.8-0.1-5.7-0.2-8.6-0.4c-0.7,0-1.5,0-2.2,0.2
							c-0.7,0.2-1.4,0.7-1.8,1.4c-0.6,1.4-0.5,3.1-0.5,4.5c0,6,0.1,12.3,0.1,18.2h-0.1c0.1,9.6-0.2,18.7-0.1,28.2
							c-0.1,9.8,0.5,20,0.2,29.9c-0.2,3.1-0.1,6.6,0,10c0,0.8,0.1,1.8,0.2,2.6c0.1,0.8,0.4,1.7,0.8,2.2c0.5,0.6,1.2,0.9,2,1.2
							c0.7,0.2,1.5,0.4,2.2,0.4c11.7,1.2,23.1,1.3,34.9,1.5c10.8,0.7,21.7,0.7,32.2,1.7c5,0,10.5,0.8,16,1.1l-0.2-0.1
							c2,0.4,4.5-0.1,5.7,0.4h-0.2c1.1,0.2,2.5-0.4,3.1-0.1l0.1-0.1c1.3,0,0.1,0.1,1.2,0.2c0.4,0,0.1-0.2,0.9-0.1
							c0.1,0.5,3.1,0.1,3.2,0.6c-0.7,0,1.1,0.2-0.5,0.2c0.5,0.1,2.6,0.1,2.4-0.1c0.2-0.2,1.1-0.4-0.2-0.6l-0.2,0.1
							c-0.5-0.2-0.4-0.1-0.5-0.2c-1.7-0.1-1.9-0.4-3.1-0.5l0,0c-0.8,0.1-2,0-2.6-0.1l-0.2-0.1c-0.4-0.2-1.9,0.2-1.4,0
							c-3.4-0.1-7.4-0.2-11.2-0.5c-0.6,0.1-2.9-0.1-2.1,0.1c-0.9-0.4-3.8-0.5-4.8-0.6c0,0,0.1,0,0.2,0c-2-0.5-2.5,0.2-4.4-0.4
							c-0.4,0.2-3.5-0.2-4.6,0c-0.2-0.1-0.4-0.1-0.2-0.2c-3.4-0.2-7.3-0.5-10.3-0.6c-2.5,0.1-6.1-0.4-8.3-0.1
							c-1.8-0.1-4.7-0.5-7.2-0.5h0.2c-2.8-0.1-6.4-0.2-8.3-0.1c-0.8-0.4-2-0.4-3.3-0.6c-1.9,0.1-5.7-0.1-8.6-0.1
							c-0.5-0.2-2.4,0-2.5-0.2c-4,0-8.6-0.1-13.1-0.4c-1.2-0.1-2.2-0.1-3.3-0.4c-1.1-0.2-2-0.6-2.5-1.4c-0.5-0.8-0.5-2-0.5-3.1
							s0-2.2,0.1-3.3v0.1c-0.1-1.1-0.4-2.4-0.6-3.5c0-0.1,0-0.1,0,0.1c0-1.5,0.2-3.1,0.1-4.6c0,0,0,0,0.1,0.2
							c-0.1-1.5,0.2-3.1,0-4.8l0.1-0.1l-0.1-1.1c0.1,0,0.2,0.1,0.1,0.7c0.1-13.6-0.4-27.5-0.2-41.3l0.1,0.5L36.1,91
							c0,0,0,0.1,0.1,0.2c0.1-3.4-0.1-7,0-10.4c0,0,0.1,0.5,0.1,0c-0.2-2.5,0.2-4-0.1-5.2c0-0.1,0.1-0.2,0.1,0
							c-0.1-3.4-0.1-7-0.1-10.4c0-1.8-0.1-3.5,0.1-5.2c0.1-0.8,0.4-1.7,0.8-2.1c0.6-0.5,1.4-0.6,2.2-0.6c1.4-0.1,2.9-0.1,4.4-0.1
							c1.5,0,3.1,0.1,4.6,0.1c3.1,0.1,6.1,0.2,9.2,0.2v0.1c7.8,0,15.9,0.6,24.1,0.8c3.3,0.1,5.5,0.1,9,0.2l0.1,0.1
							c5.7-0.1,11.8,0.7,17.8,0.6l-0.4,0.1c0.9-0.1,3.5,0.2,3.2-0.1l1.1,0.1c4-0.4,7.3,0.5,12.1,0.4l-0.4,0.1c1.3,0,2.8,0,3.8,0.1
							c-0.1,0-0.1,0-0.4,0c4,0.5,8.6,0.2,13,0.5l-0.5,0.1c0.5,0,1.2,0,1.8,0.1c0.7,0.1,1.4,0.4,2,0.8c1.3,0.9,1.5,2.7,1.7,4
							l-0.1-0.1c0.1,0.5,0.1,0.9,0.1,1.4h-0.1C144.5,70.8,144.6,74.2,144.6,77.6z"/>
					</g>
				</g>
			</g>
		</g>
	</g>
	<g>
		<path class="st4" d="M168.5,141.1c0,0-14.1,13.1-17.2,15.9c-3.1,2.8-6.6,4.7-6.6,2V66.2c0-5.1,0.9-5.2,5.9-7.4l16.5-6.8
			c5.1-2.1,7.2-3.1,7.2,2v74C174.4,133.5,174.1,135.1,168.5,141.1z"/>
		<g>
			<g>
				<g>
					<g>
						<polygon class="st5" points="169,141.6 169.1,141.6 169.2,141.2 						"/>
						<path class="st5" d="M170.3,139.9h-0.1l-0.6,1.2C170.1,140.7,169.9,140,170.3,139.9z"/>
						<path class="st5" d="M170.5,139.7c0.4-0.2,0.4-0.6,0.4-0.7C170.9,139.2,170.3,139.5,170.5,139.7z"/>
						<path class="st5" d="M174.3,89.1l-0.1-0.1c0.2,2,0,4.2,0.1,6.4v-0.1c0,5.3,0.1,10.3,0.2,15.6c0-0.1,0-0.1-0.1-0.2
							c0,0.2,0.1,0.6,0.1,0.8c0,0.1-0.1-0.1-0.1-0.1c-0.2,1.1,0.1,3.3,0,4c0,0.4,0.1,0.5,0.2,0.2c0,4.1,0.1,8.6,0.2,12.7
							c0,0.2-0.1,0.2-0.1,0.2c0.1,1.8,0.2,3.8-0.5,5.7c-0.7,1.9-1.9,3.4-3.1,4.8c0,0.1,0.4-0.2,0.1,0.1c0.8-0.8,1.2-1.9,2-2.7v0.1
							c0.5-0.7-0.1-0.2,0.5-0.9c0.2-0.2,0.1,0.1,0.1,0c0.8-1.5,1.3-3.5,1.1-5.1c0.2-0.4,0-1.8,0.2-2.5c-0.1-0.5,0-0.8-0.2-1.1
							c0.1-5.8-0.1-11.8-0.1-17.7c-0.4-2.8,0.1-6.1,0-9.4l0,0c-0.1-1.1-0.1-2.6-0.1-3.9l-0.1-1.1c0.4-7.8,0.1-15.7,0.2-23.6
							c0-4.5,0.1-8.6,0.1-12.9v-3.1c0-1.1,0-2.1-0.2-3.2c-0.1-0.6-0.4-1.2-0.8-1.7c-0.5-0.5-1.3-0.6-1.9-0.6
							c-1.2,0.1-2.1,0.6-3.2,1.1c0,0-0.1,0,0.1-0.1c-2.4,1.1-4.5,1.8-6.6,2.7l0,0c-2.7,1.3-5.5,2.4-8.3,3.5
							c-1.4,0.6-2.8,1.2-4.1,1.8c-1.3,0.6-2.7,1.2-3.9,2.1c-0.7,0.5-1.2,1.4-1.4,2.2c-0.2,0.9-0.2,1.8-0.2,2.7c0,1.8,0,3.7,0,5.5
							c0,3.8,0.1,7.5,0.1,11.1h-0.1c0.1,5.8-0.2,11.4-0.1,17.3c-0.1,6,0.5,12.3,0.2,18.4c-0.4,3.8,0.5,8.6,0,12.1
							c-0.6,7.2-0.2,14.1,0.1,21.5c0,1.7,0,3.3,0,5c0,0.8,0,1.7,0,2.5c0,0.4,0.1,0.7,0.5,0.9c0.4,0.1,0.7,0,1.1,0
							c2.9-1.2,5.2-3.8,7.8-5.8c2-2.2,5-4.1,7.4-6.5h-0.1c1.1-0.6,1.8-2.1,2.6-2.4l-0.1,0.1c0.6-0.2,0.7-1.4,1.2-1.4v-0.1
							c0.6-0.6,0.1,0,0.6-0.4c0.1-0.1-0.1-0.2,0.4-0.5c0.4,0.2,1.3-1.4,1.7-1.1c-0.4,0.2,0.6-0.4,0,0.4c0.2-0.1,1.2-1.1,0.9-1.2
							c-0.1-0.2,0.2-0.7-0.5-0.4v0.2c-0.4,0.1-0.2,0.1-0.4,0.1c-0.8,0.7-1.1,0.6-1.7,1.1l0,0c-0.2,0.5-0.8,0.8-1.2,1.2h-0.2
							c-0.4,0-0.6,1.1-0.6,0.6c-1.5,1.5-3.3,3.2-5.1,4.7c-0.1,0.4-1.3,1.2-0.8,1.1c-0.6,0.2-2,1.3-2.5,1.8c0,0,0-0.1,0.1-0.1
							c-1.2,0.6-0.9,1.3-2,1.8c0.1,0.4-1.7,1.4-1.9,2.1c-0.1,0-0.2,0-0.2,0c-1.5,1.5-3.4,2.8-4.8,3.7c-0.2,0.2-0.6,0.4-0.9,0.5
							c-0.4,0.1-0.6,0-0.6,0c0-0.1-0.1-0.4-0.1-0.7c0-0.5-0.1-0.8-0.1-1.2c0.1-1.1,0.2-2.8,0.1-4.4v0.1c0-1.8,0-3.9-0.2-5.1
							c0.4-0.5,0.2-1.3,0.4-2c-0.1-1.2-0.1-3.5-0.2-5.3c0.1-0.2-0.1-1.4,0.1-1.5c-0.5-5-0.2-11.1,0-16.4v0.1
							c-0.1-0.7-0.4-1.5-0.6-2.1c0-0.1,0-0.1,0,0.1c0-0.9,0.2-1.9,0.1-2.8c0,0,0,0,0.1,0.1c-0.1-0.9,0.2-1.9,0-2.9l0.1-0.1l-0.1-0.7
							c0.1,0,0.2,0,0.1,0.4c0.1-8.3-0.4-16.9-0.2-25.4l0.1,0.4l-0.1-1.7c0,0,0,0.1,0.1,0.1c0.1-2.1-0.1-4.2,0-6.4c0,0,0.1,0.4,0.1,0
							c-0.2-1.5,0.2-2.5-0.1-3.2c0-0.1,0.1-0.1,0.1,0c-0.1-4.2-0.1-8.5-0.1-12.7c-0.1-0.8-0.1-1.8,0-2.7c0.1-0.9,0.4-1.8,1.1-2.4
							c0.7-0.6,1.5-0.9,2.4-1.4c0.8-0.4,1.7-0.8,2.5-1.2V59c4.2-2,9.1-3.7,13.6-5.7c1.9-0.7,3.2-1.4,5.1-2.1l0.1,0.1
							c0.8-0.4,1.7-0.7,2.5-0.7c0.5,0,0.9,0.1,1.2,0.4c0.4,0.2,0.5,0.7,0.6,1.2c0.1,0.8,0.1,1.8,0.1,2.7c0,0.9,0,1.9,0.1,2.7
							l-0.1-0.2c0.2,0.6-0.1,2.2,0.2,2l-0.1,0.6c0.5,2.5-0.2,4.5,0.1,7.4l-0.1-0.2c0.1,0.8,0.1,1.8,0,2.4c0-0.1,0,0,0-0.2
							c-0.4,2.5,0,5.3,0,7.9l-0.1-0.4c0.2,1.3,0,3.7,0.1,5.3l-0.1-0.1l0.1,0.8h-0.1C174.2,85,174.3,87,174.3,89.1z"/>
						<path class="st5" d="M165.9,142.5c0.1-0.1,0.1-0.1,0.2-0.1C166.2,142.3,166,142.4,165.9,142.5z"/>
					</g>
				</g>
			</g>
		</g>
	</g>
	<g>
		<path class="st4" d="M31.3,22.1c0,0-1.5,1.1,0,2.9l105.3,2.1c0,0-0.7-0.6,0-3.4L31.3,22.1z"/>
		<g>
			<g>
				<g>
					<g>
						<polygon class="st5" points="31.3,22.9 31.4,22.9 31.6,22.8 						"/>
						<path class="st5" d="M33,22.7C32.9,22.7,33,22.6,33,22.7L32,22.9C32.3,23.2,32.7,22.6,33,22.7z"/>
						<path class="st5" d="M33.3,22.7c0.4,0.1,0.6-0.1,0.7-0.1C33.9,22.7,33.3,22.6,33.3,22.7z"/>
						<path class="st5" d="M77.6,22.8l0.1-0.1c-1.8,0.2-3.7-0.1-5.4,0h0.1c-4.6-0.1-8.8,0-13.3,0c0.1,0,0.1,0,0.1-0.1
							c-0.2,0-0.5,0.1-0.7,0.1c-0.1,0,0.1-0.1,0.1-0.1c-0.9-0.2-2.8,0.1-3.4-0.1c-0.2,0-0.4,0.1-0.2,0.2c-3.5,0-7.4,0-11,0.1
							c-0.1,0-0.2-0.1-0.1-0.1c-3.1,0.4-6.4,0.1-9.6,0c-0.1,0.1,0.4,0.1,0,0.2c1.1,0.1,1.9-0.2,2.8,0l-0.1,0.1
							c0.7,0.1,0.1-0.2,0.8-0.1c0.2,0.1-0.1,0.1,0,0.1c1.4,0,2.9,0.1,4.2-0.1c0.4,0.2,1.5,0,2.1,0.2c0.4-0.1,0.7,0,0.9-0.1
							c5,0.2,10.1,0.1,15.2,0.1c2.4-0.4,5.3,0.1,8.1,0.1l0,0c0.9-0.1,2.2-0.1,3.4,0l0.9-0.1c6.7,0.5,13.4,0.4,20.3,0.6
							c7.7,0.2,14.4,0.6,21.9,0.2c0,0,0,0-0.1,0.1c2.1,0,4.1,0.1,6.1,0.1l0,0c2.5-0.1,5.2-0.1,7.8,0c1.3,0,2.6,0,3.9,0
							c0.6,0,1.3,0,1.9,0h0.9h0.8h0.1c-0.1,0.4-0.1,0.7-0.2,1.2c0,0.5-0.1,0.9,0,1.4c0,0.1,0,0.4,0.1,0.5c0,0,0,0.1,0.1,0.1h-0.1
							c-0.1,0-0.2,0-0.4,0c-2.4,0-4.7-0.1-7.2-0.1s-5,0-7.4-0.1v-0.1c-5.1,0-9.9-0.5-14.9-0.5c-5.2-0.2-10.6,0.2-15.8-0.1
							c-3.2-0.5-7.4,0.2-10.5-0.1c-6.2-0.7-12.3-0.5-18.4-0.2c-5.8-0.4-11.4,0.1-17-0.5c-2.6,0.2-5.5-0.5-8.5-0.5l0.1,0.1
							c-1.1-0.4-2.4,0.4-2.9-0.1h0.1c-0.6-0.2-1.3,0.5-1.7,0.2L32,25.5c-0.4,0-0.5,0-0.5-0.1c0,0,0,0,0-0.1c0,0,0,0-0.1,0
							c0,0,0-0.1-0.1-0.1c-0.1-0.1-0.2,0.1-0.4-0.4c0.1-0.1-0.1-0.5-0.1-0.9c-0.1-0.4,0-0.8,0.2-0.7c-0.1,0.2,0.4-0.4,0.2,0.2
							c0-0.1,0.1-0.4,0.2-0.5c0.1-0.2,0.2-0.4,0.1-0.4c0-0.2,0.2-0.7-0.5-0.4c0,0.1,0,0.1,0,0.2c-0.2,0.1-0.2,0.1-0.4,0.1
							c-0.4,0.5-0.4,0.7-0.5,1.1c-0.1,0.2-0.1,0.6,0,0.9l0,0c0.2,0.2,0.4,0.5,0.5,0.7c0.1,0.1,0.2,0.4,0.4,0.5
							c0.1,0.1,0.4,0.1,0.5,0.1l0.2,0.1c0.2,0.2,1.1-0.4,0.8,0c1.8,0,3.9,0,5.9,0c0.2-0.1,1.5,0,1.1-0.2c0.5,0.2,2,0.4,2.6,0.4
							c0,0,0,0-0.1,0c1.1,0.4,1.3-0.2,2.4,0.1c0.1-0.2,1.9,0.1,2.5-0.2c0.1,0.1,0.1,0.1,0.1,0.2c1.9,0,3.9,0.2,5.4,0.2
							c1.3-0.2,3.2,0.2,4.4-0.1c0.9,0.1,2.5,0.2,3.8,0.1h-0.1c1.5,0,3.3,0,4.4-0.1c0.5,0.4,1.1,0.2,1.8,0.5c0.9-0.1,3.1,0,4.5-0.1
							c0.2,0.1,1.3,0,1.3,0.2c4.2-0.4,9.6-0.1,14,0.4h-0.1c0.6-0.1,1.3-0.4,1.9-0.5c0,0,0,0-0.1,0c0.8,0,1.7,0.2,2.5,0.2
							c0,0,0,0-0.1,0.1c0.8-0.1,1.7,0.2,2.5,0v0.1l0.6-0.1c0,0.1,0,0.2-0.4,0.1c7.2,0.2,14.5,0,21.8,0.2l-0.2,0.1l1.4-0.1
							c0,0-0.1,0-0.1,0.1c1.8,0.1,3.7,0,5.4,0c0,0-0.2,0.1,0,0.1c1.3-0.2,2.1,0.4,2.7-0.1c0.1,0,0.1,0.1,0,0.1c3.7-0.1,7.3,0,11,0.1
							c0.2,0,0.7,0,1.1-0.1c0.1-0.1,0.2-0.1,0.2-0.2l0.1-0.1v-0.1c0-0.1,0-0.4,0-0.6c0-0.4,0-0.5,0-0.7c0-0.2,0-0.5,0-0.7
							c0-0.4,0.2-1.1,0.4-1.7h-1.4h-1.2c-0.8,0-1.5,0-2.4,0.1v-0.1c-4.1,0.2-8.5-0.1-12.7-0.1c-1.8,0-2.9,0-4.7,0v-0.1
							c-2.9,0.4-6.2-0.5-9.4-0.1l0.2-0.1c-0.5,0.2-1.9-0.1-1.7,0.2l-0.6-0.1c-2.1,0.5-3.9-0.2-6.5,0l0.1-0.1c-0.7,0-1.5,0.1-2,0
							c0.1,0,0,0,0.2,0c-2.1-0.4-4.6,0-6.8-0.1l0.2-0.1c-1.1,0.1-3.1,0-4.6,0l0.1-0.1l-0.7,0.1v-0.1C81.3,22.7,79.4,22.8,77.6,22.8z
							"/>
						<path class="st5" d="M30.2,24.6c0-0.1,0-0.2-0.1-0.2C30.1,24.4,30.2,24.5,30.2,24.6z"/>
					</g>
				</g>
			</g>
		</g>
	</g>
	<g>
		<path class="st7" d="M31.3,25.1L36,44.5c0,0,102.9,1.7,103.4,1.9c0.5,0.2-2.8-19.2-2.8-19.2L31.3,25.1z"/>
		<g>
			<g>
				<g>
					<g>
						<polygon class="st5" points="31.3,25.9 31.4,25.9 31.6,25.8 						"/>
						<path class="st5" d="M33.3,25.6C33.2,25.6,33.3,25.5,33.3,25.6L32,25.9C32.5,26.1,32.9,25.5,33.3,25.6z"/>
						<path class="st5" d="M33.6,25.6c0.5,0.1,0.6-0.1,0.7-0.1C34.2,25.6,33.5,25.5,33.6,25.6z"/>
						<path class="st5" d="M84.1,26.1l0.1-0.1c-2,0.2-4.1-0.1-6.2,0h0.1c-5.2-0.1-10,0-15.2,0c0.1,0,0.1,0,0.2-0.1
							c-0.2,0-0.6,0.1-0.8,0.1c-0.1,0,0.1-0.1,0.1-0.1c-1.1-0.2-3.2,0.1-3.9-0.1c-0.4,0-0.5,0.1-0.2,0.1c-4,0-8.4-0.1-12.6,0
							c-0.2,0-0.2-0.1-0.2-0.1c-3.5,0.2-7.3,0.1-10.8-0.1c-0.1,0.1,0.4,0.1,0,0.2c1.2,0.1,2.1-0.2,3.2,0L37.6,26
							c0.8,0.1,0.1-0.2,0.9-0.1c0.4,0.1-0.1,0.1,0.1,0.1c1.7,0,3.3,0.1,4.8-0.1c0.4,0.2,1.8,0,2.4,0.2c0.5-0.1,0.8,0,1.1-0.1
							c5.7,0.2,11.6,0.1,17.5,0.2c2.7-0.4,6,0.2,9.3,0.1l0,0c1.1-0.1,2.6-0.1,3.9,0l1.1-0.1c7.7,0.5,15.4,0.4,23.1,0.7
							c8.8,0.2,16.5,0.7,25,0.4c0,0,0,0-0.1,0.1c2.5,0,4.7,0.1,7.1,0.1l0,0c0.7,0,1.4,0,2.2,0h0.4h0.1c0,0,0,0,0,0.1v0.1l0.2,0.9
							c0.2,1.4,0.5,2.9,0.7,4.4c0.5,2.9,0.9,5.9,1.5,8.6c0.1,0.8,0.2,1.7,0.4,2.6c0,0.5,0.1,0.8,0.1,1.3c0,0.2,0,0.4,0,0.6
							c0,0.1-0.1,0-0.2,0.1h-0.4c-5.1-0.1-10.8-0.2-16.2-0.2v-0.1c-5.8,0-11.3-0.5-17-0.5c-5.9-0.2-12.1,0.2-18-0.1
							c-3.7-0.5-8.5,0.2-11.9-0.1c-7.1-0.7-13.9-0.5-21.1-0.2c-3.1-0.1-6.2-0.1-9.3-0.1c-1.5,0-3.1,0-4.6,0c-0.7,0-1.5,0-2.2-0.1
							c-0.8,0-1.5-0.1-2.4-0.1c-0.1-0.4-0.1-0.7-0.2-0.9c-0.9-2.8-1.2-6.2-2-9.4l-0.1,0.1c0-1.2-1.1-2.5-0.8-3.3v0.1
							c0-0.7-0.8-1.3-0.7-1.8l-0.1-0.1c-0.2-0.7,0.1-0.1,0-0.7c-0.1-0.2-0.2,0-0.2-0.5c0.4-0.2-0.6-1.8-0.1-2c0.1,0.4,0-0.7,0.4,0.2
							c0-0.2-0.4-1.5-0.5-1.4c-0.2,0-0.6-0.5-0.5,0.4l0.2,0.1c-0.1,0.2,0,0.2-0.1,0.4c0.2,0.9,0,1.2,0.1,1.9l0,0
							c0.4,0.5,0.4,1.2,0.5,1.5v0.1c-0.1,0.2,0.6,1.1,0.2,0.8c0.6,2,1.2,4.4,1.7,6.6c0.2,0.2,0.4,1.8,0.5,1.2
							c-0.1,0.6,0.2,2.4,0.4,2.9c0,0-0.1,0-0.1-0.1c0,1.3,0.7,1.4,0.5,2.6c0.2,0.1,0.2,0.5,0.6,1.9c0.2,0,0.5,0,0.7,0
							c0.2,0,0.5,0,0.6,0c0.2,0,0.5,0,0.6-0.1c0.1,0.1,0.2,0.1,0.1,0.2c2.1,0,4.4,0.2,6.2,0.2c1.5-0.2,3.7,0.2,5-0.1
							c1.1,0.1,2.8,0.2,4.4,0.1H53c1.7,0,3.9,0,5-0.2c0.5,0.4,1.2,0.2,2,0.5c1.2-0.1,3.4,0,5.2-0.1c0.2,0.1,1.4,0,1.5,0.2
							c4.8-0.4,10.8-0.1,16,0.4h-0.1c0.7-0.1,1.4-0.4,2.1-0.5c0.1,0,0,0-0.1,0c0.9,0,1.9,0.2,2.8,0.2c0,0,0,0-0.1,0.1
							c0.9-0.1,1.9,0.2,2.8,0v0.1l0.7-0.1c0,0.1,0,0.2-0.4,0.1c8.1,0.2,16.5,0,24.9,0.2l-0.4,0.1l1.7-0.1c0,0-0.1,0-0.1,0.1
							c2,0.1,4.2,0,6.2,0.1c0,0-0.4,0.1,0,0.1c1.5-0.1,2.4,0.4,3.2-0.1c0.1,0,0.1,0.1,0,0.1c4.1,0,8.5,0,12.5,0.2c0.2,0,0.4,0,0.6,0
							s0.6,0,0.7-0.1c0.1-0.2,0.1-0.5,0-0.8l-0.1-0.7l-0.1-0.7c-0.1-0.8-0.2-1.8-0.4-2.6c-0.2-1.8-0.6-3.5-0.9-5.2h0.1
							c-0.5-2.2-0.8-4.7-1.3-7.1l-0.2-1.9l-0.1-0.5c-0.1-0.1-0.4,0-0.5,0h-0.9c-1.2,0-2.5-0.1-3.7-0.1c-2-0.1-3.4,0-5.4,0v-0.1
							c-3.4,0.4-7.2-0.5-10.7-0.1l0.2-0.1c-0.6,0.2-2.1-0.1-1.9,0.2l-0.6-0.1c-2.5,0.4-4.4-0.4-7.3-0.1l0.2-0.1
							c-0.8,0-1.7,0.1-2.2,0c0.1,0,0,0,0.2,0c-2.5-0.4-5.2-0.1-7.8-0.1l0.4-0.1c-1.3,0.1-3.5-0.1-5.2,0l0.1-0.1l-0.8,0.1v-0.1
							C88.2,26,86.2,26.1,84.1,26.1z"/>
					</g>
				</g>
			</g>
		</g>
	</g>
	<g>
		<g>
			<path class="st7" d="M69.8,86.5c0.5,0.7,0.7,1.4,0.7,2.4c0,0.9-0.2,1.7-0.7,2.2c-0.2,0.4-0.7,0.6-1.2,0.8
				c0.8,0.4,1.4,0.8,1.8,1.4c0.4,0.6,0.6,1.4,0.6,2.2c0,0.9-0.2,1.7-0.7,2.4c-0.2,0.5-0.6,0.8-1.1,1.2c-0.5,0.4-1.1,0.6-1.8,0.7
				c-0.7,0.1-1.4,0.1-2.1,0.1l-6.8-0.4V84.2l7.3,0.4C67.8,84.7,69.1,85.3,69.8,86.5z M61.6,87.1v3.4l3.7,0.2c0.7,0,1.2-0.1,1.7-0.2
				c0.4-0.2,0.6-0.7,0.6-1.3c0-0.7-0.2-1.2-0.8-1.4c-0.5-0.2-1.1-0.4-1.8-0.4L61.6,87.1z M61.6,93v4.1l3.7,0.2c0.7,0,1.2,0,1.5-0.2
				c0.7-0.4,0.9-0.9,0.9-1.9c0-0.8-0.4-1.4-0.9-1.7c-0.4-0.2-0.8-0.4-1.5-0.4L61.6,93z"/>
			<g>
				<path class="st8" d="M69.8,86.5c0.5,0.7,0.7,1.4,0.7,2.4c0,0.9-0.2,1.7-0.7,2.2c-0.2,0.4-0.7,0.6-1.2,0.8
					c0.8,0.4,1.4,0.8,1.8,1.4c0.4,0.6,0.6,1.4,0.6,2.2c0,0.9-0.2,1.7-0.7,2.4c-0.2,0.5-0.6,0.8-1.1,1.2c-0.5,0.4-1.1,0.6-1.8,0.7
					c-0.7,0.1-1.4,0.1-2.1,0.1l-6.8-0.4V84.2l7.3,0.4C67.8,84.7,69.1,85.3,69.8,86.5z M61.6,87.1v3.4l3.7,0.2c0.7,0,1.2-0.1,1.7-0.2
					c0.4-0.2,0.6-0.7,0.6-1.3c0-0.7-0.2-1.2-0.8-1.4c-0.5-0.2-1.1-0.4-1.8-0.4L61.6,87.1z M61.6,93v4.1l3.7,0.2c0.7,0,1.2,0,1.5-0.2
					c0.7-0.4,0.9-0.9,0.9-1.9c0-0.8-0.4-1.4-0.9-1.7c-0.4-0.2-0.8-0.4-1.5-0.4L61.6,93z"/>
				<g>
					<g>
						<g>
							<path class="st5" d="M61.7,93.4L61.7,93.4l-0.1,0.2C61.7,93.9,61.7,93.3,61.7,93.4z"/>
							<path class="st5" d="M61.7,93.4c0,0.1,0-0.1,0.1-0.1C61.8,93.4,61.7,93.3,61.7,93.4z"/>
							<path class="st5" d="M65.6,93.1V93c-0.1,0.2-0.4,0-0.5,0.1l0,0c-0.4-0.1-0.8,0.1-1.2,0.2c0,0,0,0,0-0.1c0,0,0,0.1-0.1,0.1
								v-0.1c-0.1-0.2-0.2,0.1-0.4,0c0,0,0,0.1,0,0.2c-0.4,0-0.6,0.1-0.9,0.2v-0.1c-0.2,0.4-0.6,0.2-0.8,0.1c0,0.1,0,0.1,0,0.2
								c0.1,0.1,0.1-0.2,0.2,0V94c0,0.1,0-0.2,0.1-0.1c0,0.1,0,0.1,0,0.1c0.1,0,0.2,0,0.4-0.1c0,0.2,0.1,0,0.1,0.2
								c0-0.1,0.1,0,0.1-0.2c0.5,0.1,0.9,0,1.3,0c0.2-0.4,0.5,0.1,0.7,0l0,0c0.1-0.1,0.2-0.1,0.4-0.1l0.1-0.1
								c0.5,0.4,1.2,0.2,1.5,0.6c0.2,0.1,0.2,0.4,0.4,0.6s0.2,0.4,0.5,0.6c0,0,0,0-0.1,0c0.1,0.1-0.1,0.4,0,0.5l0,0
								c0.1,0.2,0.1,0.5,0,0.6s-0.2,0.4-0.2,0.6c-0.4,0.2-0.9,0.4-1.5,0.5v-0.1c-0.5,0.1-0.8-0.2-1.3-0.2c-0.5-0.2-0.9,0.4-1.4,0.1
								c-0.2-0.4-0.7,0.4-0.9,0c-0.1-0.1-0.1-0.2-0.2-0.4c0-0.1,0-0.2-0.1-0.4c-0.1-0.1-0.2-0.4-0.4-0.5c0.2-0.5-0.4-0.9,0.1-1.5
								c-0.2-0.2,0.4-0.5,0.2-0.7h-0.1c0.2-0.1-0.4-0.2,0-0.2l0,0c0.2,0-0.5-0.1-0.2-0.1h-0.1h0.1c0,0-0.2,0-0.1,0
								c0.5,0-0.1-0.1,0.4-0.1h0.2c0,0,0-0.1-0.2-0.1c-0.2,0-0.4,0-0.6,0H61c-0.1,0-0.1,0-0.2,0c0,0.1-0.2,0.1-0.4,0.1l0,0
								c0.2,0,0.1,0.1,0,0.1h-0.1c-0.2,0,0.4,0.1,0,0.1c0.1,0.1,0.1,0.4,0.1,0.5c0.1,0,0,0.1,0.2,0.1c-0.2,0-0.4,0.1-0.4,0.2l0,0
								c-0.4,0.1,0.4,0.1-0.1,0.2c0.2,0-0.1,0.1,0.2,0.2c-0.1,0-0.1,0-0.1,0c0,0.1-0.1,0.4-0.1,0.5c0.2,0.1-0.1,0.2,0.2,0.4
								c-0.1,0.1-0.2,0.2-0.1,0.4l0,0c0,0.1,0,0.2,0.2,0.4c-0.4,0-0.2,0.1-0.4,0.2c0.1,0.1,0.1,0.5,0.2,0.6
								c-0.1,0.1,0.1,0.1-0.1,0.4c0.1,0.1,0.1,0.1,0.2,0.2c0.4-0.1,0.6-0.1,0.8,0c0.1,0,0.2,0.1,0.4,0.1s0.1,0.1,0.2,0.2l0,0
								c0-0.1,0.1-0.4,0.2-0.6l0,0c0.1,0,0.1,0.2,0.2,0.1c0,0,0,0,0,0.1c0.1-0.1,0.1,0.2,0.2,0V98v-0.1c0,0.1,0,0.2,0,0.1
								c0.6,0.1,1.3-0.2,1.9-0.1V98l0.1-0.1c0,0,0,0,0,0.1c0.1,0.1,0.4-0.1,0.5,0v0.1c0.1-0.2,0.2,0.2,0.2-0.1v0.1
								c0.4-0.1,0.7-0.2,1.1-0.4c0.1-0.5,0.6-0.4,0.6-0.8h0.1c0-0.5,0.4-0.7,0.4-1.2c0-0.1,0-0.2,0-0.5h0.1
								c-0.2-0.1-0.1-0.2-0.1-0.5c0-0.1,0-0.4-0.2-0.4h0.1c-0.2,0,0-0.2-0.4,0l0.1-0.1c-0.5,0.1,0-0.5-0.5-0.4h0.1
								c-0.1,0-0.1,0-0.1-0.1l0,0c0-0.4-0.4-0.2-0.6-0.2l0.1-0.1c-0.1,0.1-0.2-0.1-0.5,0v-0.1l-0.1,0.1v-0.1
								C65.9,93,65.8,93.1,65.6,93.1z"/>
						</g>
					</g>
				</g>
				<g>
					<g>
						<g>
							<path class="st5" d="M61.7,87.6L61.7,87.6l-0.1,0.2C61.7,88,61.7,87.4,61.7,87.6z"/>
							<path class="st5" d="M61.7,87.6c0,0.1,0-0.1,0.1-0.1C61.8,87.6,61.7,87.4,61.7,87.6z"/>
							<path class="st5" d="M65.2,87.2v-0.1c-0.1,0.2-0.2,0-0.5,0.1l0,0c-0.4-0.1-0.7,0.1-1.1,0.2c0,0,0,0,0-0.1c0,0,0,0.1-0.1,0.1
								v-0.1c-0.1-0.2-0.2,0.1-0.2,0c0,0,0,0.1,0,0.2c-0.2,0-0.6,0.1-0.8,0.2v-0.1c-0.2,0.4-0.5,0.2-0.7,0.1c0,0.1,0,0.1,0,0.2
								c0.1,0.1,0.1-0.2,0.2,0v0.1c0,0.1,0-0.2,0.1-0.1c0,0.1,0,0.1,0,0.1c0.1,0,0.2,0,0.4-0.1c0,0.2,0.1,0,0.1,0.2
								c0-0.1,0.1,0,0.1-0.2c0.4,0.1,0.8,0,1.2,0c0.2-0.4,0.4,0.1,0.6,0l0,0c0.1-0.1,0.2-0.1,0.2-0.1l0.1-0.1
								c0.5,0.4,1.1,0.2,1.4,0.5c0.1,0,0.1,0.1,0.1,0.1l0.1,0.1c0.1,0.1,0.1,0.1,0.1,0.2c0.1,0.1,0.2,0.2,0.5,0.5c0,0,0,0-0.1,0
								c0.1,0.1,0,0.2,0,0.4l0,0c0.1,0.2,0.1,0.4,0,0.5c-0.1,0.1-0.1,0.2-0.2,0.5c-0.4,0.2-0.8,0.4-1.3,0.5v-0.1
								c-0.4,0.1-0.7-0.2-1.2-0.1c-0.4-0.2-0.8,0.4-1.3,0.1c-0.2-0.4-0.6,0.4-0.8,0c-0.2-0.4-0.2-0.4-0.5-0.2
								c-0.1-0.1-0.2-0.2-0.4-0.5c0.2-0.5-0.4-0.9,0.1-1.4c-0.2-0.2,0.4-0.5,0.2-0.7h-0.1c0.2-0.1-0.4-0.2,0-0.2l0,0
								c0.2,0-0.5-0.1-0.2-0.1h-0.1h0.1c0,0-0.2,0-0.1,0c0.5,0-0.1-0.1,0.4-0.1h0.2c0,0,0-0.1-0.2-0.1c-0.2,0-0.4,0-0.6,0h0.1
								c-0.1,0-0.1,0-0.2,0c0,0.1-0.2,0.1-0.4,0.1l0,0c0.2,0,0.1,0.1,0,0.1h-0.1c-0.2,0,0.4,0.1,0,0c0.1,0.1,0.1,0.4,0.1,0.5
								c0.1,0,0,0.1,0.2,0.1c-0.2,0-0.4,0.1-0.4,0.2l0,0c-0.4,0.1,0.4,0.1-0.1,0.2c0.2,0-0.1,0.1,0.2,0.2c-0.1,0-0.1,0-0.1,0
								c0,0.1-0.1,0.4-0.1,0.5c0.2,0.1-0.1,0.2,0.2,0.4c-0.1,0.1-0.2,0.2-0.1,0.4l0,0c0,0.1,0,0.5,0.2,0.5c-0.4,0.2-0.2,0.2-0.4,0.5
								c0.1,0.1,0.1,0.4,0.2,0.5h0.1c-0.1,0.1,0.2,0,0,0.1c0.9-0.4,1.4-0.2,1.7,0.1l0,0c0-0.1,0.1-0.4,0.2-0.6l0,0
								c0.1,0,0.1,0.2,0.2,0.1c0,0,0,0,0,0.1c0.1-0.1,0.1,0.2,0.2,0v0.1v-0.1c0,0.1,0,0.2,0,0.1c0.6,0.1,1.2-0.2,1.8-0.1v0.1
								l0.1-0.1c0,0,0,0,0,0.1c0.1,0.1,0.4-0.1,0.5,0v0.1c0.1-0.2,0.2,0.2,0.2-0.1v0.1c0.4-0.1,0.6-0.2,0.9-0.2
								c0.1-0.2,0.1-0.4,0.4-0.4c0.1-0.1,0.2-0.2,0.2-0.4h0.1c0-0.5,0.2-0.7,0.2-1.1c0-0.1-0.1-0.2-0.1-0.4h0.1
								c-0.2-0.1-0.1-0.2-0.1-0.4c0-0.1,0-0.4-0.2-0.4l0.1-0.1c-0.2,0.1,0-0.2-0.4,0.1v-0.1c-0.4,0.2-0.1-0.4-0.5-0.2v-0.1
								c-0.1,0-0.1,0.1-0.1,0l0,0c-0.1-0.4-0.4-0.1-0.6-0.1v-0.1c-0.1,0.1-0.2,0-0.4,0v-0.1l-0.1,0.1v-0.1
								C65.6,87.1,65.4,87.2,65.2,87.2z"/>
						</g>
					</g>
				</g>
				<g>
					<g>
						<g>
							<polygon class="st5" points="70.5,86 70.5,85.9 70.4,85.9 							"/>
							<path class="st5" d="M69.9,85.8L69.9,85.8c0.1,0.1,0.2,0.1,0.4,0.1C70.4,85.7,69.9,85.9,69.9,85.8z"/>
							<path class="st5" d="M69.9,85.7c0-0.1-0.1,0-0.2,0C69.8,85.5,69.8,85.8,69.9,85.7z"/>
							<path class="st5" d="M59.1,84.4v0.1c0.2-0.2,0.8,0,1.2,0l0,0c1.1,0.1,2.1,0,3.3-0.1c0,0,0,0,0,0.1c0,0,0.1-0.1,0.2-0.1v0.1
								c0.2,0.2,0.7-0.1,0.8,0.1c0.1,0,0.1-0.1,0.1-0.2c0.8,0,1.8,0,2.8,0v0.1c0.8-0.1,1.8,0.4,2.2,1.1c0.1,0,0-0.1,0.1-0.1
								c-0.1-0.2-0.6-0.1-0.7-0.5h0.1c-0.1-0.1-0.1,0.1-0.2,0c0-0.1,0.1-0.1,0-0.1c-0.4-0.1-0.7-0.5-1.2-0.4c0-0.2-0.4-0.1-0.5-0.4
								c-0.1,0-0.2,0-0.2,0.1c-1.3-0.4-2.5-0.1-3.8-0.2c-0.6,0.4-1.3-0.1-2,0l0,0c-0.2,0.1-0.6,0.1-0.8,0l-0.2,0.1
								C60.2,84,59.8,84,59.6,84c-0.4,0-0.8-0.1-1.3-0.1c0,0.7,0,1.3,0,2c0,0.6,0,1.1,0,1.7c-0.1,1.9-0.4,3.5,0.1,5.3c0,0,0,0-0.1,0
								c0.1,0.5-0.1,1.1,0,1.5l0,0c0.4,1.2,0,2.6,0.2,3.8c0,0.5,0,1.1,0,1.5c0.6,0,1.2,0,1.7,0.1c0.6,0,1.1,0,1.7,0v0.1
								c1.2-0.1,2.4,0.4,3.7,0.4c1.3,0.2,2.6-0.4,3.8-0.8c0.5,0,0.7-0.5,0.9-0.8c0.2-0.5,0.4-0.8,0.6-1.1c1.1-1.3,0.6-3.3-0.6-4.1
								c-0.1-0.2-0.4-0.5-0.7-0.7c-0.4-0.2-0.7-0.4-1.2-0.6c0.4-0.2,0.8-0.5,1.2-0.7c0.2-0.2,0.5-0.5,0.7-0.7c0-0.6,0.6-1.3,0.5-2
								h-0.1c0.2-0.4-0.5-0.5-0.1-0.7l0,0c0.1-0.2-0.6-0.1-0.4-0.4h-0.1c-0.1-0.1,0.1-0.1,0.1-0.2c0,0-0.2,0-0.1,0
								c0.4-0.2-0.2-0.4,0.1-0.6c0,0.1,0.1-0.2,0.2-0.1c0-0.1-0.2-0.4-0.4-0.2c-0.2,0.1-0.4,0.1-0.5,0.4l0.1-0.1
								c-0.1,0.1,0,0.1-0.1,0.1c0.1,0.2-0.1,0.4-0.1,0.5l0,0c0.2,0,0.1,0.1,0.1,0.2h-0.1c-0.1,0.1,0.4,0.1,0.1,0.1
								c0.2,0.4,0.2,0.8,0.2,1.2c0.1,0.1,0,0.4,0.2,0.2c-0.2,0.1-0.4,0.4-0.4,0.5l0,0c-0.4,0.1,0.2,0.4-0.2,0.4
								c0.2,0.1-0.2,0.2,0,0.5c-0.1,0-0.1,0-0.1-0.1c0,0.1-0.1,0.1-0.1,0.2L69,90.6c-0.1,0.1-0.1,0.1-0.2,0.2
								c-0.4,0.2-0.9,0.5-1.4,0.6c-0.1,0.1-0.2,0.2-0.6,0.4c0.5,0.2,0.9,0.5,1.7,0.6c0.1,0.1,0.4,0.2,0.6,0.5l0.2,0.2
								c0,0,0.1,0.1,0.2,0.1l0,0c0.2,0.2,0.5,0.5,0.7,0.6c-0.2,0.2-0.1,0.4-0.2,0.5c0.2,0.1,0.2,0.6,0.5,0.8
								c-0.1,0.1,0.1,0.2-0.1,0.2c0.2,0.5,0.2,1.1,0,1.5c-0.2,0.5-0.6,0.9-1.1,1.1l0,0c0,0.1,0.1,0.5,0.1,0.7l0,0
								c-0.1,0.1-0.4,0.1-0.5,0.2c0,0,0,0,0-0.1c-0.1,0.2-0.4,0-0.5,0.2l0,0l-0.1,0.1c0-0.1-0.1-0.2,0-0.2c-1.3,0.5-3.2,0.6-5.1,0.5
								l0.1-0.1L63,99.3c0,0,0,0,0-0.1c-0.5-0.1-0.9,0-1.3,0c0,0,0.1-0.1,0-0.1c-0.4,0.2-0.5-0.2-0.7,0.1v-0.1c-0.4,0-0.8,0-1.2,0
								c-0.5,0-0.7,0-0.8-0.1v-0.1c-0.1,0-0.1-0.1-0.1-0.2c0-0.2,0-0.4,0-0.6c0-0.4,0-0.8-0.1-1.2h0.1c-0.2-0.9,0-2,0-3.1
								c0-0.5-0.1-0.7-0.1-1.2h0.1c-0.4-0.7,0.4-1.5-0.1-2.2h0.1c-0.2-0.1,0.1-0.5-0.2-0.5l0.1-0.1c-0.5-0.5,0.2-0.9-0.1-1.5h0.1
								c-0.1-0.1-0.1-0.4,0-0.5l0,0c0.4-0.5,0-1.1,0-1.7l0.1,0.1c-0.2-0.2,0-0.7-0.1-1.1h0.1l-0.1-0.1h0.1c0-0.2,0-0.4-0.1-0.7
								C58.9,84.4,59,84.4,59.1,84.4z"/>
						</g>
					</g>
				</g>
			</g>
		</g>
		<g>
			<path class="st7" d="M85.5,99.6c-1.2,1.2-2.8,1.7-5,1.5s-3.9-0.8-5-2c-1.5-1.5-2.4-3.7-2.4-6.4c0-2.8,0.8-4.8,2.4-6.1
				c1.2-1.2,2.8-1.7,5-1.5c2.1,0.1,3.8,0.8,5,2c1.5,1.5,2.4,3.7,2.4,6.4C87.8,96.2,87,98.2,85.5,99.6z M83.5,97.1
				c0.7-0.9,1.1-2.2,1.1-3.9c0-1.8-0.4-3.1-1.1-4c-0.7-0.9-1.8-1.5-2.9-1.5c-1.3-0.1-2.2,0.4-3.1,1.2c-0.7,0.9-1.2,2.2-1.2,3.9
				c0,1.8,0.4,3.1,1.2,4c0.7,0.9,1.8,1.5,3.1,1.5C81.7,98.5,82.8,98,83.5,97.1z"/>
			<g>
				<path class="st8" d="M85.5,99.6c-1.2,1.2-2.8,1.7-5,1.5s-3.9-0.8-5-2c-1.5-1.5-2.4-3.7-2.4-6.4c0-2.8,0.8-4.8,2.4-6.1
					c1.2-1.2,2.8-1.7,5-1.5c2.1,0.1,3.8,0.8,5,2c1.5,1.5,2.4,3.7,2.4,6.4C87.8,96.2,87,98.2,85.5,99.6z M83.5,97.1
					c0.7-0.9,1.1-2.2,1.1-3.9c0-1.8-0.4-3.1-1.1-4c-0.7-0.9-1.8-1.5-2.9-1.5c-1.3-0.1-2.2,0.4-3.1,1.2c-0.7,0.9-1.2,2.2-1.2,3.9
					c0,1.8,0.4,3.1,1.2,4c0.7,0.9,1.8,1.5,3.1,1.5C81.7,98.5,82.8,98,83.5,97.1z"/>
				<g>
					<g>
						<g>
							<polygon class="st5" points="82.9,96.6 82.8,96.6 82.9,96.7 							"/>
							<path class="st5" d="M82.9,97C82.9,97,83,97,82.9,97l-0.1-0.2C82.7,96.6,83,97.1,82.9,97z"/>
							<path class="st5" d="M82.9,97c-0.1,0,0,0.1,0,0.1C82.9,97,83,97.1,82.9,97z"/>
							<path class="st5" d="M77.6,97.2L77.6,97.2c0.2,0.1,0.2,0.5,0.6,0.6l0,0c0.5,0.5,1.2,0.5,1.9,0.5c0,0,0,0,0,0.1l0.1-0.1v0.1
								c0.1,0.2,0.4-0.1,0.5,0.1c0,0,0-0.1,0-0.2c0.5,0,0.9-0.1,1.3-0.5c0,0,0,0.1,0.1,0.1c0.2-0.5,0.6-0.5,0.9-0.7
								c0-0.1-0.1,0-0.1-0.1c-0.1,0,0,0.4-0.2,0.2v-0.1c-0.1,0,0.1,0.2,0,0.1c-0.1,0-0.1-0.1-0.1-0.1c-0.1,0.1-0.2,0.1-0.4,0.4
								c-0.1-0.1-0.1,0.1-0.2-0.1c0,0.1-0.1,0.1,0,0.2c-0.6,0.1-1.2,0.2-1.9,0.1c-0.4,0.4-0.6-0.2-0.9-0.4l0,0c-0.1,0-0.4,0-0.4-0.1
								h-0.2c-0.5-0.8-1.1-1.4-1.2-2.4c-0.2-1.1,0-1.9-0.4-2.9c0,0,0,0,0.1,0c0-0.4,0.1-0.6,0.1-0.8l0,0c-0.2-0.7,0.4-1.3,0.4-2
								c0.5-0.7,1.2-1.3,2-1.5v0.1c0.7-0.4,1.4,0.1,2,0.1c0.4,0.1,0.7,0.2,1.1,0.2c0.4,0.1,0.7,0.2,0.9,0.6c0,0.2,0.2,0.4,0.5,0.6
								c0.2,0.1,0.5,0.4,0.4,0.6c-0.2,0.9,0.2,1.7,0.7,2.5c-0.1,0.8,0.4,1.7-0.2,2.4c0.2,0.5-0.5,0.7-0.6,1.1h0.1
								c-0.4,0,0.2,0.5-0.2,0.4l0,0c-0.2,0,0.4,0.4,0.1,0.4l0.1,0.1c0,0.1-0.1,0-0.2,0l0.1,0.1c-0.4-0.2-0.1,0.2-0.5,0
								c0,0-0.2,0-0.2-0.2c0,0-0.1,0.1,0,0.2s0.2,0.4,0.5,0.4L84,97c0.1,0.1,0.1,0,0.1,0.1c0.1-0.1,0.2,0,0.5,0l0,0
								c-0.1-0.1,0-0.2,0.1-0.2h0.1c0.1,0.1-0.2-0.4,0-0.1c0.1-0.2,0.2-0.6,0.4-0.9c-0.1-0.1,0.1-0.2-0.1-0.2c0.2,0,0.4-0.2,0.5-0.2
								l0,0c0.4-0.1-0.2-0.2,0.2-0.4c-0.2-0.1,0.1-0.2-0.2-0.5c0.1,0,0.1,0,0.2,0c0-0.2,0.2-0.6,0.2-0.8c-0.2-0.2,0.1-0.5-0.2-0.7
								c0.1-0.1,0.2-0.4,0.1-0.6l0,0c0-0.2-0.1-0.5-0.4-0.6c0.4-0.1,0.2-0.2,0.4-0.4c-0.1-0.1-0.1-0.5-0.4-0.6
								c0.1-0.1-0.1-0.1,0.1-0.2c-0.6-0.6-0.7-1.3-0.8-2.1l0,0c-0.1,0-0.5,0.1-0.6,0.1l0,0c-0.1-0.1,0-0.4-0.1-0.4c0,0,0,0,0.1,0
								c-0.1,0,0-0.4-0.2-0.2l0,0h-0.1l0.1-0.1c-0.4-0.5-0.9-0.7-1.5-0.8C81.9,87,81.3,87,80.8,87v-0.1L80.6,87c0,0,0,0,0-0.1
								C80.3,86.7,80,87,79.7,87v-0.1c-0.1,0.2-0.5-0.1-0.4,0.2V87c-0.5,0.4-0.9,0.7-1.4,1.1c0,0.6-0.6,0.8-0.5,1.4h-0.1
								c0,0.6-0.4,1.2-0.5,1.8c-0.1,0.2,0,0.5,0,0.7h-0.1c0.4,0.5-0.4,0.9,0.1,1.3h-0.1c0.2,0,0,0.2,0.2,0.2l-0.1,0.1
								c0.5,0.2-0.1,0.6,0.2,0.8H77c0.1,0.1,0.1,0.2,0.1,0.2s0,0-0.1,0c-0.2,0.4,0.2,0.6,0.4,0.9h-0.1c0.2,0.1,0.2,0.4,0.4,0.6h-0.1
								h0.1l-0.1,0.1C77.1,96.9,77.5,97,77.6,97.2z"/>
						</g>
					</g>
				</g>
				<g>
					<g>
						<g>
							<polygon class="st5" points="86,100.2 86.1,100.2 86,100 							"/>
							<path class="st5" d="M86.1,99.7C86.1,99.7,86.1,99.6,86.1,99.7v0.4C86.3,100.2,86,99.6,86.1,99.7z"/>
							<path class="st5" d="M86.2,99.7c0.1,0,0-0.1,0-0.2C86.3,99.6,86.1,99.6,86.2,99.7z"/>
							<path class="st5" d="M87.2,89.8H87c0.4,0.2,0.2,0.8,0.5,1.2l0,0c0.1,1.1,0.5,1.9,0.5,2.9c0,0,0,0-0.1,0L88,94h-0.1
								c-0.2,0.2,0.1,0.7-0.1,0.8c0,0.1,0.1,0.1,0.1,0.1c0,0.8-0.2,1.7-0.4,2.6h-0.1c0,0.8-0.5,1.5-1.1,2c0,0.1,0.1,0,0.1,0.1
								c0.2-0.1,0.1-0.5,0.4-0.6v0.1c0.1-0.1-0.1-0.1,0-0.2c0.1,0,0.1,0.1,0.1,0c0.1-0.4,0.5-0.6,0.4-1.1c0.2,0,0.1-0.4,0.4-0.4
								c0-0.1,0-0.2-0.1-0.2c0.5-1.2,0.5-2.4,0.6-3.5c-0.4-0.6,0-1.2-0.1-1.9l0,0c-0.1-0.2-0.2-0.5-0.2-0.8l-0.2-0.2
								c0-1.7-1.1-3.1-2.1-4.2c-1.3-1.4-3.1-2.2-4.8-1.9c0,0,0,0,0-0.1c-0.5,0-0.9-0.1-1.4,0l0,0c-0.6,0.2-1.2,0.2-1.8,0.5
								c-0.6,0.1-1.2,0.5-1.5,0.9c-0.6,0.4-1.1,0.9-1.5,1.5c-0.5,0.6-0.7,1.3-0.9,2h-0.1c-0.2,1.2-0.7,2.2-0.6,3.4
								c-0.1,1.2,0.6,2.4,0.7,3.5c0,0.4,0.2,0.8,0.5,1.1c0.2,0.4,0.6,0.6,0.6,0.9c0.2,0.7,0.7,1.3,1.3,1.7c0.6,0.4,1.4,0.5,2.1,0.6
								c1.2,0.6,2.5,0.1,3.8,0.5c0.6-0.4,1.3,0.1,1.9-0.2v-0.1c0.4,0.1,0.4-0.6,0.6-0.2l0,0c0.2,0.1,0-0.6,0.2-0.4v-0.1
								c0.1-0.1,0.1,0.1,0.2,0c0,0-0.1-0.1,0-0.1c0.2,0.4,0.2-0.4,0.6,0c-0.1,0.1,0.2,0,0.1,0.2c0.1,0,0.2-0.2,0.1-0.4
								c-0.1-0.1-0.2-0.4-0.5-0.4l0.1,0.1c-0.1-0.1-0.1,0-0.1-0.1c-0.1,0.1-0.4,0-0.5,0l0,0c0,0.2-0.1,0.2-0.2,0.2h-0.1
								c-0.1-0.1,0,0.4-0.1,0.1c-0.2,0.2-0.7,0.5-1.1,0.6c0,0.1-0.4,0.1-0.1,0.2c-0.1-0.2-0.5-0.2-0.6-0.2l0,0
								c-0.2-0.4-0.2,0.4-0.5,0c0,0.4-0.4,0-0.5,0.2c0-0.1,0-0.1,0-0.1c-0.4,0-0.8-0.1-1.2-0.1c-0.4,0.2-0.7-0.2-0.9,0.1
								c-0.2-0.1-0.5-0.4-0.7-0.2l0,0c-0.4,0-0.7-0.1-0.9,0c0-0.4-0.1-0.4-0.1-0.5c-0.2,0-0.6-0.2-0.9-0.2c0-0.1-0.2-0.1-0.1-0.2
								c-0.9-0.2-1.7-1.3-1.8-2.2l0,0c-0.1,0-0.5-0.1-0.7-0.1l0,0c-0.1-0.1,0-0.4-0.1-0.6c0,0,0,0,0.1,0c-0.1-0.1,0-0.4-0.1-0.5l0,0
								l-0.1-0.1c0.1,0,0.2,0,0.2,0c-0.4-1.4-0.8-3.1-0.5-4.7l0.1,0.1c0-0.1,0-0.2-0.1-0.4c0,0,0,0,0.1,0c0.2-0.4,0.1-0.8,0.2-1.2
								c0,0,0.1,0.1,0.1,0c-0.1-0.4,0.4-0.4,0-0.6c0,0,0.1,0,0.1,0.1c0.1-0.8,0.6-1.4,1.2-1.9c0.2-0.8,0.9-0.9,1.5-1.4v0.1
								c0.7-0.6,1.8-0.5,2.7-0.6c0.4,0,0.7,0,1.1,0v0.1c0.7-0.4,1.3,0.5,2.1,0.4l-0.1,0.1c0.1-0.1,0.4,0.2,0.5-0.1l0.1,0.1
								c0.6-0.2,0.7,0.6,1.3,0.7h-0.1c0.1,0,0.4,0.1,0.4,0.2c0,0,0,0-0.1,0c0.1,0.6,0.7,0.7,1.1,1.1h-0.1c0.2,0.1,0.5,0.6,0.7,0.8
								H86l0.1,0.1L86,89.2C86.7,89.1,86.9,89.3,87.2,89.8z"/>
						</g>
					</g>
				</g>
			</g>
		</g>
		<g>
			<path class="st7" d="M101.9,100.5c-1.2,1.2-2.8,1.7-5,1.5s-3.9-0.8-5-2c-1.5-1.5-2.4-3.7-2.4-6.4c0-2.8,0.8-4.8,2.4-6.1
				c1.2-1.2,2.8-1.7,5-1.5c2.1,0.1,3.8,0.8,5,2c1.5,1.5,2.4,3.7,2.4,6.4C104.1,97,103.4,99.1,101.9,100.5z M99.9,98
				c0.7-0.9,1.1-2.2,1.1-3.9c0-1.8-0.4-3.1-1.1-4c-0.7-0.9-1.8-1.5-2.9-1.5c-1.3-0.1-2.2,0.4-3.1,1.2c-0.7,0.9-1.2,2.2-1.2,3.9
				c0,1.8,0.4,3.1,1.2,4c0.7,0.9,1.8,1.5,3.1,1.5C98.1,99.3,99.2,99,99.9,98z"/>
			<g>
				<path class="st8" d="M101.9,100.5c-1.2,1.2-2.8,1.7-5,1.5s-3.9-0.8-5-2c-1.5-1.5-2.4-3.7-2.4-6.4c0-2.8,0.8-4.8,2.4-6.1
					c1.2-1.2,2.8-1.7,5-1.5c2.1,0.1,3.8,0.8,5,2c1.5,1.5,2.4,3.7,2.4,6.4C104.1,97,103.4,99.1,101.9,100.5z M99.9,98
					c0.7-0.9,1.1-2.2,1.1-3.9c0-1.8-0.4-3.1-1.1-4c-0.7-0.9-1.8-1.5-2.9-1.5c-1.3-0.1-2.2,0.4-3.1,1.2c-0.7,0.9-1.2,2.2-1.2,3.9
					c0,1.8,0.4,3.1,1.2,4c0.7,0.9,1.8,1.5,3.1,1.5C98.1,99.3,99.2,99,99.9,98z"/>
				<g>
					<g>
						<g>
							<path class="st5" d="M99.4,97.9L99.4,97.9l-0.1-0.2C99.1,97.5,99.5,97.9,99.4,97.9z"/>
							<path class="st5" d="M99.3,97.9c-0.1,0,0,0.1,0,0.1C99.3,97.9,99.4,98,99.3,97.9z"/>
							<path class="st5" d="M94.1,98L94.1,98c0.2,0.1,0.2,0.5,0.6,0.6l0,0c0.5,0.5,1.2,0.5,1.9,0.5c0,0,0,0,0,0.1l0.1-0.1v0.1
								c0.1,0.2,0.4-0.1,0.5,0.1c0,0,0-0.1,0-0.2c0.5,0,0.9-0.1,1.3-0.5c0,0,0,0.1,0.1,0.1c0.2-0.5,0.6-0.5,0.9-0.7
								c0-0.1-0.1,0-0.1-0.1c-0.1,0,0,0.4-0.2,0.2V98c-0.1,0,0.1,0.2,0,0.1c-0.1,0-0.1-0.1-0.1-0.1c-0.1,0.1-0.2,0.1-0.4,0.4
								c-0.1-0.1-0.1,0.1-0.2-0.1c0,0.1-0.1,0.1,0,0.2c-0.6,0.1-1.2,0.2-1.9,0.1c-0.4,0.4-0.6-0.2-0.9-0.4l0,0c-0.1,0-0.4,0-0.4-0.1
								h-0.2c-0.5-0.8-1.1-1.4-1.2-2.4c-0.2-1.1,0-1.9-0.4-2.9c0,0,0,0,0.1,0c0-0.4,0.1-0.6,0.1-0.8l0,0c-0.2-0.7,0.4-1.3,0.4-2
								c0.5-0.7,1.2-1.3,2-1.5v0.1c0.7-0.4,1.4,0.1,2,0.1c0.4,0.1,0.7,0.2,1.1,0.2c0.4,0.1,0.7,0.2,0.9,0.6c0,0.2,0.2,0.4,0.5,0.6
								c0.2,0.1,0.5,0.4,0.4,0.6c-0.2,0.9,0.2,1.7,0.7,2.5c-0.1,0.8,0.4,1.7-0.2,2.4c0.2,0.5-0.5,0.7-0.6,1.1h0.1
								c-0.4,0,0.2,0.5-0.2,0.4l0,0c-0.2,0,0.4,0.4,0.1,0.4l0.1,0.1c0,0.1-0.1,0-0.2,0l0.1,0.1c-0.4-0.2-0.1,0.2-0.5,0
								c0,0-0.2,0-0.2-0.2c0,0-0.1,0.1,0,0.2s0.2,0.4,0.5,0.4l-0.1-0.1c0.1,0.1,0.1,0,0.1,0.1c0.1-0.1,0.2,0,0.5,0l0,0
								c-0.1-0.1,0-0.2,0.1-0.2h0.1c0.1,0.1-0.2-0.4,0-0.1c0.1-0.2,0.2-0.6,0.4-0.9c-0.1-0.1,0.1-0.2-0.1-0.2c0.2,0,0.4-0.2,0.5-0.2
								l0,0c0.4-0.1-0.2-0.2,0.2-0.4c-0.2-0.1,0.1-0.2-0.2-0.5c0.1,0,0.1,0,0.2,0c0-0.2,0.2-0.6,0.2-0.8c-0.2-0.2,0.1-0.5-0.2-0.7
								c0.1-0.1,0.2-0.4,0.1-0.6l0,0c0-0.2-0.1-0.5-0.4-0.6c0.4-0.1,0.2-0.2,0.4-0.4c-0.1-0.1-0.1-0.5-0.4-0.6
								c0.1-0.1-0.1-0.1,0.1-0.2c-0.6-0.6-0.7-1.3-0.8-2.1l0,0c-0.1,0-0.5,0.1-0.6,0.1l0,0c-0.1-0.1,0-0.4-0.1-0.4c0,0,0,0,0.1,0
								c-0.1,0,0-0.4-0.2-0.2l0,0h-0.1l0.1-0.1c-0.4-0.5-0.9-0.7-1.5-0.8c-0.6-0.1-1.2-0.1-1.7-0.1v-0.1l-0.2,0.1c0,0,0,0,0-0.1
								c-0.2-0.1-0.6,0.1-0.8,0.1v-0.1c-0.1,0.2-0.5-0.1-0.4,0.2v-0.1c-0.5,0.4-0.9,0.7-1.4,1.1c0,0.6-0.6,0.8-0.5,1.4h-0.1
								c0,0.6-0.4,1.2-0.5,1.8c-0.1,0.2,0,0.5,0,0.7h-0.1c0.4,0.5-0.4,0.9,0.1,1.3h-0.1c0.2,0,0,0.2,0.2,0.2l-0.1,0.1
								c0.5,0.2-0.1,0.6,0.2,0.8h-0.1c0.1,0.1,0.1,0.2,0.1,0.2s0,0-0.1,0c-0.2,0.4,0.2,0.6,0.4,0.9h-0.1c0.2,0.1,0.2,0.4,0.4,0.6H94
								h0.1L94,97.1C93.6,97.7,93.9,97.8,94.1,98z"/>
						</g>
					</g>
				</g>
				<g>
					<g>
						<g>
							<polygon class="st5" points="102.4,101.1 102.5,101.1 102.5,101 							"/>
							<path class="st5" d="M102.6,100.5C102.5,100.5,102.5,100.5,102.6,100.5v0.4C102.7,101,102.4,100.5,102.6,100.5z"/>
							<path class="st5" d="M102.6,100.5c0.1,0,0-0.1,0-0.2C102.7,100.4,102.5,100.4,102.6,100.5z"/>
							<path class="st5" d="M103.6,90.6h-0.1c0.4,0.2,0.2,0.8,0.5,1.2l0,0c0.1,1.1,0.5,1.9,0.5,2.9c0,0,0,0-0.1,0l0.1,0.1h-0.1
								c-0.2,0.2,0.1,0.7-0.1,0.8c0,0.1,0.1,0.1,0.1,0.1c0,0.8-0.2,1.7-0.4,2.6h-0.1c0,0.8-0.5,1.5-1.1,2c0,0.1,0.1,0,0.1,0.1
								c0.2-0.1,0.1-0.5,0.4-0.6v0.1c0.1-0.1-0.1-0.1,0-0.2c0.1,0,0.1,0.1,0.1,0c0.1-0.4,0.5-0.6,0.4-1.1c0.2,0,0.1-0.4,0.4-0.4
								c0-0.1,0-0.2-0.1-0.2c0.5-1.2,0.5-2.4,0.6-3.5c-0.4-0.6,0-1.2-0.1-1.9l0,0c-0.1-0.2-0.2-0.5-0.2-0.8l-0.2-0.2
								c0-1.7-1.1-3.1-2.1-4.2c-1.3-1.4-3.1-2.2-4.8-1.9c0,0,0,0,0-0.1c-0.5,0-0.9-0.1-1.4,0l0,0c-0.6,0.2-1.2,0.2-1.8,0.5
								c-0.6,0.1-1.2,0.5-1.5,0.9c-0.6,0.4-1.1,0.9-1.5,1.5c-0.5,0.6-0.7,1.3-0.9,2h-0.1c-0.2,1.2-0.7,2.2-0.6,3.4
								c-0.1,1.2,0.6,2.4,0.7,3.5c0,0.4,0.2,0.8,0.5,1.1c0.2,0.4,0.6,0.6,0.6,0.9c0.2,0.7,0.7,1.3,1.3,1.7c0.6,0.4,1.4,0.5,2.1,0.6
								c1.2,0.6,2.5,0.1,3.8,0.5c0.6-0.4,1.3,0.1,1.9-0.2v-0.1c0.4,0.1,0.4-0.6,0.6-0.2l0,0c0.2,0.1,0-0.6,0.2-0.4V101
								c0.1-0.1,0.1,0.1,0.2,0c0,0-0.1-0.1,0-0.1c0.2,0.4,0.2-0.4,0.6,0c-0.1,0.1,0.2,0,0.1,0.2c0.1,0,0.2-0.2,0.1-0.4
								c-0.1-0.1-0.2-0.4-0.5-0.4l0.1,0.1c-0.1-0.1-0.1,0-0.1-0.1c-0.1,0.1-0.4,0-0.5,0l0,0c0,0.2-0.1,0.2-0.2,0.2h-0.1
								c-0.1-0.1,0,0.4-0.1,0.1c-0.2,0.2-0.7,0.5-1.1,0.6c0,0.1-0.4,0.1-0.1,0.2c-0.1-0.2-0.5-0.2-0.6-0.2l0,0
								c-0.2-0.4-0.2,0.4-0.5,0c0,0.4-0.4,0-0.5,0.2c0-0.1,0-0.1,0-0.1c-0.4,0-0.8-0.1-1.2-0.1c-0.4,0.2-0.7-0.2-0.9,0.1
								c-0.2-0.1-0.5-0.4-0.7-0.2l0,0c-0.4,0-0.7-0.1-0.9,0c0-0.4-0.1-0.4-0.1-0.5c-0.2,0-0.6-0.2-0.9-0.2c0-0.1-0.2-0.1-0.1-0.2
								c-0.9-0.2-1.7-1.3-1.8-2.2l0,0c-0.1,0-0.5-0.1-0.7-0.1l0,0c-0.1-0.1,0-0.4-0.1-0.6c0,0,0,0,0.1,0c-0.1-0.1,0-0.4-0.1-0.5l0,0
								L90,96.7c0.1,0,0.2,0,0.2,0c-0.4-1.4-0.8-3.1-0.5-4.7l0.1,0.1c0-0.1,0-0.2-0.1-0.4c0,0,0,0,0.1,0c0.2-0.4,0.1-0.8,0.2-1.2
								c0,0,0.1,0.1,0.1,0c-0.1-0.4,0.4-0.4,0-0.6c0,0,0.1,0,0.1,0.1c0.1-0.8,0.6-1.4,1.2-1.9c0.2-0.8,0.9-0.9,1.5-1.4V87
								c0.7-0.6,1.8-0.5,2.7-0.6c0.4,0,0.7,0,1.1,0v0.1c0.7-0.4,1.3,0.5,2.1,0.4L98.8,87c0.1-0.1,0.4,0.2,0.5-0.1l0.1,0.1
								c0.6-0.2,0.7,0.6,1.3,0.7h-0.1c0.1,0,0.4,0.1,0.4,0.2c0,0,0,0-0.1,0c0.1,0.6,0.7,0.7,1.1,1.1h-0.1c0.2,0.1,0.5,0.6,0.7,0.8
								h-0.1l0.1,0.1l-0.1,0.1C103.1,89.9,103.4,90.3,103.6,90.6z"/>
						</g>
					</g>
				</g>
			</g>
		</g>
		<g>
			<path class="st7" d="M106.6,86.8l3.1,0.1v6.2l5.9-6l4.1,0.2l-6.2,5.9l6.6,9.3l-4.1-0.2l-4.7-7l-1.5,1.5v5.1l-3.1-0.1V86.8z"/>
			<g>
				<path class="st8" d="M106.6,86.8l3.1,0.1v6.2l5.9-6l4.1,0.2l-6.2,5.9l6.6,9.3l-4.1-0.2l-4.7-7l-1.5,1.5v5.1l-3.1-0.1V86.8z"/>
				<g>
					<g>
						<g>
							<polygon class="st5" points="105.9,86.8 105.8,86.8 105.9,87 							"/>
							<path class="st5" d="M106.1,87.4C106.1,87.4,106.3,87.4,106.1,87.4l-0.2-0.4C105.7,87.2,106.3,87.3,106.1,87.4z"/>
							<path class="st5" d="M106.1,87.6c-0.1,0.1,0.1,0.2,0.1,0.2C106.1,87.8,106.3,87.6,106.1,87.6z"/>
							<path class="st5" d="M108.5,102.1v-0.1c-0.2,0.1-0.6,0.1-0.9,0c-0.4,0-0.5-0.1-0.8-0.1v-0.1l0,0v-0.5v-0.6
								c0-0.4,0-0.8-0.1-1.2c-0.1-0.8-0.1-1.7-0.2-2.5c0,0,0,0,0.1,0.1c0-0.1-0.1-0.1-0.1-0.2h0.1c0.2-0.4-0.1-1.1,0-1.3
								c0-0.1-0.1-0.1-0.2-0.1c0-1.3-0.1-2.7-0.2-4c0-0.1,0.1-0.1,0.1,0c-0.4-1.2-0.2-2.4-0.1-3.5c-0.1,0-0.1,0.1-0.2,0
								c-0.1,0.4,0.2,0.7,0,1.1h-0.1c0,0.2,0.2,0,0.1,0.4c-0.1,0.1-0.1,0-0.1,0c0,0.5,0,1.1,0.1,1.5c-0.2,0.1,0,0.6-0.2,0.7
								c0.1,0.1,0,0.2,0.2,0.4c-0.1,1.9,0.1,3.8,0.1,5.7c0.4,0.8-0.1,1.9,0,2.9l0,0c0.1,0.4,0.1,0.7,0.1,1.4c0,0.1,0.1,0.2,0.1,0.4
								c1.5,0.2,1.9,0.2,3.8,0.4c0-0.8,0-1.8,0-2.6c0-0.7,0-1.4,0-2.1v-0.4v-0.2c0,0,0.4-0.4,0.7-0.6c0.1-0.1,0.2-0.1,0.2-0.2
								l0.1,0.2v0.1l0.1,0.2c0.2,0.4,0.5,0.7,0.7,1.1c0.5,0.7,1.1,1.4,1.7,2c0,0,0,0-0.1,0c0.5,0.6,0.8,1.3,1.3,1.9l0,0l0.4,0.4
								l0.4,0.5h1.2l1.1,0.1c0.5,0,0.8,0,1.3,0.1c0.5,0,0.8,0,1.2,0c-0.2-0.2-0.4-0.5-0.6-0.7c-0.7-1.1-1.4-2-2.1-2.9
								c-0.7-0.9-1.4-1.9-2.1-2.8h0.1c-0.5-0.5-0.8-1.1-1.1-1.5l-0.9-1.5c0.1-0.1,0.2-0.2,0.5-0.5c0.2-0.2,0.4-0.4,0.6-0.6
								c1.5-1.2,2.5-2.9,4.1-4.1c0.5-0.2,0.8-0.6,1.1-0.8c-0.6,0-1.3,0.1-1.7,0.1c-0.4,0-0.8,0-1.2-0.1c-0.2-0.1-0.5-0.1-0.7-0.2
								c-0.2,0-0.5-0.1-0.8-0.1c-0.5,0.5-0.7,0.7-1.1,0.9c-0.4,0.4-0.6,0.7-0.9,1.1c-0.6,0.7-1.1,1.4-1.7,2.1
								c-0.7,0.6-1.5,1.5-2.4,2.5c0-0.6,0-1.3,0-2v-0.5V91c0-0.2,0.1-0.6,0.1-0.8c-0.1-0.5,0-0.9,0-1.5c0-0.2,0.1-0.5,0.1-0.8
								c0-0.4,0.1-0.7,0-0.9h-0.1V87c-0.1-0.1-0.5-0.1-0.7,0c-0.2,0.1-0.4,0.1-0.5-0.1l0,0c-0.2-0.2-0.5,0.5-0.6,0.2v0.1
								c-0.2,0,0-0.1-0.2-0.1c-0.1,0,0,0.2-0.2,0.1c0-0.5-0.6,0.1-0.6-0.5c0.1,0-0.2-0.2,0.1-0.2c-0.1,0-0.5,0-0.5,0.1
								c0,0.2-0.2,0.4,0,0.6l0.1-0.1c0.1,0.1,0.1,0.1,0.1,0.2c0.4,0,0.4,0.2,0.6,0.4l0,0c0.1-0.2,0.4,0,0.5,0v0.1
								c0.1,0.2,0.4-0.4,0.2,0c0.2,0,0.5,0,0.7,0c0.1,0,0.1,0,0.2,0c0,0.1,0,0.1,0,0.2c0.1,0,0,0.6,0.2,0.4
								c-0.2,0.2-0.4,0.7-0.4,0.9l0,0c-0.4,0.4,0.4,0.5-0.1,0.8c0.2,0-0.1,0.7,0.2,0.9c-0.1,0-0.1,0.1-0.1,0c0,0.5,0,1.1-0.1,1.5
								c0,0.7,0,1.4-0.1,2c0.1,0.1,0.1,0.4,0.1,0.7c0.5-0.5,1.1-0.9,1.5-1.8c0.4-0.2,1.4-1.1,1.5-1.4v0.1c0.4-0.4,0.8-0.9,0.9-1.3
								c0.4,0.1,0.5-0.1,0.7-0.2c0.1-0.4,0.7-0.8,0.9-1.4c0.1,0,0.2-0.4,0.5-0.2c0.1-0.2,0.2-0.5,0.4-0.6l0.2-0.4l0.1-0.1
								c0.1,0,0.1,0,0.2,0h0.5c0.4,0,0.6,0,0.9,0.1c0.4,0,0.4,0.1,0.5,0.1c0,0,0,0.1-0.1,0.1l0,0c0.1-0.1,0.5-0.2,0.8-0.4
								c0.1,0,0.2,0,0.4,0h-0.1c-0.1,0.1-0.6,0.4-0.6,0.4s0,0-0.1,0l-0.1,0.1c-0.1,0-0.1,0-0.1,0.1l0,0l-0.1,0.2c0,0-0.1-0.1,0-0.2
								c-0.8,0.7-1.5,1.5-2.2,2.2l-1.1,1.2l-0.6,0.6l-0.8,0.8l0.6,0.9l0.5,0.6h-0.1l0.4,0.4h-0.1c0.2,0.6,0.8,1.1,1.2,1.7
								c0,0-0.1,0-0.1,0.1c0.5,0.2,0.2,0.8,0.7,0.7l-0.1,0.1c0.8,1.1,1.7,2.1,2.4,3.3c0.7,0.6,0.9,0.9,1.3,1.5c-0.2,0-0.5,0-0.7,0.1
								v-0.1c-0.4,0.1-0.8,0.1-1.4,0c-0.5,0-1.1-0.1-1.4-0.1c-0.2-0.4-0.6-0.9-0.8-1.3c-0.4-0.6-0.7-0.8-1.1-1.4l0.1-0.1
								c-0.9-0.7-1.1-2.1-2-2.8h0.1c-0.2,0-0.4-0.6-0.6-0.4c0-0.1,0-0.1,0-0.2c-0.2-0.1-0.4-0.2-0.5-0.5c-0.2,0.2-0.8,0.4-1.2,0.9
								v-0.1c-0.1,0.1-0.2,0.4-0.4,0.5c0,0.1,0,0.1,0,0.1s0,0,0-0.1c-0.4,0.8,0,1.7,0,2.6l-0.1-0.1c0.2,0.4,0,1.2,0.1,1.7h-0.1
								l0.1,0.2h-0.1c0,0.1,0,0.4,0,0.5C109.3,102.1,109,102.1,108.5,102.1z"/>
						</g>
					</g>
				</g>
			</g>
		</g>
		<g>
			<path class="st7" d="M55.9,104.8c0.6,0.2,1.1,0.7,1.4,1.2c0.4,0.4,0.6,0.8,0.7,1.3c0.2,0.5,0.2,1.1,0.2,1.7
				c0,0.7-0.2,1.4-0.6,2.1c-0.4,0.7-0.9,1.2-1.8,1.4c0.7,0.4,1.2,0.7,1.5,1.3c0.2,0.6,0.5,1.3,0.5,2.4v1.1c0,0.7,0,1.2,0.1,1.4
				c0.1,0.4,0.2,0.7,0.6,0.9v0.4l-3.5-0.2c-0.1-0.4-0.1-0.6-0.2-0.8c-0.1-0.5-0.1-0.8-0.1-1.3v-1.4c0-0.9-0.2-1.7-0.5-2
				c-0.4-0.4-0.9-0.6-1.8-0.6l-3.1-0.1v6l-3.1-0.1v-15.3l7.3,0.4C54.6,104.3,55.3,104.5,55.9,104.8z M49.4,106.7v4.1l3.4,0.2
				c0.7,0,1.2,0,1.5-0.1c0.6-0.2,0.9-0.8,0.9-1.7c0-0.9-0.2-1.5-0.8-1.9c-0.4-0.2-0.8-0.4-1.4-0.4L49.4,106.7z"/>
			<g>
				<path class="st8" d="M55.9,104.8c0.6,0.2,1.1,0.7,1.4,1.2c0.4,0.4,0.6,0.8,0.7,1.3c0.2,0.5,0.2,1.1,0.2,1.7
					c0,0.7-0.2,1.4-0.6,2.1c-0.4,0.7-0.9,1.2-1.8,1.4c0.7,0.4,1.2,0.7,1.5,1.3c0.2,0.6,0.5,1.3,0.5,2.4v1.1c0,0.7,0,1.2,0.1,1.4
					c0.1,0.4,0.2,0.7,0.6,0.9v0.4l-3.5-0.2c-0.1-0.4-0.1-0.6-0.2-0.8c-0.1-0.5-0.1-0.8-0.1-1.3v-1.4c0-0.9-0.2-1.7-0.5-2
					c-0.4-0.4-0.9-0.6-1.8-0.6l-3.1-0.1v6l-3.1-0.1v-15.3l7.3,0.4C54.6,104.3,55.3,104.5,55.9,104.8z M49.4,106.7v4.1l3.4,0.2
					c0.7,0,1.2,0,1.5-0.1c0.6-0.2,0.9-0.8,0.9-1.7c0-0.9-0.2-1.5-0.8-1.9c-0.4-0.2-0.8-0.4-1.4-0.4L49.4,106.7z"/>
				<g>
					<g>
						<g>
							<path class="st5" d="M49.5,107.2C49.5,107.2,49.5,107.1,49.5,107.2l-0.1,0.2C49.4,107.7,49.4,107.1,49.5,107.2z"/>
							<path class="st5" d="M49.5,107.2c0,0.1,0-0.1,0.1-0.1C49.5,107.2,49.5,107.1,49.5,107.2z"/>
							<path class="st5" d="M53.3,106.9v-0.1c-0.1,0.2-0.4,0-0.5,0l0,0c-0.4-0.1-0.7,0.1-1.2,0.2c0,0,0,0,0-0.1c0,0,0,0.1-0.1,0.1
								v-0.1c-0.1-0.2-0.2,0.1-0.2,0c0,0,0,0.1,0,0.2c-0.4,0-0.6,0.1-0.9,0.2v-0.1c-0.2,0.4-0.6,0.2-0.8,0.1c0,0.1,0,0.1,0,0.2
								c0.1,0.1,0.1-0.2,0.2,0v0.1c0,0.1,0-0.2,0.1-0.1c0,0.1,0,0.1,0,0.1c0.1,0,0.2,0,0.4-0.1c0,0.2,0.1,0,0.1,0.2
								c0-0.1,0.1,0,0.1-0.2c0.5,0.1,0.8,0,1.3,0c0.2-0.4,0.5,0.1,0.7,0l0,0c0.1-0.1,0.2-0.1,0.2-0.1l0.1-0.1
								c0.5,0.4,1.1,0.2,1.4,0.6c0.4,0.4,0.1,0.7,0.7,1.3c0,0,0,0-0.1,0c0.1,0.1,0,0.4,0,0.5l0,0c0.1,0.2,0.1,0.4,0,0.6
								c-0.1,0.1-0.1,0.2-0.2,0.5c-0.4,0.2-0.9,0.4-1.4,0.5v-0.1c-0.5,0.1-0.8-0.2-1.3-0.2c-0.5-0.2-0.9,0.4-1.3,0.1
								c-0.1-0.2-0.2-0.1-0.5,0c-0.1,0.1-0.5,0.2-0.5,0c0-0.1,0-0.2-0.1-0.2c0.1-0.2,0.1-0.4,0-0.5s-0.2-0.4-0.4-0.6
								c0.2-0.5-0.4-0.9,0.1-1.4c-0.2-0.2,0.4-0.5,0.2-0.7h-0.1c0.2-0.1-0.4-0.2,0-0.2l0,0c0.2,0-0.5-0.1-0.2-0.1h-0.1h0.1
								c0,0-0.2,0-0.1,0c0.5,0-0.1-0.1,0.4-0.1h0.2c0,0,0-0.1-0.2-0.1s-0.4,0-0.6,0H49c-0.1,0-0.1,0-0.2,0c0,0.1-0.2,0.1-0.4,0.1
								l0,0c0.2,0,0.1,0.1,0,0.1h-0.1c-0.2,0,0.4,0.1,0,0.1c0.1,0.1,0.1,0.4,0.1,0.5c0.1,0,0,0.1,0.2,0.1c-0.2,0-0.4,0.1-0.4,0.2
								l0,0c-0.4,0.1,0.4,0.1-0.1,0.2c0.2,0-0.1,0.1,0.2,0.2c-0.1,0-0.1,0-0.1,0c0,0.1-0.1,0.4-0.1,0.5c0.2,0.1-0.1,0.2,0.2,0.4
								c-0.1,0.1-0.2,0.2-0.1,0.4l0,0c0,0.1,0,0.2,0.2,0.4c-0.4,0-0.2,0.1-0.4,0.1c0.1,0,0.1,0.5,0.2,0.6c-0.1,0.1,0.1,0.1-0.1,0.2
								c0.1,0.1,0.2,0.2,0.2,0.5c0.5,0,0.8,0.1,1.3,0.4l0,0c0-0.1,0.1-0.4,0.2-0.6l0,0c0.1,0,0.1,0.2,0.2,0.1c0,0,0,0,0,0.1
								c0.1-0.1,0.1,0.2,0.2,0v0.1v-0.1c0,0.1,0,0.2,0,0.1c0.6,0.1,1.3-0.2,1.9-0.1v0.1l0.1-0.1c0,0,0,0,0,0.1
								c0.1,0.1,0.4-0.1,0.5,0v0.1c0.1-0.2,0.2,0.2,0.2-0.1v0.1c0.4-0.1,0.7-0.2,1.1-0.2c0.1-0.2,0.2-0.4,0.4-0.5s0.2-0.2,0.2-0.5
								H55c0-0.5,0.4-0.7,0.2-1.1c0-0.1,0-0.2-0.1-0.4h0.1c-0.4-0.2,0.2-0.6-0.2-0.8h0.1c-0.2,0,0-0.2-0.4,0l0.1-0.1
								c-0.5,0.1,0-0.4-0.4-0.4h0.1c-0.1,0-0.1,0-0.1-0.1l0,0c0.1-0.4-0.4-0.2-0.5-0.4l0.1-0.1c-0.1,0.1-0.2-0.1-0.5,0v-0.1
								l-0.1,0.1v-0.1C53.7,106.8,53.4,106.9,53.3,106.9z"/>
						</g>
					</g>
				</g>
				<g>
					<g>
						<g>
							<path class="st5" d="M55.6,104.1C55.6,104.2,55.6,104.2,55.6,104.1c0.1,0,0.4-0.1,0.5-0.1C55.9,103.7,55.7,104.3,55.6,104.1z
								"/>
							<path class="st5" d="M55.6,104.1c-0.1-0.1-0.2,0-0.2,0.1C55.3,103.9,55.4,104.2,55.6,104.1z"/>
							<path class="st5" d="M46.4,108.3h0.1c-0.2-0.5,0-1.1-0.1-1.7l0,0c0-0.9,0-1.9-0.1-2.8c0.4,0,0.8,0,1.3,0c0,0,0,0,0,0.1
								c0.1,0,0.1-0.1,0.2-0.1v0.1c0.2,0.2,0.8-0.1,1.1,0.1c0.1,0,0.1-0.1,0.1-0.2c1.1,0,2.2,0,3.4-0.1v0.1c0.9-0.2,2-0.1,2.9,0.1
								c0.1-0.1-0.1-0.1,0-0.2c-0.4-0.2-0.7,0.1-0.9-0.1v-0.1c-0.2-0.1-0.1,0.2-0.2,0.1c-0.1-0.1,0-0.1,0-0.1
								c-0.5,0-0.9-0.1-1.3,0.1c-0.1-0.2-0.5,0-0.6-0.2c-0.1,0.1-0.2,0-0.2,0.1c-1.5-0.2-3.1-0.1-4.7-0.2c-0.5,0.1-0.8,0.1-1.3,0.1
								c0,0.4,0,0.7-0.1,1.1c0,0.4,0,0.6,0,0.8l0,0c0.1,0.2,0.1,0.7,0.1,1.1l0.1,0.2c-0.4,2-0.1,4.1-0.2,6.1c0,1.1-0.1,2.1-0.1,3.1
								c0,0.5,0,1.1,0,1.5c0,0.2,0,0.5,0,0.8c0,0.5,0.1,0.8,0.1,1.2c0.2,0,0.6,0,0.8,0c0,0,0,0-0.1,0.1c0.6,0,0.7,0,1.1,0
								c0.4,0,0.6,0,0.9,0l0,0c0.4,0,0.7,0,1.1,0c0-0.5,0-0.9,0-1.3V117c0-0.7,0-1.3-0.1-2c0-0.6,0-1.2,0-1.9c0.6,0,1.2,0,1.8,0.1
								c0.6,0,1.3,0,1.9,0.1v0.1c0.4,0,0.7,0.1,1.1,0.4c0.2,0.2,0.4,0.6,0.5,0.9c0.1,0.7,0,1.4,0,2.2c0,0.4,0,0.8,0.1,1.2
								c0,0.2,0.1,0.4,0.1,0.6l0.2,0.6c0.9,0,1.7-0.1,2.5,0.1c0.4,0.1,0.7,0.1,1.2,0.1H59v-0.1c0-0.1,0-0.4-0.1-0.4
								c-0.2-0.1-0.5-0.4-0.6-0.6c-0.1-0.2-0.1-0.6,0-0.8c0.2-0.9,0.4-1.9,0.1-2.8c-0.1-0.5-0.2-0.9-0.5-1.4
								c-0.4-0.5-0.6-0.7-1.2-0.9c-0.2-0.2-0.5-0.4-0.7-0.5c0.5-0.1,0.8-0.4,1.2-0.6c0.4-0.2,0.5-0.5,0.7-0.8c0.4-0.6,0.5-1.3,0.7-2
								c-0.1-0.4-0.1-0.8-0.1-1.3c0-0.5-0.1-0.9-0.4-1.3l-0.1,0.1c0.1-0.5-0.7-0.4-0.5-0.8l0,0c0-0.2-0.6,0-0.5-0.2H57
								c-0.1-0.1,0.1-0.1,0-0.2c0,0-0.1,0.1-0.2,0c0.2-0.4-0.5-0.2-0.2-0.6c0.1,0.1-0.1-0.2,0.2-0.2c0-0.1-0.4-0.2-0.5,0
								c-0.1,0.2-0.4,0.2-0.2,0.5l0.1-0.1c0,0.1,0,0.1,0,0.2c0.2,0.1,0.1,0.4,0.2,0.5l0,0c0.2-0.1,0.2,0.1,0.4,0.2v0.1
								c-0.1,0.1,0.5-0.1,0.1,0.1c0.4,0.2,0.7,0.8,0.9,1.3c0.1,0,0.1,0.4,0.4,0.2c-0.2,0.2-0.1,0.6-0.1,0.7l0,0
								c-0.4,0.4,0.4,0.4,0,0.6c0.4,0-0.1,0.5,0.2,0.6c-0.1,0-0.1,0-0.2,0c-0.1,0.5-0.4,0.9-0.6,1.2c0,0.2-0.1,0.4-0.2,0.5
								c0,0-0.6,0.4-0.7,0.6c-0.5,0.1-1.4,0.4-2,0.5c0.2,0.1,0.5,0.2,0.8,0.4h-0.2c0.5,0.2,1.2,0.5,1.5,0.7c0.5,0.4,0.5,0.4,0.7,0.4
								c-0.2,0.2-0.1,0.4-0.1,0.5c0.2,0.1,0.4,0.6,0.5,1.1c-0.1,0.1,0.1,0.4-0.1,0.4c0.2,0.6,0.2,1.3,0.4,2c0,0.4,0,0.7,0,1.2
								c0,0.2,0.1,0.5,0.2,0.7c0,0.1,0.1,0.2,0.2,0.4l0,0l0,0l0,0h0.1l0.7-0.6c-0.1,0.1-0.2,0.2-0.4,0.4l0,0c-0.2,0-0.5-0.2-0.7-0.2
								c0,0,0,0,0-0.1c-0.2,0.1-0.5-0.2-0.8,0v-0.1l-0.2,0.1c0-0.1,0-0.2,0.1-0.1h-0.8c-0.2,0-0.2,0-0.2,0H56c0-0.1,0,0-0.1-0.4
								l-0.1-0.7c-0.2-1.1-0.1-2.1-0.5-3.4l0.1,0.1c-0.1-0.1-0.2-0.4-0.4-0.5h0.1c-0.1-0.4-0.5-0.6-0.8-0.7
								c-0.4-0.1-0.6-0.1-0.9-0.2c0,0,0.1-0.1,0-0.1c-0.5,0.1-0.7-0.4-0.9,0.1v-0.1c-0.5,0-0.9,0-1.4,0h-0.8l-1.1-0.1v0.7
								c0,0.2,0.1,0.4,0.1,0.6c0,0.1,0,0.2,0.1,0.4c0,0.2,0,0.5,0,0.7c0,0.5,0,0.9,0.1,1.5h-0.1c0.2,0.8,0.1,1.8,0.1,2.5
								c-0.5,0-0.7-0.1-1.2-0.1c-0.5-0.1-0.9,0-1.4,0v-0.1c-0.1,0-0.2,0.1-0.4,0.1c-0.1-0.7,0.4-1.7,0-2.5l0.1,0.1
								c-0.2-0.1,0.1-0.6-0.2-0.5l0.1-0.1c-0.5-0.6,0.2-1.2-0.1-2h0.1c-0.1-0.2-0.1-0.5,0-0.6c0,0,0,0,0,0.1c0.4-0.7,0-1.4,0-2.1
								l0.1,0.1c-0.2-0.4,0-0.9-0.1-1.4h0.1l-0.1-0.2h0.1C46.5,109.4,46.4,108.8,46.4,108.3z"/>
						</g>
					</g>
				</g>
			</g>
		</g>
		<g>
			<path class="st7" d="M72.7,107.9l-8-0.5v3.3l7.4,0.4v2.7l-7.4-0.4v3.9l8.4,0.5v2.7L61.5,120v-15.3l11.2,0.6V107.9z"/>
			<g>
				<path class="st8" d="M72.7,107.9l-8-0.5v3.3l7.4,0.4v2.7l-7.4-0.4v3.9l8.4,0.5v2.7L61.5,120v-15.3l11.2,0.6V107.9z"/>
				<g>
					<g>
						<g>
							<polygon class="st5" points="73.5,107.9 73.5,107.9 73.4,107.8 							"/>
							<path class="st5" d="M73.3,107.4C73.1,107.4,73.1,107.4,73.3,107.4l0.2,0.5C73.7,107.6,73.1,107.5,73.3,107.4z"/>
							<path class="st5" d="M73.3,107.2c0.1-0.1-0.1-0.2-0.1-0.2C73.3,107,73,107.2,73.3,107.2z"/>
							<path class="st5" d="M61.6,108.9h0.1c-0.2-0.7,0-1.4-0.1-2.1l0,0c0-0.4,0-0.7,0-1.1c0-0.4,0-0.6,0-0.9c0.9,0,2,0,2.9-0.1
								c0,0,0,0-0.1,0.1c0.1,0,0.2-0.1,0.2-0.1s0,0.1-0.1,0.1c0.4,0.2,1.1-0.1,1.3,0.1c0.1,0,0.1-0.1,0.1-0.1c1.4,0,2.8,0,4.2,0
								c0.1,0,0.1,0.1,0,0.1c0.4-0.1,0.7-0.1,1.1-0.1h0.2H72h0.9v1.3v0.8c0.1,0,0.1-0.1,0.2,0c0.1-0.5-0.2-0.6,0-1.3h0.1
								c0-0.5-0.2,0-0.1-0.5c0.1-0.2,0.1,0,0.1-0.1v-0.2c-0.5,0-0.9,0-1.4-0.1c-0.2,0-0.5,0-0.8,0.1c-0.1-0.2-0.6,0-0.8-0.2
								c-0.1,0.1-0.2,0-0.4,0.1c-1.9-0.2-3.9-0.1-5.9-0.2c-0.4,0.1-0.8,0.1-1.3,0.1c-0.4,0-1.1-0.1-1.8-0.2c0,0.2,0,0.6,0,0.9l0,0
								c0,0.1,0,0.4,0.1,0.5c0,0.1,0,0.2,0,0.4c0,0.2,0,0.5,0,0.7l0.1,0.4c-0.4,2.6-0.1,5.2-0.2,7.9c0,0.9-0.1,1.8-0.1,2.6
								c0,0.5,0,0.8,0,1.3v1.9h1.4H63c0.6,0,1.2,0,1.8-0.1c0,0,0,0-0.1,0.1c0.8,0,1.7,0.1,2.4,0.1l0,0c0.9-0.1,1.9,0,2.9,0
								c0.9,0.1,1.9,0.1,3.1,0c0-0.1,0-0.1,0-0.2c0-0.8,0-1.8,0-2.8c-0.8,0-1.7-0.1-2.5-0.1c-0.8,0-1.7,0-2.5,0v-0.1
								c-0.6,0-1.2,0-1.8-0.1l-0.9-0.1l-0.7-0.1c0-0.4,0-0.5,0-0.9c0-0.4,0-0.7,0-1.1c0-0.2,0-0.6,0-0.8c0-0.2,0-0.5,0-0.7
								c0.5,0,1.3-0.1,2-0.1c0.7,0,1.4,0,2.1,0.1c0.5,0.1,0.9,0.1,1.4,0.1s1.1-0.1,1.4-0.1c0-0.4,0-0.6,0.1-0.9
								c0.1-0.2,0.1-0.6,0.1-0.8c0-0.4,0.1-0.7,0.1-1.1c-0.2,0-0.6-0.1-0.8-0.1h-0.7c-0.5,0-0.9,0-1.4,0c-0.9,0-1.9,0.1-2.8,0.2
								c-0.6-0.1-1.2-0.1-1.9-0.1c0-1.4-0.1-2-0.1-3.5c0.4,0,0.7,0,0.9,0.1c0.4,0,0.5,0.1,0.8,0.1c1.1-0.2,2.1,0.5,3.3,0.5v-0.1
								c0.4,0.4,0.9-0.4,1.2,0.1l0,0c0.2,0.2,0.5-0.5,0.6-0.2v-0.1c0.2,0,0,0.1,0.2,0.1c0.1,0,0-0.2,0.2-0.1c0,0.5,0.6,0,0.6,0.5
								c-0.1,0,0.2,0.2-0.1,0.2c0.1,0,0.5,0,0.5-0.1c0-0.2,0.2-0.4,0-0.6l-0.1,0.1c-0.1-0.1-0.1-0.1-0.1-0.2c-0.4,0-0.4-0.2-0.6-0.4
								l0,0c-0.2,0.2-0.4,0-0.6,0v-0.1c-0.1-0.2-0.5,0.4-0.2,0c-0.7,0-1.5,0-2.4,0c-0.1,0.1-0.6,0-0.5,0.2c-0.2-0.2-0.8-0.4-0.9-0.4
								l0,0c-0.4-0.4-0.5,0.2-0.9-0.1c-0.1,0.2-0.6-0.1-1.1,0.2c-0.1-0.1-0.1-0.1-0.1-0.2c-0.5,0-0.9-0.1-1.4-0.1
								c0,0.8-0.1,1.5-0.1,2.1c0.1,0.2,0.1,0.6,0.1,0.8v0.2c0,0.1,0,0.2,0,0.4c0,0.2,0.1,0.5,0.1,0.6s0,0.2,0,0.4
								c0.2,0,0.6,0.1,1.1,0.1H65h0.1c0.1,0,0.2,0,0.4,0l0,0c0.6,0,1.3,0,1.8-0.1c0.1,0.4,0.4,0.2,0.7,0.5c0.4-0.1,1.2,0,1.8-0.1
								c0.1,0.1,0.5,0,0.5,0.2c0.2,0,0.5-0.1,0.7-0.1c0.1,0,0.2,0,0.4-0.1c0,0.1,0,0.1,0,0.2v0.6c0,0.6,0,0.6-0.1,0.7
								c-0.2-0.1-0.1-0.1-0.7-0.2l0,0c-0.2,0.1-0.5,0.4-0.7,0.5l0,0c-0.4,0-0.6-0.2-0.9-0.2c0,0,0,0,0-0.1c-0.4,0.1-0.6-0.2-0.9,0
								v-0.1l-0.2,0.1c0-0.1,0-0.2,0.1-0.1c-0.6,0-1.1-0.1-1.7-0.1c-0.7,0-1.5,0-2.4,0v1.5v0.9v0.9v1.4l1.5,0.1l-0.1,0.1l0.6-0.1
								c0,0,0,0-0.1,0.1c0.7,0.1,1.4,0,2.1,0.1c0,0-0.1,0.1,0,0.1c0.5-0.2,0.8,0.4,1.1-0.1v0.1c0.6,0,1.2,0,1.9,0h0.9
								c0.2,0,0.4,0,0.6,0v0.4c0,0,0.1,0.2,0.1,0.5c0,0.1,0,0.4,0,0.6c0,0.4,0,0.6,0,0.8c-0.2,0-0.4,0-0.6,0c-0.2,0-0.5,0-0.8,0.1
								v-0.1c-1.7,0.2-3.3-0.2-5-0.2c-0.7-0.1-1.2,0-1.9,0V120c-0.5,0.1-1.1,0.1-1.5,0l-0.8-0.1c-0.2,0-0.4,0-0.6,0
								c0-0.1,0-0.2-0.1-0.4h0.1c-0.2,0,0.1-0.6-0.2-0.6l0.1-0.2c-0.5-0.8,0.2-1.5-0.1-2.5l0.1,0.1c-0.1-0.2-0.1-0.6,0-0.8
								c0,0,0,0,0,0.1c0.4-0.8,0-1.8,0-2.7l0.1,0.1c-0.2-0.5,0-1.2-0.1-1.8h0.1L61,111h0.1C61.8,110.2,61.7,109.6,61.6,108.9z"/>
						</g>
					</g>
				</g>
			</g>
		</g>
		<g>
			<path class="st7" d="M86.6,106.1v2.7l-4.6-0.2v12.6l-3.2-0.1v-12.7l-4.6-0.2v-2.7L86.6,106.1z"/>
			<g>
				<path class="st8" d="M86.6,106.1v2.7l-4.6-0.2v12.6l-3.2-0.1v-12.7l-4.6-0.2v-2.7L86.6,106.1z"/>
				<g>
					<g>
						<g>
							<path class="st5" d="M86.2,105.5C86.2,105.6,86.2,105.6,86.2,105.5l0.4-0.2C86.3,105,86.2,105.6,86.2,105.5z"/>
							<path class="st5" d="M86.1,105.5c-0.1-0.1-0.1,0.1-0.1,0.1C86,105.5,86.1,105.6,86.1,105.5z"/>
							<path class="st5" d="M77.1,105.1C77.1,105.1,77.3,105.1,77.1,105.1C77.1,105,77.1,105,77.1,105.1z"/>
							<path class="st5" d="M74.9,105.5v0.1c0.1-0.1,0.4-0.1,0.6-0.1c0.2,0,0.5,0.1,0.7,0l0,0c1.2,0.1,2.2,0,3.4-0.1c0,0,0,0,0,0.1
								c0,0,0.1-0.1,0.2-0.1v0.1c0.2,0.2,0.7-0.1,0.8,0.1c0.1,0,0.1-0.1,0.1-0.2c0.9,0,1.9,0,2.8-0.1v0.1c0.8-0.4,1.7-0.1,2.5,0
								c0-0.1-0.1-0.1,0-0.2c-0.2-0.1-0.5,0.2-0.7,0V105c-0.1-0.1,0,0.2-0.2,0.1c-0.1-0.1,0-0.1,0-0.1c-0.4,0-0.7-0.1-1.1,0.1
								c-0.1-0.2-0.4,0-0.5-0.2c-0.1,0.1-0.2,0-0.2,0.1c-1.3-0.1-2.6,0-3.9-0.1c-0.6,0.4-1.3-0.1-2,0l0,0c-0.2,0.1-0.6,0.1-0.8,0
								l-0.2,0.1c-0.2-0.1-0.6-0.1-0.8-0.1c-0.4,0-0.8-0.1-1.3-0.1c0,1.2,0,2.4,0,3.5l0.9,0.1c0.7,0.1,1.4,0.1,2,0.2
								c0.4,0,0.6,0.1,0.9,0.1c0.2,0,0.2,0,0.2,0h0.1l0.1,0.2c0,0.2,0.1,0.6,0.1,0.8c0,0,0,0-0.1,0c0.1,0.6-0.1,1.1,0,1.5l0,0
								c0.4,1.3,0,2.7,0.2,3.9c0,1.5,0,3.2,0.1,4.8h-0.1c0,0.2,0,0.5,0,0.7c0.2,0,0.6,0,0.8,0.1l0.8,0.1c0.2,0,0.5,0.1,0.8,0.1
								c0.4,0,0.7,0,0.9,0h0.1c0-0.4,0-0.8,0-1.2c0-0.4-0.1-0.7-0.1-0.9c-0.1-0.7-0.2-1.3-0.1-2c0.4-0.8-0.5-1.9,0-2.7
								c0.6-1.5,0.2-3.1-0.1-4.7c0.1-0.5,0-0.9,0-1.4c1.2,0,2.1-0.1,3.2,0.2c0.6-0.1,0.9,0.1,1.7,0.2c0-0.2,0.1-0.5,0-0.7h-0.1
								c0.2-0.4-0.4-0.6,0-0.8l0,0c0.2-0.1-0.5-0.4-0.2-0.5h-0.1c0-0.1,0.1,0,0.1-0.1c0,0-0.2,0-0.1-0.1c0.5,0-0.1-0.5,0.4-0.5
								c0,0.1,0.2-0.1,0.2,0.1c0-0.1,0-0.4-0.2-0.4c-0.2,0-0.4-0.1-0.6,0h0.1c-0.1,0-0.1,0-0.2,0.1c0,0.2-0.2,0.2-0.4,0.5l0,0
								c0.2,0.1,0.1,0.2,0,0.4h-0.1c-0.2,0,0.4,0.2,0,0.2c0,0.2,0,0.5,0.1,0.7c0,0.1,0,0.2,0,0.2s0,0,0,0.1c0,0-0.1,0,0,0.2
								c-0.2-0.2-0.4-0.4-0.4-0.4l0,0c-0.2-0.4-0.4,0.4-0.6-0.1c0,0.2-0.5-0.1-0.6,0.2c0-0.1,0-0.1,0-0.2c-0.5,0-0.9-0.1-1.4-0.2
								c-0.2,0.2-1.5-0.2-1.8,0.1l0,0c0,0.1-0.1,0.4-0.1,0.7c0,0.1,0,0.4,0,0.5s0,0.4,0,0.4l0,0c0,0.4,0,0.8,0.2,1.1
								c-0.4,0.1-0.2,0.2-0.4,0.5c0.1,0.2,0.1,0.7,0.2,1.2c-0.1,0.1,0.1,0.4-0.1,0.4c0.5,1.1,0.2,2.5,0,3.5l0,0
								c0.1,0.1,0.4,0.4,0.6,0.5l0,0c0,0.2-0.2,0.4-0.1,0.6c0,0,0,0-0.1,0c0.1,0.2-0.2,0.4,0,0.6h-0.1l0.1,0.1c-0.1,0-0.2,0-0.1-0.1
								c0,0.6,0,1.1,0,1.7l0.1,0.8c0,0.1,0,0.2,0.1,0.4c-0.1,0-0.1,0-0.2,0H81h-0.2c-0.4,0-0.7,0-1.2,0l0.1-0.1
								c-0.1,0-0.2,0.1-0.4,0.1c0,0,0,0,0-0.1c-0.1-0.1-0.2,0-0.4,0c0-0.1-0.1-0.2-0.1-0.4H79c-0.2-0.2,0.2-0.5-0.1-0.7H79
								c-0.1-0.9-0.1-1.9-0.1-2.8c-0.4-0.8,0-1.7-0.4-2.5h0.1c-0.2-1.1,0-2.1,0-3.2c0-0.5-0.1-0.7-0.1-1.2h0.1c-0.2-0.5,0-0.9,0-1.7
								c-0.4,0-0.8-0.1-1.1,0l0.1-0.1c-0.1,0.2-0.5-0.1-0.5,0.2l-0.1-0.1c-0.6,0.5-0.9-0.2-1.7,0v-0.1c-0.2,0-0.4,0.1-0.5,0l0,0
								c-0.4-0.2-0.6-0.1-1.1-0.1c0-0.1-0.1-0.4-0.1-0.5H74c-0.2-0.1,0-0.7-0.1-1.1H74l-0.1-0.2H74c0-0.2,0-0.5-0.1-0.7
								C74.5,105.5,74.7,105.5,74.9,105.5z"/>
						</g>
					</g>
				</g>
			</g>
		</g>
		<g>
			<path class="st7" d="M88.5,106.2l3.2,0.1v9.4c0,1.1,0.1,1.8,0.4,2.4c0.4,0.8,1.2,1.3,2.5,1.4c1.3,0.1,2.1-0.4,2.5-1.2
				c0.2-0.5,0.4-1.2,0.4-2.2v-9.4l3.2,0.1v9.4c0,1.7-0.2,2.8-0.7,3.8c-0.9,1.7-2.7,2.4-5.3,2.2c-2.6-0.1-4.4-1.1-5.3-2.8
				c-0.5-0.9-0.7-2.2-0.7-3.9V106.2z"/>
			<g>
				<path class="st8" d="M88.5,106.2l3.2,0.1v9.4c0,1.1,0.1,1.8,0.4,2.4c0.4,0.8,1.2,1.3,2.5,1.4c1.3,0.1,2.1-0.4,2.5-1.2
					c0.2-0.5,0.4-1.2,0.4-2.2v-9.4l3.2,0.1v9.4c0,1.7-0.2,2.8-0.7,3.8c-0.9,1.7-2.7,2.4-5.3,2.2c-2.6-0.1-4.4-1.1-5.3-2.8
					c-0.5-0.9-0.7-2.2-0.7-3.9V106.2z"/>
				<g>
					<g>
						<g>
							<polygon class="st5" points="87.6,106.2 87.6,106.2 87.8,106.3 							"/>
							<path class="st5" d="M87.9,106.8C88,106.8,88,106.8,87.9,106.8l-0.2-0.4C87.4,106.5,88.1,106.7,87.9,106.8z"/>
							<path class="st5" d="M87.9,106.9c-0.1,0.1,0.1,0.2,0.1,0.2C87.9,107,88.1,106.8,87.9,106.9z"/>
							<path class="st5" d="M91.1,121.2L91.1,121.2c-0.6-0.2-0.9-0.8-1.3-1.2h0.1c-0.9-1.2-1.3-2.7-1.4-4.2c0,0,0,0,0.1,0
								c0-0.1-0.1-0.1-0.1-0.2h0.1c0.2-0.4-0.1-0.9,0-1.2c0-0.1-0.1-0.1-0.2-0.1c0-1.2-0.1-2.6-0.2-3.8c0-0.1,0.1-0.1,0.1,0
								c-0.4-1.1-0.2-2.2-0.1-3.3c-0.1,0-0.1,0.1-0.2,0c-0.1,0.4,0.2,0.6,0,0.9h-0.1c0,0.2,0.2,0,0.1,0.2c-0.1,0.1-0.1,0-0.1,0
								c0,0.5,0,1.1,0.1,1.4c-0.2,0.1,0,0.5-0.2,0.7c0.1,0.1,0,0.2,0.2,0.4c-0.1,1.8,0.1,3.4,0.1,5.3c0.4,0.8,0.1,1.9,0.6,2.8l0,0
								c0.2,0.2,0.5,0.7,0.7,1.1c0.1,0.1,0.2,0.1,0.4,0.1c0.7,1.1,1.9,1.7,3.1,2c1.2,0.2,2.4,0.4,3.7,0.2c1.4-0.1,2.8-0.6,3.8-1.7
								c0.9-1.2,1.2-2.6,0.9-3.9c0,0,0,0,0.1,0c0-0.8,0.1-1.4,0-2.1l0,0c-0.4-1.8,0-3.7-0.2-5.3c0-0.9,0-1.9,0-2.9
								c-0.6,0-1.2,0-1.8-0.1c-0.6,0-1.2,0-1.7,0v0.6h-0.1c0.1,1.8-0.2,3.4-0.1,5.2c-0.1,0.9,0,1.8,0.1,2.7s0.2,1.9-0.1,2.7
								c-0.4,0.5-0.5,1.1-0.9,1.4c-0.5,0.4-1.2,0.5-1.8,0.4c-1.1-0.4-1.9-0.8-2.2-1.7c-0.4-0.8-0.5-2-0.7-3.1c0.2-2-0.4-3.9,0.1-5.9
								c-0.1-0.4-0.1-0.8,0-1.2c0.1-0.4,0.2-0.8,0.2-1.5c-0.1,0-0.4,0-0.5,0v0.1c-0.1-0.1-0.5-0.1-0.6,0c-0.2,0.1-0.4,0.1-0.5-0.1
								l0,0c-0.2-0.2-0.5,0.5-0.6,0.2v0.1c-0.2,0,0-0.1-0.2-0.1c-0.1,0,0,0.2-0.1,0.1c0-0.5-0.6,0.1-0.6-0.5c0.1,0-0.2-0.2,0.1-0.2
								c-0.1,0-0.5,0-0.5,0.1c0,0.2-0.2,0.4,0,0.6v-0.1c0.1,0.1,0,0.1,0.1,0.2c0.4,0,0.4,0.2,0.6,0.4l0,0c0.1-0.2,0.4,0,0.5,0v0.1
								c0.1,0.2,0.4-0.4,0.2,0c0.2,0,0.6,0,0.8,0c0.1,0,0.2,0,0.4,0v0.1c0.1,0,0,0.2,0.2,0.1c-0.2,0.1-0.4,0.7-0.4,0.8l0,0
								c-0.4,0.4,0.4,0.5-0.1,0.8c0.2,0-0.1,0.6,0.2,0.8c-0.1,0-0.1,0-0.1,0c0,0.6-0.1,1.3-0.1,1.9c0.2,0.5-0.1,1.1,0.2,1.5
								c-0.1,0.4-0.2,0.8-0.1,1.3l0,0c0,0.5,0,1.2,0.2,1.5c-0.4,0.1-0.2,0.4-0.4,0.6c0.2,0.4,0.2,1.2,0.6,1.7
								c-0.1,0.1,0.2,0.5,0.1,0.6c0.7,0.8,1.7,1.1,2.6,1.2c0.8,0.1,1.9,0.2,2.9-0.4l0,0c0.1-0.2,0.1-0.7,0.1-0.9c0,0,0.1,0,0,0
								c0.1-0.2,0.5-0.5,0.5-0.8c0,0,0,0,0,0.1c0-0.4,0.4-0.6,0.1-0.9H98l-0.1-0.2c0.1,0,0.2,0,0.1,0.1c0.1-2.6-0.4-5.1-0.2-7.5
								l0.1,0.1l-0.1-0.5c0,0,0,0,0.1,0c0.1-0.4,0-0.6,0-0.9v-0.5c0-0.1,0-0.2,0-0.2l0.1,0.1c-0.1-0.1,0-0.2,0-0.2
								c0.1,0,0.2,0.1,0.1-0.1c0,0,0.1,0.1,0,0.1c0.4-0.1,2,0,2.1,0v0.7c0.4,1.1,0,2.2,0.4,3.3h-0.1c0.2,1.4,0,2.9,0,4.4
								c0,0.6,0.1,1.1,0,1.7h-0.1c0.1,0.5,0,1.1-0.2,1.5c-0.2,0.5-0.5,0.9-0.6,1.4l-0.1-0.1c0.1,0.2-0.5,0.5-0.1,0.6l-0.2,0.1
								c-0.1,0.5-0.5,0.6-0.7,0.7c-0.4,0.1-0.7,0.1-1.1,0.5v-0.1c-0.2,0.1-0.5,0.2-0.7,0.2c0,0,0,0,0-0.1c-0.7-0.2-1.5,0.2-2.4,0.1
								l0.1-0.1c-0.4,0.1-1.1-0.1-1.5-0.1v-0.1h-0.2v-0.1C92.2,121.5,91.6,121.4,91.1,121.2z"/>
						</g>
					</g>
				</g>
			</g>
		</g>
		<g>
			<path class="st7" d="M113.5,107.8c0.6,0.2,1.1,0.7,1.4,1.2c0.4,0.4,0.6,0.8,0.7,1.3c0.2,0.5,0.2,1.1,0.2,1.7
				c0,0.7-0.2,1.4-0.6,2.1c-0.4,0.7-0.9,1.2-1.8,1.4c0.7,0.4,1.2,0.7,1.5,1.3c0.2,0.6,0.5,1.3,0.5,2.4v1.1c0,0.7,0,1.2,0.1,1.4
				c0.1,0.4,0.2,0.7,0.6,0.9v0.4l-3.5-0.2c-0.1-0.4-0.1-0.6-0.2-0.8c-0.1-0.5-0.1-0.8-0.1-1.3v-1.4c0-0.9-0.2-1.7-0.5-2
				c-0.4-0.4-0.9-0.6-1.8-0.6l-3.1-0.1v6l-3.1-0.1V107l7.3,0.4C112,107.5,112.9,107.6,113.5,107.8z M106.9,109.8v4.1l3.4,0.2
				c0.7,0,1.2,0,1.5-0.1c0.6-0.2,0.9-0.8,0.9-1.7c0-0.9-0.2-1.5-0.8-1.9c-0.4-0.2-0.8-0.4-1.4-0.4L106.9,109.8z"/>
			<g>
				<path class="st8" d="M113.5,107.8c0.6,0.2,1.1,0.7,1.4,1.2c0.4,0.4,0.6,0.8,0.7,1.3c0.2,0.5,0.2,1.1,0.2,1.7
					c0,0.7-0.2,1.4-0.6,2.1c-0.4,0.7-0.9,1.2-1.8,1.4c0.7,0.4,1.2,0.7,1.5,1.3c0.2,0.6,0.5,1.3,0.5,2.4v1.1c0,0.7,0,1.2,0.1,1.4
					c0.1,0.4,0.2,0.7,0.6,0.9v0.4l-3.5-0.2c-0.1-0.4-0.1-0.6-0.2-0.8c-0.1-0.5-0.1-0.8-0.1-1.3v-1.4c0-0.9-0.2-1.7-0.5-2
					c-0.4-0.4-0.9-0.6-1.8-0.6l-3.1-0.1v6l-3.1-0.1V107l7.3,0.4C112,107.5,112.9,107.6,113.5,107.8z M106.9,109.8v4.1l3.4,0.2
					c0.7,0,1.2,0,1.5-0.1c0.6-0.2,0.9-0.8,0.9-1.7c0-0.9-0.2-1.5-0.8-1.9c-0.4-0.2-0.8-0.4-1.4-0.4L106.9,109.8z"/>
				<g>
					<g>
						<g>
							<path class="st5" d="M107,110.3L107,110.3l-0.1,0.2C106.9,110.8,107,110.2,107,110.3z"/>
							<path class="st5" d="M107,110.3c0,0.1,0-0.1,0.1-0.1C107.1,110.3,107,110.2,107,110.3z"/>
							<path class="st5" d="M110.7,110v-0.1c-0.1,0.2-0.4,0-0.5,0l0,0c-0.4-0.1-0.7,0.1-1.2,0.2c0,0,0,0,0-0.1c0,0,0,0.1-0.1,0.1
								V110c-0.1-0.2-0.2,0.1-0.2,0c0,0,0,0.1,0,0.2c-0.4,0-0.6,0.1-0.9,0.2v-0.1c-0.2,0.4-0.6,0.2-0.8,0.1c0,0.1,0,0.1,0,0.2
								c0.1,0.1,0.1-0.2,0.2,0v0.1c0,0.1,0-0.2,0.1-0.1c0,0.1,0,0.1,0,0.1c0.1,0,0.2,0,0.4-0.1c0,0.2,0.1,0,0.1,0.2
								c0-0.1,0.1,0,0.1-0.2c0.5,0.1,0.8,0,1.3,0c0.2-0.4,0.5,0.1,0.7,0l0,0c0.1-0.1,0.2-0.1,0.2-0.1l0.1-0.1
								c0.5,0.4,1.1,0.2,1.4,0.6c0.4,0.4,0.1,0.7,0.7,1.3c0,0,0,0-0.1,0c0.1,0.1,0,0.4,0,0.5l0,0c0.1,0.2,0.1,0.4,0,0.6
								c-0.1,0.1-0.1,0.2-0.2,0.5c-0.4,0.2-0.9,0.4-1.4,0.5v-0.1c-0.5,0.1-0.8-0.2-1.3-0.2c-0.5-0.2-0.9,0.4-1.3,0.1
								c-0.1-0.2-0.2-0.1-0.5,0c-0.1,0.1-0.5,0.2-0.5,0c0-0.1,0-0.2-0.1-0.2c0.1-0.2,0.1-0.4,0-0.5s-0.2-0.4-0.4-0.6
								c0.2-0.5-0.4-0.9,0.1-1.4c-0.2-0.2,0.4-0.5,0.2-0.7h-0.1c0.2-0.1-0.4-0.2,0-0.2l0,0c0.2,0-0.5-0.1-0.2-0.1h-0.1h0.1
								c0,0-0.2,0-0.1,0c0.5,0-0.1-0.1,0.4-0.1h0.2c0,0,0-0.1-0.2-0.1c-0.2,0-0.4,0-0.6,0h0.1c-0.1,0-0.1,0-0.2,0
								c0,0.1-0.2,0.1-0.4,0.1l0,0c0.2,0,0.1,0.1,0,0.1h-0.1c-0.2,0,0.4,0.1,0,0.1c0.1,0.1,0.1,0.4,0.1,0.5c0.1,0,0,0.1,0.2,0.1
								c-0.2,0-0.4,0.1-0.4,0.2l0,0c-0.4,0.1,0.4,0.1-0.1,0.2c0.2,0-0.1,0.1,0.2,0.2c-0.1,0-0.1,0-0.1,0c0,0.1-0.1,0.4-0.1,0.5
								c0.2,0.1-0.1,0.2,0.2,0.4c-0.1,0.1-0.2,0.2-0.1,0.4l0,0c0,0.1,0,0.2,0.2,0.4c-0.4,0-0.2,0.1-0.4,0.1c0.1,0,0.1,0.5,0.2,0.6
								c-0.1,0.1,0.1,0.1-0.1,0.2c0.1,0.1,0.2,0.2,0.2,0.5c0.5,0,0.8,0.1,1.3,0.4l0,0c0-0.1,0.1-0.4,0.2-0.6l0,0
								c0.1,0,0.1,0.2,0.2,0.1c0,0,0,0,0,0.1c0.1-0.1,0.1,0.2,0.2,0v0.1v-0.1c0,0.1,0,0.2,0,0.1c0.6,0.1,1.3-0.2,1.9-0.1v0.1
								l0.1-0.1c0,0,0,0,0,0.1c0.1,0.1,0.4-0.1,0.5,0v0.1c0.1-0.2,0.2,0.2,0.2-0.1v0.1c0.4-0.1,0.7-0.2,1.1-0.2
								c0.1-0.2,0.2-0.4,0.4-0.5s0.2-0.2,0.2-0.5h0.1c0-0.5,0.4-0.7,0.2-1.1c0-0.1,0-0.2-0.1-0.4h0.1c-0.4-0.2,0.2-0.6-0.2-0.8h0.1
								c-0.2,0,0-0.2-0.4,0l0.1-0.1c-0.5,0.1,0-0.4-0.4-0.4h0.1c-0.1,0-0.1,0-0.1-0.1l0,0c0.1-0.4-0.4-0.2-0.5-0.4l0.1-0.1
								c-0.1,0.1-0.2-0.1-0.5,0v-0.1l-0.1,0.1v-0.1C111.1,109.8,111,110,110.7,110z"/>
						</g>
					</g>
				</g>
				<g>
					<g>
						<g>
							<polygon class="st5" points="113.8,107.1 113.8,107.1 113.6,107.2 							"/>
							<path class="st5" d="M113.1,107.2L113.1,107.2c0.1,0,0.4-0.1,0.5-0.1C113.5,106.9,113.1,107.4,113.1,107.2z"/>
							<path class="st5" d="M113,107.1c-0.1-0.1-0.2,0-0.2,0.1C112.9,107.1,113,107.4,113,107.1z"/>
							<path class="st5" d="M103.8,111.4h0.1c-0.2-0.5,0-1.1-0.1-1.7l0,0c0-0.9,0-1.9-0.1-2.8c0.4,0,0.8,0,1.3,0c0,0,0,0,0,0.1
								c0.1,0,0.1-0.1,0.2-0.1v0.1c0.2,0.2,0.8-0.1,1.1,0.1c0.1,0,0.1-0.1,0.1-0.2c1.1,0,2.2,0,3.4-0.1v0.1c0.9-0.2,2-0.1,2.9,0.1
								c0.1-0.1-0.1-0.1,0-0.2c-0.4-0.2-0.7,0.1-0.9-0.1v-0.1c-0.2-0.1-0.1,0.2-0.2,0.1c-0.1-0.1,0-0.1,0-0.1
								c-0.5,0-0.9-0.1-1.3,0.1c-0.1-0.2-0.5,0-0.6-0.2c-0.1,0.1-0.2,0-0.2,0.1c-1.5-0.2-3.1-0.1-4.7-0.2c-0.5,0.1-0.8,0.1-1.3,0.1
								c0,0.4,0,0.7-0.1,1.1c0,0.4,0,0.6,0,0.8l0,0c0.1,0.2,0.1,0.7,0.1,1.1l0.1,0.2c-0.4,2-0.1,4.1-0.2,6.1c0,1.1-0.1,2.1-0.1,3.1
								c0,0.5,0,1.1,0,1.5c0,0.2,0,0.5,0,0.8c0,0.5,0.1,0.8,0.1,1.2c0.2,0,0.6,0,0.8,0c0,0,0,0-0.1,0.1c0.6,0,0.7,0,1.1,0
								c0.4,0,0.6,0,0.9,0l0,0c0.4,0,0.7,0,1.1,0c0-0.5,0-0.9,0-1.3v-1.1c0-0.7,0-1.3-0.1-2c0-0.6,0-1.2,0-1.9c0.6,0,1.2,0,1.8,0.1
								c0.6,0,1.3,0,1.9,0.1v0.1c0.4,0,0.7,0.1,1.1,0.4c0.2,0.2,0.4,0.6,0.5,0.9c0.1,0.7,0,1.4,0,2.2c0,0.4,0,0.8,0.1,1.2
								c0,0.2,0.1,0.4,0.1,0.6l0.2,0.6c0.9,0,1.7-0.1,2.5,0.1c0.4,0.1,0.7,0.1,1.2,0.1h0.1v-0.1c0-0.1,0-0.4-0.1-0.4
								c-0.2-0.1-0.5-0.4-0.6-0.6c-0.1-0.2-0.1-0.6,0-0.8c0.2-0.9,0.4-1.9,0.1-2.8c-0.1-0.5-0.2-0.9-0.5-1.4
								c-0.4-0.5-0.6-0.7-1.2-0.9c-0.2-0.2-0.5-0.4-0.7-0.5c0.5-0.1,0.8-0.4,1.2-0.6s0.5-0.5,0.7-0.8c0.4-0.6,0.5-1.3,0.7-2
								c-0.1-0.4-0.1-0.8-0.1-1.3c0-0.5-0.1-0.9-0.4-1.3l-0.1,0.1c0.1-0.5-0.7-0.4-0.5-0.8l0,0c0-0.2-0.6,0-0.5-0.2h-0.1
								c-0.1-0.1,0.1-0.1,0-0.2c0,0-0.1,0.1-0.2,0c0.2-0.4-0.5-0.2-0.2-0.6c0.1,0.1-0.1-0.2,0.2-0.2c0-0.1-0.4-0.2-0.5,0
								c-0.1,0.2-0.4,0.2-0.2,0.5l0.1-0.1c0,0.1,0,0.1,0,0.2c0.2,0.1,0.1,0.4,0.2,0.5l0,0c0.2-0.1,0.2,0.1,0.4,0.2v0.1
								c-0.1,0.1,0.5-0.1,0.1,0.1c0.4,0.2,0.7,0.8,0.9,1.3c0.1,0,0.1,0.4,0.4,0.2c-0.2,0.2-0.1,0.6-0.1,0.7l0,0
								c-0.4,0.4,0.4,0.4,0,0.6c0.4,0-0.1,0.5,0.2,0.6c-0.1,0-0.1,0-0.2,0c-0.1,0.5-0.4,0.9-0.6,1.2c0,0.2-0.1,0.4-0.2,0.5
								c0,0-0.6,0.4-0.7,0.6c-0.5,0.1-1.4,0.4-2,0.5c0.2,0.1,0.5,0.2,0.8,0.4h-0.2c0.5,0.2,1.2,0.5,1.5,0.7c0.5,0.4,0.5,0.4,0.7,0.4
								c-0.2,0.2-0.1,0.4-0.1,0.5c0.2,0.1,0.4,0.6,0.5,1.1c-0.1,0.1,0.1,0.4-0.1,0.4c0.2,0.6,0.2,1.3,0.4,2c0,0.4,0,0.7,0,1.2
								c0,0.2,0.1,0.5,0.2,0.7c0,0.1,0.1,0.2,0.2,0.4l0,0l0,0l0,0h0.1l0.7-0.6c-0.1,0.1-0.2,0.2-0.4,0.4l0,0c-0.2,0-0.5-0.2-0.7-0.2
								c0,0,0,0,0-0.1c-0.2,0.1-0.5-0.2-0.8,0v-0.1l-0.2,0.1c0-0.1,0-0.2,0.1-0.1h-0.8c-0.2,0-0.2,0-0.2,0h-0.1c0-0.1,0,0-0.1-0.4
								l-0.1-0.7c-0.2-1.1-0.1-2.1-0.5-3.4l0.1,0.1c-0.1-0.1-0.2-0.4-0.4-0.5h0.1c-0.1-0.4-0.5-0.6-0.8-0.7s-0.6-0.1-0.9-0.2
								c0,0,0.1-0.1,0-0.1c-0.5,0.1-0.7-0.4-0.9,0.1v-0.1c-0.5,0-0.9,0-1.4,0h-0.8l-1.1-0.1v0.7c0,0.2,0.1,0.4,0.1,0.6
								c0,0.1,0,0.2,0.1,0.4c0,0.2,0,0.5,0,0.7c0,0.5,0,0.9,0.1,1.5h-0.1c0.2,0.8,0.1,1.8,0.1,2.5c-0.5,0-0.7-0.1-1.2-0.1
								c-0.5-0.1-0.9,0-1.4,0v-0.1c-0.1,0-0.2,0.1-0.4,0.1c-0.1-0.7,0.4-1.7,0-2.5l0.1,0.1c-0.2-0.1,0.1-0.6-0.2-0.5l0.1-0.1
								c-0.5-0.6,0.2-1.2-0.1-2h0.1c-0.1-0.2-0.1-0.5,0-0.6c0,0,0,0,0,0.1c0.4-0.7,0-1.4,0-2.1l0.1,0.1c-0.2-0.4,0-0.9-0.1-1.4h0.1
								l-0.1-0.2h0.1C104,112.4,103.9,112,103.8,111.4z"/>
						</g>
					</g>
				</g>
			</g>
		</g>
		<g>
			<path class="st7" d="M118.9,107.8l3.3,0.2l6,11v-10.6l2.9,0.1v15.3l-3.2-0.1l-6.1-11.2v10.8l-2.9-0.1L118.9,107.8L118.9,107.8z"
				/>
			<g>
				<path class="st8" d="M118.9,107.8l3.3,0.2l6,11v-10.6l2.9,0.1v15.3l-3.2-0.1l-6.1-11.2v10.8l-2.9-0.1L118.9,107.8L118.9,107.8z"
					/>
				<g>
					<g>
						<g>
							<polygon class="st5" points="118.1,107.8 118.1,107.8 118.2,107.9 							"/>
							<path class="st5" d="M118.4,108.5L118.4,108.5l-0.2-0.5C117.9,108.3,118.5,108.4,118.4,108.5z"/>
							<path class="st5" d="M118.3,108.7c-0.1,0.1,0.1,0.2,0.1,0.2C118.3,108.9,118.5,108.7,118.3,108.7z"/>
							<path class="st5" d="M121.7,122.3h-0.1c0.1,0.2,0.1,0.6,0.1,0.8c-0.4,0-0.7-0.1-1.2-0.1l0,0c-0.2,0-0.6,0-0.8,0
								c-0.2,0-0.5,0-0.7,0c-0.1-1.2-0.1-2.5-0.2-3.7c0,0,0,0,0.1,0.1c0-0.1-0.1-0.2-0.1-0.2s0.1,0,0.1,0.1c0.2-0.4-0.1-1.2,0-1.4
								c0-0.1-0.1-0.1-0.2-0.1c0-1.4-0.1-3.1-0.2-4.6c0-0.1,0.1-0.1,0.1-0.1c-0.4-1.3-0.2-2.6-0.1-3.9c-0.1,0-0.1,0.1-0.2,0
								c-0.1,0.5,0.2,0.8,0,1.2h-0.1c0,0.2,0.2,0,0.1,0.4c-0.1,0.1-0.1,0-0.1,0c0,0.6,0,1.2,0.1,1.8c-0.2,0.1,0,0.6-0.2,0.8
								c0.1,0.1,0,0.4,0.2,0.4c-0.1,2.1,0.1,4.1,0.1,6.2c0.2,0.5,0.1,1.1,0.1,1.5c0,0.2,0,0.6-0.1,0.8c0,0.4,0,0.8,0,1.3h0.1l0,0
								c0.4,0,0.7,0,1.1,0c0.2,0,0.5,0,0.7,0l0.4-0.1c0.4,0.1,0.9,0.1,1.4,0.2c0-0.7,0-1.4,0.1-2.1v-1.8c0-1.2,0-2.5,0-3.7
								c0-0.4,0-0.5,0-0.6v-0.4c0-0.1,0-0.2,0.1-0.4c0.1,0.4,0.2,0.5,0.4,0.7l0.1,0.1l0,0l0.1,0.1l0.4,0.6c0.2,0.4,0.6,0.7,0.8,1.2
								c0,0,0,0-0.1,0c0.5,0.7,0.8,1.5,1.3,2.2l0,0c0.5,0.6,0.9,1.3,1.3,2l0.6,1.1c0.2,0.4,0.5,0.8,0.7,1.2c0.4,0,0.7,0,0.9,0
								s0.5,0,0.8,0c0.6,0,1.1,0.1,1.8,0.1c0-1.1,0-2.1,0-3.2c0-1.1,0-2.1-0.1-3.2h0.1c-0.1-2.1,0.2-4.1,0.1-6.1c0-0.5,0-0.9,0-1.4
								c0-0.5-0.1-1.1-0.1-1.7h-1.7c-0.5,0-0.9,0-1.4,0c0,0.2,0,0.4,0,0.6c-0.4,1.3,0.5,3.1,0,4.4c-0.1,0.7-0.2,1.4-0.2,2
								c0,0.4,0,0.6,0,0.8c0,0.2,0,0.5,0,0.7c0,0.6,0.1,1.2,0.1,1.8c-0.1-0.1-0.2-0.2-0.4-0.4c-0.1-0.2-0.2-0.4-0.4-0.5l-0.1-0.2
								c-0.7-1.4-1.2-2.2-1.9-3.3c-0.6-0.9-1.2-2-1.5-3.1c-0.4-0.4-0.6-0.9-0.8-1.5c-0.1-0.2-0.2-0.6-0.4-0.8s-0.2-0.6-0.5-0.9v0.1
								c0-0.1,0-0.1,0-0.2c-0.5-0.1-0.9,0.4-1.2,0l0,0c-0.2-0.2-0.6,0.5-0.7,0.2v0.1c-0.2,0,0-0.1-0.2-0.1c-0.1,0,0,0.2-0.2,0.1
								c0-0.5-0.7,0-0.7-0.5c0.1,0-0.2-0.2,0.1-0.2c-0.1,0-0.6,0-0.5,0.1c0,0.2-0.2,0.4,0,0.6l0.1-0.1c0.1,0.1,0.1,0.1,0.1,0.2
								c0.4,0,0.4,0.2,0.7,0.4l0,0c0.2-0.2,0.5,0,0.6,0v0.1c0.1,0.2,0.5-0.4,0.4,0c0.2,0,0.5,0,0.7,0c0.1,0,0.4,0,0.5,0
								c0.1,0.2,0.2,0.4,0.4,0.6c0.1,0,0.4,0.6,0.5,0.4c-0.1,0.4,0.1,0.9,0.2,1.1c0,0,0,0-0.1,0c-0.1,0.6,0.6,0.4,0.4,0.9
								c0.2-0.1,0.2,0.7,0.7,0.7c0,0.1-0.1,0.1-0.1,0.1c0.4,0.7,0.7,1.4,0.9,2c0.5,0.4,0.6,1.2,1.1,1.4c0.1,0.2,0.1,0.5,0.2,0.7
								c0.1,0.4,0.5,0.9,0.7,1.3h-0.1c0.2,0.5,0.6,0.9,0.8,1.3c0.1,0,0.4-0.1,0.5-0.1c0.1,0.4,0.2,0.4,0.4,0.4l0,0
								c0.1-0.1,0.5-0.2,0.6-0.6c0-0.2,0-0.4,0-0.6c0.1,0-0.1-0.9,0.1-0.8c-0.1-0.7-0.1-1.4-0.2-2.1c0-0.5,0-0.9,0-1.5
								c0-0.9,0.1-2,0.4-2.9l0,0c-0.1-0.2-0.4-0.5-0.6-0.8l0,0c0-0.1,0-0.4,0.1-0.5c0-0.1,0.1-0.4,0.1-0.4s0,0,0.1,0
								c-0.1-0.1,0-0.1,0.1-0.2c0,0,0,0,0.1,0v0.1c0,0,0,0,0-0.1c0,0.1,0,0.2,0,0.1h0.1h0.2h0.6h0.4h0.1l0,0h0.1v0.2v0.8l0.1,1.7
								c0,1.1,0.1,2.1,0.1,3.3l-0.1-0.1l0.1,0.6c0,0,0,0-0.1-0.1c-0.1,0.7,0.1,1.5,0,2.2c0,0-0.1-0.1-0.1,0c0.2,0.6-0.2,0.8,0.1,1.2
								h-0.1c0.1,0.7,0.1,1.5,0.1,2.2v1.2c0,0.4,0,0.8,0,0.9c0,0.1,0.1,0.2,0.1,0.4c-0.1,0-0.2,0-0.5,0c-0.2,0-0.5,0-0.8,0
								c-0.5,0-1.2-0.1-1.5,0l-0.2-0.2h0.1c-1.1-1.3-1.7-3.1-2.6-4.6c-0.4-0.7-0.6-1.1-1.1-1.7l0.1-0.1c-0.5-0.5-0.7-1.1-0.9-1.7
								c-0.2-0.6-0.8-1.7-1.1-1.9v-0.2c-0.1,0.4-0.5-1.1-0.2,0.1l-0.1-0.6c0,0.1,0,0.2-0.1,0.1c0,0.4,0,0.4-0.1,0.6
								c0,0.2-0.1,0.6,0,1.2l-0.1-0.2c0.1,0.4,0.1,0.7,0,0.9c0,0,0,0,0-0.1c-0.4,0.9,0,1.9,0,2.8l-0.1-0.1c0.2,0.5,0,1.3,0.1,1.9
								h-0.1l0.1,0.4h-0.1C121.6,120.8,121.7,121.6,121.7,122.3z"/>
						</g>
					</g>
				</g>
			</g>
		</g>
	</g>
</g>
</svg>
