<?xml version="1.0" encoding="utf-8"?>
<!-- Generator: Adobe Illustrator 23.0.1, SVG Export Plug-In . SVG Version: 6.00 Build 0)  -->
<svg version="1.1" id="Layer_1" xmlns="http://www.w3.org/2000/svg" xmlns:xlink="http://www.w3.org/1999/xlink" x="0px" y="0px"
	 viewBox="0 0 200 170" style="enable-background:new 0 0 200 170;" xml:space="preserve">
<style type="text/css">
	.st0{fill:#EAB9C5;}
	.st1{fill:#D97294;}
	.st2{fill:#F5E1E5;}
	.st3{fill:#F8E9EC;}
	.st4{fill:#E299AD;}
	.st5{fill:#D45D85;}
	.st6{fill:#FDF8F9;}
	.st7{fill:#F3DADF;}
	.st8{fill:none;}
	.st9{fill:none;stroke:#B5DFCC;stroke-width:2;stroke-linecap:round;stroke-linejoin:round;stroke-miterlimit:10;}
	.st10{fill:#DB7C99;}
	.st11{fill:#FAF0F2;}
	.st12{fill:#F6E5E8;}
	.st13{fill:#DA7194;}
	.st14{fill:#F3A169;}
	.st15{fill:none;stroke:#EBB1C5;stroke-miterlimit:10;}
	.st16{fill:#0075C2;}
</style>
<g>
	<g>
		<g>
			<path class="st4" d="M46.2,23.5c0,0,3.2-2.4,14.2,0c0,0,8.5,35-5.4,62.7C55,86.1,20,42.1,46.2,23.5z"/>
			<g>
				<g>
					<g>
						<g>
							<polygon class="st5" points="45.9,22.9 45.8,22.9 45.7,23.1 							"/>
							<path class="st5" d="M45.1,23.8C45.1,23.8,45.1,23.9,45.1,23.8l0.4-0.6C45.2,23.2,45.3,23.8,45.1,23.8z"/>
							<path class="st5" d="M44.9,23.9c-0.3,0.1-0.3,0.3-0.3,0.4C44.5,24.2,45,24,44.9,23.9z"/>
							<path class="st5" d="M37.7,51.8h0.1c-0.4-1.1-0.5-2.4-0.7-3.6v0.1c-0.4-3.1-0.7-6-0.4-9.2v0.1c0-0.1-0.1-0.3,0-0.5
								c0,0,0,0.1,0.1,0.1c0.2-0.6,0.2-1.9,0.4-2.3c0-0.2,0-0.3-0.1-0.2c0.6-2.4,1.6-4.9,2.8-7.1c0.1-0.1,0.1-0.1,0.2,0
								c0.2-0.5,0.5-0.9,0.8-1.4c0.3-0.4,0.6-0.9,1-1.4l1.2-1.1c0.2-0.2,0.4-0.4,0.6-0.5l0.6-0.5c0-0.1-0.2,0.1-0.1-0.1
								c-0.3,0.2-0.5,0.4-0.7,0.6c-0.2,0.2-0.4,0.5-0.6,0.7v-0.1c-0.4,0.3,0.1,0.2-0.3,0.5c-0.2,0.1,0-0.1-0.1,0
								c-0.3,0.4-0.7,0.7-1,1.1c-0.3,0.4-0.6,0.8-0.8,1.2c-0.3,0.1-0.7,0.8-0.9,1c-0.1,0.3-0.2,0.5-0.2,0.6
								c-1.9,2.9-2.8,6.6-3.2,10.1c0,0.8,0,1.8,0,2.7c-0.1,0.9-0.1,2,0,2.9l0,0c0.1,0.6,0.3,1.6,0.3,2.3l0.2,0.6
								c0.4,4.6,2.1,9.1,3.7,13.4c2,4.9,4,9.2,7,13.3c0,0,0,0.1-0.1,0c0.8,1.2,1.5,2.5,2.3,3.5l0,0c1,1.4,2.1,2.9,3.1,4.4l0.8,1
								c0.3,0.4,0.6,0.7,0.8,1.1l0.5,0.6l0.2,0.3c0.1,0,0.1-0.2,0.2-0.3c0.2-0.5,0.4-1,0.5-1.5c0.8-1.9,1.8-3.7,2.5-5.9
								c0.3-1,0.7-2.1,1-3.1c0.3-1,0.5-2.1,0.8-3.1h0.1c0.2-0.8,0.4-1.7,0.6-2.5c0.2-0.8,0.4-1.7,0.5-2.5c0.2-0.8,0.4-1.7,0.5-2.5
								c0.2-0.8,0.2-1.7,0.3-2.5c0.3-1.8,0.5-3.5,0.5-5.4c0-0.9,0.1-1.8,0.1-2.7c0-0.9,0-1.8,0.1-2.7c0.4-2.2-0.3-5.1,0-7.2
								c0.3-4.3-0.3-8.4-1.1-12.6c-0.2-2-0.5-3.9-0.9-5.7l-0.3-1.5L60.7,24l-0.1-0.3v-0.1v-0.1h-0.1l-1.2-0.3l-1.4-0.3
								c-1.8-0.1-3.7-0.8-5.7-0.7l0.1,0.1c-0.7-0.2-1.6,0.4-2.1,0.1h0.1c-0.4-0.1-0.8,0.5-1,0.3v0.1c-0.4,0.1-0.1-0.1-0.4-0.1
								c-0.1,0,0,0.2-0.3,0.2c-0.2-0.4-1,0.4-1.2,0c0.2-0.1-0.4,0,0.1-0.3c-0.2,0-0.9,0.4-0.8,0.5c0.1,0.2-0.1,0.5,0.4,0.3v-0.2
								c0.2,0.1,0.1,0,0.2,0.1c0.5-0.2,0.7,0,1.1-0.1l0,0c0.2-0.2,0.6-0.2,0.8-0.2l0.1,0.1c0.2,0.1,0.6-0.4,0.5-0.1
								c1.1-0.2,2.6-0.3,4-0.2c0.2-0.1,1,0.1,0.7-0.1c0.3,0.2,1.4,0.4,1.7,0.4c0,0,0,0-0.1,0c0.7,0.4,0.9-0.2,1.6,0.3
								c0.1-0.2,1.2,0.3,1.7,0.1c0.1,0.1,0.1,0.1,0.1,0.2c0.3,0.1,0.6,0.1,0.9,0.2c0.2,0,0.1,0,0.1,0.1c0.1,0.6,0.2,1.1,0.3,1.7
								c0.4,0.8,0.3,2.2,0.7,2.9c0,0.6,0.1,1.7,0.3,2.6v-0.1c0.2,1,0.3,2.3,0.6,2.9c-0.3,0.3-0.1,0.7-0.2,1.2c0.2,0.6,0.3,2,0.5,3
								c-0.1,0.2,0.1,0.8-0.1,0.9c0.3,1.5,0.4,3,0.5,4.7c0,1.7-0.1,3.3-0.2,4.9l0,0c0.1,0.4,0.3,0.8,0.5,1.2l0,0
								c0,0.5-0.2,1.1-0.2,1.7c0,0,0,0-0.1-0.1c0.1,0.5-0.2,1-0.1,1.8h-0.1l0.1,0.4c-0.1,0-0.2,0-0.1-0.2c-0.1,1.2-0.2,2.4-0.2,3.6
								c-0.1,1.2-0.1,2.5-0.3,3.7c-0.1,1.2-0.3,2.5-0.4,3.7c-0.2,1.2-0.4,2.5-0.7,3.6v-0.2l-0.1,0.9V69c-0.3,1.1-0.5,2.5-0.8,3.6
								c0,0,0-0.2-0.1-0.1c-0.1,0.9-0.6,1.4-0.3,1.9c0,0-0.1,0-0.1-0.1c-0.2,1.2-0.6,2.4-1,3.5l-0.6,1.8c-0.2,0.6-0.4,1.1-0.7,1.8
								c-0.3,1-0.7,2-1.1,3c-0.2,0.5-0.4,0.8-0.5,1.2c0,0.1,0,0-0.1,0l-0.1-0.1l-0.2-0.2l-0.5-0.5h0.1c-1.9-2.1-3.3-4.7-4.9-7.2
								c-0.6-1-1.1-1.7-1.8-2.7l0.1-0.1c-1.4-1.6-1.9-3.9-3.2-5.5l0.2,0.1c-0.3-0.2-0.5-1.1-0.7-0.9l-0.1-0.4c-1-1.1-1-2.4-2-4
								l0.1,0.1c-0.2-0.4-0.5-0.9-0.6-1.2c0,0,0,0,0.1,0.1c-0.3-1.5-1.2-2.9-1.8-4.4l0.2,0.1c-0.4-0.6-0.7-2-1-2.9h0.1l-0.2-0.4h0.1
								C38.3,54.2,38,53.1,37.7,51.8z"/>
						</g>
					</g>
				</g>
			</g>
		</g>
		<g>
			<path class="st7" d="M68.1,29.3c0,0,12.4,4,15.8,6.4c3.4,2.4,4.6,4.6,5,8.4c0.5,3.9,5.7,32.5,5,44.5c-0.7,12,1.1,34.2,0.1,36.6
				c-1,2.4-7.5,1.5-9.9,0c-2.4-1.5-2.4-20.4-2.9-25c-0.5-4.6-2.4-28.3-2.4-30.1c0-1.8-0.9,16.6-0.5,20.2c0.5,3.6,8.9,34.7,2.9,36.3
				c-6,1.7-23.7,12.5-28.6-7.7c0,0-0.5-35.6,1.2-38.7C53.8,80.2,67.9,41,68.1,29.3z"/>
			<g>
				<g>
					<g>
						<g>
							<polygon class="st5" points="67.3,29.3 67.2,29.5 67.3,30 							"/>
							<path class="st5" d="M67.3,32.2c0-0.1,0.1,0,0.1-0.1c0-0.5-0.1-1.1-0.2-1.7C67,31.1,67.6,31.7,67.3,32.2z"/>
							<path class="st5" d="M67.2,32.7c-0.2,0.6-0.1,0.9,0,1C67.1,33.5,67.3,32.6,67.2,32.7z"/>
							<path class="st5" d="M52.6,104l0.1,0.2c-0.2-2.8,0-6,0-9.1v0.2c0.1-2.6,0.1-5.1,0.2-7.6c0.1-1.2,0.1-2.5,0.2-3.7
								c0.1-1.2,0.1-2.5,0.6-3.7l0,0c0.7-2.2,1.5-4.4,2.2-6.6c0,0.1,0,0.2,0,0.3c0.1-0.3,0.1-0.7,0.3-1.1c0.1-0.1,0,0.1,0,0.2
								c0.7-1.5,1.4-4.5,1.9-5.4c0.1-0.4,0.1-0.6,0-0.4c1.8-5.6,3.6-11.7,5.2-17.5c0.1-0.3,0.2-0.3,0.2-0.2c1.1-5,2.7-10.2,3.6-15.3
								c0-0.2-0.2,0.5-0.2,0c-0.4,1.7-0.4,3-0.8,4.5v-0.2c-0.3,1,0.1,0.3-0.2,1.4c-0.2,0.4-0.1-0.1-0.1,0.1
								c-0.5,2.3-1.2,4.7-1.7,6.9c-0.3,0.5-0.7,2.4-1.1,3.2c-0.1,0.6-0.3,1.1-0.2,1.5c-2.4,7.9-4.9,16-7.7,24.1
								c-0.4,1.5-0.8,2.9-1.5,4.6l0,0c-0.3,0.7-0.4,1.5-0.5,2.2c-0.1,0.7-0.2,1.5-0.3,2.2c-0.1,1.5-0.2,2.9-0.3,4.4l0,0
								c0,1.6,0,3.7-0.1,5.6l0.1,1.6c-0.2,5.5-0.3,11.1-0.2,16.8v4.2v1v0.5c0,0.2,0,0.3,0,0.6c0.2,0.7,0.3,1.4,0.6,2.1
								c0.8,2.7,2.2,5.3,4.3,7.4c1.2,1.1,2.7,2,4.3,2.4c1.6,0.5,3.1,0.6,4.7,0.5c3.1-0.1,6-0.9,8.9-2c1.5-0.5,2.8-1,4.2-1.6
								c0.7-0.3,1.4-0.5,2.1-0.7c0.1,0,0.4-0.2,0.6-0.3c0.2-0.1,0.4-0.3,0.5-0.4c0.2-0.1,0.3-0.3,0.4-0.5c0.1-0.2,0.2-0.4,0.3-0.5
								c0.6-1.6,0.6-3.1,0.7-4.7c0-1.6-0.2-3.1-0.3-4.6c0,0,0-0.1,0.1,0.2c-0.4-3.5-0.8-6.9-1.5-10.1l0,0c-0.9-4.1-1.9-8.3-2.8-12.6
								c-0.2-1-0.5-2.1-0.6-3.1c-0.1-1-0.1-2.1-0.2-3.1c0-2.1,0-4.2,0-6.2c0.1-2.5,0.2-5,0.3-7.6c0-0.6,0.1-1.2,0.1-2l0.1-0.9v-0.5
								v-0.1l0,0l0,0c-0.1,0,0-0.1-0.1,0c-0.1,0-0.1,0-0.1,0v0.1v0.2c0.1,1.4,0.2,2.6,0.3,4c0.4,5.3,0.8,10.6,1.4,15.8h-0.1
								c0.2,2.1,0.4,4.2,0.5,6.1c0.1,2.1,0.4,4.1,0.4,6.1c0.1,4.1,0.2,8.2,0.5,12.3c0.1,2.2,0.3,4.3,0.7,6.5c0.2,1,0.4,2.2,0.9,3.2
								c0.1,0.2,0.3,0.5,0.5,0.7c0.2,0.2,0.5,0.3,0.7,0.4c0.5,0.2,1,0.4,1.6,0.5c1,0.3,2.2,0.4,3.2,0.5c1.1,0,2.2,0,3.2-0.4
								c0.5-0.2,1-0.5,1.2-1c0.1-0.2,0.1-0.5,0.2-0.8l0.1-0.8c0.1-1,0.1-2.2,0.1-3.2c0.3-5.3-0.7-12.3-0.5-17.4
								c0.1-5.1,0.1-10.2,0.3-15.3c0.1-5.1-0.6-10.1-1.2-15.2C92,63,90.1,53.7,89,44.5c-0.4-2.1-0.7-4.5-2.2-6.4
								c-1.5-1.9-3.4-3.3-5.7-4.3l0.1,0.1c-1.5-0.9-3.7-1.2-4.6-1.9h0.2c-0.8-0.5-2.2-0.3-2.6-0.7H74c-1-0.3-0.1-0.1-0.9-0.4
								c-0.3-0.1-0.2,0.1-0.8-0.2c0-0.4-2.6-0.8-2.5-1.2c0.6,0.2-0.8-0.4,0.5-0.1c-0.3-0.2-2.2-0.7-2.1-0.5C68,29,67.2,29,68.3,29.4
								l0.2-0.1c0.3,0.2,0.2,0.2,0.3,0.3c1.4,0.5,1.6,0.7,2.5,1.1l0,0c0.7,0.1,1.7,0.5,2.2,0.7l0.2,0.1c0.3,0.3,1.7,0.3,1.1,0.4
								c1.5,0.5,2.9,1,4.5,1.7c1.5,0.6,3.1,1.4,4.4,2.3c0.4,0.2,2,1.6,1.6,0.9c0.2,0.4,0.7,0.9,1.2,1.7c0.4,0.6,0.8,1.4,0.9,1.8
								c0,0-0.1,0-0.1-0.2c0.2,0.8,0.4,1.2,0.6,1.8c0.2,0.4,0.3,0.9,0.3,1.8c0.3,0.2,0.4,3.1,0.8,4c0,0.2-0.1,0.3-0.1,0.2
								c0.5,3,0.9,6.4,1.4,8.9c0.5,2.2,0.7,5.3,1.2,7.1c0.1,1.6,0.3,4.1,0.7,6.2l-0.1-0.2c0.3,2.5,0.6,5.5,1,7.2
								c-0.2,0.7-0.1,1.8-0.1,2.9c0.2,1.7,0.4,4.9,0.4,7.4c-0.1,0.4,0,2.1-0.2,2.2c0.1,7.1,0.3,15.8,0.2,23.3v-0.1
								c0.1,0.9,0.4,2.1,0.6,3.1c0,0.1,0,0.1-0.1-0.1c0.1,1.4-0.1,2.7-0.1,4.1c0,0,0,0-0.1-0.2c0.1,1.2-0.1,2.7-0.1,4.2l-0.1,0.1
								c0,0.3-0.1,0.5-0.1,0.8c0,0-0.1-0.1,0-0.5c-0.1,1.1-1.7,1.5-3,1.5s-2.9-0.2-4.3-0.5c-0.7-0.2-1.4-0.4-2-0.7
								c-0.1,0-0.3-0.4-0.4-0.6c-0.1-0.3-0.2-0.6-0.3-1c-0.4-1.4-0.6-2.9-0.8-4.4c-0.7-5.9-0.8-12.1-1.2-18.1l0.1,0.4l-0.3-2.3
								c0,0,0.1,0.1,0.1,0.2c-0.2-3-0.6-6-0.8-9c0,0,0.1,0.4,0.1,0c-0.3-2.2,0-3.4-0.5-4.5c0-0.1,0.1-0.2,0.1,0
								c-0.3-3-0.6-6-0.8-9.1l-0.3-4.6L79,70.4v-0.5v-0.1c0,0,0-0.1-0.2-0.3c-0.3-0.1-0.4,0.1-0.4,0.1v0.1c0,0.1,0,0.1,0,0.1l0,0
								v0.1v0.3l-0.1,2.3c0.1,5.1-0.5,10.7-0.1,15.9h-0.1c0,1.8,0.5,3.4,0.9,5.1c0.4,1.7,0.7,3.4,1.1,5.1c0.7,3.4,1.4,7,2,10.4
								c0.4,2.9,0.8,4.8,1,7.7l-0.1,0.1c0.2,1.2,0.2,2.5,0.2,3.7s-0.2,2.6-0.6,3.9c-0.2,0.6-0.5,1.1-1,1.5c-0.5,0.2-1.2,0.4-1.8,0.6
								c-1.2,0.4-2.4,0.9-3.6,1.5l0.3-0.2c-0.7,0.5-2.9,1-2.6,1.1l-0.9,0.2c-1.6,0.7-3.2,1-4.9,1.2c-1.7,0.2-3.4,0.2-5.6,0h0.3
								c-1.1-0.1-2.4-0.5-3.1-1c0.1,0,0.1,0,0.3,0.1c-1.6-0.9-3-2.1-4.2-3.6c-1.1-1.5-2-3.2-2.6-5.1l0.3,0.3
								c-0.2-0.4-0.4-0.9-0.5-1.6c-0.1-0.3-0.2-0.6-0.2-0.9c-0.1-0.3,0-0.6-0.1-0.9c0-1.4,0-2.8,0-4l0.1,0.1l-0.1-1.2h0.1
								C52.7,110,52.7,107,52.6,104z"/>
							<path class="st5" d="M71.6,31.2c-0.1-0.1-0.2-0.1-0.3-0.1C71.3,31.1,71.5,31.1,71.6,31.2z"/>
						</g>
					</g>
				</g>
			</g>
		</g>
		<g>
			<path class="st7" d="M40,29.3c0,0-12.4,4-15.8,6.4c-3.4,2.4-4.6,4.6-5,8.4c-0.4,3.9-5.7,32.5-5,44.5c0.7,12-1.1,34.2-0.1,36.6
				c1,2.4,7.5,1.5,9.9,0s2.4-20.4,2.9-25c0.5-4.6,2.4-28.3,2.4-30.1c0-1.8,0.9,16.6,0.5,20.2c-0.5,3.6-8.9,34.7-2.9,36.3
				c6,1.7,23.7,12.5,28.6-7.7c0,0,0.5-35.6-1.2-38.7C54.2,80.2,40.1,41,40,29.3z"/>
			<g>
				<g>
					<g>
						<g>
							<polygon class="st5" points="39.2,29.3 39.2,29.5 39.3,30 							"/>
							<path class="st5" d="M39.7,32.3c0-0.1,0,0,0-0.1c-0.2-0.5-0.3-1.1-0.4-1.7C39.2,31.2,39.7,31.8,39.7,32.3z"/>
							<path class="st5" d="M39.7,32.8c0,0.6,0.2,0.9,0.3,1C39.9,33.6,39.9,32.7,39.7,32.8z"/>
							<path class="st5" d="M55.5,103.9l0.1,0.2c-0.2-2.8,0-6-0.2-9.1v0.2c0-2.6-0.1-5.1-0.3-7.7c-0.1-1.2-0.2-2.5-0.3-3.7
								c-0.1-0.6-0.1-1.2-0.2-1.9c-0.1-0.6-0.2-1.2-0.5-1.9l0,0c-0.8-2.1-1.6-4.3-2.4-6.6c0,0.1,0.1,0.1,0.1,0.2
								c-0.1-0.3-0.3-0.7-0.5-1c0-0.1,0.1,0.1,0.1,0.2c-0.3-1.6-1.7-4.4-1.8-5.4c-0.2-0.4-0.3-0.6-0.3-0.3
								c-1.9-5.6-3.9-11.6-5.6-17.4c-0.1-0.3,0-0.3,0.1-0.3c-1.7-4.9-3-10.1-3.9-15.3c-0.1-0.2,0,0.5-0.2,0c0.2,1.7,0.8,3,0.9,4.6
								l-0.1-0.2c0.2,1.1,0.2,0.2,0.4,1.4c0,0.4-0.1-0.1-0.1,0.1c0.5,2.3,1.1,4.7,1.9,6.9c0,0.6,0.7,2.5,0.7,3.3
								c0.2,0.6,0.4,1.1,0.5,1.4c2.3,8,5.1,16,7.8,24.1c0.6,1.4,1.1,2.9,1.7,4.5l0,0c0.2,0.5,0.3,1.2,0.4,2c0.1,0.7,0.1,1.5,0.2,2.2
								c0.1,1.5,0.2,2.9,0.2,4.4l0,0c0.1,1.6,0.2,3.7,0.2,5.6l0.2,1.6c0,5.5,0,11.1-0.1,16.8v4.2v1v0.5c0,0.2,0,0.4,0,0.4
								c-0.2,0.6-0.3,1.4-0.5,2c-0.8,2.6-2.2,5.2-4.2,7c-2.3,2.1-5.4,2.8-8.3,2.6c-2.9-0.2-5.8-1-8.5-2c-1.4-0.5-2.7-1-4.2-1.6
								c-0.7-0.3-1.4-0.5-2.2-0.7c-0.6-0.1-0.9-0.5-1.2-1.1c-0.5-1.2-0.7-2.7-0.7-4.3c-0.1-1.5,0-3,0.1-4.6c0,0,0.1-0.1,0,0.2
								c0.3-3.5,0.9-6.8,1.5-10.1l0,0c0.6-4.2,1.6-8.4,2.5-12.6c0.2-1,0.5-2.1,0.6-3.2c0.2-1.1,0.1-2.2,0.2-3.2
								c0-2.1-0.1-4.2-0.2-6.2c-0.1-2.5-0.2-5-0.3-7.6c0-0.6-0.1-1.2-0.1-2l-0.1-0.9v-0.5v-0.1l0,0c0,0,0,0,0-0.1c0,0,0,0-0.1-0.1
								c-0.2,0-0.1,0.1-0.1,0.1v0.1v0.2c-0.1,1.4-0.2,2.6-0.2,4c-0.4,5.3-0.8,10.6-1.1,15.8h-0.1c-0.1,2.1-0.3,4.2-0.5,6.1
								c-0.2,2.1-0.4,4.1-0.6,6.1c-0.2,4.1-0.4,8.1-0.7,12.3c-0.2,2.1-0.4,4.3-0.7,6.5c-0.2,1-0.3,2.2-0.7,3.1
								c-0.1,0.2-0.2,0.5-0.4,0.6c-0.2,0.2-0.4,0.3-0.7,0.4c-0.5,0.2-1,0.4-1.6,0.6c-1,0.3-2.1,0.5-3.2,0.6c-1,0.1-2.2,0.1-3.2-0.3
								c-0.5-0.2-1-0.5-1.2-1c-0.1-0.2-0.1-0.5-0.2-0.8l-0.1-0.8c-0.1-1-0.1-2.2,0-3.2c0.3-5.3,0-12.4,0.4-17.4
								c0.4-5.1,0.4-10.2,0.1-15.3c-0.2-5,0.1-10.1,0.5-15.2c1.2-9.4,2.4-18.9,4.2-27.8c0.1-1,0.2-2.2,0.6-3.3
								c0.3-1.1,0.9-2.2,1.8-3c1.6-1.8,3.6-3,5.8-4.1h-0.2c1.7-0.5,3.4-1.9,4.6-1.9l-0.2,0.1c0.9-0.2,1.9-1.1,2.5-1.1l0.1-0.1
								c1-0.4,0.2,0,0.9-0.2c0.3-0.1,0.1-0.2,0.7-0.4c0.2,0.3,2.6-0.9,2.8-0.6c-0.6,0.2,0.9-0.1-0.3,0.4c0.4-0.1,2.2-0.7,2-0.8
								c0.1-0.2,0.7-0.6-0.4-0.4l-0.2,0.2c-0.4,0-0.3,0-0.4,0c-1.5,0.4-1.7,0.3-2.7,0.6l0,0c-0.6,0.4-1.7,0.6-2.2,0.8h-0.2
								c-0.4,0-1.5,0.8-1.1,0.4c-1.5,0.5-2.9,1.1-4.5,1.8c-1.6,0.7-3.1,1.4-4.6,2.4c-0.3,0.3-2.1,1.7-1.4,1.4
								c-0.4,0.2-1,0.7-1.7,1.5c-0.6,0.7-1,1.5-1.2,2c0,0,0-0.1,0.1-0.2c-0.5,0.8-0.6,1.5-0.7,2c-0.1,0.5-0.1,1-0.4,1.9
								c0.2,0.3-0.5,3-0.4,4c-0.1,0.2-0.1,0.2-0.2,0.2c-0.5,3-1,6.4-1.6,8.9c-0.1,2.2-0.9,5.3-0.8,7.2c-0.3,1.6-0.7,4.1-0.9,6.2
								v-0.2c-0.3,2.5-0.6,5.5-0.5,7.3c-0.3,0.7-0.4,1.8-0.5,2.8c0,1.7-0.2,5,0,7.6c-0.1,0.4,0.1,2.1-0.1,2.2
								c0.7,7,0.2,15.7-0.3,23.3v-0.1c0.1,0.9,0.3,2.1,0.4,3.1c0,0.1-0.1,0.1,0-0.1c0,1.4-0.2,2.7-0.2,4.1c0,0,0,0-0.1-0.2
								c0.1,1.2-0.2,2.7,0.1,4.3v0.1c0,0.3,0.2,0.7,0.3,1c-0.1,0-0.2,0-0.3-0.6c0.1,0.2,0.1,0.4,0.2,0.6c0.1,0.2,0.2,0.4,0.4,0.6
								c0.3,0.3,0.7,0.6,1.1,0.7c0.8,0.3,1.6,0.4,2.4,0.4c1.6,0,3.1-0.2,4.6-0.6c0.7-0.2,1.5-0.5,2.2-0.9c0.5-0.4,0.6-0.8,0.8-1.1
								c0.1-0.4,0.3-0.7,0.4-1.1c0.4-1.6,0.5-3,0.7-4.6c0.6-6,0.5-12.2,0.9-18.2v0.4l0.1-2.4c0,0,0,0.1,0,0.2c0.4-3,0.4-6.1,0.7-9
								c0,0,0.1,0.4,0.1,0.1c0-2.2,0.5-3.4,0.2-4.6c0-0.1,0.1-0.2,0.1,0.1c0.2-3,0.4-6,0.6-9.1l0.3-4.6l0.1-1.1v-0.6l0,0l0,0l0,0
								h-0.2c0,0,0,0-0.1,0c-0.1,0,0,0,0,0l-0.1,0.1c-0.1,0-0.3,0-0.2,0l0,0v0.1v0.3l0.1,2.3c0.6,5,0.5,10.6,0.7,15.9h-0.1
								c0.1,1.7-0.4,3.3-0.7,5.1c-0.4,1.7-0.7,3.4-1.1,5.1c-0.7,3.4-1.6,7-2.1,10.4c-0.5,2.9-0.7,4.9-0.9,7.8l-0.1,0.1
								c0,1.2,0,2.5,0,3.7s0.1,2.6,0.5,3.9c0.2,0.6,0.5,1.2,1.1,1.7c0.6,0.4,1.2,0.4,1.9,0.7c1.2,0.4,2.5,0.9,3.6,1.2h-0.4
								c0.8,0.1,2.9,1.1,2.7,0.7l0.8,0.4c1.8,0.3,3.2,0.7,4.9,1.1c1.7,0.3,3.5,0.5,5.6,0l-0.3,0.1c1.1-0.2,2.4-0.7,3.1-1
								c-0.1,0.1,0,0.1-0.3,0.2c1.7-0.6,3.2-2,4.4-3.5c1.1-1.6,1.9-3.4,2.4-5.2v0.4c0.1-0.4,0.3-0.9,0.4-1.6
								c0.1-0.3,0.2-0.6,0.2-0.9l0.1-0.2v-0.3v-0.5c0-1.4,0.1-2.8,0-4l0.1,0.1l-0.1-1.2h0.1C55.7,110,55.6,107,55.5,103.9z"/>
							<path class="st5" d="M35.9,30.1c0.1,0,0.2-0.1,0.4-0.1C36.2,30,36,30.1,35.9,30.1z"/>
						</g>
					</g>
				</g>
			</g>
		</g>
		<g>
			<path class="st0" d="M46.2,23.5c0,0-7.7,4.1-9.2,12.7l4.6,1.7L37,41.9c0,0,0.5,16.4,15.4,35.1C52.5,77,40,41.9,46.2,23.5z"/>
			<g>
				<g>
					<g>
						<g>
							<path class="st5" d="M45.6,24.2L45.6,24.2v-0.6C45.3,23.8,45.7,24.1,45.6,24.2z"/>
							<path class="st5" d="M45.5,24.4c-0.1,0.2,0,0.3,0,0.4C45.4,24.7,45.6,24.4,45.5,24.4z"/>
							<path class="st5" d="M45.6,48.9h0.1c-0.3-0.9-0.3-2-0.5-3V46c-0.3-2.5-0.6-4.9-0.8-7.4c0,0,0,0,0.1,0.1
								c0-0.1-0.1-0.2-0.1-0.4c0,0,0.1,0,0.1,0.1c0.2-0.5-0.2-1.6,0-1.9c0-0.1-0.1-0.2-0.2-0.1c-0.1-2,0-4.1,0.1-6.1
								c0-0.1,0.1-0.1,0.1-0.1c-0.1-1.8,0.3-3.5,0.8-5.3c-0.1-0.1-0.1,0.1-0.2,0c-0.2,0.5,0,1-0.3,1.6l-0.1-0.1
								c-0.1,0.3,0.2,0.1,0,0.5c-0.1,0.1-0.1-0.1-0.1,0c-0.1,0.8-0.3,1.7-0.2,2.4c-0.2,0.2-0.1,0.8-0.3,1.1c0,0.2,0,0.4,0.1,0.5
								c-0.3,2.8-0.2,5.6-0.1,8.5c0.4,1.4,0.1,2.9,0.4,4.5l0,0c0.1,0.5,0.2,1.2,0.3,1.9l0.2,0.5c0.2,3.7,1,7.4,1.7,11.1
								c0.8,4.2,1.6,7.9,3.1,11.8c0,0,0,0-0.1-0.1c0.4,1.1,0.6,2.2,1,3.3l0,0c0.6,1.5,1,3,1.7,4.6l0.4-0.2c-0.7-1-1.5-2-2.3-2.8
								c-0.9-1.4-2-2.8-2.9-4.3c-0.9-1.6-1.9-3-2.8-4.6h0.1c-1.5-2.4-2.3-5-3.4-7.5c-0.9-2.7-2.4-5.4-2.9-8.2
								c-0.1-1.8-1.2-4-1.1-5.7c0-0.3,0-0.6,0-1v-0.5c0-0.1,0-0.3,0.1-0.3c0.4-0.3,1-0.8,1.5-1.2c0.5-0.4,0.9-0.9,1.5-1.4
								c0.4-0.4,1-1,1.5-1.5c-0.9-0.3-1.6-0.4-2.3-0.6c-0.4-0.2-0.7-0.3-1.1-0.4l-1.1-0.4L37,36.2c-0.1,0,0-0.1,0-0.1l0.1-0.3
								l0.1-0.6c0.1-0.4,0.1-0.8,0.3-1.1c0.4-1.6,1-3,2.1-4.2c0.6-1.4,2.1-2.3,3.1-3.4h-0.1c0.6-0.2,0.7-1.1,1.2-1l0,0
								c0.3,0,0.3-0.8,0.6-0.7v-0.1c0.3-0.2,0.1,0.1,0.3-0.1c0.1-0.1-0.1-0.2,0.1-0.2c0.2,0.3,0.7-0.6,0.9-0.2c-0.2,0.1,0.3,0,0,0.3
								c0.1,0,0.6-0.3,0.5-0.5c0-0.2,0.1-0.4-0.3-0.4v0.2c-0.2-0.1-0.1,0-0.2-0.1c-0.4,0.2-0.6,0.1-0.9,0.2l0,0
								c-0.1,0.3-0.4,0.4-0.6,0.5h-0.1c-0.2-0.1-0.3,0.6-0.3,0.3c-0.7,0.7-1.7,1.5-2.4,2.3c0,0.2-0.6,0.6-0.3,0.6
								c-0.3,0.1-0.9,0.7-1.1,0.9c0,0,0,0,0-0.1c-0.6,0.3-0.2,0.7-0.8,1c0.2,0.2-0.6,0.8-0.5,1.4c-0.1,0-0.1,0-0.2,0
								c-0.5,0.9-1,2-1.4,2.8c0,0.4-0.2,0.8-0.3,1.2c-0.1,0.2-0.1,0.4-0.1,0.6c0,0.1,0,0.3,0,0.4c0,0.2,0,0.3,0,0.4
								c0,0.1-0.1,0.2-0.1,0.4v0.1h0.1l0.2,0.1c0.2,0.1,0.5,0.2,0.8,0.3s0.7,0.3,1,0.3h-0.1c0.4,0.1,0.8,0.3,1.2,0.4
								c0.2,0.1,0.4,0.1,0.5,0.1c0.1,0,0.2,0,0.3,0c-0.2,0.2-0.2,0.2-0.2,0.2h-0.1c0.1,0,0.1,0,0.1,0s0,0-0.2,0.2
								c-0.3,0.3-0.6,0.6-0.9,1c-0.2,0-0.5,0.5-0.6,0.4c-0.4,0.4-0.8,0.9-1.2,1.4l-0.4,0.4c-0.1,0.1-0.2,0.2-0.2,0.3v0.4
								c0,0.3,0.1,0.7,0.1,1c0.1,1.4,0.2,2.7,0.4,4.1l0,0c0.2,0.3,0.5,0.6,0.7,0.9c0,0,0,0-0.1,0c0.1,0.4,0.1,0.9,0.2,1.4
								c0,0,0,0-0.1-0.1c0.2,0.4,0.1,0.9,0.3,1.4l0,0l0.2,0.3c-0.1,0-0.2,0-0.2-0.1c1,3.9,2.8,7.6,4.6,11.4L43,62.5l0.4,0.6h-0.1
								c0.3,0.9,1,1.8,1.5,2.7c0,0-0.2-0.1-0.1,0c0.5,0.5,0.3,1.1,0.8,1.2c0,0-0.1,0.1-0.1,0c1.1,1.7,2.2,3.4,3.3,5.2
								c1.2,1.2,2.1,2.9,3.4,4.2H52c0.2,0.3,0.5,0.5,0.7,0.8l0.3,0.3l-0.2-0.4c-0.7-1.8-1.1-3.7-1.8-5.6c-0.2-0.9-0.5-1.6-0.8-2.5
								h0.1c-0.7-1.5-0.6-3.4-1.5-5l0.1,0.1c-0.2-0.2-0.2-1-0.4-0.8V63c-0.6-1-0.3-2.1-0.9-3.4l0.1,0.1c-0.1-0.3-0.3-0.8-0.3-1
								c0,0,0,0,0.1,0.1c0-1.2-0.5-2.5-0.8-3.7l0.2,0.1c-0.3-0.5-0.3-1.7-0.5-2.5h0.1l-0.2-0.4h0.1C46,50.9,45.8,50,45.6,48.9z"/>
							<path class="st5" d="M44.7,23.7c0,0,0.1,0,0.1-0.1C44.9,23.6,44.9,23.7,44.7,23.7z"/>
						</g>
					</g>
				</g>
			</g>
		</g>
		<g>
			<path class="st0" d="M60.5,23.5c0,0,7.7,4.1,9.2,12.7l-4.6,1.7l4.6,4.1c0,0-0.5,16.4-15.4,35.1C54.2,77,66.7,41.9,60.5,23.5z"/>
			<g>
				<g>
					<g>
						<g>
							<polygon class="st5" points="59.7,23.7 59.7,23.7 59.8,23.8 							"/>
							<path class="st5" d="M60.3,24.5C60.3,24.4,60.4,24.4,60.3,24.5L59.8,24C59.7,24.3,60.4,24.3,60.3,24.5z"/>
							<path class="st5" d="M60.3,24.7c0,0.2,0.2,0.3,0.2,0.3C60.4,25,60.5,24.5,60.3,24.7z"/>
							<path class="st5" d="M61.2,49l0.1,0.1c-0.1-0.9,0.3-2,0.3-3v0.1c0.3-2.5,0.3-4.9,0.3-7.4c0,0,0,0.1,0.1,0.1
								c0-0.1-0.1-0.3-0.1-0.4c0,0,0.1,0,0.1,0.1c0.2-0.5-0.1-1.6,0.1-1.9c0-0.1-0.1-0.2-0.2-0.1c0-2-0.2-4.1-0.5-6
								c0-0.1,0.1-0.1,0.1-0.1c-0.5-1.7-0.7-3.4-1-5.1c-0.1,0,0,0.2-0.2,0c0,0.5,0.4,0.9,0.4,1.5h-0.1c0,0.4,0.2,0,0.2,0.4
								c0,0.2-0.1,0-0.1,0.1c0.2,0.7,0.2,1.6,0.5,2.3c-0.1,0.2,0.1,0.8,0,1.1c0.1,0.2,0.1,0.4,0.2,0.4c0.2,2.7,0.3,5.5,0.2,8.4
								c0.3,1.4-0.2,2.9-0.3,4.5l0,0c0,0.5,0,1.2-0.1,1.9l0.1,0.5c-0.7,3.6-1.1,7.4-2.1,11c-0.9,4.2-2.1,7.7-2.8,11.9
								c0,0-0.1,0,0-0.1c-0.3,1.1-0.7,2.2-0.9,3.3l0,0c-0.3,1.6-0.8,3.1-1.4,4.7l-0.5,1.5l0.9-1.2c0.7-1,1.5-2,2.1-3
								c0.9-1.4,2-2.8,2.9-4.3c0.9-1.6,1.9-3,2.6-4.7h0.1c1.2-2.5,2.7-4.8,3.6-7.4c1.2-2.6,1.7-5.6,2.6-8.4c0.7-1.7,0.5-4.1,1-5.7
								c0.1-0.3,0.2-0.6,0.2-0.9l0.1-0.5v-0.3c0-0.1-0.1-0.1-0.1-0.2c-0.5-0.5-0.9-0.9-1.5-1.4c-0.5-0.4-1-0.8-1.6-1.2
								c-0.5-0.4-0.9-0.7-1.5-1.1c0.6-0.3,1.4-0.6,2-0.9c0.4-0.1,0.7-0.2,1.1-0.4l1-0.4h0.1v-0.1l-0.1-0.2l-0.1-0.5
								c-0.1-0.4-0.2-0.7-0.3-1.1c-0.5-1.5-1.1-2.9-1.9-4.3c-0.9-1-1.6-2.7-2.8-3.7v0.1c-0.2-0.6-1.1-0.6-1.2-1.1h0.1
								c-0.1-0.3-0.8-0.1-0.8-0.4h-0.1c-0.3-0.2,0-0.1-0.2-0.3c-0.1-0.1-0.1,0.1-0.3-0.1c0.2-0.3-0.8-0.4-0.6-0.8
								c0.2,0.1-0.2-0.3,0.2-0.1c-0.1-0.1-0.6-0.4-0.7-0.2c-0.1,0.1-0.4,0.2-0.2,0.5l0.1-0.1c0,0.2,0,0.1,0,0.2
								c0.4,0.3,0.3,0.5,0.6,0.7l0,0c0.3,0,0.5,0.3,0.6,0.4v0.1c0,0.2,0.6,0.1,0.3,0.2c0.8,0.5,1.7,1.4,2.4,2.1
								c0.2,0,0.5,0.6,0.5,0.3c0,0.4,0.5,1,0.6,1.2c0,0,0,0-0.1,0c0.1,0.6,0.6,0.4,0.6,1c0.2-0.1,0.5,0.8,0.8,1
								c0,0.1-0.1,0.1-0.1,0.1c0.5,0.8,0.8,1.9,1,2.7c0.2,0.3,0.3,0.7,0.4,1.1c0,0.2,0.1,0.4,0.1,0.6V36l0,0l0.1,0.1
								c0,0,0,0.1-0.1,0.1h-0.1c0,0,0,0-0.1,0c-0.3,0.1-0.7,0.2-1,0.4l0.1-0.1c-0.4,0.1-0.8,0.3-1.2,0.5c-0.2,0.1-0.4,0.2-0.6,0.3
								c-0.3,0.1-0.5,0.3-0.7,0.4c-0.5,0-0.9,0.1-1.5,0.2c0.1,0.1,0.2,0.2,0.3,0.4c0.3,0.2,0.5,0.4,0.8,0.6c0.2,0.2,0.5,0.4,0.7,0.6
								c0.3,0.3,0.7,0.6,1,0.8c0,0.2,0.5,0.4,0.4,0.6c0.5,0.3,1,0.7,1.6,1.1c0.3,0.3,0.4,0.2,0.4,0.4s0,0.6-0.1,0.9
								c-0.2,1.4-0.5,2.6-0.9,3.9l0,0c0,0.3,0.2,0.7,0.3,1.1c0,0-0.1,0,0,0c-0.1,0.4-0.4,0.8-0.4,1.2c0,0,0,0,0-0.1
								c0,0.4-0.3,0.8-0.3,1.4h-0.1v0.3c-0.1,0-0.1-0.1-0.1-0.2c-1.1,3.7-2.3,7.7-4.1,11.4v-0.2l-0.2,0.7V63
								c-0.5,0.8-0.8,1.9-1.4,2.7c0,0,0-0.2-0.1-0.1c-0.2,0.7-0.7,0.9-0.6,1.4c0,0-0.1,0-0.1-0.1c-0.9,1.8-2,3.5-3.2,5.2
								c-0.6,1.6-2.1,2.9-2.9,4.5l0,0c-0.2,0.3-0.4,0.6-0.6,0.9l0.1,0.1c0.5-1.9,1.4-3.7,1.9-5.6c0.3-0.9,0.4-1.6,0.7-2.5h0.1
								c0.1-1.7,1.2-3.3,1.2-5.1l0.1,0.1c-0.1-0.3,0.3-1,0-0.9l0.2-0.3c-0.1-1.2,0.7-2.1,0.7-3.5v0.1c0-0.4,0.1-0.8,0.2-1.1
								c0,0,0,0,0,0.1c0.5-1.1,0.5-2.5,0.7-3.7l0.1,0.2c0-0.6,0.3-1.7,0.4-2.5l0.1,0.1v-0.4h0.1C61,51,61.1,50,61.2,49z"/>
							<path class="st5" d="M61.2,24.7C61.2,24.7,61.2,24.5,61.2,24.7C61.1,24.5,61.2,24.7,61.2,24.7z"/>
						</g>
					</g>
				</g>
			</g>
		</g>
	</g>
	<g>
		<g>
			<path class="st0" d="M74.4,49.5c0,0-0.9,2.7-1.1,5.3c0,0,19.3,0,48.5,0c0,0-0.2-3.2-1.4-5.3C120.5,49.5,100.1,48.2,74.4,49.5z"/>
			<g>
				<g>
					<g>
						<g>
							<polygon class="st5" points="74.4,50.2 74.5,50.3 74.6,50.2 							"/>
							<path class="st5" d="M75.3,50C75.3,50,75.3,49.9,75.3,50l-0.5,0.3C75.1,50.4,75.2,49.9,75.3,50z"/>
							<path class="st5" d="M75.5,50c0.2,0.1,0.3-0.1,0.3-0.1C75.7,50,75.4,49.9,75.5,50z"/>
							<path class="st5" d="M96.8,48.8v-0.1c-0.8,0.2-1.8,0-2.6,0.1h0.1c-2.2,0-4.3,0.2-6.5,0.3c0,0,0,0,0.1-0.1
								c-0.1,0-0.2,0.1-0.3,0.1c0,0,0-0.1,0.1-0.1c-0.5-0.2-1.4,0.2-1.7,0c-0.1,0-0.2,0.1-0.1,0.2c-1.8,0.1-3.5,0.2-5.3,0.4
								c-0.1,0-0.1-0.1-0.1-0.1c-1.5,0.3-3,0.3-4.6,0.3c-0.1,0.1,0.2,0.1,0,0.2c0.5,0.1,0.9-0.2,1.4-0.1l-0.1,0.1
								c0.3,0,0.1-0.2,0.4-0.1c0.1,0.1,0,0.1,0,0.1c0.7-0.1,1.5,0,2.1-0.2c0.2,0.2,0.7,0,1,0.1c0.2-0.1,0.3-0.1,0.4-0.2
								c2.4,0,4.9-0.2,7.4-0.3c1.1-0.3,2.6,0,4-0.1l0,0c0.4-0.1,1.1-0.1,1.7-0.1l0.4-0.1c3.2,0.2,6.6,0.1,9.8,0.2
								c3.7,0.1,7,0.4,10.6,0.2c0,0,0,0-0.1,0.1c1,0,2,0.1,3,0.1l0,0c0.6,0,1.2,0,1.9,0h0.4c0.1,0,0.2,0.1,0.2,0.2
								c0.1,0.2,0.2,0.5,0.3,0.8c0.4,1.1,0.6,2.4,0.9,3.4c0,0.1,0,0.3,0,0.4h-0.4c-0.3,0-0.7,0-1,0c-0.7,0-1.6,0-2.3,0
								c-1.6,0-3.1,0.1-4.7,0.1v-0.1c-2.4,0.1-4.8-0.2-7.2-0.1c-2.5-0.1-5.1,0.4-7.7,0.2c-1.6-0.3-3.6,0.4-5.1,0
								c-3-0.5-5.9-0.2-9,0.1c-2.8-0.2-5.5,0.3-8.2-0.1c-0.6,0.1-1.4,0-2,0l-0.4-0.1h-0.1c0,0-0.1,0,0-0.1l0.1-0.2
								c0.1-0.3,0.1-0.6,0.2-0.9h-0.1c0.3-0.4-0.1-1.1,0.3-1.5V52c0.2-0.2-0.3-0.7,0-0.8L74,51.1c0.1-0.3,0.1,0,0.2-0.2
								c0-0.1-0.1-0.1,0-0.2c0.4,0.1,0.1-0.8,0.5-0.7c0,0.2,0.2-0.2,0.2,0.2c0.1-0.1,0.2-0.6,0-0.6c-0.2-0.1-0.2-0.3-0.5-0.1
								l0.1,0.1c-0.2,0.1-0.1,0.1-0.2,0.1c-0.1,0.4-0.3,0.4-0.5,0.7l0,0c0.1,0.2-0.1,0.5-0.1,0.6h-0.1c-0.2,0.1,0.2,0.5,0,0.4
								c-0.1,0.4-0.2,0.9-0.2,1.5c0,0.2-0.1,0.5-0.1,0.7l-0.1,1c0,0,0,0.1,0,0.2c0,0.1,0,0.1,0,0.2v0.1h0.1c0.2,0,0.4,0,0.3-0.1
								c0.1,0.1,0.4,0.2,0.8,0.2c0.3,0,0.5,0.1,0.6,0c0,0,0,0-0.1,0c0.5,0.3,0.6-0.3,1.1,0.1c0.1-0.2,0.9,0.1,1.1-0.2
								c0.1,0.1,0.1,0.1,0.1,0.1c0.9,0,1.9,0.1,2.6,0.1c0.6-0.2,1.6,0.1,2.1-0.2c0.4,0.1,1.2,0.2,1.9,0.1h-0.1c0.7,0,1.7,0,2.1-0.2
								c0.2,0.3,0.5,0.2,0.8,0.3c0.5-0.1,1.5-0.1,2.2-0.2c0.1,0.1,0.6-0.1,0.6,0.1c2.1-0.4,4.6-0.2,6.9,0l0,0
								c0.3-0.1,0.6-0.3,0.9-0.5l0,0c0.4,0,0.7,0.2,1.1,0.1c0,0,0,0-0.1,0.1c0.4-0.1,0.7,0.2,1.2,0v0.1l0.3-0.1c0,0.1,0,0.2-0.2,0.1
								c3.4,0.1,7-0.3,10.6-0.2l-0.1,0.1l0.7-0.1c0,0,0,0-0.1,0.1c0.8,0.1,1.8-0.1,2.6,0c0,0-0.1,0.1,0,0.1c0.6-0.2,1,0.2,1.4-0.1
								v0.1c1.8-0.1,3.5-0.1,5.3-0.1c0.4-0.1,0.7-0.1,1.1-0.1c0.4-0.1,1.2,0.2,0.9-0.5c-0.1-0.5-0.1-0.9-0.2-1.4
								c-0.1-0.4-0.2-0.7-0.3-1.1h0.1c-0.2-0.5-0.3-0.9-0.5-1.5c-0.1-0.2-0.2-0.5-0.3-0.7l-0.2-0.4c0-0.1-0.1-0.1-0.2-0.1h-0.2
								c-1-0.1-2.1-0.2-3.1-0.2c-0.8-0.1-1.5,0-2.3,0v-0.1c-1.5,0.3-3-0.4-4.6-0.1l0.1-0.1c-0.2,0.2-0.9-0.1-0.8,0.2l-0.3-0.1
								c-1,0.4-1.9-0.2-3.1,0l0.1-0.1c-0.3,0-0.7,0.1-0.9,0c0,0,0,0,0.1,0c-1-0.3-2.2,0-3.3,0l0.1-0.1c-0.5,0.1-1.6,0-2.2,0.1v-0.1
								l-0.3,0.1v-0.1C98.6,48.7,97.8,48.8,96.8,48.8z"/>
							<path class="st5" d="M73.5,50.5C73.5,50.5,73.6,50.4,73.5,50.5C73.6,50.4,73.5,50.5,73.5,50.5z"/>
						</g>
					</g>
				</g>
			</g>
		</g>
		<g>
			<path class="st7" d="M73.3,54.8c0,0-1.4,32.7-1.1,46.9c0.2,14.2,2.3,62.5,3.4,65.2c0,0,14.7,1.1,18.3,0c0,0,4.8-83.9,3.6-87.9
				c0,0,1.2-1.2,1.5,3c0.1,4.2,0,21,0.6,26.1c0.6,5.1,0.7,39.4,1.4,44.8c0.6,5.4,0,13.3,0,14.5c0,0,16.9,0.8,19.8,0
				c0,0,1.9-45.7,1.1-56.6c-0.7-10.9,1.5-47.1,0-56C121.8,54.8,75.4,54.6,73.3,54.8z"/>
			<g>
				<g>
					<g>
						<g>
							<polygon class="st5" points="73.3,55.5 73.5,55.5 74.1,55.4 							"/>
							<path class="st5" d="M77.2,55.3c-0.1,0-0.1,0-0.2-0.1l-2.3,0.3C75.8,55.7,76.5,55.2,77.2,55.3z"/>
							<path class="st5" d="M77.9,55.3c0.9,0.1,1.2-0.1,1.5-0.1C79.1,55.3,77.8,55.2,77.9,55.3z"/>
							<path class="st5" d="M121.5,89.9c0-0.1,0-0.2,0-0.3C121.4,89.7,121.4,89.7,121.5,89.9z"/>
							<path class="st5" d="M121.8,110.5l0.1,0.2c-0.4-3.9-0.1-8.1-0.2-12.2v0.3c0.2-10.3,0.4-19.8,0.4-30.1c0,0.2,0,0.2,0.1,0.4
								c0-0.5-0.1-1-0.1-1.6c0-0.1,0.1,0.1,0.1,0.3c0.2-2.2-0.2-6.4-0.1-7.7c0-0.6-0.1-0.8-0.2-0.5c-0.1-1-0.1-2-0.2-3l-0.2-1.4
								v-0.1h-0.1h-0.3h-0.7c-2.1,0-4.2,0-6.2,0c-4.2,0.1-8.3,0.1-12.4,0.1c-0.4,0-0.4-0.1-0.3-0.1c-7,0.3-14.3,0.2-21.5,0.1
								c-0.3,0.1,0.7,0.1,0,0.2c2.3,0.1,4.2-0.2,6.2,0l-0.3,0.1c1.6,0,0.3-0.2,1.9-0.1c0.6,0.1-0.1,0.1,0.1,0.1c3.2,0,6.6,0,9.6-0.1
								c0.7,0.2,3.4,0,4.7,0.2c0.8-0.1,1.7,0,2-0.2c2.8,0,5.6,0,8.4,0s5.6,0,8.4,0h0.1v0.2l0.1,1c0.1,0.7,0.1,1.5,0.2,2.1
								c0.1,1.5,0.1,2.8,0.2,4.3c0,2.9,0,5.7,0,8.6c0.3,5.4-0.3,11.9-0.3,18.2l0,0c0,2.1,0,5.1-0.1,7.6l0.1,2.1
								c-0.1,3.7-0.2,7.5,0,11.4c0.2,3.7,0.1,7.6,0.1,11.4c-0.1,7.6-0.3,15.2-0.5,22.9c-0.3,7.4-0.6,14.4-0.9,21.2v0.5v0.1h-0.1
								c0,0-0.6,0.1-1,0.1c-0.8,0.1-1.7,0.1-2.5,0.1c-1.7,0-3.4,0-5.1,0c-3.3-0.1-6.7-0.1-10-0.2v-0.2v-0.3v-0.9c0-0.6,0-1.2,0-1.8
								c0-1.2,0-2.5,0-3.6c0,0,0-0.1,0.1,0.3c0-2.4,0-4.8-0.2-7.1c-0.2-2.3-0.2-4.5-0.3-6.8l0,0c-0.6-11.4-0.4-23.6-1-34.6
								c0-2.7-0.4-5.4-0.5-8.1c-0.1-2.8-0.1-5.6-0.2-8.4c0-2.8-0.1-5.7-0.1-8.6l-0.1-4.4c0-0.7-0.1-1.5-0.2-2.2
								c-0.1-0.3-0.2-0.7-0.3-1c-0.1-0.1-0.2-0.3-0.4-0.4c-0.2,0-0.4,0-0.5,0.2l0,0l0,0c0.2,1.4,0.2,2.8,0.2,4.3s0,2.9,0,4.4h-0.1
								c-0.1,11.4-1,22.2-1.5,33.4c-0.7,11.6-0.8,23.9-1.7,35.5c-0.3,3.1-0.4,6.7-0.6,10.2c-1,0.3-2.3,0.4-3.4,0.5
								c-1.1,0.1-2.3,0.1-3.4,0.1c-2.3,0-4.4-0.1-6.4-0.3c-1.7-0.1-3.3-0.3-5-0.4l-0.1-0.4c0-0.2-0.1-0.3-0.1-0.5l-0.1-1.1
								c-0.1-0.7-0.1-1.5-0.2-2.3c-0.1-1.6-0.2-3-0.3-4.5c-0.2-3-0.4-6-0.6-9.1c-0.4-6-0.8-12.1-1.2-18.2
								c-0.2-6.5-0.5-12.9-0.7-19.3c-0.1-3.2-0.2-6.4-0.3-9.6c0-3.1,0-6.4,0.1-9.5c-0.1-5.9,0.5-12.4,0.6-19l-0.1,0.2
								c0.3-2.4-0.2-5.3,0.2-6.8V67c0.2-1.2-0.3-2.9-0.1-3.6l-0.1-0.2c0-1.6,0.1-0.2,0.2-1.4c0-0.4-0.2-0.2-0.1-1
								c0.4-0.2,0.1-3.7,0.5-3.7c0,0.8,0.2-1.2,0.2,0.5c0.1-0.5,0.1-3,0-2.8c-0.2-0.2-0.3-1.2-0.5,0.3l0.1,0.3
								c-0.2,0.5-0.1,0.4-0.2,0.6c-0.1,2-0.3,2.3-0.4,3.7l0,0c0.1,1,0,2.4-0.1,3.1l-0.1,0.3c-0.2,0.5,0.2,2.3,0,1.7
								c-0.1,4.1-0.2,8.7-0.3,13.3c0.1,0.6-0.1,3.5,0.1,2.5c-0.2,1.1-0.4,4.6-0.4,5.8c0,0,0-0.1,0-0.3c-0.3,2.5,0.2,2.9-0.2,5.2
								c0.2,0.3-0.1,4.2,0.2,5.5c-0.1,0.3-0.1,0.4-0.1,0.3c0,4.2,0,8.7,0.1,12.2c0.3,3,0.1,7.3,0.5,9.8c0,2.1,0,5.6,0.3,8.5v-0.3
								c0.2,3.3,0.4,7.5,0.6,9.8c-0.2,1-0.1,2.5-0.1,4c0.2,2.2,0.4,6.8,0.7,10.2c-0.1,0.5,0.2,2.8,0,3c0.2,2,0.4,4,0.6,6
								c0.1,1,0.2,2.1,0.3,3.2c0.1,0.5,0.1,1,0.2,1.7c0,0.5,0.2,1,0.4,2c1.7,0.1,3.2,0.2,4.9,0.3c1.6,0.1,3.1,0.2,4.7,0.2
								c1.6,0.1,3.1,0.1,4.6,0.1c0.7,0,1.6,0,2.3-0.1c0.4,0,0.7-0.1,1.1-0.1c0.2,0,0.4,0,0.6-0.1l1-0.2c0-0.4,0.1-0.8,0.1-1.2v0.1
								c0-1.4-0.2-2.9-0.2-4.3c0-0.1,0.1-0.1,0,0.2c0.1-1.9,0.3-3.6,0.4-5.5c0,0,0,0,0,0.3c0-1.8,0.3-3.6,0.3-5.7l0.1-0.1v-1.4
								c0.1,0,0.2,0.1,0.1,0.8c0.9-16,1.5-32.6,2.2-49.1v0.6V99c0,0,0,0.2,0.1,0.3c0.3-4.1,0.2-8.3,0.3-12.3c0,0,0.1,0.6,0.1,0.1
								c-0.1-2.9,0.3-4.7-0.1-6.2c0-0.1,0.1-0.2,0.1,0.1c0-0.3,0-0.7-0.1-1.1c0-0.3-0.1-0.7-0.1-1.1l-0.1,0.4h0.1c0,0,0,0,0.1,0
								c0.1,0,0.2,0.2,0.2,0.4c0.1,0.4,0.2,0.8,0.3,1.2c0.1,0.9,0.1,1.9,0.1,2.8c0,1.9,0,3.7,0.1,5.6c0,3.7,0.1,7.6,0.1,11.4
								c0.1,1.7,0.2,3.4,0.3,5.3c0.1,1.8,0.3,3.6,0.4,5.4c0.1,3.6,0.2,7.4,0.4,10.9h-0.1c0.4,9.2,0.2,19,0.7,28.5
								c0.1,2,0.3,3.6,0.4,5.3c0.1,1.7,0.1,3.3,0.1,5.3l-0.1,0.1c0.1,2,0,3.9-0.1,5.9c5.1,0.2,10.2,0.6,15.2,0.4l-0.5,0.1
								c1-0.2,4.3-0.1,3.9-0.4c0.4,0,0.8,0,1.2-0.1c-0.1-4.8,0.5-8.6,0.5-14.5l0.1,0.4c0-1.6,0-3.3,0.1-4.5c0,0.2,0,0.1,0,0.4
								c0.4-4.8,0.3-10.2,0.4-15.4l0.1,0.6c-0.1-2.5,0.1-7,0.1-10.3l0.1,0.2l-0.1-1.7h0.1C122.1,118.6,122.1,114.5,121.8,110.5z"/>
						</g>
					</g>
				</g>
			</g>
		</g>
		<g>
			<rect x="83" y="49.1" class="st4" width="0.7" height="5.6"/>
			<g>
				<g>
					<g>
						<g>
							<path class="st5" d="M84.1,54.6L84.1,54.6l0.2,0.1C84.5,54.8,84,54.8,84.1,54.6z"/>
							<path class="st5" d="M83.6,52h-0.1c0.2,0.1,0,0.2,0.1,0.3l0,0c0,0.3,0.1,0.5,0.2,0.8c0,0,0,0-0.1,0h0.1h-0.1
								c-0.2,0.1,0.1,0.2,0,0.2c0,0,0.1,0,0.2,0c0,0.2,0.1,0.4,0.2,0.6H84c0.3,0.2,0.2,0.4,0.1,0.5c0.1,0,0.1,0,0.2,0
								c0.1-0.1-0.2-0.1,0-0.2h0.1c0,0-0.2,0-0.1,0c0.1,0,0.1,0,0.1,0c0-0.1,0-0.2-0.1-0.2c0.2,0,0-0.1,0.2-0.1c-0.1,0,0,0-0.2,0
								c0.1-0.3-0.1-0.6-0.1-0.9c-0.3-0.1,0.1-0.3,0-0.5l0,0c-0.1-0.1-0.1-0.1-0.1-0.2L84,52.3c0.3-0.4,0.1-0.8,0.2-1.1
								c0.1-0.4,0.3-0.8-0.1-1.2c0,0,0,0,0.1,0c-0.1-0.2,0.1-0.4,0-0.5l0,0c-0.1-0.1-0.1-0.3-0.1-0.4c-0.3,0-0.6,0-0.8,0.1
								c-0.1,0-0.2,0-0.3,0c0,0.3,0,0.7,0.1,1H83c0.1,0.3-0.2,0.6-0.1,0.8c-0.1,0.3,0.4,0.6,0.2,0.9c-0.3,0.2,0.4,0.4,0,0.6
								c-0.5,0.3-0.2,0.7,0.1,1c-0.1,0.2,0,0.3,0,0.5c0,0.1,0.1,0.2-0.1,0.4c0.1,0,0,0.1,0,0.3c0,0.1,0,0.2,0.1,0.2v-0.1
								c-0.1,0.2,0.3-0.3,0.2,0l0,0c0,0.2,0.2-0.4,0.2-0.2v-0.1v0.1c0,0,0-0.2,0-0.1c-0.1,0.4,0.1-0.1,0,0.3v0.2c0,0,0.1,0,0.1-0.2
								s0-0.3,0-0.5v0.1c0-0.1,0-0.1,0-0.2c0,0,0-0.2,0-0.3l0,0c0,0.2,0,0.1,0,0v-0.1c0.1-0.2-0.1,0.3,0,0c-0.1,0.1-0.1,0.1-0.1,0.1
								c-0.1,0.1,0,0-0.2,0.2c0.1-0.1,0.1-0.2,0.2-0.2c0.1-0.1,0.1-0.1,0.1-0.1l0,0c0.3-0.2-0.3,0.2,0.1-0.1
								c-0.2,0.2,0.1-0.1-0.2,0.1c0.1,0,0.1-0.1,0.1-0.1l0.1-0.1c-0.2,0,0.1-0.2-0.2-0.2c0.1-0.1,0.2-0.1,0.1-0.2l0,0
								c0-0.1,0-0.2-0.2-0.2c0.3,0,0.2-0.1,0.3-0.1c-0.1-0.1-0.1-0.2-0.2-0.3c0.1,0-0.1-0.1,0.1-0.1C83.3,52.7,83.4,52.4,83.6,52
								L83.6,52c-0.1,0-0.3,0-0.4-0.1l0,0c0,0,0.2-0.1,0.1-0.1c0,0,0,0,0.1,0c-0.1,0,0.2-0.1,0-0.1h0.1h-0.1c0.1,0,0.2,0,0.1,0
								c0.1-0.4-0.3-0.8-0.2-1.2h0.1l-0.1-0.1c0,0,0,0,0.1,0c0.1-0.1-0.1-0.2,0-0.3h0.1c-0.2-0.1,0.2-0.1-0.1-0.2h0.1
								c-0.1-0.1-0.1-0.3-0.1-0.3c-0.1-0.1-0.1-0.1-0.1-0.2c0-0.1,0-0.1,0-0.1s0,0,0.1-0.1v0.1c0.1-0.1,0.2-0.1,0.2-0.1
								c0,0.2-0.1,0.3-0.1,0.5c0,0.1,0.1,0.1,0.1,0.2h-0.1c0.3,0.2-0.3,0.4,0.1,0.5h-0.1c0.2,0-0.1,0.1,0.2,0.1h-0.1
								c0.4,0.1-0.2,0.2,0.1,0.4h-0.1c0.1,0,0.1,0.1,0,0.1l0,0c-0.3,0.1,0,0.3,0,0.4h-0.1c0.2,0.1,0,0.2,0.1,0.3h-0.1h0.1h-0.1
								C83.5,51.8,83.6,51.9,83.6,52z"/>
						</g>
					</g>
				</g>
			</g>
		</g>
		<g>
			<rect x="108.2" y="49.1" class="st4" width="0.7" height="5.6"/>
			<g>
				<g>
					<g>
						<g>
							<path class="st5" d="M109.4,54.6C109.3,54.6,109.3,54.6,109.4,54.6l0.2,0.1C109.8,54.8,109.2,54.8,109.4,54.6z"/>
							<path class="st5" d="M108.8,52h-0.1c0.2,0.1,0,0.2,0.1,0.3l0,0c0,0.3,0.1,0.5,0.2,0.8c0,0,0,0-0.1,0h0.1h-0.1
								c-0.2,0.1,0.1,0.2,0,0.2c0,0,0.1,0,0.2,0c0,0.2,0.1,0.4,0.2,0.6h-0.1c0.3,0.2,0.2,0.4,0.1,0.5c0.1,0,0.1,0,0.2,0
								c0.1-0.1-0.2-0.1,0-0.2h0.1c0,0-0.2,0-0.1,0c0.1,0,0.1,0,0.1,0c0-0.1,0-0.2-0.1-0.2c0.2,0,0-0.1,0.2-0.1c-0.1,0,0,0-0.2,0
								c0.1-0.3-0.1-0.6-0.1-0.9c-0.3-0.1,0.1-0.3,0-0.5l0,0c-0.1-0.1-0.1-0.1-0.1-0.2l-0.1-0.1c0.3-0.4,0.1-0.8,0.2-1.1
								c0.1-0.4,0.3-0.8-0.1-1.2c0,0,0,0,0.1,0c-0.1-0.2,0.1-0.4,0-0.5l0,0c-0.1-0.1-0.1-0.3-0.1-0.4c-0.3,0-0.6,0-0.8,0.1
								c-0.1,0-0.2,0-0.3,0c0,0.3,0,0.7,0.1,1h-0.1c0.1,0.3-0.2,0.6-0.1,0.8c-0.1,0.3,0.4,0.6,0.2,0.9c-0.3,0.2,0.4,0.4,0,0.6
								c-0.5,0.3-0.2,0.7,0.1,1c-0.1,0.2,0,0.3,0,0.5c0,0.1,0.1,0.2-0.1,0.4c0.1,0,0,0.1,0,0.3c0,0.1,0,0.2,0.1,0.2v-0.1
								c-0.1,0.2,0.3-0.3,0.2,0l0,0c0,0.2,0.2-0.4,0.2-0.2v-0.1v0.1c0,0,0-0.2,0-0.1c-0.1,0.4,0.1-0.1,0,0.3v0.2c0,0,0.1,0,0.1-0.2
								s0-0.3,0-0.5v0.1c0-0.1,0-0.1,0-0.2c0,0,0-0.2,0-0.3l0,0c0,0.2,0,0.1,0,0v-0.1c0.1-0.2-0.1,0.3,0,0c-0.1,0.1-0.1,0.1-0.1,0.1
								c-0.1,0.1,0,0-0.2,0.2c0.1-0.1,0.1-0.2,0.2-0.2c0.1-0.1,0.1-0.1,0.1-0.1l0,0c0.3-0.2-0.3,0.2,0.1-0.1
								c-0.2,0.2,0.1-0.1-0.2,0.1c0.1,0,0.1-0.1,0.1-0.1l0.1-0.1c-0.2,0,0.1-0.2-0.2-0.2c0.1-0.1,0.2-0.1,0.1-0.2l0,0
								c0-0.1,0-0.2-0.2-0.2c0.3,0,0.2-0.1,0.3-0.1c-0.1-0.1-0.1-0.2-0.2-0.3c0.1,0-0.1-0.1,0.1-0.1C108.5,52.7,108.6,52.4,108.8,52
								L108.8,52c-0.1,0-0.3,0-0.4-0.1l0,0c0,0,0.2-0.1,0.1-0.1c0,0,0,0,0.1,0c-0.1,0,0.2-0.1,0-0.1h0.1h-0.1c0.1,0,0.2,0,0.1,0
								c0.1-0.4-0.3-0.8-0.2-1.2h0.1l-0.1-0.1c0,0,0,0,0.1,0c0.1-0.1-0.1-0.2,0-0.3h0.1c-0.2-0.1,0.2-0.1-0.1-0.2h0.1
								c-0.1-0.1-0.1-0.3-0.1-0.3c-0.1-0.1-0.1-0.1-0.1-0.2c0-0.1,0-0.1,0-0.1s0,0,0.1-0.1v0.1c0.1-0.1,0.2-0.1,0.2-0.1
								c0,0.2-0.1,0.3-0.1,0.5c0,0.1,0.1,0.1,0.1,0.2h-0.1c0.3,0.2-0.3,0.4,0.1,0.5h-0.1c0.2,0-0.1,0.1,0.2,0.1h-0.1
								c0.4,0.1-0.2,0.2,0.1,0.4h-0.1c0.1,0,0.1,0.1,0,0.1l0,0c-0.3,0.1,0,0.3,0,0.4h-0.1c0.2,0.1,0,0.2,0.1,0.3h-0.1h0.1h-0.1
								C108.7,51.8,108.8,51.9,108.8,52z"/>
						</g>
					</g>
				</g>
			</g>
		</g>
		<g>
			<circle class="st4" cx="97.2" cy="51.8" r="1.6"/>
			<g>
				<g>
					<g>
						<g>
							<path class="st5" d="M95.3,51.9L95.3,51.9l-0.2-0.1C94.8,51.9,95.4,51.9,95.3,51.9z"/>
							<path class="st5" d="M95.2,51.9c-0.1,0,0.1,0,0.1,0C95.2,52,95.4,51.9,95.2,51.9z"/>
							<path class="st5" d="M96.8,53.3v-0.1c-0.1,0.2-0.1,0-0.2,0l0,0c-0.1-0.1-0.4,0-0.6-0.1l0,0l-0.1,0.1l0,0
								c0.1-0.2-0.2,0-0.1-0.1c0,0-0.1,0-0.1,0.1c-0.1-0.1-0.3-0.2-0.5-0.4c0,0,0.1,0,0.1-0.1c-0.3,0-0.3-0.3-0.2-0.5
								c-0.1,0-0.1,0-0.2,0c-0.1,0.1,0.2,0.1,0.1,0.2h-0.1c0,0,0.2,0,0.1,0c-0.1,0-0.1,0-0.1,0c0,0.1,0,0.2,0.2,0.2
								c-0.1,0.1,0,0.1-0.1,0.2c0.1,0,0.1,0,0.2,0c0,0.3,0.3,0.5,0.5,0.6c0.3-0.2,0.2,0.2,0.4,0.2l0,0c0.1,0,0.2-0.1,0.2,0l0.1-0.1
								c0.2,0.4,0.7,0.2,1,0.3c0.4,0,1-0.1,0.9-0.7l0,0c0-0.1,0.2-0.1,0.2-0.3l0,0c-0.1-0.3,0.3-0.5,0-0.8c0.1-0.3,0-0.6-0.2-0.8
								h0.1c-0.2-0.1-0.1-0.5-0.3-0.6c-0.1-0.3-0.6,0-0.7-0.2c-0.1-0.3-0.3,0.3-0.4,0c-0.3-0.5-0.7,0-0.7,0.3
								c-0.1,0-0.2,0.1-0.2,0.2c0,0.1-0.1,0.2-0.3,0.2c0.2,0.2-0.4,0.1-0.3,0.3h0.1c-0.2,0,0.3,0.2,0,0.1l0,0
								c-0.2,0,0.4,0.1,0.2,0.1h0.1h-0.1c0,0,0.2,0,0.1,0c-0.4,0,0.1,0.1-0.3,0.1h-0.2c0,0,0,0.1,0.1,0.1c0.2,0,0.3,0,0.5,0h-0.1
								c0.1,0,0.1,0,0.2,0c0,0,0.2,0,0.3,0l0,0c-0.2,0-0.1,0,0,0h0.1c0.2,0-0.3-0.1,0,0c-0.1-0.1,0-0.1,0-0.2c-0.1,0,0,0-0.2-0.1
								c0.2,0.1,0.3,0,0.3,0l0,0c0.3,0.1-0.2-0.1,0.1,0c-0.2-0.1,0.1,0-0.2-0.2l0.1,0.1c0,0,0.1,0,0.2,0c-0.1-0.2,0.1,0-0.1-0.2
								c0.1,0,0.2,0.1,0.1,0l0,0c0,0,0-0.1,0-0.3C97,51,96.9,51,97,51.1c0-0.1,0-0.1,0-0.2c0,0.1,0-0.1,0.1,0.1c0-0.4,0.3-0.3,0.3,0
								l0,0c0-0.1,0.1-0.3,0.1-0.5l0,0c0,0,0,0.2,0.1,0.1c0,0,0,0,0,0.1c0-0.1,0,0.2,0.1,0l0,0v-0.1c0,0.1-0.1,0.2-0.1,0.1
								c0.1,0.1,0.5,0,0.6,0.2h-0.1h0.1c0,0,0,0-0.1,0C98.1,51,98.3,51,98.3,51s-0.1,0-0.1,0.1c0.2,0-0.2,0.1,0.2,0h-0.1
								c0.2,0.1,0.2,0.2,0.1,0.3c0.3,0.1,0,0.2,0.3,0.4h-0.1c0.2,0.2-0.1,0.3-0.2,0.5c-0.1,0,0,0.1-0.1,0.2l-0.1-0.1
								c0.1,0.3-0.3,0-0.2,0.3l-0.1-0.1c0.1,0.2-0.1,0,0.1,0.2l-0.1-0.1c0.1,0.4-0.2-0.1-0.2,0.2v-0.1c0,0.1,0,0.1-0.1,0.1l0,0
								c-0.1-0.2-0.2,0.1-0.3,0.1V53c0,0.2-0.1,0-0.2,0.1V53v0.1V53C97,53.2,96.9,53.3,96.8,53.3z"/>
						</g>
					</g>
				</g>
			</g>
		</g>
		<g>
			<line class="st8" x1="97.2" y1="54.8" x2="97.6" y2="79"/>
			<g>
				<g>
					<g>
						<g>
							<path class="st5" d="M98,78.8L98,78.8l0.2,0.1C98.4,78.9,97.9,78.9,98,78.8z"/>
							<path class="st5" d="M98,78.8c0.1,0-0.1-0.1-0.1-0.1C98,78.7,97.9,78.8,98,78.8z"/>
							<path class="st5" d="M97.3,73.9h-0.1c0.2,0.2,0,0.4,0.1,0.6l0,0c0,0.5,0.2,0.9,0.2,1.5c0,0,0,0-0.1,0c0,0,0.1,0,0.1,0.1h-0.1
								c-0.2,0.1,0.1,0.3,0,0.4c0,0,0.1,0,0.2,0c0.1,0.4,0.1,0.8,0.2,1.2h-0.1c0.3,0.3,0.2,0.7,0.1,1c0.1,0,0.1,0,0.2,0
								c0.1-0.1-0.2-0.2-0.1-0.3h0.1c0-0.1-0.2,0-0.1-0.1c0.1,0,0.1,0,0.1,0c0-0.2,0-0.3-0.2-0.5c0.2,0,0-0.2,0.2-0.2
								c-0.1,0,0-0.1-0.2-0.1c0.1-0.5-0.1-1.1-0.1-1.7c-0.3-0.3,0.1-0.6-0.1-0.9l0,0c-0.1-0.1-0.1-0.2-0.1-0.4l-0.1-0.1
								c0.3-0.7,0.1-1.5,0.2-2.3c0.1-0.8,0.3-1.7-0.1-2.4c0,0,0,0,0.1,0c-0.1-0.2,0-0.4,0-0.7l0,0c-0.3-0.5,0-1.1-0.3-1.7
								c0-0.6,0-1.5-0.1-2.1h0.1c-0.1-0.5,0.2-1.1,0.1-1.7c0.1-0.6-0.4-1.1-0.2-1.8c0.3-0.3-0.4-0.8,0-1.1c0.5-0.7,0.2-1.4-0.1-2.1
								c0.2-0.6-0.3-1.2,0.1-1.9c-0.2-0.3,0.3-0.6,0.2-0.9h-0.1c0.2-0.1-0.3-0.2,0-0.3l0,0c0.2-0.1-0.4-0.1-0.2-0.2H97
								c0-0.1,0.1,0,0.1-0.1c0,0-0.2,0-0.1-0.1c0.4,0-0.1-0.2,0.3-0.2c0,0,0.2-0.1,0.2,0c0,0,0-0.1-0.2-0.1c-0.2,0-0.3-0.1-0.5,0
								h0.1c-0.1,0-0.1,0-0.2,0c0,0.1-0.2,0.1-0.3,0.2l0,0c0.2,0,0.1,0.1,0,0.1h-0.1c-0.2,0,0.3,0.1,0,0.1c0.1,0.2,0.1,0.4,0.1,0.6
								c0.1,0,0,0.2,0.2,0.1c-0.2,0.1-0.3,0.2-0.3,0.3l0,0c-0.3,0.1,0.3,0.1-0.1,0.2c0.2,0-0.1,0.2,0.2,0.3c-0.1,0-0.1,0-0.1,0
								c0,0.2-0.1,0.4-0.1,0.6c0.2,0.1-0.1,0.3,0.2,0.5c-0.1,0.1-0.2,0.3-0.1,0.4l0,0c0,0.2,0,0.4,0.2,0.5c-0.3,0.1-0.2,0.1-0.3,0.2
								c0.1,0.1,0.1,0.3,0.2,0.5c-0.1,0,0.1,0.1-0.1,0.1c0.4,0.5,0.3,1,0,1.6l0,0c0.1,0.1,0.3,0.1,0.5,0.2l0,0
								c0,0.1-0.2,0.2-0.1,0.3c0,0,0,0-0.1,0c0.1,0.1-0.2,0.2,0,0.3h-0.1l0.1,0.1c-0.1,0-0.2,0-0.1,0c-0.1,0.8,0.3,1.6,0.3,2.4h-0.1
								l0.1,0.2c0,0,0,0-0.1,0c-0.1,0.2,0.1,0.4,0.1,0.6h-0.1c0.2,0.1-0.2,0.2,0.1,0.3h-0.1c0.1,0.4,0.1,0.8,0.1,1.2
								c0.3,0.3,0,0.7,0.3,1H97c0.2,0.4,0,0.9,0,1.5c0,0.2,0.1,0.3,0.1,0.5H97c0.3,0.3-0.3,0.7,0.1,1H97c0.2,0-0.1,0.2,0.2,0.2
								l-0.1,0.1c0.4,0.2-0.2,0.4,0.1,0.7h-0.1c0.1,0.1,0.1,0.2,0,0.2l0,0c-0.3,0.2,0,0.5,0,0.7H97c0.2,0.1,0,0.3,0.1,0.5H97
								l0.1,0.1H97C97.2,73.5,97.3,73.7,97.3,73.9z"/>
						</g>
					</g>
				</g>
			</g>
		</g>
	</g>
	<g>
		<g>
			<path class="st4" d="M131.1,2.4c0,0,9.5,4.5,17.7,0c0,0,5,9.5-5.3,13C133.3,19,129.6,14,131.1,2.4z"/>
			<g>
				<g>
					<g>
						<g>
							<polygon class="st5" points="130.4,2.3 130.4,2.3 130.5,2.4 							"/>
							<path class="st5" d="M130.6,2.8L130.6,2.8l-0.2-0.3C130.2,2.6,130.7,2.7,130.6,2.8z"/>
							<path class="st5" d="M130.6,2.9c-0.1,0.1,0.1,0.2,0.1,0.2C130.6,3,130.7,2.9,130.6,2.9z"/>
							<path class="st5" d="M132.9,14.3L132.9,14.3c-0.3-0.3-0.5-0.8-0.7-1.2l0,0c-0.5-1-0.9-2.2-1.2-3.3c0,0,0,0,0.1,0
								c-0.1,0-0.1-0.1-0.1-0.2h0.1c0.2-0.3-0.2-0.7-0.1-0.9c0-0.1-0.1-0.1-0.2,0c-0.1-0.5-0.1-0.9-0.1-1.5s-0.1-1-0.1-1.5
								c0,0,0.1-0.1,0.1,0c-0.1-0.4-0.2-0.8-0.1-1.2c0-0.4,0.1-0.8,0.2-1.2c-0.1,0-0.1,0.1-0.2,0c-0.1,0.3,0.1,0.5,0,0.7h-0.1
								c-0.1,0.2,0.2,0.1,0.1,0.2c-0.1,0.1-0.1,0-0.1,0c0,0.4-0.1,0.8,0.1,1.1c-0.2,0.1,0,0.4-0.2,0.5c0.1,0.1,0,0.2,0.1,0.2
								c-0.1,0.7,0,1.4,0,2.1c0.1,0.7,0.2,1.4,0.3,2.1c0.2,0.3,0.3,0.6,0.3,1c0.1,0.4,0.1,0.7,0.3,1.1l0,0c0.1,0.2,0.3,0.5,0.4,0.8
								l0.2,0.2c0.1,0.4,0.4,0.8,0.6,1.2c0.3,0.4,0.6,0.7,1,1c0.8,0.5,1.8,0.9,2.7,1.1c2.2,0.4,4.2,0.2,5.9-0.7c0,0,0,0,0,0.1
								c0.5-0.2,1.1-0.3,1.6-0.5l0,0c1.1-0.7,2.7-1.1,3.5-2.3c1.2-1,2.3-2.7,2.5-4.4h0.1c0.1-1.4,0.4-2.7,0-4.1
								c-0.1-0.7-0.4-1.4-0.7-2c-0.1-0.2-0.2-0.3-0.3-0.5l-0.1-0.1h-0.1l-0.2,0.1c-0.3,0.2-0.6,0.3-0.9,0.4c-0.9,0-1.8,1-2.7,0.9
								c-1.8-0.1-3.2,0.3-4.9,0.6c-1.6-0.2-3.1,0-4.6-0.6c-0.7,0.1-1.4-0.6-2.2-0.8v0.1c-0.2-0.3-0.7,0.1-0.7-0.3l0,0
								c-0.1-0.2-0.5,0.3-0.5,0.1L131.8,3c-0.2,0,0-0.1-0.1-0.2c-0.1,0-0.1,0.1-0.2,0.1c0.1-0.3-0.4-0.1-0.3-0.5
								c0.1,0-0.1-0.2,0.2-0.2c0-0.1-0.3-0.2-0.3,0c-0.1,0.2-0.3,0.2-0.2,0.5l0.1-0.1c0,0.1,0,0.1,0,0.2c0.2,0.1,0.2,0.3,0.3,0.4
								l0,0c0.2-0.1,0.3,0,0.4,0.1v0.1c0,0.2,0.4-0.2,0.2,0c0.5,0.1,1,0.3,1.6,0.4c0.1-0.1,0.4,0.1,0.3-0.1c0.1,0.2,0.4,0.4,0.6,0.4
								l0,0c0.2,0.3,0.4-0.2,0.6,0.2c0.1-0.2,0.5,0.2,0.7-0.1c0,0.1,0,0.1,0,0.2c0.5,0.1,1,0.3,1.5,0.3c0.4-0.2,0.8,0.2,1.2-0.1
								c0.2,0.1,0.6,0.2,1,0.1l0,0c0.4,0,0.9,0,1.2-0.2c0.1,0.3,0.3,0.2,0.5,0.3c0.3-0.1,0.8-0.1,1.2-0.3c0.1,0.1,0.3-0.1,0.4,0.1
								c1.1-0.5,2.5-0.6,3.9-0.8l0,0c0.1-0.2,0.2-0.4,0.3-0.6c0,0,0,0,0,0.1c0.2-0.1,0.5,0,0.6-0.1c0,0,0,0,0,0.1
								c0.2-0.2,0.5,0,0.6-0.3l0,0c0,0,0-0.1,0.1-0.1c0,0.1,0,0.2,0,0.1c0,0,0.1,0,0.1-0.1c0,0,0,0.1,0.1,0.1
								c0.2,0.3,0.4,0.8,0.5,1.2c0.3,0.9,0.5,1.9,0.5,2.8l-0.1-0.1c0,0.1,0.1,0.2,0.1,0.4c0,0,0,0-0.1,0c-0.2,0.4,0,0.9-0.1,1.4
								c0,0-0.1-0.1-0.1,0c0.1,0.4-0.3,0.4,0,0.7h-0.1c-0.2,0.9-0.6,1.8-1.2,2.5c-0.1,0.2-0.2,0.4-0.3,0.5c-0.1,0.2-0.3,0.3-0.4,0.4
								c-0.3,0.3-0.6,0.5-0.9,0.8v-0.1c-0.8,0.8-2,1-3,1.5c-0.4,0.1-0.7,0.3-1.1,0.4v-0.1c-0.3,0.3-0.7,0.3-1.2,0.3
								c-0.4,0-0.8,0.1-1.2,0.3v-0.1c-0.1,0.2-0.5,0-0.4,0.3l-0.2-0.1c-0.5,0.5-1-0.1-1.8,0.1v-0.1c-0.2,0.1-0.4,0.1-0.5,0
								c0,0,0,0,0.1,0c-0.3-0.2-0.5-0.2-0.8-0.2c-0.3,0-0.6-0.1-0.9-0.2l0.1-0.1c-0.3,0.1-0.7-0.3-1.1-0.4h0.1H134l0.1-0.1
								c-0.2-0.1-0.4-0.3-0.6-0.4C133.3,14.7,133,14.5,132.9,14.3z"/>
						</g>
					</g>
				</g>
			</g>
		</g>
		<g>
			<path class="st7" d="M110.8,10.1c0,0-18.3,19.4-16.4,21c2,1.7,16.4,12.2,16.4,12.2l2.8-1.7c0,0,0,49.4,1.4,54.1
				c0,0,48.2-0.8,51.6,0c0,0-1.1-57.2,0-58.5c0,0,1.4,4.5,3.9,6.1c0,0,13.9-11.1,15.8-14.2c0,0-15-18.3-19.4-20.2s-15.2-6.1-18-6.7
				c0,0-0.3,7.8-4.2,8.9c-3.9,1.1-10.8,2.2-13.5-8.9C131.1,2.4,114.3,6.3,110.8,10.1z"/>
			<g>
				<g>
					<g>
						<g>
							<polygon class="st5" points="111.3,10.6 111.5,10.5 111.7,10.2 							"/>
							<path class="st5" d="M113.3,8.9c-0.1,0-0.1,0-0.1,0c-0.4,0.3-0.7,0.7-1.1,1.1C112.7,9.8,112.8,9,113.3,8.9z"/>
							<path class="st5" d="M113.7,8.7c0.5-0.2,0.7-0.4,0.8-0.5C114.4,8.3,113.5,8.6,113.7,8.7z"/>
							<path class="st5" d="M155.8,5.1c-0.1,0-0.1,0-0.2-0.1C155.7,5.1,155.7,5.1,155.8,5.1z"/>
							<path class="st5" d="M169.1,10.4h0.2c-0.3-0.2-0.5-0.4-0.8-0.6c-0.3-0.2-0.5-0.4-0.9-0.6c-0.6-0.4-1.2-0.6-2-0.9
								c-1.4-0.6-2.7-1.1-4.1-1.7h0.2c-2.2-0.8-4.3-1.7-6.5-2.4c-2.2-0.7-4.3-1.6-6.5-2c0,1.2-0.2,2.4-0.4,3.6
								c-0.3,1.1-0.6,2.4-1.4,3.4c0.1-0.1,0-0.1,0.1-0.2c-0.1,0.3-0.3,0.7-0.6,0.9c-0.1,0,0-0.1,0.1-0.2c-0.9,1.2-4,2-4.9,1.9
								c-0.4,0.1-0.6,0.1-0.3,0.2c-1.5,0.1-2.9,0-4.3-0.6c-1.4-0.6-2.6-1.6-3.4-2.7c-0.9-1.2-1.6-2.5-2.1-4c-0.1-0.3-0.2-0.7-0.3-1
								l-0.2-0.8V2.6H131l-0.3,0.1l-1,0.3c-0.3,0-0.3,0-0.3-0.1c-4.6,1.6-9.6,2.8-14.1,4.9c-0.1,0.1,0.5-0.1,0.1,0.1
								c1.5-0.6,2.6-1.4,4-1.7l-0.1,0.1c1-0.3,0.1-0.2,1.2-0.5c0.4-0.1-0.1,0.1,0.1,0.1c2.1-0.7,4.4-1.4,6.4-2.1
								c0.5,0,2.3-0.6,3.1-0.7c0.3-0.1,0.6-0.2,0.7-0.2s0.1-0.1,0.2-0.1c0,0,0.1,0,0.1,0.1V3l0.2,0.6c0.1,0.5,0.3,0.9,0.5,1.5
								c0.3,0.9,0.8,1.9,1.4,2.7c1,1.8,2.7,3.3,4.8,4c2.1,0.6,4.3,0.5,6.2,0c0.5-0.1,0.9-0.2,1.6-0.5c0.5-0.2,0.9-0.6,1.4-0.9
								c0.7-0.8,1.2-1.8,1.6-2.7c0.2-0.8,0.4-1.7,0.5-2.6c0.1-0.4,0.1-0.9,0.2-1.4l0.1-0.6V2.6c0.1,0,0.3,0.1,0.5,0.1
								c0.3,0.1,0.5,0.2,0.8,0.3c0.6,0.2,1.1,0.4,1.8,0.6c1.1,0.4,2.4,0.8,3.5,1.2l0,0c1.4,0.4,3.4,1.1,5,1.8l1.5,0.4
								c1.2,0.5,2.4,1,3.6,1.6l0.9,0.4l0.8,0.5c0.5,0.4,1,0.7,1.6,1.1c2,1.8,3.9,3.6,5.6,5.5c3.6,3.9,7.1,7.9,10.5,12.1
								c0.2,0.2,0.4,0.5,0.6,0.7l-0.2,0.3c-0.1,0.2-0.3,0.3-0.4,0.5c-0.3,0.3-0.6,0.6-0.9,0.9c-0.6,0.6-1.2,1.2-2,1.9
								c-1.4,1.2-2.7,2.4-4,3.4c-1.4,1.1-2.7,2.2-4.1,3.3c-1.2,1-2.5,2-3.7,3l-0.1-0.1l0,0l-0.1-0.1c-0.2-0.2-0.3-0.3-0.5-0.5
								c-0.3-0.4-0.6-0.8-0.9-1.2c-0.1-0.2-0.3-0.4-0.4-0.6c-0.1-0.2-0.2-0.4-0.4-0.9c-0.2-0.4-0.4-0.8-0.5-1.2l-0.5-1.6
								c-0.1,0.1-0.2,0.2-0.2,0.2l0,0l-0.1,0.2c-0.1,0.1-0.1,0.2-0.1,0.3c-0.1,0.2-0.1,0.4-0.2,0.7c0,0.3-0.1,0.5-0.1,0.8v1V40v0.3
								c0,0.4,0,0.9,0,1.5c0,0,0,0.1-0.1-0.2c0,3.4-0.2,6.6-0.1,9.7l0,0c0.3,7.9,0,16.6,0.4,24.3c0,3.1,0.1,6.5,0.1,9.9
								c0.1,3.3,0.1,6.8,0.2,10.2l-1-0.1l-1.1-0.1c-0.8,0-1.6,0-2.4-0.1c-1.6,0-3.2,0-4.8,0v-0.1c-7.9,0.1-15.5-0.2-23.4,0
								c-4.1,0-8.2,0.1-12.4,0.3l-3.1,0.1h-1.6h-0.8h-0.4H116c-0.1,0-0.1,0-0.1-0.1c-0.4-2.1-0.5-4.2-0.5-6.1
								c0-5.1-0.8-11.7-0.5-16.5c0.3-9.8-0.1-19.3-0.4-29.1v-2.2l-2.4,1.5c-0.2,0.3-0.4,0-0.7-0.2l-0.6-0.4l-1.2-0.8
								c-1.6-1.1-3.2-2.3-4.8-3.4c-3.2-2.3-6.4-4.6-9.3-7.1c-0.2-0.2-0.2-0.5-0.2-0.7c0.2-1,0.8-2,1.5-2.8c0.6-0.9,1.4-1.8,2.1-2.6
								c1.5-1.7,3-3.4,4.5-5.2l-0.2,0.1c1.2-1,2.2-3,3.1-3.5l-0.1,0.1c0.7-0.5,1-1.8,1.6-2.1v-0.2c0.7-0.8,0.2,0,0.7-0.6
								c0.2-0.2,0-0.2,0.4-0.6c0.4,0.1,1.7-2,2.1-1.8c-0.4,0.4,0.7-0.5-0.1,0.4c0.3-0.2,1.5-1.6,1.2-1.6c0-0.2,0.3-0.8-0.5-0.2V10
								c-0.3,0.2-0.2,0.1-0.4,0.2c-0.9,1-1.2,1-2,1.7l0,0c-0.3,0.6-1,1.2-1.5,1.7l-0.2,0.1c-0.3,0.1-0.8,1.4-0.7,0.9
								c-1.9,2.2-4.1,4.7-6,7.1c-0.2,0.4-1.6,1.9-0.9,1.5c-0.7,0.5-2.2,2.3-2.7,3.1c0,0,0-0.1,0.1-0.2c-0.6,0.6-0.8,1.1-1,1.6
								c-0.2,0.5-0.4,0.9-0.9,1.6c0,0.1,0,0.3-0.1,0.6c-0.1,0.2-0.3,1,0.2,1.5c0.4,0.4,0.7,0.6,1.1,0.8c0.3,0.2,0.6,0.4,0.9,0.5
								c0.1,0.2,0.1,0.2,0.1,0.2c2.3,1.8,4.8,3.7,6.8,5.2c1.8,1,4.1,3.1,5.6,3.9c0.3,0.2,0.6,0.5,0.9,0.7c0.2,0.1,0.3,0.3,0.5,0.4
								c0.2,0.1,0.3,0.2,0.5,0.4c0.1,0,0.2,0.2,0.3,0.1l0.3-0.2c0.5-0.3,1-0.6,1.5-0.8l0.2-0.1l0,0l0.1-0.1l0,0l0,0v0.1
								c0,0.2,0,0.5,0,0.7c0,0.6,0,1.2,0,1.9c0,1.2,0.1,2.4,0.2,3.1c-0.3,0.7-0.2,1.7-0.3,2.7c0.1,1.6,0.1,4.7,0.3,7.1
								c-0.1,0.4,0.1,2-0.1,2.1c0.4,6.7,0.4,15,0.3,22.2V82c0.1,0.9,0.4,2,0.6,2.9c0,0.1,0,0.1-0.1-0.1c0.1,1.4-0.1,2.5,0,3.9
								c0,0,0,0-0.1-0.2c0.2,1.2,0,2.5,0.3,4v0.1l0.2,0.9c-0.1,0-0.2,0-0.2-0.5c0,0.3,0,0.7,0.1,1l0.2,1.5v0.1v0.1h0.1h0.2h0.5h0.7
								h1c1.5,0,2.8-0.1,4.3-0.1c2.8-0.1,5.7-0.1,8.5-0.2c5.7-0.1,11.6-0.3,17.3-0.3l-0.4,0.1l2.2-0.1c0,0-0.1,0-0.2,0.1
								c2.8,0.1,5.8-0.1,8.5,0c0,0-0.4,0.1,0,0.1c2.1-0.1,3.3,0.3,4.3-0.1c0.1,0,0.2,0.1,0,0.1c0.8,0,1.7,0,2.5,0h1.2
								c0.3,0,1,0.1,1.7,0.2c0-2.2-0.1-4.4-0.1-6.6c0-2.1,0-4.1-0.1-6.1c-0.4-4.8-0.2-10.1-0.5-15.1h0.1c-0.3-6.5-0.1-13.3-0.1-20
								c0-2.8,0-4.7,0.1-7.4l0.1-0.1c0-0.7,0-1.4,0-2.2c0-0.3,0.1-0.7,0.1-1c0-0.1,0.1-0.2,0.1-0.2c0-0.1,0,0,0,0.1v0.1l0.2,0.5
								c0.4,0.9,0.7,1.8,1.4,2.8c0.3,0.5,0.6,0.9,0.9,1.4c0.3,0.4,0.7,0.8,1.4,1.2c0.6-0.5,1-0.8,1.6-1.2c0.4-0.4,0.9-0.8,1.4-1.2
								l-0.2,0.3c0.5-0.6,2.3-1.9,1.9-1.9l0.7-0.5c2.3-2.5,4.8-3.7,7.6-6.8l-0.1,0.2c0.7-0.8,1.7-1.7,2.2-2.3
								c-0.1,0.1,0,0.1-0.2,0.3c0.2-0.2,0.4-0.4,0.6-0.6c0.2-0.2,0.4-0.5,0.6-0.7c-0.2-0.3-0.5-0.6-0.7-0.9
								c-0.2-0.3-0.5-0.6-0.7-0.8c-0.5-0.5-1-1.1-1.5-1.7c-1-1.1-2.1-2.3-3-3.4l0.4,0.2c-1.2-1.2-3.2-3.6-4.9-5.3l0.1,0.1l-0.8-0.8
								l0.1-0.1C173.3,14.2,171.3,12.3,169.1,10.4z"/>
							<path class="st5" d="M146.6,10L146.6,10C146.7,9.9,146.6,9.9,146.6,10z"/>
							<path class="st5" d="M107.8,12.6c0.1-0.1,0.2-0.2,0.3-0.2C108,12.3,107.9,12.5,107.8,12.6z"/>
						</g>
					</g>
				</g>
			</g>
		</g>
	</g>
</g>
</svg>
