<?xml version="1.0" encoding="utf-8"?>
<!-- Generator: Adobe Illustrator 23.0.1, SVG Export Plug-In . SVG Version: 6.00 Build 0)  -->
<svg version="1.1" id="Layer_1" xmlns="http://www.w3.org/2000/svg" xmlns:xlink="http://www.w3.org/1999/xlink" x="0px" y="0px"
	 viewBox="0 0 200 170" style="enable-background:new 0 0 200 170;" xml:space="preserve">
<style type="text/css">
	.st0{fill:#EAB9C5;}
	.st1{fill:#D97294;}
	.st2{fill:#F5E1E5;}
	.st3{fill:#F8E9EC;}
	.st4{fill:#E299AD;}
	.st5{fill:#D45D85;}
	.st6{fill:#FDF8F9;}
	.st7{fill:#F3DADF;}
	.st8{fill:none;}
	.st9{fill:none;stroke:#B5DFCC;stroke-width:2;stroke-linecap:round;stroke-linejoin:round;stroke-miterlimit:10;}
	.st10{fill:#DB7C99;}
	.st11{font-family:'Helvetica-Light';}
	.st12{font-size:2.5597px;}
	.st13{fill:#FAF0F2;}
	.st14{fill:#F6E5E8;}
	.st15{fill:#DA7194;}
	.st16{fill:#F3A169;}
	.st17{fill:none;stroke:#EBB1C5;stroke-miterlimit:10;}
	.st18{fill:#0075C2;}
</style>
<g>
	<g>
		<path class="st0" d="M144.8,165.4H55.1c-10,0-14.3-4.3-14.3-14.3V18.7c0-10,4.3-14.3,14.3-14.3h89.7c10,0,14.3,4.3,14.3,14.3
			v132.5C159.1,161.1,154.7,165.4,144.8,165.4z"/>
		<g>
			<g>
				<g>
					<g>
						<polygon class="st5" points="144.8,166.1 145,166.1 145.7,166 						"/>
						<path class="st5" d="M149.2,165.5c-0.1,0-0.1,0-0.2,0c-0.8,0.3-1.7,0.4-2.6,0.6C147.6,166.1,148.4,165.6,149.2,165.5z"/>
						<path class="st5" d="M149.9,165.4c1-0.2,1.4-0.4,1.6-0.5C151.2,165.1,149.7,165.3,149.9,165.4z"/>
						<path class="st5" d="M159,59.9l-0.1-0.2c0.2,4.2,0,9,0.1,13.5v-0.3c0,11.4,0.1,21.8,0.2,33.1c0-0.2,0-0.2-0.1-0.4
							c0,0.5,0.1,1.1,0.1,1.8c0,0.2-0.1-0.2-0.1-0.4c-0.2,2.4,0.1,7,0,8.5c0,0.7,0.1,1,0.2,0.6c0,8.8,0.1,18.2,0.2,27.2
							c0,0.4-0.1,0.5-0.1,0.4c0.1,1.9,0.1,3.9,0.2,5.8c0,1.9,0,4-0.3,6s-1,4-2.2,5.7s-3,2.9-4.9,3.6c-0.3,0.2,0.8-0.2,0.1,0.1
							c0.6-0.2,1.2-0.5,1.7-0.8c0.5-0.4,1-0.7,1.4-1.1c0.9-0.8,1.6-1.7,2.2-2.7c0,0.1-0.1,0.2-0.1,0.3c0.5-0.8,0.4-0.9,0.4-1
							s0.1-0.2,0.4-1c0.3-0.6,0,0.2,0.1-0.1c0.6-1.7,0.9-3.6,1-5.4s0-3.6-0.1-5.2c0.2-0.8,0-3.8,0.2-5.1c-0.1-0.9,0-1.8-0.2-2.2
							c0.1-12.4-0.1-25.1-0.1-37.8c-0.3-5.9,0.1-13.1,0-20.1l0,0c-0.1-2.3-0.1-5.6-0.1-8.4L159,72c0.3-16.5,0.1-33.4,0.2-50.2
							c0-2.4,0.1-4.7-0.3-7.1c-0.4-2.3-1.1-4.7-2.6-6.5c-0.7-1-1.7-1.7-2.7-2.3s-2.1-1-3.2-1.3c-2.2-0.6-4.5-0.7-6.7-0.7
							c-8.9,0-17.7,0-27,0.2c0,0-0.1,0,0.4-0.1c-5.4,0.1-10.2-0.1-15.3,0l0,0C89.3,4.3,75.7,4,63.7,4.2c-1.8,0-3.7,0-5.6,0
							s-3.8-0.1-5.7,0.1c-1.9,0.2-3.9,0.5-5.7,1.4c-1.8,0.8-3.4,2.2-4.3,4c-1,1.8-1.5,3.7-1.7,5.7s-0.1,4-0.2,6c0,4,0,7.9,0.1,11.8
							h-0.1c0.1,12.4-0.2,24.5-0.1,36.9c-0.1,12.8,0.4,26.2,0.2,39.1c-0.3,8,0.4,18.4,0,25.9c-0.1,3.8-0.2,7.7-0.2,11.5
							c0,1.9-0.1,3.8,0,5.7c0.1,1.9,0.3,3.8,0.9,5.6c0.6,1.8,1.7,3.5,3.2,4.7s3.3,2,5.2,2.3c1.9,0.4,3.8,0.4,5.7,0.4
							c1.9,0,3.8-0.1,5.7-0.1c14.2,0.2,28.3-0.3,42.1,0.1c6.5-0.2,13.7,0.3,20.9,0.2l-0.3-0.1c2.6,0.2,5.8-0.3,7.4,0h-0.3
							c1.4,0.2,3.2-0.4,4-0.2l0.2-0.1c1.7,0,0.2,0.1,1.5,0.1c0.5,0,0.2-0.2,1.2-0.1c0.2,0.4,4.1-0.1,4.2,0.3c-0.9,0,1.4,0.2-0.6,0.2
							c0.6,0,3.4,0,3.1-0.2c0.2-0.2,1.3-0.3-0.4-0.5l-0.3,0.1c-0.6-0.1-0.4-0.1-0.6-0.2c-2.2,0-2.5-0.2-4.1-0.3l0,0
							c-1.1,0.2-2.6,0.1-3.4,0l-0.3-0.1c-0.5-0.2-2.5,0.3-1.8,0c-4.5,0.1-9.7,0.1-14.7,0.1c-0.7,0.1-3.9,0-2.8,0.2
							c-1.3-0.2-5-0.3-6.4-0.3c0.1,0,0.1,0,0.3,0c-2.7-0.3-3.2,0.3-5.7-0.1c-0.4,0.2-4.6-0.1-6,0.2c-0.3-0.1-0.4-0.1-0.3-0.1
							c-4.6,0-9.6-0.1-13.4-0.1c-3.3,0.2-8-0.1-10.8,0.2c-2.3-0.1-6.1-0.2-9.4-0.1h0.3c-3.7,0-8.3,0.1-10.8,0.2
							c-1.1-0.3-2.6-0.4-4.1-0.8c-1.2-0.2-2.9-0.7-4.4-1.9c-1.5-1.1-2.7-2.9-3.3-4.7c-0.1-0.3-0.2-1-0.4-1.7
							c-0.1-0.7-0.2-1.4-0.2-1.5c-0.4-2.5-0.3-5.3-0.4-8.2c0-2.9,0-5.9,0-8.8c0-6,0.1-12.1,0.3-17.7v0.2c-0.1-1.5-0.3-3.1-0.5-4.6
							c0-0.1,0-0.1,0,0.2c0-2.1,0.2-4,0.1-6c0,0,0,0,0.1,0.3c-0.1-1.9,0.2-4,0-6.3l0.1-0.1l-0.1-1.4c0.1,0,0.2,0.1,0.1,0.9
							c0.1-17.7-0.3-35.9-0.2-54l0.1,0.7L41,45.7c0,0,0,0.2,0.1,0.4c0.1-4.5-0.1-9.1,0-13.5c0,0,0.1,0.7,0.1,0.1
							c-0.2-3.2,0.2-5.2-0.1-6.8c0-0.2,0.1-0.3,0.1,0.1c0-2.2,0-4.5-0.1-6.8c0-2.3,0.1-4.5,0.7-6.7s1.8-4.1,3.5-5.5
							c1.8-1.3,4-2,6.2-2.3c1.8-0.3,3.8-0.4,5.7-0.4c2,0,4,0,6,0c4,0,8.1,0,12-0.1v0.1c10.1-0.2,20.9,0,31.4,0
							c4.4,0,7.3-0.1,11.7-0.1l0.1,0.1c7.4-0.3,15.5,0.3,23.2-0.1l-0.5,0.1c1.2-0.2,4.7,0.1,4.2-0.2l1.4,0.1c2.6,0,5.1,0.5,7.2,1.9
							s3.8,3.7,4.6,6.8l-0.2-0.4c0.5,1.6,0.8,3.6,0.7,4.9c0-0.2,0-0.1-0.1-0.5c-0.2,5.3,0.1,11.3,0.1,16.9l-0.1-0.6
							c0.2,2.7,0,7.7,0.1,11.3l-0.1-0.2l0.1,1.8h-0.1C158.9,51,159,55.3,159,59.9z"/>
					</g>
				</g>
			</g>
		</g>
	</g>
	<g>
		<rect x="53.9" y="16.9" class="st7" width="92" height="136"/>
		<g>
			<g>
				<g>
					<g>
						<polygon class="st5" points="146.6,152.9 146.6,152.7 146.5,152.1 						"/>
						<path class="st5" d="M146.3,149.2c0,0.1-0.1,0.1-0.1,0.2l0.3,2.2C146.7,150.6,146.2,149.9,146.3,149.2z"/>
						<path class="st5" d="M146.4,148.6c0.1-0.8-0.1-1.2-0.1-1.4C146.3,147.5,146.2,148.8,146.4,148.6z"/>
						<path class="st5" d="M145.8,55.7l-0.1-0.2c0.2,3.6,0,7.6,0.1,11.4v-0.3c0,9.6,0.1,18.5,0.2,28c0-0.1,0-0.2-0.1-0.4
							c0,0.5,0.1,1,0.1,1.5c0,0.1-0.1-0.1-0.1-0.3c-0.2,2,0.1,5.9,0,7.2c0,0.6,0.1,0.8,0.2,0.5c0,7.5,0.1,15.5,0.2,23.1
							c0,0.4-0.1,0.4-0.1,0.3c0.3,6.5,0.2,13.3,0.1,20c0.1,0.3,0.1-0.7,0.2,0c0.1-2.1-0.2-3.9,0-5.9l0.1,0.2c0-1.4-0.2-0.3-0.1-1.8
							c0.1-0.6,0.1,0.1,0.1-0.1c0-3,0-6.1-0.1-9c0.2-0.7,0-3.2,0.2-4.3c-0.1-0.8,0-1.6-0.2-1.9c0.1-10.5-0.1-21.2-0.1-32
							c-0.3-5,0.1-11.1,0-17l0,0c-0.1-1.9-0.1-4.8-0.1-7.1l-0.1-2c0.3-14,0.1-28.3,0.2-42.5c0-2.4,0-4.7,0-6.9
							c-6.9,0-13.6-0.1-20.2-0.1c-6.5,0-13,0.1-19.8,0.2c0,0-0.1,0,0.3-0.1c-4.5,0.1-8.7-0.1-13,0l0,0c-10.6,0.3-22.1,0-32.3,0.2
							c-2.4,0-4.8,0-7.6,0c0,10.3,0.1,21.6,0.1,32.3h-0.1c0.1,10.5-0.2,20.7-0.1,31.3c-0.1,10.8,0.4,22.2,0.2,33.2
							c-0.3,6.8,0.4,15.6,0,22c-0.1,2.9-0.2,5.9-0.2,8.8c0,1.5,0,2.9,0,4.4v4.6h5.5c1.8,0,3.5-0.1,5.3-0.1c3.5-0.1,7.1-0.2,10.6-0.2
							c12,0.2,24-0.3,35.6,0.1c5.5-0.2,11.6,0.3,17.7,0.2l-0.2-0.1c2.2,0.2,4.9-0.3,6.3,0h-0.2c1.2,0.2,2.7-0.4,3.4-0.2l0.2-0.1
							c1.4,0,0.2,0.1,1.3,0.1c0.4,0,0.2-0.2,1-0.1c0.2,0.4,3.5-0.1,3.6,0.3c-0.8,0,1.2,0.2-0.5,0.2c0.5,0,2.9,0,2.6-0.2
							c0.2-0.2,1.1-0.3-0.3-0.5l-0.3,0.1c-0.5-0.1-0.4-0.1-0.5-0.2c-1.9,0-2.1-0.2-3.5-0.3l0,0c-0.9,0.2-2.2,0.1-2.9,0l-0.3-0.1
							c-0.4-0.2-2.1,0.3-1.6,0c-3.8,0.1-8.2,0.1-12.5,0.1c-0.6,0.1-3.3,0-2.3,0.2c-1.1-0.2-4.2-0.3-5.4-0.3c0,0,0.1,0,0.3,0
							c-2.3-0.3-2.7,0.3-4.9-0.1c-0.3,0.2-3.9-0.1-5.1,0.2c-0.3-0.1-0.4-0.1-0.3-0.1c-3.9,0-8.1-0.1-11.4-0.1
							c-2.8,0.2-6.8-0.1-9.2,0.2c-2-0.1-5.2-0.2-8-0.1H78c-3.1,0-7,0-9.2,0.2c-0.9-0.3-2.3-0.2-3.6-0.3c-2.1,0.1-6.3,0.1-9.5,0.2
							c-0.2-0.1-1.4,0-1.3,0c0-0.1,0-0.1,0-0.2s0-0.3,0.1-0.3c-0.4-8.9-0.2-20,0-29.5v0.1c-0.1-1.2-0.3-2.7-0.5-3.9
							c0-0.1,0-0.1,0,0.2c0-1.7,0.2-3.4,0.1-5.1c0,0,0,0,0.1,0.3c-0.1-1.6,0.2-3.4,0-5.3l0.1-0.1l-0.1-1.2c0.1,0,0.2,0.1,0.1,0.7
							c0.1-15-0.3-30.4-0.2-45.8l0.1,0.6l-0.1-3c0,0,0,0.2,0.1,0.3c0.1-3.8-0.1-7.7,0-11.4c0,0,0.1,0.6,0.1,0.1
							c-0.2-2.7,0.2-4.4-0.1-5.8c0-0.1,0.1-0.2,0.1,0.1c-0.1-7.6-0.1-15.4-0.1-23.1c0-0.9-0.1-1.9-0.1-2.8c0.6,0,1.2,0,1.8,0
							c0.7,0,1.4,0,2.1,0c1.4,0,2.9,0,4.3,0c2.9,0,5.8,0,8.6-0.1v0.1c8.6-0.2,17.7,0,26.6,0c3.7,0,6.2-0.1,9.9-0.1l0.1,0.1
							c6.3-0.3,13.2,0.3,19.7-0.1l-0.5,0.1c1-0.2,3.9,0.1,3.6-0.2l1.2,0.1c4.4-0.4,8.1,0.2,13.5-0.1l-0.4,0.1c0.4,0,0.8,0,1.2,0
							c0,1.1,0,2.2,0,3c0-0.2,0-0.1,0-0.4c-0.3,4.5,0,9.6,0,14.3l-0.1-0.5c0.2,2.3,0,6.5,0.1,9.6l-0.1-0.2l0.1,1.5h-0.1
							C145.7,48.2,145.8,51.9,145.8,55.7z"/>
						<path class="st5" d="M146,95.6C146,95.6,146,95.5,146,95.6C145.9,95.4,146,95.5,146,95.6z"/>
					</g>
				</g>
			</g>
		</g>
	</g>
	<rect x="57.1" y="20.6" class="st8" width="85.5" height="129.1"/>
	<text transform="matrix(1 0 0 1 57.1508 22.4459)" class="st4 st11 st12">Lorem ipsum dolor sit amet, consectetur adipiscing elit. Integer id dapibus </text>
	<text transform="matrix(1 0 0 1 57.1508 26.2459)" class="st4 st11 st12">lectus. Fusce eu massa tellus. Nulla quis fringilla dui. Quisque vitae turpis </text>
	<text transform="matrix(1 0 0 1 57.1508 30.1459)" class="st4 st11 st12">eget sem interdum sodales. Nunc scelerisque scelerisque lacus eu </text>
	<text transform="matrix(1 0 0 1 57.1508 33.9459)" class="st4 st11 st12">tempus. Etiam accumsan orci non massa blandit tincidunt id vel orci. Proin </text>
	<text transform="matrix(1 0 0 1 57.1508 37.8459)" class="st4 st11 st12">condimentum rhoncus tellus in rutrum.</text>
	<text transform="matrix(1 0 0 1 57.1508 42.9459)" class="st4 st11 st12">Donec bibendum, metus sit amet volutpat interdum, libero nisi vulputate </text>
	<text transform="matrix(1 0 0 1 57.1508 46.7459)" class="st4 st11 st12">metus, et scelerisque orci dolor ut metus. Nam arcu nulla, tincidunt eget </text>
	<text transform="matrix(1 0 0 1 57.1508 50.6459)" class="st4 st11 st12">leo nec, aliquet condimentum velit. Ut sit amet velit nisl. Pellentesque </text>
	<text transform="matrix(1 0 0 1 57.1508 54.4459)" class="st4 st11 st12">commodo convallis erat, non varius enim imperdiet et. Quisque faucibus </text>
	<text transform="matrix(1 0 0 1 57.1508 58.2459)" class="st4 st11 st12">diam in dolor consequat pulvinar. Praesent pharetra velit purus. </text>
	<text transform="matrix(1 0 0 1 57.1508 62.1459)" class="st4 st11 st12">Suspendisse id rutrum lectus. Mauris a risus velit. Ut quis ipsum a quam </text>
	<text transform="matrix(1 0 0 1 57.1508 65.9459)" class="st4 st11 st12">eleifend laoreet at vitae quam. Nam eget dictum justo. Quisque blandit </text>
	<text transform="matrix(1 0 0 1 57.1508 69.8459)" class="st4 st11 st12">ultrices orci, sit amet mattis odio bibendum in.</text>
	<text transform="matrix(1 0 0 1 57.1508 74.9459)" class="st4 st11 st12">Morbi turpis enim, commodo nec dui ac, dignissim hendrerit turpis. </text>
	<text transform="matrix(1 0 0 1 57.1508 78.7459)" class="st4 st11 st12">Aenean eget neque at est accumsan luctus. Phasellus eget nunc volutpat </text>
	<text transform="matrix(1 0 0 1 57.1508 82.6459)" class="st4 st11 st12">nunc viverra vehicula in vel erat. Nam eros erat, sagittis eget augue quis, </text>
	<text transform="matrix(1 0 0 1 57.1508 86.4459)" class="st4 st11 st12">elementum tristique libero. Etiam in purus non purus consequat laoreet. </text>
	<text transform="matrix(1 0 0 1 57.1508 90.2459)" class="st4 st11 st12">Sed quis euismod neque, quis mattis odio. Sed scelerisque a lorem vel </text>
	<text transform="matrix(1 0 0 1 57.1508 94.1459)" class="st4 st11 st12">vestibulum. Fusce libero est, scelerisque dictum faucibus at, faucibus eu </text>
	<text transform="matrix(1 0 0 1 57.1508 97.9459)" class="st4 st11 st12">massa. Etiam a maximus mi.</text>
	<text transform="matrix(1 0 0 1 57.1508 103.0459)" class="st4 st11 st12">Suspendisse placerat purus at nunc malesuada, nec vulputate tortor </text>
	<text transform="matrix(1 0 0 1 57.1508 106.9459)" class="st4 st11 st12">ornare. Etiam luctus diam et tortor egestas faucibus. Maecenas pulvinar </text>
	<text transform="matrix(1 0 0 1 57.1508 110.7459)" class="st4 st11 st12">faucibus aliquam. Proin convallis lacus lorem, ac blandit lorem euismod </text>
	<text transform="matrix(1 0 0 1 57.1508 114.6459)" class="st4 st11 st12">quis. Donec vitae malesuada leo. Sed et ante vestibulum, mattis quam vel, </text>
	<text transform="matrix(1 0 0 1 57.1508 118.4459)" class="st4 st11 st12">pulvinar ligula. Nulla ut lectus euismod, auctor sapien vitae, consequat </text>
	<text transform="matrix(1 0 0 1 57.1508 122.2459)" class="st4 st11 st12">nisi. Sed non est id justo luctus elementum. Mauris accumsan diam ac </text>
	<text transform="matrix(1 0 0 1 57.1508 126.1459)" class="st4 st11 st12">placerat molestie. Vestibulum in leo venenatis, eleifend leo non, volutpat </text>
	<text transform="matrix(1 0 0 1 57.1508 129.9459)" class="st4 st11 st12">nunc. Mauris dignissim, tortor commodo hendrerit egestas, purus lectus </text>
	<text transform="matrix(1 0 0 1 57.1508 133.7459)" class="st4 st11 st12">pellentesque est, consequat interdum felis erat nec orci. Sed ultricies </text>
	<text transform="matrix(1 0 0 1 57.1508 137.6459)" class="st4 st11 st12">aliquet diam, vel suscipit mauris maximus ac. Curabitur sapien libero, </text>
	<text transform="matrix(1 0 0 1 57.1508 141.4459)" class="st4 st11 st12">pharetra eget fermentum at, consequat et nunc. Aliquam ornare metus </text>
	<text transform="matrix(1 0 0 1 57.1508 145.3459)" class="st4 st11 st12">velit. Phasellus finibus vestibulum finibus. Aenean tristique vel felis et </text>
	<text transform="matrix(1 0 0 1 57.1508 149.1459)" class="st4 st11 st12">maximus. In congue lobortis cursus.</text>
</g>
</svg>
