<?xml version="1.0" encoding="utf-8"?>
<!-- Generator: Adobe Illustrator 23.0.1, SVG Export Plug-In . SVG Version: 6.00 Build 0)  -->
<svg version="1.1" id="Layer_1" xmlns="http://www.w3.org/2000/svg" xmlns:xlink="http://www.w3.org/1999/xlink" x="0px" y="0px"
	 viewBox="0 0 200 170" style="enable-background:new 0 0 200 170;" xml:space="preserve">
<style type="text/css">
	.st0{fill:#EAB9C5;}
	.st1{fill:#D97294;}
	.st2{fill:#F5E1E5;}
	.st3{fill:#F8E9EC;}
	.st4{fill:#E299AD;}
	.st5{fill:#D45D85;}
	.st6{fill:#FDF8F9;}
	.st7{fill:#F3DADF;}
	.st8{fill:none;}
	.st9{fill:none;stroke:#B5DFCC;stroke-width:2;stroke-linecap:round;stroke-linejoin:round;stroke-miterlimit:10;}
	.st10{fill:#DB7C99;}
	.st11{fill:#FAF0F2;}
	.st12{fill:#F6E5E8;}
	.st13{fill:#DA7194;}
	.st14{fill:#F3A169;}
	.st15{fill:none;stroke:#EBB1C5;stroke-miterlimit:10;}
	.st16{fill:#0075C2;}
</style>
<g>
	<g>
		<path class="st4" d="M90.6,59.4l0.2,11.2c0,0,2.6,1.6,4.1,0l-0.5-11.4C94.4,59.2,92.5,57.8,90.6,59.4z"/>
		<g>
			<g>
				<g>
					<g>
						<polygon class="st5" points="91,59.9 91.1,59.9 91,59.8 						"/>
						<path class="st5" d="M91.1,59.6C91.1,59.6,91,59.5,91.1,59.6v0.3C91.2,59.9,91,59.5,91.1,59.6z"/>
						<path class="st5" d="M91.1,59.6C91.2,59.6,91.1,59.5,91.1,59.6C91.2,59.5,91,59.4,91.1,59.6z"/>
						<path class="st5" d="M94.6,61.7L94.6,61.7c-0.1-0.2,0.1-0.5,0-0.8l0,0c0-0.3,0-0.6-0.1-1c-0.1-0.3-0.1-0.7-0.2-0.9h0.1
							c-0.1,0-0.1,0-0.2,0c0,0,0,0,0.1,0c0-0.2-0.4-0.1-0.4-0.2l-0.1,0.1c-0.5-0.1-1-0.2-1.4,0v-0.1c-0.3,0.3-0.7,0.4-1.1,0.5
							c0,0.1,0.1,0,0.1,0.1c0.2,0,0.1-0.3,0.3-0.2v0.1c0.1,0-0.1-0.2,0.1-0.1c0.1,0,0,0.1,0,0.1c0.1-0.1,0.3-0.1,0.4-0.3
							c0.1,0.2,0.2,0,0.3,0.1c0-0.1,0.1-0.1,0.1-0.2c0.3,0,0.6,0,0.9,0.1c0.2,0,0.3,0.1,0.5,0.1c0.1,0,0.2,0,0.2,0.1
							c0.1,0,0.1,0.1,0.1,0.1c0,0.1,0,0.2,0,0.3c0,0.2-0.1,0.4,0,0.6l0,0c0.1,0.1,0.1,0.3,0.1,0.5l0.1,0.1c-0.2,1,0,1.9-0.1,2.9
							c0,1.1-0.2,2.1,0.2,3.1c0,0,0,0-0.1,0c0.1,0.3,0,0.6,0.1,0.9l0,0c0.3,0.7,0,1.5,0.3,2.2c0.1,0.4-0.3,0.6-0.6,0.8
							c-0.4,0.2-0.9,0.2-1.3,0.2v-0.1c-0.4,0-0.7-0.1-1-0.3l-0.5-0.3c-0.1-0.1-0.2-0.1-0.4-0.2c0.1-0.2,0-0.6-0.1-1
							s-0.2-0.8-0.1-1.1c0.3-0.5-0.4-1.1-0.1-1.5c0.5-0.9,0.1-1.7-0.2-2.6c0.2-0.8-0.3-1.6,0-2.4c-0.2-0.4,0.3-0.8,0.2-1.2h-0.1
							c0.2-0.2-0.3-0.3,0-0.4l0,0c0.2-0.1-0.4-0.2-0.2-0.2h-0.1c0-0.1,0.1,0,0.1-0.1c0,0-0.2,0-0.1-0.1c0.4,0-0.1-0.2,0.3-0.2
							c0,0.1,0.2-0.1,0.2,0c0,0,0-0.2-0.2-0.2s-0.3-0.1-0.5,0h0.1c-0.1,0-0.1,0-0.2,0c0,0.1-0.2,0.1-0.3,0.2l0,0
							c0.2,0.1,0.1,0.1,0,0.2h-0.1c-0.2,0,0.3,0.1,0,0.1c0.1,0.3,0.1,0.6,0.1,0.8c0.1,0,0,0.2,0.2,0.2c-0.2,0.1-0.3,0.3-0.3,0.4l0,0
							c-0.3,0.2,0.3,0.2-0.1,0.3c0.2,0-0.1,0.3,0.2,0.3c-0.1,0-0.1,0-0.1,0c0,0.3-0.1,0.6-0.1,0.8c0.2,0.2-0.1,0.5,0.2,0.6
							c-0.1,0.1-0.2,0.4-0.1,0.5l0,0c0,0.2,0,0.5,0.2,0.6c-0.3,0.1-0.2,0.2-0.3,0.3c0.1,0.1,0.1,0.4,0.2,0.6c-0.1,0,0.1,0.2-0.1,0.2
							c0.4,0.6,0.3,1.4,0,2l0,0c0.1,0.1,0.3,0.2,0.5,0.3l0,0c0,0.1-0.2,0.2-0.1,0.3c0,0,0,0-0.1,0c0.1,0.1-0.2,0.2,0,0.4h-0.1
							l0.4,0.6c-0.1,0-0.2,0-0.1,0c0,0.5,0.1,1,0.1,1.6c0,0.2,0,0.4,0.1,0.6c0.2,0.1,0.4,0.2,0.5,0.2l0.8,0.3h-0.1h0.2
							c0,0,0,0,0,0.1c0.2,0.2,0.6,0.1,0.8,0.1c0,0-0.1,0.1,0,0.1c0.2-0.1,0.3,0.2,0.4-0.1v0.1c0.6-0.1,1.2-0.2,1.7-0.7
							c0-0.2,0.2-0.3,0.2-0.4s0-0.3,0-0.4c0-0.2,0-0.5-0.1-0.7h0.1c-0.3-0.6,0-1.2-0.1-1.8c0-0.3-0.1-0.4-0.1-0.7h0.1
							c-0.3-0.4,0.2-0.9-0.1-1.3h0.1c-0.2-0.1,0-0.3-0.2-0.2l0.1-0.1c-0.4-0.3,0.2-0.6-0.1-0.9h0.1c-0.1-0.1-0.1-0.2,0-0.3
							c0,0,0,0,0.1,0c0.3-0.3-0.1-0.6-0.1-1h0.1c-0.2-0.2,0-0.4-0.1-0.6h0.1l-0.1-0.1h0.1C94.7,62.3,94.6,62,94.6,61.7z"/>
					</g>
				</g>
			</g>
		</g>
	</g>
	<g>
		<path class="st0" d="M82.8,44.9c1.1-2.5,9.9-4.9,16.8-1.1c5.4,3-0.3,6.4-1.3,8.8c-1,2.3-1.6,5.9-4,6.6c-2.3,0.6-5.3-0.3-6.4-2.3
			c-1.1-2-1.4-2.9-4.5-5C81.9,50.8,81.9,47.1,82.8,44.9z"/>
		<g>
			<g>
				<g>
					<g>
						<polygon class="st5" points="82.2,44.7 82.1,44.7 82.2,44.8 						"/>
						<path class="st5" d="M82.2,45.2C82.2,45.2,82.3,45.2,82.2,45.2l-0.1-0.4C81.9,44.9,82.4,45.2,82.2,45.2z"/>
						<path class="st5" d="M82.2,45.3c-0.1,0.1,0,0.2,0.1,0.2C82.1,45.5,82.3,45.3,82.2,45.3z"/>
						<path class="st5" d="M87.2,55.3L87.2,55.3c-0.3-0.3-0.4-0.8-0.8-1.1h0.1c-0.8-1-1.9-1.5-2.9-2.1c0,0,0,0,0.1,0
							c-0.1,0-0.2,0-0.2,0s0,0,0.1,0c-0.1-0.3-0.7-0.5-0.6-0.7c-0.1-0.1-0.1,0-0.2,0c-0.5-0.9-0.7-1.9-0.9-2.9c0,0,0.1-0.1,0.1,0
							c-0.3-0.9-0.1-1.8,0.2-2.6c-0.1-0.1-0.1,0.1-0.2,0c-0.2,0.3,0,0.6-0.1,0.8h-0.1c-0.1,0.2,0.2,0.1,0,0.3c-0.1,0.1-0.1,0-0.1,0
							c0,0.4-0.1,0.8,0,1.2c-0.2,0.1,0,0.4-0.2,0.6c0.1,0.1,0.1,0.2,0.2,0.2c0,0.7,0.1,1.4,0.4,2.1c0.1,0.3,0.3,0.7,0.6,1
							c0.1,0.2,0.3,0.3,0.5,0.4l0.4,0.3c0.7,0.1,1.1,0.9,1.7,1.3l0,0c0.2,0.1,0.5,0.3,0.7,0.6l0.3,0.1c0.5,0.7,0.9,1.5,1.3,2.3
							c0.4,0.9,1.1,1.6,1.9,2.1c0.9,0.6,1.9,0.9,3,1c0.5,0,1,0,1.6-0.1c0.5-0.1,1.1-0.4,1.4-0.8c0,0,0,0,0,0.1
							c0.5-0.4,0.9-0.8,1.2-1.3l0,0c0.5-1.3,1.2-2.6,1.4-4c0.1-0.4,0.3-0.8,0.5-1.1c0.2-0.4,0.4-0.7,0.7-1.1c0.5-0.7,1.1-1.3,1.6-2
							l0,0c0.4-0.6,0.8-1.1,1.1-1.7c0.3-0.6,0.4-1.4,0.1-2.1c-0.1-0.4-0.3-0.7-0.6-0.9s-0.6-0.5-0.9-0.6c-0.3-0.2-0.6-0.3-1-0.5
							c-0.3-0.1-0.6-0.3-0.9-0.5c-0.7-0.6-2-0.4-2.7-0.9c-1.5-0.9-3.3-0.7-4.9-0.4c-1.6-0.1-3,0.5-4.5,0.6c-0.3,0.2-0.7,0.2-1.1,0.3
							c-0.4,0.1-0.8,0.1-1.1,0.4l0.1,0.1c-0.4-0.1-0.3,0.6-0.7,0.4l0,0c-0.2-0.1,0,0.5-0.2,0.4v0.1c-0.1,0.1-0.1-0.1-0.2,0
							c0,0,0.1,0.1,0,0.2c-0.3-0.2-0.2,0.4-0.5,0.2c0.1-0.1-0.2,0.1-0.2-0.2c-0.1,0-0.3,0.4-0.1,0.4c0.2,0.1,0.3,0.3,0.5,0.2
							L83,45.3c0.2,0,0.1,0,0.2,0c0.1-0.2,0.3-0.1,0.4-0.1l0,0c0-0.2,0.1-0.2,0.2-0.3h0.1c0.1,0.1,0-0.4,0.1-0.1
							c0.2-0.2,0.3-0.3,0.5-0.5c0.2-0.1,0.4-0.2,0.7-0.4c0-0.1,0.4-0.1,0.2-0.3c0.2,0.2,0.6,0.1,0.7,0l0,0c0.4,0.2,0.2-0.4,0.6-0.1
							c0-0.2,0.5-0.1,0.5-0.4l0.1,0.1c0.5-0.1,1-0.1,1.4-0.2c0.3-0.3,0.8,0,1.1-0.4c0.3,0,0.7,0.1,1,0l0,0c0.4,0,0.9-0.1,1.1-0.2
							c0.1,0.3,0.3,0.2,0.4,0.3c0.3-0.1,0.8-0.1,1.2-0.1c0,0.1,0.3,0,0.3,0.2c0.6-0.1,1.2,0,1.8,0.1c0.6,0.2,1.2,0.4,1.7,0.8l0,0
							c0.2,0,0.4-0.2,0.6-0.3c0,0,0,0.1,0,0c0.2,0,0.3,0.3,0.5,0.4c0,0,0,0-0.1,0c0.2,0,0.3,0.3,0.6,0.3v0.1h0.2
							c0,0.1-0.1,0.1-0.1,0.1c0.8,0.4,1.6,0.9,2.2,1.5c0.3,0.3,0.4,0.7,0.5,1.1c0,0.4-0.1,0.9-0.3,1.3v-0.1l-0.1,0.4c0,0,0,0,0-0.1
							c-0.3,0.3-0.4,0.8-0.7,1.2c0,0,0-0.1-0.1-0.1c-0.1,0.4-0.5,0.3-0.3,0.6c0,0-0.1,0-0.1-0.1c-0.5,0.8-1.2,1.5-1.8,2.5
							c-0.1,0.9-0.6,1.7-0.7,2.5h-0.1c-0.2,1.1-0.8,2.1-1.4,3c-0.3,0.4-0.5,0.6-0.8,0.9l-0.1-0.1c-0.2,0.3-0.7,0.4-1.1,0.4
							c-0.4,0-0.8,0-1.2,0.1l0.1-0.1c-0.1,0.2-0.5-0.1-0.5,0.2l-0.1-0.1c-0.6,0.3-1-0.3-1.7-0.3h0.1c-0.2,0-0.4-0.1-0.5-0.2
							c0,0,0,0,0.1,0c-0.4-0.5-1.1-0.6-1.5-1H89c-0.3-0.1-0.5-0.6-0.8-0.9h0.1l-0.2-0.1l0.1-0.1C87.8,56.1,87.5,55.7,87.2,55.3z"/>
					</g>
				</g>
			</g>
		</g>
	</g>
	<g>
		<path class="st2" d="M99.1,78.9c0,0-1.2-2.4-1.3-4.5s-1.9-3.9-5.1-3.9c-3.2,0-5,1.8-5.1,3.9s-1.3,4.5-1.3,4.5"/>
		<g>
			<g>
				<g>
					<g>
						<path class="st5" d="M86.8,78.9L86.8,78.9l0.1,0.2C87.1,79.2,86.7,78.9,86.8,78.9z"/>
						<path class="st5" d="M86.8,78.9C86.9,78.9,86.8,78.8,86.8,78.9C86.9,78.9,86.7,78.9,86.8,78.9z"/>
						<path class="st5" d="M87.6,74.1L87.6,74.1c0.1,0.2-0.1,0.4-0.1,0.6l0,0c-0.1,0.5,0,0.9,0,1.5c0,0,0,0-0.1,0l0.1,0.1
							c0,0,0,0-0.1,0c-0.2,0.1,0,0.3-0.1,0.4l0.1,0.1c-0.1,0.4-0.2,0.8-0.2,1.2h-0.1c0.2,0.4-0.1,0.7-0.3,1c0.1,0,0.1,0,0.1,0.1
							c0.1-0.1-0.1-0.3,0.1-0.3h0.1c0.1,0-0.2-0.1,0-0.1c0.1,0,0.1,0,0.1,0c0-0.2,0.2-0.3,0-0.5c0.2,0,0.1-0.2,0.2-0.2
							c0-0.1,0-0.1-0.1-0.1c0.3-0.5,0.3-1.1,0.5-1.6c-0.2-0.3,0.2-0.6,0.1-0.9l0,0c-0.1-0.1-0.1-0.3,0-0.4l-0.1-0.1
							c0.2-0.4,0.2-0.7,0.3-1s0.2-0.6,0.5-0.9c0.5-0.6,1.1-0.7,1.6-1.4c0,0,0,0,0,0.1c0.2-0.1,0.4-0.1,0.6-0.2l0,0
							c0.4-0.4,1.1-0.2,1.5-0.5c0.6,0,1.3,0,2,0.1v0.1c0.6,0,0.9,0.5,1.4,0.7c0.4,0.4,1.1,0.4,1.3,1c0,0.2,0.1,0.3,0.3,0.5
							c0.2,0.1,0.3,0.3,0.2,0.5c-0.1,0.4-0.1,0.7-0.1,1c0.1,0.3,0.3,0.7,0.5,1c-0.1,0.6,0.5,1.1,0.4,1.8c0.3,0.2-0.1,0.7,0.1,0.9
							h0.1c-0.2,0.2,0.4,0.1,0.1,0.3l0,0c-0.1,0.1,0.4,0,0.3,0.1H99c0.1,0.1-0.1,0-0.1,0.1c0,0,0.1-0.1,0.1,0
							c-0.3,0.2,0.1,0.1-0.2,0.3c0,0-0.1,0.1-0.2,0.1c0,0,0.1,0.2,0.2,0.1c0.2-0.1,0.3-0.1,0.4-0.2h-0.1c0.1-0.1,0.1,0,0.1-0.1
							s0.1-0.2,0.2-0.3l0,0c-0.2,0-0.1-0.1-0.1-0.1h0.1c0.1-0.1-0.3,0-0.1-0.1c-0.1-0.1-0.2-0.3-0.3-0.5c-0.1,0-0.1-0.2-0.2,0
							C99,78.2,99,78,99,77.9l0,0c0.2-0.2-0.3,0,0-0.3c-0.2,0.1,0-0.2-0.3-0.2l0.1-0.1c-0.1-0.2,0-0.4-0.1-0.6
							c-0.2-0.1,0-0.3-0.3-0.4c0-0.1,0.1-0.3,0-0.4l0,0c0-0.1-0.1-0.3-0.3-0.4c0.3-0.1,0.2-0.1,0.3-0.2c-0.2-0.1-0.1-0.3-0.3-0.4
							c0.1,0-0.1-0.1,0.1-0.2c-0.4-0.5-0.4-1.1-0.5-1.7l0,0c-0.1,0-0.4,0-0.5,0l0,0c-0.1-0.1,0-0.2-0.1-0.3c0,0,0,0,0.1,0
							c-0.1,0,0-0.3-0.2-0.2l0,0h-0.1l0.1-0.1c-0.5-0.7-1.5-1-2.2-1.3l0,0h-0.2c0,0,0,0,0-0.1c-0.2-0.2-0.4,0-0.6-0.1
							c0,0,0.1-0.1,0-0.1c-0.2,0.1-0.2-0.3-0.3,0.1v-0.1c-0.4,0-0.8,0-1.3-0.1c-0.3,0.3-0.7,0-1.1,0.3v-0.1
							c-0.4,0.3-0.9,0.1-1.4,0.3c-0.2,0-0.3,0.2-0.5,0.2v-0.1c-0.1,0.4-0.8,0.1-0.9,0.6v-0.1c0.1,0.2-0.2,0.1,0,0.3h-0.1
							c0.1,0.4-0.4,0.2-0.4,0.5v-0.1c0,0.1,0,0.2-0.1,0.2l0,0c-0.4,0-0.3,0.4-0.4,0.6l-0.1-0.1c0.1,0.2-0.1,0.3-0.1,0.5h-0.1
							l0.1,0.1h-0.1C87.6,73.7,87.6,73.9,87.6,74.1z"/>
					</g>
				</g>
			</g>
		</g>
	</g>
	<g>
		<polygon class="st4" points="78.3,80.6 80.9,83.5 86.3,80 82.3,77.2 		"/>
		<g>
			<g>
				<g>
					<g>
						<path class="st5" d="M78.7,81.1L78.7,81.1L78.7,81.1z"/>
						<path class="st5" d="M78.7,80.9C78.7,80.9,78.7,80.8,78.7,80.9l0.1,0.2C78.9,81.2,78.6,80.8,78.7,80.9z"/>
						<path class="st5" d="M78.7,80.9C78.8,80.9,78.7,80.8,78.7,80.9C78.8,80.8,78.6,80.8,78.7,80.9z"/>
						<path class="st5" d="M81.6,77.7L81.6,77.7c-0.1,0.2-0.3,0.1-0.4,0.3l0,0c-0.4,0.2-0.5,0.6-0.8,1c0,0,0,0,0-0.1V79
							c0,0,0,0,0-0.1c-0.2-0.1-0.1,0.3-0.3,0.2c0,0,0,0.1,0.1,0.1c-0.2,0.3-0.5,0.5-0.6,0.8c0,0-0.1,0-0.1-0.1
							c0,0.4-0.3,0.5-0.6,0.7c0,0.1,0.1,0,0.1,0.1c0.1,0,0-0.3,0.2-0.2v0.1c0.1,0-0.1-0.2,0-0.1c0.1,0,0.1,0.1,0.1,0.1
							c0.1-0.1,0.2-0.2,0.2-0.4c0.1,0.1,0.1-0.1,0.3,0c0-0.1,0-0.1,0-0.2c0.4-0.2,0.7-0.7,1.1-1c0-0.4,0.4-0.3,0.6-0.5l0,0
							c0-0.1,0.1-0.2,0.2-0.3V78c0.2-0.1,0.4-0.2,0.6-0.3l0.2-0.2l0.1-0.1c0.1,0.1,0.2,0.1,0.2,0.2c0.6,0.5,0.9,1,1.8,1.1l0,0
							c0.2,0.1,0.3,0.3,0.5,0.3l0,0c0.3,0,0.5,0.2,0.6,0.3c0.1,0.1,0.2,0.2,0.6,0.3c0,0,0.1,0.1,0.2,0.1c-0.4,0.2-0.7,0.5-1.1,0.8
							v-0.1c-0.3,0.4-0.9,0.3-1.2,0.7c-0.5,0.1-0.6,0.9-1.2,1c-0.4-0.1-0.4,0.7-0.8,0.6c-0.2,0-0.4,0-0.5,0.1
							c-0.1,0-0.2,0.1-0.3,0.2c-0.1,0-0.3-0.1-0.6-0.2c-0.2-0.5-0.9-0.6-1-1.2c-0.3,0-0.1-0.6-0.4-0.7L79.3,81
							c0.1-0.2-0.4,0.1-0.2-0.2l0,0c0.1-0.2-0.4,0.2-0.3,0l-0.1,0.1c-0.1,0,0.1-0.1,0.1-0.1s-0.1,0.1-0.1,0c0.3-0.2-0.2-0.1,0.1-0.3
							c0,0,0.1-0.1,0.2-0.1c0,0-0.1-0.1-0.2,0c-0.1,0.1-0.3,0.2-0.3,0.3l0.1-0.1c-0.1,0.1,0,0.1-0.1,0.1c0,0.1-0.1,0.2-0.1,0.3l0,0
							c0.1-0.1,0.1,0,0.1,0.1v0.1c-0.1,0.1,0.3-0.1,0.1,0c0.2,0.1,0.3,0.2,0.4,0.4c0.1,0,0.1,0.1,0.2,0c-0.1,0.2-0.1,0.3,0,0.4l0,0
							c-0.1,0.3,0.3-0.1,0.1,0.2c0.2-0.2,0.1,0.2,0.3,0l-0.1,0.1c0.1,0.1,0.2,0.3,0.3,0.5c0.2-0.1,0.1,0.3,0.4,0.2
							c0,0.1,0,0.3,0.2,0.3l0,0c0.1,0,0.1,0.1,0.2,0.1c0.1,0,0.2,0.1,0.3,0.1c-0.1,0.3,0,0.3,0,0.5c0.1,0,0.3,0.1,0.4,0.2
							c0.1-0.1,0.2-0.2,0.2-0.2c0,0.1,0.2-0.2,0.2,0c0.1-0.2,0.3-0.4,0.4-0.5c0.1-0.1,0.2-0.2,0.3-0.2c0.2-0.1,0.5-0.1,0.7-0.1l0,0
							c0-0.1-0.1-0.4-0.1-0.5l0,0c0-0.1,0.2,0,0.3,0c0,0,0,0,0,0.1c0-0.1,0.2,0,0.2-0.1l0,0v-0.1c0,0.1,0.1,0.1,0,0.1
							c0.6-0.3,1-1,1.6-1.3v0.1l0.1-0.2c0,0,0,0,0,0.1c0.2,0,0.3-0.3,0.4-0.3c0,0,0,0.1,0.1,0.1c0-0.2,0.3,0.1,0.1-0.3l0.1,0.1
							c0.1-0.1,0.1-0.1,0.2-0.2c0.1-0.1,0.2-0.2,0.3-0.2c0.2-0.1,0.4-0.3,0.7-0.4c0-0.1,0-0.1,0-0.2c-0.3-0.1-0.4-0.4-0.9-0.4h0.1
							c-0.6-0.1-0.7-0.5-1.1-0.7c-0.1-0.1-0.3-0.1-0.4-0.2v-0.1c-0.4,0.1-0.3-0.6-0.8-0.5l0.1-0.1c-0.1,0.1-0.1-0.2-0.3,0.1V78
							c-0.4,0.2-0.2-0.4-0.5-0.3h0.1c-0.1,0-0.2,0-0.2-0.1l0,0c0-0.2-0.1-0.2-0.2-0.3c-0.1,0-0.2,0-0.3-0.1v-0.1h-0.1
							c-0.1,0.1-0.2,0.1-0.3,0.3v-0.1v0.1l-0.1-0.1C81.7,77.4,81.7,77.6,81.6,77.7z"/>
					</g>
				</g>
			</g>
		</g>
	</g>
	<g>
		<path class="st4" d="M106.4,81.5l4.2-0.6l1.2,3.4c0,0-2.7,0.8-3.5,1.9C108.3,86.2,106,82.8,106.4,81.5z"/>
		<g>
			<g>
				<g>
					<g>
						<polygon class="st5" points="105.7,81.3 105.7,81.3 105.8,81.4 						"/>
						<path class="st5" d="M105.9,81.5C105.9,81.5,106,81.5,105.9,81.5c0,0-0.1-0.1-0.2-0.2C105.6,81.4,106,81.5,105.9,81.5z"/>
						<path class="st5" d="M105.9,81.6C105.8,81.6,106,81.7,105.9,81.6C105.9,81.6,106,81.6,105.9,81.6z"/>
						<path class="st5" d="M107.6,84.8L107.6,84.8c-0.1,0,0-0.2-0.2-0.3l0,0c-0.1-0.3-0.4-0.5-0.7-0.8c0,0,0,0,0.1,0h-0.1
							c0,0,0,0,0.1,0c0.1-0.1-0.2-0.2-0.1-0.3c0,0-0.1,0-0.2,0c-0.2-0.2-0.3-0.5-0.5-0.8h0.1c-0.4-0.2-0.3-0.5-0.2-0.8
							c-0.1,0-0.1,0-0.2,0c-0.1,0.1,0.2,0.2,0,0.3h-0.1c0,0.1,0.2,0,0.1,0.1c-0.1,0-0.1,0-0.1,0c0,0.1,0,0.3,0.2,0.4
							c-0.2,0.1,0,0.1-0.1,0.2c0.1,0,0.1,0.1,0.2,0c0,0.5,0.3,0.8,0.5,1.2c0.4,0,0.1,0.4,0.3,0.6l0,0c0.1,0,0.2,0.1,0.2,0.2h0.2
							c0,0.6,0.4,0.9,0.8,1.7c0.1,0.2,0.2,0.5,0.4,0.6c0.2-0.2,0.5-0.6,0.8-0.8c0.1-0.2,0.2-0.2,0.2-0.3c0.1-0.1,0.1-0.2,0.2-0.3
							c0,0,0,0,0,0.1c0.1-0.1,0.3-0.1,0.4-0.2l0,0c0.2-0.4,0.7-0.3,1-0.7c0.3-0.1,0.7-0.2,1-0.3c-0.1-0.2-0.2-0.4-0.3-0.6h0.1
							c-0.3-0.4-0.1-0.8-0.3-1.2c0-0.4-0.6-0.7-0.6-1.1c0.1-0.1,0-0.3-0.1-0.3c-0.1-0.1-0.2-0.1-0.2-0.2c0,0-0.1,0-0.1-0.1
							c-0.1-0.1-0.2-0.2-0.4-0.2s-0.3,0-0.4,0c-0.2,0.1-0.4,0.3-0.7,0.4c-0.5-0.1-0.9,0.4-1.3,0.1c-0.2,0.3-0.5-0.2-0.7-0.1v0.1
							c-0.1-0.2-0.1,0.4-0.2,0l0,0c-0.1-0.2,0,0.4-0.1,0.2v0.1c0,0,0-0.1-0.1-0.1c0,0,0,0.2,0,0.1c-0.1-0.4-0.1,0.1-0.2-0.3
							c0,0-0.1-0.1,0-0.2c0,0-0.1,0-0.1,0.2s0,0.3,0.1,0.5v-0.1c0,0.1,0,0.1,0,0.2c0.1,0,0.1,0.2,0.2,0.3l0,0c0-0.2,0.1-0.1,0.1-0.1
							v0.1c0,0.2,0-0.3,0.1,0c0.1-0.1,0.3-0.1,0.5-0.1c0-0.1,0.1,0,0.1-0.2c0.1,0.2,0.2,0.3,0.2,0.2l0,0c0.1,0.3,0.1-0.3,0.2,0.1
							c0-0.2,0.2,0.1,0.2-0.2c0,0.1,0,0.1,0,0.1c0.1,0,0.3,0.1,0.4,0c0.1-0.2,0.3,0.1,0.3-0.2c0.1,0.1,0.2,0.2,0.3,0l0,0
							c0.1,0,0.3-0.1,0.3-0.3c0.1,0.3,0.1,0.2,0.2,0.3c0.1-0.1,0.2-0.1,0.3-0.3c0,0.1,0.1-0.1,0.1,0.1c0-0.1,0.1-0.1,0.2-0.2
							c0,0,0-0.1,0.1-0.1s0.1,0,0.1,0c0,0.1-0.1,0.2-0.1,0.2l0,0c0.1-0.1,0.3-0.2,0.4-0.2l0,0c0,0-0.1,0.1-0.1,0.2c0,0,0,0-0.1,0
							c0.1,0-0.1,0.2,0.1,0.2l0,0h0.1c-0.1,0-0.2,0-0.1,0c0.1,0.6,0.6,1,0.8,1.6h-0.1l0.1,0.1c0,0,0,0-0.1,0c0,0.1,0,0.1,0.1,0.2
							l0.1,0.1h-0.1c0.2,0.1-0.2,0,0.2,0.1h-0.1c0.1,0,0.1,0.1,0.1,0.2c-0.1,0-0.2,0.1-0.3,0.1c0,0.2-0.1,0.2-0.2,0.3
							c-0.1,0-0.2,0.1-0.3,0.3v-0.1c-0.2,0.3-0.6,0.3-0.9,0.5c-0.1,0-0.2,0.2-0.3,0.2v-0.1c0,0.4-0.6,0-0.6,0.5v-0.1
							c0,0.2-0.1,0,0,0.3l-0.1-0.1c0,0.4-0.2,0.3-0.2,0.3l0,0c0,0,0,0-0.1,0v-0.1c0,0-0.1,0-0.1-0.1c0,0,0,0,0-0.1
							c0-0.2,0-0.3-0.1-0.3s-0.2,0-0.2-0.1l0.1-0.1c-0.2,0-0.1-0.2-0.2-0.2h0.1h-0.1l0.1-0.1C107.8,85,107.6,85,107.6,84.8z"/>
					</g>
				</g>
			</g>
		</g>
	</g>
	<g>
		<path class="st2" d="M78.9,92.9c0,4.6,6.6,8.4,14.7,8.4c8.1,0,14.7-3.8,14.7-8.4v-3c0-4.6-6.6-8.4-14.7-8.4
			c-8.1,0-14.7,3.8-14.7,8.4V92.9z"/>
		<g>
			<g>
				<g>
					<g>
						<polygon class="st5" points="79.6,92.9 79.6,92.9 79.5,92.8 						"/>
						<path class="st5" d="M79.4,92.3C79.4,92.3,79.3,92.3,79.4,92.3l0.2,0.4C79.8,92.5,79.3,92.4,79.4,92.3z"/>
						<path class="st5" d="M79.4,92.2c0.1-0.1-0.1-0.2-0.1-0.2C79.4,92,79.3,92.2,79.4,92.2z"/>
						<path class="st5" d="M89.2,81.8L89.2,81.8c-0.6,0.2-1.3,0.2-1.9,0.4l0,0c-1.7,0.4-3.1,1.2-4.4,2.1v-0.1c0,0.1-0.1,0.2-0.2,0.2
							v-0.1c-0.4,0-0.8,0.7-1,0.7c-0.1,0.1-0.1,0.2,0,0.2c-1,0.8-1.9,2-2.1,3.2h-0.1c0,0.3,0,0.5,0,0.8s0,0.5,0,0.8
							c0,0.6,0,1.2-0.1,1.8c0.1,0,0.1-0.1,0.2,0c0.1-0.4-0.2-0.7,0-1h0.1c0-0.2-0.2-0.1-0.1-0.3c0.1-0.1,0.1,0,0.1,0
							c0-0.6,0.1-1-0.1-1.5c0.2-0.1,0.1-0.5,0.3-0.6c0-0.1,0.1-0.2,0-0.3c0.7-1.5,2-2.8,3.6-3.8c0.6-0.7,1.7-0.8,2.6-1.2l0,0
							c0.3-0.2,0.7-0.4,1.1-0.4l0.3-0.2c2.4-0.4,4.9-0.8,7.3-0.5c1.4,0.1,2.7,0.3,3.9,0.6c1.3,0.3,2.5,0.6,3.8,1c0,0,0,0.1-0.1,0
							c0.7,0.3,1.3,0.7,2,1l0,0c0.8,0.4,1.6,1,2.2,1.7c0.6,0.7,1.1,1.5,1.4,2.3c0.3,1,0.1,2.2,0.2,3.4v0.9l-0.1,0.9l-0.2,0.8
							c-0.1,0.3-0.2,0.5-0.3,0.8h-0.1c-0.4,0.8-1,1.5-1.8,2c-0.7,0.5-1.5,1-2.3,1.5c-1.7,0.7-3.5,1.8-5.4,2
							c-1.2-0.1-2.7,0.7-3.8,0.4c-2.3-0.4-4.4-0.3-6.8-0.6c-1-0.4-2-0.6-3-1s-1.9-0.9-2.6-1.6c-0.9-0.4-1.4-1.5-2-2.4v0.1
							c0-0.4-0.7-0.6-0.5-1l0,0c0.1-0.2-0.6-0.3-0.4-0.5h-0.1c-0.1-0.2,0.1-0.1,0.1-0.3c0-0.1-0.2,0-0.2-0.2
							c0.3-0.1-0.2-0.6,0.2-0.7c0,0.1,0.1-0.2,0.2,0.1c0-0.1,0-0.5-0.2-0.4c-0.2,0-0.3-0.2-0.5,0.1h0.1C78.4,93,78.4,93,78.3,93
							c0,0.3-0.2,0.4-0.2,0.7l0,0c0.2,0.1,0.2,0.4,0.2,0.5l-0.1,0.1c-0.1,0.1,0.4,0.3,0.1,0.3c0.2,0.3,0.3,0.7,0.5,1s0.4,0.7,0.7,1
							c0.1,0,0.4,0.5,0.4,0.2c-0.1,0.3,0.3,0.7,0.5,0.9c0,0,0,0-0.1,0c0.1,0.5,0.5,0.1,0.6,0.6c0.2-0.2,0.5,0.5,0.9,0.4
							c0,0.1,0,0.1,0,0.1c0.6,0.4,1.2,0.8,1.8,1.1c0.6,0,1.1,0.6,1.6,0.4c0.3,0.2,0.8,0.5,1.3,0.5h-0.1c0.5,0.1,1.2,0.3,1.7,0.2
							c0.1,0.3,0.4,0.3,0.6,0.4c0.4-0.1,1.1,0.1,1.7,0c0.1,0.1,0.5,0,0.5,0.2c1.6-0.2,3.6-0.1,5.3,0l0,0c0.2-0.1,0.4-0.4,0.6-0.6
							c0,0,0,0,0,0.1c0.3-0.1,0.6,0.1,0.9,0c0,0,0,0,0,0.1c0.3-0.1,0.6,0,0.9-0.2l0,0l0.2-0.1c0,0.1,0,0.2-0.1,0.2
							c2.6-0.6,5.2-1.9,7.2-3.8v0.1l0.3-0.4v0.1c0.3-0.2,0.5-0.5,0.7-0.8s0.3-0.6,0.5-0.9c0,0,0,0.1,0.1,0.1c0-0.5,0.6-0.7,0.3-1
							c0,0,0.1,0,0.1,0.1c0.2-0.7,0.2-1.5,0.2-2.1c0-0.7,0-1.4,0-2c-0.1-0.3-0.1-0.6-0.2-0.9c0-0.3-0.1-0.6-0.2-0.9
							c-0.1-0.3-0.2-0.6-0.3-0.9s-0.3-0.5-0.5-0.7h0.1c-1-1.2-2.1-2.4-3.5-3.1c-0.6-0.3-1-0.5-1.6-0.7v-0.1c-1.1-0.2-2.1-1.1-3.3-1
							l0.1-0.1c-0.2,0.1-0.7-0.2-0.7,0.1l-0.2-0.1c-0.8,0.2-1.4-0.4-2.4-0.3l0.1-0.1c-0.3,0-0.6,0-0.7,0c0,0,0,0,0.1,0
							c-0.8-0.3-1.7-0.1-2.5,0l0.1-0.1c-0.4,0.2-1.2,0-1.7,0.2v-0.1l-0.3,0.1v-0.1C90.5,81.5,89.9,81.7,89.2,81.8z"/>
					</g>
				</g>
			</g>
		</g>
	</g>
	<g>
		<ellipse class="st6" cx="93.6" cy="92.6" rx="13.3" ry="7.6"/>
		<g>
			<g>
				<g>
					<g>
						<polygon class="st5" points="79.7,92.6 79.6,92.6 79.8,92.7 						"/>
						<path class="st5" d="M80,93.1L80,93.1c0-0.1-0.2-0.2-0.3-0.4C79.5,93,80.1,93,80,93.1z"/>
						<path class="st5" d="M79.9,93.3c-0.1,0.1,0.1,0.2,0.1,0.2C80,93.4,80.1,93.2,79.9,93.3z"/>
						<path class="st5" d="M91.2,100L91.2,100c-0.5,0-1.1-0.2-1.7-0.3l0,0c-1.4-0.3-2.7-0.5-4-1c0,0,0,0,0.1,0c-0.1,0-0.2,0-0.2,0
							s0,0,0.1,0c-0.2-0.3-0.8-0.3-0.9-0.5c-0.1,0-0.2,0-0.1,0.1c-1-0.5-2-1.1-2.9-1.9c0-0.1,0-0.1,0.1-0.1
							c-0.9-0.5-1.4-1.6-1.6-2.7c-0.1,0-0.1,0.1-0.2,0c0,0.4,0.3,0.6,0.3,0.9h-0.1c0,0.2,0.2,0,0.2,0.2c0,0.1-0.1,0-0.1,0.1
							c0.1,0.2,0.2,0.4,0.4,0.6c0.1,0.2,0.3,0.4,0.5,0.5c-0.1,0.2,0.3,0.4,0.3,0.6c0.1,0.1,0.2,0.1,0.3,0.1c1.1,1.2,2.6,1.9,4.1,2.5
							c0.8,0,1.5,0.6,2.4,0.7l0,0c0.3,0,0.7,0,1.1,0.1l0.3-0.1c2,0.6,4.2,0.5,6.3,0.4c1.2-0.1,2.3-0.2,3.4-0.5
							c1.1-0.3,2.2-0.7,3.1-1.4c0,0,0,0,0,0.1c0.6-0.4,1.2-0.6,1.7-1l0,0c0.6-0.6,1.2-1.1,1.7-1.8c0.5-0.6,0.9-1.4,1-2.2
							c0.2-0.9,0.2-1.9-0.2-2.9c-0.4-0.9-1.1-1.7-1.8-2.3l0,0c-1.2-0.9-2.4-1.9-3.9-2.4c-1.5-0.7-3.2-0.6-4.8-0.9
							c-1-0.4-2.3,0.2-3.2-0.1c-1.9-0.4-3.8,0.2-5.5,1c-1.8,0.4-3.1,1.5-4.6,2.3c-0.4,0.7-1.5,0.9-1.9,1.8H81
							c-0.4,0.2,0,0.8-0.4,0.8l0,0c-0.3,0.1,0.3,0.5,0,0.5h0.1c0,0.2-0.1,0-0.2,0.1c0,0.1,0.2,0.1,0.1,0.2c-0.4,0,0,0.5-0.4,0.5
							c0-0.1-0.2,0.2-0.2-0.1c0,0.1-0.1,0.5,0.1,0.4c0.2,0,0.3,0.2,0.5,0h-0.1c0.1-0.1,0.1-0.1,0.2-0.1c0-0.3,0.2-0.3,0.3-0.4l0,0
							c-0.2-0.1,0-0.3,0-0.4h0.1c0.2,0-0.2-0.4,0-0.2c0-0.3,0.2-0.5,0.3-0.8s0.3-0.5,0.4-0.7c0-0.1,0.3-0.3,0.1-0.4
							c0.3,0,0.6-0.3,0.7-0.4c0,0,0,0,0,0.1c0.4,0,0.1-0.5,0.5-0.4c-0.1-0.2,0.5-0.3,0.4-0.6c0.1,0,0.1,0.1,0.1,0.1
							c0.4-0.3,1-0.5,1.4-0.7c0.2-0.4,0.9-0.3,1.1-0.7c0.3-0.1,0.8-0.1,1.1-0.3l0,0c0.4-0.2,0.9-0.3,1.2-0.6
							c0.2,0.2,0.4,0.1,0.6,0.2c0.3-0.2,0.9-0.3,1.3-0.5c0.1,0.1,0.4-0.1,0.4,0.1c1.2-0.5,2.9-0.5,4.2-0.1l0,0
							c0.2-0.1,0.4-0.3,0.6-0.4c0,0,0,0.1,0,0c0.3,0,0.5,0.2,0.7,0.2c0,0,0,0,0,0.1c0.2-0.1,0.5,0.2,0.8,0.1v0.1h0.2
							c0,0.1,0,0.2-0.1,0.1c2.1,0.4,4.3,0.7,6.2,1.9h-0.1l0.4,0.1c0,0,0,0-0.1,0c0.2,0.2,0.4,0.3,0.7,0.5c0.2,0.1,0.5,0.3,0.7,0.5
							c0,0-0.1,0-0.1,0.1c0.4,0.1,0.3,0.6,0.7,0.5l-0.1,0.1c0.8,0.7,1.3,1.7,1.4,2.8c0.2,0.4,0.2,0.9,0.1,1.4
							c-0.1,0.5-0.3,0.9-0.4,1.4h-0.1c-0.4,1.2-1.6,2-2.7,2.7c-0.5,0.3-0.8,0.5-1.2,0.8v-0.1c-0.7,0.7-1.9,0.5-2.7,1.1v-0.1
							c-0.1,0.2-0.6,0.1-0.4,0.4h-0.2c-0.6,0.5-1.2,0.1-1.9,0.4v-0.1c-0.2,0.1-0.4,0.2-0.6,0.1c0,0,0,0,0.1-0.1
							c-0.7-0.2-1.4,0.2-2.1,0.2l0.1-0.1c-0.3,0.2-1,0-1.4,0.1v-0.1l-0.2,0.1v-0.1C92.3,99.9,91.7,100,91.2,100z"/>
					</g>
				</g>
			</g>
		</g>
	</g>
	<g>
		<path class="st0" d="M108.3,89.9v-3.7c0-4.6-6.6-8.4-14.7-8.4c-8.1,0-14.7,3.8-14.7,8.4v3.7c0-4.6,6.6-8.4,14.7-8.4
			C101.8,81.5,108.3,85.2,108.3,89.9z"/>
		<g>
			<g>
				<g>
					<g>
						<polygon class="st5" points="109,89.9 109,89.8 108.9,89.7 						"/>
						<path class="st5" d="M108.7,89.2L108.7,89.2c0,0.2,0.2,0.3,0.3,0.4C109.1,89.4,108.6,89.3,108.7,89.2z"/>
						<path class="st5" d="M108.7,89.1c0.1-0.2-0.1-0.2-0.2-0.2C108.7,88.8,108.6,89.1,108.7,89.1z"/>
						<path class="st5" d="M94.8,81.6L94.8,81.6c0.6-0.1,1.3,0.2,2,0.2l0,0c1.7,0.2,3.3,0.4,4.9,0.9c0,0,0,0-0.1,0
							c0.1,0,0.2,0,0.3,0c0,0,0,0-0.1,0c0.3,0.3,1,0.3,1.2,0.5c0.1,0,0.2,0,0.1-0.1c1.2,0.5,2.5,1.3,3.6,2.2c0,0.1,0,0.1-0.1,0.1
							c1.1,0.6,1.7,1.9,2,3.1c0.1,0,0-0.1,0.2,0c0-0.4-0.4-0.7-0.4-1.1h0.1c-0.1-0.3-0.2,0-0.2-0.3c0-0.1,0.1,0,0.1-0.1
							c-0.3-0.5-0.6-1.1-1.1-1.3c0-0.2-0.4-0.5-0.4-0.7c-0.2-0.1-0.2-0.2-0.4-0.1c-1.4-1.4-3.3-2.2-5.1-2.8c-1,0-1.9-0.6-3-0.7l0,0
							c-0.4,0-0.9,0-1.3-0.1l-0.4,0.1c-2.5-0.5-5.1-0.3-7.6,0.1c-1.4,0.2-2.8,0.6-4.1,1.1s-2.5,1.2-3.5,2.3c0,0,0,0,0-0.1
							c-0.3,0.3-0.6,0.6-0.9,0.8c-0.3,0.3-0.5,0.6-0.7,0.9l0,0c-0.6,1-1.1,2.2-1,3.4h0.5c0-0.8,0-1.6-0.1-2.3c0-1.1,0-2.3,0.5-3.4
							s1.3-2,2.1-2.8v0.1c1.4-1.3,3.2-1.8,4.9-2.4c1.8-0.4,3.8-1.3,5.8-1.2c1.2,0.2,2.8-0.4,3.9,0.1c2.2,0.7,4.4,0.9,6.7,1.6
							c0.9,0.6,1.9,1,2.8,1.7c0.9,0.6,1.6,1.5,2,2.5c0.2,0.2,0.3,0.4,0.4,0.7c0.1,0.2,0.1,0.5,0.1,0.8c0,0.5-0.1,1.1,0,1.6h0.1
							c-0.2,0.4,0.3,0.9,0,1.1l0,0c-0.2,0.2,0.4,0.5,0.2,0.6h0.1c0,0.3-0.1,0-0.1,0.2c0,0.1,0.2,0,0.1,0.2c-0.4,0,0.1,0.6-0.3,0.6
							c0-0.1-0.2,0.2-0.2-0.1c0,0.1,0,0.5,0.2,0.5s0.3,0.2,0.5-0.1l-0.1-0.1c0.1-0.1,0.1-0.1,0.2-0.1c0-0.3,0.2-0.4,0.3-0.6l0,0
							c-0.2-0.2-0.1-0.4,0-0.5l0.1-0.1c0.2-0.1-0.3-0.4,0-0.3c-0.1-0.7,0-1.4-0.1-2.2c-0.1-0.1,0-0.6-0.2-0.4c0.2-0.2,0.1-0.9,0-1.1
							l0,0c0.1-0.5-0.4-0.4-0.3-0.9c-0.2,0-0.3-0.7-0.7-0.7c0-0.1,0-0.1,0.1-0.1c-0.2-0.3-0.5-0.6-0.7-0.9s-0.5-0.5-0.7-0.8
							c-0.5-0.2-0.9-0.9-1.5-0.9c-0.3-0.3-0.7-0.7-1.2-0.8h0.1c-0.5-0.3-1.2-0.5-1.6-0.5c-0.1-0.3-0.3-0.4-0.5-0.5
							c-0.4,0-1.1-0.3-1.7-0.3c-0.1-0.2-0.5-0.1-0.5-0.3c-1.7,0-3.6-0.4-5.4-0.7l0,0c-0.2,0.1-0.5,0.3-0.7,0.5l0,0
							c-0.3,0-0.6-0.1-0.9-0.1c0,0,0,0,0.1-0.1c-0.3,0.1-0.6-0.1-1,0.1l0,0L92,77.6c0-0.1,0-0.2,0.1-0.1c-1.4,0.1-2.7,0.4-4.1,0.8
							c-1.3,0.4-2.6,1-3.9,1.6l0.1-0.1l-0.4,0.3V80c-0.7,0.3-1.2,0.8-1.7,1.2c0,0,0-0.1-0.1-0.1c-0.3,0.4-0.8,0.4-0.7,0.8
							c0,0-0.1,0-0.1-0.1c-0.9,1.1-1.7,2.4-1.9,3.8c0.1,0.6,0.1,1.2,0.1,1.8c0,0.6,0,1.2,0.1,1.8h-0.1c0,0.2,0.1,0.4,0.1,0.6h0.2
							c-0.1-1.4,0.7-2.6,1.5-3.6c0.2-0.2,0.4-0.4,0.6-0.6c0.2-0.2,0.4-0.4,0.6-0.6l0.1,0.1c0.7-1,2.1-1,3-1.8v0.1
							c0.1-0.2,0.7-0.2,0.5-0.5c0.1,0,0.1,0,0.2,0c0.3-0.3,0.7-0.4,1-0.5c0.4-0.1,0.8-0.1,1.2-0.3v0.1c0.2-0.1,0.5-0.2,0.7-0.2
							c0,0,0,0-0.1,0.1c0.8,0.1,1.7-0.3,2.5-0.4l-0.1,0.1c0.4-0.2,1.2-0.1,1.7-0.2v0.1l0.3-0.1v0.1C93.4,81.7,94.1,81.6,94.8,81.6z"
							/>
					</g>
				</g>
			</g>
		</g>
	</g>
	<g>
		<path class="st2" d="M5.1,36.8c0,0,20.5,18,39.6,28.1s31,13.8,33.7,17.2l0,0c1.3-1.6,2.3-2.6,3.9-3.2c2.4-1,7-2.8,3.3-5
			S41.3,49.1,36.2,46.2c-8.4-4.7-18-14.6-26.5-11.8C7.6,35.1,6.1,35.9,5.1,36.8L5.1,36.8z"/>
		<g>
			<g>
				<g>
					<g>
						<polygon class="st5" points="5.6,36.4 5.6,36.4 5.6,36.4 5.6,36.4 5.5,37.3 5.5,37.3 5.5,37.3 5.5,37.3 5.5,37.3 5.5,37.3 
							5.6,37.3 5.7,37.1 5.6,37.2 5.5,37.3 5.5,37.3 5.5,37.3 5.5,37.3 5.5,37.3 5.5,37.3 5.5,37.3 5.5,37.3 5.6,36.4 						"/>
						<path class="st5" d="M6.5,36.3L6.5,36.3C6.2,36.5,6,36.8,5.9,37C6.3,36.9,6.2,36.3,6.5,36.3z"/>
						<path class="st5" d="M6.8,36.2c0.3-0.1,0.4-0.3,0.4-0.4C7.1,36,6.6,36.1,6.8,36.2z"/>
						<path class="st5" d="M41.1,49L41.1,49c-1.3-0.7-2.7-1.7-4.1-2.4h0.1c-3.5-1.9-6.6-4-10-6.2c0.1,0,0.1,0,0.2,0
							c-0.2-0.1-0.4-0.1-0.6-0.3c0-0.1,0.1,0,0.1,0c-0.6-0.6-2.1-1.3-2.5-1.7c-0.2-0.1-0.3-0.1-0.3,0c-1.3-0.8-2.7-1.7-4.2-2.3
							c-0.7-0.4-1.5-0.6-2.2-0.9c-0.4-0.1-0.8-0.2-1.1-0.3l-0.6-0.2l-0.6-0.1c-0.1-0.1-0.2-0.1-0.1-0.2c-1.3-0.2-2.7-0.2-4,0
							c-0.7,0.2-1.3,0.3-2,0.5s-1.3,0.5-1.9,0.8c-0.1,0.1,0.3,0,0.1,0.1c0.8-0.3,1.4-0.8,2.2-0.9L9.5,35c0.6-0.1,0.1-0.2,0.6-0.3
							c0.2,0,0,0.1,0.1,0.1c0.3-0.1,0.6-0.1,0.9-0.2c0.3,0,0.6,0,0.9-0.1c0.6-0.1,1.2,0,1.8-0.1c0.3,0.1,1.3,0.2,1.7,0.5
							c0.3,0,0.6,0.1,0.8,0c2,0.7,4,1.6,5.9,2.7c1.9,1.1,3.8,2.4,5.7,3.6c1.9,0.9,3.8,2.7,6,4l0,0c0.7,0.4,1.8,1,2.6,1.5l0.8,0.3
							c5,3.1,10.3,5.9,15.5,8.9c5.9,3.4,10.9,6.5,16.9,9.3c0,0,0,0.1-0.1,0c1.7,0.9,3.2,1.8,4.8,2.6l0,0c2,1,4,2.1,6,3.2
							c1,0.6,2,1.1,3,1.7c0.5,0.3,1,0.5,1.5,0.8s1,0.5,1.4,0.8s0.6,0.7,0.5,1.2c-0.1,0.4-0.4,0.8-0.8,1.1c-0.8,0.6-1.7,1-2.7,1.5
							c-0.9,0.4-2,0.8-2.8,1.5s-1.5,1.5-2.2,2.3V82h0.1l0,0l0.1-0.1c-1-1.1-2.2-1.8-3.5-2.5l0,0c-4-2-7.8-4-11.8-5.7
							c-4.1-2-8.6-3.6-12.6-5.9c-2.4-1.5-6-2.7-8.2-4.3c-4.5-3.1-9.1-5.7-13.8-8.6c-4.1-3-8.4-5.7-12-8.9c-2-1.2-3.7-3.2-5.7-4.8
							v0.1c-0.6-0.8-1.8-1.1-2-1.7H9c-0.3-0.4-1.1-0.4-1.2-0.8H7.7c-0.5-0.4,0-0.1-0.3-0.4c-0.1-0.1-0.2,0.1-0.4-0.2
							c0.2-0.3-1.2-0.9-0.9-1.2c0.2,0.2-0.3-0.4,0.3,0c-0.1-0.2-0.9-0.8-0.9-0.6c-0.2,0.1-0.6-0.1-0.2,0.4h0.2
							C5.6,37,5.6,37,5.6,37.1c0.6,0.5,0.5,0.7,0.9,1.2l0,0c0.4,0.1,0.7,0.5,1,0.8v0.1c0,0.2,0.9,0.3,0.5,0.4c1.3,1,2.7,2.2,4.1,3.3
							c0.3,0.1,1.1,0.9,0.9,0.5c0.2,0.5,1.2,1.3,1.6,1.6h-0.1c0.6,0.8,1.1,0.5,1.6,1.3c0.3-0.1,1.2,1.1,1.8,1.1
							c0.1,0.1,0.1,0.2,0,0.2c1.3,1,2.7,2.1,3.8,3c1.1,0.5,2.2,1.8,3.2,2.1c0.6,0.5,1.7,1.4,2.7,2h-0.1c1.1,0.7,2.5,1.7,3.3,2
							c0.2,0.5,0.7,0.7,1.1,1.1c0.8,0.4,2.3,1.4,3.5,2c0.1,0.2,1,0.5,0.9,0.7c3.4,1.7,7.4,4.1,10.8,6.2H47c0.5,0.1,1.1,0.2,1.7,0.3
							c0,0,0,0.1-0.1,0c0.7,0.3,1.2,0.8,1.9,1.1c0,0,0,0-0.1,0c0.7,0.2,1.2,0.8,2,1v0.1l0.5,0.2c0,0.1-0.1,0.1-0.3,0
							c5.6,2.9,11.7,5.2,17.5,8h-0.2l1.2,0.4H71c1.4,0.8,2.9,1.3,4.3,2.1c0,0-0.3,0-0.1,0.1c1.1,0.4,1.4,1.1,2.1,1.2
							c0,0,0,0.1-0.1,0.1l0.7,0.5c0.2,0.2,0.4,0.4,0.6,0.6l0.5-0.5l0,0v0.5c0.8-1,1.7-2,2.8-2.7c0.5-0.3,1.1-0.6,1.8-0.8
							c0.6-0.3,1.2-0.5,1.8-0.8c0.6-0.4,1.2-0.8,1.7-1.4c0.2-0.3,0.5-0.7,0.5-1.1c0-0.2-0.1-0.4-0.1-0.6c-0.1-0.2-0.2-0.3-0.3-0.5
							c-0.5-0.6-1.2-0.9-1.8-1.2c-0.6-0.3-1.3-0.7-1.9-0.9l0,0c-3.3-1.6-6.5-3.6-9.8-5.4c-1.3-0.8-2.3-1.2-3.7-2v-0.1
							c-2.4-1-4.7-2.9-7.2-4H63c-0.5-0.1-1.4-0.9-1.4-0.5l-0.4-0.3c-1.8-0.6-2.9-1.8-5-2.7h0.2c-0.6-0.2-1.2-0.6-1.6-0.8
							c0.1,0,0,0,0.2,0c-1.5-1.2-3.5-1.9-5.3-2.9H50c-0.9-0.3-2.4-1.3-3.5-1.9h0.1L46,51.6v-0.1C44,50.5,42.6,49.8,41.1,49z"/>
						<path class="st5" d="M6.3,38.6c-0.1-0.1-0.1-0.1-0.1-0.2C6.2,38.5,6.3,38.6,6.3,38.6z"/>
					</g>
				</g>
			</g>
		</g>
	</g>
	<g>
		<path class="st0" d="M5,36.8c-3.4,2.9-2.7,6.5-2.3,8.4c0.6,2.5,4.8,12.3,13,17c10.6,6,44.7,20.1,44.1,19.8
			c4.4,1.9,13.3,6.2,16.1,2.9c0.9-1.1,1.7-2,2.3-2.8l0,0c-2.7-3.4-14.6-7.1-33.7-17.2S5.1,36.8,5,36.8L5,36.8z"/>
		<g>
			<g>
				<g>
					<g>
						<polygon class="st5" points="4.5,37.2 4.5,37.2 4.5,37.2 4.6,37.3 4.6,37.3 4.6,37.3 4.6,37.3 4.6,37.4 4.6,37.4 4.9,37.5 
							4.7,37.4 4.7,37.4 4.6,37.3 4.6,37.3 4.6,37.3 4.6,37.3 						"/>
						<path class="st5" d="M5.9,38.1L5.9,38.1L5,37.7C5.2,38.1,5.8,37.9,5.9,38.1z"/>
						<path class="st5" d="M6.1,38.3c0.2,0.3,0.4,0.3,0.5,0.3C6.4,38.6,6.1,38.2,6.1,38.3z"/>
						<path class="st5" d="M37,60.5L37,60.5c-1.2-0.7-2.6-1.7-3.9-2.5h0.1c-3.3-2.2-6.4-4.1-9.6-6.3c0.1,0,0.1,0,0.2,0
							c-0.2-0.1-0.4-0.1-0.6-0.3c0-0.1,0.1,0,0.1,0c-0.6-0.6-2-1.3-2.4-1.8c-0.2-0.1-0.3-0.1-0.3,0c-2.5-1.8-5.1-3.8-7.6-5.6
							c-0.1-0.1-0.1-0.2,0-0.2c-2.3-1.4-4.4-3.3-6.4-5.1c-0.1,0,0.2,0.2-0.1,0.1c0.6,0.6,1.4,0.9,1.9,1.5H8.3
							c0.4,0.4,0.2-0.1,0.6,0.4c0.1,0.2-0.1,0,0,0.1c1,0.8,1.9,1.6,2.9,2.2c0.1,0.3,1,0.8,1.3,1.2c0.3,0.1,0.5,0.4,0.7,0.3
							c3.3,2.7,6.9,5.3,10.5,7.9c1.9,1,3.7,2.7,5.8,4l0,0c0.7,0.4,1.7,1,2.5,1.5l0.7,0.3c4.7,3.4,9.9,6.2,15,8.9
							c5.9,3.1,11,5.8,17.1,8.1c0,0,0,0.1-0.1,0c1.7,0.7,3.2,1.5,4.8,2.2l0,0c1.4,0.6,2.8,1.2,4.1,1.9c0.7,0.4,1.3,0.7,2,1.2
							c0.3,0.2,0.6,0.4,0.9,0.7c0.1,0.1,0.3,0.2,0.4,0.4l0.3,0.3l0.1,0.1l0,0c-0.1,0.1-0.2,0.3-0.3,0.4c-0.7,0.8-1.3,1.7-1.9,2.5
							c-0.9,0.9-2.3,1.1-3.6,1s-2.7-0.4-4-0.8c-2.6-0.8-5.2-1.9-7.7-2.9v-0.1c-0.2-0.1-0.5-0.2-0.7-0.3l-0.1,0.1c0,0,0,0.1,0-0.1
							c0.1,0,0,0,0,0l0,0l0,0h-0.1l-0.2-0.1l-0.4-0.1l-0.7-0.3l-1.4-0.6c-0.9-0.4-1.8-0.8-2.8-1.2c-1.8-0.8-3.7-1.6-5.5-2.4
							c-4-1.9-8.5-3.3-12.5-5.2c-2.4-1.4-6-2.3-8.2-3.7c-2.3-1.3-4.7-2.5-7.1-3.6c-2.4-1.1-4.8-2.1-7.1-3.5c-3.9-3-7.3-6.8-9.2-11.2
							C3.2,48,2.6,45.5,2.3,43l-0.1,0.1c0.1-0.9-0.3-2,0.2-2.5v0.1c0.3-0.4-0.1-1.2,0.2-1.4v-0.1c0.2-0.5,0.1,0,0.4-0.4
							c0.1-0.2-0.1-0.1,0.1-0.4c0.2,0.1,0.4-0.2,0.6-0.5c0.2-0.3,0.4-0.5,0.6-0.4c-0.2,0.2,0.4-0.2,0,0.3c0.1-0.1,0.8-0.7,0.6-0.8
							c-0.1-0.2,0.1-0.6-0.4-0.3v0.2c-0.2,0-0.2,0.1-0.3,0c-0.3,0.3-0.5,0.4-0.7,0.5s-0.3,0.2-0.6,0.4l0,0c-0.1,0.4-0.5,0.8-0.6,1.1
							L2.2,39C2,39.1,2.1,40,2,39.7c-0.5,1.6-0.5,3.6-0.1,5.3c0.1,0.2,0.4,1.3,0.4,0.9c-0.1,0.5,0.3,1.8,0.6,2.2c0,0-0.1,0-0.1-0.1
							c0.1,1,0.7,0.9,0.8,1.9c0.3,0,0.7,1.5,1.2,1.8c0,0.1,0,0.2-0.1,0.2c0.8,1.4,1.7,2.9,2.6,4c0.9,0.8,1.7,2.2,2.7,2.7
							c0.5,0.6,1.4,1.6,2.4,2.3h-0.1c1,0.8,2.5,1.7,3.3,1.9c0.2,0.4,0.7,0.7,1.2,1c0.8,0.3,2.4,1.1,3.6,1.6c0.1,0.2,1,0.4,1,0.6
							c3.5,1.3,7.5,3.3,11,5.1h-0.1c0.5,0.1,1.1,0.1,1.7,0.2c0,0,0,0.1-0.1,0c0.7,0.3,1.2,0.7,1.9,1c0,0,0,0-0.1,0
							c0.6,0.2,1.2,0.7,2,0.9v0.1l0.5,0.1c0,0.1-0.1,0.1-0.3,0c5.6,2.5,11.5,4.7,17.3,7.2H55l1.2,0.4h-0.1c0.6,0.3,1.2,0.5,1.8,0.8
							l0.9,0.3l0.4,0.2l0.2,0.1h0.1h0.1l0,0l0,0l0,0c0,0,0,0.1,0.2,0c0.3-0.3,0-0.5,0.1-0.5c-0.1-0.1,0,0-0.1-0.1l0,0l-0.3,0.6
							c0.3,0.1,0.5,0.2,0.8,0.3c0,0-0.3,0-0.1,0.1c1.1,0.3,1.6,0.9,2.2,0.8c0,0,0,0.1-0.1,0.1c2.9,1.1,5.9,2.4,9.1,2.8
							c1.2-0.1,2.5-0.1,3.7-0.8c0.3-0.2,0.5-0.4,0.7-0.7l0.6-0.8c0.4-0.5,0.7-1,1.1-1.5c0.1,0,0.1,0,0.2,0l0.1-0.1l0.1-0.2
							c0.1-0.1,0.1-0.2,0.1-0.3l0,0L77.9,82l0,0v-0.2c-0.2-0.2-0.4-0.4-0.5-0.5l-0.5-0.4c-0.3-0.3-0.7-0.5-1.1-0.7
							c-0.8-0.5-1.5-0.9-2.3-1.3c-1.6-0.9-3.2-1.7-4.9-2.4c-1.4-0.7-2.3-1-3.7-1.6v-0.1c-2.5-0.8-4.8-2.5-7.3-3.3h0.2
							c-0.5,0-1.4-0.8-1.4-0.4L56,70.8c-1.8-0.4-2.9-1.6-5-2.4h0.2c-0.6-0.2-1.2-0.5-1.6-0.7c0.1,0,0,0,0.2,0
							c-1.5-1.1-3.5-1.8-5.2-2.7h0.3c-0.9-0.3-2.4-1.3-3.5-1.8h0.1L40.9,63v-0.1C39.7,62,38.4,61.3,37,60.5z"/>
						<path class="st5" d="M3.2,38c0.1-0.1,0.1-0.1,0.1-0.2C3.3,37.9,3.2,38,3.2,38z"/>
					</g>
				</g>
			</g>
		</g>
	</g>
	<g>
		<path class="st2" d="M110.7,84.8c-1.8-5.1-7.1-6.2,2.1-7.6c3-0.4,50.6-10.7,61.7-14.9s22.8-5.3,23.6,2.6
			c-1.5,3.1-26.6,9.7-36.1,10.7C152.6,76.6,110.7,84.8,110.7,84.8L110.7,84.8z"/>
		<g>
			<g>
				<g>
					<g>
						<polygon class="st5" points="110.5,84.1 110.5,84.1 110.5,84.1 110.5,84.1 110.9,85.4 110.9,85.4 110.9,85.4 110.9,85.4 
							110.9,85.4 110.9,85.4 111,85.4 111.2,85.3 111,85.4 110.9,85.4 110.9,85.4 110.9,85.4 110.9,85.4 110.9,85.4 110.9,85.4 
							110.9,85.4 110.9,85.4 110.5,84.1 						"/>
						<path class="st5" d="M112.3,84.9L112.3,84.9l-0.9,0.4C111.9,85.4,112.1,84.8,112.3,84.9z"/>
						<path class="st5" d="M112.6,84.9c0.4,0,0.5-0.2,0.6-0.2C113.1,84.8,112.5,84.7,112.6,84.9z"/>
						<path class="st5" d="M151.2,77.2L151.2,77.2c-1.4,0.3-3.1,0.4-4.7,0.8l0.1-0.1c-4,0.7-7.7,1.5-11.6,2.3c0.1,0,0.1-0.1,0.1-0.1
							c-0.2,0.1-0.4,0.2-0.6,0.2c-0.1,0,0.1-0.1,0.1-0.1c-0.9,0-2.4,0.6-3,0.5c-0.2,0.1-0.3,0.2-0.2,0.2c-3.1,0.6-6.4,1.3-9.6,2
							c-0.2,0-0.2,0-0.2-0.1c-2.6,0.8-5.5,1.2-8.3,1.7c-0.1,0.1,0.3,0,0,0.2c0.9-0.1,1.6-0.5,2.4-0.5l-0.1,0.1
							c0.6-0.1,0.1-0.2,0.7-0.2c0.3,0,0,0.1,0.1,0.1c1.2-0.3,2.6-0.5,3.7-0.9c0.3,0.1,1.3-0.2,1.8-0.2c0.3-0.1,0.6-0.2,0.7-0.3
							c4.4-0.7,8.8-1.7,13.3-2.5c2-0.7,4.6-0.8,7.1-1.3l0,0c0.8-0.2,2-0.5,3-0.6l0.8-0.3c5.9-0.7,11.8-1.9,17.8-2.5
							c6.8-1,12.7-2.3,19-4.5c0,0,0.1,0-0.1,0.1c1.8-0.6,3.5-1,5.2-1.6l0,0c2.1-0.8,4.3-1.6,6.4-2.6c0.5-0.2,1.1-0.5,1.6-0.8
							c0.3-0.1,0.5-0.3,0.7-0.5s0.5-0.4,0.7-0.7l0.1-0.1v-0.1v-0.3l-0.1-0.4c-0.1-0.3-0.1-0.6-0.3-0.8c-0.2-0.5-0.5-1-0.8-1.5
							c-0.8-1.1-2-1.9-3.3-2.3c-1.3-0.4-2.8-0.6-4.2-0.6c-2.9,0-5.7,0.5-8.4,1.2V60c-2.2,0.6-4.3,1.2-6.3,1.9c-1,0.3-2.1,0.7-3.1,1
							c-1.1,0.3-2.1,0.6-3.2,1c-4.4,1.1-9,2.8-13.5,3.7c-2.8,0.4-6.3,1.9-9,2.2c-5.5,0.8-10.6,2.3-15.9,3.8c-5,0.9-9.9,2.4-14.8,3.1
							c-1.1,0.3-2.3,0.5-3.6,0.6c-0.6,0.1-1.3,0.1-1.9,0.2c-0.6,0.1-1.3,0.3-1.9,0.7h0.1c-0.2,0.1-0.5,0.3-0.6,0.6
							c-0.1,0.3,0,0.6,0.1,0.8c0.3,0.4,0.6,0.7,0.6,1.1l-0.1-0.1c0.1,0.5,1,0.7,1,1h0.1c0.4,0.5,0,0.1,0.2,0.5
							c0.1,0.1,0.2,0,0.3,0.3c-0.3,0.2,0.8,1.3,0.4,1.5c-0.1-0.3,0.1,0.5-0.3-0.1c0.1,0.2,0.4,1.1,0.6,0.9c0.2,0,0.5,0.3,0.4-0.3
							l-0.2-0.1c0-0.2,0-0.2,0.1-0.3c-0.3-0.8-0.2-0.9-0.4-1.5l0,0c-0.3-0.3-0.6-0.8-0.7-1.1v-0.1c0-0.3-0.8-0.6-0.4-0.5
							c-0.3-0.3-0.5-0.6-0.8-1c-0.2-0.3-0.4-0.7-0.4-0.9c0-0.1,0-0.2,0.2-0.3c0.1-0.1,0.3-0.2,0.5-0.3c0.4-0.2,0.8-0.3,1.2-0.4
							c0.2-0.2,1.3-0.3,0.9-0.4c0.5,0.1,1.8,0,2.3-0.1c0,0,0,0.1-0.1,0.1c1,0.1,1.1-0.5,2.1-0.3c0.1-0.3,1.6-0.2,2.1-0.6
							c0.1,0,0.2,0.1,0.1,0.1c1.6-0.3,3.4-0.6,4.7-0.9c1.1-0.5,2.8-0.5,3.7-1c0.8-0.1,2.2-0.3,3.3-0.7l-0.1,0.1
							c1.3-0.3,2.9-0.7,3.8-1.1c0.4,0.2,1,0,1.6,0c0.8-0.3,2.6-0.7,3.9-1.1c0.2,0.1,1.1-0.3,1.2-0.1c3.6-1.2,8.2-2.1,12.2-2.8h-0.1
							c0.5-0.2,1-0.6,1.5-0.9c0.1,0,0.1,0-0.1,0.1c0.7-0.2,1.4-0.2,2.1-0.4c0,0,0,0-0.1,0.1c0.7-0.2,1.4-0.2,2.2-0.5h0.1l0.5-0.2
							c0,0.1,0,0.2-0.3,0.2c3.1-0.7,6.2-1.6,9.3-2.5c3.1-0.9,6.2-2,9.3-3.1l-0.2,0.1l1.1-0.5c0,0,0,0.1-0.1,0.1
							c1.5-0.4,3.1-1.1,4.6-1.4c0,0-0.2,0.1,0,0.1c1.1-0.4,1.8-0.2,2.3-0.7c0.1,0,0.1,0.1,0,0.1c3.1-0.7,6.5-1,9.5-0.2
							c1.3,0.2,2.6,0.8,3.5,2c0.4,0.5,0.7,1.2,1,1.8c0.1,0.3,0.2,0.7,0.2,1c0.1,0.3-0.2,0.5-0.4,0.8V65c-1.4,1.2-3.2,1.8-4.9,2.5
							c-1.8,0.6-3.6,1.2-5.4,1.8c-1.5,0.4-2.5,0.8-4,1.3l-0.1-0.1c-2.5,1-5.4,1.2-8,2.2l0.2-0.2c-0.4,0.3-1.6,0.3-1.4,0.6h-0.5
							c-1.7,0.8-3.4,0.6-5.6,1.3l0.1-0.1c-0.6,0.2-1.3,0.3-1.7,0.4c0.1,0,0,0,0.2-0.1c-1.9,0.1-4,0.6-6,0.9l0.2-0.2
							c-1,0.3-2.7,0.4-4,0.7l0.1-0.1l-0.6,0.2V76C154.3,76.6,152.8,76.9,151.2,77.2z"/>
						<path class="st5" d="M110.3,82.5c0,0.1,0.1,0.1,0.1,0.2C110.4,82.7,110.3,82.6,110.3,82.5z"/>
					</g>
				</g>
			</g>
		</g>
	</g>
	<g>
		<path class="st0" d="M110.7,84.8c0,0,41.9-8.2,51.4-9.1c9.5-1,34.6-7.6,36.1-10.7c0.8,7.9-21,15.4-26.2,16c-5.3,0.5-45.1,7-48,7.5
			s-11.8,3.3-12.8-2.2C111,85.7,110.9,85.2,110.7,84.8L110.7,84.8z"/>
		<g>
			<g>
				<g>
					<g>
						<polygon class="st5" points="111,85.4 111,85.4 111,85.4 111,85.4 110.1,85 110.1,85 110.1,85 110.1,85 110.1,85 110.1,85 
							110.1,85.1 110.3,85.2 110.2,85.1 110.1,85 110.1,85 110.1,85 110.1,85 110.1,85 110.1,85 110.1,85 110.1,85 111,85.4 						
							"/>
						<path class="st5" d="M110.7,86.3L110.7,86.3l-0.5-0.8C110.2,85.9,110.7,86,110.7,86.3z"/>
						<path class="st5" d="M110.7,86.6c0,0.4,0.2,0.5,0.3,0.6C110.9,87,110.9,86.5,110.7,86.6z"/>
						<path class="st5" d="M139.7,86.2L139.7,86.2C139.7,86.3,139.7,86.2,139.7,86.2z"/>
						<path class="st5" d="M147.4,84.5L147.4,84.5c-1.3,0.3-3,0.4-4.5,0.7l0.1-0.1c-3.9,0.6-7.5,1.3-11.3,2.1c0.1,0,0.1-0.1,0.1-0.1
							c-0.2,0.1-0.4,0.2-0.6,0.2c-0.1,0,0.1-0.1,0.1-0.1c-0.8,0-2.4,0.5-2.9,0.5c-0.2,0.1-0.3,0.1-0.2,0.2c-1.5,0.3-3.1,0.5-4.6,0.9
							s-3.1,0.8-4.7,1.1c-0.2,0-0.2-0.1-0.2-0.1c-1.3,0.3-2.7,0.5-4.2,0.2c-0.7-0.1-1.5-0.3-2.1-0.8c-0.7-0.4-1.1-1.1-1.5-1.7
							c-0.1-0.1,0.1,0.3-0.1,0.1c0.2,0.5,0.5,0.9,0.8,1.1c0.3,0.3,0.7,0.5,1.1,0.8h-0.1c0.6,0.3,0.2-0.1,0.8,0.2
							c0.2,0.2-0.1,0.1,0,0.1c1.3,0.4,2.7,0.5,3.9,0.3c0.3,0.2,1.4-0.1,1.8,0c0.3-0.1,0.6-0.1,0.7-0.3c1.1-0.2,2.2-0.4,3.2-0.6
							s2.1-0.4,3.2-0.6c2.2-0.4,4.3-0.8,6.5-1.1c2-0.6,4.5-0.7,6.9-1.2l0,0c0.8-0.2,1.9-0.4,2.9-0.5l0.8-0.3
							c5.7-0.6,11.5-1.7,17.3-2.5c3.3-0.4,6.4-0.9,9.4-1.3l2.3-0.3c0.8-0.1,1.6-0.3,2.3-0.5c1.5-0.4,3-0.9,4.5-1.6
							c0,0,0.1,0-0.1,0.1c1.8-0.7,3.4-1.2,5-1.9l0,0c2-1,4-1.9,6-3s3.9-2.4,5.3-3.9c0.8-0.8,1.6-1.6,2.2-2.7
							c0.1-0.3,0.3-0.5,0.4-0.8s0.2-0.7,0.3-1c0.1-0.3,0.1-0.7,0.1-1c0-0.1,0-0.5-0.1-0.3l-0.1,0.1L198,65c-0.2,0.2-0.4,0.4-0.6,0.6
							s-0.4,0.3-0.6,0.4c-0.3,0.2-0.7,0.4-1,0.5c-0.7,0.3-1.4,0.7-2.1,0.9c-1.4,0.6-2.9,1.1-4.3,1.6v-0.1c-4.1,1.5-8.2,2.3-12.3,3.4
							c-4.3,0.9-8.8,2.5-13.3,2.9c-2.8,0-6.3,1.2-8.9,1.3c-5.4,0.4-10.4,1.6-15.6,2.8c-4.9,0.7-9.6,2-14.4,2.6
							c-2.2,0.6-4.7,0.6-7.2,1.1l0.1,0.1c-0.9-0.1-1.9,0.7-2.5,0.5h0.1c-0.5-0.1-1,0.6-1.3,0.5l-0.1,0.1c-0.6,0.1-0.1-0.1-0.5,0
							c-0.2,0,0,0.2-0.4,0.2c-0.1-0.3-1.4,0.3-1.5,0c0.3-0.1-0.5-0.1,0.2-0.3c-0.2,0-1.2,0.2-1,0.4c0,0.2-0.4,0.4,0.2,0.4l0.1-0.2
							c0.2,0.1,0.2,0,0.2,0.1c0.8-0.1,0.9,0,1.5,0l0,0c0.3-0.2,0.9-0.2,1.2-0.3h0.1c0.2,0.1,0.8-0.5,0.6-0.2c1.5-0.4,3.3-0.7,5-1
							c0.2-0.1,1.3-0.2,0.9-0.4c0.5,0.1,1.8-0.1,2.2-0.2c0,0,0,0.1-0.1,0.1c1,0.1,1-0.5,2-0.3c0.1-0.3,1.6-0.2,2-0.6
							c0.1,0,0.2,0.1,0.1,0.1c1.6-0.3,3.3-0.5,4.6-0.8c1.1-0.4,2.7-0.4,3.7-0.9c0.8-0.1,2.1-0.2,3.2-0.5l-0.1,0.1
							c1.3-0.2,2.8-0.5,3.7-0.9c0.4,0.2,1,0.1,1.5,0.1c0.8-0.3,2.5-0.6,3.8-0.9c0.2,0.1,1.1-0.2,1.2-0.1c3.5-1,8-1.6,11.9-1.9h-0.1
							c0.5-0.2,1-0.5,1.5-0.7c0.1,0,0,0-0.1,0.1c0.7-0.1,1.4,0,2.1-0.1c0,0,0,0-0.1,0.1c0.7-0.2,1.4,0,2.2-0.3h0.1l0.5-0.2
							c0,0.1,0,0.2-0.3,0.2c6.1-1,12.2-2.9,18.3-4.6l-0.2,0.1l1.1-0.4c0,0,0,0.1-0.1,0.1c1.5-0.3,3-1,4.5-1.5c0,0-0.2,0.2,0,0.1
							c1-0.5,1.8-0.4,2.2-0.9c0.1,0,0.1,0.1,0,0.1c1-0.4,2.1-0.8,3.1-1.3c1-0.4,2.3-1.1,2.5-1.4l0.1-0.1l0.1-0.1l0,0
							c0,0.1,0,0.3,0,0.4l-0.1,0.4l-0.1,0.4c-0.3,1.2-1.2,2.3-2.2,3.3s-2.1,1.8-3.2,2.6v-0.1c-2.8,2.1-6.3,3.5-9.7,4.9
							c-1.4,0.5-2.4,0.9-3.8,1.4l-0.1-0.1c-2.4,1.1-5.2,1.3-7.8,1.9l0.2-0.1c-0.4,0.2-1.6,0.2-1.4,0.4H169c-1.7,0.6-3.3,0.3-5.5,0.9
							l0.1-0.1c-0.6,0.1-1.3,0.3-1.7,0.3c0.1,0,0,0,0.2-0.1c-1.9,0-3.9,0.6-5.8,0.9l0.2-0.2c-0.9,0.3-2.7,0.4-3.9,0.7l0.1-0.1
							l-0.6,0.2v-0.1C150.5,83.9,149,84.3,147.4,84.5z"/>
						<path class="st5" d="M131.3,87.3L131.3,87.3C131.4,87.2,131.4,87.2,131.3,87.3z"/>
						<path class="st5" d="M112.9,84.9c-0.1,0-0.1,0-0.2,0C112.7,85,112.8,84.9,112.9,84.9z"/>
					</g>
				</g>
			</g>
		</g>
	</g>
	<g>
		<path class="st0" d="M78.3,135.5c2.6,0,5.3-0.2,7.5-0.9c6.5-2,7.4-4.1,8.6-10.6c1.2-6.5,4.2-19.5,4.8-23.2c0,0-2-0.1-4.6-0.4l0,0
			C90.1,103.5,78.3,135.5,78.3,135.5L78.3,135.5z"/>
		<g>
			<g>
				<g>
					<g>
						<polygon class="st5" points="79,135.5 79,135.5 79,135.5 78.9,135.7 78.9,135.7 78.9,135.7 78.9,135.7 78.9,135.7 78.9,135.7 
							79,135.7 78.9,135.5 78.9,135.6 78.9,135.7 78.9,135.7 78.9,135.7 78.9,135.7 78.9,135.7 78.9,135.7 79,135.5 						"/>
						<path class="st5" d="M78.9,134.9C78.9,135,78.9,134.9,78.9,134.9l0.1,0.5C79.2,135.3,78.8,135,78.9,134.9z"/>
						<path class="st5" d="M79,134.8c0.1-0.1,0-0.2,0-0.3C79.1,134.6,78.9,134.8,79,134.8z"/>
						<path class="st5" d="M85.2,117.7L85.2,117.7c-0.2,0.6-0.7,1.3-0.9,2v-0.1c-0.8,1.7-1.3,3.4-1.9,5.2v-0.1c0,0.1,0,0.2,0,0.3
							c0,0,0,0,0-0.1c-0.3,0.3-0.3,1.1-0.5,1.3c0,0.1,0,0.2,0.1,0.1c-0.5,1.4-1,2.9-1.4,4.3c0,0.1-0.1,0.1-0.2,0
							c-0.2,1.3-0.8,2.5-1.3,3.7c0.1,0.1,0.1-0.1,0.2,0.1c0.2-0.4,0.1-0.8,0.4-1.1l0.1,0.1c0.1-0.2-0.2-0.1,0-0.4
							c0.1-0.1,0.1,0.1,0.1,0c0.2-0.6,0.5-1.1,0.5-1.7c0.2-0.1,0.2-0.6,0.5-0.7c0-0.2,0.1-0.3,0-0.4c0.8-1.9,1.4-3.9,2.2-5.9
							c0.1-1,0.9-2,1.2-3.1l0,0c0.1-0.4,0.3-0.9,0.5-1.3v-0.4c1.3-2.4,2.2-5.1,3.5-7.6c1.4-2.9,2.8-5.2,3.9-8.1c0,0,0.1,0,0,0.1
							c0.4-0.8,0.9-1.4,1.3-2.1l0,0c0.2-0.3,0.3-0.5,0.5-0.8c0.2-0.2,0.4-0.5,0.6-0.6l0,0c1.3,0.1,3,0.3,4.2,0.3c0.1,0,0.2,0,0.2,0
							v0.2l-0.1,0.4c-0.1,0.3-0.1,0.6-0.2,0.9c-0.1,0.6-0.2,1.3-0.4,1.9c-0.2,1.3-0.5,2.6-0.7,3.9h-0.1c-0.3,2.1-1.1,3.9-1.4,6
							c-0.6,2-0.6,4.3-1.2,6.4c-0.6,1.2-0.2,3.1-0.8,4.2c-0.5,1.2-0.8,2.4-1.1,3.6c-0.4,1.2-0.8,2.4-1.6,3.4c-0.9,0.8-1.9,1.4-3,1.9
							s-2.2,0.9-3.3,1.1c-1,0.5-2.3,0.2-3.5,0.4l0.1,0.1c-0.4-0.2-0.9,0.4-1.2,0.1l0,0c-0.2-0.2-0.5,0.4-0.7,0.2v0.1
							c-0.3,0,0-0.1-0.3-0.1c-0.1,0,0,0.2-0.2,0.1c0-0.4-0.7,0.1-0.7-0.3c0.2,0-0.2-0.2,0.1-0.2c-0.1,0-0.6,0-0.5,0.2
							c0,0.2-0.2,0.3,0.1,0.5l0.1-0.1c0.1,0.1,0.1,0.1,0.1,0.2c0.4,0,0.4,0.2,0.7,0.3l0,0c0.2-0.2,0.4-0.1,0.6-0.1l0.1,0.1
							c0.1,0.2,0.4-0.3,0.3-0.1c0.8-0.1,1.6-0.2,2.5-0.3c0.1-0.1,0.6-0.1,0.4-0.2c0.2,0.2,0.9,0.1,1.1,0.1l0,0
							c0.5,0.2,0.5-0.4,1-0.1c0-0.3,0.8-0.1,0.9-0.5c0.1,0,0.1,0.1,0.1,0.1c0.7-0.2,1.6-0.4,2.2-0.7c0.4-0.4,1.3-0.5,1.6-1
							c0.4-0.2,1-0.4,1.4-0.9v0.1c0.5-0.4,1.1-1.1,1.2-1.6c0.3,0,0.5-0.3,0.7-0.5c0.1-0.5,0.5-1.2,0.6-1.9c0.2-0.1,0.1-0.5,0.3-0.5
							c0.2-1.8,0.6-3.9,1.3-5.7l0,0c-0.1-0.3-0.2-0.6-0.3-0.8c0,0,0.1,0,0,0c0-0.3,0.3-0.6,0.3-1c0,0,0,0,0,0.1c0-0.3,0.3-0.6,0.2-1
							h0.1v-0.3c0.1,0,0.2,0,0.1,0.2c0.7-2.9,1-5.9,1.7-8.8v0.1v-0.6c0,0,0,0,0,0.1c0.3-0.7,0.2-1.5,0.4-2.2c0,0,0.1,0.1,0.1,0
							c-0.1-0.6,0.4-0.8,0.1-1.1h0.1c0.2-1.5,0.5-3,0.9-4.5c0-0.3,0-0.7,0-1l0.1-0.6v-0.3c0-0.1,0.1-0.2-0.1-0.2
							c-0.9-0.1-1.5-0.1-2.2-0.1v-0.1c-0.8,0-1.7,0-2.6-0.1l0,0c-0.8,0.6-1.3,1.3-1.8,2c-0.4,0.6-0.6,1.1-1,1.7h-0.1
							c-0.3,1.2-1.5,2.1-1.8,3.4l-0.1-0.1c0.1,0.3-0.4,0.7-0.1,0.7l-0.2,0.2c0,1-0.9,1.4-1.1,2.4v-0.1c-0.1,0.3-0.2,0.6-0.3,0.8
							c0,0,0,0,0-0.1c-0.6,0.7-0.8,1.7-1.1,2.6l-0.1-0.1c0,0.5-0.5,1.2-0.7,1.8v-0.1v0.3h-0.1C85.7,116.3,85.5,117,85.2,117.7z"/>
					</g>
				</g>
			</g>
		</g>
	</g>
	<g>
		<path class="st2" d="M78.3,135.5c0,0,11.8-31.9,16.2-35.2l0,0c-5-0.5-12.5-1.6-13.6-3.1c0,0-1.2-0.8-2.7,2
			c-1.4,2.7-10.9,27.5-11.8,29.7c-0.9,2.2-2.2,3.5,0,4.8C68,134.4,73.1,135.4,78.3,135.5L78.3,135.5z"/>
		<g>
			<g>
				<g>
					<g>
						<polygon class="st5" points="77.6,135.5 77.6,135.5 77.6,135.5 78.3,134.8 78.3,134.8 78.3,134.8 78.3,134.8 78.3,134.8 
							78.3,134.8 78.2,134.8 78.1,134.9 78.2,134.8 78.2,134.8 78.3,134.8 78.3,134.8 78.3,134.8 78.3,134.8 78.3,134.8 78.3,134.8 
							77.6,135.5 						"/>
						<path class="st5" d="M77.4,135C77.5,135,77.5,135.1,77.4,135l0.5-0.2C77.8,134.6,77.6,135.1,77.4,135z"/>
						<path class="st5" d="M77.3,135c-0.2-0.1-0.3,0.1-0.3,0.1C77,135,77.3,135.1,77.3,135z"/>
						<path class="st5" d="M68.3,124.1L68.3,124.1c-0.2,0.8-0.7,1.6-1,2.4v-0.1c-0.4,1-0.8,2.1-1.2,3.1c-0.2,0.5-0.4,1-0.6,1.5
							c-0.2,0.5-0.3,1.1-0.1,1.6c0,0-0.1,0-0.1-0.1c0.1,0.1,0.2,0.2,0.2,0.2h-0.1c0,0.3,0.3,0.5,0.6,0.6s0.6,0.2,0.7,0.4
							c0.1,0,0.2,0,0.2-0.1c1.6,0.6,3.5,0.9,5.2,1c0.1,0,0.1,0.1,0.1,0.1c1.5-0.1,3.1,0.2,4.6,0.3c0.1-0.1-0.2-0.1,0-0.2
							c-0.5-0.1-0.9,0.1-1.3,0l0.1-0.1c-0.3-0.1-0.1,0.2-0.4,0.1c-0.1-0.1,0-0.1,0-0.1c-0.7,0-1.4-0.2-2.1-0.1
							c-0.1-0.2-0.7-0.1-1-0.3c-0.2,0-0.4,0-0.4,0.1c-1.2-0.2-2.4-0.4-3.6-0.8c-0.6-0.2-1.2-0.3-1.6-0.6c-0.5-0.3-0.8-0.7-0.8-1.1
							c-0.1-0.5,0.2-1.1,0.5-1.7c0.3-0.6,0.7-1.2,0.9-1.9l0,0c0.1-0.5,0.3-1.1,0.5-1.6v-0.5c1.4-2.9,2.5-6.1,3.8-9.2
							c1.4-3.5,2.8-6.5,3.8-10c0,0,0.1,0,0,0.1c0.3-1,0.8-1.9,1.1-2.8l0,0c0.3-1.2,0.8-2.4,1.3-3.5c0.5-1.2,1-2.3,1.7-3.2
							c0.3-0.2,0.6-0.4,0.9-0.5c0.2,0,0.3,0,0.5,0s0.2,0.2,0.4,0.3c0.6,0.5,1.4,0.7,2.1,1c1.5,0.4,3.1,0.7,4.6,0.9v0.1
							c2.2,0.3,4.4,0.8,6.6,1l-0.1-0.4c-0.2,0.1-0.3,0.3-0.5,0.4c-0.9,0.9-1.5,2.1-2.1,3.2c-0.6,1.2-1.1,2.4-1.8,3.4
							c-1,1.3-1.3,3.4-2.2,4.6c-1.7,2.6-2.6,5.4-3.5,8.3c-1.2,2.5-1.9,5.3-3.2,7.7c-0.3,1.3-1.2,2.4-1.7,3.8h0.1
							c-0.4,0.4-0.1,1.2-0.5,1.4v-0.1c-0.3,0.2,0.2,0.7-0.1,0.8l0.1,0.1c-0.1,0.3-0.1,0-0.2,0.2c0,0.1,0.1,0.1,0,0.3
							c-0.4-0.1-0.2,0.8-0.6,0.7c0.1-0.2-0.2,0.2-0.2-0.2c-0.1,0.1-0.3,0.6-0.1,0.6c0.2,0.1,0.2,0.4,0.5,0.1l-0.1-0.1
							c0.2-0.1,0.1-0.1,0.2-0.1c0.2-0.4,0.4-0.4,0.6-0.7l0,0c-0.1-0.3,0.1-0.5,0.2-0.7h0.1c0.2,0-0.1-0.6,0.1-0.4
							c0.3-0.9,0.6-1.8,1-2.7c0-0.2,0.3-0.7,0-0.6c0.3-0.2,0.6-0.8,0.7-1.1c0,0,0,0,0,0.1c0.5-0.4,0-0.7,0.5-1
							c-0.2-0.2,0.4-0.8,0.2-1.2c0.1,0,0.1,0,0.2,0c0.3-0.8,0.8-1.7,1.1-2.4c0-0.7,0.7-1.4,0.6-2c0.2-0.4,0.6-1,0.8-1.7v0.1
							c0.3-0.7,0.6-1.5,0.6-2.1c0.3-0.1,0.4-0.4,0.6-0.7c0.1-0.5,0.5-1.4,0.7-2.1c0.2-0.1,0.2-0.6,0.4-0.5c0.5-2.1,1.7-4.3,2.9-6.2
							l0,0c0-0.3,0-0.7,0-1c0,0,0.1,0,0,0.1c0.1-0.4,0.5-0.6,0.6-1c0,0,0,0,0,0.1c0.1-0.4,0.5-0.6,0.6-1.1H91l0.1-0.3
							c0.1,0,0.1,0.1,0,0.2c0.6-1,1.1-2,1.7-3c0.6-1,1.2-2,2-2.7l-0.6-0.3l0.4-0.4c-1.2-0.1-2.4-0.2-3.6-0.4h0.1h-0.7
							c0,0,0,0,0.1-0.1c-0.9-0.2-1.8-0.2-2.6-0.4c0,0,0.1-0.1,0-0.1c-0.7,0.1-1-0.4-1.3-0.1v-0.1c-0.9-0.1-1.8-0.3-2.6-0.5
							s-1.7-0.5-2.4-1c-0.1,0-0.2-0.1-0.2-0.1c-0.1,0-0.1-0.1-0.2-0.2c-0.2-0.2-0.5-0.2-0.7-0.2c-0.5,0.1-0.8,0.3-1.2,0.6
							c-0.6,0.6-1,1.3-1.3,2.1h-0.1c-0.6,1.9-1.6,3.8-2.4,5.7c-0.3,0.8-0.5,1.4-0.8,2.2h-0.1c-0.2,1.5-1.4,2.7-1.6,4.3l-0.1-0.1
							c0.1,0.3-0.4,0.8-0.1,0.9l-0.2,0.2c0,1.1-0.8,1.7-1.1,3v-0.1c-0.1,0.3-0.2,0.7-0.3,0.9c0,0,0,0,0-0.1
							c-0.6,0.9-0.8,2.1-1.2,3.1l-0.1-0.2c-0.1,0.6-0.5,1.4-0.7,2.1v-0.1v0.4h-0.1C68.8,122.4,68.6,123.2,68.3,124.1z"/>
					</g>
				</g>
			</g>
		</g>
	</g>
</g>
</svg>
