<?xml version="1.0" encoding="utf-8"?>
<!-- Generator: Adobe Illustrator 23.0.1, SVG Export Plug-In . SVG Version: 6.00 Build 0)  -->
<svg version="1.1" id="Layer_1" xmlns="http://www.w3.org/2000/svg" xmlns:xlink="http://www.w3.org/1999/xlink" x="0px" y="0px"
	 viewBox="0 0 200 170" style="enable-background:new 0 0 200 170;" xml:space="preserve">
<style type="text/css">
	.st0{fill:#EAB9C5;}
	.st1{fill:#D97294;}
	.st2{fill:#F5E1E5;}
	.st3{fill:#F8E9EC;}
	.st4{fill:#E299AD;}
	.st5{fill:#D45D85;}
	.st6{fill:#FDF8F9;}
	.st7{fill:#F3DADF;}
	.st8{fill:none;}
	.st9{fill:none;stroke:#B5DFCC;stroke-width:2;stroke-linecap:round;stroke-linejoin:round;stroke-miterlimit:10;}
	.st10{fill:#DB7C99;}
	.st11{fill:#FAF0F2;}
	.st12{fill:#F6E5E8;}
	.st13{fill:#DA7194;}
	.st14{fill:#F3A169;}
	.st15{fill:none;stroke:#EBB1C5;stroke-miterlimit:10;}
	.st16{fill:#0075C2;}
</style>
<g>
	<g>
		<path class="st0" d="M181.8,27c-4-0.4-63.4-5.6-76.3-6.4C95.9,20,84.6,19.4,77,22.5c-9,3.6-58.4,22.8-58.4,22.8
			c24.8,2.4,80.1,7.7,90.7,8.9c12,1.3,16-0.6,20.9-2.2C133.9,50.7,164.6,35,181.8,27z"/>
		<g>
			<g>
				<g>
					<g>
						<polygon class="st4" points="181.2,25.8 181,25.8 180.8,26.2 						"/>
						<path class="st4" d="M178.9,27.4c0.1,0,0.1,0.1,0.2,0.1l1.2-1.2C179.5,26.2,179.5,27.4,178.9,27.4z"/>
						<path class="st4" d="M178.5,27.5c-0.6,0.1-0.7,0.5-0.8,0.6C177.8,27.9,178.7,27.7,178.5,27.5z"/>
						<path class="st4" d="M129.6,51.3c0.1,0,0.1-0.1,0.2-0.1C129.6,51.3,129.6,51.3,129.6,51.3z"/>
						<path class="st4" d="M115.9,54.7l-0.2,0.2c1.3-0.2,2.8-0.2,4.2-0.3c1.4-0.1,2.9-0.3,4.3-0.6l-0.2,0.1c1.8-0.4,3.4-0.9,5.1-1.5
							c1.6-0.5,3.2-1.3,4.7-2.1c3-1.5,6-3.2,9.2-4.8c-0.1,0.1-0.1,0.1-0.2,0.2c0.3-0.2,0.5-0.5,0.9-0.7c0.1,0-0.1,0.1-0.2,0.2
							c1.5-0.3,3.8-2.1,4.8-2.3c0.4-0.2,0.5-0.4,0.2-0.4c4.9-2.5,10.2-5.2,15.1-8c0.3-0.1,0.4,0,0.3,0.1c4.1-2.7,8.7-4.7,13.2-6.7
							c0.1-0.2-0.5,0.1-0.2-0.3c-1.5,0.5-2.5,1.6-3.9,2l0.1-0.2c-1,0.4,0,0.4-1.1,0.7c-0.4,0.1,0-0.2-0.2-0.1c-2,1-4.1,1.9-5.8,3.2
							c-0.6-0.1-2.1,1-3,1.1c-0.5,0.4-1,0.6-1.1,0.9c-7.1,3.3-14,7.1-21.2,10.6c-1.5,1.1-3.4,2-5.3,2.8c-2,0.8-4,1.7-6,2.5
							c0,0,0,0,0-0.1c-1.3,0.6-3.3,1.4-4.9,1.7c-0.4,0.2-0.9,0.4-1.3,0.6c-5.1,0.7-10.3,0.2-15.5-0.3s-10.5-1-15.7-1.6
							c-11.9-1.3-22.3-2.8-33.9-3.1c0-0.1-0.1-0.1,0.2-0.1c-3.4-0.2-6.4-0.7-9.5-0.9v-0.1c-7.9-0.2-16.3-1.7-23.9-1.8
							C24,45.5,23,45.4,22,45.3c-0.7-0.1-1.5-0.2-2.3-0.2c-0.2,0,0,0,0.1-0.1l0.3-0.1c0.2-0.1,0.4-0.2,0.6-0.2
							c0.4-0.2,0.8-0.3,1.2-0.5c2.8-1.1,5.8-2.3,8.8-3.5c3.1-1.3,6.3-2.6,9.4-3.8V37c7.2-3.1,14.4-5.2,21.6-8.2
							c3.8-1.3,7.6-3,11.3-4.7c1.9-0.8,3.8-1.7,5.7-2.4c2-0.6,4-1,6-1.2c5-0.1,11.5-1.2,16.2-0.3c4.8,0.7,9.5,1.3,14.2,1.6
							s9.5,0.4,14.3,0.5c8.8,1.1,17.8,1,26.3,2.4c4.1-0.1,8.5,1.3,13,1.5l-0.1-0.2c1.6,0.6,3.7-0.4,4.6,0.4H173
							c0.8,0.4,2.1-0.7,2.6-0.2l0.2-0.2c1,0,0.1,0.2,0.9,0.3c0.3,0,0.1-0.3,0.8-0.2c0.1,0.7,2.6,0.1,2.6,0.9c-0.6,0,0.9,0.4-0.4,0.4
							c0.4,0.1,2.1,0.2,2-0.1c0.2-0.3,0.9-0.6-0.1-1l-0.2,0.2c-0.3-0.3-0.3-0.2-0.4-0.4c-1.4-0.2-1.5-0.6-2.5-0.8l0,0
							c-0.7,0.3-1.6,0-2.2-0.1l-0.2-0.2c-0.3-0.3-1.6,0.5-1.2,0c-2.8-0.1-6.1-0.4-9.2-0.6c-0.5,0.2-2.4-0.2-1.8,0.2
							c-0.8-0.5-3.1-0.8-4-0.9c0,0,0.1-0.1,0.2-0.1c-1.6-0.7-2,0.4-3.6-0.5c-0.3,0.5-2.9-0.4-3.8,0.1c-0.2-0.1-0.2-0.2-0.2-0.3
							c-2.8-0.3-6-0.7-8.4-0.9c-2.1,0.3-5-0.6-6.8-0.2c-1.5-0.3-3.8-0.7-5.9-0.6l0.2-0.1c-2.3-0.2-5.2-0.4-6.8-0.1
							c-0.6-0.6-1.6-0.6-2.6-0.9c-1.6,0.1-4.7-0.2-7-0.2c-0.3-0.3-1.9-0.1-2-0.4c-6.6,0.2-14.8-0.8-21.9-1.2h0.1
							c-0.9,0.2-2,0.7-2.9,1.1c-0.1,0-0.1-0.1,0.1-0.1c-1.3,0.2-2.5-0.1-3.8,0.1c0-0.1,0-0.1,0.2-0.2c-1.2,0.3-2.6,0-4,0.7l-0.1-0.1
							L80,20.2c0-0.1,0-0.3,0.5-0.4c-1.4,0.3-2.8,0.7-4.1,1.3c-1.3,0.5-2.6,1-3.9,1.6c-2.6,1.1-5.2,2.2-7.8,3.2
							c-5.2,2.2-10.5,4.4-15.8,6.4l0.3-0.3l-2,1c0-0.1,0.1-0.1,0.2-0.2c-2.7,0.8-5.3,2.2-7.8,3.2c0-0.1,0.3-0.3-0.1-0.3
							c-1.8,1.1-3.2,0.8-3.9,1.8c-0.1,0-0.2-0.1,0-0.3c-2.4,1-4.8,2-7.2,3l-3.6,1.4c-1.7,0.6-3.4,1.3-5,1.9l-0.7,0.6
							c-0.1,0.2-0.2,0.3-0.4,0.4c0,0.1-0.3,0.2-0.1,0.2l0.4,0.1c0.5,0.2,1.1,0.3,1.7,0.4c1.1,0.1,2.3,0.2,3.4,0.3
							c0.9,0.1,1.8,0.2,2.7,0.3c1.8,0.2,3.5,0.3,5.2,0.3v0.1c6.4,0.2,13,1.3,19.6,1.9c2.7,0.3,4.6,0.3,7.3,0.6l0.1,0.2
							c4.7-0.2,9.6,1.5,14.5,1.3l-0.4,0.2c0.8-0.3,2.9,0.4,2.7-0.2l0.8,0.3c3.3-0.5,5.9,0.9,10,0.8l-0.3,0.1c1.1,0,2.3,0,3.1,0.2
							c-0.1,0-0.1,0.1-0.3,0.1c3.3,0.9,7.1,0.6,10.6,1l-0.4,0.2c1.7-0.1,4.8,0.5,7.1,0.5l-0.1,0.1l1.1-0.1v0.2
							C110.3,54.6,113,54.7,115.9,54.7z"/>
						<path class="st4" d="M143.6,45.5C143.6,45.5,143.5,45.5,143.6,45.5C143.5,45.6,143.5,45.5,143.6,45.5z"/>
						<path class="st4" d="M178.1,25.6c0.1,0,0.2,0.1,0.4,0.1C178.4,25.6,178.2,25.6,178.1,25.6z"/>
					</g>
				</g>
			</g>
		</g>
	</g>
	<g>
		<path class="st3" d="M197.5,29.8c0,0-2,61-3.3,69.9c-1,6.6-7,12.2-16.1,19.9c-8.1,6.9-35.4,27.7-42.2,32.1
			c-6.8,4.5-14.4,4.7-19.5,4.5c-6.6-0.4-83.3-11.7-92.6-11.7s-11.5-8.8-12.3-18.3S4.3,53,4.3,53s98,9.1,105.4,9.3
			c7.8,0.3,14.4,0.3,24.4-3.8C146,53.7,197.5,29.8,197.5,29.8z"/>
		<g>
			<g>
				<g>
					<g>
						<path class="st4" d="M198.7,29.1c-0.2-0.1-0.4-0.3-0.8-0.5c-0.5-0.1-1.1,0-1.4,0.2c-0.1,0.1-0.1,0.1-0.1,0.1l-0.1,0.1
							l-0.1,0.1c0.2-0.1,0.1-0.1,0.8-0.4c0.3-0.1,0.7-0.1,1,0C198.3,28.8,198.5,29,198.7,29.1z"/>
						<path class="st4" d="M193.1,30.9c0.1,0,0.1,0.1,0.2,0l2.2-1.7C194.2,29.5,193.9,30.7,193.1,30.9z"/>
						<path class="st4" d="M192.3,31.1c-1,0.3-1.3,0.7-1.4,0.9C191.1,31.7,192.7,31.3,192.3,31.1z"/>
						<path class="st5" d="M84.7,60.4l-0.3,0.2c4.4,0,9.4,0.8,14,1l-0.3,0.1c5.9,0.5,11.6,1,17.3,0.9c2.8-0.1,5.7-0.4,8.5-0.9
							c2.8-0.6,5.6-1.4,8.3-2.5c-0.2,0.1-0.2,0.2-0.4,0.3c0.5-0.3,1-0.6,1.6-0.8c0.2,0-0.1,0.2-0.3,0.3c2.4-0.6,6.6-3.1,8.1-3.4
							c0.6-0.3,0.8-0.6,0.4-0.5c8.4-3.8,17.3-8,25.7-12.1c0.4-0.1,0.5-0.1,0.5,0.1c7-3.9,14.8-7.2,22.2-10.5
							c0.2-0.3-0.8,0.2-0.2-0.3c-2.5,0.9-4.2,2.4-6.5,3.1l0.2-0.3c-1.6,0.6-0.2,0.5-1.9,1.1c-0.7,0.2,0.1-0.2-0.2-0.1
							c-3.3,1.6-6.9,3.1-9.9,4.9c-0.9,0.1-3.6,1.6-5,1.9c-0.8,0.5-1.7,0.9-1.9,1.2c-5.9,2.6-11.8,5.4-17.8,8.1c-3,1.4-6,2.8-9,4.1
							s-6,2.7-9.1,3.6c-2.8,1.2-6.2,1.9-9.7,2c-3.5,0.2-7.2-0.1-10.8-0.2c0,0,0,0,0-0.1c-2.4,0-5.9-0.2-8.7-0.5l-2.4,0.1
							c-17.1-2-34.7-3.2-52.1-5c-9.9-1-19.2-1.9-28.4-2.9c-2.3-0.2-4.6-0.4-6.9-0.6c-1.2-0.1-2.3-0.2-3.5-0.3l-2.8-0.2
							c-0.4-0.1-0.2,0.3-0.2,0.5l0.1,0.7l0.2,1.5c0.3,2.3,0.6,4.7,0.9,7.1c0.3,2.3,0.6,4.7,1,7.1c-0.1,0-0.1,0.1-0.2-0.4
							c0.7,5.5,1,10.6,1.6,15.9H6.7c1.8,12.9,2.6,27.1,4.4,39.5c0.2,1.9,0.3,3.9,0.6,5.8c0.3,2,0.6,3.9,1.2,5.9
							c0.6,1.9,1.4,3.9,2.7,5.5s3.1,2.9,5.2,3.3c0.5,0.1,1,0.2,1.6,0.3L24,145c1,0.1,2.1,0.1,3.1,0.2c2.1,0.2,4.1,0.4,6.2,0.6
							c4.1,0.4,8.2,0.9,12.2,1.4l-0.1,0.1c12.9,1.4,25.3,3.8,38.1,5.3c6.6,1,13.4,1.8,20.2,2.5c6.8,0.6,13.7,1.9,20.4,1.2
							c2.1-0.1,4.3-0.6,6.5-1.4s4.3-2,6.2-3.5c3.8-2.8,7.4-5.8,10.8-7.8c6.7-4.4,13.1-9.1,19.2-14.1c6.2-4.9,12.2-10.1,17.9-15.8
							c2.7-2.5,5.3-5.1,7.2-8.3c0.9-1.6,1.6-3.3,1.9-5.1c0.3-1.8,0.4-3.6,0.5-5.5c0.4-7.3,0.7-14.6,1.4-21.7
							c-0.1-6.8,1.2-14.2,1.3-21.8l-0.2,0.3c0.6-2.7-0.4-6.1,0.3-7.7v0.3c0.4-1.4-0.7-3.4-0.3-4.2l-0.2-0.2c0-1.7,0.2-0.2,0.3-1.5
							c0-0.5-0.3-0.2-0.2-1.3c0.7-0.2,0-4.3,0.8-4.4c0,1,0.4-1.5,0.5,0.7c0.1-0.6,0.2-3.5-0.2-3.3c-0.4-0.3-0.6-1.4-1,0.4l0.3,0.4
							c-0.3,0.6-0.1,0.4-0.4,0.7c-0.1,2.3-0.5,2.6-0.7,4.3l0,0c0.3,1.1,0,2.7,0,3.6l-0.2,0.4c-0.3,0.5,0.5,2.7,0,1.9
							c0,4.7-0.2,10.1-0.4,15.3c0.2,0.7-0.2,4,0.3,2.9c-0.5,1.3-0.8,5.2-0.8,6.6c0-0.1-0.1-0.1-0.1-0.3c-0.7,2.8,0.4,3.4-0.4,6
							c0.5,0.4-0.4,4.8,0.1,6.3c-0.1,0.3-0.2,0.4-0.3,0.3c-0.2,4.7-0.7,10-1,14c0.1,1.7-0.1,3.8-0.3,5.7c-0.1,0.5-0.1,1-0.2,1.4
							s-0.1,0.9-0.3,1.3c-0.2,0.8-0.4,1.6-0.6,2.3c-1,2.1-3.5,4.9-5.7,7.5l0.2-0.3c-2.6,2.8-6.2,5.9-8,7.9c-1.2,0.3-2.4,1.5-3.8,2.4
							c-1.8,1.8-5.9,5-8.9,7.6c-0.6,0.2-2.5,2.1-2.9,1.9c-4.1,3.7-8.9,7.5-14,11.2c-2.5,1.9-5.1,3.7-7.6,5.4
							c-1.3,0.9-2.6,1.7-3.8,2.5c-1.3,0.8-2.5,1.6-3.7,2.2l0.1-0.1c-1.1,0.9-2.5,2-3.8,2.8c-0.2,0-0.2,0,0.1-0.2c-2,0.8-4,0.9-6,1.2
							c0-0.1,0-0.1,0.3-0.2c-1.9,0.5-4,0.1-6.4,0.4l-0.1-0.1c-0.5,0-1,0.1-1.5,0.1c0-0.1,0.1-0.3,0.9-0.2c-1.1,0-2.2-0.2-3.4-0.3
							c-1.1-0.1-2.3-0.3-3.4-0.4c-2.3-0.3-4.6-0.6-6.9-0.9c-4.6-0.6-9.3-1.1-14-1.7c-9.4-1.1-18.8-2.3-28.1-3.6h0.7l-3.7-0.3
							c0-0.1,0.2-0.1,0.4-0.1c-4.6-0.8-9.5-1.1-14-1.7c0-0.1,0.7-0.1,0.1-0.2c-3.4-0.1-5.3-1.1-7.1-0.6c-0.2-0.1-0.2-0.2,0.1-0.2
							c-4.7-0.4-9.4-1-14.2-1.2c-2.3,0-4.5-0.5-6.3-1.9s-2.8-3.5-3.6-5.6c-1.6-3.5-2-7.7-2.4-11.9c-0.4-4.2-0.8-8.4-1.5-12.5H10
							c-1.5-10.5-2.1-21.7-3.3-32.6c-0.4-4.5-0.9-7.6-1.3-12.1l0.2-0.1c-0.7-3.8-0.9-7.8-1.2-11.9l-0.1-1.3c0-0.2,0-0.4,0-0.6
							l0.6,0.1c0.7,0.1,1.9,0.2,2.8,0.3c2,0.2,4.1,0.3,6.1,0.3l-0.6,0.2c1.3-0.2,4.8,0.6,4.4-0.1l1.4,0.3c5.5-0.3,9.9,1.3,16.6,1.4
							l-0.5,0.1c1.8,0.1,3.9,0.2,5.2,0.4c-0.2,0-0.1,0.1-0.5,0c5.5,1.1,11.7,1,17.6,1.6l-0.7,0.2c2.9,0,8,0.7,11.8,0.9l-0.2,0.1h1.9
							v0.2C75.4,59.8,80,60,84.7,60.4z"/>
						<path class="st4" d="M133.2,58.8C133.2,58.8,133.1,58.8,133.2,58.8C133,58.9,133.1,58.9,133.2,58.8z"/>
						<path class="st4" d="M196.2,36c0-0.2,0-0.4,0.1-0.6C196.2,35.5,196.2,35.8,196.2,36z"/>
					</g>
				</g>
			</g>
		</g>
	</g>
	<g>
		<path class="st7" d="M6.6,44.1c0,0,59.4-24.2,69.4-27.7c9.7-3.4,19.1-2.4,30-2.1c7.9,0.2,72,7,87.1,8.1L182,27
			c0,0-63.1-5.6-76.5-6.4C95.9,20,84.6,19.4,77,22.5c-9,3.6-58.4,22.8-58.4,22.8L6.6,44.1z"/>
		<g>
			<g>
				<g>
					<g>
						<polygon class="st4" points="6.4,45.4 6.6,45.5 7.1,45.4 						"/>
						<path class="st4" d="M9.6,45.3c-0.1,0,0-0.1-0.1-0.2l-1.9,0.4C8.4,46,9.1,45,9.6,45.3z"/>
						<path class="st4" d="M10.1,45.4c0.7,0.2,1,0,1.2-0.1C11,45.5,10,45.1,10.1,45.4z"/>
						<path class="st4" d="M68.9,26.5c-0.1,0-0.1,0.1-0.2,0.1C68.8,26.5,68.9,26.5,68.9,26.5z"/>
						<path class="st5" d="M84,20.5l0.1-0.2c-1.5,0.4-3.1,0.7-4.7,1.1c-1.6,0.4-3.2,1-4.6,1.7l0.2-0.2c-7.6,2.9-14.4,5.9-21.9,9
							c0.1-0.1,0.1-0.1,0.2-0.2c-0.3,0.2-0.7,0.5-1.1,0.6c-0.1,0,0.1-0.1,0.2-0.2c-1.7,0.3-4.6,2-5.7,2.2c-0.4,0.2-0.6,0.4-0.3,0.4
							c-5.8,2.4-12.1,4.9-18,7.5c-0.3,0.1-0.4,0-0.4-0.2c-2.4,1.3-5,2.4-7.7,3.4l-1,0.4l-0.7,0.3c-0.3,0-0.6-0.1-0.8-0.1l-2.1-0.2
							c-1.4-0.2-2.8-0.3-4.2-0.5c-0.2,0.1,0.6,0.2,0,0.3c1.8,0.4,3.3-0.1,4.9,0.4l-0.2,0.1c1.2,0.2,0.3-0.4,1.5,0
							c0.5,0.2-0.1,0.2,0.1,0.2l0.7,0.1c0.2,0,0.3-0.1,0.4-0.1l0.3-0.1l0.9-0.4c0.6-0.2,1.2-0.5,1.8-0.7c1.2-0.5,2.3-1,3.4-1.6
							c0.7,0.1,2.5-1,3.5-1c0.6-0.4,1.2-0.6,1.3-0.9c8.3-3.1,16.6-6.7,25.1-9.9c3.7-2.1,8.7-3.3,13.4-5.3c0,0,0,0,0,0.1
							c1.5-0.7,3.7-1.7,5.5-2.3l1.4-0.9c1.4-0.5,2.8-0.9,4.2-1.3c1.4-0.3,2.9-0.6,4.3-0.7c2.9-0.4,5.9-0.5,8.9-0.5
							c5.9,0,12,0.4,17.9,1c13.6,1.3,25.4,2.8,38.7,3c0,0.1,0.1,0.1-0.3,0.1c3.8,0.2,7.3,0.7,10.9,0.9v0.1c4.5,0.1,9.1,0.5,13.7,0.9
							c2.3,0.2,4.6,0.4,6.8,0.6l0.9,0.1c0.2,0,0.4-0.1,0.5-0.2l0.4-0.2c0.5-0.2,1-0.5,1.5-0.7c1-0.5,2-0.9,3-1.4
							c1.1-0.4,2.2-0.9,3.5-1.4c0.7-0.3,1.4-0.7,2.1-1.1c0.2-0.1,0-0.1-0.1-0.1l-0.3-0.1c-0.2,0-0.4-0.1-0.6-0.1
							c-0.4-0.1-0.9-0.1-1.3-0.2c-7.9-0.7-16.5-1.4-24.7-2.2v-0.1c-8.9-0.6-17.4-2.1-26.2-2.8c-9.1-1.2-18.8-1.1-27.9-2.3
							c-1.4-0.3-2.9-0.4-4.5-0.5s-3.2,0-4.9,0c-3.3,0-6.5,0.1-9.1-0.3c-5.5-0.5-11.1-0.2-16.3,1.6c-2.6,0.9-5,2-7.5,3.1
							s-5,2.3-7.5,3.4c-9.6,3.4-18.6,8-28,11c-4.1,2.2-9.3,3.2-14,5.2l0.2,0.1c-1.9,0.3-3.6,2.2-4.9,2l0.2-0.1c-1,0-1.8,1.6-2.5,1.5
							l-0.1,0.2c-1.1,0.5-0.2-0.1-1.1,0.1c-0.3,0.2,0,0.3-0.7,0.5c-0.4-0.6-2.6,1.2-3,0.5c0.6-0.2-1.1,0.1,0.2-0.6
							c-0.4,0.1-2.3,0.9-2,1.1c0,0.4-0.6,1,0.6,0.8l0.1-0.3c0.5,0.1,0.3,0,0.5,0.1c1.5-0.6,1.8-0.3,2.9-0.6l0,0
							c0.6-0.6,1.7-0.8,2.3-1h0.3c0.5,0.1,1.4-1.2,1.2-0.6c2.9-1.3,6.4-2.7,9.7-4.1c0.4-0.4,2.6-1,1.7-1.1c1,0.1,3.5-0.8,4.4-1.2
							c0,0.1,0,0.1-0.2,0.2c2-0.2,1.9-1.4,3.9-1.4c0.1-0.6,3.1-1.1,3.8-2c0.2,0,0.4,0.1,0.3,0.2c3-1.2,6.4-2.4,9-3.4
							c2-1.3,5.4-1.9,7-3.2c1.6-0.5,4.2-1.3,6.3-2.4l-0.2,0.2c2.4-1,5.5-2.3,7-3.3c0.9,0.3,2-0.3,3.1-0.5c1.5-0.9,4.9-2.1,7.3-3.2
							c0.4,0.1,2.1-0.7,2.3-0.4c3.5-1.3,7.6-1.8,11.9-1.8c4.2,0,8.6,0.5,12.6,0.9h-0.1c1.1-0.2,2.3-0.6,3.3-0.8
							c0.1,0,0.1,0.1-0.1,0.1c1.5,0,2.8,0.5,4.3,0.6c0,0.1,0,0.1-0.3,0.1c1.4-0.1,2.8,0.5,4.5,0.4l0.1,0.1h1c0,0.1-0.1,0.3-0.6,0.2
							c12.6,1.3,25.6,1.9,38.5,3.3l-0.5,0.1h2.5c0,0.1-0.1,0.1-0.3,0.1c3.2,0.5,6.5,0.5,9.6,0.9c0,0.1-0.5,0.1-0.1,0.2
							c2.3-0.1,3.7,0.8,4.9,0.2c0.1,0,0.2,0.2-0.1,0.2c3.2,0.2,6.4,0.4,9.6,0.7l4.8,0.5l2.2,0.2l1.1,0.1h0.1c0.3,0,0.7,0,1.1,0h0.6
							h0.3h0.2h0.1c-0.3,0.2-0.9,0.4-1.5,0.7s-1.2,0.5-1.9,0.8l-2.6,1.1c-0.9,0.4-1.8,0.8-2.6,1.1c-0.2,0.1-0.3,0.2-0.5,0.2h-0.7
							c-0.5,0-0.9,0-1.4,0v-0.1c-7.3-0.2-14.9-1.3-22.4-1.8c-3.1-0.3-5.2-0.3-8.3-0.6l-0.1-0.2c-5.3,0.2-11-1.5-16.6-1.3l0.4-0.2
							c-0.9,0.3-3.3-0.4-3,0.2l-1-0.3c-3.8,0.5-6.8-0.9-11.4-0.8l0.3-0.1c-1.2,0-2.6,0-3.5-0.2c0.1,0,0.1-0.1,0.4-0.1
							c-1.9-0.4-3.9-0.6-5.9-0.7c-2-0.1-4.1-0.1-6.1-0.2l0.5-0.2c-2,0.2-5.5-0.3-8.1-0.2l0.2-0.1l-1.3,0.2v-0.2
							C90.3,19.7,87.2,20,84,20.5z"/>
						<path class="st4" d="M52.5,32.2L52.5,32.2C52.6,32.1,52.5,32.2,52.5,32.2z"/>
						<path class="st4" d="M11,43.5c-0.1,0-0.3,0.1-0.4,0.1C10.6,43.7,10.9,43.6,11,43.5z"/>
					</g>
				</g>
			</g>
		</g>
	</g>
	<g>
		<g>
			<g>
				<g>
					<g>
						<polygon class="st4" points="191.6,104.8 191.6,104.8 191.3,105 						"/>
						<path class="st4" d="M190.1,105.2c0,0,0,0.1,0.1,0.1l0.9-0.5C190.7,104.4,190.3,105.4,190.1,105.2z"/>
						<path class="st4" d="M189.9,105.1c-0.3-0.2-0.5,0.1-0.6,0.2C189.4,105.1,189.9,105.4,189.9,105.1z"/>
						<path class="st4" d="M159.7,102.7h0.1C159.8,102.6,159.7,102.6,159.7,102.7z"/>
						<path class="st5" d="M151.8,102.9l-0.1,0.2c1.5-0.3,3.1,0.3,4.7,0.2l-0.1,0.1c3.9,0.4,7.6,0.4,11.5,0.5
							c-0.1,0-0.1,0.1-0.2,0.1c0.2-0.1,0.4-0.2,0.6-0.1c0.1,0.1-0.1,0.1-0.1,0.1c0.8,0.4,2.4,0,2.9,0.3c0.2,0,0.4-0.2,0.2-0.3
							c3.1,0.2,6.3,0.4,9.5,0.4c0.1,0.1,0.2,0.2,0.1,0.3c2.7-0.4,5.5,0.1,8.2,0.4c0.1-0.1-0.3-0.2,0-0.3c-0.9-0.3-1.6,0.2-2.4-0.1
							l0.1-0.1c-0.6-0.1-0.1,0.4-0.7,0.1c-0.2-0.1,0.1-0.2,0-0.2c-1.2,0-2.5-0.3-3.7,0c-0.3-0.4-1.3-0.1-1.7-0.5
							c-0.3,0.1-0.6,0-0.8,0.2c-4.3-0.5-8.7-0.6-13.1-1c-2.1,0.5-4.5-0.5-7-0.5c0,0,0,0,0-0.1c-0.8,0.1-2,0.1-2.9-0.1l-0.8,0.2
							c-5.7-1-11.6-1.2-17.4-1.9c-6.6-0.7-12.3-1.7-18.9-1.4c0-0.1,0-0.1,0.1-0.1c-1.9,0-3.5-0.4-5.3-0.4v-0.1
							c-4.4,0.2-9-0.8-13.3-0.6c-1.1-0.1-2.2-0.2-3.4-0.3c-1.2-0.1-2.4-0.2-3.7-0.3c-1.3,0.7-2.7,1.5-4.1,2.2
							c-1.3,0.8-2.7,1.5-4,2.3V102c-3.7,2.3-7.7,3.7-11.4,5.9c-4.1,1.8-7.7,4.9-11.9,6.7c-2.7,0.8-5.3,3.6-7.9,4.3
							c-5.2,1.7-9.5,4.7-13.9,7.7c-4.5,2-8.4,5.1-13,6.7c-1.8,1.5-4.5,1.8-6.6,3.1l0.2,0.1c-1,0-1.5,1.5-2.3,1.2l0.1-0.1
							c-0.6-0.1-0.6,1.3-1,1v0.2c-0.5,0.3-0.2-0.1-0.6,0c-0.1,0.1,0.1,0.3-0.3,0.4c-0.4-0.6-1.2,0.8-1.6,0.1c0.3-0.1-0.6,0,0-0.5
							c-0.2,0-1.1,0.5-0.8,0.8c0.1,0.4-0.1,0.8,0.6,0.8v-0.3c0.3,0.1,0.2,0,0.4,0.2c0.7-0.3,1,0,1.5-0.2l0,0c0.2-0.5,0.7-0.5,1-0.6
							l0.2,0.1c0.3,0.2,0.5-0.9,0.5-0.4c1.3-0.9,2.9-1.7,4.5-2.5c0.1-0.3,1.2-0.6,0.7-0.8c0.6,0.2,1.8-0.3,2.2-0.6
							c0,0,0,0.1-0.1,0.1c1.1,0.1,0.7-1,1.8-0.8c-0.1-0.5,1.5-0.6,1.7-1.4c0.1,0,0.2,0.1,0.2,0.2c1.4-0.7,3-1.4,4.2-2
							c0.8-0.9,2.5-1.1,3.1-2.1c0.8-0.3,2.1-0.7,3-1.4l-0.1,0.1c1.1-0.6,2.5-1.4,3.1-2.2c0.6,0.3,1,0,1.6-0.1
							c0.6-0.6,2.2-1.4,3.2-2.2c0.3,0.1,0.9-0.6,1.1-0.3c2.9-2.4,7-4.3,10.7-5.6v0.1c0.3-0.4,0.6-1.1,1-1.6c0.1,0,0.1,0.1,0,0.1
							c0.6-0.4,1.4-0.4,2-0.8c0,0.1,0,0.1,0,0.2c0.5-0.5,1.4-0.4,1.9-1l0.1,0.1l0.4-0.4c0,0.1,0.1,0.3-0.1,0.4
							c5.5-2.8,10.8-6.4,16.4-9.2l-0.1,0.2l1-0.8c0,0.1,0,0.1-0.1,0.2c1.5-0.5,2.7-1.6,4.1-2.3c0,0.1-0.1,0.3,0.1,0.2
							c0.8-0.8,1.8-0.5,2-1.4c0.1,0,0.2,0.1,0.1,0.2c0.9-0.6,1.9-1.2,2.9-1.7l1.5-0.8l1.3-0.7c0.8,0.1,1.7,0.2,2.5,0.3
							c2.7-0.4,5.5,0.4,8.3,0.1v0.1c3.6-0.2,7.2,0.6,10.9,0.9c1.5,0.2,2.5,0.1,4.1,0.2v0.2c2.6-0.4,5.3,1,8.1,0.6l-0.5,0.1
							c0.4-0.3,1.6,0.3,1.5-0.3l0.5,0.2c1.9-0.6,3.3,0.6,5.5,0.3l-0.2,0.1c0.6-0.1,1.3-0.1,1.7,0.1c-0.1,0,0,0.1-0.2,0.1
							c1.8,0.7,3.9,0.3,5.9,0.5l-0.2,0.2c1-0.2,2.7,0.2,3.9,0.2l-0.1,0.1l0.6-0.1v0.2C148.6,102.9,150.2,102.8,151.8,102.9z"/>
						<path class="st4" d="M168.1,104L168.1,104C168,104.1,168,104.1,168.1,104z"/>
						<path class="st4" d="M17.5,140.1c-0.1,0-0.1,0-0.2,0C17.4,140.2,17.5,140.1,17.5,140.1z"/>
					</g>
				</g>
			</g>
		</g>
	</g>
	<g>
		<g>
			<g>
				<g>
					<g>
						<path class="st4" d="M95.1,97.5H95l0.6,0.1C95.9,97.6,94.9,97.6,95.1,97.5z"/>
						<path class="st4" d="M95.1,97.5c0.1-0.1-0.1-0.1-0.2-0.1C95.1,97.4,94.8,97.5,95.1,97.5z"/>
						<path class="st5" d="M93.6,90.1h-0.2c0.4,0.3,0,0.6,0.2,0.9h-0.1c0,0.8,0.4,1.5,0.6,2.2H94c0.1,0,0.2,0.1,0.2,0.1h-0.1
							c-0.4,0.2,0.3,0.5,0,0.6c0,0,0.2,0.1,0.3,0c0.1,0.6,0.2,1.2,0.6,1.8c0,0-0.1,0-0.3,0c0.6,0.5,0.4,1,0.3,1.6
							c0.2,0,0.2-0.1,0.3,0c0.2-0.2-0.4-0.3-0.1-0.5h0.2c0.1-0.1-0.4,0-0.2-0.1c0.1-0.1,0.2,0,0.2,0c-0.1-0.2,0-0.5-0.3-0.7
							c0.3-0.1,0-0.3,0.3-0.4c-0.1-0.1-0.1-0.1-0.3-0.1c0.1-0.8-0.2-1.7-0.3-2.5c-0.7-0.4,0.1-0.9-0.2-1.4c0,0,0,0,0.1,0
							c-0.2-0.1-0.3-0.4-0.2-0.6l-0.3-0.1c0.5-1.1,0-2.3,0.2-3.4c0.1-1.3,0.5-2.5-0.4-3.7c0.1,0,0.1,0,0.1,0c-0.1-0.4,0.1-0.7-0.1-1
							h0.1c-0.6-0.8,0-1.8-0.6-2.6c0-1-0.1-2.1-0.3-3.2h0.1c-0.3-0.8,0.3-1.7,0.1-2.5c0.2-0.9-0.8-1.7-0.5-2.6
							c0.6-0.6-0.8-1.2-0.2-1.7c0.9-1.1,0.2-2.1-0.4-3.1c0.3-1-0.6-1.9,0-2.9c-0.5-0.4,0.5-1,0.3-1.4h-0.2c0.5-0.2-0.7-0.4,0-0.5
							l0,0c0.4-0.1-0.9-0.2-0.4-0.2h-0.2c-0.1-0.1,0.2,0,0.3-0.1c0,0-0.3,0-0.2-0.1c0.7-0.1-0.2-0.3,0.6-0.3c0,0.1,0.3-0.1,0.5,0
							c0.1,0,0-0.2-0.3-0.2c-0.4,0-0.7-0.1-1,0.1H92c-0.3,0.1-0.1,0-0.3,0.1c0,0.2-0.4,0.2-0.6,0.3l0,0c0.3,0.1,0.1,0.2,0.1,0.2
							h-0.1c-0.3,0.1,0.6,0.1,0.1,0.1c0.1,0.3,0.2,0.6,0.2,1c0.2,0,0,0.3,0.4,0.2c-0.4,0.1-0.5,0.4-0.5,0.5h-0.1
							c-0.6,0.2,0.5,0.2-0.1,0.4c0.5,0-0.1,0.3,0.4,0.4c-0.1,0-0.2,0-0.3,0c0,0.3-0.2,0.7-0.2,0.9c0.4,0.2-0.2,0.6,0.4,0.7
							c-0.1,0.2-0.4,0.4-0.1,0.6h-0.1c0,0.2,0.1,0.6,0.5,0.7c-0.6,0.1-0.5,0.2-0.6,0.3c0.3,0.2,0.2,0.5,0.5,0.7
							c-0.3,0.1,0.1,0.2-0.3,0.2c0.8,0.7,0.6,1.6,0.1,2.4l0,0c0.2,0.1,0.7,0.2,1,0.3h-0.1c0.1,0.1-0.3,0.3-0.2,0.4
							c-0.1,0-0.1,0-0.1,0c0.2,0.1-0.3,0.3,0,0.4h-0.1l0.1,0.1c-0.1,0-0.3,0-0.3,0c-0.1,1.2,0.7,2.4,0.6,3.6h-0.1l0.2,0.2
							c-0.1,0-0.1,0-0.1,0c-0.2,0.3,0.2,0.6,0.1,0.9c-0.1,0-0.2,0-0.3,0c0.4,0.2-0.4,0.4,0.3,0.4c0,0-0.2,0-0.3,0
							c0.3,0.6,0.3,1.2,0.2,1.8c0.7,0.5,0.1,1.1,0.7,1.6h-0.1c0.5,0.7,0,1.4,0.2,2.1c0,0.3,0.1,0.5,0.2,0.8h-0.2
							c0.6,0.5-0.5,1.1,0.2,1.6h-0.2c0.3,0.1-0.1,0.3,0.5,0.3l-0.2,0.1c0.8,0.3-0.3,0.7,0.2,1.1h-0.1c0.1,0.1,0.2,0.2,0.1,0.3h-0.1
							c-0.5,0.4,0.1,0.8,0.1,1.1h-0.3c0.3,0.2,0,0.5,0.2,0.8h-0.1l0.2,0.1h-0.2C93.4,89.5,93.6,89.8,93.6,90.1z"/>
					</g>
				</g>
			</g>
		</g>
	</g>
	<g>
		<g>
			<g>
				<g>
					<g>
						<polygon class="st4" points="125.3,155.9 125.4,155.9 125.2,155.8 						"/>
						<path class="st4" d="M124.8,155.2h-0.1l0.6,0.4C125.6,155.5,124.6,155.3,124.8,155.2z"/>
						<path class="st4" d="M124.9,155.1c0.1-0.2-0.1-0.2-0.2-0.3C124.9,154.9,124.6,155.1,124.9,155.1z"/>
						<path class="st5" d="M123.1,136.1h-0.2c0.4,0.7,0,1.6,0.2,2.3H123c0,2,0.4,3.8,0.7,5.7c0,0-0.1,0-0.1-0.1
							c0.1,0.1,0.2,0.2,0.2,0.3c0,0-0.1,0-0.1-0.1c-0.4,0.4,0.3,1.2,0,1.5c0,0.1,0.2,0.2,0.3,0.1c0.1,1.5,0.3,3.2,0.6,4.7
							c0,0.1-0.1,0.1-0.3,0.1c0.6,1.3,0.5,2.7,0.4,4.1c0.2,0,0.2-0.1,0.3,0c0.2-0.4-0.4-0.8-0.1-1.2h0.2c0.1-0.3-0.4,0-0.2-0.4
							c0.1-0.1,0.2,0,0.2,0c-0.1-0.6,0-1.3-0.4-1.8c0.3-0.2,0-0.7,0.3-0.9c-0.1-0.2-0.1-0.3-0.3-0.4c0.1-2.2-0.3-4.3-0.4-6.5
							c-0.7-1,0-2.3-0.2-3.5c0,0,0,0,0.1,0c-0.2-0.4-0.3-1-0.2-1.4l-0.3-0.4c0.4-2.9,0-5.8,0.1-8.7c0-3.3,0.4-6.2-0.6-9.4
							c0.1,0,0.1,0,0.1,0.1c-0.2-0.9,0-1.8-0.1-2.6h0.1c-0.6-2.2-0.1-4.5-0.7-6.6c0-2.5-0.2-5.4-0.4-8.1h0.1c-0.3-2.1,0.3-4.3,0-6.4
							c0.2-2.2-0.9-4.5-0.6-6.8c0.6-1.4-0.8-3.2-0.2-4.5c0.9-2.7,0.2-5.3-0.5-7.9c0.3-2.5-0.7-4.9-0.1-7.3c-0.5-1.1,0.5-2.4,0.3-3.6
							l-0.2,0.1c0.5-0.5-0.7-1,0-1.3l0,0c0.3-0.3-0.9-0.5-0.4-0.7h-0.2c-0.1-0.3,0.2,0,0.3-0.3c0-0.1-0.3,0-0.2-0.2
							c0.7-0.1-0.2-0.7,0.6-0.8c0,0.2,0.3-0.3,0.5,0.1c0.1-0.1,0-0.6-0.3-0.5c-0.4,0-0.7-0.2-1,0.1h0.3c-0.3,0.1-0.1,0.1-0.3,0.1
							c0,0.4-0.4,0.5-0.6,0.7l0,0c0.3,0.2,0.1,0.4,0.1,0.6l-0.1,0.1c-0.3,0.1,0.6,0.4,0.1,0.3c0.2,0.8,0.2,1.7,0.2,2.5
							c0.2,0.1,0,0.7,0.4,0.5c-0.4,0.2-0.5,0.9-0.5,1.1c0,0-0.1,0-0.1-0.1c-0.6,0.5,0.6,0.5-0.1,1c0.5,0.1-0.1,0.8,0.5,1
							c-0.1,0.1-0.2,0.1-0.3,0.1c0,0.8-0.1,1.7-0.1,2.3c0.5,0.6-0.1,1.4,0.5,1.9c-0.1,0.4-0.3,1.1-0.1,1.6l-0.1-0.1
							c0.1,0.6,0.1,1.4,0.5,1.9c-0.6,0.2-0.4,0.5-0.6,0.8c0.3,0.4,0.2,1.3,0.5,1.9c-0.3,0.1,0.1,0.5-0.3,0.6c0.8,1.8,0.6,4.1,0.1,6
							l0,0c0.2,0.2,0.7,0.5,1,0.8h-0.1c0.1,0.4-0.3,0.7-0.2,1.1c-0.1,0-0.1,0-0.1-0.1c0.2,0.3-0.3,0.7,0,1.1h-0.1l0.2,0.2
							c-0.1,0-0.3,0-0.3-0.1c0,3.1,0.8,6.2,0.8,9.4l-0.1-0.1l0.2,0.6c-0.1,0-0.1,0-0.1-0.1c-0.2,0.8,0.2,1.6,0.2,2.3
							c-0.1,0-0.2-0.1-0.3,0c0.4,0.5-0.4,0.9,0.3,1.2c0,0-0.2,0.1-0.3,0c0.3,1.6,0.3,3.2,0.3,4.7c0.7,1.3,0.2,2.8,0.7,4.1h-0.1
							c0.5,1.7,0.1,3.6,0.3,5.4c0,0.8,0.1,1.3,0.2,2h-0.2c0.7,1.3-0.5,2.7,0.3,4l-0.2-0.1c0.3,0.2-0.1,0.8,0.5,0.7L123,125
							c0.8,0.9-0.3,1.7,0.2,2.8l-0.1-0.1c0.1,0.3,0.2,0.6,0.1,0.9c0,0-0.1,0-0.1-0.1c-0.5,0.9,0.1,2,0.1,2.9l-0.3-0.1
							c0.3,0.5,0.1,1.3,0.2,2H123l0.2,0.3H123C122.8,134.6,123.1,135.3,123.1,136.1z"/>
					</g>
				</g>
			</g>
		</g>
	</g>
	<g>
		<path class="st0" d="M109.8,62.3c0,0,1.1,10.1,11.2,9.1c9.3-0.9,7.4-9.9,7.4-9.9"/>
		<g>
			<g>
				<g>
					<g>
						<path class="st4" d="M127.5,61.9h0.1c-0.2,0-0.4,0-0.6,0C126.7,61.9,127.7,61.8,127.5,61.9z"/>
						<path class="st4" d="M127.5,61.9c-0.1,0.1,0.1,0,0.2,0C127.5,62,127.8,61.9,127.5,61.9z"/>
						<path class="st5" d="M127.6,67.8l0.2,0.1c-0.2-0.4,0.2-0.5,0.2-0.8h0.1c0.3-0.6,0.2-1.3,0.1-1.9h0.1c-0.1,0-0.2-0.1-0.2-0.1
							c0.1,0,0.1,0,0.1,0c0.4-0.1-0.2-0.4,0.1-0.5c0,0-0.2-0.1-0.3-0.1c0-0.5-0.1-1-0.4-1.5c0.1,0,0.2,0,0.3,0
							c-0.6-0.4-0.4-0.8-0.3-1.2c-0.2,0-0.2,0.1-0.3,0c-0.2,0.1,0.4,0.2,0.1,0.3h-0.2c-0.1,0.1,0.4,0,0.2,0.1c-0.1,0-0.2,0-0.2,0
							c0.1,0.2,0,0.4,0.3,0.5c-0.3,0.1,0,0.2-0.3,0.3c0.1,0,0.1,0.1,0.3,0.1c-0.2,0.6,0.1,1.3-0.1,1.9c0.6,0.5-0.3,0.6-0.2,1
							c0,0,0,0-0.1,0c0.1,0.2,0.1,0.4,0,0.5l0.2,0.2c-0.2,0.1-0.4,0.3-0.5,0.5s-0.3,0.3-0.4,0.5c-0.2,0.4-0.5,0.7-0.9,0.9
							c-0.9,0.5-1.7,0.4-2.3,1.5c0-0.1,0-0.1,0-0.1c-0.2,0.2-0.5,0.1-0.8,0.3v-0.1c-0.3,0.3-0.6,0.3-1,0.4c-0.3,0.1-0.7,0.1-1,0.4
							c-0.4,0-0.8,0-1.3,0c-0.4,0-0.9,0-1.3,0v-0.1c-0.4,0.1-0.7-0.1-1-0.3c-0.3-0.2-0.6-0.4-0.9-0.4c-0.3-0.3-0.7-0.2-1.1-0.3
							c-0.4,0-0.8-0.1-1-0.5c0-0.4-0.3-0.4-0.6-0.4c-0.3,0-0.6-0.1-0.5-0.5c0.1-0.7-0.2-1-0.5-1.3s-0.8-0.4-1.3-0.7
							c-0.1-0.8-1.2-1.3-0.8-2.3c-0.5-0.2,0.3-0.9,0.1-1.2l-0.1,0.1c0.4-0.2-0.7-0.2-0.1-0.4l0,0c0.3-0.1-0.9,0-0.5-0.1h-0.2
							c-0.1-0.1,0.2,0,0.2-0.1c0,0-0.3,0-0.2,0c0.7-0.1-0.2-0.2,0.6-0.3c0,0,0.3-0.1,0.5,0c0.1,0,0-0.2-0.3-0.1c-0.4,0-0.7,0-1,0.1
							h0.3c-0.3,0.1-0.1,0-0.3,0.1c0,0.1-0.4,0.2-0.5,0.3l0,0c0.3,0,0.2,0.1,0.1,0.2h-0.1c-0.3,0.1,0.6,0,0.1,0.1
							c0.2,0.2,0.3,0.5,0.3,0.8c0.2,0,0,0.2,0.4,0.1c-0.4,0.2-0.4,0.4-0.4,0.5h-0.1c-0.5,0.3,0.6,0-0.1,0.4c0.5-0.1-0.1,0.3,0.5,0.2
							c-0.1,0.1-0.2,0.1-0.3,0.1c0.1,0.3,0,0.6,0.1,0.9c0.5,0,0,0.5,0.6,0.4c-0.1,0.2-0.2,0.5,0.1,0.6h-0.1c0.1,0.2,0.3,0.4,0.7,0.4
							c-0.5,0.4-0.3,0.4-0.4,0.6c0.3,0,0.4,0.3,0.8,0.3c-0.2,0.2,0.2,0.1-0.1,0.3c1,0.1,1.3,0.8,1.5,1.7l0,0
							c0.2-0.1,0.6-0.4,0.8-0.6l-0.1,0.1c0.1,0,0,0.4,0.1,0.4c0,0.1,0,0.1-0.1,0.1c0.2-0.1,0,0.4,0.3,0.2l-0.1,0.1l0.2-0.1
							c-0.1,0.1-0.2,0.3-0.2,0.2c0.2,0.2,0.5,0.3,0.7,0.4c0.3,0.1,0.6,0.1,0.8,0.2c0.3,0,0.6,0.1,0.8,0.1c0.3,0,0.5,0.1,0.8,0.2
							l-0.1,0.1l0.3-0.2c0,0.1,0,0.1,0,0.1c0.2,0.3,0.6,0,0.8,0.1c0,0.1-0.1,0.2,0,0.3c0.2-0.3,0.3,0.5,0.4-0.2c0,0,0,0.2,0,0.3
							c0.6-0.2,1.1-0.1,1.6,0c0.4-0.7,0.9-0.1,1.3-0.6v0.1c0.5-0.6,1.2-0.1,1.8-0.4c0.3,0,0.4-0.2,0.6-0.3L123,71
							c0.1-0.4,0.4-0.3,0.6-0.3c0.3,0,0.5,0,0.6-0.4l0.1,0.2c-0.1-0.3,0.3,0,0-0.5l0.2,0.1c-0.1-0.8,0.6,0,0.7-0.6l0.1,0.1
							c0-0.1,0-0.3,0.2-0.2v0.1c0.6,0.3,0.4-0.5,0.7-0.7l0.2,0.2c-0.1-0.3,0.3-0.3,0.3-0.6l0.1,0.1l-0.1-0.2l0.2,0.1
							C127.5,68.4,127.5,68.1,127.6,67.8z"/>
					</g>
				</g>
			</g>
		</g>
	</g>
	<g>
		<path class="st7" d="M6.6,44.1c0,0-7.5,2.7-2.2,8.9c0,0,98,9.1,105.4,9.3c7.8,0.3,14.4,0.3,24.4-3.8c11.7-4.9,63.3-28.8,63.3-28.8
			s0.3-7.5-4.5-7.3c-4.7,0.2-57.9,27.9-62.8,29.5s-8.9,3.5-20.9,2.2C95.6,52.6,6.6,44.1,6.6,44.1z"/>
		<g>
			<g>
				<g>
					<g>
						<polygon class="st4" points="6.4,45.4 6.6,45.5 7.2,45.4 						"/>
						<path class="st4" d="M9.8,45.3c-0.1,0,0-0.1-0.1-0.2l-2,0.4C8.5,46,9.3,45,9.8,45.3z"/>
						<path class="st4" d="M10.4,45.4c0.7,0.2,1.1,0,1.3-0.1C11.4,45.5,10.2,45.1,10.4,45.4z"/>
						<path class="st5" d="M94.7,52.6l0.2-0.2c-3.3,0.1-6.9-0.7-10.4-0.8l0.2-0.1c-8.7-0.9-16.8-1.4-25.5-2c0.1,0,0.2-0.1,0.3-0.1
							c-0.4,0-0.9,0.1-1.4,0.1c-0.1-0.1,0.1-0.1,0.3-0.1c-1.8-0.5-5.4-0.3-6.5-0.7c-0.5,0-0.8,0.1-0.5,0.3c-6.8-0.6-14-1.2-21-1.6
							c-0.3-0.1-0.4-0.2-0.3-0.3c-6,0-12.1-0.8-18.1-1.5c-0.2,0.1,0.6,0.2,0,0.3c1.9,0.4,3.6,0,5.3,0.4l-0.2,0.1
							c1.3,0.2,0.3-0.4,1.6,0c0.5,0.2-0.1,0.2,0.1,0.2c2.7,0.2,5.5,0.6,8.1,0.5c0.6,0.4,2.9,0.3,3.9,0.7c0.7-0.1,1.4,0,1.7-0.1
							c9.5,1.1,19.3,1.7,29,2.7c4.6-0.2,10,1.1,15.5,1.4c0,0,0,0,0,0.1c1.8,0,4.4,0.2,6.5,0.5l1.8-0.1c6.3,0.9,12.7,1.6,19.2,2.2
							l4.8,0.5c1.6,0.2,3.3,0.3,4.9,0.4c3.3,0.2,6.6,0,9.9-0.6c1.9-0.4,3.6-0.9,5.3-1.5c0.4-0.1,0.8-0.3,1.3-0.4
							c0.5-0.2,0.9-0.3,1.3-0.5c0.8-0.4,1.6-0.7,2.4-1.1c3.2-1.5,6.3-2.9,9.4-4.4c6.2-3,12.2-6.1,18.4-9.7c0,0.1,0.1,0-0.2,0.2
							c3.7-1.9,7.1-3.4,10.6-5.2v0.1c4.2-2.3,8.8-4.5,13.3-6.5c1.1-0.5,2.3-1,3.4-1.5c1.1-0.4,2.3-0.9,3.4-1.2
							c0.5-0.1,1.1,0,1.6,0.1c0.5,0.2,0.9,0.5,1.3,0.9c0.7,0.8,1.1,1.9,1.4,3c0.1,0.6,0.2,1.3,0.2,1.9c0,0.1,0,0.3,0,0.4v0.2
							c0,0.1-0.1,0.1-0.2,0.1c-0.3,0.1-0.6,0.3-0.9,0.4c-4.6,2.1-9.5,4.4-14.4,6.7s-9.8,4.6-14.6,6.9v-0.1
							c-8.6,4.2-17.3,7.5-26,11.6c-4.6,1.8-9.1,4.2-13.9,5.6c-2.4,0.7-4.9,1.3-7.4,1.5c-2.5,0.3-5,0.3-7.5,0.1
							c-3.1-0.3-6.6-0.5-10.1-0.6s-7-0.2-9.8-0.8c-11.7-2-23.2-2.4-35.1-2.9C46.4,56.8,35.5,56.7,25,55c-5,0-10.5-1.5-16-1.9
							l0.2,0.2c-1-0.3-2.1-0.3-3.1-0.2c-0.5,0-1,0-1.5,0H4.4L4.3,53c-0.1-0.1-0.1-0.2-0.2-0.3C4,52.5,4,52.4,3.9,52.2l0.2,0.1
							C3.9,51.8,3.5,51.4,3,51c-0.2-0.2-0.4-0.4-0.5-0.7c-0.1-0.2-0.2-0.4-0.1-0.6l-0.2-0.2c-0.1-0.7,0-0.7,0-0.7
							c0.1,0,0.1,0,0.2-0.5c0-0.4-0.3-0.2,0-1c0.2,0,0.4-0.1,0.5-0.4c0.2-0.2,0.4-0.6,0.7-0.9c0.5-0.6,1.2-1,1.4-0.7
							c-0.5,0.4,1-0.3-0.1,0.6c0.2-0.1,0.7-0.4,1.1-0.7c0.4-0.3,0.8-0.5,0.7-0.7c0-0.4,0.7-1-0.6-0.8L6,44.1c-0.5,0-0.4,0-0.6-0.1
							c-0.8,0.4-1.3,0.7-1.7,0.9c-0.2,0.1-0.4,0.2-0.6,0.4c-0.2,0.1-0.5,0.3-0.7,0.6l0,0c-0.1,0.2-0.2,0.5-0.3,0.8l-0.2,0.4
							l-0.1,0.4c-0.2,0.6-0.2,1.1-0.3,1.5l-0.1,0.3c-0.1,0.1,0,0.4,0,0.6c0.1,0.2,0.2,0.4,0.4,0.6c0.3,0.4,0.5,0.6,0.1,0.4
							c0.2,0.5,0.5,0.9,0.8,1.3c0.4,0.5,0.8,1,1.1,1.4c0.3,0.1,0.8,0.1,1.1,0.1l0.7,0.1c0.5,0,0.9,0.1,1.4,0.1
							c1.9,0.2,3.9,0.3,5.8,0.5c0.6-0.2,3,0.3,2.2-0.2c0.9,0.5,3.8,0.9,4.9,1c0,0-0.1,0.1-0.3,0c2,0.8,2.5-0.3,4.4,0.6
							c0.3-0.5,3.5,0.5,4.7,0c0.2,0.1,0.3,0.2,0.2,0.3c3.5,0.3,7.3,0.9,10.3,1.2c2.6-0.2,6.1,0.8,8.3,0.4c1.8,0.3,4.7,0.8,7.2,0.8
							l-0.3,0.1c2.8,0.2,6.4,0.5,8.4,0.3c0.8,0.6,2,0.6,3.2,0.9c1.9-0.1,5.7,0.3,8.7,0.3c0.4,0.3,2.4,0.1,2.5,0.5
							c8.2,0,18.2,1.1,26.8,2.4h-0.1c1.1-0.1,2.5-0.5,3.6-0.7c0.1,0,0.1,0.1-0.1,0.1c1.6,0,3.1,0.5,4.7,0.5c0,0.1,0,0.1-0.3,0.1
							c1.5-0.1,3.1,0.4,4.9,0l0.1,0.1l1.1-0.2c0,0.1-0.1,0.3-0.7,0.3c3.5-0.1,7-0.6,10.4-1.6c1.7-0.5,3.4-1.1,5-1.7
							c1.6-0.7,3.2-1.4,4.8-2.1c6.3-2.9,12.7-5.9,19.1-8.8l-0.4,0.3l2.4-1.3c0,0.1-0.1,0.1-0.2,0.2c3.2-1.2,6.3-3.1,9.4-4.4
							c0,0.1-0.4,0.4,0.1,0.3c2.1-1.4,3.8-1.3,4.7-2.4c0.1,0,0.3,0.1,0.1,0.3c6.2-3.1,12.7-6.1,19.1-8.9c0.8-0.5,1.5-0.9,2.4-1.3
							c0.4-0.2,0.8-0.4,1.2-0.6c0.2-0.1,0.4-0.3,0.6-0.4l0.5-0.5l0.5,0.1h0.1c0,0,0.1,0,0.1-0.1v-0.2c0-0.1,0.1,0,0.1-0.1l0.5-0.1
							h0.1h0.1l0,0c-0.4-0.3-0.1-0.1-0.2-0.1l0,0l0,0l0,0c0-0.1,0.1-0.1,0.1-0.2c0.1-0.1,0.1-0.3,0.1-0.4c0-0.2,0-0.4,0-0.5
							c0-0.3,0-0.6-0.1-0.8c-0.1-1.1-0.4-2.2-0.9-3.3c-0.5-1-1.4-2-2.5-2.3c-0.3-0.1-0.6-0.1-0.9-0.1s-0.6,0-0.9,0.1
							c-0.6,0.1-1,0.3-1.5,0.6v-0.1c-3.6,1.6-7.3,3.3-11,4.9c-3.7,1.7-7.4,3.4-11.1,5.2c-3.1,1.4-5,2.6-8.1,4.1l-0.1-0.1
							c-4.8,3.1-11,4.8-16,8.1l0.3-0.4c-0.7,0.7-3.3,1.5-2.7,1.9l-1,0.3c-1.6,1.2-3.3,2-5.1,2.7c-1.8,0.7-3.7,1.5-5.9,2.7l0.3-0.2
							c-1.2,0.5-2.6,1.1-3.6,1.3c0.1-0.1,0.1-0.1,0.3-0.2c-2,0.4-4.1,0.9-6.3,1.2c-2.2,0.3-4.4,0.5-6.6,0.4l0.5-0.2
							c-2.1,0.3-5.9-0.4-8.7-0.6l0.2-0.1h-1.4v-0.2C101.5,53,98.1,52.9,94.7,52.6z"/>
						<path class="st4" d="M2,46.4c0.1-0.2,0.2-0.3,0.3-0.4C2.3,46,2.1,46.2,2,46.4z"/>
					</g>
				</g>
			</g>
		</g>
	</g>
</g>
</svg>
