<?xml version="1.0" encoding="utf-8"?>
<!-- Generator: Adobe Illustrator 23.0.1, SVG Export Plug-In . SVG Version: 6.00 Build 0)  -->
<svg version="1.1" id="Layer_1" xmlns="http://www.w3.org/2000/svg" xmlns:xlink="http://www.w3.org/1999/xlink" x="0px" y="0px"
	 viewBox="0 0 200 170" style="enable-background:new 0 0 200 170;" xml:space="preserve">
<style type="text/css">
	.st0{fill:#EAB9C5;}
	.st1{fill:#D97294;}
	.st2{fill:#F5E1E5;}
	.st3{fill:#F8E9EC;}
	.st4{fill:#E299AD;}
	.st5{fill:#D45D85;}
	.st6{fill:#FDF8F9;}
	.st7{fill:#F3DADF;}
	.st8{fill:none;}
	.st9{fill:none;stroke:#B5DFCC;stroke-width:2;stroke-linecap:round;stroke-linejoin:round;stroke-miterlimit:10;}
	.st10{fill:#DB7C99;}
	.st11{fill:#FAF0F2;}
	.st12{fill:#F6E5E8;}
	.st13{fill:#DA7194;}
	.st14{fill:#F3A169;}
	.st15{fill:none;stroke:#EBB1C5;stroke-miterlimit:10;}
	.st16{fill:#0075C2;}
</style>
<g>
	<g>
		<path class="st3" d="M187.6,125.2H11.4c-4.7,0-8.5-3.8-8.5-8.5V53.1c0-4.7,3.8-8.5,8.5-8.5h176.3c4.7,0,8.5,3.8,8.5,8.5v63.6
			C196.1,121.4,192.3,125.2,187.6,125.2z"/>
		<g>
			<g>
				<g>
					<g>
						<path class="st4" d="M187.6,126.5l0.3,0.1c0.3-0.1,0.5-0.2,0.7-0.3C188.3,126.4,188,126.5,187.6,126.5z"/>
						<path class="st4" d="M192.2,124.9c-0.1,0-0.1-0.1-0.3,0c-0.7,0.6-1.6,1.1-2.5,1.5c0.7,0,1.2-0.3,1.6-0.6
							C191.5,125.3,191.8,125,192.2,124.9z"/>
						<path class="st4" d="M192.9,124.5c1-0.5,1.1-1.1,1.2-1.3c-0.1,0.2-0.4,0.5-0.8,0.8C193,124.2,192.7,124.4,192.9,124.5z"/>
						<path class="st5" d="M164.3,44.8l-0.2,0.2c4.2-0.4,8.9,0,13.4-0.2l-0.3,0.1c2.8,0,5.6,0,8.3,0c1.4,0,2.7-0.1,4,0.1
							c1.3,0.3,2.5,0.8,3.6,1.7c1,0.8,1.9,1.9,2.4,3.1c0.6,1.2,0.8,2.6,0.8,3.9c0.1,2.7,0.1,5.5,0.2,8.2c0-0.2-0.1-0.2-0.1-0.4
							c0.1,0.5,0.2,1.1,0.2,1.7c0,0.2-0.1-0.2-0.1-0.4c-0.4,2.4,0.2,6.9-0.1,8.4c0,0.7,0.2,1,0.3,0.6c0.1,8.7,0.2,18.1,0.5,27
							c-0.1,0.4-0.2,0.5-0.3,0.4c0.3,3.8,0.4,7.7,0.4,11.6c0,2,0,3.9-0.1,5.9c-0.1,2.2-0.9,4.3-2.3,5.9c-0.1,0.4,0.7-0.6,0.3,0.2
							c2-2.1,2.1-4.9,2.2-7.1l0.2,0.3c0.1-1.7-0.4-0.3-0.2-2c0.1-0.7,0.2,0.2,0.2-0.1c-0.1-3.5,0.1-7.2-0.3-10.5
							c0.3-0.8,0-3.8,0.3-5.1c-0.1-0.9-0.1-1.8-0.3-2.2c0.2-12.3-0.1-24.8-0.1-37.4c-0.2-1.5-0.2-3-0.3-4.6c0-0.8,0-1.6-0.1-2.5
							s-0.4-1.7-0.8-2.6c-0.7-1.6-2-3.1-3.7-4.1c-0.8-0.5-1.7-0.8-2.6-1c-0.9-0.2-1.9-0.2-2.8-0.2c0,0,0,0,0-0.1
							c-2.3,0.2-5.6,0.2-8.3,0.2l-2.3,0.3c-16.4-0.6-33.1-0.2-49.7-0.4c-18.9-0.2-35.4-0.6-53.8,0.2c0-0.1-0.1-0.1,0.4-0.1
							c-5.3,0.1-10.1-0.1-15.1,0v-0.1c-12.4,0.5-25.8-0.1-37.8,0.5c-1.8,0-3.7,0-5.5,0c-0.9,0-1.9,0-2.8,0c-1,0-2,0.1-2.9,0.4
							c-1.9,0.6-3.6,1.8-4.7,3.5c-1.4,1.8-1.9,3.8-1.8,5.8c0.1,7.9,0.1,15.8,0.2,23.5H2.7c0.2,12.3-0.4,24.2-0.2,36.5
							c0,0.8,0,1.6,0,2.4c0,0.4,0,0.8,0,1.2c0.1,0.4,0.1,0.8,0.2,1.2c0.4,1.6,1.3,3.1,2.5,4.3c1.2,1.2,2.8,1.9,4.5,2.2
							c0.8,0.1,1.7,0.1,2.5,0.1l2.4-0.1c6.5-0.2,13-0.3,19.4-0.1c7.9,0.6,18.3-0.7,25.7-0.1c15.2,1,30,0.3,45.2-0.2
							c14,0.3,28.1-0.5,41.7,0.2c6.4-0.4,13.6,0.6,20.7,0.4l-0.3-0.2c2.6,0.5,5.7-0.7,7.3,0H174c1.4,0.4,3.2-0.8,4-0.4l0.2-0.2
							c1.7-0.1,0.2,0.2,1.5,0.3c0.5,0,0.2-0.3,1.2-0.2c0.2,0.7,4-0.2,4.2,0.7c-0.9,0,1.4,0.3-0.6,0.5c0.6,0.1,3.3,0,3.1-0.3
							c0.2-0.4,1.3-0.7-0.4-1l-0.3,0.3c-0.6-0.3-0.4-0.1-0.6-0.3c-2.2,0-2.5-0.4-4.1-0.6l0,0c-1.1,0.3-2.6,0.1-3.4,0.1l-0.3-0.1
							c-0.5-0.3-2.5,0.6-1.8,0.1c-4.5,0.1-9.6,0.1-14.6,0.1c-0.7,0.2-3.8,0-2.7,0.4c-1.2-0.4-5-0.6-6.3-0.5c0.1,0,0.1-0.1,0.3-0.1
							c-2.7-0.6-3.2,0.5-5.7-0.2c-0.4,0.5-4.6-0.2-6,0.4c-0.3-0.1-0.4-0.2-0.3-0.3c-4.5,0-9.5-0.2-13.3-0.2
							c-3.3,0.4-7.9-0.2-10.7,0.4c-2.3-0.1-6.1-0.4-9.3-0.1l0.3-0.1c-3.7,0-8.2,0.1-10.7,0.4c-1.1-0.6-2.7-0.5-4.2-0.6
							c-2.4,0.3-7.4,0.2-11.1,0.4c-0.6-0.3-3.1,0.1-3.3-0.3c-10.4,0.7-23.4,0.5-34.5-0.1h0.2c-1.4,0.2-3.1,0.7-4.6,1
							c-0.1,0-0.1-0.1,0.2-0.1c-2,0.1-3.9-0.3-6-0.2c0-0.1,0-0.1,0.3-0.1c-1.9,0.2-3.9-0.3-6.2,0l-0.1-0.1l-1.4,0.1
							c0-0.1,0.1-0.3,0.9-0.3c-4.4,0-8.8,0-13.2,0h-3.3c-1,0-1.9-0.2-2.9-0.6c-1.8-0.8-3.3-2.3-4.1-4.1c-0.4-0.9-0.5-1.9-0.6-3v-3.4
							c0-2.2-0.1-4.5-0.1-6.7c0-4.5-0.1-9,0-13.5l0.1,0.7l-0.2-3.5c0.1,0,0.1,0.2,0.1,0.4c0.2-4.4-0.1-9-0.1-13.4
							c0.1,0,0.2,0.7,0.3,0.1c-0.3-3.2,0.5-5.1-0.3-6.7c0-0.1,0.2-0.3,0.3,0.1c-0.1-4.5-0.2-9-0.2-13.5v-3.4c0-1.1,0.1-2.1,0.5-3.1
							c0.7-1.9,2.3-3.6,4.2-4.4c0.7-0.4,1.6-0.7,2.5-0.9c0.9-0.1,1.9-0.1,2.9-0.1c2,0,3.9,0,5.9,0c4,0,8,0,11.9-0.2v0.1
							c10-0.5,20.7,0,31.1-0.1c4.3,0.1,7.2-0.1,11.6-0.1l0.1,0.2c7.3-0.6,15.4,0.6,23-0.1L96.9,45c1.2-0.3,4.6,0.1,4.2-0.5l1.3,0.2
							c5.2-0.8,9.4,0.4,15.8-0.1l-0.4,0.1c1.7-0.1,3.7-0.2,4.9-0.1c-0.2,0-0.1,0.1-0.5,0.1c5.3,0.6,11.2-0.1,16.8,0l-0.6,0.3
							c2.7-0.3,7.6,0,11.2-0.2l-0.2,0.1l1.8-0.2v0.2C155.4,45,159.8,44.8,164.3,44.8z"/>
					</g>
				</g>
			</g>
		</g>
	</g>
	<g>
		<rect x="32.2" y="44.6" class="st0" width="134.7" height="18.5"/>
		<g>
			<g>
				<g>
					<g>
						<polygon class="st4" points="168.2,63.1 168.3,62.9 168,62.6 						"/>
						<path class="st4" d="M167.7,60.6c0,0.1-0.1,0-0.1,0.1l0.6,1.4C168.5,61.5,167.5,61,167.7,60.6z"/>
						<path class="st4" d="M167.8,60.2c0.1-0.6-0.1-0.8-0.2-0.9C167.8,59.5,167.5,60.3,167.8,60.2z"/>
						<path class="st4" d="M120,44.8l-0.1,0.2c2.4-0.4,5.1,0,7.7-0.2l-0.2,0.1c6.5,0.1,12.4-0.3,18.8-0.5c-0.1,0-0.1,0.1-0.2,0.1
							c0.3-0.1,0.7-0.2,1-0.2c0.1,0-0.1,0.1-0.2,0.1c1.4,0.4,4-0.2,4.8,0.1c0.4,0,0.5-0.2,0.3-0.3c2.4,0,4.9-0.1,7.4-0.1
							c2.8-0.1,5.6-0.2,8.3-0.3c0,0.3,0,0.6,0,0.9c-0.1,0.4-0.2,0.5-0.3,0.5c0.1,0.6,0.1,1.3,0.2,1.9c0.1,0.6,0.1,1.1,0.1,1.7
							c0.1,1.1,0.1,2.2,0.1,3.4c0,2.2-0.1,4.5-0.1,6.7c0.2,0.2,0.2-0.5,0.3,0c0.2-1.4-0.4-2.6-0.1-3.9l0.2,0.2
							c0.1-0.9-0.4-0.2-0.2-1.2c0.1-0.4,0.2,0.1,0.2-0.1c-0.1-2,0.1-4.1-0.3-6c0.2-0.2,0.2-0.8,0.2-1.4c0-0.4,0-0.8,0-1.2
							c0-0.5,0.1-1,0.1-1.4c0-0.2,0-0.3-0.1-0.5c-0.8,0.1-1.5,0.1-1.9,0.3c-1,0-2,0-2.9,0s-1.8,0-2.7,0c-1.8,0-3.6,0-5.4,0.1
							c-3.6,0.1-7.2,0.1-10.8,0.1c-3.4,0.6-7.4-0.1-11.4,0.1c0,0,0,0,0-0.1c-1.3,0.2-3.2,0.2-4.8,0.2l-1.3,0.3
							c-9.4-0.6-19-0.2-28.6-0.4c-10.8-0.2-20.4-0.6-30.9,0.2c0-0.1-0.1-0.1,0.2-0.1c-3,0.1-5.8-0.1-8.7,0V44
							c-7.1,0.5-14.8-0.1-21.7,0.5c-1.6,0-3.3,0-5.3,0c0,3,0,6.1,0,9.3c0,3.1,0.1,6.3,0.1,9.5c1.1,0,2.2,0,3.3-0.1v0.1
							c7.1-0.3,13.9,0.4,21,0.2c7.3,0.3,14.9-0.7,22.3-0.3c4.5,0.6,10.5-0.7,14.7-0.1c8.8,1,17.2,0.3,26-0.2
							c8.1,0.3,16.1-0.5,23.9,0.2c3.7-0.4,7.8,0.6,11.9,0.4l-0.1-0.2c1.5,0.5,3.3-0.7,4.2,0h-0.2c0.8,0.4,1.8-0.8,2.3-0.4l0.1-0.2
							c0.9-0.1,0.1,0.2,0.8,0.3c0.3,0,0.1-0.3,0.7-0.2c0.1,0.7,2.3-0.2,2.4,0.7c-0.5,0,0.8,0.3-0.4,0.5c0.3,0.1,1.9,0,1.8-0.3
							c0.1-0.4,0.8-0.7-0.2-1l-0.2,0.3c-0.3-0.3-0.2-0.1-0.4-0.3c-1.3,0-1.4-0.4-2.3-0.6l0,0c-0.6,0.3-1.5,0.1-2,0.1l-0.2-0.1
							c-0.3-0.3-1.4,0.6-1.1,0.1c-2.6,0.1-5.5,0.1-8.4,0.1c-0.4,0.2-2.2,0-1.6,0.4c-0.7-0.4-2.9-0.6-3.6-0.5c0,0,0.1-0.1,0.2-0.1
							c-1.5-0.6-1.8,0.5-3.3-0.2c-0.2,0.5-2.6-0.2-3.4,0.4c-0.2-0.1-0.2-0.2-0.2-0.3c-2.6,0-5.5-0.2-7.6-0.2
							c-1.9,0.4-4.5-0.2-6.2,0.4c-1.3-0.1-3.5-0.4-5.4-0.1l0.2-0.1c-2.1,0-4.7,0.1-6.2,0.4c-0.6-0.6-1.5-0.5-2.4-0.6
							c-1.4,0.3-4.2,0.2-6.4,0.4c-0.3-0.3-1.8,0.1-1.9-0.3c-6,0.7-13.4,0.5-19.8-0.1h0.1c-0.8,0.2-1.8,0.7-2.6,1
							c-0.1,0-0.1-0.1,0.1-0.1c-1.2,0.1-2.3-0.3-3.4-0.2c0-0.1,0-0.1,0.2-0.1c-1.1,0.2-2.3-0.3-3.6,0l-0.1-0.1L74,62.4
							c0-0.1,0.1-0.3,0.5-0.3c-10.1-0.1-20.4,0.5-30.8,0.4l0.4-0.1l-2,0.2c0-0.1,0.1-0.1,0.2-0.1c-2.5-0.2-5.2,0.1-7.7,0.1
							c0-0.1,0.4-0.2,0-0.3c-0.3,0.1-0.6,0.1-0.9,0.1c-0.1,0-0.3,0-0.4,0c-0.1,0-0.3,0-0.3,0c-0.2,0-0.3-0.1-0.5-0.1
							c0-0.1-0.1-0.1-0.3-0.2c0-0.1,0.2-0.1,0.3-0.1v-0.2v-0.4v-1l-0.1-1.9c0-1.3,0-2.6-0.1-3.9c0-2.6,0-5.2,0.1-7.8
							c-0.1-0.8-0.2-1-0.2-1.6c0.3,0,0.6-0.1,0.9-0.1c0.5,0,0.9,0,1.4,0c1,0,1.9,0,2.9,0c1.9,0,3.9,0,5.8-0.2V45
							c5.8-0.5,11.9,0,17.9-0.1c2.5,0.1,4.2-0.1,6.7-0.1l0.1,0.2c4.2-0.6,8.8,0.6,13.2-0.1l-0.3,0.2c0.7-0.3,2.7,0.1,2.4-0.5
							l0.8,0.2c3-0.8,5.4,0.4,9.1-0.1l-0.2,0.1c1-0.1,2.1-0.2,2.8-0.1c-0.1,0-0.1,0.1-0.3,0.1c3,0.6,6.4-0.1,9.6,0l-0.4,0.3
							c1.6-0.3,4.4,0,6.4-0.2l-0.1,0.1l1-0.2V45C114.9,45,117.4,44.8,120,44.8z"/>
						<path class="st4" d="M163.4,61.9c0.1,0,0.2,0,0.3,0C163.7,61.9,163.5,62,163.4,61.9z"/>
					</g>
				</g>
			</g>
		</g>
	</g>
	<g>
		<path class="st5" d="M78,73c3.3,0,4.5,2.5,4.5,5.9s-1.2,5.9-4.5,5.9s-4.5-2.5-4.5-5.9C73.5,75.4,74.7,73,78,73z M78,75.5
			c-1.6,0-1.8,1.6-1.8,3.3c0,1.8,0.2,3.4,1.8,3.4c1.6,0,1.8-1.5,1.8-3.4C79.8,77.1,79.6,75.5,78,75.5z"/>
		<path class="st5" d="M89.3,82.8h-5.4v-2.2l5-7.2h3v7h1.3v2.4h-1.3v2.1h-2.7L89.3,82.8L89.3,82.8z M89.5,80.4v-4l-2.7,4H89.5z"/>
		<path class="st5" d="M94.8,78.1h7v2.3h-7V78.1z"/>
		<path class="st5" d="M108.4,73c3.3,0,4.5,2.5,4.5,5.9s-1.2,5.9-4.5,5.9s-4.5-2.5-4.5-5.9C104,75.4,105.1,73,108.4,73z M108.4,75.5
			c-1.6,0-1.8,1.6-1.8,3.3c0,1.8,0.2,3.4,1.8,3.4c1.6,0,1.8-1.5,1.8-3.4C110.2,77.1,110.1,75.5,108.4,75.5z"/>
		<path class="st5" d="M122.5,73.2v2.4h-5v2.2c0.4-0.5,1.2-0.8,2.1-0.8c2.5,0,3.5,1.9,3.5,3.8c0,2.5-1.4,4-4,4s-4.1-1.5-4.2-3.5h2.7
			c0.1,0.6,0.6,1.1,1.5,1.1c1,0,1.5-0.7,1.5-1.8c0-1.1-0.5-1.6-1.5-1.6c-0.8,0-1.2,0.4-1.4,1h-2.6v-6.9L122.5,73.2L122.5,73.2z"/>
	</g>
	<g>
		<g>
			<circle class="st0" cx="37.3" cy="79" r="5.2"/>
			<g>
				<g>
					<g>
						<g>
							<polygon class="st4" points="43.8,79 43.9,79 43.7,78.9 							"/>
							<path class="st4" d="M43.3,78.7L43.3,78.7c0.1,0,0.3,0.1,0.5,0.2C44.1,78.8,43.1,78.8,43.3,78.7z"/>
							<path class="st4" d="M43.4,78.6c0.1-0.1-0.1-0.1-0.2-0.1C43.4,78.6,43.1,78.7,43.4,78.6z"/>
							<path class="st4" d="M40.1,73.8C40.2,73.8,40.2,73.8,40.1,73.8C40.2,73.7,40.2,73.8,40.1,73.8z"/>
							<path class="st4" d="M38.5,74.1l-0.1,0.2c0.3-0.3,0.5,0.1,0.8,0.1v0.1c0.5,0.3,1.2,0.3,1.9,0.7L41,75.3
								c0.1,0,0.2-0.1,0.2-0.1l-0.1,0.1c-0.2,0.4,0.5,0.2,0.3,0.4c0.1,0,0.2-0.1,0.3-0.2c0.4,0.4,0.8,0.9,1.3,1.4
								c0,0-0.1,0.1-0.2,0.1c0.8,0.3,0.7,1,0.6,1.5c0.2,0,0.2-0.1,0.3,0c0.2-0.2-0.4-0.3-0.2-0.5h0.2c0.1-0.1-0.4,0-0.2-0.1
								c0.1-0.1,0.2,0,0.2,0c-0.1-0.2-0.1-0.6-0.5-0.7c0.3-0.2-0.1-0.3,0.2-0.5c-0.1,0-0.1-0.1-0.3,0c-0.2-0.9-1-1.5-1.6-2.1
								c-0.7,0.2-0.6-0.7-1.2-0.7c0,0,0,0,0-0.1c-0.2,0.1-0.4,0-0.6-0.1l-0.2,0.2c-0.4-0.5-1-0.6-1.5-0.7c-0.6-0.1-1.1,0-1.7,0
								c-0.7,0.1-1.3,0.2-1.9,0.5c-0.6,0.3-1,0.8-1.1,1.6l-0.1-0.1c-0.1,0.3-0.5,0.5-0.6,0.8h-0.1c0,0.5-0.2,0.9-0.3,1.3
								s-0.2,0.8,0,1.2c-0.1,0.9,0.1,2,0.6,2.8l-0.1,0.1c0.3,0.3,0.4,0.6,0.5,1s0.4,0.7,0.7,0.9c0.2,0.4,0.7,0.5,1.1,0.5
								c0.4,0,0.8,0,1.2,0.3c0.2,0.4,0.5,0.2,0.8,0.1c0.3-0.2,0.5-0.3,0.8,0c0.5,0.5,1.1,0.4,1.5,0.2c0.4-0.3,0.7-0.8,0.9-1.2
								c0.4-0.1,0.7-0.5,0.9-0.8c0.2-0.4,0.4-0.7,0.9-0.9c-0.1-0.3,0.1-0.4,0.3-0.5s0.5-0.3,0.5-0.5h-0.2c0.5-0.1-0.6-0.5,0.1-0.4
								l0,0c0.4,0-0.8-0.3-0.4-0.3h-0.2c0-0.1,0.2,0,0.3-0.1c0,0-0.3,0-0.2-0.1c0.7,0-0.1-0.2,0.7-0.2c0,0.1,0.3-0.1,0.5,0.1
								c0.1,0,0.1-0.2-0.3-0.2c-0.4,0-0.7-0.1-1,0h0.3c-0.3,0-0.1,0-0.3,0c0,0.1-0.4,0.1-0.6,0.2l0,0c0.3,0.1,0.1,0.1,0.1,0.2h-0.1
								c-0.3,0,0.6,0.2,0.1,0.1c0.1,0.2,0,0.5,0,0.7c0.2,0.1-0.1,0.2,0.3,0.2c-0.4-0.1-0.6,0-0.6,0.1h-0.1c-0.6-0.1,0.4,0.4-0.3,0.2
								c0.4,0.3-0.2,0.1,0.2,0.5c-0.1,0-0.2-0.1-0.3-0.1c-0.1,0.2-0.4,0.3-0.5,0.4c0.2,0.4-0.4,0.1-0.1,0.6c-0.2,0-0.5-0.1-0.4,0.2
								v-0.1c-0.1,0.1-0.3,0.3-0.2,0.7c-0.3-0.5-0.3-0.3-0.5-0.5c0,0.3-0.2,0.3-0.3,0.6c-0.1-0.2-0.1,0.2-0.2-0.2
								c-0.3,0.9-1.1,0.7-1.6,0.1l0,0c-0.1,0.2-0.2,0.7-0.4,0.9V84c-0.1,0.1-0.2-0.3-0.3-0.3c0-0.1,0-0.1,0-0.1
								c-0.1,0.1-0.1-0.3-0.3-0.1v-0.1l-0.1,0.1c0-0.1,0.1-0.3,0.1-0.2c-0.4-0.2-0.8-0.3-1.2-0.4s-0.9-0.4-1.1-0.8h0.1h-0.3
								c0.1,0,0.1,0,0.1-0.1c0.1-0.3-0.4-0.3-0.4-0.6c0.1,0,0.2,0,0.2-0.1c-0.4,0,0.3-0.4-0.4-0.2l0.2-0.1c-0.4-0.3-0.5-0.9-0.4-1.3
								c-0.3-0.2-0.3-0.4-0.3-0.6s0.1-0.4-0.1-0.7h0.1c-0.3-0.7,0.4-1.1,0.7-1.7c0.2-0.2,0.2-0.4,0.3-0.6l0.1,0.1
								c-0.1-0.4,0.2-0.4,0.4-0.5c0.3,0,0.5-0.1,0.5-0.5l0.1,0.2c-0.1-0.3,0.3,0,0-0.5l0.2,0.1c0-0.4,0.1-0.4,0.3-0.4
								s0.4,0.2,0.5-0.2v0.1c0.1-0.1,0.2-0.2,0.3-0.1v0.1c0.4,0.5,0.6-0.2,1-0.2v0.3c0.1-0.3,0.4,0,0.6-0.2v0.1l0.1-0.2v0.2
								C37.9,74.3,38.2,74.1,38.5,74.1z"/>
						</g>
					</g>
				</g>
			</g>
		</g>
		<g>
			<polyline class="st0" points="37.2,75.9 36.9,78 37.7,79.7 37.2,82.1 			"/>
			<g>
				<g>
					<g>
						<g>
							<path class="st4" d="M38.1,82.2L38.1,82.2l0.5,0.1C38.9,82.4,37.9,82.1,38.1,82.2z"/>
							<path class="st4" d="M38.1,82.2c0.1,0-0.1,0-0.2-0.1C38.1,82.2,37.8,82.1,38.1,82.2z"/>
							<path class="st4" d="M37.3,80.7h-0.2c0.4,0.1,0,0.1,0.1,0.2h-0.1c-0.1,0.1,0.2,0.3,0.4,0.5h-0.1c0.1,0,0.2,0.1,0.2,0.1h-0.1
								c-0.4,0,0.2,0.1-0.1,0.1c0,0,0.2,0,0.3,0.1s0.1,0.2,0.4,0.4c-0.1,0-0.1,0-0.3,0c0.6,0.2,0.3,0.3,0.2,0.3c0.2,0,0.2,0,0.3,0.1
								c0.2,0-0.4-0.1-0.1-0.1h0.1c0.1,0-0.4-0.1-0.2-0.1c0.1,0,0.2,0,0.2,0c-0.1-0.1,0.1-0.1-0.3-0.2c0.3,0.1,0,0,0.3,0
								c-0.1,0-0.1,0-0.3-0.1c0.2-0.1-0.1-0.3,0-0.5c-0.6-0.2,0.2-0.1,0-0.3c0,0,0,0,0.1,0c-0.1-0.1-0.2-0.1-0.1-0.1L37.7,81
								c0.6-0.1,0.2-0.4,0.5-0.5c0.2-0.1,0.8-0.6-0.1-0.8c0.1,0,0.1,0,0.1,0c-0.2-0.1,0-0.2-0.1-0.2h0.1c-0.6,0-0.1-0.4-0.7-0.3
								c0-0.2-0.2-0.3-0.4-0.4l0.1-0.1c-0.3,0,0.2-0.4,0-0.4c0.1-0.1,0-0.1-0.2-0.1s-0.4-0.1-0.2-0.2c0.6,0-0.7-0.3,0-0.3
								c1,0,0.4-0.3-0.2-0.6c0.4-0.1-0.5-0.4,0.2-0.5c-0.4-0.1,0.6-0.1,0.5-0.2h-0.2c0.5,0-0.6-0.2,0.1-0.1l0,0
								c0.4,0-0.8-0.2-0.4-0.1h-0.2c0,0,0.2,0,0.3,0c0,0-0.3,0-0.2,0c0.7,0.1-0.1-0.1,0.7,0c0,0,0.3,0,0.5,0.1c0.1,0,0,0-0.3-0.1
								c-0.4-0.1-0.7-0.1-1-0.1h0.3c-0.3,0-0.1,0-0.3,0c0,0-0.4,0-0.6,0l0,0c0.3,0.1,0.1,0,0.1,0.1H36c-0.3,0,0.6,0.1,0.1,0
								c0.1,0.1,0.1,0.1,0.1,0.2c0.2,0,0,0,0.4,0.1c-0.4,0-0.6,0-0.5,0H36c-0.6,0,0.5,0.1-0.2,0c0.5,0.1-0.2,0,0.4,0.1
								c-0.1,0-0.2,0-0.3,0c0,0.1-0.2,0.1-0.2,0.1c0.4,0.1-0.2,0.1,0.4,0.2c-0.1,0-0.4,0-0.2,0.1h-0.1c0,0,0.1,0.1,0.4,0.2
								c-0.6-0.1-0.5,0-0.6,0c0.3,0.1,0.2,0.1,0.4,0.2c-0.3,0,0.1,0.1-0.3,0c0.7,0.2,0.4,0.3-0.1,0.4l0,0c0.2,0.1,0.7,0.1,0.9,0.2
								h-0.1c0.1,0-0.3,0-0.3,0.1c-0.1,0-0.1,0-0.1,0c0.2,0-0.3,0.1,0,0.1h-0.1H36c-0.1,0-0.3,0-0.3,0c-0.1,0.1,0,0.2,0,0.3
								c0.3,0.2,0.7,0.3,0.7,0.5h-0.1l0.2-0.1c-0.1,0-0.1,0-0.1,0c-0.2,0.1,0.2,0,0.1,0.1c-0.1,0-0.2,0.1-0.2,0.1
								c0.3-0.1-0.4,0.2,0.3,0l-0.2,0.1c0.3,0,0.3,0.1,0.2,0.2c0.6-0.2,0.1,0.1,0.6,0l-0.1,0.1c0.5-0.1,0.1,0.2,0.2,0.3
								c0,0,0.1,0,0.1,0.1l0,0h-0.2c0.3,0,0.2,0.1,0,0.1c-0.1,0-0.3,0.1,0.1,0.1h-0.2c0.3,0-0.1,0,0.5,0.1h-0.2
								c0.8,0.2-0.4,0,0.1,0.2h-0.1c0.1,0,0.2,0.1,0.1,0.1h-0.1c-0.6,0,0,0.1,0,0.2l-0.3-0.1c0.3,0.1,0,0.1,0.1,0.2h-0.1l0.2,0.1
								h-0.2C37.1,80.6,37.3,80.6,37.3,80.7z"/>
						</g>
					</g>
				</g>
			</g>
		</g>
	</g>
	<g>
		<rect x="57.8" y="93.7" class="st6" width="83.4" height="19.4"/>
		<g>
			<g>
				<g>
					<g>
						<polygon class="st4" points="142.6,113.1 142.6,113 142.4,112.8 						"/>
						<path class="st4" d="M142.1,111.5c0,0-0.1,0-0.1,0.1l0.6,1C142.9,112.1,141.9,111.7,142.1,111.5z"/>
						<path class="st4" d="M142.2,111.2c0.1-0.4-0.1-0.5-0.2-0.6C142.1,110.7,141.9,111.2,142.2,111.2z"/>
						<path class="st4" d="M125.5,92.9L125.5,92.9C125.5,92.8,125.5,92.8,125.5,92.9z"/>
						<path class="st4" d="M116.8,93.8l-0.1,0.2c1.6-0.4,3.4,0,5.2-0.2l-0.1,0.1c4.3,0.1,8.3-0.3,12.7-0.5c-0.1,0-0.1,0.1-0.2,0.1
							c0.2-0.1,0.4-0.2,0.7-0.2c0.1,0-0.1,0.1-0.1,0.1c0.9,0.4,2.7-0.2,3.2,0.1c0.3,0,0.4-0.2,0.2-0.3c1.1,0,2.2-0.1,3.4-0.1
							c0,0.8,0,1.5,0.1,2.3c0,0.6,0.1,1.2,0.1,1.9c0.1,1.2,0.1,2.5,0.2,3.7c-0.1,0.2-0.2,0.2-0.3,0.1c0.6,2.9,0.4,6,0.3,9
							c0.2,0.1,0.2-0.3,0.3,0c0.2-1-0.4-1.8-0.1-2.6l0.2,0.1c0.1-0.6-0.4-0.1-0.2-0.8c0.1-0.3,0.2,0.1,0.2-0.1
							c-0.1-1.4,0.1-2.8-0.3-4c0.3-0.3,0-1.5,0.3-2c-0.1-0.4-0.1-0.7-0.3-0.8c0-1.1,0.1-2.1,0.1-3.2c0-1.4,0-2.8,0-4.2
							c-1.6,0-3.3,0.1-5,0.1c-1.3,0-2.7,0-4,0c-2.3,0.6-5-0.1-7.7,0.1c0,0,0,0,0-0.1c-0.9,0.2-2.2,0.2-3.2,0.2l-0.9,0.3
							c-6.3-0.6-12.8-0.2-19.2-0.4c-7.3-0.2-13.7-0.6-20.8,0.2c0-0.1,0-0.1,0.1-0.1c-2,0.1-3.9-0.1-5.8,0v-0.1
							c-4.8,0.5-10-0.1-14.6,0.5c-1.1,0-2.3,0-3.6,0c0,1.2,0,2.5,0,3.8c0,1.2,0,2.4,0,3.6c0,2.5,0.1,4.9,0.1,7.3h-0.1
							c0,0.8,0.1,1.7,0.1,2.5s0,1.7,0,2.6c1.6,0.1,3.2,0.1,4.7,0.2c1.5,0.1,3.1,0.1,4.6,0c4.9,0.3,10-0.7,15-0.3
							c3,0.6,7-0.7,9.9-0.1c5.9,1,11.6,0.3,17.5-0.2c5.4,0.3,10.8-0.5,16.1,0.2c2.5-0.4,5.2,0.6,8,0.4l-0.1-0.2c1,0.5,2.2-0.7,2.8,0
							h-0.1c0.5,0.4,1.2-0.8,1.5-0.4l0.1-0.2c0.6-0.1,0.1,0.2,0.6,0.3c0.2,0,0.1-0.3,0.5-0.2c0.1,0.7,1.6-0.2,1.6,0.7
							c-0.3,0,0.5,0.3-0.2,0.5c0.2,0.1,1.3,0,1.2-0.3c0.1-0.4,0.5-0.7-0.1-1l-0.1,0.3c-0.2-0.3-0.2-0.1-0.2-0.3
							c-0.8,0-1-0.4-1.6-0.6l0,0c-0.4,0.3-1,0.1-1.3,0.1l-0.1-0.1c-0.2-0.3-1,0.6-0.7,0.1c-1.7,0.1-3.7,0.1-5.6,0.1
							c-0.3,0.2-1.5,0-1.1,0.4c-0.5-0.4-1.9-0.6-2.4-0.5c0,0,0-0.1,0.1-0.1c-1-0.6-1.2,0.5-2.2-0.2c-0.2,0.5-1.8-0.2-2.3,0.4
							c-0.1-0.1-0.2-0.2-0.1-0.3c-1.7,0-3.7-0.2-5.1-0.2c-1.3,0.4-3-0.2-4.1,0.4c-0.9-0.1-2.3-0.4-3.6-0.1l0.1-0.1
							c-1.4,0-3.2,0.1-4.1,0.4c-0.4-0.6-1-0.5-1.6-0.6c-0.9,0.3-2.8,0.2-4.3,0.4c-0.2-0.3-1.2,0.1-1.3-0.3c-4,0.7-9,0.5-13.3-0.1
							h0.1c-0.6,0.2-1.2,0.7-1.8,1c-0.1,0,0-0.1,0.1-0.1c-0.8,0.1-1.5-0.3-2.3-0.2c0-0.1,0-0.1,0.1-0.1c-0.7,0.2-1.5-0.3-2.4,0V112
							l-0.6,0.1c0-0.1,0-0.3,0.3-0.3c-3.4-0.1-6.8,0.1-10.3,0.2c-1.7,0.1-3.5,0.1-5.2,0.2h-2.6h-1.3h-1.1c0.1,0,0.1-0.1,0.1-0.1
							c-0.2,0.1-0.5,0.1-0.8,0.2l0,0h0.1h0.1l0,0c0-0.3,0.1-0.4,0.1-0.6v-0.6v-0.6c-0.1-0.9-0.1-1.7-0.1-2.5c0.1,0,0.2,0.3,0.3,0
							c-0.3-1.2,0.5-2-0.3-2.6c0-0.1,0.2-0.1,0.3,0C59,102,59,98.4,59.1,95c-0.1-0.2-0.2-0.5-0.2-0.9c0.2,0,0.4-0.1,0.6-0.1h0.3h0.5
							c0.6,0,1.3,0,1.9,0c1.3,0,2.6,0,3.9-0.2v0.1c3.9-0.5,8,0,12-0.1c1.7,0.1,2.8-0.1,4.5-0.1v0.2c2.8-0.6,5.9,0.6,8.9-0.1L91.3,94
							c0.5-0.3,1.8,0.1,1.6-0.5l0.5,0.2c2-0.8,3.6,0.4,6.1-0.1l-0.2,0.1c0.7-0.1,1.4-0.2,1.9-0.1c-0.1,0,0,0.1-0.2,0.1
							c2,0.6,4.3-0.1,6.5,0l-0.2,0.3c1-0.3,3,0,4.3-0.2l-0.1,0.1l0.7-0.2v0.2C113.4,94,115.1,93.8,116.8,93.8z"/>
					</g>
				</g>
			</g>
		</g>
	</g>
	<g>
		<path class="st5" d="M73.9,98.6v8.7h-1.1l-4.6-6.9v6.9h-1.1v-8.7h1.1l4.6,6.9v-6.9H73.9z"/>
		<path class="st5" d="M79.8,107.4c-2.4,0-4.4-1.8-4.4-4.4s1.9-4.4,4.4-4.4s4.4,1.8,4.4,4.4C84.2,105.6,82.3,107.4,79.8,107.4z
			 M79.8,106.4c1.8,0,3.2-1.3,3.2-3.5c0-2.1-1.4-3.5-3.2-3.5c-1.8,0-3.2,1.3-3.2,3.5C76.6,105.1,78,106.4,79.8,106.4z"/>
		<path class="st5" d="M94.1,105.4h-3.8l-0.7,1.9h-1.1l3.1-8.6h1.3l3.1,8.6h-1.2L94.1,105.4z M92.2,100.1l-1.6,4.4h3.1L92.2,100.1z"
			/>
		<path class="st5" d="M104.7,103c0,2.7-1.8,4.3-4.6,4.3h-2.7v-8.7h2.7C103,98.7,104.7,100.3,104.7,103z M100.1,106.4
			c2.3,0,3.5-1.3,3.5-3.4s-1.2-3.4-3.5-3.4h-1.6v6.8H100.1z"/>
		<path class="st5" d="M106.2,98.7h1.2l3.2,7.1l3.2-7.1h1.2v8.6h-1.1v-6.4l-2.9,6.4h-0.8l-2.9-6.4v6.4h-1.1L106.2,98.7L106.2,98.7z"
			/>
		<path class="st5" d="M122.1,105.4h-3.8l-0.7,1.9h-1.2l3.1-8.6h1.3l3.1,8.6h-1.2L122.1,105.4z M120.2,100.1l-1.6,4.4h3.1
			L120.2,100.1z"/>
		<path class="st5" d="M125.4,98.7h1.1v8.7h-1.1V98.7z"/>
		<path class="st5" d="M129.6,98.7v7.8h3v0.9h-4.2v-8.7L129.6,98.7L129.6,98.7z"/>
	</g>
</g>
</svg>
