<?xml version="1.0" encoding="utf-8"?>
<!-- Generator: Adobe Illustrator 23.0.1, SVG Export Plug-In . SVG Version: 6.00 Build 0)  -->
<svg version="1.1" id="Layer_1" xmlns="http://www.w3.org/2000/svg" xmlns:xlink="http://www.w3.org/1999/xlink" x="0px" y="0px"
	 viewBox="0 0 200 170" style="enable-background:new 0 0 200 170;" xml:space="preserve">
<style type="text/css">
	.st0{fill:#EAB9C5;}
	.st1{fill:#D97294;}
	.st2{fill:#F5E1E5;}
	.st3{fill:#F8E9EC;}
	.st4{fill:#E299AD;}
	.st5{fill:#D45D85;}
	.st6{fill:#FDF8F9;}
	.st7{fill:#F3DADF;}
	.st8{fill:none;}
	.st9{fill:none;stroke:#B5DFCC;stroke-width:2;stroke-linecap:round;stroke-linejoin:round;stroke-miterlimit:10;}
	.st10{fill:#DB7C99;}
	.st11{fill:#FAF0F2;}
	.st12{fill:#F6E5E8;}
	.st13{fill:#DA7194;}
	.st14{fill:#F3A169;}
	.st15{fill:none;stroke:#EBB1C5;stroke-miterlimit:10;}
	.st16{fill:#0075C2;}
</style>
<g>
	<g>
		<rect x="91" y="101.9" class="st10" width="17.5" height="40.9"/>
		<g>
			<g>
				<g>
					<g>
						<polygon class="st5" points="109.2,142.8 109.3,142.8 109.2,142.6 						"/>
						<path class="st5" d="M109,141.9C109,141.9,108.9,141.9,109,141.9l0.2,0.6C109.4,142.2,108.9,142.1,109,141.9z"/>
						<path class="st5" d="M109,141.7c0.1-0.2-0.1-0.3-0.1-0.4C109,141.5,108.9,141.8,109,141.7z"/>
						<path class="st5" d="M108.5,117.9l-0.1-0.1c0.2,0.9,0,2,0.1,2.9v-0.1c0,2.5,0.1,4.7,0.2,7.2c0,0,0-0.1-0.1-0.1
							c0,0.1,0.1,0.2,0.1,0.4c0,0-0.1,0-0.1-0.1c-0.2,0.5,0.1,1.5,0,1.8c0,0.1,0.1,0.2,0.2,0.1c0,1.9,0.1,4,0.2,5.9
							c0,0.1-0.1,0.1-0.1,0.1c0.3,1.7,0.2,3.4,0.1,5.1c0.1,0.1,0.1-0.2,0.2,0c0.1-0.5-0.2-1,0-1.5l0.1,0.1c0-0.4-0.2-0.1-0.1-0.4
							c0.1-0.1,0.1,0,0.1,0c0-0.8,0-1.6-0.1-2.3c0.2-0.2,0-0.8,0.2-1.1c-0.1-0.2,0-0.4-0.2-0.5c0.1-2.7-0.1-5.4-0.1-8.2
							c-0.3-1.3,0.1-2.8,0-4.4l0,0c-0.1-0.5-0.1-1.2-0.1-1.8l-0.1-0.5c0.3-3.6,0.1-7.3,0.2-10.9c0-1.4,0.1-2.7,0.1-3.9
							c0-0.6,0-1.3,0-1.9v-2.4c-0.5,0-1,0-1.5,0c-0.3,0-0.7,0-1,0c-0.7,0-1.4,0.1-2.1,0.2c0,0,0,0,0.1-0.1c-1.2,0.1-2.2-0.1-3.3,0
							l0,0c-2.7,0.3-5.7,0-8.3,0.2c-0.6,0-1.3,0-2,0c0,1.3,0,2.8,0,4.2c0,1.4,0,2.8,0.1,4.2h-0.1c0.1,2.7-0.2,5.3-0.1,8
							c-0.1,2.8,0.4,5.7,0.2,8.5c-0.3,1.7,0.4,4,0,5.6c-0.5,3.3-0.2,6.6,0.1,9.9v0.5c0.6,0,1.3,0,2,0s1.4,0,2.1-0.1
							c1.4,0,2.8,0,4.2,0.1c1.4-0.2,3,0.3,4.5,0.2l-0.1-0.1c0.6,0.2,1.3-0.3,1.6,0h-0.1c0.3,0.2,0.7-0.4,0.9-0.2v-0.1
							c0.4,0,0,0.1,0.3,0.1c0.1,0,0-0.2,0.3-0.1c0,0.4,0.9-0.1,0.9,0.3c-0.2,0,0.3,0.2-0.1,0.2c0.1,0,0.7,0,0.7-0.2
							c0.1-0.2,0.3-0.3-0.1-0.5l-0.1,0.1c-0.1-0.1-0.1-0.1-0.1-0.2c-0.5,0-0.5-0.2-0.9-0.3l0,0c-0.2,0.2-0.6,0.1-0.7,0l-0.1-0.1
							c-0.1-0.2-0.5,0.3-0.4,0c-1,0.1-2.1,0.1-3.2,0.1c-0.2,0.1-0.8,0-0.6,0.2c-0.3-0.2-1.1-0.3-1.4-0.3c0,0,0,0,0.1,0
							c-0.6-0.3-0.7,0.3-1.2-0.1c-0.1,0.2-1-0.1-1.3,0.2c-0.1-0.1-0.1-0.1-0.1-0.1c-1,0-2.1-0.1-2.9-0.1c-0.7,0.2-1.7-0.1-2.3,0.2
							c-0.3,0-0.6-0.1-0.9-0.1H92c-0.1,0-0.2,0-0.2,0h-0.1l0,0l0,0v-0.1c0-0.2,0-0.4,0-0.5c0-0.4-0.1-0.8-0.2-1
							c0.3-0.2,0.2-0.6,0.3-0.9c-0.1-0.5-0.1-1.6-0.2-2.4c0.1-0.1-0.1-0.7,0.1-0.7c-0.4-2.3-0.2-5.1,0-7.6l0,0
							c-0.1-0.3-0.3-0.7-0.5-1l0,0c0-0.4,0.2-0.9,0.1-1.3c0,0,0,0,0.1,0.1c-0.1-0.4,0.2-0.9,0-1.4h0.1l-0.1-0.3c0.1,0,0.2,0,0.1,0.2
							c0.1-3.8-0.3-7.8-0.2-11.7l0.1,0.1l-0.1-0.8c0,0,0,0,0.1,0.1c0.1-1-0.1-2,0-2.9c0,0,0.1,0.1,0.1,0c-0.2-0.7,0.2-1.1-0.1-1.5
							c0,0,0.1-0.1,0.1,0c-0.1-2-0.1-4-0.1-5.9c-0.1-0.2-0.1-0.3-0.1-0.5c0.3-0.1,1.2-0.1,1.9-0.1c0.7,0,1.5,0,2.2-0.1v0.1
							c2.2-0.2,4.5,0,6.8,0c0.9,0,1.6-0.1,2.5-0.1v0.1c0.6-0.1,1.2-0.1,1.8-0.1c0.6,0,1.3,0.1,1.7,0.1c0,0.2,0,0.3,0,0.5
							s0,0.4,0.1,0.6l-0.1-0.1c0.2,0.3-0.1,1,0.2,0.9l-0.1,0.3c0.4,1.1-0.2,2.1,0.1,3.5l-0.1-0.1c0.1,0.4,0.1,0.8,0,1.1
							c0,0,0,0,0-0.1c-0.3,1.2,0,2.5,0,3.7l-0.1-0.1c0.2,0.6,0,1.7,0.1,2.5h-0.1l0.1,0.4h-0.1C108.4,116,108.5,116.9,108.5,117.9z"
							/>
					</g>
				</g>
			</g>
		</g>
	</g>
	<g>
		
			<rect x="64.5" y="-28.7" transform="matrix(4.686474e-02 -0.9989 0.9989 4.686474e-02 28.1384 163.7984)" class="st0" width="70.9" height="191.8"/>
		<g>
			<g>
				<g>
					<g>
						<path class="st5" d="M194.5,102.9c0,0.1-0.1,0.1-0.1,0.2l0.2,2.5C194.9,104.5,194.4,103.7,194.5,102.9z"/>
						<path class="st5" d="M194.6,102.2c0.1-1,0-1.4,0-1.6C194.7,101,194.5,102.4,194.6,102.2z"/>
						<path class="st5" d="M156.2,34.5l-0.2,0.1c4.1,0,8.8,0.4,13.1,0.5h-0.3c9.8,0.5,18.8,0.8,28.5,1.1c0,1.3-0.1,2.6-0.1,3.9
							c0-0.2,0-0.2,0-0.4c0,0.5,0.1,1.1,0,1.7c0,0.2,0-0.2,0-0.4c-0.3,2.3-0.2,6.8-0.4,8.3c0,0.7,0.1,0.9,0.1,0.6
							c-0.4,8.6-0.8,17.8-1,26.6c0,0.4-0.1,0.5-0.2,0.4c-0.1,7.5-0.5,15.3-0.9,23c0.1,0.3,0.1-0.8,0.2,0c0.2-2.5,0-4.5,0.3-6.7
							l0.1,0.3c0.1-1.6-0.2-0.3,0-2c0.1-0.7,0.1,0.2,0.1-0.1c0.1-3.5,0.4-7.1,0.3-10.3c0.2-0.8,0.2-3.7,0.4-5c0-0.9,0-1.8-0.1-2.1
							c0.7-12.1,1.1-24.4,1.7-36.8c0-0.3,0-0.7,0-1.1c-0.8,0-1.7,0-2.5,0c-0.7,0-1.5-0.1-2.2-0.1c-1.5-0.1-3.1-0.2-4.7-0.3
							c-3.2-0.2-6.5-0.4-9.8-0.5l0,0c-2.2,0-5.5-0.1-8.2-0.3h-2.3c-16.1-1-32.6-1.6-48.9-2.5c-18.6-1-34.8-1.9-53-2.4
							c0,0-0.1-0.1,0.3,0c-5.2-0.2-10-0.5-14.9-0.7l0,0c-12.2-0.3-25.4-1.2-37.2-1.5c-2.7-0.1-5.5-0.3-8.7-0.4
							c-0.6,11.7-1.2,24.7-1.8,37H3.8C3.6,70.1,3.3,75.7,3,81.3c-0.2,2.8-0.3,5.6-0.5,8.4c-0.1,2.9-0.3,5.8-0.4,8.7
							c0.8,0,1.6,0.1,2.4,0.1c12.4,0.7,25.6,0.8,38.2,1.6c7.8,0.7,18,0.5,25.3,1.2c15,1.2,29.5,1.6,44.5,2c13.8,0.8,27.6,1,41,2
							c6.4,0.1,13.3,0.9,20.4,1.2l-0.2-0.1c2.5,0.4,5.7-0.1,7.2,0.4h-0.3c1.3,0.2,3.1-0.3,3.9,0l0.2-0.1c1.6,0.1,0.2,0.1,1.4,0.2
							c0.5,0,0.2-0.2,1.2-0.1c0.2,0.4,4,0.1,4.1,0.5c-0.9,0,1.4,0.2-0.6,0.2c0.6,0.1,3.3,0.2,3.1,0c0.2-0.2,1.3-0.3-0.3-0.5
							l-0.3,0.1c-0.6-0.2-0.4-0.1-0.6-0.2c-2.2-0.1-2.4-0.3-4-0.5l0,0c-1.1,0.1-2.5-0.1-3.4-0.1l-0.3-0.1c-0.5-0.2-2.5,0.2-1.8,0
							c-4.4-0.1-9.4-0.4-14.3-0.6c-0.7,0.1-3.8-0.2-2.7,0.1c-1.2-0.3-4.9-0.5-6.2-0.6c0.1,0,0.1,0,0.3,0c-2.6-0.4-3.1,0.1-5.6-0.3
							c-0.4,0.2-4.5-0.3-5.9-0.1c-0.3-0.1-0.4-0.1-0.3-0.2c-4.4-0.2-9.3-0.5-13.1-0.7c-3.2,0.1-7.8-0.5-10.5-0.3
							c-2.3-0.2-6-0.5-9.2-0.5h0.3c-3.6-0.2-8.1-0.3-10.6-0.3c-1.1-0.3-2.6-0.4-4.2-0.5c-2.4,0-7.3-0.2-10.9-0.3
							c-0.6-0.2-3-0.1-3.2-0.3c-10.3-0.1-23-0.8-34-1.6h0.2c-1.4,0-3.1,0.2-4.5,0.3c-0.1,0-0.1-0.1,0.2,0c-2-0.1-3.9-0.3-5.9-0.4
							c0,0,0,0,0.3,0c-1.9,0-3.9-0.3-6.1-0.3l-0.1-0.1h-1.4c0-0.1,0.1-0.2,0.8-0.1c-5.6-0.3-11.3-0.5-16.9-0.8
							c-5.6-0.2-11.2-0.4-16.8-0.7C3,94.9,3.1,92,3.3,89l0.4-9.3v0.7L3.8,77c0,0,0,0.2,0,0.3c0.3-4.4,0.3-8.9,0.6-13.2
							c0,0,0.1,0.7,0.1,0.1c0-3.2,0.5-5,0.2-6.6c0-0.1,0.1-0.2,0.1,0.1C5.1,48.9,5.5,39.9,6,31.1c0-1.1,0-2.2,0-3.3
							c0.7,0,1.4,0,2.2,0.1c0.8,0,1.6,0.1,2.4,0.1c1.6,0.1,3.3,0.2,5,0.2c3.3,0.2,6.6,0.3,9.9,0.3v0.1c9.9,0.2,20.4,1,30.6,1.4
							c4.3,0.2,7.1,0.3,11.4,0.5l0.1,0.1c7.2,0,15.1,1,22.6,1l-0.5,0.1c1.2-0.1,4.5,0.3,4.1,0l1.3,0.2c5.1-0.1,9.3,0.6,15.5,0.7
							l-0.4,0.1c1.7,0,3.6,0.1,4.8,0.2c-0.2,0-0.1,0-0.5,0c5.2,0.5,11,0.5,16.5,0.8l-0.6,0.1c2.7,0,7.5,0.3,11,0.4l-0.2,0.1h1.8v0.1
							C147.5,34.2,151.8,34.3,156.2,34.5z"/>
						<path class="st5" d="M188.1,106.3c0.2,0,0.4,0,0.6,0.1C188.6,106.3,188.2,106.3,188.1,106.3z"/>
					</g>
				</g>
			</g>
		</g>
	</g>
	<g>
		<g>
			<path class="st7" d="M50.1,46.2c-0.3-1.5-1.1-2.6-2.4-3.3c-0.8-0.4-1.6-0.6-2.5-0.6c-1.8-0.1-3.3,0.5-4.5,1.8s-1.9,3.3-2,6
				s0.4,4.7,1.6,5.9c1.2,1.2,2.6,1.8,4.2,1.9c1.6,0.1,2.9-0.3,3.9-1.2s1.7-2,2-3.4l-5.2-0.2l0.2-3.7l9.3,0.4l-0.6,12L51,61.7
				l-0.3-2.8c-0.9,1-1.8,1.7-2.5,2.1c-1.3,0.7-2.8,1-4.6,0.9c-3-0.1-5.3-1.3-7.1-3.4c-1.9-2.1-2.7-5-2.6-8.6
				c0.2-3.6,1.3-6.4,3.4-8.5c2.1-2.1,4.8-3,8-2.9c2.8,0.1,5.1,1,6.7,2.5s2.6,3.4,2.7,5.5L50.1,46.2z"/>
			<g>
				<path class="st8" d="M50.1,46.2c-0.3-1.5-1.1-2.6-2.4-3.3c-0.8-0.4-1.6-0.6-2.5-0.6c-1.8-0.1-3.3,0.5-4.5,1.8s-1.9,3.3-2,6
					s0.4,4.7,1.6,5.9c1.2,1.2,2.6,1.8,4.2,1.9c1.6,0.1,2.9-0.3,3.9-1.2s1.7-2,2-3.4l-5.2-0.2l0.2-3.7l9.3,0.4l-0.6,12L51,61.7
					l-0.3-2.8c-0.9,1-1.8,1.7-2.5,2.1c-1.3,0.7-2.8,1-4.6,0.9c-3-0.1-5.3-1.3-7.1-3.4c-1.9-2.1-2.7-5-2.6-8.6
					c0.2-3.6,1.3-6.4,3.4-8.5c2.1-2.1,4.8-3,8-2.9c2.8,0.1,5.1,1,6.7,2.5s2.6,3.4,2.7,5.5L50.1,46.2z"/>
				<g>
					<g>
						<g>
							<polygon class="st5" points="50,46.8 50.1,46.9 50.3,46.8 							"/>
							<path class="st5" d="M51.1,46.7C51.1,46.6,51.1,46.6,51.1,46.7l-0.7,0.2C50.7,47,51,46.5,51.1,46.7z"/>
							<path class="st5" d="M51.3,46.7c0.2,0.1,0.4-0.1,0.4-0.1C51.6,46.7,51.3,46.5,51.3,46.7z"/>
							<path class="st5" d="M36.1,42.8l0.1,0.1c0.4-1,1.4-1.7,2.2-2.5v0.1c2.3-1.7,5-2.3,7.8-2.1h-0.1c0.1,0,0.3-0.1,0.5,0
								c0,0,0,0-0.1,0.1c0.6,0.2,1.8,0.2,2.1,0.5c0.2,0,0.3,0,0.2-0.1c2.2,0.6,4.3,2.2,5.5,4.2c0,0.1,0,0.2-0.1,0.2
								c0.3,0.4,0.5,0.9,0.7,1.4c0.1,0.2,0.2,0.5,0.2,0.8c0,0.1,0.1,0.3,0.1,0.5l0.1,0.6v0.3V47h-0.2h-0.6l-1-0.1
								c-0.5,0-1-0.1-1.5-0.1c-0.1,0.1,0.2,0.1,0,0.2c0.6,0.1,1.2-0.1,1.7,0l-0.1,0.1c0.2,0,0.2,0,0.3-0.1c0,0,0.1-0.1,0.5,0
								c0.3,0.1,0,0.1,0.1,0.1h0.6c0.1,0,0.2,0,0.3,0v-0.3c0-0.4-0.1-0.8-0.1-1.2c-0.1-0.5-0.2-0.9-0.5-1.3c0.1-0.3-0.4-0.9-0.4-1.3
								c-0.2-0.2-0.3-0.4-0.4-0.4c-0.9-1.4-2.1-2.6-3.7-3.3c-1.5-0.7-3.2-1-4.8-1.1c-0.8,0.1-1.6,0.1-2.5,0.2
								c-0.9,0.1-1.8,0.2-2.6,0.6l0,0c-0.5,0.3-1.3,0.7-1.9,1.1c-0.1,0.1-0.3,0.3-0.4,0.5c-1.8,1.2-3,3.1-3.7,5.2
								c-0.7,2.1-0.8,4.2-0.8,6.4c0.1,2.4,0.9,4.8,2.4,6.6c1.4,1.8,3.6,3.1,6.1,3.3c0,0,0,0.1-0.1,0c1.4,0.2,2.6,0.3,3.9,0.1l0,0
								c1-0.2,1.9-0.6,2.8-1.1c0.4-0.3,0.8-0.6,1.2-0.9c0.3-0.3,0.5-0.5,0.7-0.7c0.1,0.8,0.3,1.6,0.4,2.4c0.4,0,0.8,0,1.1,0
								c0.7,0,1.4,0.1,2.3,0.1c0.1-1.6,0.1-3.2,0.2-4.9c0.1-1.6,0.1-3.3,0.2-4.9h0.1c0-0.8,0-1.5,0.1-2.4c-2.4-0.1-4.6-0.4-7-0.5
								c-0.4,0-0.8-0.1-1.2-0.1c-0.5,0-0.9,0-1.4,0c0,0.9,0,1.4,0,2.1v1.9c1.3,0,2.5,0,3.8,0.2c0.2,0.1,0.5,0.1,0.7,0.1h0.3
								c0.1,0,0.1,0,0.2,0v0.2c-0.1,0.4-0.2,1-0.5,1.5c-0.5,1-1.3,2-2.3,2.2c-0.9,0.3-1.9,0.4-2.8,0.4c-0.9,0-1.8-0.3-2.7-0.7
								c-0.8-0.4-1.6-1-2.2-1.7c-0.6-0.7-1-1.7-1.2-2.6c-0.2-1.8-0.1-3.6,0.2-5.4c0.2-0.9,0.5-1.7,1-2.5s1.2-1.4,2-1.8
								c0.6-0.5,1.5-0.8,2.4-0.8s1.8,0.2,2.6,0.4v-0.1c0.3,0.2,0.6,0.3,1,0.3c0.3,0.1,0.6,0.2,0.7,0.5h-0.1c0.1,0.3,0.9,0.2,0.9,0.5
								h0.1c0.3,0.3,0,0.1,0.1,0.4c0.1,0.1,0.2,0,0.3,0.2c-0.1,0.1,0,0.3,0.1,0.6c0.1,0.2,0.2,0.5,0,0.5c-0.1-0.2,0,0.4-0.3-0.1
								c0,0.1,0.2,0.8,0.3,0.7c0.2,0,0.4,0.3,0.5-0.2l-0.1-0.1c0.1-0.2,0-0.1,0.1-0.2c-0.1-0.6,0-0.7-0.1-1.1l0,0
								c-0.3-0.2-0.4-0.6-0.5-0.8v-0.1c0-0.2-0.7-0.3-0.4-0.4c-0.9-0.9-2.3-1.4-3.7-1.5c-0.2,0.1-1-0.1-0.7,0.1
								c-0.3-0.2-1.4-0.2-1.7-0.1c0,0,0-0.1,0.1-0.1c-0.8-0.1-0.7,0.5-1.5,0.5c0,0.2-1.1,0.7-1.2,1.2c-0.1,0-0.2,0-0.2,0
								c-0.9,0.9-1.6,2.1-1.9,3.1c-0.1,0.9-0.5,2.1-0.3,2.8c-0.1,0.6-0.3,1.6-0.1,2.5v-0.1c0.1,1,0.4,2.2,0.8,2.8
								c-0.2,0.4,0.1,0.8,0.3,1.2c0.5,0.5,1.5,1.5,2.5,1.8c0.1,0.2,0.8,0.3,0.8,0.5c1.5,0.3,3,0.3,4.6-0.2c1.5-0.5,2.8-1.8,3.6-3.2
								l0,0c0-0.2,0-0.4,0-0.8c0-0.3,0-0.5-0.1-0.7c0-0.1,0.1-0.1,0,0c0-0.1,0-0.2,0-0.2h-0.2l-0.5-0.1l-0.5-0.1c-0.1,0-0.3,0-0.4,0
								c0,0,0,0,0.1-0.1c-0.5,0.1-1-0.2-1.6-0.1v-0.1l-0.4,0.1c0-0.1,0-0.2,0.2-0.1c-0.6,0-1.7-0.1-1.6-0.1v-0.1v-0.1v-0.2V51v-0.9
								v-0.2v-0.1v-0.2h0.2h0.1h0.2h1h1.9c1.3,0,2.6,0.1,3.9,0.1l-0.4,0.4l0.9-0.1c0,0,0,0-0.1,0.1h0.3c0.1,0,0.1,0,0.2,0V51
								c0,0.4,0,0.8,0,1.2c0,0-0.1-0.2-0.1,0c0.1,0.8-0.3,1.3,0.1,1.7c0,0-0.1,0.1-0.1,0c0,2.3-0.1,4.6-0.3,6.9V61v0.2
								c0,0.1,0,0.2,0,0.3c-0.1,0-0.3,0-0.5,0h-0.8c-0.5,0-0.9,0-1.4-0.1c-0.1-0.4-0.2-1.1-0.3-1.8h0.1c-0.1-0.3-0.1-0.7-0.2-0.9
								c-0.9,1-1.7,1.8-2.8,2.3c-1,0.5-2.2,0.7-3.3,0.8c-1.1,0-1.8,0-2.9-0.2v-0.1c-0.9,0-1.9-0.5-2.7-1s-1.5-1.2-2.3-1.8h0.2
								c-0.3-0.1-0.7-0.9-0.9-0.7l-0.1-0.3c-0.5-0.4-0.8-1-1-1.6s-0.4-1.3-0.7-2l0.1,0.1c-0.2-0.4-0.3-0.9-0.3-1.2c0,0,0,0,0.1,0.1
								c0.1-1.3-0.3-2.8-0.1-4.2l0.1,0.2c-0.1-0.7,0.2-1.9,0.4-2.8v0.1c0-0.2,0-0.3,0-0.5h0.1C35,44.7,35.4,43.7,36.1,42.8z"/>
							<path class="st5" d="M50.1,44.5c0,0.1,0,0.1,0.1,0.2C50.2,44.6,50.1,44.5,50.1,44.5z"/>
						</g>
					</g>
				</g>
			</g>
		</g>
		<g>
			<path class="st7" d="M65.9,39.9l5.3,0.2L78,62.8l-5-0.2L71.7,58l-8.2-0.4l-1.7,4.5l-4.9-0.2L65.9,39.9z M64.9,53.8l5.7,0.3
				l-2.4-8.9L64.9,53.8z"/>
			<g>
				<path class="st8" d="M65.9,39.9l5.3,0.2L78,62.8l-5-0.2L71.7,58l-8.2-0.4l-1.7,4.5l-4.9-0.2L65.9,39.9z M64.9,53.8l5.7,0.3
					l-2.4-8.9L64.9,53.8z"/>
				<g>
					<g>
						<g>
							<path class="st5" d="M65.4,53.8C65.4,53.8,65.3,53.8,65.4,53.8l0.2,0.2C65.7,54,65.3,53.8,65.4,53.8z"/>
							<path class="st5" d="M65.4,53.7c0.1,0,0-0.1-0.1-0.1C65.4,53.7,65.3,53.7,65.4,53.7z"/>
							<path class="st5" d="M66.7,49L66.7,49c0,0.2-0.2,0.3-0.2,0.5l0,0c-0.2,0.5-0.2,1-0.3,1.5l0,0l0.1,0.1c0,0,0,0-0.1,0
								c-0.2,0,0,0.3-0.2,0.3l0.1,0.1c-0.1,0.4-0.2,0.8-0.2,1.2h-0.1c0.2,0.4-0.1,0.7-0.3,1c0.1,0,0.1,0,0.2,0.1
								c0.1-0.1-0.1-0.3,0.1-0.3h0.1c0.1-0.1-0.2-0.1-0.1-0.1s0.1,0,0.1,0c0-0.2,0.2-0.3,0-0.5c0.2,0,0.1-0.2,0.2-0.2
								c0-0.1,0-0.1-0.1-0.1c0.3-0.5,0.3-1.1,0.6-1.6c-0.2-0.4,0.3-0.5,0.3-0.9l0,0c0-0.1,0-0.3,0.1-0.4l-0.1-0.1
								c0.5-0.6,0.6-1.4,1-2c0.1-0.2,0.1-0.2,0.2-0.3l0.1-0.1c0-0.1,0-0.2,0.1-1v-0.1c0,0.1,0,0.1,0,0.2c0.1-0.1,0,0.4,0.1,0.3v0.1
								c0.1-0.1,0.2,0.1,0.2,0.3s0.1,0.3,0.3,0.6c0.1,0.6,0.4,1.4,0.6,2h-0.1c0.3,0.5,0.1,1.1,0.3,1.6c0,0.6,0.7,1,0.6,1.7
								c-0.1,0.2,0,0.4,0.2,0.6c0.1,0.2,0.3,0.5,0.2,0.6h-0.1c-0.6-0.2-0.7-0.3-0.9-0.2c-0.3,0-0.7,0.2-1,0.3
								c-0.6-0.2-1.3,0.2-1.9-0.2c-0.3,0.2-0.6-0.3-0.9-0.3v0.1c-0.1-0.2-0.3,0.3-0.3,0l0,0c-0.1-0.2-0.2,0.4-0.2,0.2v0.1
								c-0.1,0,0-0.1-0.1-0.1c0,0,0,0.2-0.1,0.1c0-0.4-0.2,0.1-0.2-0.3c0,0-0.1-0.2,0-0.2c0,0-0.2,0-0.1,0.1c0,0.2-0.1,0.3,0,0.5
								v-0.1c0,0.1,0,0.1,0,0.2c0.1,0,0.1,0.2,0.2,0.3l0,0c0.1-0.2,0.1-0.1,0.2,0v0.1c0,0.2,0.1-0.3,0.1,0c0.2-0.1,0.4,0,0.7,0
								c0-0.1,0.2,0,0.1-0.2c0,0.2,0.2,0.3,0.3,0.3l0,0c0.1,0.3,0.2-0.3,0.3,0.1c0-0.2,0.2,0.1,0.3-0.2c0,0.1,0,0.1,0,0.1
								c0.2,0,0.4,0.1,0.6,0.1c0.2-0.2,0.4,0.1,0.5-0.2c0.1,0.1,0.3,0.2,0.4,0.1l0,0c0.2,0,0.4,0,0.5-0.2c0,0.3,0.1,0.2,0.2,0.3
								c0.1-0.1,0.3-0.1,0.5-0.2c0.1,0.1,0.2,0,0.3,0.1c0.4-0.2,0.7-0.2,1.2-0.2c-0.1-0.4-0.1-0.7,0-1.2l0,0
								c-0.1-0.1-0.4-0.2-0.6-0.3l0,0c-0.1-0.1,0.1-0.2,0-0.3c0,0,0,0,0.1,0c-0.1-0.1,0.1-0.2-0.1-0.3l0,0h-0.1c0.1,0,0.2,0,0.1,0
								c-0.1-0.8-0.7-1.5-0.8-2.3H70l-0.1-0.1c0,0,0,0,0.1,0c0.1-0.2-0.2-0.4-0.2-0.6h0.1c-0.2-0.1,0.2-0.3-0.2-0.3h0.1
								c-0.2-0.4-0.3-0.8-0.4-1.2c-0.4-0.3-0.2-0.7-0.6-1h0.1c-0.2-0.2-0.2-0.4-0.3-0.7c0-0.3-0.1-0.7-0.2-0.9
								c-0.1-0.3-0.1-0.2-0.2-0.4v-0.3c-0.1,0.7-0.1,0.6-0.2,0.6s-0.2,0.2-0.2,0.7v-0.2c0,0.4-0.1,0.1,0,0.6c0,0,0-0.1-0.1-0.1
								c0.1,0.4,0,0.4-0.1,0.4s-0.2,0.1-0.1,0.3l-0.1-0.1c0,0.1,0,0.2-0.1,0.2l0,0c-0.3,0.1-0.2,0.5-0.3,0.7l-0.1-0.1
								c0.1,0.2-0.1,0.3-0.1,0.5h-0.1l0.1,0.1h-0.1C66.7,48.5,66.7,48.8,66.7,49z"/>
							<path class="st5" d="M65.2,54.4C65.1,54.4,65.1,54.3,65.2,54.4C65.1,54.4,65.1,54.4,65.2,54.4z"/>
						</g>
					</g>
				</g>
				<g>
					<g>
						<g>
							<polygon class="st5" points="65.2,39.7 65.2,39.7 65.3,39.8 							"/>
							<path class="st5" d="M65.2,40.4C65.2,40.4,65.3,40.4,65.2,40.4l-0.1-0.5C64.9,40,65.4,40.3,65.2,40.4z"/>
							<path class="st5" d="M65.1,40.5c-0.1,0.1,0,0.2,0,0.3C65.1,40.6,65.3,40.5,65.1,40.5z"/>
							<path class="st5" d="M59.4,55.8L59.4,55.8c0.1-0.6,0.6-1.2,0.8-1.8v0.1c0.7-1.6,1.1-3.1,1.7-4.7c0,0,0,0,0,0.1
								c0-0.1,0-0.2,0-0.3c0,0,0,0,0,0.1c0.3-0.3,0.3-1,0.5-1.2c0-0.1,0-0.2-0.1-0.1c0.5-1.2,1-2.6,1.3-3.8c0-0.1,0.1,0,0.2,0
								C64,43,64.5,42,65,40.9c-0.1-0.1-0.1,0.1-0.2-0.1c-0.2,0.3-0.1,0.7-0.3,1l-0.1-0.1c-0.1,0.2,0.2,0.1,0,0.3
								c-0.1,0.1-0.1-0.1-0.1,0c-0.2,0.5-0.4,1-0.5,1.5c-0.2,0.1-0.2,0.5-0.4,0.6c0,0.2-0.1,0.3,0,0.4c-0.8,1.7-1.4,3.5-2.1,5.2
								c0,0.9-0.8,1.8-1.1,2.8l0,0c-0.1,0.3-0.2,0.8-0.4,1.2v0.4c-0.6,1.1-1.1,2.2-1.6,3.4l-0.7,1.7l-0.4,0.9L56.7,61
								c-0.2,0.4-0.4,0.8-0.5,1.2c1,0.1,2,0.2,3,0.2c0.4,0,0.8,0,1.2,0.1c0.5,0,1,0,1.6,0.1l0.3-0.9l0.2-0.6
								c0.1-0.4,0.2-0.8,0.3-1.2c0,0,0.1,0,0,0.1c0.1-0.4,0.3-0.7,0.4-1.1l0.2-0.5l0.1-0.3v-0.2l0,0v-0.1c0.1,0,0.7,0,1.1,0l1.4,0.1
								c0.9,0,1.8,0.1,2.7,0c0.8,0,1.7,0.1,2.6,0.1c0.2,0.6,0.4,1.3,0.6,2s0.4,1.4,0.6,2.1h-0.1c0.1,0.2,0.1,0.4,0.2,0.6
								c0.9,0,1.7,0.1,2.5,0.2l1.2,0.1H77h0.8h0.1c-0.1-0.5-0.4-1.2-0.5-1.6c-0.2-0.5-0.3-0.9-0.5-1.4c-0.4-0.9-0.7-1.8-0.9-2.7
								c0-1.2-1.1-2.5-1.2-3.7c-0.2-2.3-1.1-4.4-2.1-6.5c-0.4-2.1-1.5-4-1.7-6c-0.1-0.1-0.1-0.3-0.2-0.4c0-0.1-0.1-0.2-0.1-0.4
								c-0.3,0-0.7-0.1-1-0.2C69.3,40,69,40,68.6,40v0.1c-0.4-0.3-0.9,0.3-1.1-0.1l0,0c-0.2-0.2-0.5,0.4-0.6,0.2v0.1
								c-0.2,0,0-0.1-0.2-0.1c-0.1,0,0,0.2-0.2,0.1c0-0.4-0.6,0-0.6-0.4c0.1,0-0.2-0.2,0.1-0.2c-0.1,0-0.5,0-0.5,0.1
								c0,0.2-0.2,0.3,0,0.5l0.1-0.1c0.1,0.1,0.1,0.1,0.1,0.2c0.3,0,0.4,0.2,0.6,0.3l0,0c0.2-0.2,0.4,0,0.5,0v0.1
								c0.1,0.2,0.4-0.3,0.3,0c0.7,0,1.4,0,2.2,0c0.1-0.1,0.6,0,0.4-0.2c0.1,0.1,0.3,0.2,0.5,0.2c0.1,0,0.1,0.1,0.1,0.1l0,0
								c0,0,0,0,0,0.1c-0.1,0.1,0.2-0.2,0.1,0.3c0.3,0,0.1,0.7,0.5,0.8c0,0.1-0.1,0.1-0.1,0.1c0.2,0.7,0.3,1.4,0.5,2
								c0.4,0.4,0.2,1.2,0.7,1.5c0,0.4,0.1,0.9,0.3,1.4l0,0c0.2,0.5,0.4,1.2,0.7,1.5c-0.2,0.2-0.1,0.5-0.1,0.7
								c0.2,0.3,0.4,1,0.7,1.5c-0.1,0.1,0.2,0.4,0,0.5c0.8,1.4,1.3,3.3,1.5,5l0,0c0.2,0.2,0.5,0.4,0.7,0.5c0,0,0,0-0.1,0
								c0.1,0.3,0,0.6,0.1,0.9c0,0,0,0-0.1,0c0.2,0.3,0,0.6,0.3,0.9l0,0l0.1,0.2c-0.1,0-0.2,0-0.2-0.1c0.2,0.8,0.5,1.5,0.7,2.3
								l0.4,1.1c0.1,0.2,0.1,0.3,0.1,0.3l0.1,0.3h-0.3h-0.1h-0.2h-0.4c-0.5,0-1.1,0-1.6-0.1l0.1-0.1l-0.5,0.1c0,0,0,0,0.1-0.1
								c-0.2,0-0.5-0.1-0.7-0.1h-0.2h-0.1h-0.2c0-0.1-0.1-0.2-0.1-0.3c0,0,0.1,0.1,0.1,0c-0.3-0.4,0-0.8-0.4-0.9c0,0,0.1-0.1,0.1,0
								c-0.2-0.5-0.4-1-0.5-1.5c-0.2-0.6-0.3-0.9-0.5-1.8l-1.1-0.1c-1.1,0.3-2.4-0.1-3.6,0.1v-0.1c-0.6,0.1-1.3,0-1.9,0
								c-0.7-0.1-1.3-0.1-2-0.2c-0.1,0.3-0.3,0.6-0.3,0.9c-0.3,0.6-0.3,1-0.6,1.7h-0.1c0,0.4-0.2,0.7-0.3,1l-0.2,0.5l-0.2,0.4
								c-0.2,0-0.3,0-0.5,0s-0.4,0-0.6,0.1l0.1-0.1c-0.2,0.2-0.7-0.1-0.6,0.2l-0.2-0.1c-0.8,0.4-1.4-0.2-2.4,0l0.1-0.1
								c-0.2,0-0.4,0-0.6,0c0-0.1,0.1-0.2,0.1-0.2l0,0c0.3-0.4,0.4-0.6,0.5-1.1c0.1-0.4,0.2-0.8,0.4-1.2l0.1,0.1
								c0-0.4,0.4-1.1,0.6-1.6v0.1v-0.3h0.1C59,57.1,59.2,56.5,59.4,55.8z"/>
						</g>
					</g>
				</g>
			</g>
		</g>
		<g>
			<path class="st7" d="M96.1,41.9c0.8,0.4,1.5,0.9,2,1.7c0.4,0.6,0.8,1.2,1,1.9s0.3,1.5,0.3,2.4c0,1.1-0.4,2.1-0.9,3.1
				c-0.6,1-1.5,1.7-2.7,2c1,0.5,1.7,1.1,2.1,1.9s0.6,2,0.5,3.5l-0.1,1.5c0,1,0,1.7,0,2.1c0.1,0.6,0.4,1,0.8,1.3v0.6l-5.1-0.2
				c-0.1-0.5-0.2-0.9-0.2-1.2c-0.1-0.6-0.1-1.3-0.1-1.9l0.1-2.1c0-1.4-0.2-2.4-0.6-2.9c-0.5-0.5-1.3-0.8-2.6-0.8l-4.5-0.2l-0.4,8.7
				l-4.6-0.2l1-22.3l10.7,0.5C94.1,41.3,95.3,41.5,96.1,41.9z M86.3,44.8l-0.3,6l5,0.2c1,0,1.7,0,2.3-0.3c0.9-0.4,1.4-1.2,1.4-2.4
				c0.1-1.4-0.3-2.3-1.1-2.8c-0.5-0.3-1.2-0.4-2.1-0.5L86.3,44.8z"/>
			<g>
				<path class="st8" d="M96.1,41.9c0.8,0.4,1.5,0.9,2,1.7c0.4,0.6,0.8,1.2,1,1.9s0.3,1.5,0.3,2.4c0,1.1-0.4,2.1-0.9,3.1
					c-0.6,1-1.5,1.7-2.7,2c1,0.5,1.7,1.1,2.1,1.9s0.6,2,0.5,3.5l-0.1,1.5c0,1,0,1.7,0,2.1c0.1,0.6,0.4,1,0.8,1.3v0.6l-5.1-0.2
					c-0.1-0.5-0.2-0.9-0.2-1.2c-0.1-0.6-0.1-1.3-0.1-1.9l0.1-2.1c0-1.4-0.2-2.4-0.6-2.9c-0.5-0.5-1.3-0.8-2.6-0.8l-4.5-0.2l-0.4,8.7
					l-4.6-0.2l1-22.3l10.7,0.5C94.1,41.3,95.3,41.5,96.1,41.9z M86.3,44.8l-0.3,6l5,0.2c1,0,1.7,0,2.3-0.3c0.9-0.4,1.4-1.2,1.4-2.4
					c0.1-1.4-0.3-2.3-1.1-2.8c-0.5-0.3-1.2-0.4-2.1-0.5L86.3,44.8z"/>
				<g>
					<g>
						<g>
							<path class="st5" d="M86.5,45.2L86.5,45.2l-0.1,0.2C86.4,45.6,86.5,45.1,86.5,45.2z"/>
							<path class="st5" d="M86.6,45.3c0,0.1,0.1-0.1,0.1-0.1C86.6,45.3,86.6,45.1,86.6,45.3z"/>
							<path class="st5" d="M92,45v-0.1c-0.2,0.2-0.5,0-0.7,0l0,0c-0.6-0.1-1.1,0.1-1.7,0.1c0,0,0,0,0-0.1L89.5,45v-0.1
								c-0.1-0.2-0.4,0.1-0.4,0c0,0-0.1,0.1,0,0.2c-0.4,0-0.9,0-1.4,0.2v-0.1c-0.4,0.3-0.8,0.1-1.2,0.1c0,0.1,0,0.1,0,0.2
								c0.1,0.1,0.2-0.2,0.3,0v0.1c0.1,0.1,0-0.2,0.1-0.1c0,0.1,0,0.1,0,0.1c0.2,0,0.4,0.1,0.5-0.1c0,0.2,0.2,0,0.2,0.2
								c0-0.1,0.1,0,0.1-0.2c0.6,0.1,1.3,0,1.9,0c0.3-0.3,0.6,0.1,1,0l0,0c0.1-0.1,0.3-0.1,0.4-0.1l0.1-0.1c0.8,0.3,1.6,0.2,2.1,0.8
								c0.6,0.6,0.5,1.3,0.9,2.1c0,0,0,0-0.1,0c0.1,0.3-0.1,0.5,0,0.7l0,0c0.1,0.3,0,0.6-0.2,0.9c-0.1,0.3-0.3,0.5-0.5,0.7
								c-0.6,0.4-1.4,0.5-2.2,0.6V51c-0.6,0.1-1.2-0.3-1.8-0.2c-0.6-0.2-1.3,0.3-2,0.1c-0.4-0.3-0.9,0.3-1.3,0
								c-0.1-0.1-0.2-0.2-0.3-0.2c0.1-0.3,0.1-0.4,0-0.7s-0.2-0.6-0.3-0.9c0.2-0.7-0.2-1.4,0.2-2.1c-0.2-0.3,0.3-0.7,0.3-1h-0.1
								c0.2-0.1-0.3-0.3,0-0.4l0,0c0.2-0.1-0.4-0.2-0.2-0.2h-0.1c0-0.1,0.1,0,0.1-0.1c0,0-0.2,0-0.1-0.1c0.4,0-0.1-0.2,0.3-0.2
								c0,0,0.2-0.1,0.2,0c0,0,0-0.2-0.1-0.2c-0.2,0-0.3-0.1-0.5,0h0.1c-0.1,0-0.1,0-0.2,0c0,0.1-0.2,0.1-0.3,0.2l0,0
								c0.2,0.1,0.1,0.1,0,0.2h-0.1c-0.2,0,0.3,0.1,0,0.1c0.1,0.2,0,0.5,0,0.7c0.1,0,0,0.2,0.2,0.1c-0.2,0.1-0.3,0.2-0.3,0.3l0,0
								c-0.3,0.1,0.3,0.2-0.1,0.3c0.2,0-0.1,0.2,0.2,0.3c-0.1,0-0.1,0-0.1,0c0,0.2-0.1,0.5-0.1,0.7c0.2,0.2-0.1,0.4,0.2,0.5
								c-0.1,0.1-0.2,0.3-0.1,0.5l0,0c0,0.2,0,0.4,0.2,0.6c-0.3,0-0.2,0.1-0.3,0.2c0.1,0.1,0.1,0.4,0.2,0.6c-0.1,0.1,0,0.3-0.2,0.3
								c0.1,0.3,0.2,0.5,0.2,0.8c0.3,0,0.6,0,1,0.1c0.3,0.1,0.4,0.1,0.7,0.3l0,0c0.1-0.1,0.2-0.3,0.3-0.5l0,0c0.1,0,0.2,0.2,0.3,0.1
								c0,0,0,0,0,0.1c0.1-0.1,0.2,0.2,0.3,0v0.1l0.1-0.1c0,0.1,0,0.2,0,0.1c0.9,0.1,1.8-0.2,2.7-0.1v0.1l0.2-0.1c0,0,0,0,0,0.1
								c0.2,0.1,0.5-0.1,0.7,0v0.1c0.2-0.2,0.3,0.2,0.4-0.1v0.1c0.5-0.1,0.9-0.2,1.5-0.3c0.1-0.2,0.3-0.3,0.5-0.5
								c0.2-0.1,0.3-0.3,0.4-0.5h0.1c0.1-0.5,0.5-1,0.5-1.5c0.1-0.2,0-0.4,0-0.6h0.1c-0.3-0.3,0.2-0.8-0.2-1.2h0.1
								c-0.2,0,0-0.3-0.3-0.1l0.1-0.1c-0.4-0.1,0-0.5-0.5-0.6H94c-0.1,0-0.2-0.1-0.2-0.2c0,0,0,0,0.1,0c0-0.4-0.5-0.3-0.7-0.5
								l0.1-0.1c-0.2,0.1-0.4-0.1-0.6-0.1v-0.1l-0.1,0.1v-0.1C92.5,44.9,92.3,45,92,45z"/>
							<path class="st5" d="M85.7,45.1C85.8,45,85.8,45,85.7,45.1C85.7,45,85.8,45,85.7,45.1z"/>
						</g>
					</g>
				</g>
				<g>
					<g>
						<g>
							<path class="st5" d="M95.5,41.2C95.5,41.3,95.5,41.3,95.5,41.2c0.2,0,0.4,0,0.6,0C95.9,41,95.6,41.4,95.5,41.2z"/>
							<path class="st5" d="M95.4,41.2c-0.2-0.1-0.3,0-0.3,0C95.1,41.1,95.4,41.3,95.4,41.2z"/>
							<path class="st5" d="M81.5,43C81.5,42.9,81.4,42.9,81.5,43C81.4,42.9,81.4,43,81.5,43z"/>
							<path class="st5" d="M81.7,47.1L81.7,47.1c-0.1-0.8,0.2-1.6,0.1-2.4v0.1c0.1-1.4,0.1-2.7,0.1-4c0.6,0,1.3,0,1.9,0
								c0,0,0,0-0.1,0.1c0.1,0,0.2-0.1,0.3-0.1c0,0,0,0-0.1,0.1c0.4,0.2,1.3-0.1,1.5,0.1c0.1,0,0.2-0.1,0.1-0.1c1.6,0,3.3,0.1,4.9,0
								c0.1,0,0.1,0.1,0.1,0.1c1.4-0.2,2.9-0.1,4.3,0.3c0.1-0.1-0.1-0.1,0-0.2c-0.5-0.2-0.9,0-1.3-0.2l0.1-0.1
								c-0.3-0.1-0.1,0.2-0.4,0c-0.1-0.1,0-0.1,0-0.1c-0.7,0-1.3-0.1-1.9,0c-0.1-0.2-0.7,0-0.9-0.2c-0.2,0.1-0.3,0-0.4,0.1
								c-2.2-0.2-4.5-0.1-6.8-0.3c-0.2,0.1-0.4,0.1-0.7,0.1c-0.3,0-0.6,0-1,0c-0.1,1.1-0.2,1.8-0.2,2.6l0,0c0.1,0.4,0.1,1,0,1.5
								l0.1,0.4c-0.4,3-0.4,6-0.6,9c-0.1,1.6-0.2,3.1-0.3,4.6c0,0.7-0.1,1.5-0.1,2.2c0,0.8,0,1.3,0,2.6c0.3,0,0.7,0,1.1,0
								c0,0,0,0-0.1,0.1c1,0,1.9,0.1,2.8,0.1l0,0c0.2,0,0.3,0,0.6,0c0.3,0,0.5,0,0.8,0c0-0.6,0-1.1,0.1-1.7c0-0.5,0-1,0.1-1.4
								c0-1,0.1-1.9,0-2.8c0-0.9,0.1-1.9,0.1-3c0.8,0,1.7,0.1,2.5,0.1c0.9,0,1.8,0,2.7,0.1v0.1c0.5,0,1.1,0.2,1.5,0.5
								s0.6,0.9,0.7,1.4c0.1,1.1-0.1,2.2,0,3.3c-0.1,0.6,0,1.2,0,1.8s0.2,1.1,0.4,1.8v0.1h0.1H94h0.5h0.9c0.6,0,1.2,0,1.8,0.1
								c0.5,0.1,1.1,0.1,1.7,0.1H99v-0.1c0-0.2,0-0.4,0-0.6c-0.4-0.2-0.7-0.5-0.8-0.9c-0.1-0.4-0.1-0.8-0.1-1.1
								c0.2-1.4,0.4-2.7,0.3-4.1c-0.1-0.7-0.2-1.4-0.5-2c-0.2-0.3-0.4-0.6-0.6-0.8c-0.3-0.2-0.5-0.4-0.9-0.6c-0.3-0.2-0.7-0.4-1-0.6
								c0.6-0.2,1.3-0.5,1.7-0.8c0.4-0.3,0.8-0.7,1.1-1.2c0.5-0.9,0.9-1.9,1.1-2.9c-0.1-0.6,0-1.2,0-1.8s-0.2-1.3-0.5-1.9v0.1
								c0-0.6-0.8-0.7-0.7-1.1l0,0c0-0.3-0.7-0.2-0.6-0.4h-0.1c-0.2-0.2,0-0.1-0.1-0.3c-0.1,0-0.1,0.1-0.2,0
								c0.2-0.3-0.6-0.4-0.4-0.7c0.1,0.1-0.2-0.3,0.2-0.1c-0.1-0.1-0.6-0.3-0.6-0.2c-0.1,0.1-0.4,0.2-0.2,0.5l0.1-0.1
								c0,0.2,0,0.1,0,0.2c0.3,0.2,0.3,0.4,0.4,0.6l0,0c0.2,0,0.4,0.2,0.5,0.3v0.1c0,0.2,0.5,0.1,0.2,0.2c0.6,0.5,1,1.3,1.3,2
								c0.1,0.1,0.2,0.6,0.3,0.4c-0.1,0.3-0.1,0.9-0.1,1.1c0,0,0,0,0-0.1c-0.3,0.4,0.3,0.5-0.1,0.9c0.3,0.1-0.1,0.7,0.1,1
								c-0.1,0-0.1,0-0.2,0c-0.2,0.7-0.6,1.5-1,1.9c-0.1,0.3-0.3,0.5-0.5,0.7s-0.4,0.3-0.6,0.6c-0.3,0.1-0.6,0.2-1.1,0.3
								s-1,0.3-1.5,0.4c0.3,0.1,0.6,0.3,1,0.4h-0.2c0.3,0.2,0.7,0.3,1,0.5c0.3,0.1,0.7,0.4,0.7,0.4c0.2,0.2,0.5,0.3,0.7,0.5
								c-0.1,0.3,0,0.5,0,0.7c0.3,0.3,0.4,1.1,0.5,1.7c-0.1,0.1,0.1,0.5-0.1,0.6c0.2,0.8,0.2,1.9,0.1,2.9c0,0.5-0.1,1,0,1.6
								c0,0.3,0.1,0.6,0.3,0.9c0.1,0.1,0.2,0.3,0.3,0.4l0.1,0.1l0,0l0,0c0,0,0,0-0.1,0.1l0,0c0,0.1,0.1,0.1,0.1,0.2l0.6-0.6
								c-0.2,0.1-0.4,0.3-0.7,0.4l0,0c-0.4,0-0.7-0.2-1.1-0.2c0,0,0,0,0.1-0.1c-0.4,0.1-0.7-0.2-1.1-0.1v-0.1l-0.3,0.1
								c0-0.1,0-0.2,0.2-0.1l-1.2-0.1h-0.5h-0.1c0,0-0.1-0.5-0.2-0.8L94,61.1c-0.1-0.8,0-1.6-0.1-2.4c0-0.8,0-1.7-0.3-2.5l0.1,0.1
								c-0.1-0.2-0.2-0.4-0.4-0.6h0.1c-0.2-0.5-0.7-0.8-1.1-0.9c-0.4-0.1-0.9-0.2-1.3-0.3c0,0,0.1-0.1,0-0.1c-0.6,0.1-1-0.3-1.3,0
								v-0.1c-0.7,0-1.4,0-2,0c-0.7,0-1.2-0.1-2.4-0.1c0,0.4-0.1,0.8-0.1,1.2c0.3,1.4-0.1,2.9,0.1,4.3h-0.1c0,0.6,0,1.2,0,1.8
								S85,62.8,85,63.3c-0.6,0-1.2-0.1-1.9-0.1c-0.8-0.1-1.3,0-2.1,0v-0.1c-0.1,0-0.3,0-0.4,0.1c0-0.5,0.1-1.2,0.2-1.8
								s0.1-1.3,0-1.9l0.1,0.1c-0.2-0.2,0.1-0.8-0.2-0.8l0.1-0.2c-0.3-1,0.3-1.7,0.1-2.9l0.1,0.1c0-0.3-0.1-0.7,0-0.9c0,0,0,0,0,0.1
								c0.3-0.9,0.1-2,0.1-3l0.1,0.1c-0.1-0.5,0.1-1.4,0-2h0.1l-0.1-0.3h0.1C81.8,48.7,81.7,47.9,81.7,47.1z"/>
						</g>
					</g>
				</g>
			</g>
		</g>
		<g>
			<path class="st7" d="M110.6,42l5.3,0.2l6.8,22.7l-5-0.2l-1.3-4.6l-8.2-0.4l-1.7,4.5l-4.9-0.2L110.6,42z M109.6,55.9l5.7,0.3
				l-2.4-8.9L109.6,55.9z"/>
			<g>
				<path class="st8" d="M110.6,42l5.3,0.2l6.8,22.7l-5-0.2l-1.3-4.6l-8.2-0.4l-1.7,4.5l-4.9-0.2L110.6,42z M109.6,55.9l5.7,0.3
					l-2.4-8.9L109.6,55.9z"/>
				<g>
					<g>
						<g>
							<path class="st5" d="M110.1,55.9C110.1,55.9,110.1,55.8,110.1,55.9l0.2,0.2C110.4,56.1,110,55.9,110.1,55.9z"/>
							<path class="st5" d="M110.1,55.8c0.1,0,0-0.1-0.1-0.1C110.2,55.8,110,55.8,110.1,55.8z"/>
							<path class="st5" d="M111.4,51L111.4,51c0,0.2-0.2,0.3-0.2,0.5l0,0c-0.2,0.5-0.2,1-0.3,1.5l0,0l0.1,0.1c0,0,0,0-0.1,0
								c-0.2,0,0,0.3-0.2,0.3l0.1,0.1c-0.1,0.4-0.2,0.8-0.2,1.2h-0.1c0.2,0.4-0.1,0.7-0.3,1c0.1,0,0.1,0,0.2,0.1
								c0.1-0.1-0.1-0.3,0.1-0.3h0.1c0.1-0.1-0.2-0.1-0.1-0.1s0.1,0,0.1,0c0-0.2,0.2-0.3,0-0.5c0.2,0,0.1-0.2,0.2-0.2
								c0-0.1,0-0.1-0.1-0.1c0.3-0.5,0.3-1.1,0.6-1.6c-0.2-0.4,0.3-0.5,0.3-0.9l0,0c0-0.1,0-0.3,0.1-0.4l-0.1-0.1
								c0.5-0.6,0.6-1.4,1-2c0.1-0.2,0.1-0.2,0.2-0.3l0.1-0.1c0-0.1,0-0.2,0.1-1v-0.1c0,0.1,0,0.1,0,0.2c0.1-0.1,0,0.4,0.1,0.3v0.1
								c0.1-0.1,0.2,0.1,0.2,0.3s0.1,0.3,0.3,0.6c0.1,0.6,0.4,1.4,0.6,2h-0.1c0.3,0.5,0.1,1.1,0.3,1.6c0,0.6,0.7,1,0.6,1.7
								c-0.1,0.2,0,0.4,0.2,0.6c0.1,0.2,0.3,0.5,0.2,0.6h-0.1c-0.6-0.2-0.7-0.3-0.9-0.2c-0.3,0-0.7,0.2-1,0.3
								c-0.6-0.2-1.3,0.2-1.9-0.2c-0.3,0.2-0.6-0.3-0.9-0.3v0.1c-0.1-0.2-0.3,0.3-0.3,0l0,0c-0.1-0.2-0.2,0.4-0.2,0.2v0.1
								c-0.1,0,0-0.1-0.1-0.1c0,0,0,0.2-0.1,0.1c0-0.4-0.2,0.1-0.2-0.3c0,0-0.1-0.2,0-0.2c0,0-0.2,0-0.1,0.1c0,0.2-0.1,0.3,0,0.5
								v-0.1c0,0.1,0,0.1,0,0.2c0.1,0,0.1,0.2,0.2,0.3l0,0c0.1-0.2,0.1-0.1,0.2,0v0.1c0,0.2,0.1-0.3,0.1,0c0.2-0.1,0.4,0,0.7,0
								c0-0.1,0.2,0,0.1-0.2c0,0.2,0.2,0.3,0.3,0.3l0,0c0.1,0.3,0.2-0.3,0.3,0.1c0-0.2,0.2,0.1,0.3-0.2c0,0.1,0,0.1,0,0.1
								c0.2,0,0.4,0.1,0.6,0.1c0.2-0.2,0.4,0.1,0.5-0.2c0.1,0.1,0.3,0.2,0.4,0.1l0,0c0.2,0,0.4,0,0.5-0.2c0,0.3,0.1,0.2,0.2,0.3
								c0.1-0.1,0.3-0.1,0.5-0.2c0.1,0.1,0.2,0,0.3,0.1c0.4-0.2,0.7-0.2,1.2-0.2c-0.1-0.4-0.1-0.7,0-1.2l0,0
								c-0.1-0.1-0.4-0.2-0.6-0.3l0,0c-0.1-0.1,0.1-0.2,0-0.3c0,0,0,0,0.1,0c-0.1-0.1,0.1-0.2-0.1-0.3l0,0h-0.1c0.1,0,0.2,0,0.1,0
								c-0.1-0.8-0.7-1.5-0.8-2.3h0.1l-0.1-0.1c0,0,0,0,0.1,0c0.1-0.2-0.2-0.4-0.2-0.6h0.1c-0.2-0.1,0.2-0.3-0.2-0.3h0.1
								c-0.2-0.4-0.3-0.8-0.4-1.2c-0.4-0.3-0.2-0.7-0.6-1h0.1c-0.2-0.2-0.2-0.4-0.3-0.7c0-0.3-0.1-0.7-0.2-0.9
								c-0.1-0.3-0.1-0.2-0.2-0.4v-0.3c-0.1,0.7-0.1,0.6-0.2,0.6s-0.2,0.2-0.2,0.7v-0.2c0,0.4-0.1,0.1,0,0.6c0,0,0-0.1-0.1-0.1
								c0.1,0.4,0,0.4-0.1,0.4s-0.2,0.1-0.1,0.3l-0.1-0.1c0,0.1,0,0.2-0.1,0.2l0,0c-0.3,0.1-0.2,0.5-0.3,0.7l-0.1-0.1
								c0.1,0.2-0.1,0.3-0.1,0.5h-0.1l0.1,0.1h-0.1C111.4,50.6,111.5,50.9,111.4,51z"/>
							<path class="st5" d="M109.9,56.5C109.9,56.5,109.8,56.4,109.9,56.5C109.8,56.5,109.9,56.5,109.9,56.5z"/>
						</g>
					</g>
				</g>
				<g>
					<g>
						<g>
							<polygon class="st5" points="110,41.8 109.9,41.8 110,41.9 							"/>
							<path class="st5" d="M109.9,42.5C110,42.5,110,42.5,109.9,42.5l-0.1-0.5C109.7,42.1,110.1,42.4,109.9,42.5z"/>
							<path class="st5" d="M109.9,42.6c-0.1,0.1,0,0.2,0,0.3C109.8,42.7,110,42.6,109.9,42.6z"/>
							<path class="st5" d="M104.1,57.9L104.1,57.9c0.1-0.6,0.6-1.2,0.8-1.8v0.1c0.7-1.6,1.1-3.1,1.7-4.7c0,0,0,0,0,0.1
								c0-0.1,0-0.2,0-0.3c0,0,0,0,0,0.1c0.3-0.3,0.3-1,0.5-1.2c0-0.1,0-0.2-0.1-0.1c0.5-1.2,1-2.6,1.3-3.8c0-0.1,0.1,0,0.2,0
								c0.2-1.2,0.7-2.2,1.2-3.3c-0.1-0.1-0.1,0.1-0.2-0.1c-0.2,0.3-0.1,0.7-0.3,1l-0.1-0.1c-0.1,0.2,0.2,0.1,0,0.3
								c-0.1,0.1-0.1-0.1-0.1,0c-0.2,0.5-0.4,1-0.5,1.5c-0.2,0.1-0.2,0.5-0.4,0.6c0,0.2-0.1,0.3,0,0.4c-0.8,1.7-1.4,3.5-2.1,5.2
								c0,0.9-0.8,1.8-1.1,2.8l0,0c-0.1,0.3-0.2,0.8-0.4,1.2v0.4c-0.6,1.1-1.1,2.2-1.6,3.4l-0.7,1.7l-0.4,0.9l-0.4,0.9
								c-0.2,0.4-0.4,0.8-0.5,1.2c1,0.1,2,0.2,3,0.2c0.4,0,0.8,0,1.2,0.1c0.5,0,1,0,1.6,0.1l0.3-0.9l0.2-0.6
								c0.1-0.4,0.2-0.8,0.3-1.2c0,0,0.1,0,0,0.1c0.1-0.4,0.3-0.7,0.4-1.1l0.2-0.5l0.1-0.3V60l0,0v-0.1c0.1,0,0.7,0,1.1,0l1.4,0.1
								c0.9,0,1.8,0.1,2.7,0c0.8,0,1.7,0.1,2.6,0.1c0.2,0.6,0.4,1.3,0.6,2s0.4,1.4,0.6,2.1h-0.1c0.1,0.2,0.1,0.4,0.2,0.6
								c0.9,0,1.7,0.1,2.5,0.2l1.2,0.1h0.7h0.8h0.1c-0.1-0.5-0.4-1.2-0.5-1.6c-0.2-0.5-0.3-0.9-0.5-1.4c-0.4-0.9-0.7-1.8-0.9-2.7
								c0-1.2-1.1-2.5-1.2-3.7c-0.2-2.3-1.1-4.4-2.1-6.5c-0.4-2.1-1.5-4-1.7-6c-0.1-0.1-0.1-0.3-0.2-0.4c0-0.1-0.1-0.2-0.1-0.4
								c-0.3,0-0.7-0.1-1-0.2c-0.4-0.1-0.7-0.1-1.1-0.1v0.1c-0.4-0.3-0.9,0.3-1.1-0.1l0,0c-0.2-0.2-0.5,0.4-0.6,0.2v0.1
								c-0.2,0,0-0.1-0.2-0.1c-0.1,0,0,0.2-0.2,0.1c0-0.4-0.6,0-0.6-0.4c0.1,0-0.2-0.2,0.1-0.2c-0.1,0-0.5,0-0.5,0.1
								c0,0.2-0.2,0.3,0,0.5l0.1-0.1c0.1,0.1,0.1,0.1,0.1,0.2c0.3,0,0.4,0.2,0.6,0.3l0,0c0.2-0.2,0.4,0,0.5,0v0.1
								c0.1,0.2,0.4-0.3,0.3,0c0.7,0,1.4,0,2.2,0c0.1-0.1,0.6,0,0.4-0.2c0.1,0.1,0.3,0.2,0.5,0.2c0.1,0,0.1,0.1,0.1,0.1l0,0
								c0,0,0,0,0,0.1c-0.1,0.1,0.2-0.2,0.1,0.3c0.3,0,0.1,0.7,0.5,0.8c0,0.1-0.1,0.1-0.1,0.1c0.2,0.7,0.3,1.4,0.5,2
								c0.4,0.4,0.2,1.2,0.7,1.5c0,0.4,0.1,0.9,0.3,1.4l0,0c0.2,0.5,0.4,1.2,0.7,1.5c-0.2,0.2-0.1,0.5-0.1,0.7
								c0.2,0.3,0.4,1,0.7,1.5c-0.1,0.1,0.2,0.4,0,0.5c0.8,1.4,1.3,3.3,1.5,5l0,0c0.2,0.2,0.5,0.4,0.7,0.5c0,0,0,0-0.1,0
								c0.1,0.3,0,0.6,0.1,0.9c0,0,0,0-0.1,0c0.2,0.3,0,0.6,0.3,0.9l0,0l0.1,0.2c-0.1,0-0.2,0-0.2-0.1c0.2,0.8,0.5,1.5,0.7,2.3
								l0.4,1.1c0.1,0.2,0.1,0.3,0.1,0.3l0.1,0.3h-0.3h-0.1h-0.2h-0.4c-0.5,0-1.1,0-1.6-0.1l0.1-0.1l-0.5,0.1c0,0,0,0,0.1-0.1
								c-0.2,0-0.5-0.1-0.7-0.1h-0.2H118h-0.2c0-0.1-0.1-0.2-0.1-0.3c0,0,0.1,0.1,0.1,0c-0.3-0.4,0-0.8-0.4-0.9c0,0,0.1-0.1,0.1,0
								c-0.2-0.5-0.4-1-0.5-1.5c-0.2-0.6-0.3-0.9-0.5-1.8l-1.1-0.1c-1.1,0.3-2.4-0.1-3.6,0.1v-0.1c-0.6,0.1-1.3,0-1.9,0
								c-0.7-0.1-1.3-0.1-2-0.2c-0.1,0.3-0.3,0.6-0.3,0.9c-0.3,0.6-0.3,1-0.6,1.7h-0.1c0,0.4-0.2,0.7-0.3,1l-0.2,0.5l-0.2,0.4
								c-0.2,0-0.3,0-0.5,0s-0.4,0-0.6,0.1l0.1-0.1c-0.2,0.2-0.7-0.1-0.6,0.2l-0.2-0.1c-0.8,0.4-1.4-0.2-2.4,0l0.1-0.1
								c-0.2,0-0.4,0-0.6,0c0-0.1,0.1-0.2,0.1-0.2l0,0c0.3-0.4,0.4-0.6,0.5-1.1c0.1-0.4,0.2-0.8,0.4-1.2l0.1,0.1
								c0-0.4,0.4-1.1,0.6-1.6v0.1V60h0.1C103.7,59.2,103.9,58.6,104.1,57.9z"/>
						</g>
					</g>
				</g>
			</g>
		</g>
		<g>
			<path class="st7" d="M141.2,50.4c-0.3-1.5-1.1-2.6-2.4-3.3c-0.8-0.4-1.6-0.6-2.5-0.6c-1.8-0.1-3.3,0.5-4.5,1.8s-1.9,3.3-2,6
				s0.4,4.7,1.6,5.9c1.2,1.2,2.6,1.8,4.2,1.9c1.6,0.1,2.9-0.3,3.9-1.2s1.7-2,2-3.4l-5.2-0.2l0.2-3.7l9.3,0.4l-0.6,12l-3.1-0.1
				l-0.3-2.8c-0.9,1-1.8,1.7-2.5,2.1c-1.3,0.7-2.8,1-4.6,0.9c-3-0.1-5.3-1.3-7.1-3.4c-1.9-2.1-2.7-5-2.6-8.6
				c0.2-3.6,1.3-6.4,3.4-8.5s4.8-3,8-2.9c2.8,0.1,5.1,1,6.7,2.5s2.6,3.4,2.7,5.5L141.2,50.4z"/>
			<g>
				<path class="st8" d="M141.2,50.4c-0.3-1.5-1.1-2.6-2.4-3.3c-0.8-0.4-1.6-0.6-2.5-0.6c-1.8-0.1-3.3,0.5-4.5,1.8s-1.9,3.3-2,6
					s0.4,4.7,1.6,5.9c1.2,1.2,2.6,1.8,4.2,1.9c1.6,0.1,2.9-0.3,3.9-1.2s1.7-2,2-3.4l-5.2-0.2l0.2-3.7l9.3,0.4l-0.6,12l-3.1-0.1
					l-0.3-2.8c-0.9,1-1.8,1.7-2.5,2.1c-1.3,0.7-2.8,1-4.6,0.9c-3-0.1-5.3-1.3-7.1-3.4c-1.9-2.1-2.7-5-2.6-8.6
					c0.2-3.6,1.3-6.4,3.4-8.5s4.8-3,8-2.9c2.8,0.1,5.1,1,6.7,2.5s2.6,3.4,2.7,5.5L141.2,50.4z"/>
				<g>
					<g>
						<g>
							<polygon class="st5" points="141.2,51.1 141.3,51.2 141.4,51.1 							"/>
							<path class="st5" d="M142.3,50.9L142.3,50.9l-0.7,0.2C141.9,51.3,142.1,50.8,142.3,50.9z"/>
							<path class="st5" d="M142.5,51c0.2,0.1,0.4-0.1,0.4-0.1C142.8,51,142.4,50.8,142.5,51z"/>
							<path class="st5" d="M127.2,47l0.1,0.1c0.4-1,1.4-1.7,2.2-2.5v0.1c2.3-1.7,5-2.3,7.8-2.1h-0.1c0.1,0,0.3-0.1,0.5,0
								c0,0,0,0-0.1,0.1c0.6,0.2,1.8,0.2,2.1,0.5c0.2,0,0.3,0,0.2-0.1c2.2,0.6,4.3,2.2,5.5,4.2c0,0.1,0,0.2-0.1,0.2
								c0.3,0.4,0.5,0.9,0.7,1.4c0.1,0.2,0.2,0.5,0.2,0.8c0,0.1,0.1,0.3,0.1,0.5l0.1,0.6v0.3v0.1h-0.2h-0.6l-1-0.1
								c-0.5,0-1-0.1-1.5-0.1c-0.1,0.1,0.2,0.1,0,0.2c0.6,0.1,1.2-0.1,1.7,0l-0.1,0.1c0.2,0,0.2,0,0.3-0.1c0,0,0.1-0.1,0.5,0
								c0.3,0.1,0,0.1,0.1,0.1h0.6c0.1,0,0.2,0,0.3,0V51c0-0.4-0.1-0.8-0.1-1.2c-0.1-0.5-0.2-0.9-0.5-1.3c0.1-0.3-0.4-0.9-0.4-1.3
								c-0.2-0.2-0.3-0.4-0.4-0.4c-0.9-1.4-2.1-2.6-3.7-3.3c-1.5-0.7-3.2-1-4.8-1.1c-0.8,0.1-1.6,0.1-2.5,0.2
								c-0.9,0.1-1.8,0.2-2.6,0.6l0,0c-0.5,0.3-1.3,0.7-1.9,1.1c-0.1,0.1-0.3,0.3-0.4,0.5c-1.8,1.2-3,3.1-3.7,5.2
								c-0.7,2.1-0.8,4.2-0.8,6.4c0.1,2.4,0.9,4.8,2.4,6.6c1.4,1.8,3.6,3.1,6.1,3.3c0,0,0,0.1-0.1,0c1.4,0.2,2.6,0.3,3.9,0.1l0,0
								c1-0.2,1.9-0.6,2.8-1.1c0.4-0.3,0.8-0.6,1.2-0.9c0.3-0.3,0.5-0.5,0.7-0.7c0.1,0.8,0.3,1.6,0.4,2.4c0.4,0,0.8,0,1.1,0
								c0.7,0,1.4,0.1,2.3,0.1c0.1-1.6,0.1-3.2,0.2-4.9c0.1-1.6,0.1-3.3,0.2-4.9h0.1c0-0.8,0-1.5,0.1-2.4c-2.4-0.1-4.6-0.4-7-0.5
								c-0.4,0-0.8-0.1-1.2-0.1c-0.5,0-0.9,0-1.4,0c0,0.9,0,1.4,0,2.1v1.9c1.3,0,2.5,0,3.8,0.2c0.2,0.1,0.5,0.1,0.7,0.1h0.3
								c0.1,0,0.1,0,0.2,0v0.2c-0.1,0.4-0.2,1-0.5,1.5c-0.5,1-1.3,2-2.3,2.2c-0.9,0.3-1.9,0.4-2.8,0.4c-0.9,0-1.8-0.3-2.7-0.7
								c-0.8-0.4-1.6-1-2.2-1.7c-0.6-0.7-1-1.7-1.2-2.6c-0.2-1.8-0.1-3.6,0.2-5.4c0.2-0.9,0.5-1.7,1-2.5s1.2-1.4,2-1.8
								c0.6-0.5,1.5-0.8,2.4-0.8s1.8,0.2,2.6,0.4v-0.1c0.3,0.2,0.6,0.3,1,0.3c0.3,0.1,0.6,0.2,0.7,0.5h-0.1c0.1,0.3,0.9,0.2,0.9,0.5
								h0.1c0.3,0.3,0,0.1,0.1,0.4c0.1,0.1,0.2,0,0.3,0.2c-0.1,0.1,0,0.3,0.1,0.6c0.1,0.2,0.2,0.5,0,0.5c-0.1-0.2,0,0.4-0.3-0.1
								c0,0.1,0.2,0.8,0.3,0.7c0.2,0,0.4,0.3,0.5-0.2l-0.1-0.1c0.1-0.2,0-0.1,0.1-0.2c-0.1-0.6,0-0.7-0.1-1.1l0,0
								c-0.3-0.2-0.4-0.6-0.5-0.8v-0.1c0-0.2-0.7-0.3-0.4-0.4c-0.9-0.9-2.3-1.4-3.7-1.5c-0.2,0.1-1-0.1-0.7,0.1
								c-0.3-0.2-1.4-0.2-1.7-0.1c0,0,0-0.1,0.1-0.1c-0.8-0.1-0.7,0.5-1.5,0.5c0,0.2-1.1,0.7-1.2,1.2c-0.1,0-0.2,0-0.2,0
								c-0.9,0.9-1.6,2.1-1.9,3.1c-0.1,0.9-0.5,2.1-0.3,2.8c-0.1,0.6-0.3,1.6-0.1,2.5v-0.1c0.1,1,0.4,2.2,0.8,2.8
								c-0.2,0.4,0.1,0.8,0.3,1.2c0.5,0.5,1.5,1.5,2.5,1.8c0.1,0.2,0.8,0.3,0.8,0.5c1.5,0.3,3,0.3,4.6-0.2c1.5-0.5,2.8-1.8,3.6-3.2
								l0,0c0-0.2,0-0.4,0-0.8c0-0.3,0-0.5-0.1-0.7c0-0.1,0.1-0.1,0,0c0-0.1,0-0.2,0-0.2h-0.2l-0.5-0.1l-0.5-0.1c-0.1,0-0.3,0-0.4,0
								c0,0,0,0,0.1-0.1c-0.5,0.1-1-0.2-1.6-0.1v-0.1l-0.4,0.1c0-0.1,0-0.2,0.2-0.1c-0.6,0-1.7-0.1-1.6-0.1v-0.1v-0.1v-0.2v-0.9
								v-0.9v-0.2V54v-0.2h0.2h0.1h0.2h1h1.9c1.3,0,2.6,0.1,3.9,0.1l-0.2,0.1l0.9-0.1c0,0,0,0-0.1,0.1h0.3c0.1,0,0.1,0,0.2,0v0.9
								c0,0.4,0,0.8,0,1.2c0,0-0.1-0.2-0.1,0c0.1,0.8-0.3,1.3,0.1,1.7c0,0-0.1,0.1-0.1,0c0,2.3-0.1,4.6-0.3,6.9v0.2v0.2
								c0,0.1,0,0.2,0,0.3c-0.1,0-0.3,0-0.5,0h-0.8c-0.5,0-0.9,0-1.4-0.1c-0.1-0.4-0.2-1.1-0.3-1.8h0.1c-0.1-0.3-0.1-0.7-0.2-0.9
								c-0.9,1-1.7,1.8-2.8,2.3c-1,0.5-2.2,0.7-3.3,0.8c-1.1,0-1.8,0-2.9-0.2v-0.1c-0.9,0-1.9-0.5-2.7-1c-0.8-0.5-1.5-1.2-2.3-1.8
								h0.2c-0.3-0.1-0.7-0.9-0.9-0.7l-0.1-0.3c-0.5-0.4-0.8-1-1-1.6s-0.4-1.3-0.7-2l0.1,0.1c-0.2-0.4-0.3-0.9-0.3-1.2
								c0,0,0,0,0.1,0.1c0.1-1.3-0.3-2.8-0.1-4.2l0.1,0.2c-0.1-0.7,0.2-1.9,0.4-2.8v0.1c0-0.2,0-0.3,0-0.5h0.1
								C126.2,49,126.6,48,127.2,47z"/>
							<path class="st5" d="M141.2,48.8c0,0.1,0,0.1,0.1,0.2C141.3,48.9,141.3,48.8,141.2,48.8z"/>
						</g>
					</g>
				</g>
			</g>
		</g>
		<g>
			<path class="st7" d="M166.9,48.6L155.1,48l-0.2,4.7l10.8,0.5l-0.2,3.9l-10.8-0.5l-0.3,5.7l12.3,0.6l-0.2,4l-16.9-0.8l1-22.3
				l16.3,0.8L166.9,48.6z"/>
			<g>
				<path class="st8" d="M166.9,48.6L155.1,48l-0.2,4.7l10.8,0.5l-0.2,3.9l-10.8-0.5l-0.3,5.7l12.3,0.6l-0.2,4l-16.9-0.8l1-22.3
					l16.3,0.8L166.9,48.6z"/>
				<g>
					<g>
						<g>
							<path class="st5" d="M167.4,47.7L167.4,47.7l0.2,0.6C167.8,48,167.3,47.8,167.4,47.7z"/>
							<path class="st5" d="M167.5,47.5c0.1-0.2-0.1-0.3-0.1-0.4C167.5,47.2,167.3,47.5,167.5,47.5z"/>
							<path class="st5" d="M150.6,50l0.1,0.1c-0.2-1,0.1-2.1,0.1-3.1v0.1c0-0.5,0-1,0.1-1.6c0-0.5,0-0.9,0-1.4c1.5,0,2.9,0,4.4,0
								c0,0-0.1,0-0.1,0.1c0.1,0,0.3-0.1,0.4-0.1c0,0,0,0-0.1,0.1c0.5,0.2,1.6,0,1.9,0.1c0.2,0,0.2-0.1,0.1-0.1c2,0,4.2,0.1,6.3,0.1
								c0.1,0,0.1,0.1,0.1,0.1c0.5-0.1,1-0.1,1.6-0.1h0.8l1.3,0.1l-0.1,1.6l-0.1,1.1c0.1,0.1,0.1-0.2,0.2,0c0.1-0.6-0.1-1,0-1.6
								c0,0,0,0.1,0.1,0.1c0.1-0.7-0.2-0.1-0.1-0.8c0.1-0.3,0.1,0,0.1-0.1v-0.4c-0.6,0-1.2,0-1.7-0.1c-0.4,0-0.7,0-1.1,0.1
								c-0.2-0.2-0.9,0-1.2-0.2c-0.2,0.1-0.4,0-0.5,0.1c-2.8-0.2-5.8-0.2-8.7-0.3c-0.6,0.1-1.2,0.1-1.8,0c-0.7-0.1-1.1-0.1-2.3-0.2
								v0.6c0,0.2,0,0.5,0,0.6l0,0c0.1,0.5,0.1,1.3,0,1.9l0.1,0.5c-0.5,3.8-0.4,7.7-0.7,11.5c-0.1,1.3-0.2,2.6-0.3,3.8
								c0,0.6-0.1,1.2-0.1,1.8l-0.1,2.3c0.6,0,1.2,0,1.8,0.1c0.4,0,0.8,0,1.2,0c0.8,0,1.7,0,2.5-0.1c0,0,0,0-0.1,0.1
								c1.2,0,2.3,0.2,3.5,0.1l0,0c1.4-0.1,2.8,0,4.3,0.1c0.7,0,1.4,0.1,2.1,0.1c0.7,0,1.4,0,2.2,0c0-0.1,0-0.3,0-0.4
								c0.1-1.2,0.1-2.5,0.2-3.9c-1.2,0-2.4-0.1-3.6-0.1c-1.2,0-2.4-0.1-3.6-0.1v-0.1c-0.9,0-1.8,0-2.7-0.1l-2.5-0.2l0.1-0.6
								l0.1-0.8c0-0.5,0.1-1.1,0.1-1.6c0-0.4,0.1-0.8,0.1-1.3v-0.6v-0.5c1,0,2,0,3.1,0s2.2,0,3.2,0.2c0.7,0.1,1.4,0.2,2.1,0.1
								c0.7,0,1.5,0,2.2-0.1c0-0.3,0-0.5,0-0.7c0-0.3,0.1-0.5,0.1-0.7c0.1-0.4,0.1-0.8,0.2-1.2c0.1-0.3,0.1-0.8,0.1-1.3
								c-0.9-0.1-1.5-0.1-2.2-0.1s-1.4,0-2,0c-1.4,0-2.7,0.1-4.1,0.1c-0.4,0-0.9-0.1-1.3-0.1l-1.4-0.1c0-0.8,0-1.7,0.1-2.5
								c0-0.8,0-1.5,0.1-2.5c1.1,0.1,1.7,0.1,2.5,0.3c1.5-0.2,3.1,0.4,4.8,0.4l-0.1-0.1c0.6,0.3,1.3-0.3,1.7,0.1h-0.1
								c0.3,0.2,0.8-0.4,0.9-0.2l0.1-0.1c0.4,0,0,0.1,0.3,0.2c0.1,0,0-0.2,0.3-0.1c0,0.4,0.9,0,0.9,0.4c-0.2,0,0.3,0.2-0.2,0.2
								c0.1,0,0.8,0.1,0.7-0.1c0.1-0.2,0.3-0.3-0.1-0.5l-0.1,0.1c-0.1-0.1-0.1-0.1-0.1-0.2c-0.5,0-0.6-0.2-0.9-0.3l0,0
								c-0.3,0.1-0.6,0-0.8,0l-0.1-0.1c-0.1-0.2-0.6,0.3-0.4,0c-1,0-2.2,0-3.4-0.1c-0.2,0.1-0.9-0.1-0.6,0.2
								c-0.3-0.2-1.1-0.3-1.5-0.3c0,0,0,0,0.1,0c-0.6-0.3-0.7,0.2-1.3-0.1c-0.1,0.2-1.1-0.1-1.4,0.1c-0.1-0.1-0.1-0.1-0.1-0.2
								c-0.6,0-1.2-0.1-1.7-0.1c-0.1,1-0.1,1.9-0.2,2.6c0.1,0.4,0,0.8,0,1.3c0,0.2,0,0.4,0,0.6c0,0.2,0,0.3,0,0.5s0,0.3,0.1,0.4
								c0,0.1,0,0.3,0,0.4c0.4,0,0.9,0.1,1.4,0.2c0.3,0,0.7,0,1,0h-0.1c0.8,0,1.9,0.1,2.5-0.1c0.2,0.3,0.6,0.3,1,0.4
								c0.6-0.1,1.7,0,2.6-0.1c0.1,0.1,0.7,0,0.8,0.2c0.6-0.1,1.6-0.1,1.7-0.1v0.2v0.3c0,0.3,0,0.6-0.1,1l-0.1,1v0.2
								c0,0.1,0,0.1,0,0.1c0,0.1,0,0.1,0,0.1h-0.2c0,0,0,0-0.1,0h-0.2c-0.3,0-0.6-0.1-1-0.1l0,0c-0.3,0.1-0.7,0.3-1.1,0.4
								c0,0,0-0.1,0,0c-0.5,0-0.9-0.2-1.4-0.2c0,0,0,0,0.1-0.1c-0.4,0.1-0.9-0.2-1.4-0.1v-0.1l-0.3,0.1c0-0.1,0-0.2,0.2-0.1
								c-0.8-0.1-1.6-0.1-2.5-0.1c-1,0-2-0.1-3-0.1v1.9v1.4v1.4l-0.1,1.8l2,0.1l-0.2,0.1l0.8-0.1c0,0,0,0-0.1,0.1
								c1,0.2,2.1,0,3.1,0.1c0,0-0.2,0.1,0,0.1c0.7-0.1,1.2,0.3,1.6-0.1c0,0,0.1,0.1,0,0.1c0.9,0,1.8,0,2.7,0l1.4,0.1h0.7h0.3v0.5
								c0.1,0.5,0.1,1,0.1,1.6c0,0.3,0,0.5,0,0.8v0.6h-1c-0.4,0-0.8,0-1.1,0v-0.1c-2.3,0.1-4.8-0.2-7.2-0.3c-1-0.1-1.7,0-2.7-0.1
								v-0.1c-0.7,0.1-1.5,0-2.3-0.1s-1.7-0.2-2.2-0.2c0-0.2,0-0.3-0.1-0.5l0.1,0.1c-0.2-0.2,0.1-1-0.2-0.9l0.1-0.3
								c-0.3-1.2,0.3-2.2,0.1-3.7l0.1,0.1c0-0.4-0.1-0.9,0-1.1c0,0,0,0,0,0.1c0.3-1.2,0.1-2.6,0.2-3.9l0.1,0.2
								c-0.1-0.6,0.1-1.8,0-2.6l0.1,0.1l-0.1-0.4h0.1C150.6,52,150.5,51,150.6,50z"/>
						</g>
					</g>
				</g>
			</g>
		</g>
		<g>
			<path class="st7" d="M63.3,84.4c0.1,1,0.3,1.8,0.7,2.3c0.7,1,2,1.5,3.9,1.6c1.1,0.1,2,0,2.8-0.2c1.3-0.4,2.1-1.2,2.1-2.5
				c0-0.7-0.3-1.3-0.9-1.8c-0.6-0.4-1.6-0.8-3-1.2L66.5,82c-2.3-0.6-3.9-1.3-4.8-1.9c-1.5-1.1-2.1-2.7-2-4.9c0.1-2,0.9-3.6,2.4-4.9
				s3.7-1.8,6.6-1.7c2.4,0.1,4.4,0.8,6,2.2c1.6,1.3,2.4,3.2,2.4,5.5l-4.5-0.2c0-1.3-0.6-2.3-1.7-2.9c-0.7-0.4-1.6-0.6-2.7-0.7
				c-1.2-0.1-2.2,0.1-3,0.6c-0.8,0.4-1.2,1.1-1.2,2c0,0.8,0.3,1.4,1,1.8c0.5,0.3,1.4,0.6,2.9,1.1l3.9,1.1c1.7,0.5,3,1.1,3.8,1.8
				c1.3,1.1,1.9,2.7,1.8,4.6c-0.1,2-1,3.7-2.6,5s-3.9,1.8-6.8,1.7c-2.9-0.1-5.2-0.9-6.8-2.3s-2.4-3.3-2.3-5.6L63.3,84.4z"/>
			<g>
				<path class="st8" d="M63.3,84.4c0.1,1,0.3,1.8,0.7,2.3c0.7,1,2,1.5,3.9,1.6c1.1,0.1,2,0,2.8-0.2c1.3-0.4,2.1-1.2,2.1-2.5
					c0-0.7-0.3-1.3-0.9-1.8c-0.6-0.4-1.6-0.8-3-1.2L66.5,82c-2.3-0.6-3.9-1.3-4.8-1.9c-1.5-1.1-2.1-2.7-2-4.9c0.1-2,0.9-3.6,2.4-4.9
					s3.7-1.8,6.6-1.7c2.4,0.1,4.4,0.8,6,2.2c1.6,1.3,2.4,3.2,2.4,5.5l-4.5-0.2c0-1.3-0.6-2.3-1.7-2.9c-0.7-0.4-1.6-0.6-2.7-0.7
					c-1.2-0.1-2.2,0.1-3,0.6c-0.8,0.4-1.2,1.1-1.2,2c0,0.8,0.3,1.4,1,1.8c0.5,0.3,1.4,0.6,2.9,1.1l3.9,1.1c1.7,0.5,3,1.1,3.8,1.8
					c1.3,1.1,1.9,2.7,1.8,4.6c-0.1,2-1,3.7-2.6,5s-3.9,1.8-6.8,1.7c-2.9-0.1-5.2-0.9-6.8-2.3s-2.4-3.3-2.3-5.6L63.3,84.4z"/>
				<g>
					<g>
						<g>
							<polygon class="st5" points="63.4,83.7 63.3,83.7 63.2,83.8 							"/>
							<path class="st5" d="M62.4,83.9L62.4,83.9l0.6-0.2C62.8,83.5,62.5,84,62.4,83.9z"/>
							<path class="st5" d="M62.2,83.8c-0.2-0.1-0.3,0.1-0.4,0.1C61.9,83.8,62.2,84,62.2,83.8z"/>
							<path class="st5" d="M75.5,89.6v-0.1c-0.5,0.8-1.5,1.3-2.4,1.8v-0.1c-1.2,0.5-2.4,0.7-3.6,0.8c-1.2,0.1-2.5,0.1-3.8-0.1h0.1
								c-0.1,0-0.3,0.1-0.4,0c0,0,0,0,0.1,0c-0.5-0.3-1.6-0.3-1.9-0.6c-0.1,0-0.2,0-0.2,0.1c-1.9-0.7-3.8-2.3-4.6-4.3
								c0-0.1,0-0.1,0.1-0.1c-0.2-0.4-0.3-0.9-0.4-1.3c0-0.2-0.1-0.4-0.1-0.8c0-0.2,0-0.3,0-0.5v-0.3V84v-0.1h0.1
								c0.4,0,0.7,0,1.1,0.1h0.7c0.5,0,0.9,0.1,1.3,0.1c0.1-0.1-0.2-0.1,0-0.2c-0.6-0.1-1.1,0.1-1.6,0l0.1-0.1
								c-0.4-0.1-0.1,0.2-0.5,0.1c-0.2-0.1,0.1-0.1,0-0.1c-0.4,0-0.7,0-1.1,0h-0.1h-0.1c0,0,0,0,0,0.1v0.3c0,0.2,0,0.4,0,0.6v0.5
								c0,0.2,0,0.2,0,0.3c0,0.2,0.1,0.4,0.2,0.6c-0.1,0.2,0.2,0.9,0.1,1.3c0.1,0.2,0.2,0.4,0.3,0.4c0.6,1.4,1.7,2.6,3,3.3
								c1.3,0.8,2.8,1.1,4.3,1.4c1.4-0.1,3,0.3,4.7,0l0,0c0.5-0.2,1.3-0.4,1.9-0.6c0.2-0.1,0.3-0.2,0.5-0.3c1.8-0.7,3.4-2.2,4-4.2
								c0.3-1,0.4-2,0.3-3s-0.4-2-1-2.9c-0.7-1-1.7-1.6-2.6-2.1c-1-0.5-2-0.8-3-1.1c-1-0.3-1.9-0.6-2.9-0.8c-1-0.3-2-0.5-2.9-0.8
								c0,0,0-0.1,0.1,0c-0.5-0.2-0.9-0.6-0.9-1.1c-0.1-0.5,0-1,0.2-1.4l0,0c0.2-0.6,0.8-1,1.5-1.2s1.4-0.3,2.1-0.2
								c1.4,0.1,2.9,0.5,3.8,1.5c0.2,0.3,0.3,0.5,0.4,0.9c0,0.2,0.1,0.3,0.1,0.5s0,0.4,0,0.6c1.6,0.1,2.8,0.1,4.4,0.2h0.2h0.1
								c0,0,0,0,0-0.1v-0.3c0-0.2,0-0.4,0-0.6c0-0.4-0.1-0.7-0.2-1.1c-0.2-0.7-0.5-1.4-0.9-2h0.1c-1.7-2.3-4.4-3.8-7.3-3.9
								c-1.5-0.2-3,0-4.5,0.6c-1.4,0.5-2.6,1.5-3.6,2.6c-0.7,0.7-1,1.7-1.1,2.8c-0.1,1,0.1,2,0.1,2.9c0.1,0.9,0.5,1.7,1.1,2.4
								c0.6,0.7,1.4,1.1,2.2,1.4c1.6,0.6,3.4,0.9,5.1,1.2c0.8,0.3,1.6,0.5,2.3,0.7c0.7,0.3,1.6,0.6,2.1,1.3c0.2,0.4,0.3,0.8,0.3,1.2
								c0,0.4-0.1,0.8-0.3,1.2c-0.4,0.8-1.3,1.2-2,1.3c-0.7,0.3-1.5,0.3-2.3,0.2c-0.8-0.1-1.6-0.3-2.4-0.5V88
								c-0.2-0.2-0.6-0.2-0.9-0.3c-0.3-0.1-0.6-0.2-0.6-0.5h0.1c-0.1-0.3-0.8-0.2-0.8-0.6h-0.1c-0.2-0.3,0.1-0.1,0-0.4
								c-0.1-0.1-0.2,0-0.2-0.2c0.3-0.2-0.3-0.9,0.1-1c0,0.2,0.1-0.3,0.3,0.1c0-0.1-0.1-0.7-0.2-0.7c-0.2,0-0.4-0.3-0.5,0.1l0.1,0.1
								c-0.1,0.1-0.1,0.1-0.1,0.2c0.1,0.5-0.1,0.6-0.1,1l0,0c0.2,0.2,0.3,0.6,0.4,0.8v0.1c-0.1,0.2,0.6,0.4,0.3,0.4
								c0.8,0.9,2.1,1.4,3.3,1.6c0.2-0.1,0.9,0.1,0.7-0.1c0.3,0.3,1.2,0.3,1.5,0.3c0,0,0,0-0.1,0c0.7,0.2,0.7-0.3,1.4-0.1
								c0-0.1,0.3-0.2,0.6-0.3c0.3-0.1,0.7-0.3,0.7-0.5c0.1,0,0.2,0,0.1,0.1c0.5-0.3,1-0.9,1.3-1.5c0.2-0.6,0.3-1.2,0.1-1.8
								c-0.2-0.5-0.6-1-1-1.3S71.4,83,71.1,83c-0.5-0.3-1.3-0.7-2.1-0.8h0.1c-0.8-0.2-1.8-0.5-2.5-0.4c-0.2-0.3-0.5-0.4-0.8-0.6
								c-0.6,0-1.6-0.4-2.4-0.6c-0.1-0.2-0.6-0.2-0.6-0.4c-1.1-0.3-2.1-1.2-2.5-2.4c-0.4-1.2-0.3-2.6,0.1-3.7l0,0
								c0-0.3-0.2-0.7-0.2-1.1c0,0,0.1,0,0,0.1c0.1-0.4,0.5-0.7,0.7-1.1c0,0,0,0,0,0.1c0.2-0.4,0.6-0.6,0.9-1h0.1
								c0.1-0.1,0.1-0.2,0.2-0.3c0,0.1,0.1,0.1,0,0.2c1.4-1.3,3.3-1.8,5.3-1.9s4.1,0.1,5.8,1.2H73c0.2,0.1,0.5,0.2,0.7,0.3h-0.1
								c0.8,0.6,1.6,1.2,2.1,2c0,0-0.2-0.1-0.1,0.1c0.5,0.5,0.3,1.1,0.7,1.3c0,0-0.1,0.1-0.1,0c0.2,0.5,0.3,0.9,0.3,1.4
								c0,0.2,0,0.3,0,0.5V76h-0.1h-0.2l-1.5-0.1c-0.5,0-1-0.1-1.6-0.1c-0.2,0-0.2,0-0.3,0c-0.1,0-0.2,0-0.3,0l-0.1-0.4
								c0-0.2-0.1-0.4-0.2-0.6c-0.1-0.4-0.3-0.8-0.6-1.1c-0.5-0.7-1.3-1-2.1-1.1v-0.1c-1.2-0.2-2.4-0.3-3.6-0.1
								c-0.6,0.1-1.2,0.3-1.7,0.8c-0.5,0.4-0.8,1-0.8,1.7c-0.1,1.1,0.5,1.8,1.4,2.1v0.1c1.7,0.4,3.3,1.3,5.1,1.5l-0.1,0.1
								c0.3-0.1,1,0.4,1,0l0.3,0.2c1.3,0,2,0.8,3.4,1.3h-0.1c0.4,0.2,0.8,0.4,0.9,0.7c0,0,0,0-0.1,0c0.4,0.5,0.7,1,1,1.5
								s0.6,1.2,0.6,1.8l-0.1-0.1c0.2,0.6,0.1,1.7,0,2.5v-0.1c0,0.1,0,0.3,0,0.4h-0.1C76.6,87.9,76.2,88.8,75.5,89.6z"/>
							<path class="st5" d="M63.1,85.9c0-0.1,0-0.1,0-0.1C63,85.8,63.1,85.8,63.1,85.9z"/>
						</g>
					</g>
				</g>
			</g>
		</g>
		<g>
			<path class="st7" d="M87.7,70.1l5.3,0.2L99.8,93l-5-0.2l-1.3-4.6l-8.2-0.4l-1.7,4.5l-4.9-0.2L87.7,70.1z M86.8,83.9l5.7,0.3
				l-2.4-8.9L86.8,83.9z"/>
			<g>
				<path class="st8" d="M87.7,70.1l5.3,0.2L99.8,93l-5-0.2l-1.3-4.6l-8.2-0.4l-1.7,4.5l-4.9-0.2L87.7,70.1z M86.8,83.9l5.7,0.3
					l-2.4-8.9L86.8,83.9z"/>
				<g>
					<g>
						<g>
							<polygon class="st5" points="87.4,84.2 87.4,84.2 87.3,84.1 							"/>
							<path class="st5" d="M87.2,83.9L87.2,83.9l0.2,0.2C87.6,84.1,87.1,83.9,87.2,83.9z"/>
							<path class="st5" d="M87.3,83.9c0.1,0,0-0.1-0.1-0.1C87.3,83.8,87.1,83.8,87.3,83.9z"/>
							<path class="st5" d="M88.5,79.1L88.5,79.1c0,0.2-0.2,0.3-0.2,0.5l0,0c-0.2,0.5-0.2,1-0.3,1.5l0,0l0.1,0.1c0,0,0,0-0.1,0
								c-0.2,0,0,0.3-0.2,0.3l0.1,0.1c-0.1,0.4-0.2,0.8-0.2,1.2h-0.1c0.2,0.4-0.1,0.7-0.3,1c0.1,0,0.1,0,0.2,0.1
								c0.1-0.1-0.1-0.3,0.1-0.3h0.1c0.1-0.1-0.2-0.1-0.1-0.1s0.1,0,0.1,0c0-0.2,0.2-0.3,0-0.5c0.2,0,0.1-0.2,0.2-0.2
								c0-0.1,0-0.1-0.1-0.1c0.3-0.5,0.3-1.1,0.6-1.6c-0.2-0.4,0.3-0.5,0.3-0.9l0,0c0-0.1,0-0.3,0.1-0.4l-0.1-0.1
								c0.5-0.6,0.6-1.4,1-2c0.1-0.2,0.1-0.2,0.2-0.3l0.1-0.1c0-0.1,0-0.2,0.1-1v-0.1c0,0.1,0,0.1,0,0.2c0.1-0.1,0,0.4,0.1,0.3v0.1
								c0.1-0.1,0.2,0.1,0.2,0.3c0,0.2,0.1,0.3,0.3,0.6c0.1,0.6,0.4,1.4,0.6,2h-0.1c0.3,0.5,0.1,1.1,0.3,1.6c0,0.6,0.7,1,0.6,1.7
								c-0.1,0.2,0,0.4,0.2,0.6c0.1,0.2,0.3,0.5,0.2,0.6h-0.1c-0.6-0.2-0.7-0.3-0.9-0.2c-0.3,0-0.7,0.2-1,0.3
								c-0.6-0.2-1.3,0.2-1.9-0.2c-0.3,0.2-0.6-0.3-0.9-0.3v0.1c-0.1-0.2-0.3,0.3-0.3,0l0,0c-0.1-0.2-0.2,0.4-0.2,0.2v0.1
								c-0.1,0,0-0.1-0.1-0.1c0,0,0,0.2-0.1,0.1c0-0.4-0.2,0.1-0.2-0.3c0,0-0.1-0.2,0-0.2c0,0-0.2,0-0.1,0.1c0,0.2-0.1,0.3,0,0.5
								v-0.1c0,0.1,0,0.1,0,0.2c0.1,0,0.1,0.2,0.2,0.3l0,0c0.1-0.2,0.1-0.1,0.2,0v0.1c0,0.2,0.1-0.3,0.1,0c0.2-0.1,0.4,0,0.7,0
								c0-0.1,0.2,0,0.1-0.2c0,0.2,0.2,0.3,0.3,0.3l0,0c0.1,0.3,0.2-0.3,0.3,0.1c0-0.2,0.2,0.1,0.3-0.2c0,0.1,0,0.1,0,0.1
								c0.2,0,0.4,0.1,0.6,0.1c0.2-0.2,0.4,0.1,0.5-0.2c0.1,0.1,0.3,0.2,0.4,0.1l0,0c0.2,0,0.4,0,0.5-0.2c0,0.3,0.1,0.2,0.2,0.3
								c0.1-0.1,0.3-0.1,0.5-0.2c0.1,0.1,0.2,0,0.3,0.1c0.4-0.2,0.7-0.2,1.2-0.2c-0.1-0.4-0.1-0.7,0-1.2l0,0
								c-0.1-0.1-0.4-0.2-0.6-0.3l0,0c-0.1-0.1,0.1-0.2,0-0.3c0,0,0,0,0.1,0c-0.1-0.1,0.1-0.2-0.1-0.3l0,0h-0.1c0.1,0,0.2,0,0.1,0
								c-0.1-0.8-0.7-1.5-0.8-2.3h0.1l-0.1-0.1c0,0,0,0,0.1,0c0.1-0.2-0.2-0.4-0.2-0.6h0.1c-0.2-0.1,0.2-0.3-0.2-0.3h0.1
								c-0.2-0.4-0.3-0.8-0.4-1.2c-0.4-0.3-0.2-0.7-0.6-1h0.1c-0.2-0.2-0.2-0.4-0.3-0.7c0-0.3-0.1-0.7-0.2-0.9
								c-0.1-0.3-0.1-0.2-0.2-0.4v-0.3c-0.1,0.7-0.1,0.6-0.2,0.6s-0.2,0.2-0.2,0.7v-0.2c0,0.4-0.1,0.1,0,0.6c0,0,0-0.1-0.1-0.1
								c0.1,0.4,0,0.4-0.1,0.4s-0.2,0.1-0.1,0.3L89.2,77c0,0.1,0,0.2-0.1,0.2l0,0c-0.3,0.1-0.2,0.5-0.3,0.7l-0.1-0.1
								c0.1,0.2-0.1,0.3-0.1,0.5h-0.1l0.1,0.1h-0.1C88.6,78.7,88.6,78.9,88.5,79.1z"/>
						</g>
					</g>
				</g>
				<g>
					<g>
						<g>
							<path class="st5" d="M87.1,70.5L87.1,70.5L87,70C86.8,70.1,87.2,70.4,87.1,70.5z"/>
							<path class="st5" d="M87,70.6c-0.1,0.1,0,0.2,0,0.3C86.9,70.8,87.2,70.6,87,70.6z"/>
							<path class="st5" d="M81.3,86L81.3,86c0.1-0.6,0.6-1.2,0.8-1.8v0.1c0.7-1.6,1.1-3.1,1.7-4.7c0,0,0,0,0,0.1c0-0.1,0-0.2,0-0.3
								c0,0,0,0,0,0.1c0.3-0.3,0.3-1,0.5-1.2c0-0.1,0-0.2-0.1-0.1c0.5-1.2,1-2.6,1.3-3.8c0-0.1,0.1,0,0.2,0c0.2-1.2,0.7-2.2,1.2-3.3
								c-0.1-0.1-0.1,0.1-0.2-0.1c-0.2,0.3-0.1,0.7-0.3,1l-0.1-0.1c-0.1,0.2,0.2,0.1,0,0.3c-0.1,0.1-0.1-0.1-0.1,0
								c-0.2,0.5-0.4,1-0.5,1.5c-0.2,0.1-0.2,0.5-0.4,0.6c0,0.2-0.1,0.3,0,0.4c-0.8,1.7-1.4,3.5-2.1,5.2c0,0.9-0.8,1.8-1.1,2.8l0,0
								c-0.1,0.3-0.2,0.8-0.4,1.2v0.4c-0.6,1.1-1.1,2.2-1.6,3.4l-0.7,1.7L79,90.3l-0.4,0.9c-0.2,0.4-0.4,0.8-0.5,1.2
								c1,0.1,2,0.2,3,0.2c0.4,0,0.8,0,1.2,0.1c0.5,0,1,0,1.6,0.1l0.3-0.9l0.2-0.6c0.1-0.4,0.2-0.8,0.3-1.2c0,0,0.1,0,0,0.1
								c0.1-0.4,0.3-0.7,0.4-1.1l0.2-0.5l0.1-0.2v-0.2l0,0v-0.1c0.1,0,0.7,0,1.1,0l1.4,0.1c0.9,0,1.8,0.1,2.7,0
								c0.8,0,1.7,0.1,2.6,0.1c0.2,0.6,0.4,1.3,0.6,2s0.4,1.4,0.6,2.1h-0.1c0.1,0.2,0.1,0.4,0.2,0.6c0.9,0,1.7,0.1,2.5,0.2l1.2,0.1
								h0.7h0.8h0.1c-0.1-0.5-0.4-1.2-0.5-1.6c-0.2-0.5-0.3-0.9-0.5-1.4c-0.4-0.9-0.7-1.8-0.9-2.7c0-1.2-1.1-2.5-1.2-3.7
								c-0.2-2.3-1.1-4.4-2.1-6.5c-0.4-2.1-1.5-4-1.7-6c-0.1-0.1-0.1-0.3-0.2-0.4c0-0.1-0.1-0.2-0.1-0.4c-0.3,0-0.7-0.1-1-0.2
								c-0.4-0.1-0.7-0.1-1.1-0.1v0.1c-0.4-0.3-0.9,0.3-1.1-0.1l0,0c-0.2-0.2-0.5,0.4-0.6,0.2v0.1c-0.2,0,0-0.1-0.2-0.1
								c-0.1,0,0,0.2-0.2,0.1c0-0.4-0.6,0-0.6-0.4c0.1,0-0.2-0.2,0.1-0.2c-0.1,0-0.5,0-0.5,0.1c0,0.2-0.2,0.3,0,0.5l0.1-0.1
								c0.1,0.1,0.1,0.1,0.1,0.2c0.3,0,0.4,0.2,0.6,0.3l0,0c0.2-0.2,0.4,0,0.5,0v0.1c0.1,0.2,0.4-0.3,0.3,0c0.7,0,1.4,0,2.2,0
								c0.1-0.1,0.6,0,0.4-0.2c0.1,0.1,0.3,0.2,0.5,0.2c0.1,0,0.1,0.1,0.1,0.1l0,0c0,0,0,0,0,0.1c-0.1,0.1,0.2-0.2,0.1,0.3
								c0.3,0,0.1,0.7,0.5,0.8c0,0.1-0.1,0.1-0.1,0.1c0.2,0.7,0.3,1.4,0.5,2c0.4,0.4,0.2,1.2,0.7,1.5c0,0.4,0.1,0.9,0.3,1.4l0,0
								c0.2,0.5,0.4,1.2,0.7,1.5c-0.2,0.2-0.1,0.5-0.1,0.7c0.2,0.3,0.4,1,0.7,1.5c-0.1,0.1,0.2,0.4,0,0.5c0.8,1.4,1.3,3.3,1.5,5l0,0
								c0.2,0.2,0.5,0.4,0.7,0.5c0,0,0,0-0.1,0c0.1,0.3,0,0.6,0.1,0.9c0,0,0,0-0.1,0c0.2,0.3,0,0.6,0.3,0.9l0,0l0.1,0.2
								c-0.1,0-0.2,0-0.2-0.1c0.2,0.8,0.5,1.5,0.7,2.3l0.4,1.1c0.1,0.2,0.1,0.3,0.1,0.3l0.1,0.3h-0.3h-0.1h-0.2h-0.4
								c-0.5,0-1.1,0-1.6-0.1l0.1-0.1l-0.5,0.1c0,0,0,0,0.1-0.1c-0.2,0-0.5-0.1-0.7-0.1h-0.2h-0.1H95c0-0.1-0.1-0.2-0.1-0.3
								c0,0,0.1,0.1,0.1,0c-0.3-0.4,0-0.8-0.4-0.9c0,0,0.1-0.1,0.1,0c-0.2-0.5-0.4-1-0.5-1.5c-0.2-0.6-0.3-0.9-0.5-1.8l-1.1-0.1
								c-1.1,0.3-2.4-0.1-3.6,0.1v-0.1c-0.6,0.1-1.3,0-1.9,0c-0.7-0.1-1.3-0.1-2-0.2c-0.1,0.3-0.3,0.6-0.3,0.9
								c-0.3,0.6-0.3,1-0.6,1.7h-0.1c0,0.4-0.2,0.7-0.3,1L83.6,92l-0.2,0.4c-0.2,0-0.3,0-0.5,0s-0.4,0-0.6,0.1l0.1-0.1
								c-0.2,0.2-0.7-0.1-0.6,0.2l-0.2-0.1c-0.8,0.4-1.4-0.2-2.4,0l0.1-0.1c-0.2,0-0.4,0-0.6,0c0-0.1,0.1-0.2,0.1-0.2l0,0
								c0.3-0.4,0.4-0.6,0.5-1.1c0.1-0.4,0.2-0.8,0.4-1.2l0.1,0.1c0-0.4,0.4-1.1,0.6-1.6v0.1v-0.3h0.1C80.9,87.2,81,86.6,81.3,86z"
								/>
						</g>
					</g>
				</g>
			</g>
		</g>
		<g>
			<path class="st7" d="M103.7,70.8l4.7,0.2l-0.9,18.3l11.1,0.5l-0.2,4l-15.8-0.7L103.7,70.8z"/>
			<g>
				<path class="st8" d="M103.7,70.8l4.7,0.2l-0.9,18.3l11.1,0.5l-0.2,4l-15.8-0.7L103.7,70.8z"/>
				<g>
					<g>
						<g>
							<polygon class="st5" points="103,70.8 103,70.8 103.1,70.9 							"/>
							<path class="st5" d="M103.2,71.4C103.3,71.4,103.3,71.4,103.2,71.4L103,71C102.9,71.2,103.4,71.3,103.2,71.4z"/>
							<path class="st5" d="M103.2,71.5c-0.1,0.1,0.1,0.2,0.1,0.2C103.2,71.7,103.4,71.5,103.2,71.5z"/>
							<path class="st5" d="M103,87L103,87c-0.1-0.6,0.2-1.3,0.1-1.9l0,0c0.1-1.6,0-3.1,0-4.7c0,0,0,0,0.1,0.1
								c0-0.1-0.1-0.2-0.1-0.3c0,0,0.1,0,0.1,0.1c0.2-0.3-0.1-1,0.1-1.2c0-0.1-0.1-0.1-0.2-0.1c0-1.2,0-2.6,0-3.9
								c0-0.1,0.1-0.1,0.1,0c-0.2-1.1-0.1-2.2,0-3.3c-0.1,0-0.1,0.1-0.2,0c-0.1,0.4,0.2,0.7,0,1h-0.1c-0.1,0.2,0.2,0.1,0.1,0.3
								c-0.1,0.1-0.1,0-0.1,0c0,0.5-0.1,1,0.1,1.5c-0.2,0.1,0,0.5-0.2,0.7c0.1,0.1,0,0.3,0.1,0.3c-0.2,1.7-0.1,3.5-0.2,5.3
								c0.3,0.9-0.1,1.8-0.1,2.8l0,0c0.1,0.3,0.1,0.8,0,1.2l0.1,0.3c-0.4,2.3-0.3,4.7-0.5,7.1c0,0.4,0,0.7-0.1,1
								c0.7,0.1,1.5,0.1,2.2,0.2c0.6,0,1.2,0.1,1.7,0.1c1.2,0.1,2.3,0.1,3.5-0.1c0,0,0,0-0.1,0.1c0.8,0,1.4,0.1,2.2,0.1l0,0
								c1.8-0.2,3.7,0.2,5.4,0c0.4,0,0.9,0,1.4,0.1c0.1-1.5,0.1-2.6,0.1-4.2c-0.5,0-1,0-1.4,0v-0.1c-1.8,0-3.5-0.4-5.2-0.3
								c-1.5-0.2-3,0.1-4.6,0c0-0.3,0-0.7,0.1-1c0.4-1.1-0.2-2.6,0.1-3.7c0.6-2.2,0.4-4.3,0.2-6.5c0.3-2-0.1-4,0.4-5.9
								c0-0.2,0-0.4,0-0.6s0-0.4,0.1-0.6c-0.2-0.1-0.5-0.1-0.8-0.2s-0.6-0.1-0.9-0.1v0.1c-0.4-0.3-0.8,0.3-1-0.1l0,0
								c-0.2-0.2-0.5,0.4-0.6,0.2v0.1c-0.2,0,0-0.1-0.2-0.1c-0.1,0,0,0.2-0.2,0.1c0-0.4-0.6,0.1-0.6-0.4c0.1,0-0.2-0.2,0.1-0.2
								c-0.1,0-0.5,0-0.4,0.1c0,0.2-0.2,0.3,0,0.5l0.1-0.1c0.1,0.1,0.1,0.1,0.1,0.2c0.3,0,0.3,0.2,0.6,0.3l0,0c0.2-0.2,0.4,0,0.5,0
								v0.1c0.1,0.2,0.4-0.3,0.3,0c0.6,0,1.4,0,2.1,0c0.1,0,0.2,0,0.3,0c0.1,0,0.1,0,0.1-0.1c0.1,0.2,0.1,0.2,0.1,0.3v0.1l0,0
								c-0.1,0.1-0.1,0.1,0,0.1s0.1,0.2-0.1,0.4c0.2,0.1-0.1,0.6,0.2,0.9c-0.1,0-0.1,0.1-0.2,0c0,0.6-0.2,1.4-0.2,1.9
								c0.2,0.5-0.2,1.1,0.1,1.5c-0.1,0.3-0.2,0.9-0.1,1.3l0,0c0,0.5,0,1.2,0.2,1.5c-0.3,0.1-0.2,0.4-0.4,0.6c0.1,0.4,0,1.1,0.1,1.6
								c-0.1,0.1,0,0.4-0.2,0.5c0.3,1.5,0.1,3.3-0.3,4.9l0,0c0.1,0.2,0.3,0.5,0.4,0.7l0,0c0,0.3-0.2,0.6-0.2,0.8c0,0,0,0-0.1-0.1
								c0,0.2,0,0.2,0,0.5c0,0.2-0.1,0.5,0,0.7l-0.1,0.1v0.2h0.1c0,0-0.1,0.1-0.2,0.1c0,0,0,0,0-0.1V90c0.5,0,1,0,1.5,0.1h0.9
								c0.6,0,1.3,0,1.9,0c1.3,0,2.5,0,3.8,0.1l-0.1,0.1l0.5-0.1c0,0,0,0-0.1,0.1c0.6,0.1,1.3,0,1.9,0c0,0-0.1,0.1,0,0.1
								c0.2-0.1,0.4,0,0.6,0c0.1,0,0.1,0,0.3-0.1c0,0,0,0.1-0.1,0.1h0.2v0.2c0,0.1,0,0.1,0,0.3v0.9l-0.1,0.9v0.4v0.2v0.1
								c0,0.1,0.1,0.2,0.1,0.4c-0.1,0-0.3,0-0.4,0h-0.7c-0.5,0-1,0-1.4,0.1v-0.1c-1.4,0.2-3-0.2-4.4-0.2c-0.6-0.1-1,0-1.7,0v-0.1
								c-1.1,0.3-2.2-0.4-3.3-0.1l0.1-0.1c-0.2,0.2-0.7-0.1-0.6,0.2l-0.2-0.1c-0.8,0.4-1.3-0.2-2.3,0l0.1-0.1c-0.2,0-0.5,0.1-0.6,0
								v-0.1l0,0c0.1-0.2,0.1-0.4,0.1-0.5s0-0.4,0-0.6c0-0.4-0.1-0.8-0.1-1.2l0.1,0.1c-0.1-0.4,0-1.1,0-1.6h0.1l-0.1-0.3h0.1
								C103.1,88.3,103,87.7,103,87z"/>
						</g>
					</g>
				</g>
			</g>
		</g>
		<g>
			<path class="st7" d="M138.9,76.4l-11.8-0.6l-0.2,4.7l10.8,0.5l-0.2,3.9l-10.8-0.5l-0.3,5.7l12.3,0.6l-0.2,4l-16.9-0.8l1-22.3
				l16.3,0.8V76.4z"/>
			<g>
				<path class="st8" d="M138.9,76.4l-11.8-0.6l-0.2,4.7l10.8,0.5l-0.2,3.9l-10.8-0.5l-0.3,5.7l12.3,0.6l-0.2,4l-16.9-0.8l1-22.3
					l16.3,0.8V76.4z"/>
				<g>
					<g>
						<g>
							<polygon class="st5" points="139.6,76.5 139.6,76.4 139.5,76.2 							"/>
							<path class="st5" d="M139.4,75.5L139.4,75.5l0.2,0.6C139.8,75.8,139.3,75.6,139.4,75.5z"/>
							<path class="st5" d="M139.4,75.3c0.1-0.2-0.1-0.3-0.1-0.4C139.4,75,139.3,75.3,139.4,75.3z"/>
							<path class="st5" d="M122.6,77.8l0.1,0.1c-0.2-1,0.1-2.1,0.1-3.1v0.1c0-0.5,0-1,0.1-1.6c0-0.5,0-0.9,0-1.4c1.5,0,2.9,0,4.4,0
								c0,0-0.1,0-0.1,0.1c0.1,0,0.3-0.1,0.4-0.1c0,0,0,0-0.1,0.1c0.5,0.2,1.6,0,1.9,0.1c0.2,0,0.2-0.1,0.1-0.1c2,0,4.2,0.1,6.3,0.1
								c0.1,0,0.1,0.1,0.1,0.1c0.5-0.1,1-0.1,1.6-0.1h0.8l1.3,0.1l-0.1,1.6l-0.1,1.1c0.1,0.1,0.1-0.2,0.2,0c0.1-0.6-0.1-1,0-1.6
								c0,0,0,0.1,0.1,0.1c0.1-0.7-0.2-0.1-0.1-0.8c0.1-0.3,0.1,0,0.1-0.1v-0.4c-0.6,0-1.2,0-1.7-0.1c-0.4,0-0.7,0-1.1,0.1
								c-0.2-0.2-0.9,0-1.2-0.2c-0.2,0.1-0.4,0-0.5,0.1c-2.8-0.2-5.8-0.2-8.7-0.3c-0.6,0.1-1.2,0.1-1.8,0c-0.7-0.1-1.1-0.1-2.3-0.2
								v0.6c0,0.2,0,0.5,0,0.6l0,0c0.1,0.5,0.1,1.3,0,1.9l0.1,0.5c-0.5,3.8-0.4,7.7-0.7,11.5c-0.1,1.3-0.2,2.6-0.3,3.8
								c0,0.6-0.1,1.2-0.1,1.8l-0.1,2.3c0.6,0,1.2,0,1.8,0.1c0.4,0,0.8,0,1.2,0c0.8,0,1.7,0,2.5-0.1c0,0,0,0-0.1,0.1
								c1.2,0,2.3,0.2,3.5,0.1l0,0c1.4-0.1,2.8,0,4.3,0.1c0.7,0,1.4,0.1,2.1,0.1c0.7,0,1.4,0,2.2,0c0-0.1,0-0.3,0-0.4
								c0.1-1.2,0.1-2.5,0.2-3.9c-1.2,0-2.4-0.1-3.6-0.1c-1.2,0-2.4-0.1-3.6-0.1v-0.1c-0.9,0-1.8,0-2.7-0.1l-2.5-0.2l0.1-0.6
								l0.1-0.8c0-0.5,0.1-1.1,0.1-1.6c0-0.4,0.1-0.8,0.1-1.3v-0.6v-0.5c1,0,2,0,3.1,0s2.2,0,3.2,0.2c0.7,0.1,1.4,0.2,2.1,0.1
								c0.7,0,1.5,0,2.2-0.1c0-0.3,0-0.5,0-0.7c0-0.3,0.1-0.5,0.1-0.7c0.1-0.4,0.1-0.8,0.2-1.2c0.1-0.3,0.1-0.8,0.1-1.3
								c-0.9-0.1-1.5-0.1-2.2-0.1s-1.4,0-2,0c-1.4,0-2.7,0.1-4.1,0.1c-0.4,0-0.9-0.1-1.3-0.1l-1.4-0.1c0-0.8,0-1.7,0.1-2.5
								c0-0.8,0-1.5,0.1-2.5c1.1,0.1,1.7,0.1,2.5,0.3c1.5-0.2,3.1,0.4,4.8,0.4l-0.1-0.1c0.6,0.3,1.3-0.3,1.7,0.1h-0.1
								c0.3,0.2,0.8-0.4,0.9-0.2l0.1-0.1c0.4,0,0,0.1,0.3,0.2c0.1,0,0-0.2,0.3-0.1c0,0.4,0.9,0,0.9,0.4c-0.2,0,0.3,0.2-0.2,0.2
								c0.1,0,0.8,0.1,0.7-0.1c0.1-0.2,0.3-0.3-0.1-0.5l-0.1,0.1c-0.1-0.1-0.1-0.1-0.1-0.2c-0.5,0-0.6-0.2-0.9-0.3l0,0
								c-0.3,0.1-0.6,0-0.8,0l-0.1-0.1c-0.1-0.2-0.6,0.3-0.4,0c-1,0-2.2,0-3.4-0.1c-0.2,0.1-0.9-0.1-0.6,0.2
								c-0.3-0.2-1.1-0.3-1.5-0.3c0,0,0,0,0.1,0c-0.6-0.3-0.7,0.2-1.3-0.1c-0.1,0.2-1.1-0.1-1.4,0.1c-0.1-0.1-0.1-0.1-0.1-0.2
								c-0.6,0-1.2-0.1-1.7-0.1c-0.1,1-0.1,1.9-0.2,2.6c0.1,0.4,0,0.8,0,1.3c0,0.2,0,0.4,0,0.6s0,0.3,0,0.5s0,0.3,0.1,0.4
								c0,0.1,0,0.3,0,0.4c0.4,0,0.9,0.1,1.4,0.2c0.3,0,0.7,0,1,0h-0.1c0.8,0,1.9,0.1,2.5-0.1c0.2,0.3,0.6,0.3,1,0.4
								c0.6-0.1,1.7,0,2.6-0.1c0.1,0.1,0.7,0,0.8,0.2c0.6-0.1,1.6-0.1,1.7-0.1v0.2V82c0,0.3,0,0.6-0.1,1l-0.1,1v0.2
								c0,0.1,0,0.1,0,0.1c0,0.1,0,0.1,0,0.1H137c0,0,0,0-0.1,0h-0.2c-0.3,0-0.6-0.1-1-0.1l0,0c-0.3,0.1-0.7,0.3-1.1,0.4
								c0,0,0-0.1,0,0c-0.5,0-0.9-0.2-1.4-0.2c0,0,0,0,0.1-0.1c-0.4,0.1-0.9-0.2-1.4-0.1v-0.1l-0.3,0.1c0-0.1,0-0.2,0.2-0.1
								c-0.8-0.1-1.6-0.1-2.5-0.1c-1,0-2-0.1-3-0.1v1.9v1.4v1.4l-0.1,1.8l2,0.1l-0.2,0.1l0.8-0.1c0,0,0,0-0.1,0.1
								c1,0.2,2.1,0,3.1,0.1c0,0-0.2,0.1,0,0.1c0.8-0.1,1.2,0.3,1.6-0.1c0,0,0.1,0.1,0,0.1c0.9,0,1.8,0,2.7,0l1.4,0.1h0.7h0.3v0.5
								c0.1,0.5,0.1,1,0.1,1.6c0,0.3,0,0.5,0,0.8v0.6h-1c-0.4,0-0.8,0-1.1,0v-0.1c-2.3,0.1-4.8-0.2-7.2-0.3c-1-0.1-1.7,0-2.7-0.1
								v-0.1c-0.7,0.1-1.5,0-2.3-0.1s-1.7-0.2-2.2-0.2c0-0.2,0-0.3-0.1-0.5l0.1,0.1c-0.2-0.2,0.1-1-0.2-0.9L122,92
								c-0.3-1.2,0.3-2.2,0.1-3.7l0.1,0.1c0-0.4-0.1-0.9,0-1.1c0,0,0,0,0,0.1c0.3-1.2,0.1-2.6,0.2-3.9l0.1,0.2
								c-0.1-0.6,0.1-1.8,0-2.6l0.1,0.1l-0.1-0.4h0.1C122.6,79.8,122.5,78.8,122.6,77.8z"/>
						</g>
					</g>
				</g>
			</g>
		</g>
	</g>
</g>
</svg>
