<?xml version="1.0" encoding="utf-8"?>
<!-- Generator: Adobe Illustrator 23.0.1, SVG Export Plug-In . SVG Version: 6.00 Build 0)  -->
<svg version="1.1" id="Layer_1" xmlns="http://www.w3.org/2000/svg" xmlns:xlink="http://www.w3.org/1999/xlink" x="0px" y="0px"
	 viewBox="0 0 200 170" style="enable-background:new 0 0 200 170;" xml:space="preserve">
<style type="text/css">
	.st0{fill:#EAB9C5;}
	.st1{fill:#D97294;}
	.st2{fill:#F5E1E5;}
	.st3{fill:#F8E9EC;}
	.st4{fill:#E299AD;}
	.st5{fill:#D45D85;}
	.st6{fill:#FDF8F9;}
	.st7{fill:#F3DADF;}
	.st8{fill:none;}
	.st9{fill:none;stroke:#B5DFCC;stroke-width:2;stroke-linecap:round;stroke-linejoin:round;stroke-miterlimit:10;}
	.st10{fill:#DB7C99;}
	.st11{fill:#FAF0F2;}
	.st12{fill:#F6E5E8;}
	.st13{fill:#DA7194;}
	.st14{fill:#F3A169;}
	.st15{fill:none;stroke:#EBB1C5;stroke-miterlimit:10;}
	.st16{fill:#0075C2;}
</style>
<g>
	<g>
		<path class="st0" d="M183.1,132.7H23.6c-1.8,0-3.2-1.4-3.2-3.2V32.8c0-1.8,1.4-3.2,3.2-3.2h159.6c1.8,0,3.2,1.4,3.2,3.2v96.7
			C186.3,131.2,185,132.7,183.1,132.7z"/>
		<g>
			<g>
				<g>
					<g>
						<path class="st5" d="M183.1,133.4h0.3c0.2-0.1,0.5-0.1,0.7-0.2C183.9,133.3,183.6,133.3,183.1,133.4z"/>
						<path class="st5" d="M186.8,130.3c-0.1,0.1-0.1,0.1-0.1,0.2c-0.2,1-0.7,1.8-1.6,2.5c0.6-0.2,1.1-0.7,1.3-1.3
							C186.6,131.2,186.6,130.7,186.8,130.3z"/>
						<path class="st5" d="M186.9,129.5c0.1-1-0.1-1.4-0.1-1.6C186.9,128.2,186.8,129.7,186.9,129.5z"/>
						<path class="st5" d="M186.8,43.5c0,0.1,0,0.2,0,0.3C186.9,43.6,186.8,43.5,186.8,43.5z"/>
						<path class="st5" d="M176.4,29.7l-0.2,0.1c2.1-0.1,4.3-0.1,6.6-0.1c1.1-0.1,2.2,0.3,2.9,1.3c0.3,0.4,0.5,1,0.6,1.5
							c0,0.5,0,1.1,0,1.7v-0.3c0,11.2,0.1,21.6,0.2,32.7c0-0.2,0-0.2-0.1-0.4c0,0.5,0.1,1.2,0.1,1.7c0,0.1-0.1-0.2-0.1-0.3
							c-0.2,2.4,0.1,6.9,0,8.3c0,0.6,0.1,1,0.2,0.5c0,8.8,0.1,18.1,0.2,26.9c0,0.4-0.1,0.5-0.1,0.4c0.3,7.6,0.2,15.6,0.1,23.3
							c0.1,0.3,0.1-0.7,0.2,0c0.1-2.5-0.2-4.6,0-6.8l0.1,0.3c0-1.6-0.2-0.3-0.1-2c0.1-0.6,0.1,0.2,0.1-0.1c0-3.5,0-7.2-0.1-10.5
							c0.2-0.9,0-3.7,0.2-5c-0.1-0.9,0-1.8-0.2-2.1c0.1-12.3-0.1-24.8-0.1-37.4c-0.3-5.9,0.1-12.9,0-19.9l0,0
							c-0.1-2.2-0.1-5.6-0.1-8.3l-0.1-2.4c0-1.1-0.5-2.1-1.4-2.9c-0.4-0.3-1-0.5-1.5-0.6c-0.5-0.1-1.1,0-1.6-0.1c-2,0-4.1,0-6.2,0
							c-4.2,0-8.2,0-12.4,0c-8.3,0-16.7,0-24.9,0c-18.9-0.1-35.4-0.3-53.8,0.1c0,0-0.1,0,0.3-0.1c-5.3,0.1-10.2-0.1-15.2,0l0,0
							c-12.4,0.3-25.8,0-37.7,0.2c-1.8,0-3.6,0-5.6,0c-1,0-1.9,0-2.8,0c-1-0.1-2,0.2-2.7,1c-0.7,0.6-1.1,1.7-1,2.7c0,1,0,1.9,0,2.9
							c0,1.9,0,3.8,0,5.9c0,7.8,0.1,15.8,0.1,23.5h-0.1c0.1,12.3-0.2,24.3-0.1,36.6c-0.1,6.3,0,12.8,0.1,19.3l0.1,4.9v2.5
							c0,0.9,0,1.6,0.3,2.4c0.3,0.7,1,1.3,1.7,1.6c0.7,0.3,1.6,0.2,2.4,0.2c1.6,0,3.2,0,4.8,0c7.9,0.3,18.3-0.4,25.7,0
							c15.2,0.5,29.9,0.2,45.2-0.1c14,0.2,28-0.3,41.7,0.1c6.4-0.2,13.6,0.3,20.7,0.2l-0.2-0.1c2.6,0.2,5.8-0.3,7.4,0h-0.3
							c1.4,0.2,3.2-0.4,4-0.2l0.2-0.1c1.6,0,0.2,0.1,1.5,0.1c0.4,0,0.2-0.2,1.2-0.1c0.2,0.4,4.1-0.1,4.2,0.3c-0.9,0,1.4,0.2-0.6,0.2
							c0.5,0,3.3,0,3.1-0.2c0.2-0.2,1.3-0.3-0.3-0.5l-0.3,0.1c-0.5-0.1-0.4-0.1-0.6-0.2c-2.2,0-2.5-0.2-4.1-0.3l0,0
							c-1.1,0.2-2.6,0.1-3.4,0l-0.3-0.1c-0.5-0.2-2.5,0.3-1.8,0c-4.5,0.1-9.6,0.1-14.5,0.1c-0.7,0.1-3.8,0-2.8,0.2
							c-1.3-0.2-4.9-0.3-6.3-0.3c0,0,0.1,0,0.3,0c-2.7-0.3-3.2,0.3-5.7-0.1c-0.4,0.2-4.6-0.1-6,0.2c-0.3-0.1-0.4-0.1-0.3-0.1
							c-4.5,0-9.5-0.1-13.3-0.1c-3.2,0.2-7.9-0.1-10.7,0.2c-2.4-0.1-6.1-0.2-9.3-0.1h0.3c-3.6,0-8.2,0-10.7,0.2
							c-1.1-0.3-2.7-0.2-4.3-0.3c-2.5,0.1-7.4,0.1-11.1,0.2c-0.5-0.1-3.1,0.1-3.3-0.1c-10.5,0.4-23.3,0.2-34.5,0h0.2
							c-1.5,0.1-3.1,0.3-4.6,0.5c-0.1,0-0.1,0,0.2,0c-2,0-4-0.2-6-0.1c0,0,0,0,0.3-0.1c-1.9,0.1-4-0.2-6.2,0l-0.1-0.1
							c-0.5,0-0.9,0-1.3-0.1c0.1-0.1,0.1-0.1,0.7,0c-0.9-0.1-1.7-0.6-2.1-1.4c-0.2-0.4-0.3-0.9-0.3-1.3v-1.6c0-2.2,0-4.4,0-6.6
							c0-4.4-0.1-8.9-0.1-13.4c-0.1-9-0.1-18-0.1-26.9l0.1,0.6L21,77.8c0,0,0,0.2,0.1,0.3c0.1-4.4-0.1-9.1,0-13.4
							c0,0,0.1,0.6,0.1,0.1c-0.2-3.2,0.2-5.1-0.1-6.7c0-0.1,0.1-0.2,0.1,0.1c-0.1-4.5-0.1-9-0.1-13.5c0-2.2,0-4.5,0-6.7v-3.4v-1.7
							c0-0.5,0.1-1,0.3-1.5c0.3-0.7,1-1.4,1.8-1.6c0.4-0.1,0.9-0.1,1.4-0.1s1,0,1.5,0c1.9,0,4,0,6,0c4,0,8,0,11.9-0.1v0.1
							c10-0.2,20.7,0,31.1,0c4.3,0,7.3-0.1,11.5-0.1l0.1,0.1c7.3-0.3,15.4,0.3,23-0.1l-0.5,0.1c1.2-0.2,4.6,0.1,4.2-0.2l1.4,0.1
							c5.1-0.4,9.4,0.2,15.8-0.1l-0.4,0.1c1.7-0.1,3.6-0.1,4.9,0c-0.2,0-0.1,0-0.5,0c5.2,0.3,11.2,0,16.8,0l-0.6,0.1
							c2.7-0.2,7.6,0,11.2-0.1l-0.2,0.1l1.8-0.1v0.1C167.5,29.8,171.9,29.7,176.4,29.7z"/>
					</g>
				</g>
			</g>
		</g>
	</g>
	<g>
		<rect x="26.7" y="39.2" class="st11" width="153.4" height="89.4"/>
		<g>
			<g>
				<g>
					<g>
						<polygon class="st5" points="180.8,128.5 180.8,128.2 180.7,127.7 						"/>
						<path class="st5" d="M180.6,124.6c0,0.1,0,0.1-0.1,0.2l0.3,2.2C181,126.1,180.5,125.2,180.6,124.6z"/>
						<path class="st5" d="M180.6,123.9c0.1-0.9-0.1-1.3-0.1-1.5C180.6,122.8,180.5,124,180.6,123.9z"/>
						<path class="st5" d="M165.9,39.2l-0.2,0.1c3.8-0.2,8.1,0,12.2-0.1h-0.3c0.7,0,1.5,0,2.2,0c0,2.2,0,4.5,0,6.7
							c0,2.2,0,4.5,0.1,6.8c0,4.5,0.1,9.1,0.1,13.7c0-0.1,0-0.2-0.1-0.4c0,0.5,0.1,1.1,0.1,1.6c0,0.1-0.1-0.1-0.1-0.3
							c-0.2,2.1,0.1,6.3,0,7.7c0,0.6,0.1,0.9,0.2,0.5c0,7.9,0.1,16.5,0.2,24.6c0,0.4-0.1,0.4-0.1,0.3c0.3,6.9,0.2,14.2,0.1,21.3
							c0.1,0.3,0.1-0.7,0.2,0c0.1-2.2-0.2-4.2,0-6.2l0.1,0.2c0-1.5-0.2-0.3-0.1-1.8c0.1-0.6,0.1,0.1,0.1-0.1c0-3.2,0-6.5-0.1-9.5
							c0.2-0.7,0-3.4,0.2-4.6c-0.1-0.9,0-1.6-0.2-1.9c0.1-11.2-0.1-22.7-0.1-34.1c-0.3-5.3,0.1-11.8,0-18.2l0,0c0-0.9-0.1-1.9-0.1-3
							c0-1.2,0-2.5,0-3.6c-0.5,0-1.1,0-1.5,0l-2.1,0.1c-14.9-0.3-30.1-0.1-45.2-0.2c-17.2-0.1-32.3-0.3-49,0.1c0,0-0.1,0,0.3-0.1
							c-4.8,0.1-9.2-0.1-13.8,0l0,0c-11.3,0.3-23.5,0-34.4,0.2c-2.6,0-5.1,0-8.1,0c0,10.9,0.1,23,0.1,34.4h-0.1
							c0.1,11.2-0.2,22-0.1,33.2c-0.1,7.2,0.1,14.4,0.2,21.8c4.6-0.1,9.1-0.1,13.5,0c7.2,0.3,16.7-0.4,23.4,0
							c13.9,0.5,27.4,0.2,41.2-0.1c12.8,0.2,25.5-0.3,37.9,0.1c5.9-0.2,12.4,0.3,18.9,0.2l-0.2-0.1c2.4,0.2,5.2-0.3,6.7,0h-0.2
							c1.3,0.2,2.9-0.4,3.6-0.2l0.2-0.1c1.5,0,0.2,0.1,1.4,0.1c0.4,0,0.2-0.2,1.1-0.1c0.2,0.4,3.6-0.1,3.7,0.3
							c-0.9,0,1.3,0.2-0.5,0.2c0.5,0,3,0,2.8-0.2c0.2-0.2,1.2-0.3-0.3-0.5l-0.3,0.1c-0.5-0.1-0.4-0.1-0.5-0.2c-2,0-2.2-0.2-3.7-0.3
							l0,0c-1,0.2-2.4,0.1-3.1,0l-0.3-0.1c-0.4-0.2-2.2,0.3-1.7,0c-4.1,0.1-8.8,0.1-13.3,0.1c-0.6,0.1-3.5,0-2.5,0.2
							c-1.2-0.2-4.5-0.3-5.8-0.3c0,0,0.1,0,0.3,0c-2.5-0.3-2.9,0.3-5.1-0.1c-0.3,0.2-4.2-0.1-5.5,0.2c-0.3-0.1-0.4-0.1-0.3-0.1
							c-4.1,0-8.7-0.1-12.1-0.1c-3,0.2-7.2-0.1-9.7,0.2c-2.1-0.1-5.6-0.2-8.4-0.1h0.3c-3.3,0-7.5,0-9.8,0.2c-1-0.3-2.5-0.2-3.8-0.3
							c-2.2,0.1-6.7,0.1-10.2,0.2c-0.5-0.1-2.8,0.1-3-0.1c-9.5,0.4-21.3,0.2-31.4,0H50c-1.3,0.1-2.9,0.3-4.2,0.5c-0.1,0-0.1,0,0.2,0
							c-1.8,0-3.6-0.2-5.5-0.1c0,0,0,0,0.3-0.1c-1.7,0.1-3.6-0.2-5.7,0l-0.1-0.1l-1.3,0.1c0-0.1,0.1-0.2,0.7-0.1c-2.4,0-4.7,0-7.2,0
							c0-6.5-0.1-13.1-0.1-19.8c-0.1-6.8-0.1-13.8-0.1-20.6l0.1,0.6l-0.1-3.2c0,0,0,0.2,0.1,0.3c0.1-4.1-0.1-8.2,0-12.2
							c0,0,0.1,0.6,0.1,0.1c-0.2-2.9,0.2-4.7-0.1-6.1c0-0.1,0.1-0.2,0.1,0.1c-0.1-8.1-0.1-16.5-0.1-24.6c0-1-0.1-1.9-0.1-3
							c0.6,0,1.3,0,1.9,0c0.7,0,1.5,0,2.2,0c1.5,0,3.1,0,4.6,0c3.1,0,6.1,0,9.1-0.1v0.1c9.2-0.2,18.8,0,28.3,0c4,0,6.6-0.1,10.6-0.1
							l0.1,0.1c6.6-0.3,14,0.3,20.9-0.1l-0.4,0.1c1.1-0.2,4.2,0.1,3.7-0.2l1.2,0.1c4.7-0.4,8.6,0.2,14.4-0.1l-0.4,0.1
							c1.5-0.1,3.3-0.1,4.5,0c-0.2,0-0.1,0-0.4,0c4.8,0.3,10.2,0,15.3,0l-0.5,0.1c2.5-0.2,6.9,0,10.2-0.1l-0.2,0.1l1.6-0.1v0.1
							C157.9,39.4,161.9,39.3,165.9,39.2z"/>
					</g>
				</g>
			</g>
		</g>
	</g>
	<g>
		<circle class="st4" cx="103.4" cy="34.8" r="1.9"/>
		<g>
			<g>
				<g>
					<g>
						<path class="st5" d="M101,34.9L101,34.9l-0.2-0.1C100.6,34.9,101.2,34.9,101,34.9z"/>
						<path class="st5" d="M100.9,34.9c-0.1,0,0.1,0,0.1,0C100.9,35,101.2,34.9,100.9,34.9z"/>
						<path class="st5" d="M103,36.6v-0.1c-0.1,0.2-0.2,0-0.3,0l0,0c-0.2-0.1-0.4-0.1-0.7-0.2l0,0c0,0-0.1,0.1-0.1,0c0,0,0,0,0.1,0
							c0.1-0.2-0.2,0-0.1-0.2c0,0-0.1,0-0.1,0.1c-0.2-0.1-0.3-0.3-0.5-0.5c0,0,0.1,0,0.1-0.1c-0.4-0.1-0.3-0.4-0.3-0.5
							c-0.1,0-0.1,0-0.2,0c-0.1,0.1,0.2,0.1,0.1,0.2h-0.1c0,0.1,0.2,0,0.1,0c-0.1,0-0.1,0-0.1,0c0,0.1,0,0.2,0.2,0.2
							c-0.1,0.1,0,0.1-0.1,0.2c0.1,0,0.1,0,0.2,0c0.1,0.4,0.4,0.5,0.6,0.9c0.3-0.1,0.2,0.3,0.4,0.3l0,0c0.1,0,0.2,0,0.2,0l0.1-0.1
							c0.3,0.4,0.9,0.3,1.3,0.3c0.5,0,1.2-0.1,1.2-0.9l0,0c0-0.1,0.2-0.2,0.2-0.3l0,0c-0.1-0.4,0.3-0.6,0.1-1c0.1-0.3,0-0.7-0.2-1.1
							h0.1c-0.2-0.2-0.1-0.6-0.4-0.7c-0.2-0.3-0.7,0-0.9-0.2c-0.1-0.3-0.4,0.3-0.5,0c-0.4-0.5-0.9,0-0.9,0.4c-0.2,0-0.2,0.2-0.3,0.3
							c-0.1,0.1-0.1,0.2-0.3,0.3c0.1,0.2-0.4,0.1-0.4,0.4h0.1c-0.2,0,0.3,0.2-0.1,0.2l0,0c-0.2,0,0.4,0.1,0.2,0.1h0.1h-0.1
							c0,0,0.2,0,0.1,0c-0.4,0,0.1,0.1-0.3,0.1h-0.2c0,0,0,0.1,0.1,0.1c0.2,0,0.3,0,0.5,0h-0.1c0.1,0,0.1,0,0.2,0c0,0,0.2,0,0.3-0.1
							l0,0c-0.2,0-0.1,0,0-0.1h0.1c0.2,0-0.3-0.1,0,0c-0.1-0.1,0-0.2,0-0.2c-0.1,0,0-0.1-0.2-0.1c0.2,0.1,0.3,0,0.3,0l0,0
							c0.3,0.1-0.2-0.2,0.1,0c-0.2-0.1,0.1,0-0.1-0.2c0,0,0.1,0,0.1,0.1c0-0.1,0.2-0.1,0.2-0.1c-0.1-0.2,0.1,0,0-0.2
							c0.1,0,0.2,0.1,0.2,0l0,0c0,0,0.1-0.1,0-0.3c0.2,0.2,0.1,0.2,0.2,0.3c0-0.1,0-0.1,0.1-0.3c0,0.1,0-0.1,0.1,0.1
							c0-0.4,0.4-0.3,0.5,0l0,0c0-0.1,0.1-0.3,0.1-0.5l0,0c0,0,0,0.2,0.1,0.1c0,0,0,0,0,0.1c0.1-0.1,0,0.2,0.1,0l0,0v-0.1
							c0,0.1-0.1,0.2-0.1,0.1c0.2,0.1,0.6,0,0.9,0.3h-0.1h0.1c0,0,0,0-0.1,0c-0.1,0.1,0.1,0.1,0.2,0.2c0,0-0.1,0-0.1,0.1
							c0.2,0-0.2,0.2,0.2,0.1h-0.1c0.2,0.1,0.2,0.3,0.1,0.4c0.3,0.1,0,0.3,0.2,0.5h-0.1c0.2,0.3-0.1,0.4-0.2,0.6
							c-0.1,0.1,0,0.1-0.1,0.2l-0.1-0.1c0.1,0.3-0.4,0-0.3,0.3l-0.1-0.1c0.1,0.2-0.1,0,0,0.2l-0.1-0.1c0.1,0.4-0.2-0.1-0.3,0.2v-0.1
							c0,0.1,0,0.1-0.1,0.1l0,0c-0.2-0.2-0.2,0.1-0.3,0.1v-0.1c0,0.2-0.1,0-0.2,0.1v-0.1v0.1v-0.1C103.2,36.5,103.1,36.6,103,36.6z"
							/>
					</g>
				</g>
			</g>
		</g>
	</g>
	<g>
		<path class="st2" d="M74.6,84.7c0,0,14.8-5,21.8-12.8l1.9,1.3c0,0-11.7,12.2-23.2,14.3C75.2,87.5,73.3,87.8,74.6,84.7z"/>
		<g>
			<g>
				<g>
					<g>
						<polygon class="st5" points="74,84.4 73.9,84.4 74,84.5 						"/>
						<path class="st5" d="M74,85C74,85,74.1,85,74,85l-0.1-0.4C73.7,84.6,74.2,84.9,74,85z"/>
						<path class="st5" d="M74,85c-0.1,0.1,0,0.2,0.1,0.2C73.9,85.2,74.1,85.1,74,85z"/>
						<path class="st5" d="M83.5,84.3v-0.1c-0.3,0.4-0.9,0.4-1.3,0.7l0,0c-0.5,0.2-1.1,0.5-1.6,0.9c-0.5,0.3-1.1,0.6-1.6,0.9
							c0,0,0,0,0-0.1c0,0.1-0.1,0.1-0.1,0.2v-0.1c-0.3-0.1-0.6,0.3-0.9,0.3c-0.1,0-0.1,0.1,0,0.2c-0.4,0.2-1,0.3-1.4,0.5
							c-0.5,0.1-1,0.3-1.5,0.5c-0.1,0-0.1-0.1-0.1-0.1c-0.2,0.1-0.6,0.1-0.9-0.1c-0.3-0.2-0.4-0.5-0.5-0.9c-0.1-0.6,0.1-1.1,0.3-1.5
							c-0.1-0.1-0.1,0.1-0.2,0c-0.2,0.2,0,0.6-0.2,0.9h-0.1c-0.1,0.2,0.2,0.1,0.1,0.3c-0.1,0.1-0.1,0-0.1,0c0,0.2,0,0.5,0.1,0.9
							c0.1,0.3,0.4,0.6,0.7,0.6c0,0.1,0.2,0.2,0.4,0.2s0.3,0,0.5,0.1c0.1-0.1,0.2-0.1,0.2-0.2c0.6-0.1,1.4-0.3,2-0.5
							c0.6-0.2,1.3-0.5,2-0.7c0.5-0.5,1.4-0.5,2-0.9l0,0c0.2-0.2,0.5-0.4,0.9-0.4l0.2-0.2c0.4-0.1,0.9-0.3,1.3-0.5
							c0.4-0.2,0.9-0.4,1.2-0.6c0.9-0.4,1.6-1,2.4-1.4c1.8-1.1,3.4-1.9,4.8-3.6c0,0,0,0,0,0.1c0.4-0.4,1-0.6,1.3-1.1l0,0
							c0.9-1.1,2.2-1.8,3-3c0.6-0.5,1.2-1.1,1.9-1.8l0.1-0.1c0,0,0,0-0.1-0.1l-0.1-0.1l-0.3-0.2l-0.6-0.4l-0.5-0.3l-0.3-0.2
							l-0.1-0.1l-0.1,0.1v-0.1c-0.5,0.6-1,1-1.5,1.5c-0.5,0.4-1.1,0.7-1.6,1.3c-0.6,0.3-1.1,0.9-1.6,1.4c-0.5,0.5-1.1,1-1.7,1.3
							c-1,0.2-1.5,1.4-2.4,1.5c-1.7,0.4-3,1.5-4.4,2.5c-1.5,0.5-2.7,1.6-4.3,1.8c-0.5,0.5-1.5,0.3-2.2,0.6l0.1,0.1
							c-0.3-0.1-0.4,0.5-0.7,0.3l0,0c-0.2-0.1-0.2,0.5-0.3,0.3v0.1c-0.2,0.1-0.1-0.1-0.2-0.1c0,0,0,0.2-0.1,0.1
							c-0.1-0.3-0.4,0.2-0.5-0.2c0.1,0-0.2-0.1,0-0.2c-0.1,0-0.3,0.1-0.2,0.2c0,0.2,0,0.4,0.2,0.4v-0.1C75,85,75,84.9,75,85
							c0.2-0.1,0.3,0.1,0.5,0.1l0,0c0.1-0.2,0.2-0.2,0.3-0.2l0.1,0.1c0.1,0.1,0.1-0.4,0.2-0.1c0.4-0.2,1-0.4,1.5-0.6
							c0-0.1,0.4-0.1,0.2-0.3c0.2,0.2,0.6,0.1,0.7,0l0,0c0.4,0.2,0.2-0.4,0.6-0.2c-0.1-0.2,0.5-0.1,0.5-0.4c0.1,0,0.1,0.1,0.1,0.1
							c0.4-0.2,1-0.3,1.4-0.5c0.2-0.3,0.9-0.3,1-0.7c0.2,0,0.7-0.1,1-0.4l0,0c0.3-0.2,0.9-0.4,1-0.7c0.2,0.2,0.4,0.1,0.5,0.1
							c0.2-0.2,0.6-0.4,1-0.7c0.1,0.1,0.3-0.2,0.4,0c0.9-0.9,2.1-1.5,3.3-1.9l0,0c0.1-0.2,0.1-0.5,0.1-0.7c0,0,0,0,0,0.1
							c0.2-0.1,0.4-0.1,0.6-0.2c0,0,0,0,0,0.1c0.1-0.2,0.4-0.1,0.5-0.4l0,0l0.1-0.1c0,0.1,0.1,0.1,0,0.2c1.7-1.1,3-2.6,4.6-4v0.1
							l0.2-0.3c0,0,0,0,0,0.1c0.2-0.1,0.4-0.3,0.5-0.5c0.1-0.1,0.1-0.2,0.2-0.2c0-0.1,0.1-0.1,0.1-0.1s0,0.1,0,0.2
							c0-0.2,0.1,0,0.1,0c0,0.1,0,0.1,0.2-0.1c0,0,0,0.1-0.1,0.1c0.2,0.1,0.4,0.2,0.6,0.3c0.2,0.1,0.2,0.1,0.4,0.2s0,0.2-0.1,0.2
							l-0.4,0.3c-0.3,0.9-1.3,1.2-1.7,2v-0.1c-0.6,1-1.7,1.5-2.6,2.2c-0.4,0.3-0.6,0.5-1,0.9l-0.1-0.1c-0.4,0.7-1.5,0.7-2,1.6v-0.1
							c0,0.2-0.4,0.2-0.2,0.4h-0.2c-0.2,0.6-1,0.4-1.4,1.1v-0.1c-0.1,0.1-0.3,0.3-0.4,0.3c0,0,0,0,0-0.1c-0.6,0.1-1.1,0.6-1.6,1
							v-0.1c-0.2,0.3-0.7,0.4-1.1,0.7v-0.1l-0.1,0.2l0,0C84.4,83.7,84.1,84.1,83.5,84.3z"/>
					</g>
				</g>
			</g>
		</g>
	</g>
	<g>
		<path class="st2" d="M96.5,71.9c0,0,0.1-4.3,5-6.4c4.9-2.1,4.2,3.3,2.8,4.8c-2.7,2.9-5.9,2.9-5.9,2.9L96.5,71.9z"/>
		<g>
			<g>
				<g>
					<g>
						<path class="st5" d="M96.3,72.3L96.3,72.3l-0.2,0.1C96,72.6,96.3,72.2,96.3,72.3z"/>
						<path class="st5" d="M96.3,72.4c0,0.1,0.1,0,0.1-0.1C96.3,72.4,96.5,72.2,96.3,72.4z"/>
						<path class="st5" d="M101.5,72.2v-0.1c-0.1,0.3-0.4,0.2-0.5,0.3l0,0c-0.5,0.1-1,0.5-1.5,0.7c0,0,0,0,0-0.1c0,0,0,0.1-0.1,0.1
							v-0.1c-0.1-0.2-0.3,0.2-0.4,0c0,0,0,0.1,0,0.2c-0.1,0-0.2,0-0.3,0.1h-0.2c-0.1,0-0.1-0.1-0.2-0.1c-0.3-0.1-0.4-0.2-0.6-0.2
							c0,0,0-0.1,0.1-0.1c-0.5,0.1-0.7-0.3-1.1-0.5c-0.1,0.1,0,0.1-0.1,0.1c0,0.1,0.3,0,0.3,0.1l-0.2,0.1c0,0.1,0.1-0.1,0.1,0
							s-0.1,0.1-0.1,0.1c0.2,0.1,0.3,0.2,0.5,0.1c-0.1,0.2,0.1,0.1,0.1,0.3c0.1,0,0.1,0,0.2-0.1c0.1,0.1,0.2,0.2,0.4,0.3
							c0.1,0.1,0.2,0.1,0.3,0.2c0.1,0,0.2,0,0.4,0c0.4-0.1,0.6-0.1,1-0.2c0.2-0.4,0.6-0.1,1-0.3l0,0c0.1-0.1,0.2-0.2,0.3-0.2
							l0.1-0.2c0.9,0,1.6-0.6,2.2-1.1c0.4-0.2,0.9-0.5,1.2-0.9c0.2-0.1,0.3-0.3,0.4-0.6c0.1-0.2,0.2-0.5,0.1-0.7l0,0
							c0.1-0.3,0.2-0.4,0.2-0.7l0,0c-0.1-0.6,0.3-1.4,0-1.9c0-0.3-0.1-0.7-0.3-1.2c-0.1-0.2-0.2-0.3-0.4-0.4s-0.3-0.2-0.5-0.2v-0.1
							c-0.6-0.1-1.3-0.3-1.8,0c-0.3,0-0.6,0.2-0.9,0.4c-0.2,0.2-0.5,0.4-0.9,0.5c-0.5-0.1-0.5,0.7-1.1,0.7c-1,0-1.3,0.9-1.5,1.6
							c-0.5,0.4-0.5,1.3-1.1,1.7c0.1,0.3-0.5,0.5-0.5,1h0.1c-0.3,0.1,0.3,0.3-0.1,0.3l0,0c-0.2,0,0.4,0.2,0.2,0.2h0.1
							c0,0.1-0.1,0-0.1,0s0.2,0,0.1,0.1c-0.4,0,0.1,0.2-0.3,0.2c0,0-0.2,0.1-0.2-0.1c0,0,0,0.2,0.1,0.2c0.2,0,0.3,0.1,0.5,0h-0.1
							c0.1,0,0.1,0,0.2,0c0-0.1,0.2-0.1,0.3-0.1l0,0c-0.2-0.1-0.1-0.1,0-0.1h0.1c0.2,0-0.3-0.2,0-0.1c0-0.2,0-0.4,0.1-0.6
							c-0.1-0.1,0.1-0.2-0.1-0.2c0.2,0,0.3-0.1,0.3-0.2l0,0c0.3,0-0.2-0.2,0.2-0.2c-0.2-0.1,0.1-0.1-0.1-0.3c0.1,0,0.1,0,0.1,0
							c0.1-0.2,0.3-0.3,0.3-0.5c-0.1-0.2,0.3-0.2,0.1-0.5c0.1-0.1,0.3-0.1,0.3-0.3l0,0c0.1-0.1,0.2-0.3,0.1-0.5
							c0.3,0.2,0.3,0.1,0.4,0.1c0-0.2,0.1-0.3,0.2-0.5c0.1,0.1,0.1-0.1,0.2,0c0.1-0.6,0.6-1,1.3-1l0,0c0-0.1-0.1-0.4-0.1-0.5l0,0
							c0.1-0.1,0.2,0,0.3,0c0,0,0,0,0,0.1c0-0.1,0.2,0.1,0.2-0.1l0,0v-0.1c0,0.1,0.1,0.1,0,0.1c0.7-0.3,1.4-1,2.2-1v0.1l0.1-0.1
							c0,0,0,0,0,0.1c0.2,0.1,0.3,0,0.5,0c0,0-0.1,0.1,0,0.1c0.2-0.1,0,0.3,0.3,0c0,0,0,0.1-0.1,0.1c0.3,0,0.5,0.4,0.6,0.7
							c0.4,0.2,0.1,0.6,0.4,1.1h-0.1c0.2,0.5-0.1,1-0.2,1.5c-0.1,0.2-0.1,0.3-0.1,0.5h-0.1c0.1,0.2-0.1,0.3-0.2,0.5
							c-0.2,0.1-0.3,0.2-0.3,0.4l-0.1-0.1c0.1,0.2-0.2,0.1,0,0.3h-0.1c0.1,0.5-0.4,0.2-0.5,0.6v-0.1c0,0.1-0.1,0.2-0.1,0.2
							s0,0,0-0.1c-0.4-0.1-0.4,0.3-0.6,0.5v-0.1c0,0.2-0.3,0.2-0.4,0.3v-0.1v0.1l-0.1-0.1C101.8,71.9,101.6,72.1,101.5,72.2z"/>
					</g>
				</g>
			</g>
		</g>
	</g>
	<g>
		<path class="st2" d="M46.3,29.6c0,0,8.6-9.5,19.6,0c0,0-2.9,49.9-0.7,61.8c0,0-12.7,5.1-18.8,0C46.3,91.4,41.5,51.3,46.3,29.6z"/>
		<g>
			<g>
				<g>
					<g>
						<path class="st5" d="M45.6,30.8C45.6,30.7,45.7,30.8,45.6,30.8L45.5,30C45.3,30.2,45.8,30.6,45.6,30.8z"/>
						<path class="st5" d="M45.5,31.1c-0.1,0.3,0,0.4,0,0.5C45.5,31.4,45.7,30.9,45.5,31.1z"/>
						<path class="st5" d="M44.4,64.7l0.1,0.1c-0.3-1.3-0.1-2.8-0.2-4.2v0.1c0-1.7-0.1-3.4-0.1-5.1c-0.1-1.7-0.1-3.3-0.1-5
							c0,0.1,0,0.1,0.1,0.1c0-0.2-0.1-0.3-0.1-0.5l0.1,0.1c0.2-0.7-0.1-2.1,0.1-2.6c0-0.2-0.1-0.3-0.1-0.2c0-1.4,0.1-2.8,0.1-4.2
							c0.1-1.4,0.1-2.8,0.2-4.2c0-0.1,0.1-0.1,0.1-0.1c-0.1-1.2,0.1-2.4,0.2-3.6c0.1-1.2,0.4-2.5,0.6-3.6c-0.1-0.1-0.1,0.2-0.2,0
							c-0.2,0.7-0.1,1.5-0.3,2.1l-0.1-0.1c-0.1,0.5,0.2,0.1,0,0.6c-0.1,0.2-0.1-0.1-0.1,0c-0.1,1.1-0.3,2.2-0.2,3.3
							c-0.2,0.2-0.1,1.2-0.3,1.6c0,0.3,0,0.5,0.1,0.6c-0.2,1.9-0.3,3.8-0.4,5.8c-0.1,1.9-0.1,3.8-0.1,5.9c0.3,1.8-0.1,4.1,0,6.2l0,0
							c0.1,0.7,0.1,1.7,0.1,2.6l0.1,0.7c-0.2,5.1,0.2,10.3,0.5,15.4c0.1,2.9,0.3,5.7,0.5,8.4c0.1,1.4,0.2,2.7,0.4,4.1
							c0.1,0.6,0.2,1.4,0.3,2v0.3v0.2c0,0.1,0,0.1,0.1,0.1l0.5,0.3c0.3,0.2,0.6,0.4,1,0.5c0,0,0,0.1-0.1,0c1.5,0.7,3,1.2,4.6,1.3
							l0,0c4,0.1,8.1-0.4,11.7-1.9c0.3-0.1,0.5-0.2,0.9-0.2c0.2-0.1,0.6-0.2,0.9-0.3c-0.1-0.6-0.2-1.2-0.2-1.8
							c-0.2-1.2-0.2-2.4-0.3-3.6c-0.1-2.5-0.2-4.9-0.3-7.3h0.1c-0.2-3.8,0.2-7.5,0.1-11.3c0.2-4-0.2-8.1,0.1-12
							c0.4-2.5-0.2-5.7,0.2-7.9c0.7-4.7,0.6-9.3,0.5-14c0.1-1.1,0.2-2.1,0.2-3.2V30c0-0.1-0.1-0.2-0.2-0.2l-0.6-0.4
							c-0.4-0.3-0.9-0.6-1.3-1c-1.8-1.1-3.7-1.9-5.8-2.6c-0.5,0-1-0.1-1.5-0.1c-0.5,0-1.1,0-1.6-0.1c-0.5,0-1.1,0-1.6,0.1
							c-0.5,0.1-1.1,0.2-1.6,0.4h0.1c-0.9,0-1.5,1.1-2.1,1l0.1-0.1c-0.4,0.1-0.6,0.9-1,0.9V28c-0.4,0.3-0.1,0-0.4,0.1
							c-0.1,0.1,0.1,0.2-0.2,0.3c-0.3-0.2-1,0.9-1.2,0.5c0.2-0.2-0.4,0.2,0-0.3c-0.2,0.1-0.9,0.7-0.6,0.9c0.1,0.2,0,0.5,0.4,0.2
							v-0.2c0.2,0,0.1,0,0.2,0c0.5-0.4,0.7-0.3,1.2-0.5l0,0c0.1-0.3,0.5-0.5,0.7-0.6h0.1c0.2,0,0.4-0.6,0.4-0.3
							c1.1-0.7,2.5-1.5,4-1.8c0.2-0.2,1.2-0.2,0.7-0.3c0.2,0.1,0.5,0.1,1,0.1s0.7,0,1,0c0,0,0,0-0.1,0c0.7,0.2,1-0.2,1.6,0.2
							c0.1-0.1,0.4-0.1,0.7,0c0.3,0.1,0.7,0.2,1,0.1c0.1,0.1,0.1,0.1,0,0.2c1.3,0.4,2.6,1.2,3.5,1.7c0.2,0.1,0.5,0.2,0.7,0.3
							c0.2,0.2,0.4,0.3,0.6,0.5c0.2,0.2,0.4,0.3,0.6,0.5c0.1,0.1,0.2,0.1,0.3,0.2H65v0.1l0,0v0.2c0,0.2-0.1,0.4-0.1,0.7
							c-0.1,0.5-0.1,1.1,0,1.6v-0.1c0,1.2-0.1,2.6,0.1,3.3c-0.3,0.3-0.3,0.9-0.4,1.3c0.1,0.7,0,2.2,0.1,3.4c-0.1,0.2,0,1-0.2,1
							c0.2,3.2-0.1,7.3-0.5,10.7l0,0c0.1,0.4,0.3,1,0.4,1.4c0,0-0.1,0,0-0.1c0,0.6-0.2,1.2-0.2,1.8c0,0,0,0-0.1-0.1
							c0.1,0.6-0.2,1.2-0.1,1.9h-0.1l0.1,0.4c-0.1,0-0.2,0-0.1-0.3c-0.2,5.5,0,11-0.1,16.6l-0.1-0.2l0.1,1.1c0,0,0-0.1-0.1-0.1
							c-0.1,1.4,0.1,2.8,0.1,4.2c0,0-0.1-0.2-0.1,0c0.2,1-0.2,1.6,0.2,2.1c0,0-0.1,0.1-0.1,0c0.1,1.4,0.2,2.8,0.2,4.2
							c0.1,1.4,0.1,2.8,0.3,4.2c0.1,0.3,0.1,0.5,0.2,0.9c0.1,0.3,0.1,0.5,0.2,0.9v0.1c0,0.1,0,0.1,0,0.1L64.4,91l-0.9,0.3
							c-1.2,0.4-2.4,0.7-3.5,1.1v-0.1c-3,1-6.4,1.1-9.5,0.5c-0.6-0.1-1.2-0.3-1.7-0.4c-0.5-0.2-1.1-0.4-1.6-0.7v-0.1
							c-0.2-0.1-0.5-0.2-0.7-0.4L46.2,91l-0.1-0.1v-0.1v-0.4C46,89.8,46,89.2,46,88.6c-0.1-1.2-0.1-2.5-0.4-3.6l0.1,0.1
							c-0.2-0.3-0.1-1.4-0.3-1.3l0.1-0.4c-0.5-1.6-0.1-2.9-0.4-4.9l0.2,0.7c-0.1-0.5-0.2-1.2-0.1-1.5c0,0.1,0,0,0.1,0.1
							c0.2-1.7-0.2-3.4-0.3-5.2l0.1,0.2c-0.2-0.9-0.1-2.4-0.3-3.4l0.1,0.1l-0.1-0.5h0.1C44.7,67.4,44.5,66.1,44.4,64.7z"/>
						<path class="st5" d="M48,28.8c-0.1,0-0.1,0.1-0.1,0.1L48,28.8z"/>
					</g>
				</g>
			</g>
		</g>
	</g>
	<g>
		<circle class="st2" cx="55" cy="89.6" r="20.2"/>
		<g>
			<g>
				<g>
					<g>
						<polygon class="st5" points="34,89.6 34,89.7 34.1,89.8 						"/>
						<path class="st5" d="M34.4,90.7C34.4,90.7,34.5,90.7,34.4,90.7L34,90.1C33.9,90.3,34.5,90.5,34.4,90.7z"/>
						<path class="st5" d="M34.4,90.9c-0.1,0.2,0.1,0.3,0.1,0.4C34.4,91.2,34.5,90.8,34.4,90.9z"/>
						<path class="st5" d="M50.4,109.3L50.4,109.3c-0.4-0.1-1-0.2-1.5-0.4c-0.5-0.2-1-0.4-1.5-0.5h0.1c-2.5-1.1-4.6-2.2-6.6-4.1H41
							c-0.1-0.1-0.3-0.1-0.4-0.2h0.1c-0.2-0.5-1.2-1.2-1.4-1.5c-0.1-0.1-0.2-0.1-0.2,0c-1.4-1.6-2.6-3.5-3.4-5.6
							c0-0.1,0-0.1,0.1-0.1c-1-1.6-1.3-3.6-1.4-5.5c-0.1-0.1-0.1,0.2-0.2,0c-0.1,0.6,0.3,1.1,0.3,1.7L34.4,93c0,0.4,0.2,0,0.2,0.4
							c0,0.2-0.1,0-0.1,0.1c0.2,0.9,0.3,1.7,0.7,2.5c-0.1,0.2,0.3,0.9,0.2,1.2c0.1,0.2,0.2,0.4,0.3,0.4c1.1,2.8,3.1,5.2,5.3,7.3
							c1.3,0.7,2.5,2,4,2.8l0,0c0.5,0.2,1.3,0.5,1.8,0.7l0.5,0.1c3.6,1.7,7.8,1.8,11.8,1.2c2.2-0.4,4.3-1.2,6.2-2.2
							c1-0.5,1.8-1.2,2.7-1.8c0.7-0.7,1.6-1.5,2.2-2.5c0,0,0.1,0,0,0.1c0.4-0.5,0.7-1,1.2-1.5l0.5-0.7c0.1-0.2,0.3-0.5,0.4-0.7l0,0
							c1.3-2.7,2.7-5.7,2.7-8.7c0.3-3.4-0.2-7.5-1.9-10.8h0.1c-1.4-2.6-2.9-5.1-5.2-6.9c-2.2-2.1-5.5-3.1-8.3-4
							c-1.8-0.7-4.4-0.3-6.1-0.5c-3.7-0.3-7.2,1.3-10,3.5c-1.4,0.9-2.7,2-3.7,3.3c-0.5,0.6-1,1.3-1.5,1.9c-0.4,0.6-1,1.4-1.4,2
							c-0.2,0.7-0.6,1.4-1.1,2.1c-0.2,0.4-0.4,0.7-0.5,1.2C35.2,84,35,84.4,35,84.8h0.1c-0.4,0.5,0.1,1.4-0.3,1.7v-0.1
							c-0.2,0.3,0.3,0.9,0.1,1l0.1,0.1c0,0.4-0.1,0-0.2,0.3c0,0.1,0.2,0.1,0.1,0.3c-0.4,0,0,1-0.4,1c0-0.2-0.2,0.3-0.2-0.1
							c0,0.1-0.1,0.9,0.1,0.7c0.2,0.1,0.3,0.3,0.5-0.1l-0.1-0.1c0.1-0.1,0.1-0.1,0.2-0.1c0-0.5,0.2-0.5,0.3-1l0,0
							c-0.1-0.2,0-0.6,0-0.7l0.1-0.1c0.2-0.1-0.2-0.6,0-0.4c0-0.5,0.1-1.1,0.2-1.6c0.1-0.5,0.3-1.2,0.4-1.7c0-0.2,0.3-0.9,0-0.6
							c0.3-0.2,0.6-1,0.7-1.3c0,0,0,0,0,0.1c0.5-0.4,0.1-0.7,0.6-1.2c-0.1-0.1,0-0.3,0.2-0.5c0.2-0.2,0.3-0.5,0.3-0.7
							c0.1,0,0.1,0,0.2,0c0.5-1,1.3-1.7,1.9-2.5c0.3-0.7,1.3-1.3,1.6-1.9c0.2-0.1,0.5-0.3,0.9-0.6c0.3-0.2,0.6-0.4,0.9-0.7v0.1
							c0.6-0.5,1.6-1.1,1.9-1.6c0.3,0.1,0.6-0.1,1.1-0.1c0.2-0.2,0.6-0.4,1-0.6c0.4-0.2,0.9-0.3,1.3-0.5c0.2,0.1,0.6-0.3,0.7-0.1
							c2.2-1.1,5.3-1.3,7.9-0.6l0,0c0.3-0.1,0.7-0.2,1.2-0.3c0,0,0,0.1,0,0c0.2,0,0.4,0.1,0.6,0.2c0.2,0.1,0.4,0.2,0.6,0.2
							c0,0,0,0-0.1,0c0.4,0,0.9,0.4,1.4,0.3v0.1h0.3c0,0.1-0.1,0.1-0.2,0.1c1.9,0.6,3.7,1.6,5.6,2.7c1.7,1.2,3.3,2.6,4.5,4.4
							l-0.1-0.1l0.5,0.5h-0.1c0.4,1,1.2,1.7,1.6,2.7c0,0-0.1-0.1-0.1,0c0.5,0.6,0.2,1.2,0.7,1.4c0,0-0.1,0.1-0.1,0
							c0.4,1,0.7,1.9,1,3c0.2,1.1,0.3,2.1,0.3,3.1c0.2,0.9,0.2,1.8,0.1,2.8c0,0.4-0.1,1-0.2,1.4c0,0.4-0.1,1-0.2,1.4h-0.1
							c-0.3,2.4-1.6,4.7-2.9,6.7c-0.6,0.7-1,1.4-1.7,2.1h-0.1c-0.4,0.7-1.2,1.3-1.9,1.9c-0.3,0.3-0.7,0.5-1.2,0.7
							c-0.3,0.3-0.7,0.5-1.1,0.9v-0.2c-0.1,0.3-1,0.5-0.7,0.7l-0.3,0.1c-0.4,0.4-1,0.6-1.6,0.9c-0.5,0.2-1.2,0.3-1.8,0.6l0.1-0.1
							c-0.3,0.2-0.9,0.3-1.1,0.3c0,0,0,0,0.1-0.1c-1.3,0.1-2.6,0.6-4,0.6l0.1-0.1c-0.6,0.2-1.8,0.1-2.7,0.1l0.1-0.1l-0.4,0.1v-0.1
							c-0.5,0-1.1-0.1-1.6-0.1C51.5,109.4,50.9,109.4,50.4,109.3z"/>
					</g>
				</g>
			</g>
		</g>
	</g>
	<g>
		<circle class="st6" cx="55" cy="89.6" r="8.6"/>
		<g>
			<g>
				<g>
					<g>
						<polygon class="st5" points="45.8,89.6 45.8,89.6 45.9,89.7 						"/>
						<path class="st5" d="M46.1,90.1L46.1,90.1l-0.2-0.3C45.7,89.9,46.2,90.1,46.1,90.1z"/>
						<path class="st5" d="M46,90.2c-0.1,0.1,0.1,0.1,0.1,0.2C46.1,90.3,46.2,90.2,46,90.2z"/>
						<path class="st5" d="M53.1,97.9v-0.1c-0.4,0.1-0.9-0.2-1.3-0.3l0,0c-1-0.4-1.9-0.9-2.9-1.6c0,0,0,0,0.1,0c-0.1,0-0.2,0-0.2,0
							s0,0,0.1,0c0-0.3-0.5-0.4-0.5-0.6c-0.1,0-0.1,0-0.2,0.1c-0.6-0.6-1.2-1.5-1.6-2.4l0.1-0.1C46,92.2,46,91.3,46,90.5
							c-0.1,0-0.1,0.1-0.2,0c-0.1,0.3,0.3,0.4,0.1,0.7h-0.1c0,0.2,0.2,0,0.1,0.2c-0.1,0.1-0.1,0-0.1,0c0.1,0.3,0.1,0.7,0.4,1.1
							c-0.1,0.1,0.1,0.4,0,0.5c0.1,0.1,0.1,0.2,0.2,0.1c0.4,1.3,1.4,2.2,2.4,3.1c0.6,0.2,1.1,0.9,1.7,1.2l0,0c0.2,0,0.5,0.1,0.9,0.3
							h0.3c1.5,0.9,3.3,0.9,5,0.6c1-0.2,1.9-0.4,2.7-1c0.9-0.4,1.5-1.1,2-2c0,0,0,0,0,0.1c0.3-0.4,0.7-0.7,1-1.3l0,0
							c0.4-1.2,1.2-2.5,1-3.7c0.2-1.5-0.1-3.2-0.9-4.6h0.1c-0.6-1.1-1.2-2.2-2.1-3c-1-1-2.5-1.1-3.5-1.6c-0.7-0.5-1.8,0.1-2.6-0.2
							c-1.6-0.4-3.1,0.4-4.2,1.5c-0.6,0.3-1.2,0.9-1.5,1.4c-0.4,0.5-0.7,1.1-1.3,1.6c-0.1,0.6-0.9,1.1-1,1.9h0.1
							c-0.3,0.2,0.2,0.6-0.2,0.7l0,0c-0.2,0.1,0.4,0.4,0.1,0.4h0.1c0,0.2-0.1,0-0.1,0.1c0,0,0.2,0,0.1,0.1c-0.4,0,0.1,0.4-0.3,0.4
							c0-0.1-0.2,0.1-0.2-0.1c0,0.1,0,0.3,0.1,0.3c0.2,0,0.3,0.1,0.5,0h-0.1c0.1-0.1,0.1,0,0.2-0.1c0-0.2,0.2-0.2,0.3-0.4l0,0
							c-0.2-0.1-0.1-0.2,0-0.3h0.1c0.2,0-0.3-0.3,0-0.2c0-0.4,0.1-0.9,0.2-1.4c-0.1-0.1,0.1-0.3-0.1-0.3c0.3,0,0.4-0.3,0.5-0.4l0,0
							c0.4-0.1-0.1-0.4,0.3-0.4c-0.2-0.2,0.3-0.3,0.1-0.6c0.1,0,0.1,0,0.1,0.1c0.2-0.3,0.5-0.6,0.9-1c0-0.4,0.5-0.4,0.5-0.9
							c0.2-0.1,0.5-0.2,0.7-0.5l0,0c0.2-0.2,0.6-0.4,0.7-0.7c0.2,0.2,0.3,0.1,0.5,0.1c0.1-0.2,0.5-0.4,0.9-0.6
							c0.1,0.1,0.2-0.1,0.3,0c0.9-0.6,2.1-0.6,3.1-0.2l0,0c0.1-0.1,0.3-0.3,0.5-0.4l0,0c0.2,0,0.3,0.2,0.5,0.2c0,0,0,0,0,0.1
							c0.2,0,0.3,0.2,0.5,0.1v0.1h0.1c0,0.1-0.1,0.1-0.1,0.1c1.5,0.5,3.2,1.3,4.2,2.8h-0.1l0.3,0.2c0,0,0,0-0.1,0
							c0.1,0.4,0.5,0.6,0.6,1.1h-0.1c0.3,0.2,0,0.5,0.4,0.5c0,0-0.1,0.1-0.1,0c0.4,0.7,0.6,1.6,0.5,2.5c0.4,0.7,0,1.5,0.1,2.4h-0.1
							c0,1.1-0.6,1.9-1.2,2.8c-0.3,0.3-0.3,0.6-0.6,1h-0.1c-0.2,0.7-1.3,0.9-1.7,1.5v-0.1c0,0.2-0.4,0.2-0.2,0.4h-0.2
							c-0.3,0.6-1,0.2-1.4,0.7v-0.1c-0.1,0.1-0.3,0.2-0.4,0.2c0,0,0,0,0-0.1c-0.5-0.1-1.1,0.3-1.6,0.3v-0.1
							c-0.2,0.2-0.7,0.1-1.1,0.1v-0.1l-0.2,0.1v-0.1C54,97.9,53.5,98,53.1,97.9z"/>
					</g>
				</g>
			</g>
		</g>
	</g>
	<g>
		<path class="st7" d="M10.1,140.9c-14,4.1-15.3-14.8,27.7-15.6c17.9-0.3,16.6-12.9,17.3-15.4h0.3c0,8-4.9,15.9-15.7,15.8
			c-16.8-0.2-42.6,4.9-37,14.1c1.8,2.9,7.4-0.7,7.4-0.7L10.1,140.9"/>
		<g>
			<g>
				<g>
					<g>
						<polygon class="st5" points="10.8,140.9 10.8,140.8 10.7,140.6 						"/>
						<path class="st5" d="M10.5,139.2c0,0.1,0,0.1-0.1,0.1c0.1,0.1,0.1,0.3,0.2,0.5l0.1,0.3l0.1,0.2c0.1-0.1,0-0.4-0.1-0.6
							C10.5,139.5,10.4,139.4,10.5,139.2z"/>
						<path class="st5" d="M10.5,138.9c0-0.5-0.1-0.6-0.1-0.5l0,0l0,0C10.5,138.4,10.3,139.1,10.5,138.9z"/>
						<path class="st5" d="M19.1,127.6v-0.1c-1.2,0.4-2.6,0.5-3.8,1l0.1-0.1c-3.2,0.7-6.1,1.9-9,3.5c0,0,0-0.1,0.1-0.1
							c-0.1,0.1-0.2,0.3-0.4,0.3c0,0,0-0.1,0.1-0.1c-0.7,0.2-1.6,1.2-2,1.4c-0.1,0.1-0.1,0.2,0,0.2c-1,0.9-1.8,1.9-1.9,3.2v0.4
							c0,0.1,0,0.3,0.1,0.4c0,0.3,0.2,0.6,0.2,0.9c0.2,0.5,0.5,1.2,1,1.4c0.1,0.1,0,0.1,0,0.2c0.9,0.4,1.9,0.2,3-0.1
							c0.5-0.1,1.1-0.3,1.6-0.5l0.4-0.2l0.4-0.2c0.4-0.2,0.9-0.4,1.2-0.7c0.2-0.2-0.3,0.1,0.1-0.3c-0.5,0.3-1.2,0.7-1.6,1
							c-0.2,0.2-0.5,0.3-0.9,0.4v-0.1c-0.4,0.1,0,0.2-0.5,0.3c-0.2,0,0-0.1-0.1-0.1c-0.9,0.4-1.9,0.5-2.7,0.6
							c-0.2-0.2-0.9-0.2-1-0.5c-0.2-0.1-0.3-0.2-0.4-0.2c-0.4-0.7-0.7-1.5-0.7-2.2c0-0.7,0.3-1.6,0.9-2.2c1-1.4,2.6-2.4,4.2-3.2
							c1.4-1.1,3.5-1.5,5.3-2.1l0,0c0.6-0.3,1.5-0.6,2.4-0.7l0.6-0.3c4.7-0.9,9.5-1.8,14.4-2.1c2.8-0.2,5.3-0.2,7.9-0.2
							c1.3,0,2.6,0,4-0.1c1.3-0.2,2.7-0.5,4-1.1c0,0,0,0-0.1,0.1c1.5-0.5,2.8-1.2,4-2.1l0,0c1.4-1.3,2.7-2.8,3.6-4.4
							c1-1.7,1.5-3.5,1.7-5.2c0.2-1.1,0.3-2.1,0.3-3.3v-0.1h-0.1c-0.1,0-0.2,0-0.3,0h-0.1v0.1c-0.3,1.6-0.3,3.2-0.7,4.9
							c-0.4,1.6-1,3.2-1.9,4.6l0,0c-1,1.5-2.4,2.7-4,3.5c-0.3,0.2-0.9,0.3-1.2,0.5c-0.4,0.1-0.9,0.3-1.3,0.5
							c-0.9,0.2-1.7,0.5-2.6,0.7c-3.6,0.6-7.6,1-11.3,1.1c-2.4-0.2-5.3,0.9-7.5,0.7c-4.5,0.1-8.8,1.4-12.9,3.2
							c-1.9,0.6-3.8,1.6-5.5,2.8c-1.7,1.2-3.2,2.5-4.2,4.3c-0.2,0.9-0.4,1.9,0,2.9c0.4,1,1.4,1.7,2.4,1.9v-0.1
							c0.7,0.5,1.7,0,2.1,0.3H6.2c0.4,0.2,1-0.5,1.2-0.2l0.1-0.1c0.4-0.1,0.1,0.1,0.4,0.1c0.1,0,0-0.2,0.3-0.2
							c0.1,0.2,0.3,0.1,0.6,0.1c0.3-0.1,0.5-0.2,0.6,0c-0.2,0.1,0.4,0.1-0.1,0.3c0.2,0,1-0.2,0.9-0.4c0-0.2,0.3-0.4-0.2-0.4
							l-0.1,0.2c-0.2-0.1-0.1,0-0.2-0.1c-0.6,0.1-0.7,0-1.2,0l0,0c-0.3,0.2-0.7,0.2-1,0.2l-0.1-0.1c-0.1-0.1-0.6,0.3-0.5,0.1
							c-1.2,0.1-2.8,0-3.8-0.7c-0.2,0-0.7-0.6-0.6-0.3c-0.1-0.2-0.1-0.5-0.2-0.7c-0.1-0.3-0.1-0.5-0.1-0.7c0,0,0,0,0,0.1
							c0.1-0.2,0.1-0.3,0-0.4c0-0.1,0-0.2,0-0.3c-0.1-0.2-0.1-0.4,0.2-0.6c-0.3-0.2,0.5-1.1,0.5-1.5c0.1,0,0.1,0,0.2,0
							c0.7-1,1.8-1.8,2.8-2.5c0.3-0.3,0.7-0.6,1.3-1c0.5-0.2,1-0.5,1.3-0.9c0.6-0.2,1.7-0.6,2.5-1.1l-0.1,0.1c1-0.4,2.2-0.9,2.9-1.3
							c0.4,0.2,0.9,0,1.3,0c0.6-0.3,2-0.6,3.1-1.1c0.2,0.1,0.9-0.2,1-0.1c2.9-1.1,6.7-1.5,9.9-1.4l0,0c0.4-0.1,0.9-0.4,1.3-0.6
							c0,0,0,0,0,0.1c0.6-0.1,1.2,0.1,1.7,0c0,0,0,0-0.1,0.1c0.5-0.1,1.2,0.1,1.8-0.1l0,0l0.4-0.1c0,0.1,0,0.2-0.2,0.2
							c1.3,0,2.6-0.1,3.8-0.1c0.6-0.1,1.3-0.1,2-0.2c0.6-0.1,1.3-0.1,2-0.2c2.7-0.4,5.2-1.3,7.6-2.8l-0.1,0.1
							c0.3-0.2,0.5-0.4,0.9-0.6v0.1c0.5-0.4,1.1-0.9,1.5-1.4s0.9-1.1,1.3-1.6c0,0,0,0.2,0.1,0.1c0.2-0.4,0.4-0.7,0.6-1.1
							s0.3-0.5,0.2-0.9c0,0,0.1,0,0.1,0.1c1.2-2.5,1.4-5.3,1.8-7.8l-0.4,0.3l0,0c0.1,0,0.2,0,0.3,0l-0.3-0.3
							c0.3,2.1-0.4,4.4-0.9,6.5h-0.1c-0.4,1.4-1.2,2.8-2.1,4c-1,1.2-2.1,2.2-3.4,3c-1.1,0.6-1.8,1.1-3,1.5l-0.1-0.1
							c-1,0.5-2.1,0.6-3.2,0.7c-0.5,0.1-1.2,0-1.7,0c-0.5,0-1.2,0.1-1.7,0.1l0.1-0.1c-0.3,0.2-1.4-0.1-1.2,0.2l-0.4-0.1
							c-1.5,0.4-2.8-0.1-4.6,0.3l0.1-0.1c-0.5,0.1-1.1,0.2-1.4,0.1c0.1,0,0,0,0.1-0.1c-1.6-0.2-3.3,0.3-4.9,0.5l0.2-0.1
							c-0.7,0.2-2.2,0.3-3.3,0.5V127l-0.5,0.2v-0.1C21.6,126.9,20.3,127.4,19.1,127.6z"/>
					</g>
				</g>
			</g>
		</g>
	</g>
	<g>
		<path class="st2" d="M8.6,136.7c0,3.8,3.1,6.9,6.9,6.9h175.6c3.8,0,6.9-3.1,6.9-6.9H8.6z"/>
		<g>
			<g>
				<g>
					<g>
						<polygon class="st5" points="8.6,137.4 8.8,137.4 9.2,137.3 						"/>
						<path class="st5" d="M11.7,137.2c-0.1,0,0,0-0.1-0.1l-1.8,0.3C10.6,137.6,11.2,137,11.7,137.2z"/>
						<path class="st5" d="M12.2,137.2c0.7,0.1,1-0.1,1.2-0.1C13.2,137.2,12.1,137,12.2,137.2z"/>
						<path class="st5" d="M91.1,136.5l0.2-0.1c-3,0.2-6.5,0-9.7,0.1h0.2c-8.1,0-15.7,0.1-23.8,0.2c0.1,0,0.2,0,0.3-0.1
							c-0.4,0-0.9,0.1-1.3,0.1c-0.1,0,0.1-0.1,0.2-0.1c-1.7-0.2-5,0.1-6.1,0c-0.5,0-0.6,0.1-0.4,0.2c-6.3,0-13.1,0.1-19.6,0.2
							c-0.3,0-0.3-0.1-0.3-0.1c-5.6,0.3-11.3,0.2-17,0.1c-0.2,0.1,0.5,0.1,0,0.2c1.8,0.1,3.3-0.2,5,0l-0.2,0.1
							c1.2,0,0.2-0.2,1.5-0.1c0.5,0.1-0.1,0.1,0.1,0.1c2.6,0,5.2,0,7.6-0.1c0.6,0.2,2.8,0,3.6,0.2c0.6-0.1,1.3,0,1.6-0.2
							c8.9,0.1,18.1-0.1,27.1-0.1c4.3-0.3,9.4,0.1,14.4,0l0,0c1.6-0.1,4.1-0.1,6-0.1l1.7-0.1c11.9,0.3,24,0.1,36.1,0.2
							c13.7,0.1,25.8,0.3,39-0.1c0,0,0.1,0-0.2,0.1c3.8-0.1,7.4,0.1,11,0l0,0c9-0.3,18.7,0,27.4-0.2c0.6,0,1.3,0,1.9,0h0.2h0.1v0.1
							v0.4c0,0.2-0.1,0.6-0.2,1c-0.3,1.3-1.1,2.6-2,3.4c-1,1-2.4,1.6-3.6,1.7c-0.6,0.1-1.4,0.1-2.1,0.1h-2.1
							c-5.7,0-11.4,0.1-17.1,0.1v-0.1c-9,0.1-17.6-0.2-26.5-0.1c-9.2-0.1-18.9,0.4-28.1,0.2c-5.8-0.3-13.3,0.4-18.6,0
							c-11-0.5-21.8-0.2-32.8,0.1c-10.2-0.2-20.4,0.3-30.2-0.1c-4.7,0.2-9.8-0.3-15.1-0.2l0.2,0.1c-1-0.1-1.9,0-2.9,0
							c-1,0.1-1.8,0.1-2.4-0.2h0.2c-0.4-0.1-1.1-0.2-1.6-0.3c-0.5-0.1-1-0.2-1.2-0.5c-0.1,0-0.1,0-0.2,0c-1-0.7-0.1-0.1-0.7-0.7
							c-0.2-0.2-0.2,0-0.6-0.5c0.1-0.2-0.4-0.7-0.7-1.4c-0.3-0.6-0.5-1.4-0.3-1.4c0.2,0.6-0.1-1,0.3,0.3c0-0.2-0.2-0.7-0.3-1.2
							c-0.1-0.5-0.1-1-0.2-0.9c-0.2-0.2-0.4-1-0.5,0.3l0.1,0.2c-0.1,0.4,0,0.3-0.1,0.5c0.1,0.9,0.2,1.3,0.3,1.7
							c0.1,0.4,0.2,0.7,0.4,1.3l0,0c0.5,0.6,1.3,1.5,1.8,1.9l0.2,0.2c0.1,0.2,0.5,0.4,1,0.5c0.3,0.1,0.6,0.2,0.3,0.2
							c0.9,0.3,1.7,0.5,2.6,0.6c1,0,1.7,0,2.7,0c1.8,0,3.6,0,5.5,0c0.5-0.1,2.8,0,2-0.2c0.9,0.2,3.6,0.3,4.6,0.3c0,0-0.1,0-0.2,0
							c1.9,0.3,2.4-0.3,4.2,0.1c0.3-0.2,3.3,0.1,4.4-0.2c0.2,0.1,0.3,0.1,0.2,0.1c3.3,0,6.8,0.1,9.6,0.1c2.4-0.2,5.8,0.1,7.8-0.2
							c1.7,0.1,4.4,0.2,6.7,0.1h-0.2c2.7,0,6,0,7.8-0.2c0.7,0.3,1.9,0.2,3.1,0.3c1.8-0.1,5.3-0.1,8-0.2c0.4,0.1,2.2-0.1,2.4,0.1
							c7.6-0.4,17-0.2,25.1,0h-0.1c1.1-0.1,2.2-0.3,3.3-0.5c0.1,0,0.1,0-0.1,0c1.5,0,2.9,0.2,4.4,0.1c0,0,0,0-0.2,0.1
							c1.4-0.1,2.9,0.2,4.5,0l0.1,0.1l1.1-0.1c0,0.1-0.1,0.2-0.6,0.1c12.7,0.1,25.8-0.3,38.9-0.2l-0.4,0.1l2.6-0.1
							c0,0-0.1,0-0.2,0.1c3.2,0.1,6.5-0.1,9.7,0c0,0-0.5,0.1,0,0.1c2.4-0.2,3.7,0.2,4.9-0.1c0.1,0,0.2,0.1-0.1,0.1
							c3.2-0.1,6.5-0.1,9.8-0.1h4.9c1.7,0.1,3.4-0.3,4.8-1.4c1.1-0.9,2-2.1,2.5-3.5c0.1-0.3,0.2-0.7,0.3-1.1l0.1-0.5
							c0-0.2,0-0.4,0-0.6v-0.3h-0.3h-0.6h-1.1c-2.9,0-5.8,0-8.7,0.1v-0.1c-7.3,0.2-15.1,0-22.6,0c-3.1,0-5.2,0.1-8.4,0.1l-0.1-0.1
							c-5.3,0.3-11.1-0.3-16.7,0.1l0.4-0.1c-0.9,0.2-3.3-0.1-3,0.2l-1-0.1c-3.7,0.4-6.8-0.2-11.4,0.1l0.3-0.1
							c-1.2,0.1-2.7,0.1-3.5,0c0.1,0,0.1,0,0.3,0c-3.8-0.3-8.1,0-12.2,0l0.4-0.1c-1.9,0.2-5.6,0-8.1,0.1l0.1-0.1l-1.3,0.1v-0.1
							C97.5,136.4,94.3,136.5,91.1,136.5z"/>
						<path class="st5" d="M9.4,141c-0.1-0.1-0.2-0.2-0.2-0.4C9.2,140.7,9.3,140.9,9.4,141z"/>
					</g>
				</g>
			</g>
		</g>
	</g>
	<g>
		<path class="st11" d="M112.9,141.3h-19c-0.3,0-0.5-0.2-0.5-0.5v-1.2c0-0.3,0.2-0.5,0.5-0.5h19c0.3,0,0.5,0.2,0.5,0.5v1.2
			C113.4,141,113.2,141.3,112.9,141.3z"/>
		<g>
			<g>
				<g>
					<g>
						<path class="st5" d="M112.9,142L112.9,142c0.1,0,0.1,0,0.2-0.1C113,142,113,142,112.9,142z"/>
						<path class="st5" d="M113.6,141.6L113.6,141.6c-0.1,0.1-0.2,0.3-0.3,0.4C113.6,142.1,113.4,141.5,113.6,141.6z"/>
						<path class="st5" d="M113.7,141.5c0.2-0.1,0.1-0.2,0-0.2C113.8,141.4,113.6,141.5,113.7,141.5z"/>
						<path class="st5" d="M106.5,139.1v0.1c0.3-0.2,0.7,0,1.1-0.1l0,0c1,0,1.8-0.1,2.7-0.2c0,0,0,0,0,0.1l0.1-0.1v0.1
							c0.2,0.2,0.5-0.1,0.6,0c0.1,0,0.1-0.1,0-0.2c0.3,0,0.7-0.1,1.1-0.1l0.5-0.1c0.3,0,0.5,0,0.9,0.1c0,0.1,0,0.1-0.1,0.1
							c0.2,0.1,0.4,0.3,0.4,0.5c0,0.1,0,0.2,0,0.3c0,0.1,0,0.2,0,0.2c0,0.2,0,0.3,0,0.5v0.2c0,0.1,0,0.3-0.1,0.4
							c0.1,0.1,0.1-0.1,0.2,0.1c0.1-0.1,0.1-0.5,0.1-0.5c0-0.1-0.1-0.2,0-0.3h0.1c0-0.1-0.2,0-0.1-0.2c0.1-0.1,0.1,0,0.1,0
							c0-0.1,0-0.3,0-0.4s0-0.5-0.2-0.6c0.1-0.2-0.2-0.4-0.3-0.6c-0.1,0-0.2-0.1-0.3,0c-0.2-0.1-0.4-0.1-0.5-0.1h-0.4h-0.7
							c-0.5,0-1.1,0.1-1.6,0.1c-0.5,0.3-1.1-0.1-1.6,0l0,0c-0.2,0.1-0.4,0.1-0.6,0.1l-0.2,0.1c-1.4-0.3-2.8-0.1-4.1-0.2
							c-1.6-0.1-2.9-0.3-4.4,0.1c0,0,0,0,0-0.1c-0.4,0.1-0.9-0.1-1.3,0l0,0c-1.1,0.3-2.1,0-3.1,0.2c-0.2,0-0.5,0-0.9,0
							c-0.3,0.1-0.5,0.4-0.5,0.7s0,0.7,0,1.1c0,0.4,0.3,0.7,0.7,0.6h0.1v0.1c1.1-0.1,2,0.2,3,0.1c1.1,0.1,2.1-0.4,3.2-0.2
							c0.6,0.3,1.5-0.4,2.1,0c1.3,0.5,2.5,0.2,3.7-0.1c1.2,0.2,2.4-0.3,3.4,0.1c0.5-0.2,1.1,0.3,1.7,0.2v-0.1c0.2,0.2,0.4-0.3,0.6,0
							l0,0c0.1,0.2,0.2-0.4,0.3-0.2v-0.1c0.1,0,0,0.1,0.1,0.1c0,0,0-0.2,0.1-0.1c0,0.4,0.3-0.1,0.3,0.3c-0.1,0,0.1,0.2,0,0.2
							c0,0,0.3,0,0.2-0.2c0-0.2,0.1-0.3,0-0.5v0.1c0-0.1,0-0.1,0-0.2c-0.2,0-0.2-0.2-0.3-0.3l0,0c-0.1,0.2-0.2,0.1-0.3,0v-0.1
							c0-0.2-0.2,0.3-0.1,0c-0.3,0.1-0.7,0.1-1.2,0.1c-0.1,0.1-0.3,0-0.2,0.2c-0.1-0.2-0.4-0.3-0.5-0.3l0,0
							c-0.2-0.3-0.2,0.3-0.4-0.1c0,0.2-0.4-0.1-0.5,0.2c0-0.1,0-0.1,0-0.1c-0.3,0-0.7-0.1-1.1-0.1c-0.3,0.2-0.6-0.1-0.9,0.2
							c-0.2-0.1-0.5-0.2-0.7-0.1l0,0c-0.3,0-0.6,0-0.9,0.2c-0.1-0.3-0.2-0.2-0.3-0.3c-0.2,0.1-0.6,0.1-1,0.2c0-0.1-0.2,0.1-0.3-0.1
							c-0.9,0.4-1.9,0.2-2.9,0l0,0c-0.1,0.1-0.2,0.3-0.4,0.5l0,0c-0.2,0-0.3-0.2-0.5-0.1c0,0,0,0,0-0.1c-0.1,0.1-0.3-0.2-0.5,0v-0.1
							l-0.1,0.1c0-0.1,0-0.2,0.1-0.1c-1.4-0.1-2.9,0.3-4.4,0.2l0.1-0.1l-0.3,0.1c0,0,0,0,0-0.1c-0.3-0.1-0.7,0.1-1.1,0v-0.1l0,0
							c-0.1,0.1,0-0.2-0.3,0l0.1-0.1c-0.1,0-0.1-0.1-0.2-0.3c0-0.2,0-0.5,0-0.7c0-0.1,0.1-0.2,0.1-0.2c0-0.1,0.1-0.2,0.2-0.2
							c0.1,0,0.3,0,0.4,0c0.3,0,0.6,0,1-0.1v0.1c0.9-0.2,1.7,0,2.6,0c0.3,0,0.6-0.1,1-0.1v0.1c0.6-0.3,1.3,0.3,1.9-0.1v0.1
							c0.1-0.2,0.4,0.1,0.3-0.2l0.1,0.1c0.4-0.4,0.7,0.2,1.3-0.1v0.1c0.1-0.1,0.3-0.1,0.4,0l0,0c0.4,0.3,1,0,1.4,0v0.1
							c0.2-0.2,0.6,0,1-0.1v0.1l0.1-0.1v0.1C105.8,139.2,106.1,139.1,106.5,139.1z"/>
						<path class="st5" d="M110.3,138.9L110.3,138.9C110.2,139,110.2,139,110.3,138.9z"/>
					</g>
				</g>
			</g>
		</g>
	</g>
</g>
</svg>
