<svg id="Layer_1" data-name="Layer 1" xmlns="http://www.w3.org/2000/svg" viewBox="0 0 200 170"><defs><style>.cls-1{fill:#dbd9e5;}.cls-2{fill:#464b86;}.cls-3{fill:#f3f2f6;}.cls-4{fill:#c3c0d4;}.cls-5{fill:#4e4e85;}.cls-6{fill:#9691b5;}.cls-7{fill:#6b6796;}.cls-8{fill:#e7e6ee;}</style></defs><title>Artboard 35</title><path class="cls-1" d="M177.82,101.52s-57,9.62-86.47-22.3S69.87,19.05,69.87,19.05l-3.48.21S44.18,48,68.74,84.13s86.67,41.75,111.84,21.69Z"/><polygon class="cls-2" points="177.3 101.93 177.3 102.14 177.61 102.45 177.3 101.93"/><path class="cls-2" d="M179,104.29v-.1L177.82,103C178.12,103.57,178.84,103.78,179,104.29Z"/><path class="cls-2" d="M179.25,104.7a1.59,1.59,0,0,0,.41.61c.1.1.1.1.2.1h.1a4.49,4.49,0,0,0-.4-.51C179.45,104.8,179.35,104.59,179.25,104.7Z"/><path class="cls-2" d="M111.41,113.09l-.21.1c1.44.31,2.87.72,4.3,1.13s3,.71,4.5,1h-.2a84.72,84.72,0,0,0,11,1.53c1.84.21,3.68.21,5.53.31h5.52a.4.4,0,0,0-.31.1c.41,0,.72-.1,1.13-.1.1,0-.1.1-.21.1a42.39,42.39,0,0,0,5.63-.3c.41-.11.62-.21.41-.21a71,71,0,0,0,17.7-3.89c.31-.1.31,0,.31,0,2.35-1,4.81-2,7.06-3.27.61-.31,1.13-.62,1.74-.92l1.64-1a8.88,8.88,0,0,0,1.63-1.12l.82-.62.31-.2s.2-.1.1-.1h-.2a.1.1,0,0,0-.1.1c-.11.1-.31.2-.41.31-.31.2-.62.51-.92.71a7.19,7.19,0,0,1-1.85,1.23l.11-.2c-.93.51-.11.3-1.13.82-.41.2,0-.11-.1,0a32.58,32.58,0,0,1-3.17,1.63c-1.13.51-2.15,1-3.07,1.54-.62,0-2.36.92-3.28,1a6.05,6.05,0,0,0-1.33.61,97.82,97.82,0,0,1-12.17,2.66,86.43,86.43,0,0,1-12.69.82c-4,.31-8.7-.41-13.41-.92h0c-1.53-.1-3.78-.51-5.52-.82a8.12,8.12,0,0,1-1.54-.2c-10.74-2.56-21.48-6.34-30.9-12.59A67.66,67.66,0,0,1,74.37,90.58,83.37,83.37,0,0,1,64,75.94s0-.1.21.21a61.09,61.09,0,0,1-4-9.41h0c-3-7.88-3.48-17.09-2.56-25.07a55.82,55.82,0,0,1,3.58-13,59.28,59.28,0,0,1,3.07-6.24c.61-1,1.23-2.05,1.84-3,1-.1,2.36-.1,3.38-.2-.1.51-.31,1.23-.41,1.84S69,22.33,68.84,23h-.1a55.75,55.75,0,0,0,.1,12.39c.11,2,.62,4.09.92,6.13.21,1,.52,2,.72,3a25.77,25.77,0,0,0,.92,3c.72,2,1.33,4.09,2.25,6.14.41,1,.92,2,1.33,3l1.64,2.86c.51.92,1,1.94,1.64,2.87s1.22,1.84,1.84,2.76,1.12,1.84,1.74,2.76,1.23,1.74,1.94,2.66A25.77,25.77,0,0,0,86.34,74l3.07,3.38c.51.61,1,1.12,1.53,1.63l1.54,1.54a20,20,0,0,1,1.43,1.53c.51.52,1,.92,1.43,1.33a53.59,53.59,0,0,0,12.49,8.91,77.28,77.28,0,0,0,14.22,5.52c9,3,18.52,4,27.73,4.91,4.4,0,9.21.62,14,.31l-.21-.1c1.74.2,3.89-.51,5-.21h-.21c.92.11,2.15-.61,2.66-.41l.1-.1c1.13-.1.11.1,1,0,.31,0,.1-.2.82-.2.2.41,2.66-.41,2.86,0-.61.1,1,0-.41.3.41,0,2.25-.3,2-.41.1-.2.82-.51-.31-.41l-.2.21c-.41-.1-.31,0-.41-.1a12.58,12.58,0,0,1-2.76,0h0c-.72.2-1.74.2-2.26.3l-.2-.1c-.41-.1-1.64.41-1.23.1a97.29,97.29,0,0,1-9.82.52c-.51.1-2.56,0-1.84.2a30,30,0,0,0-4.3-.31h.2c-1.84-.3-2.14.21-3.78-.2-.31.2-3.07-.21-4,0-.21-.1-.31-.1-.21-.21-3.07-.2-6.34-.71-8.9-1.12-2.25-.1-5.22-1-7.16-1.13-.72-.2-1.74-.51-2.76-.71a29.11,29.11,0,0,0-3.28-.82h.21c-1.23-.31-2.56-.72-3.79-1.13s-2.35-.71-3.17-.92A10.14,10.14,0,0,0,115,94.77a25.41,25.41,0,0,1-3.17-1.23c-1.23-.51-2.56-1.22-3.69-1.74-.3-.3-1.84-.92-1.84-1.22a48.35,48.35,0,0,1-9.51-6.35,58.81,58.81,0,0,1-8.09-8.59l.11.1c-.72-.72-1.64-1.33-2.36-2,0-.1,0-.1.1.11-.92-1-1.43-2.26-2.35-3.28l.21.1c-.82-1-1.44-2.25-2.46-3.37v-.11l-.61-.81c.1,0,.2,0,.41.41A93,93,0,0,1,73.34,51a65,65,0,0,1-4.29-17.6l.1.41c-.1-.82-.2-1.54-.31-2.36a.38.38,0,0,1,.11.21,52,52,0,0,1,.2-9s0,.52.1.11a11,11,0,0,1,.31-2c.2-.82.41-1.53.51-2.15a6.5,6.5,0,0,0-1.53.21c-.11,0-.21-.11.1-.11-.82,0-1.54.11-2.36.11h-.4c-.11,0-.21.2-.31.3l-.41.51-.61.93c-.82,1.33-1.54,2.66-2.26,4A54.68,54.68,0,0,0,58.82,33c-1.13,4.91-2.46,10.54-2.15,15.86h-.11A61.22,61.22,0,0,0,60.45,69.5a65.82,65.82,0,0,0,3.28,7.16v.1c2.55,4.2,5.11,9.21,8.8,12.9l-.31-.21c.61.51,2,2.35,2,2l.61.71c2.66,2.25,4.5,4.61,8.08,7.06l-.3-.1c.92.61,2,1.43,2.66,1.94-.11-.1-.11,0-.31-.2a56.75,56.75,0,0,0,9.72,5.83l-.41-.1c.82.31,2.05.92,3.28,1.53a34.86,34.86,0,0,0,3.68,1.64h-.21l1.13.41v.1C105.68,111.45,108.44,112.27,111.41,113.09Z"/><path class="cls-3" d="M73,19s-3.17,5.32-2.25,10.34S75.9,59.68,94.63,77s42,21.18,80.83,19.34c0,0-.51,2.25,2.36,5.42,0,0-117.57,18.42-108.47-81.55Z"/><polygon class="cls-2" points="72.83 18.23 72.63 18.23 72.32 18.44 72.83 18.23"/><path class="cls-2" d="M70.38,19.26h.1l1.33-.72C71.2,18.54,70.89,19.16,70.38,19.26Z"/><path class="cls-2" d="M70,19.26a2.43,2.43,0,0,0-.82.31c-.31,0-.1.3-.1.4v-.3h.1a1,1,0,0,0,.51-.21C69.87,19.36,70.07,19.36,70,19.26Z"/><path class="cls-2" d="M78.26,69.6l-.11-.1Z"/><path class="cls-2" d="M87.06,79.94h.2a25.12,25.12,0,0,1-2.76-2.87L81.94,73.9l.1.1a60.64,60.64,0,0,1-5.32-8.29,65.84,65.84,0,0,1-4-9c0,.1.1.1.1.2-.1-.3-.3-.61-.41-.92,0-.1.11.1.11.21-.21-.72-.41-1.74-.72-2.66a10.64,10.64,0,0,1-.61-2.26c-.11-.4-.21-.51-.21-.3a84.75,84.75,0,0,1-2.35-16.17c0-.31.1-.31.1-.2A72.54,72.54,0,0,1,69,20.49c-.11-.21-.11.51-.21,0-.2,1.53,0,2.76-.2,4.09l-.11-.21c-.1,1,.21.21,0,1.23-.1.41-.1-.1-.1.1,0,1-.1,2.15-.1,3.18s0,2.15.1,3.17a28.44,28.44,0,0,0-.1,3.07,13.15,13.15,0,0,0,.2,1.33,76.7,76.7,0,0,0,4.4,22.2c1.54,3.28,3,7.27,5.32,10.85h0c.41.61.92,1.23,1.44,1.94.2.41.51.72.71,1.13a6,6,0,0,1,.72,1l.92,1A54.8,54.8,0,0,0,92.48,85.26a78.92,78.92,0,0,0,12.89,7.87,92.89,92.89,0,0,0,15.35,5.73,87.81,87.81,0,0,0,15.86,2.87s.1.1-.2,0c3.17.41,6,.72,9.1.92h0a170.09,170.09,0,0,0,22.82-.2c2.35-.11,4.81-.41,7.26-.62l2.05-.3h.31c0-.11-.1-.11-.21-.21l-.41-.41c-.2-.31-.51-.61-.61-.82a6.36,6.36,0,0,1-1.33-3.58V96.1H175l-6,.31c-2,.1-4.09.1-6,.2v-.1a196.32,196.32,0,0,1-22-.92c-7.57-.92-15.66-1.84-22.82-4.5a33.79,33.79,0,0,0-3.48-1.43c-1.23-.41-2.46-1-3.68-1.54a36,36,0,0,1-3.58-1.74c-.62-.31-1.13-.61-1.64-.92s-1-.72-1.43-1a95.54,95.54,0,0,1-10.54-8.6l-2.46-2.35L89,71a27.75,27.75,0,0,1-2.15-2.66c-.71-.92-1.43-1.74-2.15-2.76C80.1,58.55,76.11,50.88,74,42.89c-1.43-3.68-1.95-8-2.87-12.17v.2a15.12,15.12,0,0,0-.41-2.35,4.32,4.32,0,0,1-.1-1.13,2.92,2.92,0,0,1,.1-.92v.21c.21-.82-.2-1.95.11-2.46l-.11-.1c.21-1,.11-.1.31-.82.1-.31-.1-.2.1-.72.31,0,.82-2.35,1.23-2.25-.2.52.51-.71.1.41.21-.3.92-1.74.72-1.74-.1-.2.1-.82-.51-.1v.21c-.31.2-.21.2-.31.3-.61,1.23-.82,1.33-1.23,2.15h0a9.78,9.78,0,0,1-.61,2.05l-.1.2c-.21.31,0,1.54-.21,1.13a12.87,12.87,0,0,0,.11,4.4c.3,1.43.61,3,.92,4.4.2.41.51,2.25.51,1.53a12.68,12.68,0,0,0,.71,3.79.35.35,0,0,1-.1-.21c.21,1.64.82,1.74.92,3.38.31.1.72,2.66,1.33,3.38,0,.2,0,.3-.1.2.92,2.56,1.94,5.42,2.87,7.57,1,1.74,2,4.4,3.07,5.73.3.62.71,1.44,1.22,2.36a16.06,16.06,0,0,0,1.64,2.56l-.1-.11c.61.92,1.33,2,2,2.87a26.59,26.59,0,0,0,2,2.25,10.53,10.53,0,0,0,1.33,2.25c.51.51,1.33,1.33,2.15,2.25s1.84,1.74,2.66,2.56c.1.31,1.33,1.23,1.33,1.43,1.33.92,2.56,2,4,3.07l2.15,1.54c.71.51,1.43,1,2.25,1.53l2.25,1.54c.72.51,1.53.92,2.35,1.43s1.54.92,2.25,1.33,1.54.82,2.36,1.23h-.1a21.8,21.8,0,0,0,2.76.71c.1,0,.1.11-.1,0,1.12.41,2.14,1,3.37,1.44H118a29.65,29.65,0,0,0,3.58,1.12l.1.1.82.21c0,.1-.1.1-.51,0a92.06,92.06,0,0,0,15.76,3.07c5.42.51,10.84.92,16.26,1h1.74a.31.31,0,0,0-.2.1c2.66.11,5.42,0,8.08-.1,0,0-.41.1,0,.1,1.95-.2,3.07.21,4.1-.2.1,0,.2.1,0,.1,2.55-.1,5.11-.2,7.67-.41h.2V97a.85.85,0,0,0,.11.51l.3.93a10.14,10.14,0,0,0,.92,1.73c.11.11.21.31.31.41l.21.21.1.2.1.11h-.1l-1.33.1c-4.4.82-9.52.92-14.12,1.33v-.1a126.8,126.8,0,0,1-18.73-.52c-2.55-.2-4.4-.4-7-.71l-.11-.1c-4.4-.31-9.1-1.74-13.61-2.56H123c-.72,0-2.66-.82-2.45-.41l-.72-.31c-3.17-.51-5.42-1.84-9-3h.31a13.76,13.76,0,0,1-2.76-1.12c.1,0,.1,0,.31.1-2.77-1.53-6.14-2.86-9-4.6l.41.1a60.42,60.42,0,0,1-5.63-3.68h.11l-.93-.62.11-.1A30.81,30.81,0,0,1,87.06,79.94Z"/><path class="cls-2" d="M71,22a.38.38,0,0,0,.1-.31A.52.52,0,0,1,71,22Z"/><path class="cls-4" d="M179.86,105.41S90.33,142.56,59.63,50.47c0,0,.41,36,26.81,53.31s68.66,38.37,95.37,2.66Z"/><polygon class="cls-2" points="179.56 106.03 179.66 106.13 180.07 106.23 179.56 106.03"/><path class="cls-2" d="M181.09,106.74h.1a.1.1,0,0,0-.1-.1h-.41l-.41-.1a.78.78,0,0,0,.41.2.1.1,0,0,0,.1-.1c.21,0,.31,0,.31.1C181.19,106.64,181.19,106.74,181.09,106.74Z"/><path class="cls-2" d="M181,106.85c-.41.3-.41.71-.51.81C180.48,107.46,181.19,106.85,181,106.85Z"/><path class="cls-2" d="M122.46,122.19l-.21.11c1.23.3,2.56.71,3.79,1.12s2.66.72,4,1h-.2a55.47,55.47,0,0,0,19.64,1.22c-.1,0-.1.11-.2.11.3-.11.71-.11,1-.21.1,0-.1.1-.2.1a13.73,13.73,0,0,0,2.66-.41,20.9,20.9,0,0,1,2.25-.51c.41-.1.51-.2.3-.2a41.21,41.21,0,0,0,14.53-6.86c.21-.1.31-.1.31,0a68.56,68.56,0,0,0,9.93-9.72c0-.2-.41.31-.11-.1a17.71,17.71,0,0,0-1.33,1.64,8.18,8.18,0,0,1-1.33,1.43l.11-.21c-.72.72,0,.31-.72.92-.31.21,0-.1-.1,0-1.43,1.54-3.07,3-4.5,4.3a4.73,4.73,0,0,0-1.13.82,10.84,10.84,0,0,1-1.33.82c-.41.41-.82.61-.92.82a42.79,42.79,0,0,1-21,6.85c-3.48.52-7.77,0-11.87-.51h0a30.47,30.47,0,0,1-4.91-.82l-1.33-.2a123.61,123.61,0,0,1-27.52-11.26c-5-2.76-9.52-5.62-13.92-8.49A57.62,57.62,0,0,1,76,93.75s0-.1.2.1a51.43,51.43,0,0,1-5.32-7.37h0c-4.2-6.24-6.75-13.91-8.7-20.87A80.31,80.31,0,0,1,60,50.36h-.2c.71,2,1.43,3.89,2.15,5.84.41,1,.71,1.94,1.12,3s.82,2,1.33,2.87h-.1c3.07,6.75,6.34,13.2,10.85,19.13C79.59,87.51,85.52,93,91.56,97.74c3.68,3.07,9.31,5.83,13.3,7.78l1.54.81,1.53.72c1,.41,2.15.92,3.17,1.33a29.21,29.21,0,0,0,3.28,1c1.12.31,2.14.72,3.27.92l3.27.72c1.13.21,2.26.31,3.38.51,2.25.41,4.5.51,6.86.72a87,87,0,0,0,12.58.31c2-.11,4.2-.31,6.24-.41l6.14-.62c3.79-.82,8.09-1.12,12.28-2.25h-.2c1.53-.2,3.27-1.23,4.3-1.12l-.11.1c.82-.1,1.74-.92,2.25-.92l.11-.1c.92-.31.1.1.92-.11.3-.1.1-.2.61-.3.21.3,2.25-.82,2.46-.52-.51.21.82-.1-.31.41.31-.1,1.94-.71,1.74-.82.1-.2.61-.61-.41-.4l-.1.2h-.41a13.57,13.57,0,0,1-2.36.51h0A7.64,7.64,0,0,1,175,107h-.2c-.31,0-1.33.71-1,.41-2.56.82-5.52,1.63-8.39,2.35-.41.21-2.25.51-1.53.51a24.63,24.63,0,0,0-3.79.51.35.35,0,0,1,.21-.1c-1.64,0-1.85.62-3.38.51-.2.31-2.66.31-3.48.72-.2,0-.31-.1-.2-.1-2.66.3-5.63.51-8,.61a32,32,0,0,1-3.28.21,28.54,28.54,0,0,0-3.07.1c-.72,0-1.64-.1-2.56-.1a27.54,27.54,0,0,0-3-.11h.2c-.51,0-1.13-.1-1.74-.1s-1.23-.1-1.74-.2a15,15,0,0,0-3-.11,7.55,7.55,0,0,0-2.45-.71c-.72-.1-1.84-.21-3-.41s-2.45-.51-3.58-.72a4.14,4.14,0,0,0-1-.3c-.41-.11-.82-.21-.82-.31a52.29,52.29,0,0,1-18.83-8.29h.1c-.82-.31-1.74-.72-2.56-1.13-.1-.1,0-.1.11,0-1-.61-1.84-1.43-2.87-2.14l.21.1c-.92-.62-1.74-1.64-2.87-2.36v-.1l-.71-.51c.1,0,.1-.1.51.21A83.51,83.51,0,0,1,69.15,70.62l.2.31-1.12-1.84.2.2c-.51-1.22-1.33-2.35-1.84-3.58S65.47,63.26,65,62.13c0,0,.21.31.11,0-.92-1.74-1.13-2.86-1.74-3.68,0-.1,0-.21.1,0-1-2.56-1.94-5.12-3-7.68l-.71-1.94.1,2.05c.1,2.66.41,5.42.71,8.08,1,4.4,1.85,9.41,3.59,13.81H64c2.15,5.73,4.61,11.67,8.19,16.89a54.47,54.47,0,0,0,4.3,5.52v.1c3.17,3.07,6.44,6.86,10.43,9.11l-.3-.1c.71.3,2.25,1.53,2.25,1.12l.61.51c2.87,1.34,4.71,3.18,8.19,4.92l-.21-.11c.92.52,2,1,2.56,1.44-.1,0-.1,0-.31-.11,2.66,1.85,5.94,3.18,9,4.71h-.41c1.53.61,4.19,2,6.14,2.76h-.1l1,.31v.1Z"/><path class="cls-2" d="M176.28,106.13c.1,0,.21-.1.31-.1A.52.52,0,0,0,176.28,106.13Z"/><polygon class="cls-5" points="55.44 6.37 63.73 5.55 74.16 11.38 65.36 11.89 55.44 6.37"/><polygon class="cls-2" points="55.13 6.98 55.13 6.98 55.23 6.88 55.13 6.98"/><path class="cls-2" d="M55.54,6.88h0l-.31.1C55.23,7.18,55.54,6.77,55.54,6.88Z"/><path class="cls-2" d="M55.54,7c0,.1.1,0,.21,0C55.64,7,55.64,6.77,55.54,7Z"/><path class="cls-2" d="M63,10.46h0c-.31-.1-.51-.41-.82-.51h0a21.48,21.48,0,0,0-2.25-1H60c-.1,0-.1.11-.2,0h.1c-.1-.2-.51-.1-.51-.3-.1,0-.1,0-.1.1a10.67,10.67,0,0,0-1.95-.82V7.8a3.33,3.33,0,0,1-1.63-.72c-.11.1,0,.1-.11.1.11.21.41,0,.51.21l-.1.1c.1.1.1-.2.21,0s-.11.1,0,.1A1.44,1.44,0,0,0,57,7.9c0,.21.21.1.21.31.1,0,.1,0,.2-.1.82.51,1.64.81,2.56,1.33.51-.11.82.51,1.33.71h0a1.39,1.39,0,0,1,.62.21h.2a5.83,5.83,0,0,0,1.53,1l.82.41.41.2.51.31h.21A10.8,10.8,0,0,0,69.66,12v.11c.41-.11.82,0,1.13-.11h0a3.56,3.56,0,0,1,1.53-.2,4.76,4.76,0,0,0,1.54-.21h.71c-.92-.51-2-1.12-3-1.53V10c-.93-.31-1.54-1.13-2.36-1.44-.71-.61-1.94-.61-2.66-1.33-.41-.61-1.43-.41-1.74-.92a1.2,1.2,0,0,0-.51-.51,5,5,0,0,1-.61-.41c-.21,0-.41.1-.62.1s-.3.11-.51.11l-1,.3c-1.13-.1-2,.52-3.17.21-.52.31-1-.21-1.64-.1v.1c-.21-.21-.41.41-.51,0h0c-.11-.21-.21.41-.31.2v.11c-.1,0,0-.11-.1-.11s0,.21-.1.11c-.11-.41-.31.1-.31-.31.1,0-.1-.1,0-.21a.21.21,0,0,0-.21.21c0,.2-.1.31.11.51v-.1c.1.1,0,.1.1.2s.2.21.31.31h0c.1-.21.2-.1.2-.1V7c.1.2.21-.31.1,0,.31-.1.72-.1,1.13-.21,0-.1.31,0,.2-.2.11.2.41.2.51.2h0c.21.31.21-.3.41,0,0-.2.31,0,.41-.3v.1h1c.2-.2.61,0,.81-.31.21,0,.52.11.72,0h0a1.17,1.17,0,0,0,.82-.3c.1.3.2.2.31.3.2-.2.51-.1.82-.3,0,.1.1,0,.1,0v.1h0c0-.1.2,0,.41.1l.61.31a3.72,3.72,0,0,1,1,.82h0c.11,0,.41-.21.52-.21h0c.1,0,.2.31.3.31h-.1c.2,0,.2.31.41.2h.1a.1.1,0,0,1-.1.11c1.13.71,2.46,1.12,3.68,1.74h.11c.2.3.61.3.92.4l-.11.11c.31,0,.31.41.52.1l-.11.1a1.92,1.92,0,0,1,.92.41c.21.1.41.1.62.21,0,.1-.21.1-.41.1s-.31,0-.31.1l-.1-.1a2.3,2.3,0,0,1-.92.1H70.07c-.31,0-.51.1-.92.1V11c-.51.31-1.23-.2-1.74.2v-.1c-.1.21-.31,0-.31.31l-.1-.1c-.41.41-.72-.11-1.23.1v-.1a.61.61,0,0,1-.41.1v-.1a.85.85,0,0,0-.51-.11c-.2-.1-.51-.1-.71-.2l.1-.1c-.21,0-.51-.31-.82-.31h-.2l.1-.1C63.62,10.66,63.32,10.66,63,10.46Z"/><polygon class="cls-6" points="51.96 12.61 55.44 6.37 65.36 11.89 64.55 19.36 51.96 12.61"/><path class="cls-2" d="M52.06,13.12h0l-.3.1C51.76,13.43,52.06,13,52.06,13.12Z"/><path class="cls-2" d="M52.06,13.22c0,.1.1,0,.21,0C52.16,13.22,52.06,13,52.06,13.22Z"/><path class="cls-2" d="M59.53,16.6h0c-.31-.1-.51-.41-.82-.51h0a18.67,18.67,0,0,0-2.25-.92h.1c-.1,0-.1.1-.2,0h.1c-.1-.21-.51-.11-.51-.31a.1.1,0,0,0-.1.1,6.52,6.52,0,0,0-2-.72v-.1a3.4,3.4,0,0,1-1.63-.71c-.11.1,0,.1-.11.1.11.2.41,0,.52.2l-.11.11c.11.1.11-.21.21,0s-.1.1,0,.1a1.12,1.12,0,0,0,.82.2c0,.21.2.1.3.31.11,0,.11,0,.21-.1a27,27,0,0,0,2.56,1.22c.51-.1.82.52,1.33.72h0a1.35,1.35,0,0,1,.61.21h.21A34.33,34.33,0,0,0,62,18.44c.41.31.82.51,1.23.82l.3.2.51.31a9.67,9.67,0,0,0,1,.51V18.34h.1c0-.41.1-.72.1-1.13h0c-.2-.92.21-1.94,0-2.86A15.91,15.91,0,0,0,65.47,12a5.63,5.63,0,0,0-1.13-.51v-.1A18.38,18.38,0,0,1,62,10c-.72-.62-2-.62-2.66-1.33C58.92,8,58,8.21,57.59,7.7a4.52,4.52,0,0,0-2.25-1.33c-.11.4-.21.71-.31,1-.72.82-.82,1.94-1.64,2.66,0,.51-.71.72-.92,1.23h.1c-.3.1.11.51-.3.51h0c-.21,0,.3.41,0,.41l.1.1c0,.1-.1,0-.21,0l.11.1c-.31-.2-.11.31-.41.1,0-.1-.21,0-.21-.2-.1,0-.1.2,0,.31s.31.3.41.2l-.1-.1h.2a.64.64,0,0,1,.41-.1h0c-.1-.11,0-.21.11-.21h.1c.2,0-.21-.3,0-.1a9.63,9.63,0,0,1,.51-1c-.1-.11.1-.21-.1-.31a.84.84,0,0,0,.51-.31h0c.31,0-.1-.3.31-.3-.21-.11.2-.31,0-.52.1,0,.1,0,.1.11a5.29,5.29,0,0,1,.61-.82c-.1-.31.41-.51.21-.82.1-.1.41-.31.41-.61h0c.1-.11.1-.31.2-.41a.32.32,0,0,0-.1-.21c.2.21.2.21.2.31h0v-.1h.21c0,.1.2.1.1.2A3.42,3.42,0,0,1,58.2,8.82h0a1.27,1.27,0,0,0,.51-.31h0c.11,0,.21.31.31.31h-.1c.2,0,.2.31.41.21h.1a.1.1,0,0,1-.1.1c1.12.71,2.45,1,3.68,1.74h.1c.21.3.62.3.92.41l-.1.1c.31,0,.21.41.51.1a.1.1,0,0,1-.1.1c.31.11.31.11.41.11s-.1.71-.1,1.12c.3.62-.1,1.23.1,1.84h-.1c.2.82-.21,1.54-.21,2.36a2.82,2.82,0,0,0,0,.92h-.1a.74.74,0,0,1-.1.82c-.21-.11-.31-.21-.41-.11v-.1c-.1.21-.21-.2-.31.1a.1.1,0,0,0-.1-.1c-.51.21-.51-.51-1.13-.51h.11c-.11,0-.31,0-.31-.1h.1c-.2-.41-.71-.41-1.12-.62l.1-.1c-.21,0-.51-.31-.82-.31h-.2l.1-.1S59.84,16.7,59.53,16.6Z"/><polygon class="cls-7" points="74.06 11.18 72.83 18.75 64.44 19.16 65.16 11.79 74.06 11.18"/><path class="cls-2" d="M73.75,10.77h0l.11-.21C73.86,10.36,73.75,10.87,73.75,10.77Z"/><path class="cls-2" d="M73.65,10.77c-.1-.11-.1.1-.1.1S73.75,10.87,73.65,10.77Z"/><path class="cls-2" d="M67.1,11.69v.1c.21-.21.52,0,.82-.1h0a11.36,11.36,0,0,0,2-.31v.1l.1-.1v.1c.2.21.41-.1.51,0a.14.14,0,0,0,0-.2A10.52,10.52,0,0,0,72.12,11v.1a2.29,2.29,0,0,1,1.43-.2c0-.1-.1-.1,0-.21-.2-.1-.31.21-.41.11v-.11c-.1,0,0,.21-.1.11v-.11a.75.75,0,0,0-.62.21c-.1-.21-.2,0-.3-.1-.11.1-.11.1-.11.2-.71,0-1.53.2-2.25.2-.3.31-.81,0-1.22.11h0a.81.81,0,0,1-.52.1l-.1.1a6,6,0,0,0-1.33-.1H64.85l-.1.51a4.24,4.24,0,0,1-.2.92,2.11,2.11,0,0,0-.11.82,3,3,0,0,0,.11,1.64h-.11c0,.3-.1.61-.1.92h0c.21.82-.2,1.53,0,2.35,0,.21-.1.51-.1.72a14.34,14.34,0,0,0,2.25-.21v.11c.72-.21,1.43.1,2.25,0,.82.1,1.54-.41,2.35-.31.52.31,1-.41,1.54-.1l.2.1A3.44,3.44,0,0,0,73,16.19c.31-.82,0-1.74.51-2.46-.2-.41.41-.82.41-1.23h-.1c.3-.1-.31-.4.1-.4h0c.2-.11-.41-.21-.21-.31h-.1c0-.1.1,0,.1-.1s-.2,0-.1-.11c.41,0,0-.2.41-.2,0,.1.21-.1.21.1,0,0,.1-.2-.11-.2s-.3-.11-.51-.11h-.1c0,.11-.2.11-.31.21h0a.13.13,0,0,1,0,.2h-.1c-.2,0,.31.21,0,.11a2.92,2.92,0,0,1-.1.92c.1.1,0,.2.2.2a.33.33,0,0,0-.3.31h0c-.31.1.2.2-.11.31.21.1-.1.3.21.41h-.21c0,.3-.2.51-.2.81.2.21-.21.41.1.72a.79.79,0,0,0-.2.51h0a1.8,1.8,0,0,0,.1.72c-.31,0-.31.1-.41.2.1.21,0,.41.1.72-.1,0,0,.2-.2.2a1.15,1.15,0,0,1,.1.51v.21c-.1,0-.21,0-.21-.1a1.94,1.94,0,0,1-.51-.21h0a.79.79,0,0,0-.2.51h0c-.1,0-.21-.1-.41-.1v-.1c-.1.1-.21-.1-.41,0v-.1l-.1.1v-.1c-1,0-2.15.41-3.28.41v-.11l-.2.11v-.11c-.31-.1-.51.11-.82.11v-.11c-.2.21-.31-.2-.41.21v-.1a2.31,2.31,0,0,1-.82.1h-.41a.1.1,0,0,0-.1.1c-.2-.1.1-.51-.1-1h.1a3.76,3.76,0,0,1,.21-1.84c.1-.31,0-.41,0-.72h.1c-.31-.51.41-.92.1-1.43h.1c-.2-.11.1-.31-.2-.31l.1-.1c-.41-.31.2-.51,0-.92h.1c0-.11-.1-.21,0-.31h0c.21-.2.1-.31.1-.51.11,0,.21-.1.31-.1v.1c.1-.21.41,0,.62-.1v.1l.1-.1v.1A1.72,1.72,0,0,0,67.1,11.69Z"/><path class="cls-3" d="M66.39,19.26s-7.47,11-7.17,18.83-5.32,73.77,89.64,83.69l1.64,6.35S55,132.43,50.83,44a32.42,32.42,0,0,1,11.36-26.3Z"/><polygon class="cls-2" points="66.59 18.64 66.49 18.54 66.08 18.44 66.59 18.64"/><path class="cls-2" d="M63.93,17.83c.1,0,0,.1.1.1l1.64.3C65.06,17.83,64.34,18.13,63.93,17.83Z"/><path class="cls-2" d="M63.52,17.62a3.9,3.9,0,0,0-1.12-.31,2.68,2.68,0,0,1,.71.21C63.32,17.72,63.52,17.72,63.52,17.62Z"/><path class="cls-2" d="M54.42,68.37c0-.1,0-.1-.11-.2A.3.3,0,0,1,54.42,68.37Z"/><path class="cls-2" d="M60.25,81.67l.2.11c-.3-.62-.71-1.23-1-1.84-.21-.31-.31-.62-.51-.93s-.31-.71-.41-1c-.51-1.33-1-2.76-1.64-4.09l.1.2c-.2-.41-.3-.82-.51-1.23s-.31-.81-.41-1.33c-.3-.81-.51-1.73-.82-2.55s-.51-1.64-.81-2.46S54,64.79,53.8,64c-.41-1.74-.92-3.37-1.23-5.11s-.61-3.48-.92-5.22c0,.1.11.1.11.2a11.5,11.5,0,0,1-.31-1.12c0-.1.1.1.1.2-.1-.71-.2-1.84-.31-2.86S51,48,51,47.6s-.1-.61-.21-.41c-.1-.71-.1-1.43-.2-2.15l-.1-1.12V40.54c.1-.72.1-1.43.2-2.25a35.49,35.49,0,0,1,2.05-8.6c.1-.2.2-.3.2-.2a30.45,30.45,0,0,1,3.48-6.75,22.15,22.15,0,0,1,2.46-3,16.68,16.68,0,0,1,1.33-1.33c.2-.21.51-.41.71-.61l.41-.31.52-.41c.2-.31-.72.51-.11-.1l-.41.3c-.1.11-.2.11-.2.21l-.41.41-.82.82c-.51.51-.92,1.12-1.53,1.63l.1-.2c-.72.82,0,.31-.82,1.12-.31.31,0-.1-.1,0A21.9,21.9,0,0,0,54,27.14c-.41.41-1,2.25-1.54,3-.1.62-.31,1.13-.31,1.44a31.58,31.58,0,0,0-1.74,12c.11,2,.31,4.09.52,6,.1,1,.1,2,.3,3.07l.52,3.06c.4,1.85.71,4,1.22,6,.21,1,.41,2.15.72,3.28a8.85,8.85,0,0,0,.41,1.63l.51,1.64h0c.51,1.43,1.23,3.48,1.74,5.12l.72,1.33c.51,1.22.92,2.45,1.43,3.68A36,36,0,0,0,60.25,82a57.53,57.53,0,0,0,4,7,75.43,75.43,0,0,0,10.23,12.48,78.61,78.61,0,0,0,29.37,18.42s.1.1-.21,0a91.46,91.46,0,0,0,9.31,3.17h0c3.89,1,8,1.95,12,2.77a104.68,104.68,0,0,0,12,1.63c2.35.21,4.81.41,7.26.51,1.23,0,2.46.11,3.79.11h2.86a.11.11,0,0,0,.11-.11l-.31-1c-.31-1.23-.62-2.45-.92-3.68l-.21-.92-.1-.52c0-.2,0-.4-.31-.3l-1.94-.21c-2.56-.3-5-.61-7.47-.92v-.1a159.44,159.44,0,0,1-22.92-5.42c-7.67-2.56-15.86-5.63-22.82-10.13-4.19-2.87-9.92-6.55-13.1-10.13A82.09,82.09,0,0,1,64.65,70.42c-3.17-8.49-5.22-17.5-5.12-26.4a47.7,47.7,0,0,1,0-6.55A25.1,25.1,0,0,1,61,30.82l-.1.1c.72-1.53,1-3.58,1.74-4.4l-.1.21c.51-.72.51-2.05.92-2.46v-.2c.51-.92.1-.11.61-.82.11-.31-.1-.21.31-.72.41.1,1.23-2.35,1.64-2.15-.31.52.61-.71,0,.52.2-.31,1.12-1.85.92-1.74-.1-.21.2-.93-.51-.11v.31c-.31.21-.21.21-.41.21-.82,1.22-1,1.22-1.64,2.14h0a7,7,0,0,1-1,1.95l-.21.2c-.3.21-.51,1.64-.51,1.13a38.66,38.66,0,0,0-3.17,9c0,.41-.41,2.46-.1,1.84A5.28,5.28,0,0,0,59,37.88v1.84c-.31,1.74.31,2.05-.1,3.69.2.2,0,3,.41,3.88,0,.21-.11.31-.11.21.21,3,.52,6.14.93,8.59.61,2,.92,5.12,1.73,6.76.21.71.41,1.74.72,2.76s.72,2.15,1,3.07l-.1-.2c.41,1.12.92,2.35,1.43,3.47s1,2.15,1.44,2.87a8.2,8.2,0,0,0,.92,2.66c.82,1.33,2.45,4.19,3.89,6.14.1.41,1.22,1.64,1.12,1.84a97,97,0,0,0,15.76,16l-.1-.1c.82.51,1.84.92,2.66,1.33.1.1,0,.1-.1,0,1.12.72,2,1.54,3.17,2.25l-.21-.1c.51.31,1,.72,1.64,1s1.13.72,1.84,1v.1l.82.41c-.1,0-.1.1-.51-.1,9.92,5.73,21.28,9.1,32.64,11.66h-.41l2.25.41h-.2c2.76.72,5.73.92,8.49,1.53,0,0-.41,0-.1.11,2,.1,3.27.71,4.4.41.1,0,.1.1-.11.1,1.44.2,2.87.3,4.3.51H149c.1,0,.1.1.1.2l.31,1,.51,2.15.51,2c.31.51-.2.41-.92.41-1.43,0-2.86,0-4.4-.1-4.81.2-10.23-.61-15.14-1.13v-.1a102,102,0,0,1-19.54-4.6c-1.33-.41-2.46-.82-3.59-1.23s-2.25-.82-3.47-1.33v-.1c-4.51-1.54-9-4.3-13.31-6.55l.31.1c-.82-.2-2.56-1.64-2.46-1.23l-.71-.51a18.26,18.26,0,0,1-4-2.66c-1.23-1-2.66-2-4.2-3.38l.21.11c-.82-.72-1.84-1.44-2.46-2,.1.1.1,0,.31.2-2.35-2.45-5.22-5-7.47-7.77l.41.2c-1.33-1.12-3-3.89-4.4-5.73l.1.1c-.2-.3-.51-.61-.72-.92l.11-.1c-.82-1.23-1.54-2.45-2.36-3.68l-.61-.92-.51-.92A3.86,3.86,0,0,1,60.25,81.67Z"/><path class="cls-2" d="M63.83,22.23c.1-.11.1-.21.2-.31A1.7,1.7,0,0,1,63.83,22.23Z"/><path class="cls-1" d="M150.5,128.13l2.55,6s-16.16,14-58.63-1.74S30.47,62.64,61.78,18.13c.11-.1.21-.3.31-.41S16.76,108.07,150.5,128.13Z"/><path class="cls-2" d="M147.63,127.11c.1,0,0,.1.1.1h1.74C148.76,126.9,148,127.31,147.63,127.11Z"/><path class="cls-2" d="M147.12,127a2.48,2.48,0,0,0-1.13-.1C146.2,126.9,147.22,127.21,147.12,127Z"/><path class="cls-2" d="M90,108.38c.11,0,.11.1.21.1A.39.39,0,0,1,90,108.38Z"/><path class="cls-2" d="M76.93,99.68h-.21c1.23.92,2.36,1.95,3.58,3s2.56,1.84,3.89,2.76l-.2-.1A98.78,98.78,0,0,0,104.35,116a.39.39,0,0,1-.31-.1,3.52,3.52,0,0,1,1.13.41c.1.1-.11,0-.31,0a21.82,21.82,0,0,0,3,1.23,21.39,21.39,0,0,1,2.56.92c.4.1.71.1.4,0A173.72,173.72,0,0,0,129,123.63c.31.1.31.1.2.2,2.66.41,5.32,1,8,1.54s5.43,1,8.09,1.53c.2,0-.51-.2,0-.2-1.74-.41-3.17-.31-4.71-.82h.21c-1.13-.21-.31.1-1.44-.1-.41-.11.11-.11-.1-.11-2.46-.41-4.91-1.12-7.16-1.43-.51-.31-2.56-.61-3.48-.92a13.46,13.46,0,0,0-1.54-.21c-2-.61-4.19-1.22-6.24-1.73-1-.31-2-.62-3.17-.93s-2.05-.71-3.07-1c-2-.71-4.19-1.43-6.24-2.15s-4.09-1.63-6.14-2.56A34.9,34.9,0,0,1,96.06,112c-1-.51-2.15-1.12-3.17-1.64s-2.15-1.22-3.17-1.84h0c-.72-.41-1.54-.82-2.46-1.33-.41-.3-.92-.51-1.33-.82l-1.23-.92-1.43-.82c-1.13-.81-2.35-1.73-3.48-2.55s-2.15-1.85-3.27-2.87c-.51-.51-1.13-.92-1.64-1.43L73.35,96.2l-3.07-3.07a60.9,60.9,0,0,1-9.62-14.42A58.83,58.83,0,0,1,55.44,60.6,80.91,80.91,0,0,1,55.23,42s.11-.1,0,.21a69.74,69.74,0,0,1,2-10.44h0a70.3,70.3,0,0,1,4.71-14l-.41-.2c-1.13,1.64-2.26,3.27-3.28,5-.51.82-.92,1.74-1.43,2.56a20.6,20.6,0,0,0-1.33,2.56,74.87,74.87,0,0,0-8.8,31.21h-.1c-.11,2.15-.11,4.29-.11,6.44s.11,4.3.41,6.35.52,4.19.92,6.34.93,4.2,1.54,6.24a57.7,57.7,0,0,0,5.12,12.59,108.37,108.37,0,0,0,7.26,11.56,40.93,40.93,0,0,0,6,6.86c.61.51,1.12,1.12,1.74,1.63s1.12,1,1.74,1.54a20.85,20.85,0,0,0,1.63,1.43c.52.41,1,.92,1.54,1.33a54.2,54.2,0,0,0,13.3,8.7,88.36,88.36,0,0,0,15,5.22,103.44,103.44,0,0,0,28.75,4.7c4.51-.3,9.62-.41,14.43-2h-.2c1.84-.41,3.68-1.74,4.81-2.05l-.21.1c.92-.3,1.74-1.53,2.25-1.63v-.11c-.2-.41-.2-.41-.1-.41s.1,0-.1-.41-.21-.1-.41-.71c.31-.31-1.23-2.56-.82-2.87.2.62-.2-1,.41.31-.1-.41-.92-2.15-1-1.94-.21-.11-.72-.72-.31.41l.2.2c0,.41.11.31,0,.51a14.35,14.35,0,0,1,.82,2.76h0a11.49,11.49,0,0,1,.62,1.13,1.46,1.46,0,0,1,.2.61c0,.11.1.21.1.31v.1l-.1.11h-.1v.1l-.21.2c-.2.21-.41.41-.3.21a29.28,29.28,0,0,1-9.31,3.78c-.41.21-2.56.51-1.85.51-.92,0-3.48.21-4.4.31a.39.39,0,0,1,.21-.1c-1.84-.1-2.15.41-4,.2-.31.31-3.17-.1-4.2.21-.2-.1-.3-.1-.2-.21h-1.23c-.41,0-.82-.1-1.23-.1a20.23,20.23,0,0,0-2.45-.2c-1.64-.11-3.07-.41-4.4-.62-1.13-.1-2.56-.3-3.79-.51a17.29,17.29,0,0,0-3.58-.61,28.5,28.5,0,0,1-3-.82c-1.12-.31-2.25-.72-3.37-.92h.2c-1.23-.31-2.66-.72-3.89-1.13s-2.45-.71-3.37-.92a13.21,13.21,0,0,0-2.66-1.23c-.82-.2-2-.71-3.38-1.12s-2.66-1.13-3.89-1.64c-.31-.31-1.94-.92-1.94-1.12A59.8,59.8,0,0,1,75.6,122.3a70.23,70.23,0,0,1-8.91-8.39l.11.1c-.72-.72-1.74-1.43-2.46-2.05-.1-.1,0-.1.1.1-1-1-1.63-2.25-2.55-3.27l.2.1c-.92-1-1.53-2.35-2.56-3.48v-.1c-.2-.31-.41-.51-.61-.82.1,0,.2,0,.41.41A74.73,74.73,0,0,1,46.84,70.11c0,.1.11.31.11.41-.11-.82-.21-1.64-.31-2.45a.35.35,0,0,1,.1.2c0-.82-.1-1.53-.1-2.35V63.56a34.94,34.94,0,0,1,.1-4.6s.1.51.1.1V57.53c.11-.41.11-.82.21-1.23a6.55,6.55,0,0,0,.1-1.95c0-.1.1-.2.1.11A69.53,69.53,0,0,1,52,36.24c1.64-5,4.6-10,7.37-14.73v.1c.61-1,1.33-2.15,2-3.17l-.1-.1a83.89,83.89,0,0,0-5.63,17.09c-.3,1.43-.51,2.76-.71,4s-.31,2.55-.51,4.09l-.11.1c-.3,5.12-.92,10.85,0,16.17l-.1-.31c.1.41.21,1.23.31,1.84s.2,1.13.31,1l.1.92c.2.92.41,1.74.61,2.55s.41,1.64.62,2.56.4,1.74.61,2.66a29.61,29.61,0,0,0,1.12,3l-.2-.2c.2.51.41,1.12.61,1.74a8.93,8.93,0,0,1,.62,1.53.85.85,0,0,1-.21-.31c.31.92.72,1.74,1,2.66.2.41.41.92.61,1.33s.51.82.72,1.33c.51.82,1,1.74,1.53,2.56l.41.62.41.61a8.76,8.76,0,0,1,.82,1.23l-.41-.31c.61.72,1.33,1.84,2.15,3.07s1.84,2.25,2.66,3.17l-.1-.1.92.92-.11.1c.52.62,1.13,1.23,1.64,1.74s1.13,1.13,1.74,1.64L74.37,99A2.55,2.55,0,0,1,76.93,99.68Z"/><path class="cls-2" d="M151.62,132.22c0-.1-.1-.31-.1-.41A2.44,2.44,0,0,1,151.62,132.22Z"/><path class="cls-7" d="M148.86,121.78s8.7,4.4,4.19,12.39C153.05,134.06,148.55,127.92,148.86,121.78Z"/><polygon class="cls-2" points="148.14 121.68 148.14 121.78 148.25 121.78 148.14 121.68"/><path class="cls-2" d="M148.45,122h0l-.21-.21C148,121.89,148.55,121.89,148.45,122Z"/><path class="cls-2" d="M148.35,122c-.11.1.1.1.1.1S148.55,122,148.35,122Z"/><path class="cls-2" d="M149.88,127.62h.1c-.3-.11-.1-.41-.3-.62h0a10.86,10.86,0,0,0-.62-1.63h.11a.11.11,0,0,1-.11-.11h.11c.2-.2-.21-.3,0-.41H149a9.75,9.75,0,0,0-.41-1.43h.1a1.8,1.8,0,0,1-.2-1.23h-.21c-.1.11.21.21,0,.41h-.1c0,.11.21,0,.1.11h-.1a.74.74,0,0,0,.21.61c-.21.1,0,.2-.11.31.11,0,.11.1.21.1a5.78,5.78,0,0,0,.41,1.94c.41.21.1.72.31,1h0a.52.52,0,0,1,.2.41l.2.1a10.77,10.77,0,0,0,.72,2.56,5.12,5.12,0,0,0,1.33,2.55h-.1c.2.21.2.52.41.72h0a3,3,0,0,1,.71.92,1.05,1.05,0,0,0,.41.51l.11.1s.1.11.1,0,.1-.3.1-.4c.21-.41.41-.82.61-1.23s.21-.82.31-1.23h.1a3.06,3.06,0,0,1,.21-.92,1.47,1.47,0,0,0,.1-.92,1.9,1.9,0,0,0-.2-1,1.67,1.67,0,0,1-.31-1c.1-.51-.61-.82-.51-1.23a1.38,1.38,0,0,0-.41-1.12,3.91,3.91,0,0,0-1-.72c-.31-.71-1.23-.82-1.54-1.53-.41,0-.41-.62-.72-.82v.1c0-.31-.41.1-.3-.2h0c0-.21-.41.3-.31.1l-.1.1c-.1,0,0-.1,0-.2l-.1.1c.2-.31-.21,0,0-.41,0,0,0-.21.1-.21s-.21-.1-.21.11-.2.3-.2.41l.1-.11c0,.11,0,.11-.1.21.1.1,0,.2,0,.41h0c.1-.1.1,0,.2,0v.1c-.1.1.31-.2.11,0l.61.31c.1-.11.2.1.2-.11-.1.21,0,.41.11.41h0c-.11.31.3-.1.2.21.21-.21.1.2.41,0a.1.1,0,0,1-.1.1c.2.21.31.41.41.51.3,0,.2.31.51.21a.56.56,0,0,0,.31.41h0a.85.85,0,0,0,.51.3c-.21.21-.1.21-.1.41.2,0,.3.21.51.31-.11.1.1.1,0,.2a.94.94,0,0,1,.61.62,2.89,2.89,0,0,1,.1.92H154c.11.1-.1.2,0,.31h-.1c.1.1-.1.2.1.3h0l.11.11H154c.11.4.21.81.31,1.22,0,.21.1.41.1.62a2,2,0,0,1-.1.71h-.1l.1.21h-.1c-.1.2,0,.51-.1.71,0,0-.11-.1-.11,0s-.3.21,0,.41h-.1a2.05,2.05,0,0,1-.1.72c-.1.2-.1.31-.2.41,0,.31,0,.51-.11.61s-.1.11-.1.21h-.1v-.1c-.1,0-.31-.21-.41-.52a2.6,2.6,0,0,0-.41-.71c-.1-.21-.2-.31-.31-.51h.11c-.52-.21-.11-.82-.62-1h.1c-.2,0,0-.2-.3-.1v-.1c-.51-.1-.11-.51-.41-.72h.1c-.1-.1-.2-.1-.1-.2h.1c.1-.41-.31-.51-.41-.82h.1c-.2-.1-.2-.41-.3-.51h.1l-.1-.11h.1A13.2,13.2,0,0,1,149.88,127.62Z"/><path class="cls-4" d="M41.42,35.22s-3.27,4.09-11,5.22-10.54,13.71-11,16.47S13.28,103.26,44.69,132s62,38.47,82.68,28.24C127.37,160.26,11.13,143.48,41.42,35.22Z"/><polygon class="cls-2" points="40.81 35.02 40.7 35.22 40.7 35.73 40.81 35.02"/><path class="cls-2" d="M40.3,38.09c0-.11.1,0,.1-.11l.1-1.84C40.19,37,40.5,37.68,40.3,38.09Z"/><path class="cls-2" d="M40.09,38.6a4,4,0,0,0-.2,1.12C39.89,39.52,40.3,38.49,40.09,38.6Z"/><path class="cls-2" d="M41.42,99.68c0-.1-.1-.1-.1-.2A.31.31,0,0,1,41.42,99.68Z"/><path class="cls-2" d="M49.2,113.91l.2.1c-.41-.62-.92-1.23-1.33-1.84A21.09,21.09,0,0,1,47,110a22.23,22.23,0,0,1-1.13-2.15,22.23,22.23,0,0,1-1.13-2.15l.11.2c-.82-1.84-1.64-3.68-2.46-5.42C41.73,98.66,41,96.82,40.4,95a13.85,13.85,0,0,1-.82-2.77c-.21-.92-.51-1.84-.72-2.86s-.51-1.84-.71-2.87-.31-1.94-.52-3c0,.1.11.2.11.3-.11-.41-.21-.82-.31-1.22,0-.11.1.1.1.2A21.42,21.42,0,0,0,37,79.63c-.1-1.13-.2-2.25-.2-2.76s-.11-.72-.21-.41c-.1-1.54-.2-3.18-.41-4.81V66.74c-.1-3.28.31-6.55.51-9.73.11-.3.11-.3.21-.3,0-.72.1-1.33.1-2.05a14.37,14.37,0,0,1,.31-2c.2-1.34.41-2.77.71-4.2s.41-2.76.82-4.2.72-2.76,1-4.09c0-.2-.21.51-.21,0-.51,1.74-.61,3.28-1.12,4.81v-.2c-.31,1.12.1.3-.21,1.43-.1.51-.1-.1-.1.1-.41,2.46-.92,5.12-1.13,7.47-.3.51-.3,2.66-.51,3.58a7.61,7.61,0,0,0,0,1.54,92,92,0,0,0,1,26.91c.21,1,.52,2.15.82,3.27s.51,2.25.82,3.48a24.1,24.1,0,0,0,1,3.58c.4,1.23.81,2.36,1.22,3.58h0a29.22,29.22,0,0,0,1.23,2.66c.41.92.92,2,1.23,2.87l.82,1.43c.71,1.33,1.33,2.56,2,3.89.31.61.72,1.33,1,1.94l1.22,1.85c.82,1.22,1.64,2.55,2.46,3.68l2.76,3.48.72.92.72.82,1.53,1.63c1,1.13,2,2.26,3.07,3.28l3.27,3.07L67,134.06A112.05,112.05,0,0,0,83.17,145a108,108,0,0,0,17.5,7.88s.1.1-.31,0c1.84.61,3.48,1.23,5.22,1.84s3.37,1.13,5.11,1.64h0c2.66.72,5.43,1.43,8.19,2.15,1.33.31,2.76.61,4.19.92l2.05.41a7,7,0,0,0,1.43.2h-.1l-.2.11-.41.2-.41.2c-.11.11-.21.11-.51.21-.82.31-1.64.61-2.36.92a23.36,23.36,0,0,1-2.45.72l-2.46.61a51,51,0,0,1-16.27.1,73.68,73.68,0,0,1-16.17-4.6h0c-8.28-3.17-15.55-7.88-22.81-12.79-3.69-2.66-7.47-5.42-11-8.39A90.74,90.74,0,0,1,41,128a19.27,19.27,0,0,0-1.43-1.64c-.51-.51-1-1.13-1.54-1.74-1-1.13-2-2.46-3.07-3.68a47.59,47.59,0,0,1-4.91-7.58A108,108,0,0,1,19.73,82.8a122.76,122.76,0,0,1-1.13-15c0-2.46.11-5,.31-7.47a22,22,0,0,1,.51-3.68c.31-1.23.62-2.36,1-3.59a25.05,25.05,0,0,1,2.77-6.65,13.51,13.51,0,0,1,1.12-1.53,18.18,18.18,0,0,1,1.23-1.43A8,8,0,0,1,27,42.18a8.16,8.16,0,0,1,1.64-.92h-.2a20.22,20.22,0,0,1,2.76-.82A7.48,7.48,0,0,1,33.54,40l-.2.1c1-.1,2-1,2.66-1.12l.1-.11c1-.51.2,0,1-.3.31-.21.11-.21.72-.51.2.1.82-.21,1.33-.62s1.13-.82,1.33-.71c-.51.4.92-.52-.21.51a4,4,0,0,0,1-.92c.41-.41.61-.82.51-.82,0-.31.31-.92-.51-.11l-.1.31c-.41.21-.31.21-.41.21a8,8,0,0,1-2.46,1.43h0a6.61,6.61,0,0,1-2.05,1.12h-.2c-.41,0-1.54.93-1.23.52a15.77,15.77,0,0,1-2.35.71c-.82.21-1.64.31-2.56.51a9.4,9.4,0,0,0-4.71,2.87c-.1.2-.61.72-.92,1.23s-.51.71-.2.51a7.61,7.61,0,0,0-1.43,1.84,21.6,21.6,0,0,0-1.13,2,.32.32,0,0,1,.1-.21c-1,1.64-.61,2.25-1.53,3.89.1.31-1,3.17-.92,4.3-.11.2-.21.3-.21.2a67.9,67.9,0,0,0-.92,9.62c.21,2.35-.1,5.73.41,7.78A42.85,42.85,0,0,0,19,81.06l-.1-.2a53.55,53.55,0,0,0,1.43,7.57,11.42,11.42,0,0,0,.31,3.07c.51,1.74,1.43,5.11,2.35,7.67,0,.41.82,2,.62,2.25a119.88,119.88,0,0,0,5.21,11.16,100.1,100.1,0,0,0,6.66,10.74l-.11-.1a26.25,26.25,0,0,0,2.46,2.25c.1.1,0,.1-.1-.1A19,19,0,0,1,39.07,127a20.94,20.94,0,0,0,1.43,1.64l-.21-.1c1,.92,1.85,2.15,3.18,3.17v.1l.82.62c-.11,0-.21.1-.52-.31A156.6,156.6,0,0,0,75,154.63l-.41-.2c.72.4,1.54.71,2.25,1.12a.31.31,0,0,1-.2-.1c2.76,1.53,5.93,2.76,8.8,4,0,0-.51-.1-.1.1,2.25.72,3.37,1.54,4.6,1.54.1.1.1.2-.1.1A67.26,67.26,0,0,0,109,164.66c5.43-.21,11.46-.82,16.58-3.38v.1a5.82,5.82,0,0,1,1.12-.51l.52-.31.3-.1.11-.1s.1,0,0-.1c-.93-.1-2-.31-2.77-.41a21.34,21.34,0,0,1-2.45-.51c-1.64-.41-3.28-.72-4.91-1.23-3.28-.92-6.55-1.84-9.72-2.87-1.44-.51-2.67-.92-3.89-1.33s-2.46-.81-3.89-1.43v-.1A29.26,29.26,0,0,1,96.16,151c-1.23-.62-2.45-1.13-3.78-1.74-2.46-1.23-5-2.56-7.47-3.69l.41.11c-.82-.21-2.87-1.64-2.77-1.23l-.81-.62a27.38,27.38,0,0,1-4.61-2.66c-1.43-1-3.07-2.15-4.91-3.37l.31.1c-1-.72-2.15-1.54-2.87-2,.1.11.1,0,.31.21-1.43-1.23-3-2.56-4.61-3.79s-3.07-2.66-4.6-4l.41.21c-1.54-1.13-3.79-4-5.63-5.73l.1.1-.92-.92.1-.11c-1-1.33-2-2.55-3.07-3.78C50.94,116.57,50.12,115.24,49.2,113.91Z"/><path class="cls-2" d="M37.84,37.37c.1-.1.2-.1.31-.21S37.94,37.37,37.84,37.37Z"/><path class="cls-3" d="M52,12.61s-5.83,7.77-6.55,11.66A36.14,36.14,0,0,1,40,37.78c-3.48,5.83-23.13,36.63,4.4,77.35s75.51,43.49,82.88,45.13c0,0-1.64-5.43,2.66-8.6,0,0-43.18-21.59-55.05-32.43S29.65,72.06,61.58,17.83Z"/><polygon class="cls-2" points="51.65 13.22 51.76 13.32 52.27 13.43 51.65 13.22"/><path class="cls-2" d="M54.62,14.55c-.1-.1,0-.1-.1-.1l-1.84-.61C53.39,14.35,54.11,14.14,54.62,14.55Z"/><path class="cls-2" d="M55.13,14.86a4.11,4.11,0,0,0,1.13.51C56,15.27,55,14.55,55.13,14.86Z"/><path class="cls-2" d="M53.8,89.55l.21.11a57.73,57.73,0,0,1-3.38-9.52l.1.2a65.38,65.38,0,0,1-2.15-12.17,72,72,0,0,1-.1-12.38v.3a5.92,5.92,0,0,1,0-1.33v.31c.21-.92.31-2.15.51-3.38a12.26,12.26,0,0,1,.51-2.86c.11-.51,0-.72-.1-.51a96.52,96.52,0,0,1,6.14-19.55c.21-.3.21-.3.21-.2.51-1.33,1.12-2.66,1.74-4,.3-.72.61-1.33.92-2l1.12-1.94,1.13-1.95.3-.51-.1-.1-.41-.2c-1.33-.72-2.56-1.44-3.89-2.15-.2,0,.52.3-.1.2.82.51,1.64.82,2.36,1.23a5.32,5.32,0,0,0,1.12.51c.31.21.92.51.82.51h-.1c.1,0,.1,0,.1.1h0c0,.11,0,0-.21.31s0-.2-.1,0c-.61,1.13-1.33,2.36-1.94,3.58s-1.13,2.46-1.64,3.58c-.2.21-.51.93-.92,1.54A10.1,10.1,0,0,1,55,29.08a11.43,11.43,0,0,0-.51,1.54,31,31,0,0,0-1.33,3.27c-.41,1.13-.82,2.25-1.23,3.27C51.24,39.42,50.53,41.67,50,44a72.83,72.83,0,0,0-2.15,14.12c0,4.5-.21,9.93.71,15.14h0c.11.82.41,2,.62,3s.51,2.25.71,3.17l.62,1.64C53.6,93.13,60.45,104.29,69,113.7c1.22,1.33,2.45,2.66,3.68,3.89l1.84,1.84c.61.62,1.33,1.13,1.94,1.74a16.62,16.62,0,0,0,2,1.54c.72.51,1.33,1,2.05,1.53,1.43.92,2.76,1.94,4.19,2.87,5.63,3.68,11.36,7,17.5,10.23,0,0,.1.1-.31-.1,3.58,1.94,6.76,3.78,10,5.52h0c4.2,2.15,8.49,4.4,12.89,6.65,1.13.51,2.15,1.13,3.28,1.64l1.33.72c.2,0,0,.1-.1.2l-.21.2-.61.62a7.83,7.83,0,0,0-1.64,3.17,9.69,9.69,0,0,0,0,3.48,3.31,3.31,0,0,0,.2.82c-2.55-.41-5.21-.82-8-1.33s-5.62-1-8.39-1.64A147.18,147.18,0,0,1,94,152.58v-.1A108.91,108.91,0,0,1,69.46,140C61.68,134.47,53.7,128,48,120.15c-3.48-4.91-8.19-11.16-10.34-16.48A95,95,0,0,1,32,87.51c-.41-1.33-.62-2.77-.92-4.2s-.52-2.76-.72-4.19a60.66,60.66,0,0,1-.61-8.6,68.16,68.16,0,0,1,2.35-15.76,58.34,58.34,0,0,1,6.14-14.42c1.12-2.15,2.56-4.3,3.78-6.65a31.48,31.48,0,0,0,3-7.47l-.1.2a14.93,14.93,0,0,0,.61-3,5.19,5.19,0,0,1,1-2.25l-.11.21c.62-.82.72-2.36,1.23-2.77v-.2c.62-1.13.21-.1.72-.92.2-.31-.1-.21.41-.82.41.1,1.64-2.56,2-2.46-.4.52.72-.81-.1.52A8,8,0,0,0,52,12.81c0-.2.31-1-.51-.1V13c-.41.3-.21.2-.41.3a27.35,27.35,0,0,1-2,2.36h0a20.6,20.6,0,0,1-1.33,2.25l-.2.2c-.31.31-.72,1.84-.72,1.23a19.1,19.1,0,0,0-2.05,5.12,31.33,31.33,0,0,1-1.43,5.42c-.1.51-1.12,2.66-.61,1.94-.51.82-1.84,3.28-2.35,4.1a.32.32,0,0,1,.1-.21c-1.23,1.64-1,2.15-2.25,3.69.1.4-1.74,3-1.95,4.09-.1.2-.2.2-.2.1A76,76,0,0,0,32.11,53c-.51,2.46-1.64,5.84-1.74,8a33.75,33.75,0,0,0-.92,7.06v-.21a41.84,41.84,0,0,0,.2,8.19,8.91,8.91,0,0,0,0,3.27c.21.92.41,2.35.62,3.79s.61,3.17,1,4.5c0,.41.61,2.25.51,2.45a116.58,116.58,0,0,0,11.05,23.85l-.1-.11a30,30,0,0,0,2.35,2.66c0,.11,0,.11-.1-.1.92,1.23,1.54,2.56,2.56,3.69l-.2-.21c1,1.13,1.73,2.46,3,3.68v.11l.82.82c-.1,0-.2.1-.51-.41,8.7,10.23,20.16,18.31,32.44,24.14l-.52-.2A23.28,23.28,0,0,0,85,149a.84.84,0,0,1-.31-.1,84.22,84.22,0,0,0,9.42,3.79s-.52-.11-.11.1c2.36.61,3.69,1.43,4.92,1.53.1.11.1.21-.11.11a172.43,172.43,0,0,0,20,4.6c1.33.1,2.76.31,4.09.51l2.15.31,1,.2a5.58,5.58,0,0,0,1.33.21,13.23,13.23,0,0,1-.31-1.43c0-.41-.1-.82-.1-1.13a7.79,7.79,0,0,1,.31-2.25,7.28,7.28,0,0,1,.92-2l.31-.51.41-.41a3.45,3.45,0,0,1,.92-.82h.1l.1-.1s.1,0,0-.1l-.2-.1-.41-.21-.72-.31-1.33-.61c-.82-.41-1.74-.82-2.56-1.33l-5.22-2.76c-3.47-1.84-7-3.79-10.43-5.63-2.87-1.54-4.81-2.66-7.68-4.2v-.1c-5-2.45-9.92-6-15-8.9l.41.1c-.82-.3-3-1.94-2.76-1.53l-.82-.62c-.82-.51-1.64-.92-2.46-1.43s-1.43-1.12-2.25-1.74c-.41-.31-.71-.61-1.12-.92a10.41,10.41,0,0,1-1.13-1c-.82-.72-1.63-1.33-2.56-2.15l.31.2a33.4,33.4,0,0,1-2.66-2.55c.1.1.1,0,.31.2-2.66-3.07-5.73-6.24-8.29-9.62l.41.31a74.06,74.06,0,0,1-4.81-7l.1.1c-.3-.41-.51-.71-.82-1.12l.11-.1Q56,94.16,53.8,89.55Z"/><path class="cls-2" d="M48.89,16l.31-.3C49.09,15.68,49,15.88,48.89,16Z"/><path class="cls-7" d="M130,151.56s-4.4,2.35-2.66,8.6C127.37,160.26,132.18,159,130,151.56Z"/><path class="cls-2" d="M129.42,151.77l-.1.1Z"/><path class="cls-2" d="M129.62,151.87h-.2C129.21,152,129.72,151.87,129.62,151.87Z"/><path class="cls-2" d="M129.62,151.87c-.1.1.1,0,.1,0S129.72,151.87,129.62,151.87Z"/><path class="cls-2" d="M130.65,155.76h.1c-.21-.21,0-.31,0-.52h0c.1-.41-.21-.81-.31-1.22h.1a.1.1,0,0,1-.1-.11h.1c.21-.1-.2-.2,0-.3h-.2a3.56,3.56,0,0,0-.41-.92h.1c-.41-.21-.31-.52-.31-.82h-.2c-.1.1.2.1.1.2h-.1c0,.1.2,0,.1,0h-.1c.1.1,0,.31.2.31-.2.1,0,.1-.1.2.1,0,.1.11.21,0a8.18,8.18,0,0,0,.3,1.33c.31.21,0,.52.11.72h0a.38.38,0,0,1,.1.31l.1.1c-.31.61-.2,1.23-.51,1.74s-.72.92-.82,1.64h0c-.1.2-.31.2-.31.41h0a2.22,2.22,0,0,1-.41.51,1.8,1.8,0,0,0-.51.41c-.1,0-.2.1-.3.1s-.11,0-.11-.1v-.21a1.9,1.9,0,0,1-.2-.71h.1c-.2-.41.1-.93,0-1.33.1-.41-.31-.93-.1-1.44.41-.2-.21-.71.2-.92.62-.41.51-.92.62-1.64.41-.3.41-1,1-1.22,0-.31.51-.11.72-.31l-.11-.1c.21.1,0-.41.21-.1h0c.1.1-.1-.41,0-.31v-.1c0-.11.1.1.1.1s-.1-.1,0-.1c.21.3.1-.11.31.2a.35.35,0,0,1,.1.21s.1,0,0-.21-.1-.31-.2-.41l.1.1-.1-.1c-.11,0-.21-.1-.31-.2h0c0,.2,0,.1-.1.1l-.11-.1c-.1-.11.11.3,0,.1a1.57,1.57,0,0,1-.4.41c0,.1-.11.1,0,.2-.21-.1-.31-.1-.41,0h0c-.31-.1.1.31-.21.11.21.2-.2.1,0,.3l-.1-.1c-.1.1-.31.2-.41.31.1.2-.31.2-.1.51a.32.32,0,0,0-.31.31h0a.46.46,0,0,0,0,.51c-.31-.11-.31,0-.41,0,.1.1,0,.3,0,.51-.1,0,0,.1-.2.1.2.51-.11.92-.41,1.33h0c.1.1.3.21.41.31h0c0,.1-.21.1-.21.2h-.1c.1.1-.21.1,0,.21h-.1l.1.1h-.1a11.87,11.87,0,0,0,.2,2h-.1l.1.1h-.1c-.1.2.1.31.1.51h-.1c.2.1-.21.31.2.31H127a1.48,1.48,0,0,1,.21.61c0,.1.1.21.1.31v.2c0,.1,0,.21.1.1.31-.2.41-.3.61-.4s.41-.11.41-.31v.1c.21-.41.62-.41.93-.72.1-.1.1-.2.2-.4h.1c-.1-.41.62-.31.41-.72l.1.1c-.1-.1.11-.1-.1-.31h.1c-.3-.3.31-.2.21-.61h.1v-.2h0c.31-.11.1-.41.21-.62l.1.1c-.1-.1,0-.3,0-.41h.1l-.1-.1h.1C130.75,156.16,130.65,156,130.65,155.76Z"/><path class="cls-7" d="M175.46,96.2a11.61,11.61,0,0,0,6.35,10.34A13.61,13.61,0,0,0,175.46,96.2Z"/><polygon class="cls-2" points="175.05 96.72 175.05 96.82 175.16 96.72 175.05 96.72"/><path class="cls-2" d="M175.36,96.72c0-.11.1-.11,0,0l-.2.1C175.16,96.92,175.46,96.51,175.36,96.72Z"/><path class="cls-2" d="M175.36,96.72c0,.1.1,0,.1-.11C175.46,96.72,175.46,96.61,175.36,96.72Z"/><path class="cls-2" d="M179.45,99.89h0c-.2-.1-.1-.41-.3-.51h0a6.12,6.12,0,0,0-1.23-1h.1c.1-.2-.31-.1-.31-.3a.1.1,0,0,0-.1.1,4.19,4.19,0,0,0-1.12-.62.1.1,0,0,1,.1-.1,1.15,1.15,0,0,1-.92-.51c-.11.1,0,.1-.11.1s.31,0,.31.11l-.1.1c0,.1.1-.1.1,0a.1.1,0,0,1-.1.1.6.6,0,0,0,.51.2c-.1.11.1.11.1.31.11,0,.11,0,.21-.1.41.41.92.72,1.33,1.12.41,0,.41.52.61.62h0c.1,0,.31.1.31.2h.2c.21.82.82,1.33,1.13,2a5.3,5.3,0,0,0,1.12,2.25h-.1c.1.21.1.51.21.72h0a.75.75,0,0,1,.2.41c0,.1.1.2.1.3a1.71,1.71,0,0,0,.21.82v.21c0,.1,0,0-.1,0l-.11-.11c-.1-.1-.3-.1-.41-.2-.3-.1-.51-.31-.92-.51h0a1.06,1.06,0,0,1-.61-.51c-.2-.21-.31-.52-.61-.62a4.59,4.59,0,0,0-.72-.61,1.36,1.36,0,0,1-.61-.72c0-.51-.82-.51-.72-1,.1-.82-.51-1.33-1-2,0-.71-.72-1.22-.41-1.94-.31-.31.2-.72.1-1h-.1c.2-.1-.41-.21,0-.31h0c.2-.1-.41-.1-.21-.2h-.1c0-.11.1,0,.1-.11s-.2,0-.1-.1c.41,0-.1-.2.31-.2,0,0,.2-.11.2,0s0-.11-.1-.11-.31-.1-.51,0h-.1c0,.11-.21.11-.31.21h0c.2.1.1.1,0,.2h-.1c-.21,0,.3.11,0,.11a1.75,1.75,0,0,1,.1.71c.1,0,0,.21.2.1a.38.38,0,0,0-.2.31h0c-.31.21.31.1,0,.31.2,0,0,.2.31.2h-.11v.72c.21.1,0,.41.31.41a.52.52,0,0,0,.1.51h0c.1.2.21.41.41.41-.2.2-.2.2-.2.31.2.1.2.3.41.41-.11.1.1.1-.11.2a2.06,2.06,0,0,1,.82,1.54h0c.1,0,.41-.11.51-.11h0c.11.11,0,.21.11.31h-.11c.11,0,0,.2.21.2h.1c-.1,0-.1.11-.1.11.2.41.61.61.92.92a3.72,3.72,0,0,1,1,.82h0c.11.2.41.2.51.3l-.1.11c.21,0,.1.3.31.1a.1.1,0,0,1-.1.1,11.31,11.31,0,0,1,1.63.82c0-.1.11-.1.21-.1V106a1.35,1.35,0,0,0-.21-.82l.11.1a4.86,4.86,0,0,1-.31-1.53c0-.21-.1-.31-.21-.52h.11c-.41-.2,0-.81-.41-1h.1c-.2,0,0-.2-.31-.1l.11-.1c-.41-.11,0-.51-.41-.62h.1c-.1,0-.21-.1-.1-.2h.1c.1-.41-.31-.51-.41-.72h.1c-.2,0-.2-.31-.31-.41h0l.11-.1A.6.6,0,0,1,179.45,99.89Z"/><path class="cls-2" d="M174.85,96.51h0C174.85,96.41,175,96.41,174.85,96.51Z"/><path class="cls-3" d="M30,116.67S71.3,98.05,94.63,76.87c0,0,13.2,5.11,14.22,10.13,0,0-18.21,18.62-68.25,40.92,0,0-3.37,1.23-3.58-2.86,0,0-4.5-.82-3.68-5.42C33.34,119.74,29.45,120.05,30,116.67Z"/><polygon class="cls-2" points="29.35 116.57 29.24 116.67 29.35 116.98 29.35 116.57"/><path class="cls-2" d="M29.76,118.41v-.1a3.33,3.33,0,0,1-.52-1,.5.5,0,0,0,.21.62C29.55,118.1,29.76,118.2,29.76,118.41Z"/><path class="cls-2" d="M29.86,118.72c.2.4.41.4.51.51C30.17,119.12,29.86,118.51,29.86,118.72Z"/><path class="cls-2" d="M61.17,118v-.1a43.31,43.31,0,0,1-4.3,2.25l.1-.1c-3.68,1.73-6.95,3.58-10.54,5.32a.11.11,0,0,0,.11-.11c-.21.11-.31.31-.51.31s0-.1.1-.1c-.82.2-2.25,1.12-2.77,1.23-.2.1-.3.2-.1.2l-1.84.92a10.76,10.76,0,0,1-1,.41,4,4,0,0,1-1.13.1,2.33,2.33,0,0,1-1.94-1.12c-.1-.21-.21-.31-.31-.51s-.1-.31-.2-.52a4.71,4.71,0,0,0-.11-.51.37.37,0,0,0-.1-.3h-.2a1,1,0,0,0-.31-.11c-.2-.1-.51-.2-.72-.3a.34.34,0,0,1-.1-.21,4.83,4.83,0,0,1-2.25-2,9,9,0,0,1-.41-1.54v-1h-.2c-.21,0-.52-.1-.72-.1a3.25,3.25,0,0,1-1.33-.62c-.2,0,.2.31-.1.1a1.84,1.84,0,0,0,1.33.52,1.31,1.31,0,0,1,.61.1c.21,0,.21,0,.21.1s-.11,0-.11.1h.11c.1,0,.2-.1.1.1s-.1,0-.1.11v.71a3.76,3.76,0,0,0,.2,1A3.47,3.47,0,0,0,33.75,124c0,.2.3.41.61.71a6.66,6.66,0,0,1,.92.62,4.82,4.82,0,0,0,.82.2l.2.1a1.59,1.59,0,0,0,.11.51c.1.31.1.62.2.82a2.46,2.46,0,0,0,1.23,1.44,2.94,2.94,0,0,0,1.84.3,1.65,1.65,0,0,0,.92-.3l.72-.31c1.94-.92,3.89-1.84,5.93-2.76,1.84-1.13,4.2-2,6.45-3.18h0c.72-.41,1.74-1,2.66-1.43l.72-.51c2.66-1.23,5.32-2.56,8-3.89s5.32-2.86,7.88-4.3c5.93-3.27,11.25-6.14,16.57-10.13,0,0,.1,0-.1.11,1.53-1.13,3.07-2,4.5-3.07h0c3.48-2.77,7.57-5.43,10.75-8.39,1-.82,2-1.74,3.07-2.66l.81-.72.11-.1v-.21l-.11-.3c-.1-.21-.1-.31-.2-.52a11.35,11.35,0,0,0-1.23-1.74,29.31,29.31,0,0,0-7-4.8h0c-1-.52-2-.93-3-1.44l-1.54-.71-.71-.31c-.21-.1-.62-.41-.82-.1L89,81.16c-3.68,2.77-7.16,6-11,8.5a35.62,35.62,0,0,0-3.89,2.66,29.34,29.34,0,0,1-3.78,2.45c-4.92,2.56-9.32,5.53-13.92,8.49-4.5,2.36-8.7,5.12-13.3,7.06-2,1.23-4.5,2-6.76,3.18h.11c-.92.2-1.74,1.22-2.36,1.12l.11-.1c-.52,0-.82.92-1.23.82v.1c-.51.31-.1-.1-.51.1-.11.11,0,.21-.31.31-.21-.31-1.33.72-1.54.31.31-.11-.51.1.11-.31-.21,0-1.13.51-.92.61,0,.21-.31.52.3.41l.11-.2c.2,0,.2,0,.3.1a4.68,4.68,0,0,1,1.43-.31h0a6.26,6.26,0,0,1,1.13-.61h.1c.21.1.72-.72.62-.31l4.7-2.35c.21-.2,1.23-.61.82-.61a5.65,5.65,0,0,0,2.15-.82.1.1,0,0,1-.1.1c1-.21.92-.72,1.84-.82,0-.31,1.53-.72,1.84-1.23.1,0,.21,0,.21.11l4.29-2.15c.92-.72,2.56-1.23,3.28-2a17.19,17.19,0,0,0,3-1.53l-.11.1a16.63,16.63,0,0,0,3.28-2.15c.51.1.92-.31,1.53-.51.72-.62,2.25-1.44,3.38-2.25.2,0,.92-.62,1.12-.52,1.54-1.12,3.28-2.25,5.12-3.37s3.68-2.25,5.42-3.17h0c.41-.41.72-.92,1.13-1.33.1,0,.1,0,0,.1.61-.41,1.23-.72,1.84-1.13l-.1.1c.51-.51,1.23-.71,1.84-1.22h.1l.41-.41c0,.1.1.1-.2.3Q84.35,86,88.18,82.9c1.23-1,2.56-2,3.69-3.17l1.84-1.64.92-.82.1-.1h.2l.41.21h-.2l1.23.41h-.1c1.43.71,3,1.22,4.29,2,0,0-.3,0-.1.11,1.13.4,1.54,1.12,2.15,1a.1.1,0,0,1-.1.1,21.33,21.33,0,0,1,4,2.66A8.31,8.31,0,0,1,108,85.46a3.05,3.05,0,0,1,.51,1c0,.11.11.21,0,.31l-.3.31c-1.74,2-4.2,3.78-6.24,5.73v-.1a87.36,87.36,0,0,1-9,6.65c-1.33.81-2.15,1.53-3.48,2.35h-.1c-2,1.64-4.81,2.76-7,4.5l.1-.2c-.3.41-1.43.82-1.12,1l-.51.21c-1.44,1.33-3,1.63-4.91,3l.1-.1c-.51.31-1.13.72-1.54.92.11,0,0,0,.11-.1-1.74.71-3.48,2-5.22,3l.1-.21c-.82.62-2.46,1.33-3.48,2v-.1l-.51.4-.1-.1A32,32,0,0,0,61.17,118Z"/><path class="cls-2" d="M32.21,116.36c-.1,0-.1,0-.2.1C32,116.36,32.11,116.36,32.21,116.36Z"/><path class="cls-3" d="M33.34,119.74s8.18-3.58,10.43-5.53"/><path class="cls-2" d="M43.47,113.7l-.11-.1Z"/><path class="cls-2" d="M43.47,113.91h0l-.11-.21C43.26,113.6,43.57,114,43.47,113.91Z"/><path class="cls-2" d="M43.47,113.91c-.11,0,0,.1,0,.1S43.57,114,43.47,113.91Z"/><path class="cls-2" d="M41.83,115.65h0c0-.11.2,0,.31-.11h0c.2-.1.3-.41.51-.61v.1c.1.1.1-.2.2-.1a.1.1,0,0,0-.1-.1c.1-.11.31-.31.31-.51l.1.1c0-.31.1-.31.31-.41,0-.1-.11-.1-.11-.1s0,.2-.1.1v-.1c-.1,0,.1.2,0,.1l-.1-.1c0,.1-.1.1-.1.2-.1-.1-.1,0-.21-.1,0,.1,0,.1.11.2-.31.11-.41.41-.62.51.1.31-.31.11-.31.31h0c0,.1,0,.21-.1.21v.1c-.41-.1-.71.31-1,.41s-.82.1-1,.61v-.1c-.11.1-.21.1-.31.2h0c-.1.41-.51.21-.62.62a4,4,0,0,0-.92.51v-.1c-.2.2-.61,0-.81.3-.31,0-.41.62-.72.52s-.21.51-.51.3c-.51-.3-.72.11-.82.51-.31,0-.41.52-.92.31,0,.31-.41-.1-.51,0v.1c-.11-.2,0,.41-.21,0h0c-.1-.2.1.41,0,.21v.1a.1.1,0,0,0-.1-.1s.1.1,0,.1c-.1-.31,0,.1-.21-.31a.35.35,0,0,1-.1-.2s-.1,0,0,.2.1.31.21.41v-.1c.1.1,0,.1.1.1s.1.21.2.21h0c0-.21,0-.1.11-.1v.1c.1.1-.11-.31,0,0,.1-.1.2-.1.3-.21s.11,0,0-.2c.11.2.21.2.21.2h0c.2.21,0-.3.1,0-.1-.2.1,0,0-.2l.1.1h.31c0-.2.2,0,.1-.31.1,0,.21.11.21,0h0c.1,0,.2-.1.1-.3.1.3.1.2.2.3,0-.1.11-.2.11-.3.1.1,0-.11.1.1.1-.41.41-.41.71-.31h0a4.15,4.15,0,0,1-.1-.51h0c0-.1.1.1.21.1v.11c0-.11.1.1.1-.11h0v-.1c0,.1.1.1,0,.1.41-.1.61-.61,1-.71v.1c.1.1.1-.21.21-.21s0,.11.1.11c0-.21.2.2.1-.21a.1.1,0,0,0,.1.1.58.58,0,0,1,.52-.3c0-.41.3-.21.3-.51v.1c.1-.31.41-.21.62-.31s.1-.1.2-.2v.1c0-.31.41.1.41-.31v.1c-.1-.2.1,0,0-.2l.1.1c-.1-.41.31.1.31-.2v.1c0-.1,0-.1.1-.1h0c.21.2.21-.11.31-.21l.1.1c0-.2.1-.1.21-.2v0l.1.1C41.73,115.85,41.73,115.75,41.83,115.65Z"/><path class="cls-3" d="M37,125.06a121.6,121.6,0,0,0,12.59-6.55"/><polygon class="cls-2" points="49.2 117.9 49.2 117.9 49.3 118 49.2 117.9"/><path class="cls-2" d="M49.3,118.2h0l-.1-.2C49.09,117.79,49.3,118.31,49.3,118.2Z"/><path class="cls-2" d="M49.2,118.2c-.11,0,0,.11,0,.11S49.3,118.31,49.2,118.2Z"/><path class="cls-2" d="M47.05,120.15h0c0-.1.31,0,.31-.1h0c.3-.11.4-.41.61-.62v.1c.1.11.1-.2.2-.1a.1.1,0,0,0-.1-.1c.21-.21.41-.31.51-.61l.11.1c0-.41.3-.41.4-.41a.1.1,0,0,0-.1-.1c-.1,0,0,.2-.1.1v-.1c-.1,0,.1.2,0,.1a.1.1,0,0,0-.1-.1c-.1.1-.21.1-.21.3-.1-.1-.1,0-.2-.1v.21c-.31.1-.51.4-.82.51,0,.41-.31.1-.41.3h0a.35.35,0,0,1-.1.21v.1c-.51,0-.82.41-1.23.51s-.92.21-1.23.82v-.1c-.1.1-.3.1-.3.2h0c-.21.41-.62.31-.82.72-.31.2-.72.41-1,.61v-.1c-.2.31-.71.1-.92.31-.41,0-.41.61-.82.61-.3-.2-.3.51-.61.31-.61-.31-.82.2-1,.61-.41,0-.51.62-1,.41-.1.31-.41-.1-.61,0v.1c-.2-.2,0,.41-.2.11h0c-.11-.11.1.41,0,.2v.1a.1.1,0,0,0-.11-.1s.11.1,0,.1c-.2-.3-.1.11-.2-.3a.39.39,0,0,1-.1-.21s-.11,0,0,.21.1.3.2.41v-.11c.1.11,0,.11.1.11s.11.2.21.2h0c0-.2,0-.1.1-.1v.1c.1.1-.1-.31,0-.1.1-.1.2-.21.31-.21s.1,0,0-.2c.1.2.2.2.3.2h0c.21.21,0-.3.21,0-.1-.2.1,0,.1-.3l.1.1a.61.61,0,0,0,.41-.1c0-.21.21,0,.21-.31.1,0,.2.1.2,0h0c.1-.1.21-.1.21-.31.1.21.2.21.2.21s.1-.21.21-.31c.1.1,0-.1.1.1.1-.51.41-.51.82-.41h0a3.82,3.82,0,0,1-.11-.51h0c0-.1.21.1.21,0v.1c0-.1.2.11.1-.1h0v-.1c0,.1.1.1,0,.1.41-.1.72-.71,1.23-.82v.11c.2,0,.2-.21.31-.21a.1.1,0,0,0,.1.1c0-.2.2.11.1-.2l.1.1a2.22,2.22,0,0,1,.62-.41c0-.41.41-.2.41-.51v.1c.1-.3.51-.2.71-.41.1,0,.1-.1.21-.2v.1c0-.41.51.1.51-.31V121c-.1-.21.1,0,0-.31l.1.1c-.1-.41.31,0,.31-.31v.11c0-.11,0-.11.1-.11h0c.31.21.21-.2.41-.2v.1c0-.2.2-.1.2-.2v0l.11.1A.41.41,0,0,0,47.05,120.15Z"/><path class="cls-8" d="M60,116.26s-8.39,21.28-6.44,33.36c0,0,4.29-2.05,5.52-4.61,0,0,2.25,5.12,4.5,7.06,0,0-.1-25,8.09-43C71.61,109,70.68,100.81,60,116.26Z"/><polygon class="cls-2" points="60.55 116.67 60.66 116.57 60.66 116.46 60.55 116.67"/><path class="cls-2" d="M60.86,115.75h0l-.1.61C61.07,116.26,60.76,115.85,60.86,115.75Z"/><path class="cls-2" d="M61,115.65a.23.23,0,0,0,.11-.31C61.17,115.44,60.86,115.65,61,115.65Z"/><path class="cls-2" d="M69.25,115.24h0c.21-.82.72-1.64.92-2.56v.1c.41-1.13.82-2.15,1.23-3.17.1-.31.31-.51.1-.82s-.2-.51-.3-.82A2,2,0,0,0,70,107h-.21a.1.1,0,0,1,.11-.1c-.52-.21-1.33.41-1.64.41-.1.1-.1.2,0,.2a12.66,12.66,0,0,0-3.89,3.89h-.2a27.9,27.9,0,0,1-2.87,3.89c0,.1.21-.11.1.1.41-.41.41-.92.82-1.23v.1c.21-.2-.1-.2.21-.41.1-.1.1.11.1,0a17.32,17.32,0,0,0,1.23-1.74c.2,0,.51-.61.82-.71.1-.21.2-.31.2-.41a8.37,8.37,0,0,1,1.33-1.33l.72-.72.71-.61a2.9,2.9,0,0,1,.72-.51,1.92,1.92,0,0,1,.82-.41,1.38,1.38,0,0,1,1.43.1c.51.1.82.82.82,1.43v.1a.39.39,0,0,0-.1.21l-.21.51a4.54,4.54,0,0,0-.41,1h0a5.13,5.13,0,0,1-.61,1.64v.51a62.53,62.53,0,0,0-3.17,9.93c-.92,3.78-1.85,7.16-2,11.05,0,0-.1,0,0-.1-.1,1.12-.3,2-.41,3.17h0c0,2.56-.61,5.32-.51,7.88-.1,1.12-.1,2.35-.2,3.58v3.48c0,.2-.11,0-.11,0l-.2-.21a1.58,1.58,0,0,0-.41-.41,7.58,7.58,0,0,1-.72-.92h.11a22.3,22.3,0,0,1-1.64-2.66c-.21-.41-.41-.92-.61-1.43a15.16,15.16,0,0,0-.82-1.74c-.21.31-.31.51-.51.82s-.41.51-.52.72a25.18,25.18,0,0,1-3.07,2.55,3.29,3.29,0,0,1-.81.51l-.41.31a.35.35,0,0,0-.21.1v-.2a14.23,14.23,0,0,1-.2-2.05,11.51,11.51,0,0,0-.11-2.66,11.08,11.08,0,0,1,.11-2.66A70.42,70.42,0,0,0,55,132.63c.82-2.76,1.12-5.73,2.35-8.39.21-1.33,1.13-2.56,1.54-4h-.1c.4-.41.1-1.23.51-1.43v.1c.3-.2-.21-.72.1-.82l-.1-.1c.1-.31.1,0,.2-.21s-.1-.1,0-.3c.41.1.21-.82.62-.72-.11.21.2-.2.2.21.1-.11.31-.62.1-.62s-.2-.41-.51-.1l.1.1c-.2.1-.1.1-.2.1-.21.41-.41.41-.62.72h0c.11.31-.1.51-.2.72h-.1c-.21,0,.1.61-.1.41-.21.92-.62,1.94-.93,2.86,0,.21-.3.72,0,.61a3.64,3.64,0,0,0-.71,1.13v-.1c-.41.41.1.71-.41,1.12.2.11-.31.92-.21,1.23-.1,0-.1.1-.2,0-.31.92-.61,1.84-.92,2.66,0,.72-.51,1.54-.41,2.25a4.79,4.79,0,0,0-.51,1.84v-.1a9.41,9.41,0,0,0-.31,2.25c-.31.21-.31.52-.51.82,0,.51-.21,1.54-.21,2.36-.1.1,0,.61-.2.61a59.46,59.46,0,0,1-.72,7.26h0a4.35,4.35,0,0,0,.52.93h0c0,.4-.11.81-.11,1.22l-.1-.1c.1.41-.1.82.1,1.33h0l.11.51c-.11,0-.21.1-.21-.2l.1.92.11.41v.3h.1a7.41,7.41,0,0,0,1.53-.81l.31-.21.2-.1.41-.31a5.29,5.29,0,0,0,.82-.61A20.94,20.94,0,0,0,58.1,147a1.33,1.33,0,0,1,.41-.41l.2-.21.11-.1h0a.78.78,0,0,0,.2-.41,3.63,3.63,0,0,1,.41.72l.72,1.33-.11-.11.41.62h-.1a18.25,18.25,0,0,0,1.53,2.35s-.2-.1-.1.1c.51.41,1,1.54,1.23,1.33,0,.11.1.21,0,.21l.51.41.21.2.1.11h.1v-3.28c0-.82.1-1.53.1-2.35-.3-1.54.21-3.28,0-4.91h.11a45.39,45.39,0,0,1,.61-6.45,15.35,15.35,0,0,1,.31-2.35h.1c-.1-1.54.72-3.07.72-4.71l.1.1c-.1-.3.2-.92-.1-.92l.1-.31c-.21-1.12.61-1.84.61-3.27l.1.1a3.78,3.78,0,0,1,.21-1v.1a18.34,18.34,0,0,0,.82-3.38l.1.21c0-.61.41-1.54.51-2.25v-.31h.1C68.84,117.08,69,116.16,69.25,115.24Z"/><path class="cls-2" d="M59,117.18a.1.1,0,0,1,.1-.1A.1.1,0,0,0,59,117.18Z"/><path class="cls-8" d="M78,104.7s25.89,6.55,40.11,19.34a27.47,27.47,0,0,0-2.66-7.58s3.89-2.14,6.55-1.53A107.19,107.19,0,0,0,90.74,100C90.84,100,77.34,100.81,78,104.7Z"/><polygon class="cls-2" points="78.67 104.59 78.67 104.49 78.56 104.49 78.67 104.59"/><path class="cls-2" d="M78.46,104h0c0,.21.1.31.1.41C78.77,104.29,78.26,104.08,78.46,104Z"/><path class="cls-2" d="M78.56,103.88a.19.19,0,0,0,0-.31C78.67,103.78,78.36,103.88,78.56,103.88Z"/><path class="cls-2" d="M99,102.75h0c-.82-.2-1.64-.71-2.56-.92h.1c-1.12-.41-2.15-.71-3.17-1-.51-.1-1-.31-1.64-.41l-.82-.21c-.1,0-.2-.1-.4,0h-.41l.1-.1c-.1,0-.21.1-.31.1a.1.1,0,0,1,.1-.1c-.51-.1-1.43.21-1.74.1-.1,0-.2.11-.1.21a23.1,23.1,0,0,0-5.32,1.23c-.1,0-.1,0-.1-.1l-2.15.92a4.59,4.59,0,0,0-1.84,1.12c0,.1.2,0,.1.1.31-.2.51-.71.92-.81v.1c.31-.1,0-.21.31-.31.1,0,0,.1.1.1a9.88,9.88,0,0,0,1.84-.92c.21.1.72-.2,1-.1.2-.1.3-.1.4-.31,1.23-.2,2.46-.51,3.69-.71L89,100.4l.92-.1h.92a6.48,6.48,0,0,1,1.84.41c.62.2,1.33.51,2,.71h0a11.46,11.46,0,0,1,1.64.51h.51c3.07,1.44,6.24,2.46,9.31,4.1,3.48,1.74,6.34,3.48,9.72,5,0,0,0,.1-.1,0,.92.51,1.74,1.13,2.66,1.64h0c.31.2.72.41,1,.61l.51.31.41.2.72.52.31.2a.61.61,0,0,1-.41-.1,2.86,2.86,0,0,0-.92.1c-.11,0-.41.1-.62.1s-.41.1-.61.21a9,9,0,0,0-2.15.82,3,3,0,0,0-1.13.61,11.49,11.49,0,0,0,.62,1.13,34.34,34.34,0,0,1,1.74,4.5h-.1a9.69,9.69,0,0,1,.4,1.63v.11l-.1-.11-.2-.1-.31-.3-.61-.62-1.33-1.23c-.52-.41-1-.71-1.54-1.12a9.16,9.16,0,0,0-1.64-1.13,14.2,14.2,0,0,1-1.73-1c-1.13-.72-2.36-1.23-3.48-2-1.23-1.12-3.48-1.43-4.61-2.45a28.53,28.53,0,0,0-8.49-3.68c-2.56-1.23-5.42-1.85-8-3.07-1.33-.21-2.56-1.13-4-1.54v.1c-.41-.41-1.23,0-1.44-.41h.11c-.21-.3-.72.21-.82,0l-.1.11c-.31-.11,0-.11-.21-.21s-.1.1-.31,0c.11-.41-.81-.1-.71-.51.2,0-.21-.2.2-.2-.1-.11-.61-.21-.61,0s-.31.3,0,.51l.1-.11c.1.21.1.11.1.21.41.1.41.31.72.51h0c.2-.1.51.1.72.1v.11c.1.2.61-.21.41.1.92.2,1.84.51,2.86.82.21-.11.72.2.61,0a2.15,2.15,0,0,0,1.13.61h-.1c.41.41.71-.1,1,.41.21-.2.82.41,1.23.2v.21c.82.31,1.74.72,2.56,1,.71,0,1.43.62,2.15.62a6.77,6.77,0,0,0,1.73.71h-.1a6.27,6.27,0,0,0,2.15.62c.1.3.41.41.72.61.51.1,1.43.51,2.15.72,0,.2.61.2.51.41a25.09,25.09,0,0,1,3.27,1.22,22.09,22.09,0,0,1,3.07,1.85h1s0,.1-.11,0c.41.2.62.51,1,.71h-.11c.41.1.62.51,1.13.62v.1l.31.1c0,.1-.11.1-.21,0a16.55,16.55,0,0,1,2.25,1.43c.72.51,1.54.92,2.36,1.44s1.53,1,2.25,1.53a16.24,16.24,0,0,1,2.45,2h-.1a7.86,7.86,0,0,0,.72.41v.1c.3.2.51.41.82.61-.11-.3-.11-.61-.21-1a9.89,9.89,0,0,0-.51-1.84s.1.2.1,0a.4.4,0,0,1-.1-.31c0-.1,0-.1-.1-.2a.57.57,0,0,0-.11-.41.58.58,0,0,0-.3-.52s.1-.1.1,0c-.31-.81-.72-1.73-1.13-2.55l-.51-1.13c0-.1-.2-.31,0-.31l.41-.2a6.9,6.9,0,0,1,2.15-1c.41-.11.82-.21,1.13-.31s1-.1,1.33-.21l.2.11h.82s.31,0,0-.11l-.61-.4-1.23-.93c-.82-.61-1.64-1.12-2.46-1.63s-1.33-.72-2-1.23v-.1c-1.44-.51-2.56-1.84-4.1-2.25h.11c-.31,0-.82-.52-.82-.21l-.21-.2c-1.12-.11-1.64-1-2.86-1.44h.1a2.49,2.49,0,0,1-.92-.4h.1a14,14,0,0,0-3.07-1.44l.21-.1c-.52-.1-1.44-.61-2.15-.82h.1l-.41-.1v-.1A11.74,11.74,0,0,1,99,102.75Z"/><path class="cls-2" d="M79,105.52a.1.1,0,0,1-.1-.11A.1.1,0,0,0,79,105.52Z"/><path class="cls-8" d="M65.88,97.94S49,86.48,33,97a20.43,20.43,0,0,0-2.76,13.92s9.92-16.17,39.6-3.38C70,107.56,69.46,99.89,65.88,97.94Z"/><path class="cls-2" d="M66.28,98.76h0a.92.92,0,0,0-.51-.1C65.77,99,66.28,98.56,66.28,98.76Z"/><path class="cls-2" d="M66.39,98.86c.1.21.2.11.3.11C66.49,99.07,66.39,98.76,66.39,98.86Z"/><path class="cls-2" d="M59.43,104.08h0c.72.11,1.53.62,2.46.72h-.11c1,.31,2,.61,3.07.82a30.66,30.66,0,0,1,3,1h.1a1.15,1.15,0,0,0,.82.31c.31.1.51.1.61.2s.11-.1,0-.2c.41.3.21-.31.21-.51a4.89,4.89,0,0,0-.21-1.13,15.93,15.93,0,0,0-.71-2.45c0-.11,0-.11.1-.11-.72-1.23-1.23-2.66-2-3.78-.1,0,0,.1-.1.1.21.41.72.51.72.92h-.1c.1.31.2,0,.3.31,0,.1-.1,0-.1.1a14.62,14.62,0,0,0,.92,1.74c-.1.2.21.72.1.92.11.1.11.31.31.31a11.22,11.22,0,0,0,.41,1.74,7,7,0,0,1,.2,1.43v.31h-.1l-.3-.11-1.64-.61a5.93,5.93,0,0,1-1.74-.61c-.31-.11-.62-.31-.92-.41a10,10,0,0,0-1-.31h0a4.42,4.42,0,0,1-1.53-.41h-.51a21.13,21.13,0,0,0-2.25-.82c-.82-.2-1.54-.31-2.36-.51a36.87,36.87,0,0,0-4.81-.72c-3.58-.3-7.06-.51-10.43.82l.1-.1A24.69,24.69,0,0,0,39,104h0c-2.14,1.13-4.6,2.15-6.13,4a13.42,13.42,0,0,0-1.33,1.23,15.68,15.68,0,0,0-1.13,1.33l-.1.1v-.41l-.1-.51a4,4,0,0,1-.11-1.23,11,11,0,0,1,0-2.56h.11a20.31,20.31,0,0,1,1.94-6.75c.31-.51.51-1.12.82-1.64l.2-.4c0-.11.21-.11.31-.21l.82-.51c.51-.31,1-.72,1.53-1a8.47,8.47,0,0,1,1.74-.72c1.43-.41,3.17-1.54,4.71-1.54,3-.1,5.73-.51,8.7-.51a29.76,29.76,0,0,1,7.88,1.84,7.15,7.15,0,0,1,1.84.72c.61.31,1.12.72,1.84,1v-.1c.31.41,1.12.21,1.23.62h-.11c.11.3.72-.11.82.2l.11-.1c.3.1,0,.1.2.31.1,0,.1-.11.2,0-.1.3.72.3.52.71-.11-.1.1.31-.21.1.1.11.51.31.62.21s.4-.1.2-.41l-.1.1v-.2c-.31-.21-.31-.41-.51-.72h0a.85.85,0,0,1-.62-.31v-.1c0-.2-.61,0-.3-.1-.82-.41-1.74-.82-2.56-1.23-.21,0-.72-.31-.62,0-.1-.31-.82-.61-1-.72h.1c-.41-.51-.71,0-1-.51-.21.21-.82-.41-1.13-.2v-.21c-.81-.3-1.74-.61-2.45-.81-.72.1-1.54-.41-2.15-.21a3.39,3.39,0,0,0-1.84-.31H52c-.41,0-.72-.1-1.13-.1a3.21,3.21,0,0,0-1,.1c-.2-.3-.51-.3-.82-.41a2.63,2.63,0,0,1-1,.11,5.26,5.26,0,0,0-1.23.2c-.1-.1-.61.1-.61-.1a31.83,31.83,0,0,1-3.28.61c-.61.11-1.12.21-1.74.31l-1.74.31h0l-.71.71v-.1c-.31.21-.72.1-1.13.31v-.1c-.3.2-.82.2-1.12.51h0l-.21.2c0-.1-.1-.2.1-.2a16.72,16.72,0,0,0-2.25,1.22l-1.22.72-.21.41-.2.31-.31.61a29,29,0,0,0-1.74,5v.51a7.23,7.23,0,0,0-.31,2.55s-.1-.1-.1,0c.1.62-.31,1,.1,1.33H30a12.76,12.76,0,0,0,.2,2,6.14,6.14,0,0,0,.21,1.33l.1.72v.51h0l.62-.92.61-.82.2-.41.21-.21c.1-.1.2-.3.31-.41a6.19,6.19,0,0,1,.81-.81c.52-.52,1.23-.93,1.74-1.54v.1a16.61,16.61,0,0,1,5.32-2.66c.82-.2,1.34-.51,2.15-.71v.1a7.27,7.27,0,0,1,2.15-.51,5.63,5.63,0,0,0,2.25-.31l-.1.1c.21-.2.92,0,.82-.3l.31.1c1-.41,1.84.2,3.07-.1l-.11.1c.31,0,.72-.1.92,0h-.1a11.42,11.42,0,0,0,3.17.31l-.1.1a9.26,9.26,0,0,1,2.15.3l-.1.11h.31v.1A7,7,0,0,0,59.43,104.08Z"/><path class="cls-2" d="M65.16,96.82c.1,0,.1.1,0,0C65.26,96.92,65.26,96.82,65.16,96.82Z"/><path class="cls-4" d="M30.37,110.94s2.25,12.28,14.43,10.74,23.63-11.05,25.27-14.22a49.89,49.89,0,0,0-7.57-2.76S39.78,121.48,35.9,106C35.69,106.13,30,109.51,30.37,110.94Z"/><path class="cls-2" d="M30.88,110.43h0a.19.19,0,0,0,.1.3C31.19,110.84,30.78,110.53,30.88,110.43Z"/><path class="cls-2" d="M31,110.43a.37.37,0,0,0,.11-.31C31.09,110.22,30.88,110.32,31,110.43Z"/><path class="cls-2" d="M45.62,112.37v-.1a6.11,6.11,0,0,1-2.36.2h.1a8.33,8.33,0,0,1-5.42-2H38c-.1,0-.2-.11-.3-.21h.1a2.75,2.75,0,0,0-.51-.61c-.21-.21-.41-.41-.41-.62s-.21-.1-.21,0a10.28,10.28,0,0,1-.61-1.12,1.5,1.5,0,0,1-.2-.62l-.21-.51-.1-.3c-.1,0-.21.1-.31.2-.31.21-.51.41-.82.62-.1,0-.1,0-.1-.11-.92,1-2.25,1.74-3.07,2.77,0,.1.1,0,.1.1.31-.21.41-.72.82-.82v.1c.21-.1-.1-.2.21-.31.1,0,0,.11.1.11A15.65,15.65,0,0,0,34,107.87c.21.1.51-.41.82-.41.1-.1.2-.2.2-.31l.31-.2.1-.1.11-.11v.11l.1.41c.1.3.2.51.31.81A8.41,8.41,0,0,0,38,110.94l1.54.92c.31.1.61.31.92.41l.92.31h0c.41,0,1,.1,1.54.1l.4-.1a13.58,13.58,0,0,0,4.51-.41,40.65,40.65,0,0,0,4.29-1.44c3.18-1.33,6-2.55,8.6-4.81V106c.31-.21.51-.41.82-.62a5.39,5.39,0,0,1,.71-.41l.21.11.41.1h0c2.25.41,4.4,1.53,6.44,2.15.11.1.21.1.41.2a5.58,5.58,0,0,0-.41.72c-.2.2-.4.51-.61.71-.41.52-.92.93-1.33,1.44-.92.92-2,1.84-3,2.66V113a53.65,53.65,0,0,1-5.62,3.58c-2,1-4,2.55-6.25,3.17a12,12,0,0,0-2.25.82,6.25,6.25,0,0,1-2.25.61c-2.76.1-5.32.82-8.18.51l-.93-.3-.92-.31a9.6,9.6,0,0,1-1.74-.82,8.65,8.65,0,0,1-1.53-1.13,15.65,15.65,0,0,1-1.23-1.43c-.92-.71-1.23-2.15-1.84-3.27l-.1.1c0-.51-.72-.82-.51-1.23h0c.1-.3-.62-.41-.41-.61h-.11c-.1-.31.11-.1,0-.31s-.2,0-.2-.2c.31-.11-.31-.72.1-.82,0,.2.1-.31.31,0,0-.1-.1-.62-.31-.51s-.41-.21-.51.2h.1c-.1.1,0,.1-.1.1.1.41-.1.51-.1.82h0c.2.1.2.41.2.62l-.1.1c-.1.1.41.31.1.31.41.71.72,1.63,1.23,2.45.1.1.31.61.41.31-.1.3.31.92.41,1.12H32c0,.62.61.31.61.92.21-.1.51.72.92.72,0,.1,0,.1-.1.1.61.62,1.33,1.33,1.84,1.74.72.1,1.23.92,1.95.82a4.05,4.05,0,0,0,.71.41,3.44,3.44,0,0,0,.92.31h-.1c.72.1,1.54.41,2.05.2.2.31.51.31.82.41.51-.1,1.43-.1,2-.2.1.1.62-.11.62.1a54.48,54.48,0,0,1,6.24-1.33h0c.2-.21.41-.51.61-.72v.1c.31-.2.72-.1,1-.3v.1c.31-.2.72-.1,1-.41h0l.2-.2c0,.1,0,.2-.1.2,3.07-1.12,5.73-3.07,8.49-4.81l-.1.1.51-.41v.11a14,14,0,0,0,2-1.44s0,.11.1.11c.31-.51.92-.41.92-.92a.1.1,0,0,1,.1.1c1.23-1.13,2.46-2.25,3.58-3.48.11-.31.31-.51.41-.82a9.13,9.13,0,0,0,.62-1,12.64,12.64,0,0,0-2.56-1v-.1c-1.74-.51-3.48-1.33-5.43-1.74h-.1A17.32,17.32,0,0,1,60,105.72l-.1-.1c-.92,1-2.45,1.23-3.58,2.25v-.1c-.1.3-.72.3-.51.61h-.31c-.61.82-1.64.61-2.56,1.33v-.1a1.56,1.56,0,0,1-.82.41l.11-.1c-1,.1-1.85.81-2.87,1.12l.1-.2a20.61,20.61,0,0,1-1.94.71v-.1c-.1.1-.2.1-.31.2v-.1C47.15,112.06,46.43,112.27,45.62,112.37Z"/><path class="cls-8" d="M72.94,95.08s3.37-23.33,19.54-28.86c0,0,8.39.41,13.61,5.73,0,0-11.67-1.74-19.75,11.67S78,105.41,78,104.7,78.87,99.17,72.94,95.08Z"/><polygon class="cls-2" points="72.63 95.59 72.63 95.69 72.73 95.69 72.63 95.59"/><path class="cls-2" d="M73.45,95.9h0l-.62-.11C72.94,96.1,73.35,95.69,73.45,95.9Z"/><path class="cls-2" d="M73.55,96a.23.23,0,0,0,.31.1C73.75,96.2,73.55,95.9,73.55,96Z"/><path class="cls-2" d="M81.33,93.24h0c-.21.82-.82,1.63-1,2.45v-.1a36.36,36.36,0,0,0-1.74,6.55V102c0,.1.11.2,0,.41v-.11c-.3.41-.2,1.44-.3,1.74,0,.11.1.21.1.11v.4h0v.11l-.1.1H78c-.1-.1,0-.1,0-.1h0v-.82a6,6,0,0,0-.1-1.33A7.68,7.68,0,0,0,77,100c0-.1,0-.1.1-.1a31.15,31.15,0,0,0-3-3.58c-.1,0,.11.2-.1.1.31.41.82.41,1,.92H75c.21.31.21-.1.31.2,0,.11-.1,0-.1.11.51.51.82,1.12,1.33,1.53-.11.21.41.62.3.92.11.1.21.31.31.31a8.47,8.47,0,0,1,.51,3.58v.72h0s0,.1.21.2.41.1.51.1a.1.1,0,0,0,.1-.1h0a.1.1,0,0,1,.1-.1v-.1h0v-.31l.11-.92a11.05,11.05,0,0,1,.41-1.84c0-1.23.71-2.56,1.12-3.89h0a10.31,10.31,0,0,1,.51-1.64v-.51a94,94,0,0,1,4.5-9.11,57.14,57.14,0,0,1,6.45-8.9s.1,0,0,.1c.82-.71,1.54-1.33,2.35-1.94h0c1.95-1.64,4.61-2.56,6.86-3.38a21.24,21.24,0,0,1,5.32-.41h.1l-.2-.2-.51-.41c-.31-.31-.62-.51-.92-.82a12.87,12.87,0,0,0-2-1.23v-.1a24.89,24.89,0,0,0-7.06-2.76,6.24,6.24,0,0,0-1.94-.31c-.31,0-.72-.1-1-.1h-.3l-.21.1-.51.21c-1.23.51-2.35,1.22-3.58,1.84-1.64.61-2.87,2.45-4.09,3.27-2.66,1.84-4.2,4.61-5.43,7.47-1.53,2.46-2.25,5.32-3.48,7.78-.2,1.33-1.12,2.56-1.43,4h.1c-.41.41,0,1.23-.41,1.43V92c-.2.2.31.72,0,.82l.11.1c0,.31-.11,0-.21.31,0,.1.1.1.1.3-.4,0-.1.82-.51.82,0-.2-.2.31-.2-.2-.1.1-.1.71,0,.71s.31.31.51,0l-.1-.1c.1-.1.1-.1.2-.1.1-.41.31-.51.41-.72h0a.9.9,0,0,1,.1-.71l.11-.11c.2-.1-.21-.61,0-.4a28.75,28.75,0,0,1,.61-2.87c-.1-.2.2-.72,0-.61.31-.21.51-.92.61-1.13v.1c.41-.41-.1-.71.41-1.12-.2-.21.41-.82.21-1.23h.2c.31-.82.82-1.74,1.13-2.46,0-.71.71-1.43.71-2a6.4,6.4,0,0,0,.93-1.64v.1a12.62,12.62,0,0,0,.92-2c.41,0,.51-.31.71-.52a8,8,0,0,1,1.13-1.94c.2,0,.31-.51.51-.41A12.66,12.66,0,0,1,86.85,70h0a8.24,8.24,0,0,1,.51-.92v.1c.31-.31.72-.31,1.13-.61v.1c.31-.31.82-.31,1.12-.61h0l.21-.21c0,.1.1.21-.1.21a17.75,17.75,0,0,1,2.45-1.13l.51-.2h.52c.4,0,.92.1,1.33.1a19.06,19.06,0,0,1,5.32,1.33h-.11l.72.2h-.1a18.08,18.08,0,0,1,2.45,1.23s-.2,0-.1.1c.62.21.72.72,1.23.62a.1.1,0,0,1-.1.1l.92.61.3.31.21.1s.1.1,0,.1h-1.94c-1.54.41-3.28.52-4.71,1.33v-.1A33.68,33.68,0,0,0,93,75.84c-.72.51-1.12,1-1.84,1.64h-.1a13.74,13.74,0,0,1-1.64,1.74A8.52,8.52,0,0,0,88,81.16v-.1c0,.31-.62.72-.31.82l-.2.2c-.21,1.13-1.23,1.54-1.64,2.77v-.11a2.79,2.79,0,0,1-.51.93v-.11a11.05,11.05,0,0,0-1.64,3.07l-.1-.2c-.1.61-.72,1.43-.92,2.15v-.11l-.11.41h-.1A8.3,8.3,0,0,0,81.33,93.24Z"/><path class="cls-4" d="M78,104.7s13-3.38,21-9.31,16-12.79,7.16-23.44c0,0-2.87-1.22-7.37,1,0,0,5.32,6.44,1.54,10.23a56.7,56.7,0,0,1-20.06,13A62.06,62.06,0,0,0,78,104.7Z"/><polygon class="cls-2" points="78.67 104.8 78.67 104.8 78.56 104.59 78.67 104.8"/><path class="cls-2" d="M78.56,104h0l.11.51C78.87,104.29,78.46,104.08,78.56,104Z"/><path class="cls-2" d="M78.56,103.78c.11-.21,0-.31-.1-.31C78.67,103.57,78.46,103.78,78.56,103.78Z"/><path class="cls-2" d="M92,90.06V90c-.51.62-1.43.92-2.15,1.54v-.1c-1.84,1.12-3.58,2.25-5.53,3.27v-.1c-.1.1-.1.2-.3.2v-.1c-.52,0-1.23.61-1.54.61-.1.11-.1.21,0,.21a6.41,6.41,0,0,1-1.23.51l-.61.31-.31.1c-.1,0-.1,0-.2.1l-.21.51-.2.62c-.1.41-.21.82-.31,1.22,0,.11-.1.11-.2,0a30.89,30.89,0,0,1-.92,4.4c.1.11.1-.1.2,0,.21-.4,0-.92.21-1.33l.1.11c.1-.31-.21-.11,0-.41.1-.1.1.1.1,0a17.11,17.11,0,0,0,.41-1.95c.2-.1.2-.71.41-.92,0-.2.1-.3,0-.41.2-.51.41-1.12.61-1.63,0-.11,0-.11.11-.11l.3-.1.82-.31,3.38-1.53c.92-.82,2.25-1.13,3.37-1.84h0a13.38,13.38,0,0,1,1.33-.92l.31-.31A42.23,42.23,0,0,0,97.8,86c.72-.61,1.33-1.23,2-1.84A7.33,7.33,0,0,0,101.59,82a6.38,6.38,0,0,0,.3-2.76,10.7,10.7,0,0,0-.92-2.56h.1A21.1,21.1,0,0,0,99.64,74h0l-.2-.31-.21-.2-.3-.31a8.43,8.43,0,0,1,1-.51,7.69,7.69,0,0,1,1.43-.41,28.32,28.32,0,0,1,2.87-.41c.3,0,.71.1,1,.1a4.22,4.22,0,0,1,.51.11,1.32,1.32,0,0,1,.31.41c.41.61.92,1.22,1.33,1.84a16.6,16.6,0,0,1,1.94,4.09h-.1a3.21,3.21,0,0,1,.2.82c0,.31.11.61.11.92v.92l-.11.82a12.07,12.07,0,0,1-1,3.27,18.3,18.3,0,0,1-4.5,5.94c-1.33.82-2.46,2.56-3.79,3.17-2.66,1.43-4.81,3.17-7.36,4.81-2.56,1.12-4.81,2.56-7.47,3.17-1.13.62-2.56.62-3.89,1.13l.1.1c-.51-.1-.92.61-1.33.41h0c-.31-.1-.51.61-.72.41v.1c-.3.1-.1-.1-.3,0s0,.2-.21.2c-.1-.3-.71.31-.82-.1.21,0-.3-.1,0-.3-.1,0-.61.1-.51.3s-.2.41.21.41v-.1c.1.1.1,0,.2.1.41-.1.51.1.82.1h0a.87.87,0,0,1,.61-.2l.11.1c.1.1.41-.41.3-.1.82-.31,1.74-.61,2.66-.92.11-.1.72-.21.41-.31a2.47,2.47,0,0,0,1.23-.1v.1c.61.1.51-.51,1-.31,0-.3.82-.2,1-.61a.1.1,0,0,1,.1.1c.82-.3,1.74-.61,2.46-.92.51-.51,1.43-.51,1.84-1a4.36,4.36,0,0,0,1.63-.72v.1A5.39,5.39,0,0,0,94,99.07c.31.2.62,0,.92-.1a16.23,16.23,0,0,0,1.74-1.33c.21.1.52-.41.62-.21a44.42,44.42,0,0,1,5.42-4.09h0a3.72,3.72,0,0,1,.41-.92s.1,0,0,.1c.31-.31.72-.41.92-.72v.11c.21-.31.72-.41.92-.82h.1l.11-.21a.15.15,0,0,1,0,.21,16.4,16.4,0,0,0,3.17-4.2,12.79,12.79,0,0,0,1.53-5.11v.1a1.8,1.8,0,0,0-.1-.72.1.1,0,0,1,.1.11,5.92,5.92,0,0,0-.1-1.33c-.1-.41-.2-.82-.31-1.33,0,0,.11.1.11,0a1.22,1.22,0,0,1-.21-.82.58.58,0,0,0-.3-.52s.1-.1.1,0c-.21-.4-.41-.81-.62-1.22l-.71-1.13c-.41-.82-1-1.53-1.44-2.25-.1-.1-.3-.2-.4-.41l-.11-.1-.2-.1c-.1,0-.21-.11-.31-.11-.41-.1-.82-.1-1.23-.2a6.1,6.1,0,0,0-2.35.2v-.1a11.48,11.48,0,0,1-1.84.51l-.92.31c-.31.1-.62.31-.92.41.2.31.51.72.71,1s.41.62.62.92a18.23,18.23,0,0,1,1,2h-.1a4.74,4.74,0,0,1,.61,2.15,15.55,15.55,0,0,1-.1,2.15l-.1-.11c.1.11,0,.31-.11.51s-.1.31,0,.31l-.2.21a.64.64,0,0,1-.1.41c-.1.1-.1.2-.21.3a1.14,1.14,0,0,1-.51.51,3.89,3.89,0,0,0-1.12,1.13v-.1a2.44,2.44,0,0,1-.72.71v-.1a15.93,15.93,0,0,0-2.46,2.15V87c-.3.4-1.12.92-1.63,1.43v-.1l-.21.3-.1-.1A3.83,3.83,0,0,1,92,90.06Z"/><path class="cls-4" d="M65.88,97.94s2.14,8.91,5.73,11c0,0,4.91-1.53,6.34-4.29,0,0,2.56-3.58-4.91-9.62C72.94,95.08,69.15,94,65.88,97.94Z"/><polygon class="cls-2" points="66.39 98.35 66.49 98.35 66.39 98.25 66.39 98.35"/><path class="cls-2" d="M66.49,98.05h0v.3C66.69,98.35,66.28,97.94,66.49,98.05Z"/><path class="cls-2" d="M66.49,97.94c.1,0,0-.1,0-.2C66.59,97.94,66.39,97.84,66.49,97.94Z"/><path class="cls-2" d="M73.45,95.28h0A1.45,1.45,0,0,0,73,95a1.05,1.05,0,0,0-.51-.11h0a5.33,5.33,0,0,0-2.46.41v-.1l-.1.1v-.1c-.21-.1-.51.21-.62.21v.2a5.75,5.75,0,0,0-1.63,1.13.11.11,0,0,1-.11-.11,4.18,4.18,0,0,1-1.12,1.23c0,.1.1,0,.1.1.21-.1.1-.41.31-.41v.11c.1,0-.1-.21,0-.21a.1.1,0,0,1,.1.1c.21-.2.41-.3.51-.61.1.1.21-.2.41-.1,0-.1.1-.1,0-.21a9.82,9.82,0,0,1,2.36-1.12c.3-.41.92-.1,1.43-.21h0a.66.66,0,0,1,.61,0l.21-.1c.2.1.3.1.3.21l.31.3a4.19,4.19,0,0,0,.72.62,16.68,16.68,0,0,1,1.33,1.33c.92,1.12,1.43,2.15,2.35,3.17h-.1c.2.31.2.72.41,1h0a2.89,2.89,0,0,1,.3,1.33c0,.41-.1.92-.1,1.33,0,.1-.1.1-.1.21h0a7.8,7.8,0,0,1-2.15,2.35V107a20.76,20.76,0,0,1-2.45,1.23,5.31,5.31,0,0,0-1.34.61c-.1.1-.2.1-.3.2s-.21-.1-.31-.2a1.25,1.25,0,0,1-.51-.51c-.1-.31-.41-.51-.72-.72s-.61-.41-.61-.71a6.73,6.73,0,0,0-1.74-3c-.31-1-1-1.84-1-3-.41-.41,0-1-.31-1.53h-.1c.2-.21-.41-.31-.11-.52h0c.11-.1-.51-.1-.3-.2h-.1c-.11-.1.1,0,.1-.1s-.21,0-.1-.1c.3-.11-.21-.31.2-.41,0,.1.1-.11.2,0,0-.11,0-.21-.2-.21a.78.78,0,0,0-.51.1h.1c-.1.11-.1,0-.1.11s-.21.2-.21.41h0c.21,0,.11.2.11.2h-.11c-.1.1.31.1.11.1a4.91,4.91,0,0,1,.41,1c.1,0,.1.3.2.1-.2.2-.2.41-.1.51h0c-.21.31.3.1,0,.41.2-.1,0,.31.3.41l-.1.1c.1.31.1.72.21,1,.3.21.1.62.51.72a1,1,0,0,0,.2.72h0c.11.2.31.61.52.61-.21.2-.11.31-.21.41.21.1.31.51.61.72-.1.1.21.2,0,.3a5.9,5.9,0,0,1,1.54,2.25h.61c.11.11.11.31.21.41h-.1c.2,0,.1.31.4.31h.11l-.11.1.21.21.31.3c.1,0,.1.11.2.11l.21-.11.4-.2a4.29,4.29,0,0,0,.93-.51c.61-.31,1.22-.72,1.84-1v.11l.2-.21v.1c.31-.1.51-.4.82-.61a.1.1,0,0,0,.1.1c.11-.3.51-.1.31-.41l.1.11,1.54-1.54a1.53,1.53,0,0,1,.2-.72h0a2.23,2.23,0,0,0,.31-1.12h.1a8.45,8.45,0,0,0-.31-2.35,2.74,2.74,0,0,0-.41-.82h.11c-.51-.41-.31-1.23-.92-1.54H77c-.21,0-.21-.3-.41-.1v-.1c-.51-.1-.31-.72-.82-.92h.1c-.1-.11-.3-.11-.3-.21h.1c-.1-.51-.62-.61-.92-.92l.1-.1c-.31,0-.41-.41-.72-.51h-.1l.1-.11A8.1,8.1,0,0,1,73.45,95.28Z"/></svg>