<svg id="Layer_1" data-name="Layer 1" xmlns="http://www.w3.org/2000/svg" viewBox="0 0 200 170"><defs><style>.cls-1{fill:#eab9c5;}.cls-2{fill:#d97294;}.cls-3{fill:#f3dadf;}.cls-4{fill:#f8e9ec;}.cls-5{fill:#e299ad;}.cls-6{fill:#f5e1e5;}.cls-7{fill:#db7c99;}</style></defs><title>Artboard 12</title><path class="cls-1" d="M67.05,51.76c-13.8-4-36.62-.28-52.42,2.88S1.7,67.28,1.7,67.28V86a9,9,0,0,0,6.73,8.62c4.89,1.44,19.94,2.2,27.12,10.82s20.87,17.9,42.7,13,24.42-12.64,24.42-18.1V84.23C104.21,62,80.84,55.79,67.05,51.76Z"/><polygon class="cls-2" points="66.86 52.41 66.98 52.48 67.34 52.48 66.86 52.41"/><path class="cls-2" d="M69.11,52.82c-.06,0,0-.06-.08-.09l-1.37-.09C68.19,53,68.76,52.6,69.11,52.82Z"/><path class="cls-2" d="M69.48,53a1.37,1.37,0,0,0,.85.13C70.12,53.14,69.41,52.78,69.48,53Z"/><path class="cls-2" d="M102.21,79.64l0-.15A.61.61,0,0,0,102.21,79.64Z"/><path class="cls-2" d="M102.75,91.5l.11.13c-.2-2.23,0-4.73-.09-7.08l0,.16a23.18,23.18,0,0,0-4.55-16.37c.06.07.11.07.17.14a5.83,5.83,0,0,1-.62-.68c0-.08.09,0,.16.12a22.56,22.56,0,0,0-3-3.28c-.27-.23-.43-.28-.33-.1a40.37,40.37,0,0,0-12.18-7.16c-.2-.11-.22-.18-.13-.21-3.81-1.29-7.76-2.7-11.69-3.92-.18,0,.38.2,0,.16,1.24.47,2.38.52,3.48,1l-.17,0c.81.31.23-.13,1.06.24.31.17-.12.07,0,.12,1.77.55,3.56,1.25,5.24,1.71.35.31,1.84.75,2.41,1.17a6.56,6.56,0,0,0,1.1.32,49.45,49.45,0,0,1,8.42,4.86,28.89,28.89,0,0,1,3.7,3.2,21.74,21.74,0,0,1,3,3.85,13.76,13.76,0,0,1,2.23,4.43,27.87,27.87,0,0,1,1.07,5.29s0,0,0,0a18.67,18.67,0,0,1,.15,4.35c0,.41.08.82.12,1.23-.13,4.33-.15,8.71-.16,13.11,0,1.1,0,2.21-.06,3.27a11.54,11.54,0,0,1-.69,3.13,12.89,12.89,0,0,1-3.8,5.1,25.63,25.63,0,0,1-6.09,3.76c-1.06.52-2.17.9-3.24,1.35s-2.19.76-3.29,1.11a91,91,0,0,1-13.69,3.17s-.07,0,.18-.08a48.56,48.56,0,0,1-8,.21l0,0a36.61,36.61,0,0,1-9.85-1.73,45.12,45.12,0,0,1-9-4.07,41.35,41.35,0,0,1-9.06-7.94,21.35,21.35,0,0,0-4.72-4.12,31.13,31.13,0,0,0-5.56-2.73l0,0A72.8,72.8,0,0,0,16.27,96c-1.57-.35-3.15-.65-4.72-1a20.86,20.86,0,0,1-4.63-1.26,9.07,9.07,0,0,1-5.13-8c-.09-3.45-.17-6.91-.07-10.29a66.15,66.15,0,0,0,0-6.89l0-.9c0-.14,0-.3,0-.43s-.07-.29-.1-.43a7.33,7.33,0,0,1-.13-1.74A7.15,7.15,0,0,1,2.29,62a11.78,11.78,0,0,1,4.19-4.14,24.24,24.24,0,0,1,5.4-2.34l2.86-.75,2.92-.66,5.87-1.29c7.35-1.11,14.68-2.56,21.92-2.66,3.4-.43,7.19,0,11,.13l-.13-.08a8,8,0,0,0,2.13.09,4.13,4.13,0,0,1,1.74.25H60c.69.26,1.72-.24,2.13.07l.12-.07c.87.12.09.12.75.27.25,0,.12-.15.64,0,.05.34,2.12.38,2.08.8-.46-.12.68.33-.37.16.28.11,1.69.44,1.61.24.17-.14.77-.14,0-.51l-.21.09c-.26-.2-.21-.12-.29-.25a17.3,17.3,0,0,1-2-.79s0,0,0,0a6.28,6.28,0,0,1-1.82-.27l-.16-.1c-.25-.21-1.37.08-1-.13-2.38-.22-5.1-.47-7.76-.48-.37.09-2-.05-1.45.16a15,15,0,0,0-3.37-.22s0-.05.17,0c-1.44-.25-1.68.34-3,0-.19.24-2.42.07-3.15.43-.17,0-.23-.09-.17-.14-2.39.18-5,.37-7,.61-1.7.42-4.18.45-5.61,1a36.57,36.57,0,0,0-4.9.71l.16-.06a46.32,46.32,0,0,0-5.58,1.21,7.83,7.83,0,0,0-2.27.1c-.63.19-1.58.4-2.62.63s-2.18.55-3.13.86c-.33,0-1.56.58-1.72.43C7.37,56.43,4.44,58,2.57,60.74A9,9,0,0,0,1,65.38a8.56,8.56,0,0,0,0,1.24c0,.21.05.41.09.63s0,.07,0,.15v.29c0,.76-.06,1.52-.09,2.26l0-.09c.11.77.34,1.65.48,2.43,0,.08-.05.07-.05-.09,0,1.08-.15,2.09-.12,3.16,0,0,0,0-.06-.18.09,1-.15,2.09,0,3.29l-.06.06.08.76c-.07,0-.16-.05-.14-.45,0,2.32,0,4.65,0,7A9.36,9.36,0,0,0,4,92.54a10,10,0,0,0,3.11,2,18.64,18.64,0,0,0,3.52.92c2.35.43,4.7.82,7,1.34l-.35,0,1.81.3s-.1,0-.19,0a69.08,69.08,0,0,1,6.73,2s-.36,0-.08.1c1.64.44,2.35,1.3,3.28,1.32.06.06.06.15-.1.1a20.54,20.54,0,0,1,5.69,4.06c.82.83,1.6,1.77,2.4,2.66s1.67,1.75,2.56,2.55c3.14,2.44,6.75,5.14,10.66,6.55l0,0a44.18,44.18,0,0,0,16.08,3.34,27.18,27.18,0,0,0,3.07-.09c.48,0,1,0,1.46-.1l1.6-.2.07.08c1.92-.32,3.91-.7,6-1a35.27,35.27,0,0,0,6-1.6l-.24.18c.56-.33,2.37-.64,2-.86l.71-.15a14.44,14.44,0,0,1,1.83-.79c.6-.24,1.2-.47,1.83-.69l1-.35,1-.44a12.45,12.45,0,0,0,2-1.15l-.15.17c.75-.5,1.62-1.06,2.18-1.42-.08.07,0,.06-.19.2a13.27,13.27,0,0,0,5.72-6.65l0,.36.2-.57c0-.2.12-.42.18-.66a11.83,11.83,0,0,0,.35-1.5,14.83,14.83,0,0,0,.18-3.14l.06.12-.08-1,.12,0C102.87,96.19,102.76,93.89,102.75,91.5Z"/><path class="cls-2" d="M98,67.92v0C98,68,98,68,98,67.92Z"/><path class="cls-2" d="M64.08,50.48l.3.08A1,1,0,0,0,64.08,50.48Z"/><path class="cls-3" d="M26.53,77.58C17,75,8.23,76.55,5.66,69.08V82.22c0,2.84,2.83,6.44,7.21,7.73s17,1.81,23.45,9.54S55.9,119.33,75.49,115s21.9-11.34,21.9-16.24V84.28a14,14,0,0,1-11.6,11.6"/><polygon class="cls-2" points="85.92 96.53 86.02 96.55 86.22 96.39 85.92 96.53"/><path class="cls-2" d="M87.32,96s0,0-.09,0l-.77.5C86.88,96.46,87,95.9,87.32,96Z"/><path class="cls-2" d="M87.58,95.91a.54.54,0,0,0,.49-.28C88,95.79,87.46,95.8,87.58,95.91Z"/><path class="cls-2" d="M97,97.51v-.1A.22.22,0,0,0,97,97.51Z"/><path class="cls-2" d="M95.73,104.8l.06.13a13.14,13.14,0,0,0,1.56-4.25l0,.1A15.75,15.75,0,0,0,97.53,98l-.06-2.74c-.06-1.82-.11-3.64-.17-5.52,0,.06,0,.08.06.14a2.21,2.21,0,0,1-.1-.59c0-.05,0,.06.06.12.19-.79-.11-2.33,0-2.83,0-.22-.1-.32-.15-.2,0-.67,0-1.35,0-2.07l.45,0A15.37,15.37,0,0,1,95,90.92c-.11.1-.17.09-.19,0a11.57,11.57,0,0,1-6.45,4.67c-.07.11.29,0,.07.15a5.47,5.47,0,0,0,1.13-.47,3.93,3.93,0,0,1,1-.53l-.06.11c.54-.22,0-.22.59-.41.23-.08,0,.11.1.06A9.94,9.94,0,0,0,94,92.13a2,2,0,0,0,.62-.55,3.68,3.68,0,0,1,.66-.69,1.76,1.76,0,0,0,.31-.72,13.47,13.47,0,0,0,2.31-5.84l-.94,0c0,2.16.06,4.34.06,6.52.32,2-.06,4.36,0,6.72,0,0,0,0,0,0a10.73,10.73,0,0,1,0,2.77,6.43,6.43,0,0,1,0,.76,11.55,11.55,0,0,1-1.66,3.68,15.69,15.69,0,0,1-2.81,3,25.52,25.52,0,0,1-7.27,4,65.31,65.31,0,0,1-8.7,2.53c-1.43.39-2.87.56-4.32.87-.72.16-1.47.19-2.21.3s-1.5.23-2.27.24c0,0,0,0,.12-.06-.89,0-1.74,0-2.57,0s-1.64-.2-2.48-.25v0c-4.17-.27-8.41-2-12-3.67a50,50,0,0,1-6.41-4.24,59.59,59.59,0,0,1-5.85-5.35l.06,0c-1.49-1.45-2.64-3.17-4.2-4.53A18.6,18.6,0,0,0,29.19,94c-3.89-1.94-8.46-2.39-12.64-3.33-1.28-.41-2.82-.54-4.28-1a7.93,7.93,0,0,1-3.68-2.11,11.11,11.11,0,0,1-2.14-3.1,6.89,6.89,0,0,1-.52-1.75c-.06-.59,0-1.24-.06-1.87,0-2.53-.2-5.06-.35-7.63.06-1.4.05-2.81,0-4.21v-.62l.22.59A8.28,8.28,0,0,0,8.61,72.9,15.85,15.85,0,0,0,12.94,75c2.14.33,4.44,1.14,6.85,1.44l-.08-.09c.82.36,2,0,2.44.42h-.09c.42.25,1.13-.23,1.36,0l.09-.07c.55.09,0,.11.46.23.16,0,.09-.14.41,0,0,.36,1.35.24,1.29.64-.29-.07.43.27-.25.19.17.09,1.08.29,1,.1.12-.15.52-.22,0-.49l-.15.1c-.15-.18-.12-.1-.17-.22a6,6,0,0,1-1.27-.61s0,0,0,0a2.57,2.57,0,0,1-1.15-.2l-.1-.09c-.14-.2-.89.13-.62-.09l-4.88-.72c-.25.06-1.27-.21-.93,0A7,7,0,0,0,15.14,75s0,0,.12,0c-.82-.46-1.09,0-1.82-.48-.19.21-1.42-.45-1.94-.35-.07-.09-.09-.15,0-.18A8.85,8.85,0,0,1,8,71.67c-.94-.55-1.26-2-1.87-2.75L4.57,67.09l.58,2h0a16.73,16.73,0,0,0-.07,3.15l0-.11a23.94,23.94,0,0,0,.22,3.63A3.21,3.21,0,0,0,5,77.19c.14.82.1,2.49.22,3.74-.14.2,0,1-.14,1.11a9,9,0,0,0,2.71,5.34,13.6,13.6,0,0,0,5.18,3.27h-.06a13,13,0,0,0,1.65-.1s0,0-.07,0c.68.11,1.28.4,2,.5,0,0,0,0-.12,0,.65,0,1.28.39,2,.38l0,.06.49,0c0,.06-.06.15-.31.08a64.81,64.81,0,0,1,8.59,2.2,21.6,21.6,0,0,1,7.66,4.49l-.2-.1a10.14,10.14,0,0,1,.88.74s-.08,0-.13,0c.93,1.11,2,2.27,3,3.32,0,0-.22-.1-.11.07.86.69,1.07,1.41,1.7,1.55,0,0,0,.13-.11.07a69.69,69.69,0,0,0,7.11,5.8c2.25,1.18,4.63,2.76,7.16,3.54l0,.06c.82.24,1.62.57,2.45.82s1.68.5,2.52.75l2.6.57c.87.17,1.76.23,2.63.33a9.53,9.53,0,0,0,2,.09h2l0,.08a29.67,29.67,0,0,1,3.83-.32,19.1,19.1,0,0,0,3.86-.75l-.15.15c.35-.27,1.53-.32,1.32-.57l.46,0a11.13,11.13,0,0,1,2.41-.73,11.17,11.17,0,0,0,2.69-.8l-.11.11a7.94,7.94,0,0,1,1.55-.58c-.06,0,0,0-.14.11a20.74,20.74,0,0,0,5.18-2.27l-.13.21c.73-.56,2.25-1.28,3.17-2.08l0,.1c.14-.15.3-.28.44-.43l.09.09A14.61,14.61,0,0,0,95.73,104.8Z"/><path class="cls-2" d="M97.32,89.38v0S97.33,89.43,97.32,89.38Z"/><path class="cls-2" d="M24.7,76.56l.18.06S24.76,76.58,24.7,76.56Z"/><path class="cls-4" d="M48.74,110.48V94.24h0c-8.61-5.61-15-14.7-22.2-16.66C17,75,8.23,76.55,5.66,69.08c0,0-2.58-8.5,11.59-11.34s35.82-6.18,48.19-2.57,33.33,9.18,32,29.11a14,14,0,0,1-11.6,11.6c-7.91,1.54-12.07,3.81-19.4,3.55v16.43"/><polygon class="cls-2" points="67.06 115.86 67.09 115.75 66.99 115.46 67.06 115.86"/><path class="cls-2" d="M66.83,114c0,.05,0,0-.07.08l.29,1.12C67.22,114.66,66.71,114.29,66.83,114Z"/><path class="cls-2" d="M66.86,113.63a.94.94,0,0,0-.12-.71C66.85,113.07,66.71,113.72,66.86,113.63Z"/><path class="cls-2" d="M89.84,95l-.11.07C89.79,95,89.83,95,89.84,95Z"/><path class="cls-2" d="M96.35,87.58l-.06-.13A12.33,12.33,0,0,1,93,92.25a.41.41,0,0,0,.07-.11,15.49,15.49,0,0,1-6.26,3.4c-1.14.34-2.32.56-3.48.87s-2.34.62-3.52,1c.07,0,.09-.07.16-.1a3.89,3.89,0,0,1-.72.3c-.07,0,.06-.07.14-.11-1,.1-2.93.91-3.6.93-.28.08-.39.19-.22.21a36.82,36.82,0,0,1-5.88,1c-.5,0-1,.08-1.52.1l-.76,0h-.56s-.16,0-.15,0v.2l0,.61c0,.5,0,1,0,1.49,0,.19-.08.22-.14.17a101.42,101.42,0,0,1,.13,10.33c.08.14.08-.35.17,0,.09-1.11-.2-2,0-3l.07.13c.05-.73-.19-.15-.09-.91.06-.3.09.08.1-.06a44,44,0,0,0-.15-4.63c.17-.37,0-1.67.17-2.25a3.7,3.7,0,0,0-.16-.95v-.84s0-.12,0-.13h.58a4.51,4.51,0,0,0,.52,0l1,0a29.19,29.19,0,0,0,4.16-.52c2.75-.53,5.41-1.38,8.1-2.06a20.68,20.68,0,0,1,4.07-1c.73-.12,1.5-.31,2.26-.48.38-.1.74-.25,1.12-.38a7,7,0,0,0,1.08-.48s0,0,0,0A21.08,21.08,0,0,0,93,92.87a6.4,6.4,0,0,0,.67-.81,13.49,13.49,0,0,0,3.17-4.52,15.18,15.18,0,0,0,.84-2.68,7.55,7.55,0,0,0,.13-1.41c0-.47,0-.93,0-1.4a21.68,21.68,0,0,0-2.92-10.7,25.84,25.84,0,0,0-8.57-8.52A43.22,43.22,0,0,0,75.44,58s0-.06.17,0c-2.24-.73-4.26-1.48-6.4-2.05l0,0A79.18,79.18,0,0,0,61,54a43.36,43.36,0,0,0-8.28-.48,126.22,126.22,0,0,0-20.46,1.63v-.07c-5.37.92-10.63,1.46-15.94,2.71a16.9,16.9,0,0,0-7.77,3.54A9.07,9.07,0,0,0,6,64.8,7.69,7.69,0,0,0,5.62,69a10.34,10.34,0,0,0,.45,1.28,9.89,9.89,0,0,0,.74,1.24,9.54,9.54,0,0,0,1,1.08,7.29,7.29,0,0,0,1.23.85,25,25,0,0,0,5.24,1.88c3.26.91,6.57,1.26,9.81,1.91a20.66,20.66,0,0,1,4.76,1.33,26.65,26.65,0,0,1,4.35,2.51c4.78,4,9.28,8.27,14,12,.31.18.62.37.92.57l.47.32.26.18a1.05,1.05,0,0,1,0,.31c0,.78-.05,1.51-.1,2.29-.09,1.54-.2,3.12-.16,4.71l.07-.11c-.23,1.14.33,2.54,0,3.25v-.12c-.18.6.42,1.4.2,1.76l.09.1c0,.73-.1.09-.13.65,0,.21.16.08.11.52-.36.1.08,1.79-.33,1.84,0-.4-.16.63-.24-.27,0,.26,0,1.48.15,1.37.18.11.34.58.48-.16l-.13-.15c.13-.25.07-.19.17-.28a9.8,9.8,0,0,1,.29-1.8s0,0,0,0a4.31,4.31,0,0,1,0-1.51l.07-.15c.16-.23-.3-1.1,0-.81-.07-2-.07-4.24-.07-6.45-.1-.31,0-1.69-.18-1.2a11.41,11.41,0,0,0,.26-2.81s0,0,0,.14a3,3,0,0,0,.09-.78q0-.28,0-.54c0-.1-.09-.1-.16-.15L49,93.7a6.13,6.13,0,0,1-.58-.33,2.43,2.43,0,0,1-.5-.48c-.3.12-1.55-1.24-2.22-1.39-.07-.13-.08-.2,0-.2-1.56-1.22-3.13-2.75-4.37-3.88-1.22-.8-2.51-2.43-3.64-3a22.58,22.58,0,0,0-3.09-2.78l.13.06a18.87,18.87,0,0,0-4-2.64,4.53,4.53,0,0,0-1.56-1.2c-.27-.08-.6-.21-1-.36l-1.25-.38a23.25,23.25,0,0,0-2.66-.54c-.22-.18-1.36-.23-1.41-.42-2.32-.25-4.9-.5-7.46-1a19.91,19.91,0,0,1-3.73-1A12.28,12.28,0,0,1,10,73.33a8.26,8.26,0,0,1-1.38-1.06l.05,0A8.7,8.7,0,0,1,7,71.24c0-.07,0-.08.08,0a7.22,7.22,0,0,1-.62-1.12A9,9,0,0,0,6,69s0,0,.12.12A2.36,2.36,0,0,1,6,67.9c0-.42,0-.86,0-1.33l.06,0a2.88,2.88,0,0,1,0-.59c.05,0,.14.07.05.37a7.57,7.57,0,0,1,1-2.49,9.13,9.13,0,0,1,1.84-2,15.05,15.05,0,0,1,5-2.69,41.51,41.51,0,0,1,5.71-1.45c1.95-.4,3.9-.77,5.86-1.09l-.27.11,1.49-.36s-.07.06-.14.09c2-.22,3.94-.7,5.83-1,0,0-.28.14,0,.14,1.38-.36,2.28-.08,2.93-.53.07,0,.13.08,0,.13a95.72,95.72,0,0,1,11.87-1.09c3.28-.47,7-.19,10.4-.17l0,.06a31.45,31.45,0,0,1,6.73,1c2.23.59,4.44,1.34,6.65,2,1.81.6,3.07.93,4.87,1.58l0,.09c3.16.83,6.19,2.78,9.24,4.2l-.26,0c.54.11,1.69,1.12,1.69.77L87,64c2.11,1,3.26,2.6,5.31,4.51l-.18-.1a8.24,8.24,0,0,1,1.38,1.68c0-.07,0,0-.17-.15,1.17,2,2.64,4.17,3.26,6.59l-.19-.24a18.08,18.08,0,0,1,.89,4.83L97.26,81l.11.79-.12,0c0,.51,0,1,0,1.5a8.82,8.82,0,0,1-.08,1.46A13.29,13.29,0,0,1,96.35,87.58Z"/><path class="cls-2" d="M79.42,97.46h0C79.5,97.44,79.47,97.45,79.42,97.46Z"/><path class="cls-2" d="M49.3,107.84l0,.25A.83.83,0,0,0,49.3,107.84Z"/><path class="cls-5" d="M93.27,81.71S90.8,91.89,81.67,93.55s-16,2.46-24.81-1C45.64,88.12,37.6,75.79,29.36,73.72S12,73.28,9.78,67.28c0,0-.12-5,12.13-7.24s30.94-5,41.63-2.07S94.46,65.69,93.27,81.71Z"/><polygon class="cls-2" points="93.93 81.76 93.97 81.66 93.88 81.41 93.93 81.76"/><path class="cls-2" d="M93.75,80.12s0,0-.07.07l.27,1C94.13,80.72,93.65,80.4,93.75,80.12Z"/><path class="cls-2" d="M93.77,79.84a.73.73,0,0,0-.15-.6C93.73,79.36,93.62,79.92,93.77,79.84Z"/><path class="cls-2" d="M71.37,59.76l.11,0Z"/><path class="cls-2" d="M63.28,58l-.12.09c1.55.19,3.18.84,4.77,1.19h-.12A102.21,102.21,0,0,1,79.27,63c-.06,0-.09,0-.16,0a2.29,2.29,0,0,1,.62.17s-.07,0-.14,0c.71.52,2.34,1,2.75,1.41.22.1.36.09.26,0a26.65,26.65,0,0,1,7.86,6.17c.08.14.06.2,0,.2a11.33,11.33,0,0,1,2.31,3.71A15.43,15.43,0,0,1,93.67,79c.08.1.07-.31.16,0a22.87,22.87,0,0,0-.48-2.56l.1.09c-.1-.63-.19-.08-.29-.73,0-.27.11,0,.08-.09a10.36,10.36,0,0,0-1.78-3.56,2.39,2.39,0,0,0-.41-.8,4.08,4.08,0,0,1-.55-.87c-.26-.24-.48-.5-.65-.53a21.61,21.61,0,0,0-5.3-4.5,46.81,46.81,0,0,0-6.24-3.16c-2.12-.56-4.44-1.79-7-2.45,0,0,0,0,0,0-.82-.17-2-.48-3-.79l-.86-.1c-1.43-.46-2.87-.91-4.35-1.3a31.92,31.92,0,0,0-4.53-.83,74.75,74.75,0,0,0-9.22-.38,98.17,98.17,0,0,0-19.72,2.07s-.06,0,.11-.08c-1.92.36-3.69.55-5.5.93v0c-2.22.53-4.58.93-6.84,1.64a14.23,14.23,0,0,0-6.06,3.31,6.56,6.56,0,0,0-1.3,1.6,4.11,4.11,0,0,0-.4,1,1.19,1.19,0,0,0-.05.57l.24.49a6.29,6.29,0,0,0,3.07,3c2.67,1.24,5.67,1.4,8.47,1.7l0,.06c4.49.39,9,1,12.71,3.6C36.06,77.5,38,79,39.82,80.46s3.71,3.05,5.44,4.63c2,2.14,5.47,3.91,7.66,5.51A22.73,22.73,0,0,0,60.53,94a28.37,28.37,0,0,0,8.27.83,36.57,36.57,0,0,0,7.68-.58l3.76-.63a26.09,26.09,0,0,0,3.68-.76c.26-.13.54-.26.81-.37s.53-.3.81-.44a17.86,17.86,0,0,0,1.63-.93,11.4,11.4,0,0,0,2.89-2.66l-.12,0c.8-.6.94-1.91,1.53-2.24l0,.1c.42-.35.18-1.23.51-1.4l0-.11c.23-.56.12,0,.35-.43.06-.16-.12-.12.07-.44.38.07.47-1.4.85-1.31-.11.32.32-.46.15.29.13-.19.41-1.2.21-1.16-.16-.13-.22-.55-.51,0l.1.15c-.19.16-.11.13-.23.18-.25.75-.48.78-.76,1.28,0,0,0,0,0,0a2.34,2.34,0,0,1-.45,1.14l-.11.08c-.21.11-.14.94-.26.61a15.67,15.67,0,0,1-3,4.26c-.07.27-1,.9-.58.8a13.28,13.28,0,0,0-2,1.14s0,0,.08-.09a1.83,1.83,0,0,0-.91.47,1.11,1.11,0,0,1-.9.34c0,.14-.4.27-.82.42a3,3,0,0,0-1.12.42c-.12,0-.16-.07-.14-.12-1.58.33-3.43.53-4.8.73-1.15.4-2.86.29-3.85.68-.85,0-2.22,0-3.39.12l.12,0c-1.33.07-3,0-3.91.08-.36-.33-.93-.33-1.48-.5a28.29,28.29,0,0,1-4-.62c-.17-.17-1.09-.26-1.1-.47A24.1,24.1,0,0,1,48.68,87l0,0c-.48-.24-1.11-.42-1.62-.65,0,0,0-.07.08,0-.6-.45-1-1-1.62-1.48,0,0,0,0,.14,0-.59-.38-1-1-1.73-1.48v-.06l-.44-.3c.05,0,.13-.1.32.11a97.45,97.45,0,0,0-7.57-6.25c-.66-.5-1.39-.93-2.08-1.39A20.63,20.63,0,0,0,32,74.33a12.1,12.1,0,0,0-1.17-.5l-1.21-.39c-.82-.2-1.63-.39-2.45-.53h.25l-1.29-.12s.08,0,.14,0c-1.61-.36-3.33-.36-4.9-.56,0,0,.25-.07,0-.12-1.19,0-1.85-.44-2.48-.16-.05,0-.08-.1.05-.12a20.41,20.41,0,0,1-4.79-.93A6.31,6.31,0,0,1,10.53,68l-.26-.42c-.08-.15-.18-.3-.21-.38a2.41,2.41,0,0,1,.21-.9,5.3,5.3,0,0,1,1.2-1.72A17.86,17.86,0,0,1,15,62.15v.06c3.3-1.73,7.3-2.08,11-2.79,1.58-.24,2.62-.49,4.2-.74l.06.08c2.61-.72,5.63-.53,8.38-1.17l-.18.13c.41-.22,1.69-.12,1.49-.4l.51,0c1.86-.56,3.47-.13,5.78-.52l-.15.08A10,10,0,0,1,48,56.8c-.07,0,0,0-.19.06,1.95.18,4.11-.13,6.17-.07l-.24.12a10.61,10.61,0,0,1,1.94,0c.74,0,1.52.12,2.17.16l-.09,0,.67,0v.13A39.32,39.32,0,0,1,63.28,58Z"/><path class="cls-2" d="M79.59,63.18h0S79.54,63.17,79.59,63.18Z"/><path class="cls-2" d="M92,83.57l.1-.18S92.06,83.51,92,83.57Z"/><path class="cls-1" d="M33.23,60.32s-10,1.43-14.69,3-6.07,4.86,0,5.73,16.77.63,22,7.44,14.63,16.17,25.34,16S90.1,89.42,89,80.4,85.25,67,72.61,62.1,36.7,59.77,33.23,60.32Z"/><polygon class="cls-2" points="33.33 60.98 33.42 61.01 33.61 60.87 33.33 60.98"/><path class="cls-2" d="M34.68,60.57s0,0-.07-.06l-.77.4C34.22,61,34.43,60.49,34.68,60.57Z"/><path class="cls-2" d="M34.93,60.57a.58.58,0,0,0,.51-.18C35.34,60.51,34.84,60.43,34.93,60.57Z"/><path class="cls-2" d="M63.12,60.3H63A.16.16,0,0,0,63.12,60.3Z"/><path class="cls-2" d="M70.44,61.3l.11-.08c-.69-.13-1.41-.26-2.13-.47a12.82,12.82,0,0,0-2.18-.46l.1,0a59.09,59.09,0,0,0-10.76-.92c.06,0,.08,0,.14-.05a2.2,2.2,0,0,1-.58.08s.06-.05.12-.06c-.77-.2-2.28.06-2.76-.09-.22,0-.32.09-.19.15-2.88,0-6,.13-8.86.43-.15,0-.17-.06-.14-.13-2.48.43-5.09.52-7.64.75-.09.09.27,0,0,.16.82,0,1.47-.35,2.23-.27l-.09.08c.54,0,.09-.2.66-.15.23,0,0,.1.06.1A31.34,31.34,0,0,0,42,59.94c.27.15,1.23-.06,1.67.07.29-.09.59-.08.7-.19,4-.1,8.15-.3,12.27-.09a13,13,0,0,1,3.14.12c1.1.12,2.23.31,3.37.42,0,0,0,0,0,0a13.48,13.48,0,0,1,2.71.34h.76a48.26,48.26,0,0,1,7.69,2.5,36.54,36.54,0,0,1,7.2,3.77,18.69,18.69,0,0,1,3.26,3,15,15,0,0,1,2.15,3.62,24.1,24.1,0,0,1,1.22,4.06c.15.71.3,1.42.42,2.14a11.48,11.48,0,0,1,.26,2.17s-.05,0-.06-.12a6.76,6.76,0,0,1-1.81,4.3l0,0a12.16,12.16,0,0,1-5,3.42A56,56,0,0,1,76,91.32a59.58,59.58,0,0,1-7.46.94,25,25,0,0,1-7.69-.39l0-.06a19.07,19.07,0,0,1-5.57-2.18,44.84,44.84,0,0,1-5-3.3c-3.2-2.61-6.62-5.46-9.1-8.88a11.12,11.12,0,0,0-2.9-3.14c-1.24-.83-2.51-1.52-3.57-2.13A19.36,19.36,0,0,0,27.66,70c-2.46-.36-4.93-.41-7.45-.53a26.67,26.67,0,0,1-3.42-.62,5.53,5.53,0,0,1-1.61-.72,1.69,1.69,0,0,1-.81-1.58A2.67,2.67,0,0,1,15.28,65a6.35,6.35,0,0,1,1.43-1A12,12,0,0,1,20,62.86c2-.8,4.41-.78,6.71-1.28l-.1-.07c.87.08,1.8-.66,2.38-.4l-.08,0c.47.1.95-.59,1.26-.43l.06-.09c.53-.12.08.08.5.05.15,0,0-.17.36-.17.13.34,1.31-.28,1.41.11-.3,0,.48.09-.17.27.2,0,1.09-.14,1-.3s.38-.4-.19-.46l-.09.15c-.21-.1-.15,0-.23-.13a6.06,6.06,0,0,1-1.37-.09s0,0,0,0a2.58,2.58,0,0,1-1.11.22l-.12-.06c-.2-.12-.77.44-.59.14l-4.73.93c-.2.15-1.24.24-.84.36a6,6,0,0,0-2.11.2s0,0,.09-.06c-.93-.08-.95.51-1.85.38-.06.26-1.5.34-1.86.79-.11,0-.16,0-.14-.1-1.44.54-3.1,1.24-4,2.64A3,3,0,0,0,14,66a2.08,2.08,0,0,0-.09.63c0,.11,0,.23,0,.34l.1.33a1.65,1.65,0,0,0,.3.59A2.53,2.53,0,0,0,16,69a7.41,7.41,0,0,0,3.1.77l-.11,0a17.37,17.37,0,0,0,3.56.16c.33.33.85.32,1.36.47.81,0,2.41.17,3.62.26.16.16,1,.11,1,.32a17.55,17.55,0,0,1,5.35,1.27,13,13,0,0,1,4.58,3.14l0,0a7.19,7.19,0,0,0,.68.33,7.33,7.33,0,0,1,.67.39s0,.06-.07,0c.46.46.7,1.07,1.14,1.59,0,0,0,0-.12-.06a14.52,14.52,0,0,0,1.3,1.6l0,.07.37.32c-.06,0-.15.08-.3-.13A44.29,44.29,0,0,0,56,90.47l-.23,0a11.25,11.25,0,0,0,1.11.39s-.08,0-.14,0a9.69,9.69,0,0,0,2.09.83l1.07.32,1.07.25s-.24,0,0,.12c1.07.11,1.67.54,2.25.27,0,0,.07.11,0,.12a32.19,32.19,0,0,0,4.5,0c1.49-.08,3-.18,4.47-.32,2.41-.62,5.2-.82,7.59-1.83v.06a35.43,35.43,0,0,0,4.67-2,10,10,0,0,0,3.83-3.46,6.64,6.64,0,0,0,1-3.68l.08,0c-.08-.6-.17-1.22-.25-1.84s-.15-1.26-.23-1.9a10.74,10.74,0,0,0-1-3.7l.17.13c-.3-.31-.51-1.46-.74-1.19L87,72.49c-.27-.34-.49-.68-.72-1s-.39-.7-.63-1a6.94,6.94,0,0,0-1.81-2l.15,0a13.74,13.74,0,0,1-1.25-1,.73.73,0,0,1,.17.07c-1.2-1.35-3.07-2.08-4.69-2.93l.25,0a11.21,11.21,0,0,1-1.6-.71c-.6-.28-1.24-.58-1.78-.79l.08,0-.57-.15,0-.12c-.71-.28-1.4-.54-2.1-.78S71.15,61.53,70.44,61.3Z"/><path class="cls-2" d="M55.26,59.32h0S55.3,59.32,55.26,59.32Z"/><path class="cls-2" d="M31.2,60.06h.19S31.26,60.05,31.2,60.06Z"/><ellipse class="cls-4" cx="76" cy="80.4" rx="6.18" ry="3.88" transform="translate(-14.07 16.16) rotate(-11.11)"/><polygon class="cls-2" points="82.73 79.08 82.76 79.06 82.64 79.03 82.73 79.08"/><path class="cls-2" d="M82.42,78.83s0,0-.06,0a2.07,2.07,0,0,1,.33.1C82.83,78.84,82.32,78.91,82.42,78.83Z"/><path class="cls-2" d="M82.43,78.77c0-.09-.09-.07-.14-.07C82.4,78.69,82.29,78.84,82.43,78.77Z"/><path class="cls-2" d="M77.8,76h0S77.81,76,77.8,76Z"/><path class="cls-2" d="M76.43,76.51v.11c.23-.21.52,0,.78-.1l0,0c.66,0,1.29-.06,2,0l0,0s.09-.09.12-.07,0,0,0,.05c.08.21.43,0,.47.18a.13.13,0,0,0,.09-.13,9.34,9.34,0,0,1,1.6.66s0,.08-.07.12a1.46,1.46,0,0,1,1,1.19c.08,0,0-.08.15-.06,0-.21-.3-.23-.26-.43l.08,0c0-.13-.18.08-.16-.07s.08,0,.08-.07c-.16-.2-.29-.44-.58-.49.08-.15-.19-.17-.15-.35-.09,0-.13-.05-.21,0a4.92,4.92,0,0,0-2.23-1c-.42.22-.79-.21-1.25-.15v0a.91.91,0,0,1-.52.06l-.14.12a6.94,6.94,0,0,0-3.06.28,4.08,4.08,0,0,0-2.89,1.68s0,0,0-.06c-.21.26-.51.41-.67.7l0,0c-.16.38-.38.72-.56,1.09a1.63,1.63,0,0,0-.13,1.18,2.45,2.45,0,0,0,.36,1.37,2.79,2.79,0,0,0,1,1l0,0a6.34,6.34,0,0,0,2,1c.77.3,1.61-.16,2.36,0,.52.26,1-.47,1.52-.27a2.51,2.51,0,0,0,2.46-1.07c.83-.3,1.17-1.14,1.9-1.55,0-.42.67-.55.75-1h-.08c.27-.11-.26-.41.11-.44h0c.19-.07-.4-.22-.19-.25l-.09,0c0-.09.1,0,.14-.08s-.16,0-.11-.07c.36,0-.1-.22.3-.27,0,.06.15-.12.25,0,0,0,0-.24-.18-.19s-.35,0-.47.11H82l-.16.06c0,.12-.19.16-.26.24h0c.17,0,.07.12,0,.16h-.08c-.15,0,.3.14,0,.09a1.42,1.42,0,0,1-.1.72c.09.07-.09.18.11.21a.37.37,0,0,0-.39.17s0,0,0,0c-.31,0,.14.28-.23.2.2.16-.2.14,0,.38a.38.38,0,0,1-.12-.09,3,3,0,0,1-.57.43c0,.29-.38.2-.32.53-.14,0-.38,0-.47.23v0c-.16.13-.37.25-.41.49-.19-.23-.24-.13-.36-.18-.07.17-.33.26-.49.44-.08-.12-.14.11-.22-.07a1.73,1.73,0,0,1-1.89.43v0c-.06.12-.13.36-.2.5s0,0,0,0-.24-.13-.35-.08a.13.13,0,0,1,0-.06c-.1.09-.23-.15-.35,0v0L75.1,84c0-.06,0-.16,0-.14a7.08,7.08,0,0,1-3-.3l.06,0-.23,0s0,0,0,0c-.17-.21-.49-.17-.67-.34,0,0,.09,0,.08-.1-.25,0-.07-.34-.37-.12a.16.16,0,0,1,.09-.09,1.5,1.5,0,0,1-.81-1.12c-.43-.32-.15-.81-.29-1.27l.06,0c-.05-.65.52-1.1.89-1.56.19-.16.26-.34.46-.51l.06.06c.15-.53.87-.31,1.09-.82l0,.12c0-.19.27-.08.11-.33l.11,0c.12-.49.58-.09.84-.45v.07c.08-.08.18-.16.27-.13s0,0,0,.06c.38.16.62-.24,1-.3v.14c.12-.19.44-.12.63-.21v.06l.09-.1,0,.12C75.92,76.68,76.16,76.56,76.43,76.51Z"/><path class="cls-2" d="M79.22,76.62h0Z"/><path class="cls-2" d="M81.55,79.59s0,0,0,0S81.55,79.59,81.55,79.59Z"/><path class="cls-1" d="M132.1,63.65c-5.74,2.82-21.11,16.09-18.41,30.26s17.46,17.61,23.44,16c6.83-1.91,21.56-9.24,23.76-31.43S147.39,56.15,132.1,63.65Z"/><polygon class="cls-2" points="132.4 64.25 132.48 64.25 132.6 64.08 132.4 64.25"/><path class="cls-2" d="M133.41,63.51s0,0-.08,0l-.52.58C133.17,64.06,133.17,63.5,133.41,63.51Z"/><path class="cls-2" d="M133.62,63.45a.47.47,0,0,0,.37-.3C134,63.29,133.5,63.33,133.62,63.45Z"/><path class="cls-2" d="M156.74,62.55l-.07,0S156.72,62.55,156.74,62.55Z"/><path class="cls-2" d="M160.31,67.8l.13,0a21.23,21.23,0,0,0-1.63-3.54l.08,0A9.67,9.67,0,0,0,155.51,61,12.19,12.19,0,0,0,151,59.5c.05,0,.07,0,.13,0a2.86,2.86,0,0,1-.51,0s.05-.05.11-.05a15.35,15.35,0,0,0-2.42-.22c-.19,0-.27.1-.17.16a24.74,24.74,0,0,0-7.58,1.39c-.13,0-.16,0-.15-.1-2,.89-4.18,1.59-6.25,2.46,0,.1.24,0,.07.14.7-.2,1.13-.7,1.79-.81l-.05.1c.46-.13,0-.21.51-.31.21,0,0,.11.08.08.93-.39,1.93-.68,2.78-1.14.27.09,1-.31,1.43-.26.23-.13.49-.18.56-.31,3.39-.79,7-1.42,10.5-.62,1.71.09,3.46,1.26,4.89,2.53,0,0,0,0,0,0a6.09,6.09,0,0,1,1.55,1.73l.47.48a19.61,19.61,0,0,1,1.83,6.77,31.59,31.59,0,0,1-.12,7.14,55,55,0,0,1-4.12,14.82s-.06,0,0-.12a16.94,16.94,0,0,1-1,1.94c-.4.6-.79,1.19-1.15,1.81l0,0c-1.81,3.1-4.73,5.71-7.37,7.91a33.79,33.79,0,0,1-5.72,3.3,18.77,18.77,0,0,1-6.48,1.89v-.06c-3.59.22-6.95-1-10.14-2.41a29.14,29.14,0,0,1-4.64-3,16.34,16.34,0,0,1-2-2,13.23,13.23,0,0,1-.84-1.13,7.28,7.28,0,0,1-.74-1.18c-1-2-2.47-4.73-2.54-6.94a27.44,27.44,0,0,1,0-3.27l.09-1.61L114,87l.11-.8c.05-.26.13-.52.19-.79l.37-1.58c.13-.53.34-1,.5-1.56a14.56,14.56,0,0,1,.57-1.56c1.93-3.57,4.08-7.13,7.06-9.77,1.15-1.5,3-2.57,4.57-3.9h-.11c.71-.29,1.11-1.29,1.7-1.28l-.06.06c.43-.08.5-.89.83-.84v-.1c.39-.29.11.05.44-.12.11-.09,0-.17.23-.28.12.14.35,0,.59-.21s.5-.29.61-.12c-.23.12.42-.06,0,.29.17,0,.84-.43.7-.55s.19-.48-.3-.38l0,.16c-.21,0-.14,0-.24-.06-.57.3-.76.16-1.19.34h0a1.86,1.86,0,0,1-.83.58h-.12c-.23-.05-.44.66-.43.33-1,.81-2.23,1.72-3.33,2.68-.08.21-.84.74-.47.67a4.21,4.21,0,0,0-1.54,1.06s0,0,0-.09c-.76.35-.48.84-1.25,1.11.1.25-1,.93-1,1.43-.1,0-.16,0-.17,0-.47.48-.91,1-1.36,1.51a17.51,17.51,0,0,0-1.21,1.45c-.39.9-1.46,1.83-1.62,2.71-.2.27-.48.63-.76,1a6.51,6.51,0,0,0-.66,1.32v-.1c-.23.49-.53,1-.73,1.55a7.75,7.75,0,0,0-.39,1.42c-.37.19-.54.64-.75,1.06a13.84,13.84,0,0,1-.31,1.49c-.07.29-.15.58-.21.88s-.07.61-.08.88-.1.91-.3.94c-.08.78,0,1.61,0,2.46a16.17,16.17,0,0,0,.19,2.58c0,.44.06.89.15,1.32l.26,1.28c.1.43.15.87.26,1.28s.25.82.37,1.22l0,0a9.57,9.57,0,0,0,1,1.06c0,.05,0,.06-.07,0,.32.51.42,1.09.74,1.6,0,0,0,0-.1-.06a7.07,7.07,0,0,0,1,1.54l0,.06.31.3c-.06,0-.15.08-.26-.12a18.35,18.35,0,0,0,5.9,5.17,25,25,0,0,0,7.42,2.71l-.2,0,1,.07s-.06,0-.11,0a14.85,14.85,0,0,0,3.93.2s-.19.11,0,.13a3.65,3.65,0,0,1,1.18-.1,1,1,0,0,0,.79-.29c.05,0,.1.08,0,.13a37.55,37.55,0,0,0,7.32-3c1.75-1.32,3.88-2.55,5.41-4.24l0,.06c.49-.55,1-1,1.54-1.6s1-1.11,1.53-1.66a27.47,27.47,0,0,0,2.71-3.66,22.29,22.29,0,0,0,1.61-3h.09c.67-2,2.07-4,2.37-6.24l.06.17c-.06-.37.46-1.26.13-1.21l.18-.36a6,6,0,0,1,.38-2.13c.11-.35.23-.71.33-1.09a8.48,8.48,0,0,0,.11-1.28l.05.13a5.81,5.81,0,0,1,.17-1.42,1.08,1.08,0,0,1,0,.16,15.94,15.94,0,0,0,.39-4.85l.13.19c-.12-.79,0-2.23-.16-3.25l.07,0-.13-.51.12,0A18.1,18.1,0,0,0,160.31,67.8Z"/><path class="cls-2" d="M150.77,59.44h0Z"/><path class="cls-2" d="M130.31,64l.15-.07S130.35,64,130.31,64Z"/><ellipse class="cls-6" cx="136.59" cy="70.83" rx="6.36" ry="3.74" transform="translate(-17.14 77.38) rotate(-29.85)"/><ellipse class="cls-6" cx="125.75" cy="81.05" rx="3.02" ry="1.85" transform="translate(-23.84 83.11) rotate(-33.59)"/><path class="cls-5" d="M113.4,89.69a17.75,17.75,0,0,0,.29,4.22c2.7,14.17,17.46,17.61,23.44,16,6.83-1.91,21.56-9.24,23.76-31.43.64-6.48-.25-11.08-2.2-14.15h0c-1.8,26.56-18.35,34.42-27.64,34-12-.5-17.64-8.63-17.64-8.63Z"/><path class="cls-1" d="M167.79,72.06c-5.87,3.14-21.31,17.47-17.89,32s19,17.4,25.12,15.43c7-2.25,22.07-10.44,23.41-33.38S183.39,63.68,167.79,72.06Z"/><polygon class="cls-2" points="168.1 72.64 168.19 72.64 168.31 72.46 168.1 72.64"/><path class="cls-2" d="M169.13,71.85s0,0-.08,0l-.53.6C168.89,72.42,168.88,71.85,169.13,71.85Z"/><path class="cls-2" d="M169.34,71.77a.5.5,0,0,0,.38-.31C169.68,71.6,169.22,71.67,169.34,71.77Z"/><path class="cls-2" d="M193.33,69.78l-.07,0A.11.11,0,0,0,193.33,69.78Z"/><path class="cls-2" d="M197.33,75l.12,0a18.87,18.87,0,0,0-1.89-3.57l.09.06a9.9,9.9,0,0,0-3.7-3.27A12.87,12.87,0,0,0,187.24,67s.08,0,.13,0a3,3,0,0,1-.53,0s.06,0,.12-.06a15,15,0,0,0-2.51-.1c-.2,0-.28.11-.17.16a26.26,26.26,0,0,0-7.81,1.77c-.13,0-.16,0-.15-.1-2.06,1-4.28,1.8-6.39,2.78,0,.11.25,0,.08.15.71-.25,1.15-.77,1.83-.91l-.05.1c.47-.16,0-.22.52-.34.2,0,0,.11.08.08.94-.44,2-.78,2.83-1.29.29.07,1.06-.36,1.48-.33.23-.14.5-.2.56-.34,3.49-1,7.22-1.76,10.87-1.11,1.78,0,3.65,1.12,5.23,2.33,0,0,0,0,0,0A6.31,6.31,0,0,1,195,71.49l.51.47c2.4,4.23,2.85,9.39,2.47,14.3a55.48,55.48,0,0,1-3.67,15.52s-.06,0,0-.12a18.61,18.61,0,0,1-1,2c-.39.63-.77,1.25-1.12,1.91l0,0c-1.77,3.28-4.69,6.09-7.36,8.46a36.32,36.32,0,0,1-5.8,3.63,19.78,19.78,0,0,1-6.64,2.21v-.06a17.3,17.3,0,0,1-5.43-.36,33.32,33.32,0,0,1-5.19-1.66,29.39,29.39,0,0,1-5-2.9,17.4,17.4,0,0,1-2.21-1.91,14.16,14.16,0,0,1-.93-1.12,9.32,9.32,0,0,1-.83-1.18,13,13,0,0,0-.91-1.66c-.33-.57-.61-1.19-.93-1.78a9.14,9.14,0,0,1-.76-1.85,7.63,7.63,0,0,1-.41-1.77,29.35,29.35,0,0,1,1.61-13.31c1.84-3.79,4-7.54,7-10.38,1.12-1.61,3-2.76,4.57-4.21h-.11c.74-.33,1.12-1.36,1.72-1.39l-.06.07c.44-.11.5-.92.84-.89v-.11c.39-.31.1,0,.44-.15.11-.09-.05-.16.23-.29.25.25,1-.74,1.22-.4-.22.14.44-.09,0,.3.17-.07.86-.47.72-.59s.18-.49-.33-.37l0,.17c-.22,0-.15,0-.25,0a7.92,7.92,0,0,1-1.22.41s0,0,0,0a2.29,2.29,0,0,1-.83.63h-.13c-.22,0-.43.69-.43.36-1.05.86-2.24,1.86-3.35,2.89-.09.22-.85.79-.48.7a5,5,0,0,0-1.55,1.17.11.11,0,0,1,0-.1c-.78.38-.47.88-1.25,1.2.11.26-1,1-1,1.51-.1,0-.16,0-.17,0-.89,1-1.88,2.2-2.55,3.16-.4.93-1.41,2-1.59,2.86a10.58,10.58,0,0,0-1.39,2.48v-.1a11.8,11.8,0,0,0-1,3.12c-.37.22-.49.69-.7,1.14a29.78,29.78,0,0,0-.53,3.39c-.17.15-.06.94-.25,1a35.74,35.74,0,0,0,.41,5.22,26.9,26.9,0,0,0,.6,2.66c.12.44.19.89.34,1.3l.45,1.25,0,0a7.93,7.93,0,0,0,1,1.05s0,.06-.07,0c.35.51.49,1.11.84,1.62,0,0,0,0-.11,0a8,8,0,0,0,1.13,1.53v.06l.32.3s-.14.09-.27-.11a19.39,19.39,0,0,0,6.38,5,26.55,26.55,0,0,0,7.82,2.44l-.21,0,1.06,0s-.06,0-.11.05a9.31,9.31,0,0,0,2,.15c.68,0,1.37-.08,2-.12,0,0-.19.12,0,.13a4.12,4.12,0,0,1,1.22-.15,1.13,1.13,0,0,0,.81-.33s.1.07,0,.13a39.11,39.11,0,0,0,7.47-3.42,38.65,38.65,0,0,0,5.46-4.58l0,.06a39.73,39.73,0,0,0,5.74-7.38,23.29,23.29,0,0,0,1.56-3.12h.09c.63-2.11,2-4.22,2.21-6.55l.07.18c-.08-.39.43-1.33.09-1.27l.16-.38a7.1,7.1,0,0,1,.32-2.22c.1-.36.21-.74.29-1.14a8.09,8.09,0,0,0,.06-1.33l.06.13a6.57,6.57,0,0,1,.11-1.47c0,.06,0,0,0,.15a17.19,17.19,0,0,0,.19-5l.13.19c-.07-.41-.09-1-.13-1.59a10.7,10.7,0,0,0-.18-1.77l.07,0-.16-.52.12,0a18.33,18.33,0,0,0-.41-2C197.74,76.3,197.59,75.65,197.33,75Z"/><path class="cls-2" d="M187,66.91h0S187,66.91,187,66.91Z"/><path class="cls-2" d="M166,72.52l.15-.07S166,72.5,166,72.52Z"/><ellipse class="cls-6" cx="171.99" cy="76.09" rx="7.36" ry="3.87" transform="translate(-15.93 83.73) rotate(-26.19)"/><ellipse class="cls-6" cx="161.23" cy="87.23" rx="3.87" ry="1.92" transform="translate(-20.71 109.61) rotate(-35.43)"/><path class="cls-5" d="M149.41,99.68a18.86,18.86,0,0,0,.49,4.33c3.43,14.48,19,17.4,25.12,15.43,7-2.25,22.07-10.44,23.41-33.38.38-6.71-.74-11.4-2.91-14.48h0c-.74,27.43-17.65,36.23-27.35,36.23-12.56,0-18.76-8.13-18.76-8.13Z"/><path class="cls-7" d="M162.93,117.73,106.2,85l56.73-32.73a3.1,3.1,0,1,0-3.1-5.37L100,81.42,40.17,46.9a3.1,3.1,0,1,0-3.1,5.37L93.8,85,37.07,117.73a3.1,3.1,0,0,0,3.1,5.37L100,88.58l59.83,34.52a3.1,3.1,0,1,0,3.1-5.37Z"/><path class="cls-2" d="M162.6,118.31l.15.15a2,2,0,0,1,.49.29A2.71,2.71,0,0,0,162.6,118.31Z"/><path class="cls-2" d="M163.77,121.58c.07-.1.08,0,.14-.14a2.58,2.58,0,0,0-.39-2.18c.15.45.3.83.39,1.23A1.39,1.39,0,0,1,163.77,121.58Z"/><path class="cls-2" d="M163.37,122.13a6.57,6.57,0,0,1-1.19.91,7.51,7.51,0,0,0,.84-.47C163.31,122.35,163.49,122.1,163.37,122.13Z"/><path class="cls-2" d="M82.59,98.16l.28-.17A2.31,2.31,0,0,0,82.59,98.16Z"/><path class="cls-2" d="M61.76,110.73l-.17.22c3.83-2.44,8.37-4.82,12.48-7.3l-.26.2c9-5.17,17.35-10.12,26.19-15.32l4.53,2.56c-.17-.08-.24-.08-.42-.17.53.26,1.12.52,1.69.85.13.11-.19,0-.38-.14,2.12,1.44,6.55,3.65,7.87,4.57.63.34.94.43.62.18,8.22,4.69,17,9.71,25.42,14.4.39.26.43.34.29.33,3.64,1.93,7.32,4,11,6.12l5.5,3.2,2.75,1.61,1.35.78a2.71,2.71,0,0,0,1.32.28c.26-.08-.72-.08,0-.17a2.84,2.84,0,0,1-1.54-.44l-1.63-.87c-1.06-.57-2.1-1.13-3.13-1.8l.31.09c-1.52-.94-.41,0-2-1-.6-.42.21,0-.08-.17-3.31-1.87-6.71-3.91-9.9-5.54-.68-.58-3.53-2-4.67-2.88a20.56,20.56,0,0,0-2.11-1c-11.47-6.72-23.32-13.37-35.11-20.19l-.73-.38-.94-.51-2.13,1.28-2,1.2-4.29,2.43c-2.93,1.64-6,3.33-8.94,5.11,0,0,0,0,0,0-2.1,1.3-5.19,3.13-7.76,4.57l-2.09,1.36c-7.75,4.31-15.51,8.76-23.3,13.26l-5.84,3.37-2.92,1.69-.73.42a2.82,2.82,0,0,1-.7.27A2.75,2.75,0,0,1,37,118.23c1.85-1.12,3.88-2.24,5.81-3.35l25.48-14.54,12.37-7.18,6.24-3.69,6.45-3.87s.21-.07-.42.31L94.45,85l-7.14-4.12c-2.16-1.26-4.29-2.5-6.47-3.73h0c-11.76-6.49-24.19-14-35.54-20.22l-5.19-3-2.65-1.53a3.13,3.13,0,0,1-1.8-2.25,3,3,0,0,1,3.73-3.42,6,6,0,0,1,1.39.69l1.37.79,2.76,1.59L67.05,62.44l-.07,0c5.6,3.16,11,6.35,16.49,9.55l8.17,4.8L100,81.65l1.38-.81c11.93-6.72,24.21-14.38,36.27-21.12,3.78-2,8-4.55,12.2-7.06L156,49l2.93-1.68a8.21,8.21,0,0,1,1.45-.73,3.12,3.12,0,0,1,3.79,1.84,3,3,0,0,1-.35,2.83,3.09,3.09,0,0,1-1.1,1l-1.34.74-2.66,1.5q-5.32,3-10.57,6.09c-7,4.11-14,8.3-21,12.54q-5.28,3-10.48,6L106.54,85l8.92,5.13q4.55,2.64,9,5.34c6.16,3.29,12.58,7.58,19.34,11.4l-.2-.2c2.3,1.6,5.55,2.82,6.88,4l-.26-.13c1.18.89,3.17,1.35,3.85,2l.25,0c1.56.87.13.19,1.31.91.45.25.25,0,1.16.55,0,.43,3.83,2.12,3.73,2.53-.84-.49,1.25.9-.69-.12.52.35,3.12,1.82,3,1.54.31,0,1.4.42-.1-.61l-.39-.07c-.46-.42-.37-.29-.51-.49-2.05-1.2-2.23-1.53-3.67-2.45,0,0,0,0,0,0a25,25,0,0,1-3.22-1.82l-.29-.24c-.4-.42-2.49-1.09-1.73-1-4.22-2.36-9-5.13-13.7-7.83-.71-.29-3.58-2.08-2.65-1.32a66.28,66.28,0,0,0-5.82-3.66.81.81,0,0,1,.33.14c-2.37-1.69-3.11-1.48-5.28-3.14-.49,0-4.23-2.53-5.71-3-.26-.21-.33-.31-.2-.29L107.61,85s0,0-.1,0,0,0,0,0l0,0s0,0,.1-.07l1.2-.7,2.46-1.4a50.33,50.33,0,0,0,4.3-2.64c2.21-1.2,5.8-3.12,8.78-5l-.27.21c3.42-2,7.7-4.49,10-6a30.21,30.21,0,0,0,4.15-2c2.22-1.44,6.87-4.07,10.31-6.2.6-.19,2.86-1.71,3.13-1.65,2.41-1.49,5-3,7.63-4.62l4.07-2.41a3.5,3.5,0,0,0-1.28-6.3,3.59,3.59,0,0,0-2.61.45L155.29,49l-8.18,4.51.14-.1c-1.3.88-2.75,2-4.06,2.9-.15.06-.15,0,.14-.14-1.89,1.13-3.77,2-5.66,3.13,0,0,0,0,.29-.24-1.75,1.11-3.78,2-5.82,3.35l-.14,0-1.31.84c0-.08,0-.19.73-.59l-15.73,9.12L100,81,90.93,75.8l-9.26-5.34.65.31L79,69a.9.9,0,0,1,.36.13c-4.11-2.49-8.51-4.83-12.56-7.19,0,0,.68.28.13-.07-3.09-1.59-4.71-3-6.39-3.54-.13-.09-.19-.22.14-.07C56.47,55.89,52.22,53.47,48,51l-6.36-3.68c-.54-.3-1-.61-1.62-.92A3.39,3.39,0,0,0,36.22,52a5.88,5.88,0,0,0,1.36.89l1.38.77,5.59,3.19c3.74,2.16,7.51,4.35,11.22,6.34l-.07,0C65.24,68.42,75.11,74.4,84.9,80l4.49,2.58L93.66,85l-1.92,1.12H91.6C84.89,90.33,77,94.19,70.05,98.61l.44-.38c-1,.79-4.36,2.45-3.79,2.46l-1.31.65c-4.67,3.14-8.94,5-14.77,8.61l.36-.29c-1.56,1-3.39,2.06-4.59,2.68.18-.11.08-.08.45-.31-2.55,1.31-5.17,2.83-7.8,4.4l-2,1.18a3.19,3.19,0,0,0,.31,5.68,2.9,2.9,0,0,1-.68-.24,3.4,3.4,0,0,0,2.57.5,4.46,4.46,0,0,0,1.41-.63l1.4-.8C44,121,46,119.9,47.61,118.91l-.17.17,1.64-1,.1.08Z"/><path class="cls-2" d="M105.42,91.63l0,0C105.25,91.54,105.31,91.57,105.42,91.63Z"/><path class="cls-2" d="M157.62,114l.51.33S157.78,114.12,157.62,114Z"/></svg>