<svg id="Layer_1" data-name="Layer 1" xmlns="http://www.w3.org/2000/svg" viewBox="0 0 200 170"><defs><style>.cls-1{fill:#464b86;}.cls-2{fill:#f3f2f6;}.cls-3{fill:#dbd9e5;}.cls-4{fill:#cfcddd;}.cls-5{fill:#c3c0d4;}</style></defs><title>Artboard 20</title><polygon class="cls-1" points="138.47 146 138.36 145.78 137.94 145.68 138.47 146"/><path class="cls-1" d="M136.13,144.4v.11l1.49.74C137.19,144.72,136.45,144.82,136.13,144.4Z"/><path class="cls-1" d="M135.7,144.08a1.39,1.39,0,0,0-1-.53C135.06,143.55,135.7,144.29,135.7,144.08Z"/><path class="cls-1" d="M93.1,106.16a.34.34,0,0,0,.21.11C93.2,106.27,93.2,106.16,93.1,106.16Z"/><path class="cls-1" d="M80.21,98.81H80c1.28.64,2.55,1.28,3.83,2s2.56,1.59,3.84,2.34l-.22-.11a147.73,147.73,0,0,1,17.68,12.68c-.1-.11-.1-.11-.21-.11l1,.64c.11.11-.11,0-.21-.11,1.06,1.18,3.51,3,4,3.73.32.32.54.32.43.11,4.26,3.94,8.52,8.41,12.89,12.46.21.21.21.32.1.32,3.84,3.3,7.67,6.92,11.61,10.22.22.11-.32-.42.11-.1-1.17-1.07-2.45-1.81-3.52-2.88l.22.11c-.75-.75-.32,0-1.07-.85-.32-.32.11,0,0-.11-1.7-1.49-3.51-3.2-5.22-4.58-.32-.53-1.81-1.7-2.34-2.45-.43-.32-.85-.85-1.17-.85-2.88-2.88-5.75-5.86-8.73-8.74s-6.08-5.75-9.27-8.41c-1.6-1.17-3.3-2.45-5-3.94a67,67,0,0,0-5.54-4h0c-1.27-.74-3.08-2-4.68-3l-1.39-.64c-1.17-.74-2.23-1.49-3.4-2.24s-2.35-1.38-3.52-2c-2.34-1.38-4.79-2.56-7.24-3.94A96.14,96.14,0,0,0,57.63,88,74.85,74.85,0,0,0,40,84.44,79.74,79.74,0,0,0,31.22,84c-3,0-5.86,0-8.95-.11,0,0-.11-.1.21,0a11.45,11.45,0,0,1-8.62-3.83h0l-.43-.53L13,78.9a7.83,7.83,0,0,1-.64-1.39,9.6,9.6,0,0,1-.43-3,12.16,12.16,0,0,1,2-5.86c2.35-3.51,5.76-6.07,9.06-8.2,8.3-4.9,19.06-7.88,29.18-8.84v.11a72.67,72.67,0,0,1,24,1.91,86.33,86.33,0,0,1,12,4.26c3.94,1.71,8.09,3.09,12,4.58,4.8,2,11.61,3.52,16.19,5.22,9.48,3.41,19,5.86,28.76,8.52,8.84,2.88,17.89,5.22,26.2,8.84,4.05,1.28,8.2,3.63,12.46,5.65l-.1-.11a11.37,11.37,0,0,0,2.34,1.17A4.89,4.89,0,0,1,188,93l-.22-.11c.64.64,2,.74,2.35,1.28h.21c1,.64,0,.21.74.64.32.21.22-.11.75.32-.11.42,2.13,1.59,1.92,2-.43-.43.53.75-.43-.11.21.32,1.49,1.6,1.49,1.28.22,0,.85.43.22-.53l-.22-.11a1.74,1.74,0,0,1-.21-.42c-1-1.07-1.07-1.28-1.81-2h0a12.84,12.84,0,0,1-1.92-1.38l-.1-.22c-.22-.31-1.6-.63-1.07-.63a73.21,73.21,0,0,0-8.63-4.48c-.42-.1-2.34-1.06-1.7-.53A20.79,20.79,0,0,0,175.64,86h.21c-1.49-1-2-.53-3.51-1.49-.32.11-2.77-1.17-3.83-1.17-.22-.11-.22-.21-.11-.21-2.77-1.07-6-2.24-8.31-3-2.13-.42-4.9-1.7-6.82-2-1.49-.53-3.83-1.38-5.85-1.92h.21a49.75,49.75,0,0,0-6.92-1.81,11.78,11.78,0,0,0-2.56-1.17c-1.6-.32-4.69-1.28-7.14-1.92-.31-.21-2-.53-2-.74a182,182,0,0,1-21.83-6.82h.1a26,26,0,0,0-3.08-.42c-.11,0-.11-.11.1,0-1.28-.43-2.45-1-3.73-1.39h.22c-1.28-.32-2.45-1.06-3.84-1.38l-.1-.11-1-.21c0-.11.1-.11.53.1-2.66-1.06-5.43-2-8.09-3.3-1.28-.53-2.67-1.17-4-1.7S81.49,54.29,80,53.87a76,76,0,0,0-17.68-3H60.4a.31.31,0,0,0,.21-.11,61.1,61.1,0,0,0-8.84.32s.43-.11,0-.11c-2.13.43-3.4.11-4.47.64-.11,0-.21-.11,0-.11a82,82,0,0,0-17.36,4.69c-2.24,1.07-4.58,2.24-6.92,3.62a31,31,0,0,0-6.29,4.79v-.1a23.56,23.56,0,0,0-3.19,3.94,12.58,12.58,0,0,0-1.92,4.79,9.28,9.28,0,0,0,.53,5.11,8.67,8.67,0,0,0,3.41,3.94,14.53,14.53,0,0,0,7.35,2l.11.11c4.9-.11,10.22.42,15.23.53l-.32.1c.74-.1,3,.32,2.77,0l.85.22c3.51,0,6.18,1.06,10.33,1.7h-.32c1.07.21,2.34.53,3.2.75h-.32c3.3,1.17,7.13,2.13,10.54,3.51h-.43c1.71.53,4.69,2,6.82,3h-.11l1.07.43v.11C75,96.15,77.55,97.32,80.21,98.81Z"/><path class="cls-1" d="M105.56,116.28Z"/><path class="cls-1" d="M192.36,94.87c.11.11.22.22.32.22C192.58,95.09,192.47,95,192.36,94.87Z"/><path class="cls-2" d="M25.15,68.89s-10.55,8.84-10,13,24.92,3.73,29.28,4.26S57,66.22,25.15,68.89Z"/><polygon class="cls-1" points="25.15 69.52 25.25 69.63 25.25 69.52 25.15 69.52"/><path class="cls-1" d="M25.79,69.31h0l-.43.32C25.57,69.74,25.68,69.2,25.79,69.31Z"/><path class="cls-1" d="M25.89,69.31c.11.11.22-.11.22-.11S25.89,69.1,25.89,69.31Z"/><path class="cls-1" d="M42.83,70.7h0c-.64-.22-1.28-.64-1.92-.86H41A21.75,21.75,0,0,0,35.9,69H36c-.11,0-.21.11-.32.11L35.8,69c-.32-.21-1.07,0-1.28-.1a.1.1,0,0,0-.11.1,19.61,19.61,0,0,0-4.26.11c-.1,0-.1-.11-.1-.11a21.49,21.49,0,0,1-3.73.32c0,.11.11.11,0,.21.42.11.74-.21,1.06-.1v.1c.22,0,0-.21.32-.1.11.1,0,.1,0,.1a7,7,0,0,0,1.6-.21c.11.21.64,0,.75.11.1-.11.32-.11.32-.22a54.6,54.6,0,0,1,5.85.32c1-.21,2,.43,3.09.54h0a3.12,3.12,0,0,1,1.28.32H41a33.26,33.26,0,0,1,3.4,1.81,8.91,8.91,0,0,1,2.67,2.66,7.25,7.25,0,0,1,1.06,3.83,12.4,12.4,0,0,1-.53,3.94s-.11,0,0-.1a6,6,0,0,1-1.17,1.92h0c-.53.74-1.39,1.49-2.24,1.27a14.83,14.83,0,0,0-3,0c-2.34-.1-4.9-.1-7.35-.21v-.11C32,85.5,30.05,85,28.13,85c-2-.32-4.15,0-6.18-.43-1.17-.53-3-.1-3.94-.85-.53-.32-1.06-.53-1.6-.85s-1-.64-1.06-1.17a8.25,8.25,0,0,1,.74-3.41,21.75,21.75,0,0,1,4.26-5.11c.54-1,1.71-1.28,2.45-2.13h-.1c.42-.11.42-.86.85-.75h0c.32,0,.11-.64.32-.64v-.11c.21-.21.11.11.32,0,0-.1-.11-.1.11-.21.31.21.42-.53.74-.21-.11.1.32,0,.11.21.1,0,.42-.32.21-.42s-.11-.43-.43-.32v.1c-.21,0-.1,0-.21-.1-.32.21-.42.1-.74.21h0c0,.21-.22.32-.43.42h-.11c-.21-.1-.1.54-.21.22-.53.53-1.07,1.06-1.7,1.6,0,.1-.43.42-.22.42a1.77,1.77,0,0,0-1,.53v-.1c-.53.1-.1.53-.74.53.11.21-.53.43-.53.85-.11,0-.11,0-.11-.1l-1.49,1.49c-.21.53-.85,1-1,1.49a2.69,2.69,0,0,0-1,1.17v-.11a3.76,3.76,0,0,0-.64,1.71c-.32,0-.42.32-.64.53a5.77,5.77,0,0,0-.1,2c-.11.22.21.64.1.75A6.46,6.46,0,0,0,17,83.58c.95.32,1.81.64,2.66,1h0a2.1,2.1,0,0,1,.85-.32h0a3.61,3.61,0,0,1,1,.32l-.11.11c.32,0,.64.21,1,.1v.11h.21c0,.11,0,.21-.1.11,2.77.42,5.64.32,8.52.53l-.11.11.53-.11-.1.11a15.12,15.12,0,0,0,2.13,0s-.11.1,0,.1c.53-.21.85.32,1.06-.1v.1a28.84,28.84,0,0,1,4.26.11c1.18-.32,2.56,0,3.73-.21v.1h1.17a5.53,5.53,0,0,0,1.28-.1,4.8,4.8,0,0,0,1.92-1.71,8.71,8.71,0,0,0,.85-1.7h.11a11.25,11.25,0,0,1,.53-1.81,2.73,2.73,0,0,0,.11-1.81l.1.1c-.21-.21,0-.74-.21-.64l.11-.21a4.16,4.16,0,0,1-.32-1.17,2.05,2.05,0,0,0-.43-1.28h.11c-.11-.21-.32-.42-.43-.64h.11a1.86,1.86,0,0,0-.64-1.17l-1-1H46a2.94,2.94,0,0,1-.64-.53,3.1,3.1,0,0,0-.74-.53h.1l-.32-.11.11-.11A17.48,17.48,0,0,1,42.83,70.7Z"/><path class="cls-3" d="M55,30s21.09,3.73,32.59,8.73,78.07,34.51,88.83,45.38c0,0-16.19,2.13-51.23-15.77S87.45,42.58,87.45,42.58,60.83,38,55,30Z"/><polygon class="cls-1" points="54.44 30.44 54.54 30.65 54.76 30.76 54.44 30.44"/><path class="cls-1" d="M56.14,31.93v-.11A7.12,7.12,0,0,1,55,31.08C55.29,31.71,55.93,31.61,56.14,31.93Z"/><path class="cls-1" d="M56.46,32.25a.89.89,0,0,0,.75.42C57,32.67,56.46,32,56.46,32.25Z"/><path class="cls-1" d="M94.8,50.35l-.1-.1C94.7,50.35,94.7,50.35,94.8,50.35Z"/><path class="cls-1" d="M104.39,56.42h.21A61.26,61.26,0,0,1,99,52.8h.1c-2.13-1.49-4.26-3.09-6.17-4.68-1-.86-1.92-1.6-2.88-2.56-.43-.43-.85-1-1.28-1.38a7.26,7.26,0,0,1-1.06-1.6c-.32-.11-.64-.11-1.07-.22h.21a2.51,2.51,0,0,1-.85-.1h.22c-1.18-.43-3.41-.53-4.16-.85-.32,0-.53,0-.32.1-4.36-1-8.94-2.13-13.2-3.41-.22-.1-.22-.1-.11-.21a30.09,30.09,0,0,1-10.76-5c-.21,0,.32.32-.1.1a23.52,23.52,0,0,0,3.08,1.81H60.4c.75.43.21-.1,1,.43.32.21-.11.11,0,.11a22.28,22.28,0,0,0,5,1.91c.31.32,1.81.64,2.34,1.07a6.64,6.64,0,0,0,1.06.21A83.77,83.77,0,0,0,78.61,41l4.48,1,2.23.42,2,.43s0,.11.1.11a.33.33,0,0,0,.11.21,34.92,34.92,0,0,0,3.3,3.62,43.41,43.41,0,0,0,3.94,3.52h0c1,.64,2.35,1.59,3.41,2.45l1.07.53c6.6,5,14.16,9,21.51,13,8.41,4.48,15.87,8.42,24.71,11.29,0,0,0,.11-.21,0,2.55,1,4.79,1.81,7.24,2.56h0c6.07,1.6,12.57,3.62,18.74,3.83,1,.11,1.82.11,2.77.22h2.88l-.32-.32a14.46,14.46,0,0,0-1.28-1.07l-1.17-1c-.75-.53-1.6-1.17-2.45-1.7-3.3-2.24-6.82-4.16-10.22-6.07h0c-5.54-2.88-10.65-6-16.3-8.74-5.64-3-11.93-5.43-17.68-8.41-3.41-2-8.52-3.62-11.72-5.43a189.85,189.85,0,0,0-20.87-9.37c-1.6-.75-3.2-1.5-4.9-2.24s-3.3-1.39-4.9-2c-3.3-1.18-6.6-2.24-9.9-3.31-3.2-.64-6.61-2-10.12-2.77l.1.11c-1.17-.53-2.87-.32-3.62-.85h.11c-.64-.32-1.71.11-2-.21l-.11.1c-.85-.1-.11-.1-.75-.32-.21,0-.1.11-.64,0,0-.42-2-.32-2-.74.43.1-.64-.32.32-.22-.32-.1-1.7-.32-1.6-.1-.1.21-.74.21.11.53l.21-.11c.22.22.22.11.32.22a12.2,12.2,0,0,1,1.92.64h0a4.26,4.26,0,0,1,1.7.32l.11.1c.21.21,1.28-.1,1,.11,2.23.42,4.79,1,7.24,1.49.32,0,1.92.43,1.38.11a24.49,24.49,0,0,0,3,1.06h-.22c1.28.64,1.6.11,2.77.85.22-.21,2.13.75,3,.64.1.11.21.21.1.21,2.13.64,4.58,1.5,6.29,2.14,1.59.31,3.62,1.49,5,1.81A42.15,42.15,0,0,0,93,41.51h-.21a48.41,48.41,0,0,0,5,2,7.92,7.92,0,0,0,1.82,1.17c1.17.42,3.4,1.49,5.21,2.13.22.21,1.5.64,1.5.85A124.18,124.18,0,0,1,122.07,55H122c.75.21,1.6.32,2.35.53.1,0,0,.11-.11,0,1,.43,1.7,1,2.66,1.39h-.21c1,.32,1.7.95,2.87,1.38v.11l.64.21c0,.11-.1.11-.42-.11,8,3.84,16.29,7.57,24.28,11.93l-.32-.1,1.6.74h-.21c1.91,1.17,4,2.13,6,3.2,0,0-.32-.11-.11.1,1.49.64,2.13,1.49,3,1.6.1,0,.1.11-.11.11,2,1.06,3.94,2.23,5.86,3.41,1,.63,1.91,1.27,2.77,1.91a12.58,12.58,0,0,1,1.38,1.07l.64.53.32.32c.21.11.74.43.32.43-.21,0-.53.1-1,.1a29.67,29.67,0,0,1-3-.1c-2-.22-4-.43-6-.75v-.11a78,78,0,0,1-15.12-4c-2-.75-3.51-1.17-5.54-1.92v-.11a26.86,26.86,0,0,1-5.32-2.13c-1.81-.74-3.52-1.7-5.44-2.34h.32c-.64-.11-2.13-1.07-2-.64l-.53-.32c-2.56-.74-4.16-2.24-7.14-3.51h.21a10.88,10.88,0,0,1-2.23-1.18c.1,0,.1,0,.21.11a29.46,29.46,0,0,0-3.62-2l-3.83-1.92h.31c-1.27-.53-3.4-1.92-5-2.66h.11l-.86-.43v-.1C108.22,58.66,106.31,57.6,104.39,56.42Z"/><path class="cls-1" d="M57.84,31.18c-.1,0-.21-.1-.31-.1A.39.39,0,0,0,57.84,31.18Z"/><path class="cls-4" d="M69.13,37.89c1.28,3,9.59,8.42,13.74,10,0,0-27.48,7.88-27.9,11.61,0,0,3.3,9.16,9.16,13.32,0,0-6.6-8.95-5.43-12.89,0,0,25.77-6.18,27.9-11.08,0,0,2.56-.53-7.13-8.2Z"/><polygon class="cls-1" points="69.03 38.64 69.03 38.64 69.24 38.53 69.03 38.64"/><path class="cls-1" d="M70.09,38.64c-.1,0,0-.11,0,0h-.74C69.56,39,69.88,38.42,70.09,38.64Z"/><path class="cls-1" d="M70.2,38.74c.21.11.32,0,.43,0C70.52,38.74,70.2,38.53,70.2,38.74Z"/><path class="cls-1" d="M82.13,52.48v.11c.85-.64,1.92-1,2.77-1.7V51a5.22,5.22,0,0,0,1.81-1.92l-.11.11a.66.66,0,0,0,.43-.64,1.53,1.53,0,0,0-.22-.64A4.18,4.18,0,0,0,86,46.84c-.64-.64-1.28-1.28-2-1.92h.11c-.11-.11-.32-.11-.43-.21h.11c-.32-.53-1.39-1.07-1.5-1.39-.1-.1-.21-.1-.21,0-.85-.64-1.7-1.38-2.55-2-.11-.11-.11-.11-.22-.11l-.42-.1L78,40.87l-1.59-.32c-.11-.1-.11-.1,0-.21A32.29,32.29,0,0,1,70.84,39c-.11.1.21.1,0,.21.53.32,1.17.11,1.6.43l-.11.1c.43.22.11-.21.53,0,.11.11-.1.11,0,.11a11.12,11.12,0,0,0,2.56.53c.1.21.85.21,1.17.53.21,0,.43.11.53,0,.75.22,1.49.43,2.13.64h.11l.21.22.43.32.85.74c1.17,1,2.34,1.92,3.51,3a5.66,5.66,0,0,1,1.6,1.6,4.23,4.23,0,0,1,.54,1,.85.85,0,0,1,.1.43v.1l-.32.21-.1.22h0a2.64,2.64,0,0,1-1.28,1.38c-.11.11-.22.32-.32.43a59.92,59.92,0,0,1-11.19,4.58c-4.47,1.38-8.41,2.23-12.67,3.83l.11-.1c-.32.1-.75.21-1.07.32L58.48,60l-.21,1.07V62h0a17.54,17.54,0,0,0,1.49,4.58,16.36,16.36,0,0,0,2.34,3.94A24,24,0,0,0,64,73.36l.22-.21a25.06,25.06,0,0,1-5.33-5.76H59c-1.71-2.23-2.67-5-3.73-7.45a.41.41,0,0,1,.1-.32A13.74,13.74,0,0,1,59.12,57a33.32,33.32,0,0,1,4.37-2c1.92-.42,4.05-1.91,5.86-2.23a53.2,53.2,0,0,0,10.54-3.63c1.07-.31,2-.53,2.66-.74-.53-.21-1-.43-1.38-.64s-1.07-.53-1.6-.75a18.14,18.14,0,0,1-3-1.91c-1.49-.64-2.56-2.13-3.94-3.2v.11c-.32-.53-1.28-.64-1.39-1.17h.11c-.11-.32-.85-.22-.85-.54h-.11c-.32-.31,0-.1-.1-.31s-.11.1-.32-.11c.21-.21-.64-.75-.32-1.07.1.22,0-.32.32,0,0-.1-.32-.64-.43-.53s-.43-.21-.43.32h.22c-.11.21,0,.11-.11.21a6.43,6.43,0,0,1,.32,1.07h0a1.25,1.25,0,0,1,.64.64v.1c0,.22.64.22.32.32.85.75,1.81,1.6,2.77,2.35.21,0,.74.53.64.21.1.32.85,1,1.06,1.17h-.1c.42.64.85.21,1.17.85.21-.21,1,.64,1.38.64v.22A32,32,0,0,0,80.32,48a.85.85,0,0,1,.53.21H81l.42.11h-.53c-.11,0-.21.11-.32.11l.11-.11a19.65,19.65,0,0,0-2.45,1c-.32-.22-.75,0-1.07,0-.53.32-1.7.64-2.55,1.06-.22-.1-.75.32-.86.11a38.15,38.15,0,0,1-8.09,2.77h0a6.19,6.19,0,0,0-.85.85V54c-.43.22-1,.22-1.39.43l.11-.11a7.58,7.58,0,0,0-1.38.54h0l-.32.21c0-.11,0-.21.1-.21-1.28.53-2.55,1.17-3.83,1.81a10.21,10.21,0,0,0-1.81,1.17,2.76,2.76,0,0,0-.85.74,2.05,2.05,0,0,0-.64,1.28l.32.64.21.53.53,1.07a20.2,20.2,0,0,0,1.07,2.13l-.11-.11.53.75h-.1a17.78,17.78,0,0,0,1.7,2.77s-.21-.11-.11.1c.64.54.54,1.18,1.07,1.28a.11.11,0,0,1-.11.11,29.59,29.59,0,0,0,4.48,4.47L66.05,75,64.77,73l-.22-.43c-1.38-1.28-2.13-3.19-3.3-4.68h.11a10,10,0,0,1-1.6-3.41,9.11,9.11,0,0,1-.53-3.73.38.38,0,0,1,.11-.32c.32-.11.74-.21,1.06-.32l1.17-.32v.11c1.71-.75,3.73-.64,5.43-1.6l-.1.11c.21-.22,1.06-.22,1-.54h.32c1.06-.74,2.23-.42,3.72-1.17l-.1.11A8.68,8.68,0,0,1,73,56.42l-.11.11a16,16,0,0,0,3.94-1.38l-.1.21c.53-.43,1.81-.64,2.55-1.07v.11l.43-.21.11.1A5.16,5.16,0,0,1,82.13,52.48Z"/><path class="cls-1" d="M69.45,39.49s0-.11-.1-.11C69.45,39.38,69.45,39.49,69.45,39.49Z"/><path class="cls-4" d="M96.51,51.2c-.54,1.39,3.19,7.14,3,9.7s-16.3,8.41-19.17,9.37-2.88,3.3,2.34,9.37c0,0,1-4-.74-5.54S83.3,72,87.67,69.84s13.52-4,14-6.71-2.13-9.9-2.13-9.9Z"/><polygon class="cls-1" points="96.08 51.74 96.08 51.84 96.29 51.84 96.08 51.74"/><path class="cls-1" d="M96.83,52h0l-.54-.11C96.4,52.16,96.83,51.84,96.83,52Z"/><path class="cls-1" d="M96.93,52.06a.21.21,0,0,0,.32,0C97,52.16,96.93,52,96.93,52.06Z"/><path class="cls-1" d="M97.89,66v.11c.53-.43,1.39-.64,1.92-1.07v.11a3.43,3.43,0,0,0,1.81-2,7.59,7.59,0,0,0-.32-2.66l.11.11a.38.38,0,0,0-.11-.22h.11c.1-.42-.32-1.06-.22-1.38,0-.11-.1-.11-.21-.11a32,32,0,0,0-1.38-4.15c0-.11,0-.11.1-.11a3.05,3.05,0,0,1-.42-.85c-.22-.42,0-.21-.43-.42a7.82,7.82,0,0,1-1.49-1.18c-.11,0,.11.11-.11.11.32.32.75.32,1,.64H98.1c.22.21.22-.11.32.11s-.1.1,0,.1l.32.22.22.21c0-.11.1.32.32.53-.11.21.21.53.1.85.11.11.11.22.22.32a53.45,53.45,0,0,1,1.49,5.86,2.34,2.34,0,0,1,.21,1.49c0,.21-.11.53-.11.64a1.77,1.77,0,0,1-.42.53h0a1.94,1.94,0,0,1-1,.85c-.11.11-.11.22-.21.32-2.45,1-5,1.92-7.57,2.77a30.65,30.65,0,0,0-4.26,1.49,34.65,34.65,0,0,0-3.83,2v-.11a15.28,15.28,0,0,0-2.24,1.17h0l-.32.32a.86.86,0,0,0-.21.54.94.94,0,0,0,.11.53c.1.1.21.32.32.42l.53.54.32.64a13.82,13.82,0,0,1,.42,2.87c0,.21-.1.53-.1.75s0,.74-.32.32l-.53-.64-.54-.64a34.7,34.7,0,0,1-2.23-3.09h.1a3.87,3.87,0,0,1-.64-2.77c.32-1,1.28-1.28,2.13-1.6,2-.53,3.84-1.81,5.86-2.34,1.28-.21,2.66-1.49,3.84-1.6a17.47,17.47,0,0,0,6.6-3.3,3.91,3.91,0,0,0,1.38-1A1.74,1.74,0,0,0,99.28,61a17.55,17.55,0,0,0-.75-3.19c-.64-.85-.53-2.13-1.06-3.2V54.4c.1-.53-.64-.75-.43-1.06h0c.11-.32-.64-.32-.43-.54h-.1c-.11-.21.1-.1.1-.32s-.21,0-.21-.21c.21-.11.11-.21.11-.43s-.11-.32.1-.32c0,.11.11-.21.22.11a.63.63,0,0,0-.11-.43c-.21-.1-.32-.31-.53-.1l.1.1c-.1.11-.1.11-.21.11,0,.43-.21.53-.21.85h0c.21.11.21.43.21.54l-.11.1c-.1.11.43.32.11.32.32.64.64,1.49,1,2.24.11.11.21.53.32.32a1.68,1.68,0,0,0,.11,1.06h-.11c-.11.54.42.32.21.86.32,0,.21.74.53.85a.1.1,0,0,1-.1.1c.21.64.32,1.5.42,1.92a.38.38,0,0,1,.11.32c0,.11,0,0-.11.11s-.32.32-.32.53a7,7,0,0,0-1.17.75v-.11a16.56,16.56,0,0,0-1.38,1.06c-.32-.21-.53,0-.75,0a9.18,9.18,0,0,1-1.49,1c-.11-.1-.42.32-.53.11a14.92,14.92,0,0,1-5.11,2.24h0c-.22.21-.32.53-.54.74v-.11c-.32.11-.63.11-.95.22v-.11c-.22.21-.64.11-1,.32h0l-.22.11c0-.11,0-.22.11-.22-1.38.54-2.66,1.07-4,1.6-.64.32-1.38.53-2,.85a7.44,7.44,0,0,0-1,.86,2.64,2.64,0,0,0-.42,1.17l-.11-.11c0,.21.11.43.11.64a.11.11,0,0,1-.11-.11,6.3,6.3,0,0,0,.74,2.13s-.1-.1-.1,0c.42.43.21.86.64,1l-.11.11A21.72,21.72,0,0,0,80.1,77.3l.75,1,1,1.28a1.75,1.75,0,0,0,.42.32v-.64c.11-.43.11-.86.22-1.18a3.75,3.75,0,0,0,0-1.06,3,3,0,0,0-.22-1h.11a4,4,0,0,0-1.06-2.24c-.32-.32-.54-.63-.32-1a3.23,3.23,0,0,1,1-.75l1.7-.85v.1c1-.74,2.45-.74,3.41-1.59v.1c.1-.21.74-.21.53-.53h.21c.64-.74,1.49-.42,2.35-1v.11a2.16,2.16,0,0,1,.74-.32l-.1.11a7.46,7.46,0,0,0,2.55-1v.21c.32-.32,1.17-.43,1.71-.75v.11l.21-.21v.1A5,5,0,0,0,97.89,66Z"/><path class="cls-4" d="M113.65,62.07c.22.21,2.56,5.11,1.18,8s-8.21,15.33-6.29,18.21,14.38,12.67,16.62,15.66c0,0,4-1.5-1.17-5.22s-15.66-6.5-13.21-14.59S120.15,70,117.38,64Z"/><path class="cls-1" d="M114.08,62.81h-.64C113.65,63,114.08,62.71,114.08,62.81Z"/><path class="cls-1" d="M114.19,62.92c.1.11.32.11.32,0C114.51,63,114.29,62.81,114.19,62.92Z"/><path class="cls-1" d="M112.16,80.81h0c.22-.74.86-1.49,1.17-2.34v.11q1.61-2.88,2.88-5.75v.1a.39.39,0,0,1,.11-.32v.11c.42-.32.42-1.28.74-1.49,0-.11,0-.21-.1-.21a8.22,8.22,0,0,0,.53-5,.11.11,0,0,1,.11-.11c-.11-.21-.11-.32-.22-.53s-.21-.32-.21-.53l-.21-.43h-.11l-.21-.1c-.64-.43-1.39-.75-2-1.18-.1,0,.11.11-.1.11.42.32.85.21,1.17.64h-.11c.21.21.11-.11.43.11.1.1-.11.1,0,.1l.42.22.22.1h.1a3.2,3.2,0,0,0,.43.64c-.11.21.11.64,0,1,.11.11.11.32.21.32a14.75,14.75,0,0,1-1.81,6.82c-.21,1.17-1.28,2.23-1.81,3.51h0a5.05,5.05,0,0,1-.74,1.49l-.11.43a23.43,23.43,0,0,0-2.13,4.36c-.11.43-.32.75-.43,1.18L110,85.39c-.1.43,0,.86-.1,1.28s.1.85.1,1.28a8.41,8.41,0,0,0,3,4.69,18.11,18.11,0,0,0,4.58,2.77s0,.1-.11,0c1,.42,1.7,1.06,2.66,1.38h0a14.22,14.22,0,0,1,3.3,1.81,11.75,11.75,0,0,1,2.67,2.34,1.77,1.77,0,0,1-.11,1.92,1.66,1.66,0,0,1-.85.64h-.11a.11.11,0,0,1-.11-.11l-.1-.21c-.11-.11-.22-.32-.32-.43-1.07-1.17-2.24-2.13-3.41-3.19h0c-1.92-1.49-3.41-3.3-5.33-4.9-1.81-1.81-4.15-3.09-5.75-5-.42-.64-1.17-1.27-1.7-1.91a3.27,3.27,0,0,1-.21-2.45c1.06-2.88,1.91-5.54,2.87-8.42,1.28-2.45,2.24-5.11,3.73-7.35.11-.63.32-1.27.43-1.91a5,5,0,0,0-.11-2.13l-.11.1c.11-.53-.64-1-.32-1.38h0c.11-.32-.64-.43-.42-.64h-.11c-.11-.32.11-.11,0-.32s-.21,0-.21-.21c.32-.22-.43-.75,0-.85.1.21,0-.32.32,0,0-.11-.11-.22-.22-.32s-.32-.32-.32-.22c-.21.11-.42.11-.32.43h.11c-.11.21,0,.11-.11.21.22.43,0,.53,0,.85h0c.22.11.22.43.32.64v.11c-.1.11.43.32.11.32a9.76,9.76,0,0,1,.75,2.66c.1.11,0,.75.21.53a2.49,2.49,0,0,0-.32,1.18v-.11c-.21.21-.11.32-.11.53s.11.32-.21.43c.11.1,0,.21-.11.42a1.66,1.66,0,0,0-.21.64h-.21a24.72,24.72,0,0,0-1.28,2.35c-.11.63-.75,1.38-.75,2a5.87,5.87,0,0,0-.85,1.6v-.11a5.53,5.53,0,0,0-.64,2c-.32.11-.42.43-.64.64-.1.54-.42,1.39-.64,2.13-.21.11-.1.64-.31.54-.22,1.06-.43,2.13-.75,3.4-.11.64-.21,1.18-.32,1.81a3.92,3.92,0,0,0,.11,1.07,1.08,1.08,0,0,0,.21.53c.11.22.11.32.21.43h0a6.4,6.4,0,0,0,1,.42s0,.11-.11,0c.32.32.43.75.75,1h-.11c.32.22.43.64.86.86v.1l.21.11a.15.15,0,0,1-.21,0c2.45,2.45,5.43,4.47,8.09,6.92h-.11l.64.32h-.1a15,15,0,0,0,2,1.7s-.21,0-.11.11c.64.32.64.85,1.07.75a.1.1,0,0,1-.11.1,15.69,15.69,0,0,1,1.92,1.81l.43.43.53.64.21.21.11.11h.1c.11-.11.32-.11.43-.21a.81.81,0,0,1,.43-.22c.1-.1.21-.1.32-.21a4.18,4.18,0,0,0,.53-1.17,2.63,2.63,0,0,0-.22-1.28,3.48,3.48,0,0,0-1.59-1.7h0c-1.71-1.07-3.41-2.24-5.22-3.2-.75-.43-1.28-.64-2-1.06V95.3c-1.38-.43-2.44-1.81-3.83-2.45h.11c-.32,0-.64-.64-.75-.32l-.1-.21a1.93,1.93,0,0,1-1.07-1c-.32-.43-.53-.85-1-1.39h.11a1.57,1.57,0,0,1-.43-.85l.11.11a16.73,16.73,0,0,1-.43-3.2l.11.11a8.52,8.52,0,0,1,.42-2.13V83.8H111C111.52,82.52,111.84,81.67,112.16,80.81Z"/><path class="cls-5" d="M76.7,44.6s-17-.64-20.13,2.24a7.89,7.89,0,0,0-2.67,6c0-.53,3.84.43,6.18-1.6s10.44.64,12.89-.1L83,48Z"/><path class="cls-1" d="M76.91,45.24h0l-.43.11C76.59,45.56,76.91,45.13,76.91,45.24Z"/><path class="cls-1" d="M77,45.35a.15.15,0,0,0,.21,0C77.12,45.35,77.12,45.13,77,45.35Z"/><path class="cls-1" d="M76.48,50v.11c.43-.32,1.07-.32,1.49-.53h0L79.89,49c.53-.21,1.17-.53,1.81-.75v.11a.11.11,0,0,1,.11-.11v.11a4.72,4.72,0,0,0,.53-.11c.11-.1.11-.1.43-.1h-.32a9.63,9.63,0,0,1-1.07-.54c-.42-.21-1-.42-1.49-.64v-.1a8.07,8.07,0,0,1-2.55-1.17c-.11.1,0,.1-.11.1.21.22.53.11.74.32l-.1.11c.1.11.1-.11.21,0s-.11.11,0,.11a2.68,2.68,0,0,0,1.17.42c0,.21.43.21.43.43.11,0,.21.1.32,0l.64.32.32.21.1.11.54.21c-.11.11-.32.11-.54.21,0,.11-.21.22-.42.22a1.26,1.26,0,0,1-.54.1,4,4,0,0,0-1.17.32h0a2.73,2.73,0,0,1-1,.43l-.21.21a14.3,14.3,0,0,0-2.87.75l-1.39.42c-.21.11-.53.11-.74.22s-.43.1-.64.1c-2.13,0-4.16-.74-6.39-.53v-.11a10.55,10.55,0,0,0-1.81-.1h0c-.75.1-1.6.1-2.35.21a5.2,5.2,0,0,0-1.17.43,1.77,1.77,0,0,0-.53.42l-.32.43a6.79,6.79,0,0,1-2.56.85c-1,.21-1.91.11-2.77.32l.11-.11a.34.34,0,0,0-.21.11v-.53a4.55,4.55,0,0,1,.21-1.07c.21-.64.53-1.28.85-2a21.34,21.34,0,0,1,1.28-1.92,3.47,3.47,0,0,1,1.92-1.28c1,0,2-1,3-.74a15.72,15.72,0,0,0,5.43-.64c1.71.1,3.41-.43,5-.11.74-.21,1.59.32,2.45.21v-.1c.32.21.74-.32.85,0h0c.21.21.42-.43.53-.22v-.1c.21,0,0,.1.21.1s0-.21.11-.1c0,.42.53-.11.53.32-.1,0,.22.21-.1.21.1,0,.42,0,.42-.11s.22-.32,0-.53v.11c-.1-.11,0-.11-.1-.21s-.32-.22-.54-.32h0c-.1.21-.32.1-.42,0v-.11c-.11-.21-.32.32-.22,0a9.93,9.93,0,0,1-1.81,0c-.1.11-.42,0-.32.21-.1-.21-.63-.32-.74-.32h0c-.32-.32-.43.32-.64-.1,0,.21-.53-.11-.75.21v-.11c-.53,0-1.17-.1-1.59-.1-.43.21-1-.11-1.28.21a1.48,1.48,0,0,0-1.17,0h0a2.56,2.56,0,0,0-1.28.32c-.11-.32-.32-.21-.53-.32a4.8,4.8,0,0,1-1.28.32c-.11-.11-.32.11-.43-.11a11.24,11.24,0,0,1-4.26.64h0a3.55,3.55,0,0,0-.42.64v-.11c-.22.11-.54,0-.75.11v-.11c-.21.22-.53,0-.75.32h0l-.1.11c0-.11-.11-.11,0-.21a1.73,1.73,0,0,0-.75.42l-.42.32-.32.32a4,4,0,0,0-1,1.39A11.55,11.55,0,0,0,53.8,51v.32l-.11-.11a4.29,4.29,0,0,0-.11,1.18,1.13,1.13,0,0,0,.11.32h0v.1a.11.11,0,0,0,.11.11c0,.11-.32.21-.22.21s.54-.32.64-.42.22-.11.32-.11.22,0,.32-.11v.11a17.86,17.86,0,0,0,3.3-.53,8.17,8.17,0,0,1,1.28-.75c.22-.11.43-.32.64-.42s.32-.32.53-.43v.11c1.07-.64,2.45-.43,3.62-.32.54.1.86,0,1.39.1v.11c1-.21,1.81.53,2.77.32l-.11.11c.22-.22.53.1.53-.22l.11.11c.64-.32,1.07.32,1.92.11l-.11.1c.21,0,.43-.1.64,0h-.11a1.77,1.77,0,0,0,1.07,0c.32-.1.64-.32,1-.42v.1a7.53,7.53,0,0,1,1.28-.53v.11l.21-.11v.11A2.89,2.89,0,0,0,76.48,50Z"/><polygon class="cls-1" points="4.7 27.56 4.7 27.56 4.8 27.45 4.7 27.56"/><path class="cls-1" d="M5.23,27h0l-.32.42C5.23,27.56,5.12,26.92,5.23,27Z"/><path class="cls-1" d="M5.44,27a.22.22,0,0,0,.22-.22S5.34,26.81,5.44,27Z"/><path class="cls-1" d="M25.57,24.26l.11-.11a20,20,0,0,1-2.56-.1h.11a41.21,41.21,0,0,0-6.28.21l.1-.11c-.1,0-.21.11-.32.11a.11.11,0,0,1,.11-.11c-.43-.21-1.28.22-1.6.11-.1,0-.21.11-.1.21a27.66,27.66,0,0,0-5,1,.11.11,0,0,1-.11-.11c-1.38.64-2.77,1-4.15,1.49,0,.11.21,0,.11.11.42-.11.74-.53,1.17-.53v.11c.32-.11,0-.22.32-.22.1,0,0,.11.1.11a5.26,5.26,0,0,0,1.81-.75c.22.11.64-.1,1,0,.11-.1.32-.1.32-.21a68.63,68.63,0,0,1,7-.85c1.07-.43,2.45,0,3.73,0h0a3.91,3.91,0,0,1,1.6,0l.42-.11c3.09.43,6.29.64,9.38,1.17,3.51.64,6.6,1.39,10.11,1.71,0,0,0,.1-.1,0A19.34,19.34,0,0,1,45.6,28h0c2.34.21,4.79,1.17,7,1.49.74.21,1.59.42,2.55.74V30c-1,0-2,.11-3.09.11a26.48,26.48,0,0,0-3.09.42v-.1c-1.17.21-2.34.32-3.4.42a17.6,17.6,0,0,0-3.41.64l-1.81.32c-.64.21-1.17.32-1.81.53-1.17.43-2.35.75-3.52,1.07-1.49.1-3.19,1.28-4.68,1.38a24.54,24.54,0,0,0-8.1,2.88c-2.55.74-4.9,2.13-7.45,2.77-1.07.64-2.45.74-3.73,1.28l.1.1c-.53,0-.85.75-1.27.53h0c-.32-.1-.32.64-.64.54V43c-.32.11-.11-.1-.32,0s0,.22-.11.22c-.21-.32-.64.42-.85,0,.21-.11-.32,0,0-.32-.11,0-.64.32-.53.42s0,.43.32.43v-.11c.21.11.1,0,.21.11.32-.21.53,0,.85,0h0a.75.75,0,0,1,.53-.32h.11c.11.11.32-.53.32-.21a16.26,16.26,0,0,1,2.45-1.17c.11-.11.64-.32.43-.43a2.14,2.14,0,0,0,1.17-.21v.1c.64.11.42-.53,1.06-.32,0-.32.85-.21,1-.64a.11.11,0,0,1,.11.11c.85-.32,1.7-.53,2.34-.85s1.49-.43,1.81-1a6.36,6.36,0,0,0,1.71-.53v.1a4.27,4.27,0,0,0,1.81-1c.32.21.53.1.85,0,.42-.32,1.28-.54,1.92-1,.1.1.53-.22.63-.11a17.51,17.51,0,0,1,6.29-1.92h0a4.69,4.69,0,0,1,.74-.74v.1a5.36,5.36,0,0,0,1.18-.21v.11c.31-.22.74,0,1.17-.32h0l.21-.11c0,.11,0,.21-.11.21,3.2-.74,6.5-1.91,9.91-2.44l-.11.1L47,31a.11.11,0,0,1-.11.11,16,16,0,0,0,2.45-.43s-.1.11,0,.11c.54-.22,1,.1,1.28-.32,0,0,.11.1,0,.1a24.22,24.22,0,0,1,4.8-.32h2.23l-2.13-.74-.21-.11c-1.49-.11-2.88-.74-4.47-.85v-.11A57.3,57.3,0,0,1,45.06,27c-.74-.22-1.38-.22-2.13-.43v-.1c-1.38,0-2.77-.86-4.36-.75l.1-.11c-.21.11-.85-.21-.85.11l-.21-.11c-1.07.22-1.71-.53-3-.42l.1-.11a2.59,2.59,0,0,1-1-.11h.11a10.51,10.51,0,0,0-3.19-.42l.1-.11a15.47,15.47,0,0,1-2.13-.21v-.11l-.32.11v-.11A26.07,26.07,0,0,1,25.57,24.26Z"/></svg>