<svg id="Layer_1" data-name="Layer 1" xmlns="http://www.w3.org/2000/svg" viewBox="0 0 200 170"><defs><style>.cls-1{fill:#daece1;}.cls-2{fill:#68be96;}.cls-3{fill:none;}.cls-4{fill:#f0f7f3;}.cls-5{fill:#e1f0e7;}.cls-6{fill:#cae5d4;}.cls-7{fill:#e9f4ed;}.cls-8{fill:#bbdcc8;}</style></defs><title>Artboard 7</title><path class="cls-1" d="M45.34,71.69s12.9,75.6,13.6,80.4.9,10.1,7,11.1,51.6,3.5,55.8,3.3,10.1-1.5,13.6-4.8,6.4-5.5,7.9-7.4,3.7-3.1,4.6-13.6,10.7-78.1,10.7-78.1"/><polygon class="cls-2" points="157.34 62.39 157.24 62.49 157.44 62.89 157.34 62.39"/><path class="cls-2" d="M157.54,64.59c0-.1.1,0,.2-.1l-.4-1.4C156.84,63.69,157.74,64.29,157.54,64.59Z"/><path class="cls-2" d="M157.44,65c-.2.5,0,.7.1.8C157.34,65.69,157.74,64.89,157.44,65Z"/><path class="cls-2" d="M150.74,119.79l.2.1c-.1-2.2.6-4.5.8-6.7l.1.2c.9-5.7,1.2-10.9,1.9-16.6,0,.1.1.1.1.2,0-.3-.1-.6-.1-.9.1-.1.1.1.1.2.5-1.1.3-3.5.6-4.2,0-.3-.1-.5-.3-.3.5-4.4,1.1-9.1,1.5-13.6.1-.2.2-.2.3-.2a79.1,79.1,0,0,1,1.4-11.8c-.1-.2-.2.4-.3,0-.4,1.2,0,2.4-.4,3.5l-.1-.2c-.2.8.4.2,0,1.1-.2.3-.2-.1-.2,0a32.7,32.7,0,0,0-.5,5.3c-.4.4-.3,1.9-.7,2.5.1.5,0,.9.2,1.1-1.1,6.2-1.6,12.5-2.6,18.8.2,3.1-1,6.5-1.3,10h-.1a32.92,32.92,0,0,1-.4,4.2l.1,1.2c-1.7,8.2-2.5,16.6-3.7,25-.3,2.4-.5,4.7-1,6.9a18.53,18.53,0,0,1-2.1,6l-.9,1.2c-.3.4-.8.9-1.1,1.3-.7.8-1.5,1.5-2.3,2.3-1.6,1.5-3.3,3.1-4.9,4.9,0-.1-.1,0,0-.2-1.8,1.9-4.1,2.7-6.4,3.6v-.1a22.41,22.41,0,0,1-9.3,1.4c-3.2-.1-6.5-.3-9.5-.1-7.4-.4-15.7-.8-23.6-1.2v-.1c-6.3-.1-12.3-1.2-18.5-1.6a12.94,12.94,0,0,1-4.5-1.1,6.55,6.55,0,0,1-1.8-1.5,7.19,7.19,0,0,1-1.2-2.1,25.94,25.94,0,0,1-1.2-4.8,38.53,38.53,0,0,1-.7-4.9c-.1-4-2.2-9-2.2-12.9-.3-7.8-2.2-15.1-4.1-22.6-.9-7.1-2.9-14-3.4-20.9-1-3.2-.6-6.9-1.3-10.5l-.1.2c.2-1.4-1.1-2.8-.6-3.7l.1.1c.2-.7-1.1-1.4-.7-1.9l-.2-.1c-.2-.8.2-.1.1-.8-.1-.2-.3,0-.3-.6.7-.2-.5-2,.3-2.2.1.5.2-.8.5.2,0-.3-.2-1.7-.6-1.5-.4-.1-.8-.5-.9.3l.3.1c-.2.3-.1.2-.3.4.2,1.1-.2,1.3-.2,2.1h0c.4.5.3,1.3.4,1.7l-.1.2c-.3.3.8,1.2.2.9.5,2.2.9,4.8,1.4,7.3.3.3.3,1.9.6,1.3a9.15,9.15,0,0,0,0,3.3s-.1,0-.1-.2c-.3,1.4.8,1.5.3,2.9.5.1.2,2.3.9,2.9-.1.2-.2.2-.3.2.4,2.3.6,4.8.9,6.7.7,1.6.5,4,1.3,5.3a17.27,17.27,0,0,0,.7,4.7l-.1-.1a22.57,22.57,0,0,0,1.4,5.3c-.5.6-.2,1.4-.3,2.2.5,1.2.8,3.7,1.4,5.5-.2.3.4,1.5,0,1.7a80.18,80.18,0,0,1,2.9,17.3v-.1a25.29,25.29,0,0,0,1.3,2.2c0,.1-.1.1-.1-.1.2,1,0,2,.3,3-.1,0-.1,0-.2-.2.3.9,0,2,.5,3.1l-.1.1.3.7c-.1,0-.3,0-.3-.4a28.4,28.4,0,0,0,1.4,6.8,7.71,7.71,0,0,0,5.5,5,22.1,22.1,0,0,0,3.5.4l3.4.2c2.3.1,4.6.3,6.8.5l-.3.1,1.8-.1c0,.1-.1.1-.2.1,2.2.4,4.6.2,6.8.4,0,.1-.4.2-.1.3,1.6-.2,2.6.6,3.4-.1.1,0,.1.2-.1.3,4.5,0,9.2.3,13.7.7,3.8-.5,8,.4,12,0v.1c1.3-.1,2.6-.1,3.9-.1s2.6,0,4-.1a23.91,23.91,0,0,0,7.8-1.8,14,14,0,0,0,4.9-3.4l.2.1a20.22,20.22,0,0,1,4.3-3.9,21.1,21.1,0,0,0,2.3-1.9,5.8,5.8,0,0,0,1-1.2,8.34,8.34,0,0,0,.8-1.2v.4c.1-.3.5-.8.7-1.2s.4-.8.1-.8l.5-.5a18.93,18.93,0,0,1,1-3.6,10.56,10.56,0,0,0,.7-4.2l.1.2a9.37,9.37,0,0,1,.2-2.5c0,.1.1.1.1.3.8-2.6.6-5.6.9-8.5l.2.4c-.1-1.4.5-3.9.6-5.7l.1.1-.1-.9h.2C150.44,124.29,150.44,122.09,150.74,119.79Z"/><line class="cls-3" x1="138.44" y1="71.69" x2="130.24" y2="164.79"/><polygon class="cls-2" points="131.54 164.89 131.64 164.89 131.44 164.79 131.54 164.89"/><path class="cls-2" d="M131.14,164.19H131l.6.5C131.94,164.49,130.94,164.29,131.14,164.19Z"/><path class="cls-2" d="M131.24,164c.2-.2-.1-.3-.2-.3C131.24,163.79,130.94,164,131.24,164Z"/><path class="cls-2" d="M131.84,145l-.2-.1c.3.8-.1,1.6,0,2.3l-.1-.1a37.45,37.45,0,0,0-.1,5.8.1.1,0,0,1-.1-.1c.1.1.2.2.2.3s-.1,0-.1-.1c-.4.4.1,1.2-.2,1.5a.19.19,0,0,0,.3.1c0,1.5-.1,3.2,0,4.8a.19.19,0,0,1-.3,0,8.11,8.11,0,0,1-.1,4.1c.2.1.2-.1.3,0,.2-.4-.3-.8,0-1.2l.1.1c.1-.3-.4-.1-.2-.4a.14.14,0,0,1,.2,0,4.15,4.15,0,0,0-.1-1.9c.3-.1.1-.7.4-.9-.1-.2-.1-.3-.3-.4.4-2.1.2-4.4.5-6.5-.5-1.1.3-2.2.2-3.5h.1a3.78,3.78,0,0,1,0-1.5l-.2-.4c.8-2.8.7-5.8,1.2-8.6.5-3.3,1.2-6.1.6-9.4.1,0,.1,0,.1.1a24.62,24.62,0,0,0,.2-2.6h.1c-.3-2.2.5-4.5.1-6.6.3-2.5.5-5.4.6-8.1h.1c-.1-2.2.8-4.2.8-6.4.5-2.2-.3-4.6.3-6.8.7-1.3-.4-3.3.3-4.5,1.2-2.6.8-5.2.5-7.9.6-2.4-.1-5,.8-7.3-.3-1.2.8-2.3.7-3.6h-.2c.5-.4-.6-1.1.2-1.3V74c.4-.2-.8-.6-.4-.7l-.2-.1c0-.3.2,0,.3-.2s-.3-.1-.2-.2c.7,0-.1-.7.7-.7,0,.2.3-.2.5.1.1-.1.1-.6-.3-.6s-.7-.3-1,0l.3.1c-.3.1-.1.1-.3.1-.1.4-.5.4-.6.7h0c.3.2.1.5,0,.6h-.2c-.3.1.6.5,0,.3A11.54,11.54,0,0,1,137,76c.2.1-.1.7.3.5a1.16,1.16,0,0,0-.6,1.1.1.1,0,0,1-.1-.1c-.6.4.5.6-.3,1,.5.1-.2.8.3,1.1-.1,0-.2.1-.3,0-.1.8-.3,1.6-.4,2.3.4.6-.3,1.4.2,1.9a2.13,2.13,0,0,0-.3,1.6l-.1-.1a3.08,3.08,0,0,0,.3,1.9c-.6.1-.5.4-.7.7.2.5.1,1.3.3,2-.3.1.1.5-.3.5a9.61,9.61,0,0,1-.6,6h0a7.64,7.64,0,0,0,.9.9h-.1c0,.4-.4.7-.3,1-.1,0-.1,0-.1-.1.1.3-.4.7-.1,1.1h-.1l.1.3c-.1,0-.3,0-.3-.2-.4,3,0,6.3-.4,9.4l-.1-.1.2.6c-.1,0-.1,0-.1-.1-.3.8,0,1.6-.1,2.3-.1,0-.2-.1-.3,0,.3.6-.5.9.2,1.2h-.3a24.23,24.23,0,0,1-.3,4.7c.5,1.4-.2,2.8.2,4.2h-.1c.3,1.8-.4,3.6-.4,5.4-.1.8,0,1.3-.1,2h-.2c.5,1.3-.8,2.6-.2,4l-.2-.1c.3.2-.2.8.4.8l-.2.2c.7,1-.5,1.6-.1,2.8l-.1-.1a1.38,1.38,0,0,1,0,.9.1.1,0,0,1-.1-.1c-.6.9-.1,2-.2,2.9l-.2-.1c.3.5-.1,1.3,0,2h-.1l.1.3h-.2A20.83,20.83,0,0,0,131.84,145Z"/><path class="cls-4" d="M94.44,109.69c1.1-.6,2.2-1.3,3.3-1.9-1.2-2.1-2.4-4.1-3.6-6.2l-5.7,9.9c-3.4-2-6.8-4-10.3-5.9a15.05,15.05,0,0,1,1-1.7c2.1-3.6,4.1-7.2,6.2-10.8a6.29,6.29,0,0,1,5.8-3.3h6.1a6.8,6.8,0,0,1,5.8,3.3c1.7,2.8,3.3,5.7,4.9,8.5,0,.1.1.1.2.3,1.1-.6,2.1-1.2,3.2-1.9-1.5,3.9-3,7.6-4.6,11.4C102.64,110.89,98.54,110.29,94.44,109.69Z"/><polygon class="cls-2" points="94.24 110.99 94.34 111.09 94.44 110.89 94.24 110.99"/><path class="cls-2" d="M95.24,110.69v-.1l-.6.5C94.74,111.39,95.14,110.39,95.24,110.69Z"/><path class="cls-2" d="M95.34,110.79c.2.2.3-.1.4-.2C95.64,110.79,95.34,110.49,95.34,110.79Z"/><path class="cls-2" d="M110.44,101.59l-.2-.1c.1.9-.7,1.7-.8,2.6l-.1-.1a66,66,0,0,0-2,6.3l-.1-.1c0,.1.1.3.1.4a.1.1,0,0,1-.1-.1c-.3.2-.4.7-.5,1.2a1.27,1.27,0,0,1-.6-.1.19.19,0,0,0-.1.3c-.5,0-1-.1-1.5-.1s-.9-.1-1.4-.1a24.37,24.37,0,0,0-2.7-.1.19.19,0,0,1,0-.3c-1.6.4-3.2-.1-4.7-.4-.1.1.1.2,0,.3.5.3,1-.2,1.4.1l-.1.1c.3.1.1-.4.4-.1.1.1-.1.2,0,.2.7,0,1.4.3,2.1,0,.1.3.7.1,1,.5.2-.1.4,0,.5-.2a25.12,25.12,0,0,0,2.7.4c1.1.1,2.3.3,3.4.4l.6-1.5.4-1c-.2-1.3,1.1-2.4,1.4-3.8h.1a3.32,3.32,0,0,1,.5-1.6l-.1-.5a26.4,26.4,0,0,0,1.8-3.8l.8-1.9-1.8,1c-.8.4-1.5.9-2.3,1.3l-.3.2c-.1,0-.1-.2-.2-.3l-.5-1c-.9-1.7-1.6-3.3-2.5-4.9-.4-.8-.9-1.5-1.4-2.3a6.42,6.42,0,0,0-2.3-2,.1.1,0,0,1,.1-.1,7.1,7.1,0,0,0-3.1-1.3V89a12.75,12.75,0,0,0-2,.1h-1.9a15.83,15.83,0,0,0-3.8.3,6.5,6.5,0,0,0-4.3,1.7,5.58,5.58,0,0,0-1.4,2c-.4.7-.7,1.4-1.1,2.1l-.1-.1c-1,2.3-2.8,4-3.9,6.3a9.5,9.5,0,0,0-1,1.7c-.1.3-.3.6-.4.9l-.4,1-.2.5a.1.1,0,0,0,.1.1l.1.1.3.1a3.55,3.55,0,0,0,.9.4,8.64,8.64,0,0,1,1.6,1c1.1,1.3,3.5,1.2,4.5,2.5a15.38,15.38,0,0,0,1.3,1.2,5.55,5.55,0,0,0,.8.6,8.79,8.79,0,0,0,1,.6c.3-.5.6-1.1.9-1.7.2-.4.4-.9.6-1.3a23.07,23.07,0,0,0,1-2.8c.6-.8,1-1.6,1.5-2.4s1-2.1,1.6-3.1a12,12,0,0,1,1.4,3.1,3.42,3.42,0,0,1,.9,1.8c.1.3.2.7.3,1a3,3,0,0,0,.4.8h.2c-.1.1-.1.1,0,.2-.1.1-.1.3-.2.4a.44.44,0,0,1-.5.1h0c-.4-.2-.1,1-.4.7v.2c-.3.2-.1-.2-.4-.1-.1.1.1.3-.1.3-.4-.6-.6.5-1.1-.1.2-.1-.4-.1-.1-.5-.1,0-.6.3-.4.6s.1.7.5.8l-.1-.3c.2.2.1.1.3.2.4-.2.6.1,1,.1h0c0-.4.4-.4.6-.4l.1.1c.2.2.1-.8.3-.2a1.38,1.38,0,0,1,.4-.3,2.19,2.19,0,0,0,.5-.3c.4-.2.7-.5,1.1-.7-.4-.6-.8-1.3-1.2-2-.3-.1-.4-.7-.6-.3.3-.4,0-1.1-.2-1.4h.1c.2-.8-.8-.3-.4-1.1-.2.1-.3-.1-.4-.4s-.5-.9-.8-.8c0-.2.1-.3.1-.4-.5-.9-1-2-1.5-2.9-.4.6-.7,1.1-1,1.6-.4,1.6-1.8,2.7-1.4,3.3a4.08,4.08,0,0,0-1.1,1.6v-.1c-.3.7-.8,1.5-.7,2.1-.6-.1-.7.2-1,.4a5.39,5.39,0,0,1-.3,1,1.42,1.42,0,0,0-.2.6c-.1.2-.2.4-.1.5-.2-.2,0,.3-.3-.1v.3c0,.1-.1.1-.2.1h-.1c-.1,0-.1,0-.2-.1a6.38,6.38,0,0,1-1.4-.8,12.66,12.66,0,0,1-2.5-2.1h0a6.47,6.47,0,0,0-1.3.4.1.1,0,0,1,.1-.1c-.4-.1-.5-.7-.9-.8,0-.1,0-.1.1-.1-.4,0-.5-.7-1.1-.6V106h-.3c.1-.1.2-.3.3-.2l-.6-.3a.1.1,0,0,1-.1-.1l-.1-.1v-.2h0l.1-.1.1-.3.6-1.2c.8-1.6,1.6-3.3,2.5-4.8v.2l.2-.7a.1.1,0,0,1,.1.1,18.34,18.34,0,0,0,1.3-2.4c.1,0,.1.2.2.1,0-.7.9-.7.4-1.3l.2.1.6-1.2a3.59,3.59,0,0,1,.7-1,3.9,3.9,0,0,1,2-1.3,2.57,2.57,0,0,1,2-.8,6.61,6.61,0,0,0,2.4-.3v.1a15.64,15.64,0,0,1,3.1-.2,15.46,15.46,0,0,1,3.1.4,7.5,7.5,0,0,1,2,1l-.1.1a2.4,2.4,0,0,1,1.5,1.6,5.1,5.1,0,0,0,1.2,2h-.2c.4,0,.4.9.8.5V96c1.2.5.6,1.8,1.7,2.7h-.2a1.56,1.56,0,0,1,.6.8h-.1a2.13,2.13,0,0,0,.7,1.5,4.35,4.35,0,0,0,.6.7l.3.3c0,.1.1,0,.2,0l.2-.1c-.1.1-.1.3-.2.4.6-.7,1.6-.9,2.1-1.4v.1l.2-.3.1.2c.3-.2.5-.3.8-.5l-.5-.4A4.53,4.53,0,0,1,110.44,101.59Z"/><path class="cls-4" d="M92.64,131.19l7.7-9.5v3.4c0,.2,0,.3.2.3,2.3,0,4.5,0,6.8.1h.2c-1.9-3.3-3.7-6.6-5.6-9.9,3.5-1.9,6.9-3.9,10.4-5.8.3.5.5,1,.8,1.4,2.1,3.7,4.2,7.4,6.2,11.1a6.64,6.64,0,0,1-.1,6.8l-3,5.1a6.5,6.5,0,0,1-5.1,3.2c-1.3.1-2.6,0-3.9,0-2.2,0-4.3,0-6.5-.1h-.5v3.6h-.1C97.64,137.69,95.14,134.39,92.64,131.19Z"/><polygon class="cls-2" points="91.64 131.99 91.54 132.09 91.84 132.09 91.64 131.99"/><path class="cls-2" d="M92.54,132.39l.1-.1h-.8C91.64,132.59,92.64,132.19,92.54,132.39Z"/><path class="cls-2" d="M92.54,132.59c0,.2.3.1.4.1C92.74,132.79,92.74,132.29,92.54,132.59Z"/><path class="cls-2" d="M107,137.19V137c-.8.4-1.8,0-2.7.1l.1-.1a17.93,17.93,0,0,0-3.3.1l-.8.1c-.2,0-.1.2-.1.3v.4c.1.6.1,1.1.2,1.6a.1.1,0,0,1-.1-.1c.1.1.2.2.2.3a.1.1,0,0,1-.1-.1,1.39,1.39,0,0,0,0,1.1v.1l-.1.1h-.2l-.1-.1c-.2-.1-.3-.3-.2-.4a.19.19,0,0,0-.3.1,34.39,34.39,0,0,0-3.7-4,.22.22,0,0,1,.2-.2c-1.4-.8-2.2-2.3-3.1-3.6-.2,0,0,.2-.3.2.2.5.9.5.9,1h-.2c.1.3.3-.2.4.2,0,.2-.2.1-.1.1.5.5.8,1.2,1.5,1.5-.2.3.5.6.4,1,.2.1.3.2.5.2a45.8,45.8,0,0,0,3.4,4.3l.4.5.5-.2h.1l.6-.2v-2.5c-.1-.2-.1-.3-.2-.4s-.1-.2-.1-.3v-.4h.2c.2,0,.4.1.6.1h.9v.1a3.22,3.22,0,0,1,1.7-.1l.5-.3a28.1,28.1,0,0,0,5,.4,11.84,11.84,0,0,0,2.6-.2,8.49,8.49,0,0,0,2.6-1.1,9.19,9.19,0,0,0,2.2-2.2c.5-.8,1-1.5,1.5-2.2s.9-1.5,1.3-2.3a6.51,6.51,0,0,0,.8-2.8c.1,0,.1,0,.1.1a6.16,6.16,0,0,0,0-3.3h.1c-.3-.6-.6-1.3-.9-1.8a15.05,15.05,0,0,0-1-1.7,16,16,0,0,0-2.1-3.2c-.7-1.3-1.4-2.6-2.2-4-.4-.7-.8-1.4-1.2-2l-.6-1.1-.3-.5c0-.1-.2,0-.2,0l-.3.2v-.2a15.05,15.05,0,0,1-1.7,1c-.5.3-1.1.5-1.7.8a25.86,25.86,0,0,0-3.3,1.7,16.18,16.18,0,0,0-1.8,1l-.9.6-.9.6a16.29,16.29,0,0,1,1.1,1.7,11.94,11.94,0,0,1,.8,1.6c.2,1.7,2.4,2.9,2.6,4.5a13,13,0,0,0,.3,1.5l.1.3v.1h-.9a3.08,3.08,0,0,0-.9.1,5.85,5.85,0,0,0-1.3.2c-.9.1-1.8.3-2.6.4h-.3a.37.37,0,0,1-.3-.1.22.22,0,0,1-.2-.2v-1.3c0-.6-.1-1.1-.1-1.5h0l-.1.1-.1.2-.2.3c-.2.2-.3.4-.5.6a4.22,4.22,0,0,1-1.2,1c-.5,1.3-2.1,1.8-2.9,3l.2.1c-.7.1-.2,1.3-1,1.1v-.1c-.4,0,.3,1-.2.9l.1.1c-.2.3-.2-.1-.4.1,0,.1.2.2,0,.3-.6-.4-.4.7-1,.2.1-.1-.4,0-.3-.4-.1,0-.5.5-.2.7s.4.6.8.6l-.2-.2c.3.1.2,0,.3.1.3-.3.6-.1,1-.3h0c-.1-.4.2-.5.4-.6h.2c.3.1-.2-.8.2-.3.5-.8,1.1-1.6,1.7-2.4-.1-.2.5-.6.1-.7a1.41,1.41,0,0,0,1.2-.6s.1.1,0,.1c.8-.1,0-.8.8-.8a.19.19,0,0,1,0-.3l.1-.1c.1,0,.1,0,0-.4a.37.37,0,0,1,.1.3c0-.1.1,0,.1,0v.2c.2-.6.2-.4.1-.3s0,.1.3-.3l-.2.4v.1h0v.1c0,.1.1.2.2.4-.1-.1-.2-.3-.3-.4a1.85,1.85,0,0,0,.7.9,1.76,1.76,0,0,0,.6.1h.3a1.27,1.27,0,0,0,.6-.1c.4-.1.7-.2,1-.3.2.6.5.5.8.7a2.51,2.51,0,0,1,1-.2,1.27,1.27,0,0,0,.6-.1h.4a.9.9,0,0,0,.5-.1c.3.3,1-.1,1.3.3h.1l.3-.1.2-.1c.1-.1.2-.2.3-.2l.2-.1a.1.1,0,0,0,.1-.1c.1-.1-.1-.3-.1-.5a2.92,2.92,0,0,1-.2-.9c-.2-.4-.5-.8-.7-1.2a4.53,4.53,0,0,1-.5-1c-.1-.3-.2-.5-.3-.8a10.93,10.93,0,0,1-.5-1.7h0c-.3-.1-.9-.2-1.3-.3,0,0,.1-.1.1,0-.3-.3-.1-.8-.4-1.2h.1c-.3-.3-.1-.8-.6-1.1l.1-.1-.3-.2c.1-.1.3-.1.3,0l-.3-.5.1-.3c0-.1-.1-.1-.2-.2a17.4,17.4,0,0,1,2.5-1.7c1.2-.8,2.3-1.5,3.6-2.2l-.1.2.5-.5v.1a6.72,6.72,0,0,0,1.2-.6l.3-.2.1-.1c.1-.1.2-.2.3-.2s-.1.3,0,.3.1-.2.2-.2v.3c0,.2,0,.2.3,0,0,0-.1.2-.2.2l.2.2.4.5c.2.4.5.8.7,1.2.5.8.9,1.6,1.3,2.4,1.3,1,1.6,2.7,2.8,3.8l-.1.1a14.52,14.52,0,0,1,1.7,2.6,9.78,9.78,0,0,1,.9,2.9,8.13,8.13,0,0,1-.1,2.2h-.2a2.66,2.66,0,0,1-.9,2,4,4,0,0,0-1.1,2l-.1-.2c.2.4-.6.7,0,1l-.3.1c.1.6-.3,1-.6,1.4a3.88,3.88,0,0,0-1,1.4l-.1-.2c-.1.3-.3.7-.6.8v-.1a4.68,4.68,0,0,0-1.4.8,3.61,3.61,0,0,1-1.5.8l.1-.3c-.4.4-1.5.3-2.1.4v-.1l-.4.2v-.2A12.21,12.21,0,0,0,107,137.19Z"/><path class="cls-2" d="M94.34,131a.1.1,0,0,0-.1.1A.1.1,0,0,1,94.34,131Z"/><path class="cls-4" d="M85.64,120.89c-1.1-.6-2.2-1.2-3.3-1.9-1.2,2.1-2.4,4.1-3.6,6.2h11.4v11.9H75.94a6.68,6.68,0,0,1-6-3.4l-3-5.1a7,7,0,0,1-.9-3.7,8.5,8.5,0,0,1,1.1-3.4c1.6-2.7,3.1-5.4,4.7-8.1,0-.1.1-.1.1-.2-1-.6-2.1-1.2-3.2-1.9a10,10,0,0,1,1.6-.2c1.7-.2,3.3-.5,5-.7s3.3-.5,4.9-.7c.7-.1.7-.1.9.5l4.2,10.5C85.54,120.69,85.64,120.69,85.64,120.89Z"/><polygon class="cls-2" points="86.94 120.39 86.94 120.29 86.74 120.29 86.94 120.39"/><path class="cls-2" d="M86.14,119.69l-.1.1.7.3C87,119.69,86,120,86.14,119.69Z"/><path class="cls-2" d="M86.14,119.59c.1-.2-.2-.2-.3-.2C86,119.29,85.84,119.69,86.14,119.59Z"/><path class="cls-2" d="M70.64,111.09v.2c.8-.5,1.8-.3,2.6-.6v.1a50.3,50.3,0,0,0,6.5-1.4l-.1.1c.1-.1.3-.3.4-.3a.1.1,0,0,1-.1.1c.2.2.5,0,.9-.1a.47.47,0,0,1,.6.5c.1.1.2.1.3-.1.7,1.6,1.5,3.3,2.4,4.9a.22.22,0,0,1-.2.2c1.1,1.1,1.5,2.8,2,4.3.2,0,.1-.2.3-.1,0-.6-.7-.7-.6-1.3h.2c0-.4-.4.1-.3-.3.1-.2.2-.1.2-.1a5.24,5.24,0,0,0-1.1-1.9c.2-.3-.3-.7-.1-1.1-.2-.1-.2-.3-.4-.3a36.46,36.46,0,0,0-1.4-3.5l-.4-.9a3.29,3.29,0,0,0-.3-.6.92.92,0,0,0-.6-.4.85.85,0,0,0-.7,0l-.5.1-1,.1a3.51,3.51,0,0,1-2,.5,7.14,7.14,0,0,0-2.1.2v-.1a4.19,4.19,0,0,1-1.6.4l-.4.3a28.28,28.28,0,0,0-4.1.3l-2,.3,1.7,1c.8.4,1.5.9,2.3,1.3l.3.2c0,.1-.1.2-.2.3l-.6.9c-1,1.6-2,3.1-2.9,4.6a18.34,18.34,0,0,0-1.3,2.4,5.76,5.76,0,0,0-.5,2.9c-.1,0-.1,0-.1-.1a7.17,7.17,0,0,0,.4,3.3H66c.3.6.8,1.2,1.1,1.7s.7,1.1,1,1.7a13,13,0,0,0,2.1,3.1,6.2,6.2,0,0,0,3.7,2.8,9.86,9.86,0,0,0,2.4.3c.8,0,1.6-.1,2.3-.1v.1c2.5-.3,4.9.4,7.3.2a8.09,8.09,0,0,0,2.2,0l2.3-.3a11.48,11.48,0,0,1-.1-1.8,9.7,9.7,0,0,1,.1-1.7c.6-1.6-.7-3.7-.1-5.2a10.46,10.46,0,0,0,.4-1.7c0-.2.1-.7.1-1v-1.1a12.1,12.1,0,0,0-1.9.1,5.9,5.9,0,0,0-1.4.2,29.31,29.31,0,0,0-2.9.5,13.1,13.1,0,0,0-2.8,0c-.9.1-2.3.1-3.5.2a15.21,15.21,0,0,1,1.9-2.8,3.16,3.16,0,0,1,1.1-1.7l.8-.8a1.79,1.79,0,0,0,.5-.7l-.1-.1c.1,0,.2,0,.2-.1s.3-.1.4-.1.3.1.4.4h0c0,.4.9-.4.8,0l.1-.1c.3.1-.1.2.1.4.1,0,.2-.3.3-.1-.3.6.8.3.4,1-.2-.1.1.4-.3.4.1.1.6.4.7,0s.6-.5.4-.9l-.2.2c0-.3,0-.2.1-.4-.4-.2-.2-.6-.4-.9h0c-.3.2-.5-.1-.6-.3v-.2c.1-.3-.7.3-.4-.1a1.69,1.69,0,0,1-.5-.2l-.6-.3-1.2-.6c-.3.6-.7,1.3-1.1,2,.1.3-.4.7,0,.7-.5,0-1,.6-1.1.8,0,0-.1-.1,0-.1-.8.2.1.8-.7.9.2.2.1.3-.1.6s-.5.9-.3,1.1a.76.76,0,0,1-.4.1c-.5.9-1.2,1.9-1.8,2.8.7,0,1.3.1,1.9.1,1.5-.4,3.2.2,3.6-.4a3,3,0,0,0,1.9.1l-.1.1a5.09,5.09,0,0,0,2.2-.4c.2.6.5.5.9.6a2.51,2.51,0,0,1,1-.2,1.27,1.27,0,0,0,.6-.1,1,1,0,0,0,.4-.1c0,.3.2-.1,0,.3l.2-.2c.1,0,.1,0,.2.1a.1.1,0,0,0,.1.1v1.8a30.62,30.62,0,0,1-.5,3.2h0a9,9,0,0,0,1,.9H90c.1.4-.3.8-.2,1.2-.1,0-.1,0-.1-.1.2.4-.3.8,0,1.2h-.1l.1.3c-.1,0-.3,0-.3-.2v1a3.55,3.55,0,0,1-1,.1c-.7.1-1.4.1-2.2.2-1.4.1-2.9.2-4.3.2l.1-.1-.7.2c0-.1,0-.1.1-.1a12.21,12.21,0,0,0-2.7.1c0-.1.1-.2,0-.3-.6.3-1-.5-1.4.3,0,0-.1-.2,0-.3a7.56,7.56,0,0,1-2.6,0,5.54,5.54,0,0,1-2.2-1,2.74,2.74,0,0,1-1.7-1.3,8.47,8.47,0,0,0-1.4-1.9l.1-.1a14.52,14.52,0,0,1-1.7-2.6,16.86,16.86,0,0,1-1.2-2.8,8.2,8.2,0,0,1-.2-2.2h.2a2.38,2.38,0,0,1,.7-2.1,3.89,3.89,0,0,0,1.1-2.1l.1.2c-.2-.4.6-.7,0-1l.3-.1c-.1-1.3,1.3-1.5,1.5-2.8l.1.1a2.47,2.47,0,0,1,.4-.9v.1a2.56,2.56,0,0,0,1-1.3l.3-.9c.1-.3.4-.6,0-.7h.4c-.9-.2-1.6-.9-2.3-1.1l.1-.1h-.4l.1-.2a3.55,3.55,0,0,0-.9-.4l-.1.6A4.68,4.68,0,0,0,70.64,111.09Z"/><path class="cls-2" d="M85.14,119.29c.1,0,.1.1,0,0Z"/><path class="cls-5" d="M46.64,54.49s-7.3,2.3-10.1,4.3-3.1,4.6-2.9,7.3.4,5.3,3.3,5.5,100.7,0,103.5,0a13.65,13.65,0,0,0,8.7-3.1c3.1-2.4,13.4-7.9,15.5-9.7a9.25,9.25,0,0,0,3.1-7.9c-.4-3.3.2-6.3-3.9-7.2s-5.7,0-5.7,0"/><path class="cls-2" d="M158.74,44.89h0l-.2-.3h0v.1l.2.2h0v-.1S158.64,44.89,158.74,44.89Z"/><path class="cls-2" d="M159.54,44.19a.1.1,0,0,0-.1-.1c-.2.2-.4.5-.6.7C159.24,45,159.34,44,159.54,44.19Z"/><path class="cls-2" d="M159.84,44.19c.3.1.4-.2.5-.3C160.24,44.19,159.74,43.89,159.84,44.19Z"/><path class="cls-2" d="M151.94,66.79V67c1-1.1,2.6-1.6,3.8-2.5v.1a37.57,37.57,0,0,0,4.7-3c.8-.5,1.5-1.1,2.3-1.6a18.11,18.11,0,0,0,2.1-1.8v.2c.1-.2.1-.4.3-.6.1,0,0,.1,0,.2a3.06,3.06,0,0,0,1-1.2c.3-.5.4-1,.7-1.1.1-.2,0-.4-.2-.3a7.59,7.59,0,0,0,.6-4.2,19.15,19.15,0,0,0-.8-4.4.22.22,0,0,1,.2-.2,4.36,4.36,0,0,0-2.5-1.9,20.85,20.85,0,0,0-3.6-.7c-.1.2.2.2,0,.3.7.2,1.5-.3,2.1.1l-.1.1c.5.2.2-.4.7-.1.2.2-.1.2,0,.2a4.67,4.67,0,0,1,1.4.4c.4.2.7.4,1.1.6-.1.2,0,.4.2.6a.88.88,0,0,1,.1.7c.2.2.2.5.4.6.1.9.1,2,.2,3.1a8.45,8.45,0,0,1-3.1,7.7c-1.2,1.7-3.7,2.3-5.6,3.6v-.1a11.13,11.13,0,0,1-2.4,1.6l-.5.6c-1.3.6-2.5,1.2-3.7,1.9-.6.4-1.2.7-1.8,1.1l-.9.6c-.3.2-.5.4-.8.6a11.44,11.44,0,0,1-7.6,2.3c-6.4-.1-12.1-.6-18.3.2,0-.1,0-.1.1-.1-1.8.1-3.5-.1-5.2,0v-.1c-4.2.5-8.8-.1-12.9.5-5-.1-10.6,0-15.8.2v-.1c-4.2.3-8.2-.4-12.4-.2-4.3-.3-8.9.7-13.2.3-2.7-.6-6.2.7-8.7.1-5.2-1-10.2-.4-15.4.2l-1.8-.1a6.36,6.36,0,0,1-1.8-.6,5.3,5.3,0,0,1-1.5-3.3,14.52,14.52,0,0,1-.2-3.6,7,7,0,0,1,1.2-3.4,4.53,4.53,0,0,1,2.5-2.4c1.1-.5,2.3-.8,3.4-1.3l-.1-.1c1,.1,1.6-1.4,2.3-.9l-.1.1c.6.2.7-1.2,1.1-.9v-.2c.5-.2.1.2.6.1.1-.1,0-.3.3-.3.3.7,1.3-.6,1.5.2-.3.1.6.1,0,.5.2,0,1.1-.3.9-.6,0-.4.2-.8-.4-.9v.3c-.3-.2-.2-.1-.3-.2-.7.2-.9-.1-1.5-.1h0c-.2.4-.8.4-1.1.5l-.2-.1c-.3-.2-.6.9-.6.3-1.4.7-3,1.3-4.6,2.1-.1.3-1.2.6-.7.8a2.94,2.94,0,0,0-2.2.9v-.1a.94.94,0,0,0-.8.8,1.06,1.06,0,0,1-.8.8c.2.2-.1.6-.4,1a1.28,1.28,0,0,0-.2,1.3.19.19,0,0,1-.3,0,14.29,14.29,0,0,0-.4,4.9,6.47,6.47,0,0,1,.4,2,2.65,2.65,0,0,0,1.1,1.9,3.42,3.42,0,0,0,1.5,1.4,4,4,0,0,0,2.1.3l-.1.1a10.51,10.51,0,0,0,3.7-.4c.4.6.9.5,1.4.7a31.8,31.8,0,0,1,3.8-.4c.2.3,1-.1,1.1.3A36,36,0,0,1,59,73h-.1a14,14,0,0,0,1.6-1,.1.1,0,0,1-.1.1c.7-.1,1.3.3,2,.2,0,.1,0,.1-.1.1.7-.2,1.3.3,2.1,0v.1l.5-.1c0,.1,0,.3-.3.3,6,.1,12.1-.5,18.2-.4l-.2.1,1.2-.2a.1.1,0,0,1-.1.1,33.43,33.43,0,0,0,4.5-.1c0,.1-.2.2,0,.3,1.1-.3,1.8.5,2.3-.3.1,0,.1.2,0,.3,3-.2,6.1-.2,9.2-.1,2.5-.7,5.4-.1,8-.6v.1c3.4-.5,7,0,10.6-.1,1.5.1,2.5-.1,3.9-.1v.2c2.5-.6,5.2.5,7.8-.1l-.2.2c.4-.3,1.6.1,1.4-.5l.5.2c1.8-.8,3.2.4,5.4-.2l-.1.1a5,5,0,0,1,1.7-.1c-.1,0,0,.1-.2.1a5.29,5.29,0,0,0,2.8.1,22.88,22.88,0,0,0,2.8-.8l-.1.3c.8-.5,2.5-1,3.4-1.8v.1c.1-.2.3-.3.4-.5l.1.2c.7-.4,1.2-1,1.8-1.4A5.54,5.54,0,0,0,151.94,66.79Z"/><path class="cls-6" d="M33.84,62.59h104.6c3.4,0,6.2-.3,11-3.8s17.4-13.1,17.4-13.1"/><polygon class="cls-2" points="166.04 44.69 165.94 44.69 165.94 44.89 166.04 44.69"/><path class="cls-2" d="M165.44,45.69l.1.1.2-.9C165.34,44.79,165.74,45.79,165.44,45.69Z"/><path class="cls-2" d="M165.24,45.79c-.3,0-.2.3-.2.4C165,46,165.44,46,165.24,45.79Z"/><path class="cls-2" d="M142.64,62.39v.2c1-.6,2.3-.7,3.3-1.4v.1c2.7-1.3,4.6-3.3,6.8-5.2v.2c.1-.1.1-.4.2-.4s0,.1,0,.2c.7-.1,1.3-1.3,1.8-1.3.1-.1.1-.3-.1-.3a46,46,0,0,0,5.3-4.6c.1,0,.2,0,.2.2,1.2-1.7,3-2.7,4.7-3.8,0-.2-.3,0-.2-.3-.6.2-.7,1-1.4,1.1v-.2c-.4.2.2.4-.3.5-.2,0-.1-.2-.2-.1a9,9,0,0,0-2,1.9c-.4-.1-.8.6-1.2.5-.1.2-.3.4-.3.6-2.7,1.8-5.1,4-7.7,5.9-.8,1.4-2.7,2-4.1,3.1v-.1a7.35,7.35,0,0,1-1.7,1.2l-.4.5a18.15,18.15,0,0,1-6.1,1c-2.1,0-4.3,0-6.5-.1-4.9-.2-9.2-.6-14,.2,0-.1,0-.1.1-.1-1.4.1-2.6-.1-3.9,0v-.1c-3.2.5-6.7-.1-9.8.5-3.8-.1-8,0-12,.2v-.1c-3.2.3-6.3-.4-9.5-.2-3.3-.3-6.7.7-10.1.3-2-.6-4.7.7-6.7.1-3.9-1-7.8-.3-11.7.2-3.6-.3-7.3.5-10.8-.2-1.7.4-3.5-.6-5.4-.4l.1.2c-.7-.5-1.5.7-1.9,0h.1c-.4-.4-.8.8-1,.4l-.1.2c-.4.1-.1-.2-.4-.3-.1,0,0,.3-.3.2-.1-.7-1,.2-1.1-.7.2,0-.4-.3.2-.5-.1-.1-.9,0-.8.3-.1.4-.3.7.1,1l.1-.3c.1.3.1.1.2.3.6,0,.6.4,1.1.6h0c.3-.3.7-.1.9-.1l.1.1c.1.3.6-.6.5-.1,1.2-.1,2.5-.1,3.8-.1.2-.2,1,0,.7-.4a2,2,0,0,0,1.6.5.1.1,0,0,1-.1.1c.7.6.8-.5,1.5.2.1-.5,1.2.2,1.5-.4a.37.37,0,0,1,.1.3c1.2,0,2.5.2,3.5.2.8-.4,2,.2,2.8-.4a4.78,4.78,0,0,0,2.4.1l-.1.1a8.25,8.25,0,0,0,2.8-.4c.3.6.7.5,1.1.6a18.43,18.43,0,0,1,2.9-.4c.1.3.8-.1.8.3a21,21,0,0,1,9,.1h0a10.59,10.59,0,0,0,1.2-1V63c.5-.1,1,.3,1.6.2,0,.1,0,.1-.1.1.5-.2,1,.3,1.6,0v.1l.4-.1c0,.1,0,.3-.2.3,4.5.1,9.2-.5,13.9-.4l-.2.1.9-.2c0,.1,0,.1-.1.1a20.48,20.48,0,0,0,3.5-.1c0,.1-.2.2,0,.3.8-.3,1.3.5,1.7-.3,0,0,.1.2,0,.3a54.52,54.52,0,0,1,7-.1c1.9-.7,4.1-.1,6.1-.6v.1c2.6-.5,5.4,0,8.1-.1,1.1.1,1.9-.1,3-.1v.2c1.9-.6,4,.6,6-.1l-.1.2c.3-.3,1.2.1,1.1-.5l.3.2c1.3-.8,2.4.4,4.1-.1l-.1.1a2.88,2.88,0,0,1,1.3-.1c-.1,0,0,.1-.1.1,1.4.6,2.9-.1,4.3,0l-.2.3c.7-.3,2,0,2.9-.2l-.1.1.5-.2v.2A7.69,7.69,0,0,0,142.64,62.39Z"/><path class="cls-2" d="M144.24,63.79h.2c-.4-.1,0-.2-.2-.2h.1c.1-.2-.3-.4-.5-.6h0c.4,0-.2-.1.1-.1h-.3a1.18,1.18,0,0,0-.5-.5h.3c-.6-.1-.4-.3-.3-.4h-.3c-.2,0,.4.1.1.1h-.2c.1.1-.1.1.3.2-.3,0,0,.1-.3.1h.3c-.2.2.1.4.1.7.6.1-.1.2.1.3h-.1c.2,0,.2.1.2.1h.3c-.6.3-.2.6-.4.9s-.6.6.2.9h-.1c.1.1-.1.2,0,.3h-.1c.5.2-.1.5.5.7a.83.83,0,0,0,.2.8h-.1c.3.2-.4.4-.2.6-.3.2.7.5.3.7-.6.1.7.3.1.4-1,.3-.3.5.2.8-.3.2.5.5-.2.7.4.1-.6.2-.4.4h.2c-.5,0,.7.1,0,.1h0c-.4,0,.8.1.4.1h.1c-.7,0,.2.1-.7.1h-.5c-.1,0,0,.1.3.1h1a1.76,1.76,0,0,0,.6-.1h0c-.3,0-.1,0-.1-.1h0a.37.37,0,0,1-.1-.3c-.2,0,0-.1-.4,0,.4,0,.6-.1.5-.1h.1c.6,0-.5-.1.2-.1-.5,0,.2-.1-.4-.1h.3c0-.1.2-.2.2-.2-.4-.1.2-.1-.4-.2.1,0,.4-.1.1-.2h.1c0-.1-.1-.1-.4-.2.6,0,.5,0,.6-.1-.3,0-.2-.1-.4-.2.3,0-.1-.1.3-.1-.7-.2-.5-.4.1-.6h0c-.2,0-.7-.1-1-.1h.1c-.1,0,.3-.1.2-.1h.1c-.2,0,.3-.1,0-.1h.3c.1-.3-.5-.6-.4-.9h.1l-.2-.1h.1c.2-.1-.1-.2-.1-.2h.3c-.3-.1.5-.1-.3-.1h.3c-.2-.2-.2-.3-.1-.5-.7-.1-.1-.3-.6-.4h.1c-.5-.2,0-.4-.1-.5.1-.1-.1-.1-.1-.2h.2c-.6-.1.6-.3-.1-.4h.2c-.3,0,.1-.1-.5-.1h.2c-.8-.1.4-.2-.1-.3h.1c-.1,0-.2-.1-.1-.1h.1c.6-.1-.1-.2,0-.3h.3c-.3,0,0-.1-.2-.2h.1C144.44,64,144.24,63.89,144.24,63.79Z"/><path class="cls-7" d="M59.44,20c-2.4,6-11.3,29-12.1,32.6s-1.6,5.2,2.4,6,84.4-.4,87.2-.4,6.2-2.4,10.9-5.6,12.5-7.7,10-11.6c-3.4-5.3-12.8-22.3-15.6-26.5s-4.4-10.6-9.2-10.6H91.54c-4,0-10,2-14,4C63.34,15.09,61.24,15.39,59.44,20Z"/><polygon class="cls-2" points="60.64 20.49 60.84 20.39 60.74 19.99 60.64 20.49"/><path class="cls-2" d="M61.14,18.39h-.2a5.7,5.7,0,0,0-.1,1.3C61.54,19.49,60.84,18.59,61.14,18.39Z"/><path class="cls-2" d="M61.44,18.19a.66.66,0,0,0,.3-.7C61.74,17.69,61.14,18.09,61.44,18.19Z"/><path class="cls-2" d="M114.84,3.69l.1-.2c-2.2.4-4.7,0-7.1.2l.2-.1c-6-.1-11.5.3-17.4.5.1,0,.1-.1.2-.1a3.18,3.18,0,0,1-.9.3c-.1,0,.1-.1.2-.1-1.3-.3-3.6.8-4.4.8-.3.1-.4.3-.2.4A45.13,45.13,0,0,0,78.94,8c-2.1,1.1-4.2,2.3-6.3,3.4-.2.1-.3,0-.3-.2a56.36,56.36,0,0,1-5.3,3.1,25.66,25.66,0,0,0-5.1,3.1c0,.2.4-.1.2.2.9-.6,1.5-1.7,2.7-2l-.1.2c.8-.3-.1-.4.8-.7.4-.1,0,.2.2.1a37.68,37.68,0,0,0,4.8-2.8c.5.1,1.8-.9,2.6-.9.4-.3.8-.5.9-.8,1.5-.7,3-1.4,4.4-2.1a46.82,46.82,0,0,1,4.5-1.9,25.56,25.56,0,0,1,9.4-2c3.1-.6,6.9.1,10.6-.1v.1a31,31,0,0,1,4.4-.2l1.2-.3c4.3.3,8.7.3,13.1.3h11.5a2.77,2.77,0,0,1,1.3.3,5.42,5.42,0,0,1,2.4,2.1,17.79,17.79,0,0,1,1.7,3c.5,1,1,2.1,1.6,3.2.3.5.6,1.1.9,1.6l.9,1.5c2.4,4,4.7,8,7.5,12-.1,0,0,.1-.2-.1,1.5,2.4,2.6,4.7,4,6.9h-.1l2.7,4.2.7,1.1a6,6,0,0,1,.6,1.1,2.23,2.23,0,0,1,0,2.1,11.66,11.66,0,0,1-3,3.7c-1.2,1.1-2.5,2.1-3.8,3.1-1.6,1.1-3.3,2.1-5,3.3a55.83,55.83,0,0,1-5.2,3.2,7.71,7.71,0,0,1-2.9,1c-1,.1-2.1.1-3.1.1-2.1.1-4.2.1-6.2.2V58c-6.5.3-12.9-.2-19.4,0-6.7-.2-13.8.9-20.6.5-4.2-.6-9.7.8-13.6.2a80.25,80.25,0,0,0-12-.4c-4,.1-7.9.4-12,.5-.5-.1-1-.1-1.4-.2a7.37,7.37,0,0,1-1.4-.4,3.17,3.17,0,0,1-1.2-.8,2.3,2.3,0,0,1-.4-1.4,23.58,23.58,0,0,1,.4-2.8,26.81,26.81,0,0,1,.7-2.7,69.34,69.34,0,0,1,3.9-10.2c.8-3.4,3.1-6.5,4.3-10.1h.4c.9-1.1.5-3.1,1.4-3.6v.1c.6-.5-.2-1.9.4-2.1l-.1-.2c.3-.8.2,0,.5-.6.1-.2-.3-.2,0-.7.7.2.6-2.1,1.4-1.8-.2.4.6-.6.3.5.2-.3.7-1.6.3-1.6-.3-.3-.4-.9-1-.2l.2.3c-.4.2-.2.2-.4.2-.5,1.1-.9,1.1-1.3,1.8h0c.1.6-.4,1.3-.6,1.7l-.2.1c-.4.1.1,1.5-.3.9-.7,2.3-1.7,4.8-2.7,7.3.1.4-.7,1.9-.2,1.5a7.53,7.53,0,0,0-1.7,3,.14.14,0,0,1,0-.2c-1,1.1-.1,1.8-1.2,2.8.4.4-1,2.2-.7,3.1q-.3.15-.3,0c-.8,2.2-1.9,4.7-2.6,6.6A18.16,18.16,0,0,1,46,52a7,7,0,0,0-.4,2.8,3.73,3.73,0,0,0-.2,1.2,3.13,3.13,0,0,0,.4,1.8,4.54,4.54,0,0,0,1.5,1.3,8.33,8.33,0,0,0,1.5.4h-.2a8.81,8.81,0,0,0,1.7.2H52a9.28,9.28,0,0,0,2.6-.3c.6.6,1.4.5,2.2.7,1.3-.2,3.9-.2,5.9-.4.3.3,1.6-.1,1.7.3,5.5-.8,12.4-.5,18.3,0h-.1A24.43,24.43,0,0,0,85,59c.1,0,.1.1-.1.1,1.1-.1,2.1.3,3.2.2,0,.1,0,.1-.2.1,1-.2,2.1.3,3.3,0l.1.1.8-.1c0,.1,0,.3-.5.3,9.3,0,18.9-.7,28.4-.7l-.3.1,1.8-.2c0,.1-.1.1-.2.1,2.4.2,4.8-.2,7.1-.2,0,.1-.4.2,0,.3,1.7-.4,2.7.4,3.6-.3.1,0,.1.2,0,.3,1.2-.1,2.4-.1,3.6-.2a12.75,12.75,0,0,0,1.9-.1,10.55,10.55,0,0,0,1.9-.5,39,39,0,0,0,6.4-3.5,38.07,38.07,0,0,1,5-3.7,21.41,21.41,0,0,0,4.9-4l.1.1a11.34,11.34,0,0,0,2.3-3.4,3,3,0,0,0,.1-2.1,7.68,7.68,0,0,0-1-1.8c-1.4-2.4-2.7-4.9-4.1-7.2-1.1-2-2-3.3-3.2-5.3l.1-.1c-2.5-3.1-3.6-7.4-6.2-10.5l.3.1c-.6-.4-1.2-2.2-1.6-1.6l-.2-.7c-2.2-1.9-2-4.6-4.2-7.2l.2.1a26.14,26.14,0,0,1-1.7-2c.1.1.1,0,.3.1a4.55,4.55,0,0,0-4-2c-1.5.1-3,.2-4.5.2l.3-.3c-1.4.3-4.1,0-5.9.2l.1-.1-1,.2v-.2C119.54,3.49,117.24,3.69,114.84,3.69Z"/><path class="cls-2" d="M57.24,22.49c.1-.1.1-.2.2-.3C57.34,22.19,57.24,22.39,57.24,22.49Z"/><polygon class="cls-2" points="135.94 4.59 135.84 4.59 135.94 4.79 135.94 4.59"/><path class="cls-2" d="M135.84,5.39l.1.1-.1-.7C135.44,4.69,136,5.49,135.84,5.39Z"/><path class="cls-2" d="M135.64,5.49c-.2,0-.1.2,0,.3C135.54,5.59,135.94,5.69,135.64,5.49Z"/><path class="cls-2" d="M123.84,16.69l.1.2c.4-.6,1.3-.7,1.7-1.2v.1a23.16,23.16,0,0,0,3.5-3.5v.1c0-.1,0-.3.1-.3s0,.1,0,.1c.5,0,.6-.9,1-.8a.37.37,0,0,0-.1-.3,26.12,26.12,0,0,0,2.7-3,.22.22,0,0,1,.2.2,6.42,6.42,0,0,1,2.4-2.5c-.1-.1-.2,0-.2-.2-.4.1-.3.7-.7.8l-.1-.1c-.2.1.2.3-.1.3s-.1-.2-.2-.1c-.3.4-.8.7-1,1.3-.3-.2-.4.4-.8.3,0,.2-.1.3,0,.5-1.5,1.1-2.7,2.6-4.1,3.8-.3,1.1-1.6,1.2-2.2,2v-.1a2.58,2.58,0,0,1-.9.9l-.1.4a7.74,7.74,0,0,1-3.2.9,24.22,24.22,0,0,1-3.7-.2c-2.9-.2-5.4-.5-8.1.3v-.1a17.7,17.7,0,0,0-2.3.1v-.1c-1.8.5-3.9,0-5.7.6-2.2,0-4.7.1-7,.3v-.1c-1.8.3-3.7-.4-5.5-.1-1.9-.3-3.9.8-5.8.4-1.2-.6-2.7.7-3.9.1-2.3-.9-4.5-.3-6.8.3-2.1-.3-4.2.6-6.3-.1-1,.5-2.1-.5-3.1-.4v.2c-.4-.5-.9.7-1.1,0h0c-.2-.4-.5.8-.6.4v.2c-.2.1,0-.2-.2-.3s0,.3-.2.2c0-.7-.6.2-.6-.6.1,0-.2-.3.1-.5a.36.36,0,0,0-.5.3c0,.4-.2.7.1,1v-.3c.1.3.1.1.1.3.3,0,.4.4.6.6h0c.2-.3.4-.1.5-.1l.1.1c.1.3.4-.6.3-.1.7-.1,1.4-.1,2.2-.2.1-.2.6,0,.4-.4a1.22,1.22,0,0,0,1,.5v.1c.4.6.5-.5.9.2.1-.5.7.1.9-.4,0,.1.1.2,0,.3.7,0,1.4.2,2,.2.5-.4,1.2.2,1.6-.4.4.1.9.4,1.4.1V19a2.2,2.2,0,0,0,1.6-.5c.2.6.4.5.7.6.4-.3,1.1-.2,1.7-.5.1.3.5-.1.5.3a7.18,7.18,0,0,1,5.2,0h0a8.65,8.65,0,0,0,.7-1V18c.3-.1.6.3.9.2v.1c.3-.2.6.3.9,0v.1l.2-.1c0,.1,0,.3-.1.3,2.6.1,5.3-.6,8.1-.6l-.1.1.5-.2V18c.7.2,1.4-.2,2-.1,0,.1-.1.2,0,.3.5-.4.8.4,1-.3v.3a14,14,0,0,1,4.1-.2c1.1-.7,2.4-.1,3.5-.6v.1c1.5-.5,3.1,0,4.7-.1.7,0,1.1-.1,1.7-.1v.2c1.1-.6,2.3.5,3.5-.2l-.1.2c.2-.3.7.1.6-.5l.2.2c.8-.8,1.4.3,2.4-.2l-.1.1c.3-.1.6-.2.7-.1a.1.1,0,0,1-.1.1c.8.6,1.7,0,2.5.1l-.1.3c.4-.3,1.2,0,1.7-.1v.1l.3-.2v.2A7.71,7.71,0,0,0,123.84,16.69Z"/><path class="cls-8" d="M68.14,27.69c-1.1,2.9-6.8,17.1-7.5,19.2s-1.9,4.7,2.6,5.1,51.9,0,56,0,7.1-.2,5.9-3.6-7-18.5-7.8-20.7-2-4.6-4.9-4.6-36.5.5-38.8.8C71.14,24.29,68.94,25.59,68.14,27.69Z"/><polygon class="cls-2" points="69.34 28.19 69.44 28.19 69.34 27.89 69.34 28.19"/><path class="cls-2" d="M69.44,27.09h-.1a1.88,1.88,0,0,0,.2.8C69.94,27.79,69.14,27.09,69.44,27.09Z"/><path class="cls-2" d="M69.64,26.89c.3-.1.1-.4.1-.5C69.84,26.69,69.34,26.79,69.64,26.89Z"/><path class="cls-2" d="M102.34,23.09l.1-.2c-1.3.4-2.8,0-4.2.2l.1-.1c-3.5,0-6.8.4-10.3.6a.1.1,0,0,0,.1-.1,1.69,1.69,0,0,1-.5.2c-.1,0,.1-.1.1-.1-.7-.4-2.2.3-2.6,0-.2,0-.3.2-.2.3-2.7.2-5.7.3-8.5.7-.1,0-.2-.1-.1-.3a11.63,11.63,0,0,1-1.8.4c-.6.1-1.1.2-1.6.3a8.56,8.56,0,0,0-2.9,1.3c.1.2.3,0,.2.2.6-.3.7-1,1.4-1.1v.2c.4-.1-.1-.4.4-.4.2.1,0,.2.1.2a5.73,5.73,0,0,1,1.4-.4,11.31,11.31,0,0,0,1.5-.4c.3.3,1.2,0,1.6.3.3-.1.6-.1.7-.3,3.8,0,7.8-.4,11.7-.4,1.8-.7,4.1,0,6.3-.2v.1a7.44,7.44,0,0,1,2.6-.2l.7-.3c2.6.2,5.2.2,7.8.2,1.3,0,2.6,0,3.9-.1h2a2.93,2.93,0,0,1,1.6.4,5.06,5.06,0,0,1,2.2,2.9c.5,1.2.9,2.6,1.4,3.9a51.7,51.7,0,0,0,3.4,7.7c-.1,0-.1.1-.2-.1.7,1.5,1,3,1.7,4.4h-.1a45.31,45.31,0,0,1,2.3,5.5,5.85,5.85,0,0,1,.2,1.3,1.05,1.05,0,0,1-.5.9,6.19,6.19,0,0,1-2.5.9c-2.3.1-4.7,0-7.2.1s-5,.1-7.4.2v-.1c-3.9.3-7.6-.4-11.5-.1-4-.3-8.2.8-12.2.4-2.5-.6-5.7.7-8.1.1a28.33,28.33,0,0,0-7.1-.5c-1.2,0-2.4.1-3.5.2a10.87,10.87,0,0,1-3.6,0,3.74,3.74,0,0,1-1.3-1.2,2.52,2.52,0,0,1-.1-1.7,29.88,29.88,0,0,1,.9-3.2,32,32,0,0,1,2.6-6c.3-2,2.1-3.8,2.8-5.9h-.2c.7-.6,0-1.9.9-2.1v.1c.5-.3-.4-1.2.1-1.3l-.1-.1c.1-.5.2,0,.4-.3,0-.1-.3-.2-.1-.4.7.2.3-1.2,1.1-1-.1.3.5-.3.4.3.1-.1.4-1,.1-1-.3-.2-.5-.6-.9-.2l.2.2c-.3.1-.2.1-.4.1-.3.6-.7.6-1,1h0c.2.4-.2.8-.3,1h-.2c-.3,0,.3.9-.1.6-.4,1.4-1,2.9-1.5,4.3.1.3-.5,1.1,0,.9-.6.2-1.1,1.3-1.2,1.7,0,0-.1-.1,0-.1-.8.6.1,1.1-.8,1.6.4.3-.7,1.3-.3,1.9a.19.19,0,0,1-.3,0c-.5,1.3-1.3,2.7-1.7,3.8a6.4,6.4,0,0,1-.5,1.7,3.23,3.23,0,0,0-.3,1.7,3.41,3.41,0,0,0-.4,1.6v.6a1.42,1.42,0,0,0,.2.6,2.72,2.72,0,0,0,.8,1c-.1,0-.1,0-.2-.1A3.83,3.83,0,0,0,62,53a4.42,4.42,0,0,0,1.7-.1c.3.6.9.5,1.3.7.8-.2,2.3-.1,3.5-.4.2.3,1-.1,1,.3a30.76,30.76,0,0,1,10.9.1h-.1a7.1,7.1,0,0,0,1.4-1,.1.1,0,0,1-.1.1c.6-.1,1.2.3,1.9.2,0,.1,0,.1-.1.1.6-.2,1.2.3,1.9,0v.1l.5-.1c0,.1,0,.3-.3.3,5.5.1,11.2-.6,16.8-.5l-.2.1,1.1-.2a.1.1,0,0,1-.1.1c1.4.2,2.8-.2,4.2-.1,0,.1-.2.2,0,.3,1-.4,1.6.4,2.1-.3,0,0,.1.2,0,.3a60.33,60.33,0,0,1,8.5-.2,22.06,22.06,0,0,1,3.7-.4,6.28,6.28,0,0,0,1.9-.3,2.76,2.76,0,0,0,1.6-1.2l.1.1a3.08,3.08,0,0,0-.1-2.5,20.94,20.94,0,0,1-.8-2.3c-.5-1.6-1-3.1-1.6-4.7-.4-1.3-.9-2.1-1.4-3.4l.1-.1c-1.4-1.9-1.2-4.7-2.7-6.7l.3.1c-.5-.2-.4-1.4-.9-1.1v-.5a3.46,3.46,0,0,1-1-2.1,5.18,5.18,0,0,0-1.1-2.4h.2a5.3,5.3,0,0,1-1-1.2h.2a2.65,2.65,0,0,0-2.3-1.3,6.6,6.6,0,0,0-1.4.1c-.4,0-.9.1-1.3.1l.2-.3a18.87,18.87,0,0,1-3.5.2l.1-.1-.6.2v-.2C105,22.79,103.74,23.09,102.34,23.09Z"/><path class="cls-2" d="M87.64,23.69h0C87.74,23.59,87.74,23.69,87.64,23.69Z"/><path class="cls-2" d="M66.34,29.09a.1.1,0,0,1,.1-.1C66.44,28.89,66.44,29,66.34,29.09Z"/><line class="cls-3" x1="138.44" y1="57.89" x2="122.74" y2="16.89"/><path class="cls-2" d="M122,17.59a.1.1,0,0,0,.1-.1h-.6C121.24,17.69,122.24,17.39,122,17.59Z"/><path class="cls-2" d="M122,17.59c-.1.1.2.1.3,0C122,17.69,122.34,17.49,122,17.59Z"/><path class="cls-2" d="M126.24,25.59l.2-.1c-.5-.2-.3-.7-.5-1h.1a11.57,11.57,0,0,0-1.4-2.4h.1c-.1,0-.2,0-.2-.1h.1c.3-.3-.4-.4-.2-.7a.37.37,0,0,0-.3.1,10,10,0,0,0-1.2-1.9c0-.1.1-.1.2-.1-.8-.4-.8-1.1-.9-1.7-.2,0-.1.1-.3.1-.1.3.5.2.3.5h-.1c0,.2.4-.1.2.1a.31.31,0,0,1-.2.1c.2.2.1.6.6.7-.3.2.1.3-.2.5.1,0,.1.1.4.1a23.58,23.58,0,0,0,1.2,2.8c.8.2.3,1,.7,1.5h-.1a.68.68,0,0,1,.4.6l.3.1c0,1.5.8,2.6,1.1,4s.5,2.9,1.8,4.1h-.1c.3.4.2.8.5,1.2h-.1c.9.8.7,2,1.6,2.7a26.32,26.32,0,0,0,1.5,3.5h-.1c.6.9.3,2,.9,2.9.1,1.1,1.4,1.7,1.5,2.9-.3.8,1.2,1.2.8,2-.5,1.5.6,2.4,1.6,3.4.1,1.2,1.3,2,1.1,3.3.6.3-.1,1.2.2,1.7l.1-.1c-.4.4.8.2.2.6h0c-.3.2.9-.1.5.2h.2c.1.1-.2.1-.2.2s.3-.1.2,0c-.7.3.3.3-.5.6,0-.1-.3.2-.5.1-.1.1.1.3.4.1s.7-.1.9-.4l-.3.1c.2-.1.1-.1.3-.2,0-.2.3-.3.4-.5h0c-.3,0-.2-.2-.2-.2l.1-.1c.3-.2-.6,0-.1-.1a3.88,3.88,0,0,1-.6-1.1c-.2,0-.1-.3-.4-.1.4-.3.4-.6.3-.7h.1c.5-.4-.6-.1,0-.5-.5.1,0-.4-.6-.3a.37.37,0,0,1,.3-.1c-.1-.4-.1-.8-.2-1.1-.5-.1,0-.7-.7-.7.1-.2.2-.6-.1-.8h.1a1,1,0,0,0-.7-.7c.5-.3.4-.4.5-.6-.3-.1-.4-.5-.7-.7.2-.1-.2-.2.2-.3-1-.5-1.1-1.6-.9-2.7h-.9c-.1-.1.2-.4,0-.5h.1c-.2-.1.2-.4-.2-.5h.1l-.2-.1c.1,0,.3-.1.3,0-.4-1.4-1.6-2.5-2-4h.1l-.3-.2h.1c.1-.4-.4-.6-.5-1,.1,0,.2,0,.2-.1-.4-.1.3-.6-.5-.4l.2-.1a5.15,5.15,0,0,1-.9-2c-.8-.3-.5-1.2-1.2-1.6h.1c-.7-.6-.6-1.6-1-2.4-.1-.4-.3-.5-.4-.9l.1-.1c-.8-.3.1-1.4-.8-1.7h.2c-.4,0,0-.4-.6-.2l.1-.2c-.9-.1.1-.9-.6-1.2h.1c-.2-.1-.3-.2-.2-.4h.1c.4-.6-.4-.8-.5-1.3h.3c-.4-.1-.2-.6-.5-.8h.1l-.2-.1.2-.1C126.74,26.19,126.44,25.89,126.24,25.59Z"/></svg>