<svg id="Layer_1" data-name="Layer 1" xmlns="http://www.w3.org/2000/svg" viewBox="0 0 200 170"><defs><style>.cls-1{fill:#c3c0d4;}.cls-2{fill:#464b86;}.cls-3{fill:#dbd9e5;}.cls-4{fill:none;}.cls-5,.cls-6{isolation:isolate;}.cls-6{font-size:2.56px;fill:#9691b5;font-family:Helvetica-Light, Helvetica;}</style></defs><title>Artboard 38</title><path class="cls-1" d="M144.82,165.4H55.12c-10,0-14.3-4.3-14.3-14.3V18.7c0-10,4.3-14.3,14.3-14.3h89.7c10,0,14.3,4.3,14.3,14.3V151.2C159.12,161.1,154.72,165.4,144.82,165.4Z"/><polygon class="cls-2" points="144.82 166.1 145.02 166.1 145.72 166 144.82 166.1"/><path class="cls-2" d="M149.22,165.5H149a19.8,19.8,0,0,1-2.6.6A15,15,0,0,0,149.22,165.5Z"/><path class="cls-2" d="M149.92,165.4a5.75,5.75,0,0,0,1.6-.5C151.22,165.1,149.72,165.3,149.92,165.4Z"/><path class="cls-2" d="M159,59.9l-.1-.2c.2,4.2,0,9,.1,13.5v-.3c0,11.4.1,21.8.2,33.1a.6.6,0,0,0-.1-.4c0,.5.1,1.1.1,1.8,0,.2-.1-.2-.1-.4-.2,2.4.1,7,0,8.5,0,.7.1,1,.2.6,0,8.8.1,18.2.2,27.2,0,.4-.1.5-.1.4.1,1.9.1,3.9.2,5.8a40.88,40.88,0,0,1-.3,6,13.31,13.31,0,0,1-2.2,5.7,10.33,10.33,0,0,1-4.9,3.6c-.3.2.8-.2.1.1a8.86,8.86,0,0,0,1.7-.8,17.1,17.1,0,0,0,1.4-1.1,11.33,11.33,0,0,0,2.2-2.7c0,.1-.1.2-.1.3.5-.8.4-.9.4-1s.1-.2.4-1c.3-.6,0,.2.1-.1a19.81,19.81,0,0,0,1-5.4,44.24,44.24,0,0,0-.1-5.2c.2-.8,0-3.8.2-5.1a11,11,0,0,0-.2-2.2c.1-12.4-.1-25.1-.1-37.8-.3-5.9.1-13.1,0-20.1h0c-.1-2.3-.1-5.6-.1-8.4L159,72c.3-16.5.1-33.4.2-50.2a42.2,42.2,0,0,0-.3-7.1,13.76,13.76,0,0,0-2.6-6.5,8.5,8.5,0,0,0-2.7-2.3,12.66,12.66,0,0,0-3.2-1.3,25.46,25.46,0,0,0-6.7-.7c-8.9,0-17.7,0-27,.2,0,0-.1,0,.4-.1-5.4.1-10.2-.1-15.3,0h0c-12.5.3-26.1,0-38.1.2h-5.6a54.21,54.21,0,0,0-5.7.1,16.45,16.45,0,0,0-5.7,1.4,8.8,8.8,0,0,0-4.3,4,14.47,14.47,0,0,0-1.7,5.7c-.2,2-.1,4-.2,6,0,4,0,7.9.1,11.8h-.1c.1,12.4-.2,24.5-.1,36.9-.1,12.8.4,26.2.2,39.1-.3,8,.4,18.4,0,25.9-.1,3.8-.2,7.7-.2,11.5,0,1.9-.1,3.8,0,5.7a21.14,21.14,0,0,0,.9,5.6,10.17,10.17,0,0,0,3.2,4.7,11.13,11.13,0,0,0,5.2,2.3,27.35,27.35,0,0,0,5.7.4c1.9,0,3.8-.1,5.7-.1,14.2.2,28.3-.3,42.1.1,6.5-.2,13.7.3,20.9.2l-.3-.1c2.6.2,5.8-.3,7.4,0h-.3c1.4.2,3.2-.4,4-.2l.2-.1c1.7,0,.2.1,1.5.1.5,0,.2-.2,1.2-.1.2.4,4.1-.1,4.2.3-.9,0,1.4.2-.6.2.6,0,3.4,0,3.1-.2.2-.2,1.3-.3-.4-.5l-.3.1c-.6-.1-.4-.1-.6-.2a38.82,38.82,0,0,1-4.1-.3h0a12.84,12.84,0,0,1-3.4,0l-.3-.1c-.5-.2-2.5.3-1.8,0-4.5.1-9.7.1-14.7.1-.7.1-3.9,0-2.8.2-1.3-.2-5-.3-6.4-.3h.3c-2.7-.3-3.2.3-5.7-.1-.4.2-4.6-.1-6,.2-.3-.1-.4-.1-.3-.1-4.6,0-9.6-.1-13.4-.1-3.3.2-8-.1-10.8.2-2.3-.1-6.1-.2-9.4-.1h.3c-3.7,0-8.3.1-10.8.2-1.1-.3-2.6-.4-4.1-.8a9.63,9.63,0,0,1-4.4-1.9,9.87,9.87,0,0,1-3.3-4.7c-.1-.3-.2-1-.4-1.7s-.2-1.4-.2-1.5a70.37,70.37,0,0,1-.4-8.2V137c0-6,.1-12.1.3-17.7v.2c-.1-1.5-.3-3.1-.5-4.6v.2c0-2.1.2-4,.1-6l.1.3c-.1-1.9.2-4,0-6.3l.1-.1-.1-1.4c.1,0,.2.1.1.9.1-17.7-.3-35.9-.2-54l.1.7L41,45.7a1,1,0,0,0,.1.4c.1-4.5-.1-9.1,0-13.5,0,0,.1.7.1.1-.2-3.2.2-5.2-.1-6.8,0-.2.1-.3.1.1,0-2.2,0-4.5-.1-6.8a25,25,0,0,1,.7-6.7A10.69,10.69,0,0,1,45.32,7a13.74,13.74,0,0,1,6.2-2.3,35.59,35.59,0,0,1,5.7-.4h6c4,0,8.1,0,12-.1v.1c10.1-.2,20.9,0,31.4,0,4.4,0,7.3-.1,11.7-.1l.1.1c7.4-.3,15.5.3,23.2-.1l-.5.1c1.2-.2,4.7.1,4.2-.2l1.4.1a12.75,12.75,0,0,1,7.2,1.9,11.41,11.41,0,0,1,4.6,6.8l-.2-.4a14.86,14.86,0,0,1,.7,4.9c0-.2,0-.1-.1-.5-.2,5.3.1,11.3.1,16.9l-.1-.6c.2,2.7,0,7.7.1,11.3l-.1-.2.1,1.8h-.1C158.92,51,159,55.3,159,59.9Z"/><rect class="cls-3" x="53.92" y="16.9" width="92" height="136"/><polygon class="cls-2" points="146.62 152.9 146.62 152.7 146.52 152.1 146.62 152.9"/><path class="cls-2" d="M146.32,149.2c0,.1-.1.1-.1.2l.3,2.2C146.72,150.6,146.22,149.9,146.32,149.2Z"/><path class="cls-2" d="M146.42,148.6a4.18,4.18,0,0,0-.1-1.4C146.32,147.5,146.22,148.8,146.42,148.6Z"/><path class="cls-2" d="M145.82,55.7l-.1-.2c.2,3.6,0,7.6.1,11.4v-.3c0,9.6.1,18.5.2,28a.76.76,0,0,0-.1-.4c0,.5.1,1,.1,1.5,0,.1-.1-.1-.1-.3-.2,2,.1,5.9,0,7.2,0,.6.1.8.2.5,0,7.5.1,15.5.2,23.1,0,.4-.1.4-.1.3.3,6.5.2,13.3.1,20,.1.3.1-.7.2,0,.1-2.1-.2-3.9,0-5.9l.1.2c0-1.4-.2-.3-.1-1.8.1-.6.1.1.1-.1,0-3,0-6.1-.1-9,.2-.7,0-3.2.2-4.3a7.75,7.75,0,0,0-.2-1.9c.1-10.5-.1-21.2-.1-32-.3-5,.1-11.1,0-17h0c-.1-1.9-.1-4.8-.1-7.1l-.1-2c.3-14,.1-28.3.2-42.5V16.2c-6.9,0-13.6-.1-20.2-.1s-13,.1-19.8.2c0,0-.1,0,.3-.1-4.5.1-8.7-.1-13,0h0c-10.6.3-22.1,0-32.3.2h-7.6c0,10.3.1,21.6.1,32.3h-.1c.1,10.5-.2,20.7-.1,31.3-.1,10.8.4,22.2.2,33.2-.3,6.8.4,15.6,0,22-.1,2.9-.2,5.9-.2,8.8v9h5.5c1.8,0,3.5-.1,5.3-.1,3.5-.1,7.1-.2,10.6-.2,12,.2,24-.3,35.6.1,5.5-.2,11.6.3,17.7.2l-.2-.1c2.2.2,4.9-.3,6.3,0h-.2c1.2.2,2.7-.4,3.4-.2l.2-.1c1.4,0,.2.1,1.3.1.4,0,.2-.2,1-.1.2.4,3.5-.1,3.6.3-.8,0,1.2.2-.5.2.5,0,2.9,0,2.6-.2.2-.2,1.1-.3-.3-.5l-.3.1c-.5-.1-.4-.1-.5-.2a28.61,28.61,0,0,1-3.5-.3h0a9.38,9.38,0,0,1-2.9,0l-.3-.1c-.4-.2-2.1.3-1.6,0-3.8.1-8.2.1-12.5.1-.6.1-3.3,0-2.3.2a47.54,47.54,0,0,0-5.4-.3h.3c-2.3-.3-2.7.3-4.9-.1-.3.2-3.9-.1-5.1.2-.3-.1-.4-.1-.3-.1-3.9,0-8.1-.1-11.4-.1-2.8.2-6.8-.1-9.2.2-2-.1-5.2-.2-8-.1H78c-3.1,0-7,0-9.2.2a18.63,18.63,0,0,0-3.6-.3c-2.1.1-6.3.1-9.5.2a5.48,5.48,0,0,0-1.3,0v-.2c0-.1,0-.3.1-.3-.4-8.9-.2-20,0-29.5v.1c-.1-1.2-.3-2.7-.5-3.9v.2c0-1.7.2-3.4.1-5.1l.1.3c-.1-1.6.2-3.4,0-5.3l.1-.1-.1-1.2c.1,0,.2.1.1.7.1-15-.3-30.4-.2-45.8l.1.6-.1-3a.49.49,0,0,0,.1.3c.1-3.8-.1-7.7,0-11.4,0,0,.1.6.1.1-.2-2.7.2-4.4-.1-5.8,0-.1.1-.2.1.1-.1-7.6-.1-15.4-.1-23.1,0-.9-.1-1.9-.1-2.8h8.2c2.9,0,5.8,0,8.6-.1v.1c8.6-.2,17.7,0,26.6,0,3.7,0,6.2-.1,9.9-.1l.1.1c6.3-.3,13.2.3,19.7-.1l-.5.1c1-.2,3.9.1,3.6-.2l1.2.1c4.4-.4,8.1.2,13.5-.1l-.4.1h1.2v2.6c-.3,4.5,0,9.6,0,14.3l-.1-.5c.2,2.3,0,6.5.1,9.6l-.1-.2.1,1.5h-.1C145.72,48.2,145.82,51.9,145.82,55.7Z"/><path class="cls-2" d="M146,95.6h0C145.92,95.4,146,95.5,146,95.6Z"/><rect class="cls-4" x="57.12" y="20.6" width="85.5" height="129.1"/><g class="cls-5"><text class="cls-6" transform="translate(57.15 22.45)">Lorem ipsum dolor sit amet, consectetur adipiscing elit. Integer id dapibus </text><text class="cls-6" transform="translate(57.15 26.25)">lectus. Fusce eu massa tellus. Nulla quis fringilla dui. Quisque vitae turpis </text><text class="cls-6" transform="translate(57.15 30.15)">eget sem interdum sodales. Nunc scelerisque scelerisque lacus eu </text><text class="cls-6" transform="translate(57.15 33.95)">tempus. Etiam accumsan orci non massa blandit tincidunt id vel orci. Proin </text><text class="cls-6" transform="translate(57.15 37.85)">condimentum rhoncus tellus in rutrum.</text><text class="cls-6" transform="translate(57.15 42.95)">Donec bibendum, metus sit amet volutpat interdum, libero nisi vulputate </text><text class="cls-6" transform="translate(57.15 46.75)">metus, et scelerisque orci dolor ut metus. Nam arcu nulla, tincidunt eget </text><text class="cls-6" transform="translate(57.15 50.65)">leo nec, aliquet condimentum velit. Ut sit amet velit nisl. Pellentesque </text><text class="cls-6" transform="translate(57.15 54.45)">commodo convallis erat, non varius enim imperdiet et. Quisque faucibus </text><text class="cls-6" transform="translate(57.15 58.25)">diam in dolor consequat pulvinar. Praesent pharetra velit purus. </text><text class="cls-6" transform="translate(57.15 62.15)">Suspendisse id rutrum lectus. Mauris a risus velit. Ut quis ipsum a quam </text><text class="cls-6" transform="translate(57.15 65.95)">eleifend laoreet at vitae quam. Nam eget dictum justo. Quisque blandit </text><text class="cls-6" transform="translate(57.15 69.85)">ultrices orci, sit amet mattis odio bibendum in.</text><text class="cls-6" transform="translate(57.15 74.95)">Morbi turpis enim, commodo nec dui ac, dignissim hendrerit turpis. </text><text class="cls-6" transform="translate(57.15 78.75)">Aenean eget neque at est accumsan luctus. Phasellus eget nunc volutpat </text><text class="cls-6" transform="translate(57.15 82.65)">nunc viverra vehicula in vel erat. Nam eros erat, sagittis eget augue quis, </text><text class="cls-6" transform="translate(57.15 86.45)">elementum tristique libero. Etiam in purus non purus consequat laoreet. </text><text class="cls-6" transform="translate(57.15 90.25)">Sed quis euismod neque, quis mattis odio. Sed scelerisque a lorem vel </text><text class="cls-6" transform="translate(57.15 94.15)">vestibulum. Fusce libero est, scelerisque dictum faucibus at, faucibus eu </text><text class="cls-6" transform="translate(57.15 97.95)">massa. Etiam a maximus mi.</text><text class="cls-6" transform="translate(57.15 103.05)">Suspendisse placerat purus at nunc malesuada, nec vulputate tortor </text><text class="cls-6" transform="translate(57.15 106.95)">ornare. Etiam luctus diam et tortor egestas faucibus. Maecenas pulvinar </text><text class="cls-6" transform="translate(57.15 110.75)">faucibus aliquam. Proin convallis lacus lorem, ac blandit lorem euismod </text><text class="cls-6" transform="translate(57.15 114.65)">quis. Donec vitae malesuada leo. Sed et ante vestibulum, mattis quam vel, </text><text class="cls-6" transform="translate(57.15 118.45)">pulvinar ligula. Nulla ut lectus euismod, auctor sapien vitae, consequat </text><text class="cls-6" transform="translate(57.15 122.25)">nisi. Sed non est id justo luctus elementum. Mauris accumsan diam ac </text><text class="cls-6" transform="translate(57.15 126.15)">placerat molestie. Vestibulum in leo venenatis, eleifend leo non, volutpat </text><text class="cls-6" transform="translate(57.15 129.95)">nunc. Mauris dignissim, tortor commodo hendrerit egestas, purus lectus </text><text class="cls-6" transform="translate(57.15 133.75)">pellentesque est, consequat interdum felis erat nec orci. Sed ultricies </text><text class="cls-6" transform="translate(57.15 137.65)">aliquet diam, vel suscipit mauris maximus ac. Curabitur sapien libero, </text><text class="cls-6" transform="translate(57.15 141.45)">pharetra eget fermentum at, consequat et nunc. Aliquam ornare metus </text><text class="cls-6" transform="translate(57.15 145.35)">velit. Phasellus finibus vestibulum finibus. Aenean tristique vel felis et </text><text class="cls-6" transform="translate(57.15 149.15)">maximus. In congue lobortis cursus.</text></g></svg>