<svg id="Layer_1" data-name="Layer 1" xmlns="http://www.w3.org/2000/svg" viewBox="0 0 200 170"><defs><style>.cls-1{fill:#9691b5;}.cls-2{fill:#464b86;}.cls-3{fill:#cfcddd;}.cls-4{fill:#dbd9e5;}.cls-5{fill:none;}</style></defs><title>Artboard 33</title><rect class="cls-1" x="91.05" y="101.85" width="17.5" height="40.9"/><polygon class="cls-2" points="109.25 142.75 109.35 142.75 109.25 142.55 109.25 142.75"/><path class="cls-2" d="M109.05,141.85h0l.2.6C109.45,142.15,109,142.05,109.05,141.85Z"/><path class="cls-2" d="M109.05,141.65c.1-.2-.1-.3-.1-.4C109.05,141.45,109,141.75,109.05,141.65Z"/><path class="cls-2" d="M108.55,117.85l-.1-.1a28.1,28.1,0,0,1,.1,2.9v-.1c0,2.5.1,4.7.2,7.2a.1.1,0,0,0-.1-.1c0,.1.1.2.1.4a.1.1,0,0,1-.1-.1c-.2.5.1,1.5,0,1.8,0,.1.1.2.2.1,0,1.9.1,4,.2,5.9a.1.1,0,0,1-.1.1,21.76,21.76,0,0,1,.1,5.1c.1.1.1-.2.2,0,.1-.5-.2-1,0-1.5l.1.1c0-.4-.2-.1-.1-.4.1-.1.1,0,.1,0a17,17,0,0,0-.1-2.3c.2-.2,0-.8.2-1.1-.1-.2,0-.4-.2-.5.1-2.7-.1-5.4-.1-8.2-.3-1.3.1-2.8,0-4.4h0a10.28,10.28,0,0,1-.1-1.8l-.1-.5c.3-3.6.1-7.3.2-10.9,0-1.4.1-2.7.1-3.9v-4.3h-2.5a14.92,14.92,0,0,0-2.1.2l.1-.1c-1.2.1-2.2-.1-3.3,0h0c-2.7.3-5.7,0-8.3.2h-2v4.2c0,1.4,0,2.8.1,4.2h-.1c.1,2.7-.2,5.3-.1,8-.1,2.8.4,5.7.2,8.5-.3,1.7.4,4,0,5.6a41,41,0,0,0,.1,9.9v.5h2a14.77,14.77,0,0,0,2.1-.1c1.4,0,2.8,0,4.2.1,1.4-.2,3,.3,4.5.2l-.1-.1c.6.2,1.3-.3,1.6,0h-.1c.3.2.7-.4.9-.2v-.1c.4,0,0,.1.3.1.1,0,0-.2.3-.1,0,.4.9-.1.9.3-.2,0,.3.2-.1.2.1,0,.7,0,.7-.2s.3-.3-.1-.5l-.1.1c-.1-.1-.1-.1-.1-.2-.5,0-.5-.2-.9-.3h0a.6.6,0,0,1-.7,0l-.1-.1c-.1-.2-.5.3-.4,0-1,.1-2.1.1-3.2.1-.2.1-.8,0-.6.2a3.53,3.53,0,0,0-1.4-.3h.1c-.6-.3-.7.3-1.2-.1-.1.2-1-.1-1.3.2l-.1-.1c-1,0-2.1-.1-2.9-.1-.7.2-1.7-.1-2.3.2-.3,0-.6-.1-.9-.1h-.6V141a2.51,2.51,0,0,0-.2-1c.3-.2.2-.6.3-.9-.1-.5-.1-1.6-.2-2.4.1-.1-.1-.7.1-.7a32.19,32.19,0,0,1,0-7.6h0a4.67,4.67,0,0,0-.5-1h0a5.7,5.7,0,0,0,.1-1.3l.1.1c-.1-.4.2-.9,0-1.4h.1l-.1-.3c.1,0,.2,0,.1.2.1-3.8-.3-7.8-.2-11.7l.1.1-.1-.8.1.1c.1-1-.1-2,0-2.9,0,0,.1.1.1,0-.2-.7.2-1.1-.1-1.5,0,0,.1-.1.1,0-.1-2-.1-4-.1-5.9a.9.9,0,0,1-.1-.5,9.76,9.76,0,0,1,1.9-.1,16.2,16.2,0,0,0,2.2-.1v.1c2.2-.2,4.5,0,6.8,0,.9,0,1.6-.1,2.5-.1v.1a10.87,10.87,0,0,1,1.8-.1c.6,0,1.3.1,1.7.1v.5a1.27,1.27,0,0,0,.1.6l-.1-.1c.2.3-.1,1,.2.9l-.1.3c.4,1.1-.2,2.1.1,3.5l-.1-.1a2,2,0,0,1,0,1.1v-.1a15.27,15.27,0,0,0,0,3.7l-.1-.1a19.29,19.29,0,0,1,.1,2.5h-.1l.1.4h-.1A22.29,22.29,0,0,1,108.55,117.85Z"/><rect class="cls-3" x="64.45" y="-28.75" width="70.9" height="191.8" transform="translate(28.14 163.8) rotate(-87.31)"/><path class="cls-2" d="M194.55,102.85c0,.1-.1.1-.1.2l.2,2.5C195,104.45,194.45,103.65,194.55,102.85Z"/><path class="cls-2" d="M194.65,102.15a7.36,7.36,0,0,0,0-1.6C194.75,101,194.55,102.35,194.65,102.15Z"/><path class="cls-2" d="M156.25,34.45l-.2.1c4.1,0,8.8.4,13.1.5h-.3c9.8.5,18.8.8,28.5,1.1,0,1.3-.1,2.6-.1,3.9v-.4a9.63,9.63,0,0,1,0,1.7V41c-.3,2.3-.2,6.8-.4,8.3,0,.7.1.9.1.6-.4,8.6-.8,17.8-1,26.6,0,.4-.1.5-.2.4-.1,7.5-.5,15.3-.9,23,.1.3.1-.8.2,0,.2-2.5,0-4.5.3-6.7l.1.3c.1-1.6-.2-.3,0-2,.1-.7.1.2.1-.1.1-3.5.4-7.1.3-10.3.2-.8.2-3.7.4-5a11,11,0,0,0-.1-2.1c.7-12.1,1.1-24.4,1.7-36.8v-1.1h-2.5c-.7,0-1.5-.1-2.2-.1l-4.7-.3c-3.2-.2-6.5-.4-9.8-.5h0c-2.2,0-5.5-.1-8.2-.3h-2.3c-16.1-1-32.6-1.6-48.9-2.5-18.6-1-34.8-1.9-53-2.4,0,0-.1-.1.3,0-5.2-.2-10-.5-14.9-.7h0c-12.2-.3-25.4-1.2-37.2-1.5-2.7-.1-5.5-.3-8.7-.4-.6,11.7-1.2,24.7-1.8,37h-.1c-.2,5.7-.5,11.3-.8,16.9-.2,2.8-.3,5.6-.5,8.4s-.3,5.8-.4,8.7c.8,0,1.6.1,2.4.1,12.4.7,25.6.8,38.2,1.6,7.8.7,18,.5,25.3,1.2,15,1.2,29.5,1.6,44.5,2,13.8.8,27.6,1,41,2,6.4.1,13.3.9,20.4,1.2l-.2-.1c2.5.4,5.7-.1,7.2.4h-.3c1.3.2,3.1-.3,3.9,0l.2-.1c1.6.1.2.1,1.4.2.5,0,.2-.2,1.2-.1.2.4,4,.1,4.1.5-.9,0,1.4.2-.6.2.6.1,3.3.2,3.1,0,.2-.2,1.3-.3-.3-.5l-.3.1c-.6-.2-.4-.1-.6-.2a30.86,30.86,0,0,1-4-.5h0c-1.1.1-2.5-.1-3.4-.1l-.3-.1c-.5-.2-2.5.2-1.8,0-4.4-.1-9.4-.4-14.3-.6-.7.1-3.8-.2-2.7.1a62,62,0,0,0-6.2-.6h.3c-2.6-.4-3.1.1-5.6-.3-.4.2-4.5-.3-5.9-.1-.3-.1-.4-.1-.3-.2-4.4-.2-9.3-.5-13.1-.7-3.2.1-7.8-.5-10.5-.3-2.3-.2-6-.5-9.2-.5h.3c-3.6-.2-8.1-.3-10.6-.3a23,23,0,0,0-4.2-.5c-2.4,0-7.3-.2-10.9-.3-.6-.2-3-.1-3.2-.3-10.3-.1-23-.8-34-1.6h.2c-1.4,0-3.1.2-4.5.3-.1,0-.1-.1.2,0-2-.1-3.9-.3-5.9-.4h.3c-1.9,0-3.9-.3-6.1-.3l-.1-.1h-1.4c0-.1.1-.2.8-.1-5.6-.3-11.3-.5-16.9-.8s-11.2-.4-16.8-.7c.1-3,.2-5.9.4-8.9l.4-9.3v.7l.1-3.4v.3c.3-4.4.3-8.9.6-13.2,0,0,.1.7.1.1,0-3.2.5-5,.2-6.6,0-.1.1-.2.1.1.3-8.8.7-17.8,1.2-26.6v-3.3a17,17,0,0,1,2.2.1c.8,0,1.6.1,2.4.1,1.6.1,3.3.2,5,.2q4.95.3,9.9.3v.1c9.9.2,20.4,1,30.6,1.4,4.3.2,7.1.3,11.4.5l.1.1c7.2,0,15.1,1,22.6,1l-.5.1c1.2-.1,4.5.3,4.1,0l1.3.2c5.1-.1,9.3.6,15.5.7l-.4.1c1.7,0,3.6.1,4.8.2h-.5c5.2.5,11,.5,16.5.8l-.6.1c2.7,0,7.5.3,11,.4l-.2.1h1.8v.1C147.55,34.15,151.85,34.25,156.25,34.45Z"/><path class="cls-2" d="M188.15,106.25a1.27,1.27,0,0,1,.6.1C188.65,106.25,188.25,106.25,188.15,106.25Z"/><path class="cls-4" d="M50.15,46.15a4.58,4.58,0,0,0-2.4-3.3,5.42,5.42,0,0,0-2.5-.6,5.43,5.43,0,0,0-4.5,1.8,9.14,9.14,0,0,0-2,6c-.1,2.7.4,4.7,1.6,5.9a6.29,6.29,0,0,0,4.2,1.9,5.1,5.1,0,0,0,3.9-1.2,6.21,6.21,0,0,0,2-3.4l-5.2-.2.2-3.7,9.3.4-.6,12-3.1-.1-.3-2.8a10.64,10.64,0,0,1-2.5,2.1,8.45,8.45,0,0,1-4.6.9,9.33,9.33,0,0,1-7.1-3.4c-1.9-2.1-2.7-5-2.6-8.6a12.44,12.44,0,0,1,3.4-8.5,10.33,10.33,0,0,1,8-2.9,10.13,10.13,0,0,1,6.7,2.5,8.07,8.07,0,0,1,2.7,5.5Z"/><path class="cls-5" d="M50.15,46.15a4.58,4.58,0,0,0-2.4-3.3,5.42,5.42,0,0,0-2.5-.6,5.43,5.43,0,0,0-4.5,1.8,9.14,9.14,0,0,0-2,6c-.1,2.7.4,4.7,1.6,5.9a6.29,6.29,0,0,0,4.2,1.9,5.1,5.1,0,0,0,3.9-1.2,6.21,6.21,0,0,0,2-3.4l-5.2-.2.2-3.7,9.3.4-.6,12-3.1-.1-.3-2.8a10.64,10.64,0,0,1-2.5,2.1,8.45,8.45,0,0,1-4.6.9,9.33,9.33,0,0,1-7.1-3.4c-1.9-2.1-2.7-5-2.6-8.6a12.44,12.44,0,0,1,3.4-8.5,10.33,10.33,0,0,1,8-2.9,10.13,10.13,0,0,1,6.7,2.5,8.07,8.07,0,0,1,2.7,5.5Z"/><polygon class="cls-2" points="50.05 46.75 50.15 46.85 50.35 46.75 50.05 46.75"/><path class="cls-2" d="M51.15,46.65h0l-.7.2C50.75,47,51.05,46.45,51.15,46.65Z"/><path class="cls-2" d="M51.35,46.65c.2.1.4-.1.4-.1S51.35,46.45,51.35,46.65Z"/><path class="cls-2" d="M36.15,42.75l.1.1a8.62,8.62,0,0,1,2.2-2.5v.1a11.44,11.44,0,0,1,7.8-2.1h-.1c.1,0,.3-.1.5,0l-.1.1c.6.2,1.8.2,2.1.5.2,0,.3,0,.2-.1a9.61,9.61,0,0,1,5.5,4.2c0,.1,0,.2-.1.2a6.11,6.11,0,0,1,.7,1.4,1.88,1.88,0,0,1,.2.8,4.33,4.33,0,0,1,.1.5l.1.6V47h-.8l-1-.1c-.5,0-1-.1-1.5-.1-.1.1.2.1,0,.2.6.1,1.2-.1,1.7,0l-.1.1c.2,0,.2,0,.3-.1s.1-.1.5,0,0,.1.1.1h.9v-.3c0-.4-.1-.8-.1-1.2a3,3,0,0,0-.5-1.3c.1-.3-.4-.9-.4-1.3-.2-.2-.3-.4-.4-.4a8.47,8.47,0,0,0-3.7-3.3,13.43,13.43,0,0,0-4.8-1.1c-.8.1-1.6.1-2.5.2a7.6,7.6,0,0,0-2.6.6h0c-.5.3-1.3.7-1.9,1.1a2.18,2.18,0,0,0-.4.5,9.84,9.84,0,0,0-3.7,5.2,19.75,19.75,0,0,0-.8,6.4,11.09,11.09,0,0,0,2.4,6.6,8.66,8.66,0,0,0,6.1,3.3s0,.1-.1,0a12.84,12.84,0,0,0,3.9.1h0a9.61,9.61,0,0,0,2.8-1.1l1.2-.9.7-.7c.1.8.3,1.6.4,2.4h1.1c.7,0,1.4.1,2.3.1.1-1.6.1-3.2.2-4.9s.1-3.3.2-4.9H55a20.08,20.08,0,0,1,.1-2.4c-2.4-.1-4.6-.4-7-.5-.4,0-.8-.1-1.2-.1h-1.4v4a24.2,24.2,0,0,1,3.8.2,1.7,1.7,0,0,0,.7.1h.5v.2a5.27,5.27,0,0,1-.5,1.5,3.82,3.82,0,0,1-2.3,2.2,9,9,0,0,1-2.8.4,6.77,6.77,0,0,1-2.7-.7,7.23,7.23,0,0,1-2.2-1.7,6.2,6.2,0,0,1-1.2-2.6,19.57,19.57,0,0,1,.2-5.4,7.71,7.71,0,0,1,1-2.5,4.94,4.94,0,0,1,2-1.8,3.85,3.85,0,0,1,2.4-.8,10.87,10.87,0,0,1,2.6.4v-.1a1.69,1.69,0,0,0,1,.3c.3.1.6.2.7.5h-.1c.1.3.9.2.9.5h.1c.3.3,0,.1.1.4.1.1.2,0,.3.2-.1.1,0,.3.1.6s.2.5,0,.5c-.1-.2,0,.4-.3-.1,0,.1.2.8.3.7s.4.3.5-.2l-.1-.1c.1-.2,0-.1.1-.2-.1-.6,0-.7-.1-1.1h0a1.77,1.77,0,0,1-.5-.8v-.1c0-.2-.7-.3-.4-.4a5.89,5.89,0,0,0-3.7-1.5c-.2.1-1-.1-.7.1a3.28,3.28,0,0,0-1.7-.1.1.1,0,0,1,.1-.1c-.8-.1-.7.5-1.5.5,0,.2-1.1.7-1.2,1.2h-.2a7.9,7.9,0,0,0-1.9,3.1,9.56,9.56,0,0,0-.3,2.8,6.7,6.7,0,0,0-.1,2.5v-.1a7.13,7.13,0,0,0,.8,2.8c-.2.4.1.8.3,1.2a7,7,0,0,0,2.5,1.8c.1.2.8.3.8.5a9,9,0,0,0,4.6-.2,7,7,0,0,0,3.6-3.2h0v-.8a1.48,1.48,0,0,0-.1-.7c0-.1.1-.1,0,0v-.2h-.2l-.5-.1-.5-.1h-.4l.1-.1c-.5.1-1-.2-1.6-.1v-.1l-.4.1c0-.1,0-.2.2-.1-.6,0-1.7-.1-1.6-.1v-2.7h3.4c1.3,0,2.6.1,3.9.1l-.4.4.9-.1-.1.1h.5v2.1s-.1-.2-.1,0c.1.8-.3,1.3.1,1.7,0,0-.1.1-.1,0q0,3.45-.3,6.9v.7h-1.3a6.6,6.6,0,0,1-1.4-.1c-.1-.4-.2-1.1-.3-1.8h.1c-.1-.3-.1-.7-.2-.9a8.61,8.61,0,0,1-2.8,2.3,9.4,9.4,0,0,1-3.3.8,14.15,14.15,0,0,1-2.9-.2v-.1a5.58,5.58,0,0,1-2.7-1c-.8-.5-1.5-1.2-2.3-1.8h.2c-.3-.1-.7-.9-.9-.7l-.1-.3a3.36,3.36,0,0,1-1-1.6c-.2-.6-.4-1.3-.7-2l.1.1A3,3,0,0,1,34,53l.1.1c.1-1.3-.3-2.8-.1-4.2l.1.2a9.93,9.93,0,0,1,.4-2.8v-.4h.1A12.91,12.91,0,0,1,36.15,42.75Z"/><path class="cls-2" d="M50.15,44.45c0,.1,0,.1.1.2A.35.35,0,0,0,50.15,44.45Z"/><path class="cls-4" d="M66,39.85l5.3.2,6.8,22.7-5-.2L71.75,58l-8.2-.4-1.7,4.5-4.9-.2Zm-1,13.9,5.7.3-2.4-8.9Z"/><path class="cls-5" d="M66,39.85l5.3.2,6.8,22.7-5-.2L71.75,58l-8.2-.4-1.7,4.5-4.9-.2Zm-1,13.9,5.7.3-2.4-8.9Z"/><path class="cls-2" d="M65.45,53.75h0l.2.2C65.75,54,65.35,53.75,65.45,53.75Z"/><path class="cls-2" d="M65.45,53.65c.1,0,0-.1-.1-.1C65.45,53.65,65.35,53.65,65.45,53.65Z"/><path class="cls-2" d="M66.75,49h0c0,.2-.2.3-.2.5h0a8,8,0,0,0-.3,1.5h0l.1.1h-.1c-.2,0,0,.3-.2.3l.1.1a5,5,0,0,0-.2,1.2h-.1c.2.4-.1.7-.3,1,.1,0,.1,0,.2.1.1-.1-.1-.3.1-.3H66c.1-.1-.2-.1-.1-.1H66c0-.2.2-.3,0-.5.2,0,.1-.2.2-.2s0-.1-.1-.1c.3-.5.3-1.1.6-1.6-.2-.4.3-.5.3-.9h0a.6.6,0,0,1,.1-.4l-.1-.1a18.65,18.65,0,0,0,1-2,.77.77,0,0,1,.2-.3l.1-.1a8.15,8.15,0,0,1,.1-1v.1c.1-.1,0,.4.1.3v.1c.1-.1.2.1.2.3s.1.3.3.6a15.19,15.19,0,0,0,.6,2h-.1c.3.5.1,1.1.3,1.6,0,.6.7,1,.6,1.7-.1.2,0,.4.2.6s.3.5.2.6h-.1c-.6-.2-.7-.3-.9-.2a3.81,3.81,0,0,0-1,.3c-.6-.2-1.3.2-1.9-.2-.3.2-.6-.3-.9-.3v.1c-.1-.2-.3.3-.3,0h0c-.1-.2-.2.4-.2.2v.1c-.1,0,0-.1-.1-.1s0,.2-.1.1c0-.4-.2.1-.2-.3,0,0-.1-.2,0-.2s-.2,0-.1.1-.1.3,0,.5v.1c.1,0,.1.2.2.3h0c.1-.2.1-.1.2,0v.1c0,.2.1-.3.1,0,.2-.1.4,0,.7,0,0-.1.2,0,.1-.2a.32.32,0,0,0,.3.3h0c.1.3.2-.3.3.1,0-.2.2.1.3-.2v.1c.2,0,.4.1.6.1.2-.2.4.1.5-.2.1.1.3.2.4.1h0c.2,0,.4,0,.5-.2,0,.3.1.2.2.3.1-.1.3-.1.5-.2.1.1.2,0,.3.1a2.34,2.34,0,0,1,1.2-.2,2.43,2.43,0,0,1,0-1.2h0a3.33,3.33,0,0,0-.6-.3h0c-.1-.1.1-.2,0-.3h.1c-.1-.1.1-.2-.1-.3h0c-.1-.8-.7-1.5-.8-2.3h.1l-.1-.1h.1c.1-.2-.2-.4-.2-.6H70c-.2-.1.2-.3-.2-.3h.1a5.64,5.64,0,0,1-.4-1.2c-.4-.3-.2-.7-.6-1H69c-.2-.2-.2-.4-.3-.7a2.39,2.39,0,0,0-.2-.9,1.47,1.47,0,0,0-.2-.4v-.3c-.1.7-.1.6-.2.6s-.2.2-.2.7v-.2c0,.4-.1.1,0,.6a.1.1,0,0,0-.1-.1c.1.4,0,.4-.1.4s-.2.1-.1.3l-.1-.1c0,.1,0,.2-.1.2h0c-.3.1-.2.5-.3.7l-.1-.1c.1.2-.1.3-.1.5h-.1l.1.1h-.1Z"/><path class="cls-2" d="M65.25,54.35c-.1,0-.1-.1,0,0Z"/><polygon class="cls-2" points="65.25 39.65 65.25 39.65 65.35 39.75 65.25 39.65"/><path class="cls-2" d="M65.25,40.35h0l-.1-.5C65,40,65.45,40.25,65.25,40.35Z"/><path class="cls-2" d="M65.15,40.45c-.1.1,0,.2,0,.3C65.15,40.55,65.35,40.45,65.15,40.45Z"/><path class="cls-2" d="M59.45,55.75h0a14.17,14.17,0,0,1,.8-1.8v.1c.7-1.6,1.1-3.1,1.7-4.7v-.1c.3-.3.3-1,.5-1.2,0-.1,0-.2-.1-.1a28.44,28.44,0,0,0,1.3-3.8c0-.1.1,0,.2,0a13.06,13.06,0,0,1,1.2-3.3c-.1-.1-.1.1-.2-.1-.2.3-.1.7-.3,1l-.1-.1c-.1.2.2.1,0,.3s-.1-.1-.1,0a8.8,8.8,0,0,0-.5,1.5c-.2.1-.2.5-.4.6,0,.2-.1.3,0,.4-.8,1.7-1.4,3.5-2.1,5.2,0,.9-.8,1.8-1.1,2.8h0a8.4,8.4,0,0,1-.4,1.2v.4a35.39,35.39,0,0,0-1.6,3.4l-.7,1.7-.4.9-.4.9a6.12,6.12,0,0,0-.5,1.2c1,.1,2,.2,3,.2a4.87,4.87,0,0,1,1.2.1,9.15,9.15,0,0,1,1.6.1l.3-.9.2-.6.3-1.2s.1,0,0,.1c.1-.4.3-.7.4-1.1l.2-.5.1-.3v-.2h0v-.1h1.1l1.4.1a24.32,24.32,0,0,0,2.7,0c.8,0,1.7.1,2.6.1.2.6.4,1.3.6,2l.6,2.1h-.1c.1.2.1.4.2.6a19.48,19.48,0,0,1,2.5.2l1.2.1H78c-.1-.5-.4-1.2-.5-1.6s-.3-.9-.5-1.4a14.26,14.26,0,0,1-.9-2.7c0-1.2-1.1-2.5-1.2-3.7a19.06,19.06,0,0,0-2.1-6.5c-.4-2.1-1.5-4-1.7-6-.1-.1-.1-.3-.2-.4s-.1-.2-.1-.4a3.55,3.55,0,0,1-1-.2,4.1,4.1,0,0,0-1.1-.1v.1c-.4-.3-.9.3-1.1-.1h0c-.2-.2-.5.4-.6.2v.1c-.2,0,0-.1-.2-.1s0,.2-.2.1c0-.4-.6,0-.6-.4.1,0-.2-.2.1-.2-.1,0-.5,0-.5.1s-.2.3,0,.5l.1-.1c.1.1.1.1.1.2.3,0,.4.2.6.3h0c.2-.2.4,0,.5,0v.1c.1.2.4-.3.3,0h2.2c.1-.1.6,0,.4-.2a.76.76,0,0,0,.5.2.1.1,0,0,1,.1.1h0V41c-.1.1.2-.2.1.3.3,0,.1.7.5.8a.1.1,0,0,1-.1.1c.2.7.3,1.4.5,2,.4.4.2,1.2.7,1.5a3.93,3.93,0,0,0,.3,1.4h0a5.23,5.23,0,0,0,.7,1.5c-.2.2-.1.5-.1.7.2.3.4,1,.7,1.5-.1.1.2.4,0,.5a13.86,13.86,0,0,1,1.5,5h0a3,3,0,0,0,.7.5h-.1c.1.3,0,.6.1.9h-.1c.2.3,0,.6.3.9h0l.1.2c-.1,0-.2,0-.2-.1.2.8.5,1.5.7,2.3l.4,1.1a.77.77,0,0,1,.1.3l.1.3h-1a8.6,8.6,0,0,1-1.6-.1l.1-.1-.5.1.1-.1c-.2,0-.5-.1-.7-.1h-.5c0-.1-.1-.2-.1-.3s.1.1.1,0c-.3-.4,0-.8-.4-.9,0,0,.1-.1.1,0a8.8,8.8,0,0,1-.5-1.5,14.31,14.31,0,0,1-.5-1.8l-1.1-.1c-1.1.3-2.4-.1-3.6.1v-.1a12.05,12.05,0,0,1-1.9,0c-.7-.1-1.3-.1-2-.2a3.18,3.18,0,0,0-.3.9c-.3.6-.3,1-.6,1.7h-.1a2.93,2.93,0,0,1-.3,1l-.2.5-.2.4h-.5a1.27,1.27,0,0,0-.6.1l.1-.1c-.2.2-.7-.1-.6.2l-.2-.1c-.8.4-1.4-.2-2.4,0l.1-.1h-.6a.35.35,0,0,1,.1-.2h0a2.22,2.22,0,0,0,.5-1.1,5.64,5.64,0,0,1,.4-1.2l.1.1a6.39,6.39,0,0,1,.6-1.6v-.2h.1A11.12,11.12,0,0,0,59.45,55.75Z"/><path class="cls-4" d="M96.15,41.85a4.7,4.7,0,0,1,2,1.7,6.92,6.92,0,0,1,1,1.9,8.75,8.75,0,0,1,.3,2.4,6.93,6.93,0,0,1-.9,3.1,4.26,4.26,0,0,1-2.7,2,4.38,4.38,0,0,1,2.1,1.9,7,7,0,0,1,.5,3.5l-.1,1.5V62a2,2,0,0,0,.8,1.3v.6l-5.1-.2a7.38,7.38,0,0,1-.2-1.2,12.1,12.1,0,0,1-.1-1.9l.1-2.1a5,5,0,0,0-.6-2.9,3.5,3.5,0,0,0-2.6-.8l-4.5-.2-.4,8.7-4.6-.2,1-22.3,10.7.5A7.79,7.79,0,0,1,96.15,41.85Zm-9.8,2.9-.3,6,5,.2a5.13,5.13,0,0,0,2.3-.3,2.39,2.39,0,0,0,1.4-2.4,2.77,2.77,0,0,0-1.1-2.8,5.39,5.39,0,0,0-2.1-.5Z"/><path class="cls-5" d="M96.15,41.85a4.7,4.7,0,0,1,2,1.7,6.92,6.92,0,0,1,1,1.9,8.75,8.75,0,0,1,.3,2.4,6.93,6.93,0,0,1-.9,3.1,4.26,4.26,0,0,1-2.7,2,4.38,4.38,0,0,1,2.1,1.9,7,7,0,0,1,.5,3.5l-.1,1.5V62a2,2,0,0,0,.8,1.3v.6l-5.1-.2a7.38,7.38,0,0,1-.2-1.2,12.1,12.1,0,0,1-.1-1.9l.1-2.1a5,5,0,0,0-.6-2.9,3.5,3.5,0,0,0-2.6-.8l-4.5-.2-.4,8.7-4.6-.2,1-22.3,10.7.5A7.79,7.79,0,0,1,96.15,41.85Zm-9.8,2.9-.3,6,5,.2a5.13,5.13,0,0,0,2.3-.3,2.39,2.39,0,0,0,1.4-2.4,2.77,2.77,0,0,0-1.1-2.8,5.39,5.39,0,0,0-2.1-.5Z"/><path class="cls-2" d="M86.55,45.15h0l-.1.2C86.45,45.55,86.55,45.05,86.55,45.15Z"/><path class="cls-2" d="M86.65,45.25c0,.1.1-.1.1-.1S86.65,45.05,86.65,45.25Z"/><path class="cls-2" d="M92.05,45v-.1c-.2.2-.5,0-.7,0h0a9.7,9.7,0,0,0-1.7.1v-.1l-.1.1v-.1c-.1-.2-.4.1-.4,0a.14.14,0,0,0,0,.2,3.64,3.64,0,0,0-1.4.2v-.1c-.4.3-.8.1-1.2.1v.2c.1.1.2-.2.3,0v.1c.1.1,0-.2.1-.1v.1c.2,0,.4.1.5-.1,0,.2.2,0,.2.2,0-.1.1,0,.1-.2a12.05,12.05,0,0,0,1.9,0c.3-.3.6.1,1,0h0a.6.6,0,0,1,.4-.1l.1-.1c.8.3,1.6.2,2.1.8s.5,1.3.9,2.1h-.1c.1.3-.1.5,0,.7h0a1,1,0,0,1-.2.9,1.79,1.79,0,0,1-.5.7,5.12,5.12,0,0,1-2.2.6V51c-.6.1-1.2-.3-1.8-.2-.6-.2-1.3.3-2,.1-.4-.3-.9.3-1.3,0-.1-.1-.2-.2-.3-.2a.85.85,0,0,0,0-.7l-.3-.9c.2-.7-.2-1.4.2-2.1-.2-.3.3-.7.3-1h-.1c.2-.1-.3-.3,0-.4h0c.2-.1-.4-.2-.2-.2h-.1c0-.1.1,0,.1-.1s-.2,0-.1-.1c.4,0-.1-.2.3-.2,0,0,.2-.1.2,0s0-.2-.1-.2-.3-.1-.5,0h-.1c0,.1-.2.1-.3.2h0c.2.1.1.1,0,.2H85c-.2,0,.3.1,0,.1.1.2,0,.5,0,.7.1,0,0,.2.2.1q-.3.15-.3.3h0c-.3.1.3.2-.1.3.2,0-.1.2.2.3h-.1c0,.2-.1.5-.1.7.2.2-.1.4.2.5a.44.44,0,0,0-.1.5h0a.73.73,0,0,0,.2.6c-.3,0-.2.1-.3.2.1.1.1.4.2.6-.1.1,0,.3-.2.3a2.35,2.35,0,0,1,.2.8,3.75,3.75,0,0,1,1,.1,2.12,2.12,0,0,1,.7.3h0a2.19,2.19,0,0,0,.3-.5h0c.1,0,.2.2.3.1v.1c.1-.1.2.2.3,0v.1l.1-.1v.1c.9.1,1.8-.2,2.7-.1v.1l.2-.1v.1c.2.1.5-.1.7,0v.1c.2-.2.3.2.4-.1v.1c.5-.1.9-.2,1.5-.3.1-.2.3-.3.5-.5a1,1,0,0,0,.4-.5h.1c.1-.5.5-1,.5-1.5.1-.2,0-.4,0-.6h.1c-.3-.3.2-.8-.2-1.2h.1c-.2,0,0-.3-.3-.1l.1-.1c-.4-.1,0-.5-.5-.6h.1a.22.22,0,0,1-.2-.2H94c0-.4-.5-.3-.7-.5l.1-.1c-.2.1-.4-.1-.6-.1v-.1l-.1.1v-.1C92.55,44.85,92.35,45,92.05,45Z"/><path class="cls-2" d="M85.75,45.05h0C85.75,45,85.85,45,85.75,45.05Z"/><path class="cls-2" d="M95.55,41.15h.6C96,41,95.65,41.35,95.55,41.15Z"/><path class="cls-2" d="M95.45,41.15c-.2-.1-.3,0-.3,0S95.45,41.25,95.45,41.15Z"/><path class="cls-2" d="M81.55,43c0-.1-.1-.1,0,0C81.45,42.85,81.45,43,81.55,43Z"/><path class="cls-2" d="M81.75,47.05h.1a19.22,19.22,0,0,1,0-2.4v.1c.1-1.4.1-2.7.1-4h1.9l-.1.1c.1,0,.2-.1.3-.1l-.1.1c.4.2,1.3-.1,1.5.1.1,0,.2-.1.1-.1,1.6,0,3.3.1,4.9,0a.1.1,0,0,1,.1.1,10.46,10.46,0,0,1,4.3.3c.1-.1-.1-.1,0-.2-.5-.2-.9,0-1.3-.2l.1-.1c-.3-.1-.1.2-.4,0-.1-.1,0-.1,0-.1a12,12,0,0,0-1.9,0c-.1-.2-.7,0-.9-.2-.2.1-.3,0-.4.1-2.2-.2-4.5-.1-6.8-.3a1.48,1.48,0,0,1-.7.1h-1c-.1,1.1-.2,1.8-.2,2.6h0a3.78,3.78,0,0,1,0,1.5l.1.4c-.4,3-.4,6-.6,9-.1,1.6-.2,3.1-.3,4.6,0,.7-.1,1.5-.1,2.2v2.6h1.1l-.1.1c1,0,1.9.1,2.8.1h1.4a9.7,9.7,0,0,1,.1-1.7,6.15,6.15,0,0,1,.1-1.4,26.13,26.13,0,0,0,0-2.8c0-.9.1-1.9.1-3,.8,0,1.7.1,2.5.1a24.37,24.37,0,0,1,2.7.1v.1a2.69,2.69,0,0,1,1.5.5,2.35,2.35,0,0,1,.7,1.4c.1,1.1-.1,2.2,0,3.3a10.82,10.82,0,0,0,0,1.8,6.54,6.54,0,0,0,.4,1.8v.1h1.7a10.87,10.87,0,0,1,1.8.1A9.15,9.15,0,0,0,99,64h.1v-.7a1.42,1.42,0,0,1-.8-.9,4.48,4.48,0,0,1-.1-1.1,18.88,18.88,0,0,0,.3-4.1,6.53,6.53,0,0,0-.5-2,5.55,5.55,0,0,0-.6-.8,7,7,0,0,0-.9-.6c-.3-.2-.7-.4-1-.6a6.71,6.71,0,0,0,1.7-.8,4.26,4.26,0,0,0,1.1-1.2,10.21,10.21,0,0,0,1.1-2.9,10.82,10.82,0,0,1,0-1.8,4.49,4.49,0,0,0-.5-1.9v.1c0-.6-.8-.7-.7-1.1h0c0-.3-.7-.2-.6-.4h-.1c-.2-.2,0-.1-.1-.3-.1,0-.1.1-.2,0,.2-.3-.6-.4-.4-.7.1.1-.2-.3.2-.1-.1-.1-.6-.3-.6-.2s-.4.2-.2.5l.1-.1v.2c.3.2.3.4.4.6h0a.85.85,0,0,1,.5.3v.1c0,.2.5.1.2.2a5.33,5.33,0,0,1,1.3,2c.1.1.2.6.3.4a4.48,4.48,0,0,0-.1,1.1v-.1c-.3.4.3.5-.1.9.3.1-.1.7.1,1h-.2a4.89,4.89,0,0,1-1,1.9,1.79,1.79,0,0,1-.5.7,3.39,3.39,0,0,0-.6.6,8.11,8.11,0,0,1-1.1.3c-.5.1-1,.3-1.5.4a10.37,10.37,0,0,0,1,.4h-.2c.3.2.7.3,1,.5a3.22,3.22,0,0,1,.7.4c.2.2.5.3.7.5a1.63,1.63,0,0,0,0,.7,3.8,3.8,0,0,1,.5,1.7c-.1.1.1.5-.1.6a9.19,9.19,0,0,1,.1,2.9,8.53,8.53,0,0,0,0,1.6,1.61,1.61,0,0,0,.3.9c.1.1.2.3.3.4l.1.1h0l-.1.1h0c0,.1.1.1.1.2l.6-.6a4.35,4.35,0,0,1-.7.4h0c-.4,0-.7-.2-1.1-.2l.1-.1c-.4.1-.7-.2-1.1-.1v-.1l-.3.1c0-.1,0-.2.2-.1l-1.2-.1h-.6s-.1-.5-.2-.8l-.1-1.2c-.1-.8,0-1.6-.1-2.4a7.15,7.15,0,0,0-.3-2.5l.1.1a2.09,2.09,0,0,0-.4-.6h.1a1.62,1.62,0,0,0-1.1-.9l-1.3-.3s.1-.1,0-.1c-.6.1-1-.3-1.3,0v-.1h-2c-.7,0-1.2-.1-2.4-.1,0,.4-.1.8-.1,1.2.3,1.4-.1,2.9.1,4.3h-.1v1.8c0,.6-.1,1.3-.1,1.8-.6,0-1.2-.1-1.9-.1a14.72,14.72,0,0,0-2.1,0v-.1a.6.6,0,0,0-.4.1,12.37,12.37,0,0,1,.2-1.8,6.05,6.05,0,0,0,0-1.9l.1.1c-.2-.2.1-.8-.2-.8l.1-.2c-.3-1,.3-1.7.1-2.9l.1.1c0-.3-.1-.7,0-.9V55a10,10,0,0,0,.1-3l.1.1c-.1-.5.1-1.4,0-2h.1l-.1-.3h.1A5.54,5.54,0,0,0,81.75,47.05Z"/><path class="cls-4" d="M110.65,42l5.3.2,6.8,22.7-5-.2-1.3-4.6-8.2-.4-1.7,4.5-4.9-.2Zm-1,13.9,5.7.3-2.4-8.9Z"/><path class="cls-5" d="M110.65,42l5.3.2,6.8,22.7-5-.2-1.3-4.6-8.2-.4-1.7,4.5-4.9-.2Zm-1,13.9,5.7.3-2.4-8.9Z"/><path class="cls-2" d="M110.15,55.85h0l.2.2C110.45,56.05,110.05,55.85,110.15,55.85Z"/><path class="cls-2" d="M110.15,55.75c.1,0,0-.1-.1-.1C110.25,55.75,110.05,55.75,110.15,55.75Z"/><path class="cls-2" d="M111.45,51h0c0,.2-.2.3-.2.5h0A8,8,0,0,0,111,53h0l.1.1H111c-.2,0,0,.3-.2.3l.1.1a5,5,0,0,0-.2,1.2h-.1c.2.4-.1.7-.3,1,.1,0,.1,0,.2.1.1-.1-.1-.3.1-.3h.1c.1-.1-.2-.1-.1-.1h.1c0-.2.2-.3,0-.5.2,0,.1-.2.2-.2s0-.1-.1-.1c.3-.5.3-1.1.6-1.6-.2-.4.3-.5.3-.9h0a.6.6,0,0,1,.1-.4l-.1-.1a18.65,18.65,0,0,0,1-2,.77.77,0,0,1,.2-.3l.1-.1a8.15,8.15,0,0,1,.1-1v.1c.1-.1,0,.4.1.3v.1c.1-.1.2.1.2.3s.1.3.3.6a15.19,15.19,0,0,0,.6,2h-.1c.3.5.1,1.1.3,1.6,0,.6.7,1,.6,1.7-.1.2,0,.4.2.6s.3.5.2.6h-.1c-.6-.2-.7-.3-.9-.2a3.81,3.81,0,0,0-1,.3c-.6-.2-1.3.2-1.9-.2-.3.2-.6-.3-.9-.3v.1c-.1-.2-.3.3-.3,0h0c-.1-.2-.2.4-.2.2v.1c-.1,0,0-.1-.1-.1s0,.2-.1.1c0-.4-.2.1-.2-.3,0,0-.1-.2,0-.2s-.2,0-.1.1-.1.3,0,.5v.1c.1,0,.1.2.2.3h0c.1-.2.1-.1.2,0v.1c0,.2.1-.3.1,0,.2-.1.4,0,.7,0,0-.1.2,0,.1-.2a.32.32,0,0,0,.3.3h0c.1.3.2-.3.3.1,0-.2.2.1.3-.2v.1c.2,0,.4.1.6.1.2-.2.4.1.5-.2.1.1.3.2.4.1h0c.2,0,.4,0,.5-.2,0,.3.1.2.2.3.1-.1.3-.1.5-.2.1.1.2,0,.3.1a2.34,2.34,0,0,1,1.2-.2,2.43,2.43,0,0,1,0-1.2h0a3.33,3.33,0,0,0-.6-.3h0c-.1-.1.1-.2,0-.3h.1c-.1-.1.1-.2-.1-.3h0c-.1-.8-.7-1.5-.8-2.3h.1l-.1-.1h.1c.1-.2-.2-.4-.2-.6h.1c-.2-.1.2-.3-.2-.3h.1a5.64,5.64,0,0,1-.4-1.2c-.4-.3-.2-.7-.6-1h.1c-.2-.2-.2-.4-.3-.7a2.39,2.39,0,0,0-.2-.9,1.47,1.47,0,0,0-.2-.4v-.3c-.1.7-.1.6-.2.6s-.2.2-.2.7v-.2c0,.4-.1.1,0,.6a.1.1,0,0,0-.1-.1c.1.4,0,.4-.1.4s-.2.1-.1.3l-.1-.1c0,.1,0,.2-.1.2h0c-.3.1-.2.5-.3.7l-.1-.1c.1.2-.1.3-.1.5h-.1l.1.1h-.1C111.45,50.55,111.55,50.85,111.45,51Z"/><path class="cls-2" d="M110,56.45Z"/><polygon class="cls-2" points="110.05 41.75 109.95 41.75 110.05 41.85 110.05 41.75"/><path class="cls-2" d="M110,42.45h0l-.1-.5C109.75,42.05,110.15,42.35,110,42.45Z"/><path class="cls-2" d="M110,42.55c-.1.1,0,.2,0,.3C109.85,42.65,110.05,42.55,110,42.55Z"/><path class="cls-2" d="M104.15,57.85h0a14.17,14.17,0,0,1,.8-1.8v.1c.7-1.6,1.1-3.1,1.7-4.7v-.1c.3-.3.3-1,.5-1.2,0-.1,0-.2-.1-.1a28.44,28.44,0,0,0,1.3-3.8c0-.1.1,0,.2,0a13.06,13.06,0,0,1,1.2-3.3c-.1-.1-.1.1-.2-.1-.2.3-.1.7-.3,1l-.1-.1c-.1.2.2.1,0,.3s-.1-.1-.1,0a8.8,8.8,0,0,0-.5,1.5c-.2.1-.2.5-.4.6,0,.2-.1.3,0,.4-.8,1.7-1.4,3.5-2.1,5.2,0,.9-.8,1.8-1.1,2.8h0a8.4,8.4,0,0,1-.4,1.2v.4a35.39,35.39,0,0,0-1.6,3.4l-.7,1.7-.4.9-.4.9a6.12,6.12,0,0,0-.5,1.2c1,.1,2,.2,3,.2a4.87,4.87,0,0,1,1.2.1,9.15,9.15,0,0,1,1.6.1l.3-.9.2-.6.3-1.2s.1,0,0,.1c.1-.4.3-.7.4-1.1l.2-.5.1-.3V60h0v-.1h1.1l1.4.1a24.32,24.32,0,0,0,2.7,0c.8,0,1.7.1,2.6.1.2.6.4,1.3.6,2l.6,2.1h-.1c.1.2.1.4.2.6a19.48,19.48,0,0,1,2.5.2l1.2.1h1.6c-.1-.5-.4-1.2-.5-1.6s-.3-.9-.5-1.4a14.26,14.26,0,0,1-.9-2.7c0-1.2-1.1-2.5-1.2-3.7a19.06,19.06,0,0,0-2.1-6.5c-.4-2.1-1.5-4-1.7-6-.1-.1-.1-.3-.2-.4s-.1-.2-.1-.4a3.55,3.55,0,0,1-1-.2,4.1,4.1,0,0,0-1.1-.1v.1c-.4-.3-.9.3-1.1-.1h0c-.2-.2-.5.4-.6.2v.1c-.2,0,0-.1-.2-.1s0,.2-.2.1c0-.4-.6,0-.6-.4.1,0-.2-.2.1-.2-.1,0-.5,0-.5.1s-.2.3,0,.5l.1-.1c.1.1.1.1.1.2.3,0,.4.2.6.3h0c.2-.2.4,0,.5,0v.1c.1.2.4-.3.3,0h2.2c.1-.1.6,0,.4-.2a.76.76,0,0,0,.5.2.1.1,0,0,1,.1.1h0v.1c-.1.1.2-.2.1.3.3,0,.1.7.5.8a.1.1,0,0,1-.1.1c.2.7.3,1.4.5,2,.4.4.2,1.2.7,1.5a3.93,3.93,0,0,0,.3,1.4h0a5.23,5.23,0,0,0,.7,1.5c-.2.2-.1.5-.1.7.2.3.4,1,.7,1.5-.1.1.2.4,0,.5a13.86,13.86,0,0,1,1.5,5h0a3,3,0,0,0,.7.5h-.1c.1.3,0,.6.1.9h-.1c.2.3,0,.6.3.9h0l.1.2c-.1,0-.2,0-.2-.1.2.8.5,1.5.7,2.3l.4,1.1a.77.77,0,0,1,.1.3l.1.3h-1a8.6,8.6,0,0,1-1.6-.1l.1-.1-.5.1.1-.1c-.2,0-.5-.1-.7-.1h-.5c0-.1-.1-.2-.1-.3s.1.1.1,0c-.3-.4,0-.8-.4-.9,0,0,.1-.1.1,0a8.8,8.8,0,0,1-.5-1.5,14.31,14.31,0,0,1-.5-1.8l-1.1-.1c-1.1.3-2.4-.1-3.6.1v-.1a12.05,12.05,0,0,1-1.9,0c-.7-.1-1.3-.1-2-.2a3.18,3.18,0,0,0-.3.9c-.3.6-.3,1-.6,1.7H107a2.93,2.93,0,0,1-.3,1l-.2.5-.2.4h-.5a1.27,1.27,0,0,0-.6.1l.1-.1c-.2.2-.7-.1-.6.2l-.2-.1c-.8.4-1.4-.2-2.4,0l.1-.1h-.6a.35.35,0,0,1,.1-.2h0a2.22,2.22,0,0,0,.5-1.1,5.64,5.64,0,0,1,.4-1.2l.1.1a6.39,6.39,0,0,1,.6-1.6V60h.1A11.12,11.12,0,0,0,104.15,57.85Z"/><path class="cls-4" d="M141.25,50.35a4.58,4.58,0,0,0-2.4-3.3,6.15,6.15,0,0,0-7,1.2,9.14,9.14,0,0,0-2,6c-.1,2.7.4,4.7,1.6,5.9a6.29,6.29,0,0,0,4.2,1.9,5.1,5.1,0,0,0,3.9-1.2,6.21,6.21,0,0,0,2-3.4l-5.2-.2.2-3.7,9.3.4-.6,12-3.1-.1-.3-2.8a10.64,10.64,0,0,1-2.5,2.1,8.45,8.45,0,0,1-4.6.9,9.33,9.33,0,0,1-7.1-3.4c-1.9-2.1-2.7-5-2.6-8.6a12.44,12.44,0,0,1,3.4-8.5,10.33,10.33,0,0,1,8-2.9,10.13,10.13,0,0,1,6.7,2.5,8.07,8.07,0,0,1,2.7,5.5Z"/><path class="cls-5" d="M141.25,50.35a4.58,4.58,0,0,0-2.4-3.3,6.15,6.15,0,0,0-7,1.2,9.14,9.14,0,0,0-2,6c-.1,2.7.4,4.7,1.6,5.9a6.29,6.29,0,0,0,4.2,1.9,5.1,5.1,0,0,0,3.9-1.2,6.21,6.21,0,0,0,2-3.4l-5.2-.2.2-3.7,9.3.4-.6,12-3.1-.1-.3-2.8a10.64,10.64,0,0,1-2.5,2.1,8.45,8.45,0,0,1-4.6.9,9.33,9.33,0,0,1-7.1-3.4c-1.9-2.1-2.7-5-2.6-8.6a12.44,12.44,0,0,1,3.4-8.5,10.33,10.33,0,0,1,8-2.9,10.13,10.13,0,0,1,6.7,2.5,8.07,8.07,0,0,1,2.7,5.5Z"/><polygon class="cls-2" points="141.25 51.05 141.35 51.15 141.45 51.05 141.25 51.05"/><path class="cls-2" d="M142.35,50.85h0l-.7.2C142,51.25,142.15,50.75,142.35,50.85Z"/><path class="cls-2" d="M142.55,51c.2.1.4-.1.4-.1S142.45,50.75,142.55,51Z"/><path class="cls-2" d="M127.25,47l.1.1a8.62,8.62,0,0,1,2.2-2.5v.1a11.44,11.44,0,0,1,7.8-2.1h-.1c.1,0,.3-.1.5,0l-.1.1c.6.2,1.8.2,2.1.5.2,0,.3,0,.2-.1a9.61,9.61,0,0,1,5.5,4.2c0,.1,0,.2-.1.2a6.11,6.11,0,0,1,.7,1.4,1.88,1.88,0,0,1,.2.8,4.33,4.33,0,0,1,.1.5l.1.6v.4h-.8l-1-.1c-.5,0-1-.1-1.5-.1-.1.1.2.1,0,.2.6.1,1.2-.1,1.7,0l-.1.1c.2,0,.2,0,.3-.1s.1-.1.5,0,0,.1.1.1h.9V51c0-.4-.1-.8-.1-1.2a3,3,0,0,0-.5-1.3c.1-.3-.4-.9-.4-1.3-.2-.2-.3-.4-.4-.4a8.47,8.47,0,0,0-3.7-3.3,13.43,13.43,0,0,0-4.8-1.1c-.8.1-1.6.1-2.5.2a7.6,7.6,0,0,0-2.6.6h0c-.5.3-1.3.7-1.9,1.1a2.18,2.18,0,0,0-.4.5,9.84,9.84,0,0,0-3.7,5.2,19.75,19.75,0,0,0-.8,6.4,11.09,11.09,0,0,0,2.4,6.6,8.66,8.66,0,0,0,6.1,3.3s0,.1-.1,0a12.84,12.84,0,0,0,3.9.1h0a9.61,9.61,0,0,0,2.8-1.1l1.2-.9.7-.7c.1.8.3,1.6.4,2.4h1.1c.7,0,1.4.1,2.3.1.1-1.6.1-3.2.2-4.9s.1-3.3.2-4.9h.1a20.08,20.08,0,0,1,.1-2.4c-2.4-.1-4.6-.4-7-.5-.4,0-.8-.1-1.2-.1h-1.4v4a24.2,24.2,0,0,1,3.8.2,1.7,1.7,0,0,0,.7.1h.5v.2a5.27,5.27,0,0,1-.5,1.5,3.82,3.82,0,0,1-2.3,2.2,9,9,0,0,1-2.8.4,6.77,6.77,0,0,1-2.7-.7,7.23,7.23,0,0,1-2.2-1.7,6.2,6.2,0,0,1-1.2-2.6,19.57,19.57,0,0,1,.2-5.4,7.71,7.71,0,0,1,1-2.5,4.94,4.94,0,0,1,2-1.8,3.85,3.85,0,0,1,2.4-.8,10.87,10.87,0,0,1,2.6.4v-.1a1.69,1.69,0,0,0,1,.3c.3.1.6.2.7.5h-.1c.1.3.9.2.9.5h.1c.3.3,0,.1.1.4.1.1.2,0,.3.2-.1.1,0,.3.1.6s.2.5,0,.5c-.1-.2,0,.4-.3-.1,0,.1.2.8.3.7s.4.3.5-.2l-.1-.1c.1-.2,0-.1.1-.2-.1-.6,0-.7-.1-1.1h0a1.77,1.77,0,0,1-.5-.8v-.1c0-.2-.7-.3-.4-.4A5.89,5.89,0,0,0,137,46c-.2.1-1-.1-.7.1a3.28,3.28,0,0,0-1.7-.1.1.1,0,0,1,.1-.1c-.8-.1-.7.5-1.5.5,0,.2-1.1.7-1.2,1.2h-.2a7.9,7.9,0,0,0-1.9,3.1,9.56,9.56,0,0,0-.3,2.8,6.7,6.7,0,0,0-.1,2.5v-.1a7.13,7.13,0,0,0,.8,2.8c-.2.4.1.8.3,1.2a7,7,0,0,0,2.5,1.8c.1.2.8.3.8.5a9,9,0,0,0,4.6-.2,7,7,0,0,0,3.6-3.2h0V58a1.48,1.48,0,0,0-.1-.7c0-.1.1-.1,0,0v-.2h-.2l-.5-.1-.5-.1h-.4l.1-.1c-.5.1-1-.2-1.6-.1v-.1l-.4.1c0-.1,0-.2.2-.1-.6,0-1.7-.1-1.6-.1v-2.7h3.4c1.3,0,2.6.1,3.9.1l-.2.1.9-.1-.1.1h.5v2.1s-.1-.2-.1,0c.1.8-.3,1.3.1,1.7,0,0-.1.1-.1,0q0,3.45-.3,6.9v.7h-1.3a6.6,6.6,0,0,1-1.4-.1c-.1-.4-.2-1.1-.3-1.8h.1c-.1-.3-.1-.7-.2-.9a8.61,8.61,0,0,1-2.8,2.3,9.4,9.4,0,0,1-3.3.8,14.15,14.15,0,0,1-2.9-.2v-.1a5.58,5.58,0,0,1-2.7-1c-.8-.5-1.5-1.2-2.3-1.8h.2c-.3-.1-.7-.9-.9-.7l-.1-.3a3.36,3.36,0,0,1-1-1.6c-.2-.6-.4-1.3-.7-2l.1.1a3,3,0,0,1-.3-1.2l.1.1c.1-1.3-.3-2.8-.1-4.2l.1.2a9.93,9.93,0,0,1,.4-2.8v-.4h.1C126.25,49,126.65,48,127.25,47Z"/><path class="cls-2" d="M141.25,48.75c0,.1,0,.1.1.2C141.35,48.85,141.35,48.75,141.25,48.75Z"/><path class="cls-4" d="M167,48.55l-11.8-.6-.2,4.7,10.8.5-.2,3.9-10.8-.5-.3,5.7,12.3.6-.2,4-16.9-.8,1-22.3,16.3.8Z"/><path class="cls-5" d="M167,48.55l-11.8-.6-.2,4.7,10.8.5-.2,3.9-10.8-.5-.3,5.7,12.3.6-.2,4-16.9-.8,1-22.3,16.3.8Z"/><path class="cls-2" d="M167.45,47.65h0l.2.6C167.85,48,167.35,47.75,167.45,47.65Z"/><path class="cls-2" d="M167.55,47.45c.1-.2-.1-.3-.1-.4C167.55,47.15,167.35,47.45,167.55,47.45Z"/><path class="cls-2" d="M150.65,50l.1.1a16.08,16.08,0,0,1,.1-3.1v.1a9.15,9.15,0,0,1,.1-1.6v-1.4h4.4a.1.1,0,0,0-.1.1c.1,0,.3-.1.4-.1l-.1.1a13.43,13.43,0,0,0,1.9.1c.2,0,.2-.1.1-.1,2,0,4.2.1,6.3.1a.1.1,0,0,1,.1.1,8.08,8.08,0,0,1,1.6-.1h.8l1.3.1-.1,1.6-.1,1.1c.1.1.1-.2.2,0,.1-.6-.1-1,0-1.6a.1.1,0,0,0,.1.1c.1-.7-.2-.1-.1-.8.1-.3.1,0,.1-.1v-.4a9.15,9.15,0,0,1-1.7-.1,4.1,4.1,0,0,0-1.1.1c-.2-.2-.9,0-1.2-.2-.2.1-.4,0-.5.1-2.8-.2-5.8-.2-8.7-.3a5.44,5.44,0,0,1-1.8,0c-.7-.1-1.1-.1-2.3-.2v1.2h0a6,6,0,0,1,0,1.9l.1.5c-.5,3.8-.4,7.7-.7,11.5-.1,1.3-.2,2.6-.3,3.8,0,.6-.1,1.2-.1,1.8l-.1,2.3a10.87,10.87,0,0,1,1.8.1h1.2a20.9,20.9,0,0,0,2.5-.1l-.1.1c1.2,0,2.3.2,3.5.1h0a31.23,31.23,0,0,1,4.3.1c.7,0,1.4.1,2.1.1h2.2v-.4c.1-1.2.1-2.5.2-3.9-1.2,0-2.4-.1-3.6-.1s-2.4-.1-3.6-.1v-.1a24.37,24.37,0,0,1-2.7-.1l-2.5-.2.1-.6.1-.8c0-.5.1-1.1.1-1.6s.1-.8.1-1.3v-1.1h3.1a16.68,16.68,0,0,1,3.2.2,7.41,7.41,0,0,0,2.1.1,16.2,16.2,0,0,0,2.2-.1v-.7c0-.3.1-.5.1-.7.1-.4.1-.8.2-1.2a4.89,4.89,0,0,0,.1-1.3,17.73,17.73,0,0,0-2.2-.1h-2c-1.4,0-2.7.1-4.1.1-.4,0-.9-.1-1.3-.1l-1.4-.1a20.9,20.9,0,0,1,.1-2.5,22.63,22.63,0,0,1,.1-2.5,15.56,15.56,0,0,1,2.5.3c1.5-.2,3.1.4,4.8.4l-.1-.1c.6.3,1.3-.3,1.7.1h-.1c.3.2.8-.4.9-.2l.1-.1c.4,0,0,.1.3.2.1,0,0-.2.3-.1,0,.4.9,0,.9.4-.2,0,.3.2-.2.2.1,0,.8.1.7-.1.1-.2.3-.3-.1-.5l-.1.1c-.1-.1-.1-.1-.1-.2-.5,0-.6-.2-.9-.3h0a2.13,2.13,0,0,1-.8,0l-.1-.1c-.1-.2-.6.3-.4,0-1,0-2.2,0-3.4-.1-.2.1-.9-.1-.6.2a3.65,3.65,0,0,0-1.5-.3h.1c-.6-.3-.7.2-1.3-.1-.1.2-1.1-.1-1.4.1-.1-.1-.1-.1-.1-.2-.6,0-1.2-.1-1.7-.1-.1,1-.1,1.9-.2,2.6a5.63,5.63,0,0,1,0,1.3v1.1c0,.2,0,.3.1.4v.4a7.84,7.84,0,0,1,1.4.2h.9a10,10,0,0,0,2.5-.1c.2.3.6.3,1,.4.6-.1,1.7,0,2.6-.1.1.1.7,0,.8.2a13.05,13.05,0,0,1,1.7-.1v.5a3.75,3.75,0,0,1-.1,1l-.1,1v.4h-.5c-.3,0-.6-.1-1-.1h0c-.3.1-.7.3-1.1.4h0c-.5,0-.9-.2-1.4-.2l.1-.1c-.4.1-.9-.2-1.4-.1v-.1l-.3.1c0-.1,0-.2.2-.1a20.08,20.08,0,0,0-2.5-.1c-1,0-2-.1-3-.1v4.7l-.1,1.8,2,.1-.2.1.8-.1-.1.1c1,.2,2.1,0,3.1.1,0,0-.2.1,0,.1.7-.1,1.2.3,1.6-.1,0,0,.1.1,0,.1h2.7l1.4.1h1v.5a8.08,8.08,0,0,1,.1,1.6v1.4h-2.1v-.1c-2.3.1-4.8-.2-7.2-.3-1-.1-1.7,0-2.7-.1v-.1a9.06,9.06,0,0,1-2.3-.1c-.8-.1-1.7-.2-2.2-.2a.9.9,0,0,0-.1-.5l.1.1c-.2-.2.1-1-.2-.9l.1-.3c-.3-1.2.3-2.2.1-3.7l.1.1a4,4,0,0,1,0-1.1v.1a24.84,24.84,0,0,0,.2-3.9l.1.2c-.1-.6.1-1.8,0-2.6l.1.1-.1-.4h.1C150.65,52,150.55,51,150.65,50Z"/><path class="cls-4" d="M63.35,84.35a4.47,4.47,0,0,0,.7,2.3c.7,1,2,1.5,3.9,1.6a8.21,8.21,0,0,0,2.8-.2,2.55,2.55,0,0,0,2.1-2.5,2.27,2.27,0,0,0-.9-1.8,11.42,11.42,0,0,0-3-1.2l-2.4-.6a16.73,16.73,0,0,1-4.8-1.9c-1.5-1.1-2.1-2.7-2-4.9a6.63,6.63,0,0,1,2.4-4.9c1.5-1.3,3.7-1.8,6.6-1.7a9.37,9.37,0,0,1,6,2.2,6.77,6.77,0,0,1,2.4,5.5l-4.5-.2a3.13,3.13,0,0,0-1.7-2.9,6.66,6.66,0,0,0-2.7-.7,4.78,4.78,0,0,0-3,.6,2.1,2.1,0,0,0-1.2,2,1.9,1.9,0,0,0,1,1.8A18,18,0,0,0,68,78l3.9,1.1a10.35,10.35,0,0,1,3.8,1.8,5.39,5.39,0,0,1,1.8,4.6,6.71,6.71,0,0,1-2.6,5c-1.6,1.3-3.9,1.8-6.8,1.7a10.66,10.66,0,0,1-6.8-2.3,6.74,6.74,0,0,1-2.3-5.6Z"/><path class="cls-5" d="M63.35,84.35a4.47,4.47,0,0,0,.7,2.3c.7,1,2,1.5,3.9,1.6a8.21,8.21,0,0,0,2.8-.2,2.55,2.55,0,0,0,2.1-2.5,2.27,2.27,0,0,0-.9-1.8,11.42,11.42,0,0,0-3-1.2l-2.4-.6a16.73,16.73,0,0,1-4.8-1.9c-1.5-1.1-2.1-2.7-2-4.9a6.63,6.63,0,0,1,2.4-4.9c1.5-1.3,3.7-1.8,6.6-1.7a9.37,9.37,0,0,1,6,2.2,6.77,6.77,0,0,1,2.4,5.5l-4.5-.2a3.13,3.13,0,0,0-1.7-2.9,6.66,6.66,0,0,0-2.7-.7,4.78,4.78,0,0,0-3,.6,2.1,2.1,0,0,0-1.2,2,1.9,1.9,0,0,0,1,1.8A18,18,0,0,0,68,78l3.9,1.1a10.35,10.35,0,0,1,3.8,1.8,5.39,5.39,0,0,1,1.8,4.6,6.71,6.71,0,0,1-2.6,5c-1.6,1.3-3.9,1.8-6.8,1.7a10.66,10.66,0,0,1-6.8-2.3,6.74,6.74,0,0,1-2.3-5.6Z"/><polygon class="cls-2" points="63.45 83.65 63.35 83.65 63.25 83.75 63.45 83.65"/><path class="cls-2" d="M62.45,83.85h0l.6-.2C62.85,83.45,62.55,84,62.45,83.85Z"/><path class="cls-2" d="M62.25,83.75c-.2-.1-.3.1-.4.1C62,83.75,62.25,84,62.25,83.75Z"/><path class="cls-2" d="M75.55,89.55v-.1a6.33,6.33,0,0,1-2.4,1.8v-.1a11.68,11.68,0,0,1-3.6.8,16.25,16.25,0,0,1-3.8-.1h.1c-.1,0-.3.1-.4,0h.1c-.5-.3-1.6-.3-1.9-.6-.1,0-.2,0-.2.1a8.09,8.09,0,0,1-4.6-4.3c0-.1,0-.1.1-.1a6.47,6.47,0,0,1-.4-1.3c0-.2-.1-.4-.1-.8v-1h.1a4.1,4.1,0,0,1,1.1.1h.7c.5,0,.9.1,1.3.1.1-.1-.2-.1,0-.2-.6-.1-1.1.1-1.6,0l.1-.1c-.4-.1-.1.2-.5.1-.2-.1.1-.1,0-.1h-1.3v1.8a1.42,1.42,0,0,0,.2.6c-.1.2.2.9.1,1.3.1.2.2.4.3.4a6.89,6.89,0,0,0,3,3.3,12.79,12.79,0,0,0,4.3,1.4c1.4-.1,3,.3,4.7,0h0c.5-.2,1.3-.4,1.9-.6.2-.1.3-.2.5-.3a6.68,6.68,0,0,0,4-4.2,7.69,7.69,0,0,0,.3-3,6.3,6.3,0,0,0-1-2.9,7.32,7.32,0,0,0-2.6-2.1,18.15,18.15,0,0,0-3-1.1c-1-.3-1.9-.6-2.9-.8s-2-.5-2.9-.8c0,0,0-.1.1,0a1.27,1.27,0,0,1-.9-1.1,2.2,2.2,0,0,1,.2-1.4h0a2.08,2.08,0,0,1,1.5-1.2,5,5,0,0,1,2.1-.2,5.64,5.64,0,0,1,3.8,1.5,2.47,2.47,0,0,1,.4.9c0,.2.1.3.1.5v.6c1.6.1,2.8.1,4.4.2h.3v-1a4.25,4.25,0,0,0-.2-1.1,7.22,7.22,0,0,0-.9-2h.1a9.58,9.58,0,0,0-7.3-3.9,8.81,8.81,0,0,0-4.5.6,9.26,9.26,0,0,0-3.6,2.6,4.41,4.41,0,0,0-1.1,2.8,27.15,27.15,0,0,0,.1,2.9,4.42,4.42,0,0,0,1.1,2.4,5.18,5.18,0,0,0,2.2,1.4,29.11,29.11,0,0,0,5.1,1.2c.8.3,1.6.5,2.3.7a4.65,4.65,0,0,1,2.1,1.3,2.51,2.51,0,0,1-2,3.7,4.44,4.44,0,0,1-2.3.2,20.48,20.48,0,0,1-2.4-.5V88c-.2-.2-.6-.2-.9-.3s-.6-.2-.6-.5h.1c-.1-.3-.8-.2-.8-.6h-.1c-.2-.3.1-.1,0-.4-.1-.1-.2,0-.2-.2.3-.2-.3-.9.1-1,0,.2.1-.3.3.1,0-.1-.1-.7-.2-.7s-.4-.3-.5.1l.1.1c-.1.1-.1.1-.1.2.1.5-.1.6-.1,1h0a3,3,0,0,1,.4.8v.1c-.1.2.6.4.3.4a5.72,5.72,0,0,0,3.3,1.6c.2-.1.9.1.7-.1.3.3,1.2.3,1.5.3h-.1c.7.2.7-.3,1.4-.1,0-.1.3-.2.6-.3s.7-.3.7-.5c.1,0,.2,0,.1.1a3.84,3.84,0,0,0,1.3-1.5,2.79,2.79,0,0,0,.1-1.8,3.25,3.25,0,0,0-1-1.3,2.37,2.37,0,0,0-1.2-.5,5.76,5.76,0,0,0-2.1-.8h.1a7.66,7.66,0,0,0-2.5-.4,2.41,2.41,0,0,0-.8-.6,14,14,0,0,1-2.4-.6c-.1-.2-.6-.2-.6-.4a3.74,3.74,0,0,1-2.5-2.4,5.84,5.84,0,0,1,.1-3.7h0c0-.3-.2-.7-.2-1.1,0,0,.1,0,0,.1.1-.4.5-.7.7-1.1v.1c.2-.4.6-.6.9-1H62c.1-.1.1-.2.2-.3,0,.1.1.1,0,.2a8.18,8.18,0,0,1,5.3-1.9,9.69,9.69,0,0,1,5.8,1.2h-.2c.2.1.5.2.7.3h-.1a8,8,0,0,1,2.1,2s-.2-.1-.1.1c.5.5.3,1.1.7,1.3,0,0-.1.1-.1,0a3.53,3.53,0,0,1,.3,1.4V76h-.3l-1.5-.1c-.5,0-1-.1-1.6-.1h-.6l-.1-.4a1.42,1.42,0,0,0-.2-.6,2.38,2.38,0,0,0-.6-1.1,2.92,2.92,0,0,0-2.1-1.1v-.1a10.89,10.89,0,0,0-3.6-.1,3,3,0,0,0-1.7.8,2.14,2.14,0,0,0-.8,1.7,1.9,1.9,0,0,0,1.4,2.1v.1c1.7.4,3.3,1.3,5.1,1.5l-.1.1c.3-.1,1,.4,1,0l.3.2c1.3,0,2,.8,3.4,1.3h-.1c.4.2.8.4.9.7h-.1a13,13,0,0,1,1,1.5,3.85,3.85,0,0,1,.6,1.8l-.1-.1a7,7,0,0,1,0,2.5v.3h-.1A4,4,0,0,1,75.55,89.55Z"/><path class="cls-2" d="M63.15,85.85v-.1C63.05,85.75,63.15,85.75,63.15,85.85Z"/><path class="cls-4" d="M87.75,70.05l5.3.2L99.85,93l-5-.2-1.3-4.6-8.2-.4-1.7,4.5-4.9-.2Zm-.9,13.8,5.7.3-2.4-8.9Z"/><path class="cls-5" d="M87.75,70.05l5.3.2L99.85,93l-5-.2-1.3-4.6-8.2-.4-1.7,4.5-4.9-.2Zm-.9,13.8,5.7.3-2.4-8.9Z"/><polygon class="cls-2" points="87.45 84.15 87.45 84.15 87.35 84.05 87.45 84.15"/><path class="cls-2" d="M87.25,83.85h0l.2.2C87.65,84.05,87.15,83.85,87.25,83.85Z"/><path class="cls-2" d="M87.35,83.85c.1,0,0-.1-.1-.1C87.35,83.75,87.15,83.75,87.35,83.85Z"/><path class="cls-2" d="M88.55,79.05h0c0,.2-.2.3-.2.5h0a8,8,0,0,0-.3,1.5h0l.1.1h-.1c-.2,0,0,.3-.2.3l.1.1a5,5,0,0,0-.2,1.2h-.1c.2.4-.1.7-.3,1,.1,0,.1,0,.2.1.1-.1-.1-.3.1-.3h.1c.1-.1-.2-.1-.1-.1h.1c0-.2.2-.3,0-.5.2,0,.1-.2.2-.2s0-.1-.1-.1c.3-.5.3-1.1.6-1.6-.2-.4.3-.5.3-.9h0a.6.6,0,0,1,.1-.4l-.1-.1a18.65,18.65,0,0,0,1-2,.77.77,0,0,1,.2-.3l.1-.1a8.15,8.15,0,0,1,.1-1v.1c.1-.1,0,.4.1.3v.1c.1-.1.2.1.2.3s.1.3.3.6a15.19,15.19,0,0,0,.6,2h-.1c.3.5.1,1.1.3,1.6,0,.6.7,1,.6,1.7-.1.2,0,.4.2.6s.3.5.2.6h-.1c-.6-.2-.7-.3-.9-.2a3.81,3.81,0,0,0-1,.3c-.6-.2-1.3.2-1.9-.2-.3.2-.6-.3-.9-.3v.1c-.1-.2-.3.3-.3,0h0c-.1-.2-.2.4-.2.2v.1c-.1,0,0-.1-.1-.1s0,.2-.1.1c0-.4-.2.1-.2-.3,0,0-.1-.2,0-.2s-.2,0-.1.1-.1.3,0,.5v.1c.1,0,.1.2.2.3h0c.1-.2.1-.1.2,0v.1c0,.2.1-.3.1,0,.2-.1.4,0,.7,0,0-.1.2,0,.1-.2a.32.32,0,0,0,.3.3h0c.1.3.2-.3.3.1,0-.2.2.1.3-.2v.1c.2,0,.4.1.6.1.2-.2.4.1.5-.2.1.1.3.2.4.1h0c.2,0,.4,0,.5-.2,0,.3.1.2.2.3.1-.1.3-.1.5-.2.1.1.2,0,.3.1a2.34,2.34,0,0,1,1.2-.2,2.43,2.43,0,0,1,0-1.2h0a3.33,3.33,0,0,0-.6-.3h0c-.1-.1.1-.2,0-.3h.1c-.1-.1.1-.2-.1-.3h0c-.1-.8-.7-1.5-.8-2.3h.1l-.1-.1h.1c.1-.2-.2-.4-.2-.6h.1c-.2-.1.2-.3-.2-.3h.1a5.64,5.64,0,0,1-.4-1.2c-.4-.3-.2-.7-.6-1h.1c-.2-.2-.2-.4-.3-.7a2.39,2.39,0,0,0-.2-.9,1.47,1.47,0,0,0-.2-.4v-.3c-.1.7-.1.6-.2.6s-.2.2-.2.7v-.2c0,.4-.1.1,0,.6a.1.1,0,0,0-.1-.1c.1.4,0,.4-.1.4s-.2.1-.1.3l-.1-.1c0,.1,0,.2-.1.2h0c-.3.1-.2.5-.3.7l-.1-.1c.1.2-.1.3-.1.5h-.1l.1.1h-.1A.85.85,0,0,1,88.55,79.05Z"/><path class="cls-2" d="M87.15,70.45h0l-.1-.5C86.85,70.05,87.25,70.35,87.15,70.45Z"/><path class="cls-2" d="M87.05,70.55c-.1.1,0,.2,0,.3C87,70.75,87.25,70.55,87.05,70.55Z"/><path class="cls-2" d="M81.35,86h0a14.17,14.17,0,0,1,.8-1.8v.1c.7-1.6,1.1-3.1,1.7-4.7v-.1c.3-.3.3-1,.5-1.2,0-.1,0-.2-.1-.1a28.44,28.44,0,0,0,1.3-3.8c0-.1.1,0,.2,0a13.06,13.06,0,0,1,1.2-3.3c-.1-.1-.1.1-.2-.1-.2.3-.1.7-.3,1l-.1-.1c-.1.2.2.1,0,.3s-.1-.1-.1,0a8.8,8.8,0,0,0-.5,1.5c-.2.1-.2.5-.4.6,0,.2-.1.3,0,.4-.8,1.7-1.4,3.5-2.1,5.2,0,.9-.8,1.8-1.1,2.8h0a8.4,8.4,0,0,1-.4,1.2v.4a35.39,35.39,0,0,0-1.6,3.4l-.7,1.7-.4.9-.4.9a6.12,6.12,0,0,0-.5,1.2c1,.1,2,.2,3,.2a4.87,4.87,0,0,1,1.2.1,9.15,9.15,0,0,1,1.6.1l.3-.9.2-.6.3-1.2s.1,0,0,.1c.1-.4.3-.7.4-1.1l.2-.5.1-.2v-.2h0v-.1h1.1l1.4.1a24.32,24.32,0,0,0,2.7,0c.8,0,1.7.1,2.6.1.2.6.4,1.3.6,2l.6,2.1h-.1c.1.2.1.4.2.6a19.48,19.48,0,0,1,2.5.2l1.2.1h1.6c-.1-.5-.4-1.2-.5-1.6s-.3-.9-.5-1.4a14.26,14.26,0,0,1-.9-2.7c0-1.2-1.1-2.5-1.2-3.7a19.06,19.06,0,0,0-2.1-6.5c-.4-2.1-1.5-4-1.7-6-.1-.1-.1-.3-.2-.4s-.1-.2-.1-.4a3.55,3.55,0,0,1-1-.2,4.1,4.1,0,0,0-1.1-.1v.1c-.4-.3-.9.3-1.1-.1h0c-.2-.2-.5.4-.6.2v.1c-.2,0,0-.1-.2-.1s0,.2-.2.1c0-.4-.6,0-.6-.4.1,0-.2-.2.1-.2-.1,0-.5,0-.5.1s-.2.3,0,.5l.1-.1c.1.1.1.1.1.2.3,0,.4.2.6.3h0c.2-.2.4,0,.5,0v.1c.1.2.4-.3.3,0h2.2c.1-.1.6,0,.4-.2a.76.76,0,0,0,.5.2.1.1,0,0,1,.1.1h0v.1c-.1.1.2-.2.1.3.3,0,.1.7.5.8a.1.1,0,0,1-.1.1c.2.7.3,1.4.5,2,.4.4.2,1.2.7,1.5a3.93,3.93,0,0,0,.3,1.4h0a5.23,5.23,0,0,0,.7,1.5c-.2.2-.1.5-.1.7.2.3.4,1,.7,1.5-.1.1.2.4,0,.5a13.86,13.86,0,0,1,1.5,5h0a3,3,0,0,0,.7.5h-.1c.1.3,0,.6.1.9h-.1c.2.3,0,.6.3.9h0l.1.2c-.1,0-.2,0-.2-.1.2.8.5,1.5.7,2.3l.4,1.1a.77.77,0,0,1,.1.3l.1.3h-1a8.6,8.6,0,0,1-1.6-.1l.1-.1-.5.1.1-.1c-.2,0-.5-.1-.7-.1h-.5c0-.1-.1-.2-.1-.3s.1.1.1,0c-.3-.4,0-.8-.4-.9,0,0,.1-.1.1,0a8.8,8.8,0,0,1-.5-1.5,14.31,14.31,0,0,1-.5-1.8l-1.1-.1c-1.1.3-2.4-.1-3.6.1v-.1a12.05,12.05,0,0,1-1.9,0c-.7-.1-1.3-.1-2-.2a3.18,3.18,0,0,0-.3.9c-.3.6-.3,1-.6,1.7h-.1a2.93,2.93,0,0,1-.3,1l-.2.5-.2.4H83a1.27,1.27,0,0,0-.6.1l.1-.1c-.2.2-.7-.1-.6.2l-.2-.1c-.8.4-1.4-.2-2.4,0l.1-.1h-.6a.35.35,0,0,1,.1-.2h0a2.22,2.22,0,0,0,.5-1.1,5.64,5.64,0,0,1,.4-1.2l.1.1a6.39,6.39,0,0,1,.6-1.6v-.2h.1C81,87.15,81.05,86.55,81.35,86Z"/><path class="cls-4" d="M103.75,70.75l4.7.2-.9,18.3,11.1.5-.2,4-15.8-.7Z"/><path class="cls-5" d="M103.75,70.75l4.7.2-.9,18.3,11.1.5-.2,4-15.8-.7Z"/><polygon class="cls-2" points="103.05 70.75 103.05 70.75 103.15 70.85 103.05 70.75"/><path class="cls-2" d="M103.25,71.35h0l-.2-.4C103,71.15,103.45,71.25,103.25,71.35Z"/><path class="cls-2" d="M103.25,71.45c-.1.1.1.2.1.2S103.45,71.45,103.25,71.45Z"/><path class="cls-2" d="M103.05,87h.1c-.2-.6.1-1.3,0-1.9h0c.1-1.6,0-3.1,0-4.7l.1.1c0-.1-.1-.2-.1-.3a.1.1,0,0,1,.1.1c.2-.3-.1-1,.1-1.2,0-.1-.1-.1-.2-.1v-3.9c0-.1.1-.1.1,0a12.16,12.16,0,0,1,0-3.3c-.1,0-.1.1-.2,0-.1.4.2.7,0,1H103c-.1.2.2.1.1.3s-.1,0-.1,0a3.81,3.81,0,0,0,.1,1.5c-.2.1,0,.5-.2.7.1.1,0,.3.1.3-.2,1.7-.1,3.5-.2,5.3.3.9-.1,1.8-.1,2.8h0a2.43,2.43,0,0,1,0,1.2l.1.3c-.4,2.3-.3,4.7-.5,7.1a3.08,3.08,0,0,1-.1,1c.7.1,1.5.1,2.2.2s1.2.1,1.7.1a13.68,13.68,0,0,0,3.5-.1l-.1.1c.8,0,1.4.1,2.2.1h0c1.8-.2,3.7.2,5.4,0a7.08,7.08,0,0,1,1.4.1c.1-1.5.1-2.6.1-4.2h-1.4v-.1c-1.8,0-3.5-.4-5.2-.3-1.5-.2-3,.1-4.6,0a3.4,3.4,0,0,1,.1-1c.4-1.1-.2-2.6.1-3.7a17.78,17.78,0,0,0,.2-6.5c.3-2-.1-4,.4-5.9v-.6a1.27,1.27,0,0,1,.1-.6c-.2-.1-.5-.1-.8-.2a2.77,2.77,0,0,0-.9-.1v.1c-.4-.3-.8.3-1-.1h0c-.2-.2-.5.4-.6.2v.1c-.2,0,0-.1-.2-.1s0,.2-.2.1c0-.4-.6.1-.6-.4.1,0-.2-.2.1-.2-.1,0-.5,0-.4.1s-.2.3,0,.5l.1-.1c.1.1.1.1.1.2.3,0,.3.2.6.3h0c.2-.2.4,0,.5,0v.1c.1.2.4-.3.3,0h2.4c.1,0,.1,0,.1-.1.1.2.1.2.1.3v.1h0c-.1.1-.1.1,0,.1s.1.2-.1.4c.2.1-.1.6.2.9-.1,0-.1.1-.2,0,0,.6-.2,1.4-.2,1.9.2.5-.2,1.1.1,1.5a2.77,2.77,0,0,0-.1,1.3h0a3.42,3.42,0,0,0,.2,1.5c-.3.1-.2.4-.4.6.1.4,0,1.1.1,1.6-.1.1,0,.4-.2.5a11.72,11.72,0,0,1-.3,4.9h0c.1.2.3.5.4.7h0c0,.3-.2.6-.2.8l-.1-.1v.5c0,.2-.1.5,0,.7l-.1.1v.2h.1a.35.35,0,0,1-.2.1V90a7.57,7.57,0,0,1,1.5.1h2.8c1.3,0,2.5,0,3.8.1l-.1.1.5-.1-.1.1a12.05,12.05,0,0,0,1.9,0s-.1.1,0,.1.4,0,.6,0,.1,0,.3-.1a.1.1,0,0,1-.1.1h.2v1.4l-.1.9v.7c0,.1.1.2.1.4h-1.1a6.15,6.15,0,0,0-1.4.1v-.1a32.4,32.4,0,0,1-4.4-.2,9.63,9.63,0,0,0-1.7,0v-.1c-1.1.3-2.2-.4-3.3-.1l.1-.1c-.2.2-.7-.1-.6.2l-.2-.1c-.8.4-1.3-.2-2.3,0l.1-.1c-.2,0-.5.1-.6,0v-.1h0a1.09,1.09,0,0,0,.1-.5v-.6c0-.4-.1-.8-.1-1.2l.1.1a8.53,8.53,0,0,1,0-1.6h.1l-.1-.3h.1A7.58,7.58,0,0,0,103.05,87Z"/><path class="cls-4" d="M139,76.35l-11.8-.6-.2,4.7,10.8.5-.2,3.9-10.8-.5-.3,5.7,12.3.6-.2,4-16.9-.8,1-22.3,16.3.8Z"/><path class="cls-5" d="M139,76.35l-11.8-.6-.2,4.7,10.8.5-.2,3.9-10.8-.5-.3,5.7,12.3.6-.2,4-16.9-.8,1-22.3,16.3.8Z"/><polygon class="cls-2" points="139.65 76.45 139.65 76.35 139.55 76.15 139.65 76.45"/><path class="cls-2" d="M139.45,75.45h0l.2.6C139.85,75.75,139.35,75.55,139.45,75.45Z"/><path class="cls-2" d="M139.45,75.25c.1-.2-.1-.3-.1-.4C139.45,75,139.35,75.25,139.45,75.25Z"/><path class="cls-2" d="M122.65,77.75l.1.1a16.08,16.08,0,0,1,.1-3.1v.1a9.15,9.15,0,0,1,.1-1.6v-1.4h4.4a.1.1,0,0,0-.1.1c.1,0,.3-.1.4-.1l-.1.1a13.43,13.43,0,0,0,1.9.1c.2,0,.2-.1.1-.1,2,0,4.2.1,6.3.1a.1.1,0,0,1,.1.1,8.08,8.08,0,0,1,1.6-.1h.8l1.3.1-.1,1.6-.1,1.1c.1.1.1-.2.2,0,.1-.6-.1-1,0-1.6a.1.1,0,0,0,.1.1c.1-.7-.2-.1-.1-.8.1-.3.1,0,.1-.1v-.4a9.15,9.15,0,0,1-1.7-.1,4.1,4.1,0,0,0-1.1.1c-.2-.2-.9,0-1.2-.2-.2.1-.4,0-.5.1-2.8-.2-5.8-.2-8.7-.3a5.44,5.44,0,0,1-1.8,0c-.7-.1-1.1-.1-2.3-.2v1.2h0a6,6,0,0,1,0,1.9l.1.5c-.5,3.8-.4,7.7-.7,11.5-.1,1.3-.2,2.6-.3,3.8,0,.6-.1,1.2-.1,1.8l-.1,2.3a10.87,10.87,0,0,1,1.8.1h1.2a20.9,20.9,0,0,0,2.5-.1l-.1.1c1.2,0,2.3.2,3.5.1h0a31.23,31.23,0,0,1,4.3.1c.7,0,1.4.1,2.1.1h2.2v-.4c.1-1.2.1-2.5.2-3.9-1.2,0-2.4-.1-3.6-.1s-2.4-.1-3.6-.1v-.1a24.37,24.37,0,0,1-2.7-.1l-2.5-.2.1-.6.1-.8c0-.5.1-1.1.1-1.6s.1-.8.1-1.3v-1.1h3.1a16.68,16.68,0,0,1,3.2.2,7.41,7.41,0,0,0,2.1.1,16.2,16.2,0,0,0,2.2-.1v-.7c0-.3.1-.5.1-.7.1-.4.1-.8.2-1.2a4.89,4.89,0,0,0,.1-1.3,17.73,17.73,0,0,0-2.2-.1h-2c-1.4,0-2.7.1-4.1.1-.4,0-.9-.1-1.3-.1l-1.4-.1a20.9,20.9,0,0,1,.1-2.5,22.63,22.63,0,0,1,.1-2.5,15.56,15.56,0,0,1,2.5.3c1.5-.2,3.1.4,4.8.4l-.1-.1c.6.3,1.3-.3,1.7.1h-.1c.3.2.8-.4.9-.2l.1-.1c.4,0,0,.1.3.2.1,0,0-.2.3-.1,0,.4.9,0,.9.4-.2,0,.3.2-.2.2.1,0,.8.1.7-.1.1-.2.3-.3-.1-.5l-.1.1c-.1-.1-.1-.1-.1-.2-.5,0-.6-.2-.9-.3h0a2.13,2.13,0,0,1-.8,0l-.1-.1c-.1-.2-.6.3-.4,0-1,0-2.2,0-3.4-.1-.2.1-.9-.1-.6.2a3.65,3.65,0,0,0-1.5-.3h.1c-.6-.3-.7.2-1.3-.1-.1.2-1.1-.1-1.4.1-.1-.1-.1-.1-.1-.2-.6,0-1.2-.1-1.7-.1-.1,1-.1,1.9-.2,2.6a5.63,5.63,0,0,1,0,1.3v1.1c0,.2,0,.3.1.4V81a7.84,7.84,0,0,1,1.4.2h.9a10,10,0,0,0,2.5-.1c.2.3.6.3,1,.4.6-.1,1.7,0,2.6-.1.1.1.7,0,.8.2a13.05,13.05,0,0,1,1.7-.1V82a3.75,3.75,0,0,1-.1,1l-.1,1v.4h-.5c-.3,0-.6-.1-1-.1h0c-.3.1-.7.3-1.1.4h0c-.5,0-.9-.2-1.4-.2l.1-.1c-.4.1-.9-.2-1.4-.1v-.1l-.3.1c0-.1,0-.2.2-.1a20.08,20.08,0,0,0-2.5-.1c-1,0-2-.1-3-.1v4.7l-.1,1.8,2,.1-.2.1.8-.1-.1.1c1,.2,2.1,0,3.1.1,0,0-.2.1,0,.1.8-.1,1.2.3,1.6-.1,0,0,.1.1,0,.1h2.7l1.4.1h1v.5a8.08,8.08,0,0,1,.1,1.6v1.4h-2.1v-.1c-2.3.1-4.8-.2-7.2-.3-1-.1-1.7,0-2.7-.1v-.1a9.06,9.06,0,0,1-2.3-.1c-.8-.1-1.7-.2-2.2-.2a.9.9,0,0,0-.1-.5l.1.1c-.2-.2.1-1-.2-.9l.1-.3c-.3-1.2.3-2.2.1-3.7l.1.1a4,4,0,0,1,0-1.1v.1a24.84,24.84,0,0,0,.2-3.9l.1.2c-.1-.6.1-1.8,0-2.6l.1.1-.1-.4h.1C122.65,79.75,122.55,78.75,122.65,77.75Z"/></svg>