<svg id="Layer_1" data-name="Layer 1" xmlns="http://www.w3.org/2000/svg" viewBox="0 0 200 170"><defs><style>.cls-1{fill:#9691b5;}.cls-2{fill:#464b86;}.cls-3{fill:#dbd9e5;}.cls-4{fill:#c3c0d4;}.cls-5{fill:none;}.cls-6{fill:#cfcddd;}</style></defs><title>Artboard 34</title><path class="cls-1" d="M46.2,23.51s3.23-2.4,14.17,0c0,0,8.54,35-5.42,62.7C55,86.1,20,42.15,46.2,23.51Z"/><polygon class="cls-2" points="45.89 22.88 45.79 22.88 45.68 23.09 45.89 22.88"/><path class="cls-2" d="M45.06,23.82h0l.42-.63C45.16,23.19,45.27,23.82,45.06,23.82Z"/><path class="cls-2" d="M44.85,23.92a.39.39,0,0,0-.31.42C44.54,24.23,45,24,44.85,23.92Z"/><path class="cls-2" d="M37.66,51.84h.11A20.52,20.52,0,0,1,37,48.19v.1a38.57,38.57,0,0,1-.42-9.16v.1a.9.9,0,0,1,0-.52.11.11,0,0,0,.11.11c.21-.63.21-1.88.41-2.3,0-.2,0-.31-.1-.2a29.36,29.36,0,0,1,2.81-7.09c.11-.1.11-.1.21,0a6.11,6.11,0,0,1,.83-1.35,12.52,12.52,0,0,1,1-1.35l1.25-1.15a2.63,2.63,0,0,1,.63-.52l.62-.52c0-.11-.2.1-.1-.11a4.74,4.74,0,0,0-.73.63c-.21.21-.42.52-.62.73v-.11c-.42.32.1.21-.32.53-.2.1,0-.11-.1,0-.31.41-.73.72-1,1.14a9.12,9.12,0,0,0-.84,1.25c-.31.11-.72.83-.93,1a3.35,3.35,0,0,0-.21.63,24,24,0,0,0-3.23,10.1v2.71a14.15,14.15,0,0,0,0,2.91h0a16,16,0,0,1,.31,2.3l.21.62c.42,4.58,2.08,9.06,3.75,13.44a60.35,60.35,0,0,0,7,13.33s0,.1-.11,0c.84,1.25,1.46,2.5,2.3,3.54h0c1,1.35,2.08,2.92,3.12,4.37l.83,1a7.09,7.09,0,0,1,.84,1.14l.52.63.21.31c.1,0,.1-.21.2-.31A14.19,14.19,0,0,0,56,84.75c.83-1.88,1.77-3.75,2.5-5.94.31-1,.72-2.08,1-3.12s.52-2.09.83-3.13h.1l.63-2.5a19.83,19.83,0,0,0,.52-2.5,19.83,19.83,0,0,0,.52-2.5,19.18,19.18,0,0,0,.31-2.5A30.07,30.07,0,0,0,63,57.15c0-.94.11-1.77.11-2.71a24.55,24.55,0,0,1,.1-2.71c.42-2.19-.31-5.1,0-7.19A46.84,46.84,0,0,0,62,31.94a50.34,50.34,0,0,0-.94-5.73l-.31-1.45L60.68,24l-.1-.32v-.2h-.11l-1.25-.32-1.35-.31c-1.77-.1-3.75-.83-5.73-.73l.11.11c-.73-.21-1.57.41-2.09.1h.11c-.42-.1-.84.52-1,.31v.11c-.42.1-.11-.11-.42-.11-.11,0,0,.21-.31.21-.21-.42-1,.42-1.25,0,.2-.1-.42,0,.1-.31-.21,0-.94.41-.83.52s-.11.52.41.31v-.21c.21.11.11,0,.21.11.52-.21.73,0,1.15-.11h0a1.28,1.28,0,0,1,.83-.2l.11.1c.2.1.62-.42.52-.1a15.81,15.81,0,0,1,4-.21c.21-.11,1,.1.73-.11a5,5,0,0,0,1.67.42H56c.72.42.93-.21,1.56.31.1-.21,1.25.31,1.66.11.11.1.11.1.11.2.31.11.62.11.94.21s.1,0,.1.11c.1.62.21,1.14.31,1.66.42.84.31,2.19.73,2.92a14,14,0,0,0,.31,2.6v-.1A16,16,0,0,0,62.35,34c-.31.31-.11.72-.21,1.25.21.62.31,2,.52,3-.1.2.11.83-.1.93a33.46,33.46,0,0,1,.52,4.69c0,1.67-.11,3.33-.21,4.89h0a5.81,5.81,0,0,0,.52,1.25h0c0,.53-.21,1.15-.21,1.67l-.1-.1c.1.52-.21,1-.11,1.77h-.1l.1.41c-.1,0-.2,0-.1-.2-.1,1.25-.21,2.39-.21,3.64s-.1,2.5-.31,3.75-.31,2.5-.42,3.75a36.25,36.25,0,0,1-.73,3.65v-.21l-.1.93V69c-.31,1.15-.52,2.5-.83,3.65,0,0,0-.21-.11-.11-.1.94-.62,1.36-.31,1.88a.11.11,0,0,1-.11-.11,18.79,18.79,0,0,1-1,3.54l-.62,1.77a12.71,12.71,0,0,1-.73,1.77c-.31,1-.73,2-1.15,3-.2.52-.41.83-.52,1.25,0,.1,0,0-.1,0l-.11-.11-.2-.21-.52-.52h.1A51.78,51.78,0,0,1,50,77.67c-.62-1-1.14-1.67-1.77-2.71l.11-.11c-1.36-1.56-1.88-3.85-3.23-5.52l.21.11c-.31-.21-.52-1.15-.73-.94l-.11-.42c-1-1.14-1-2.39-2-4l.1.1c-.21-.42-.52-.94-.63-1.25l.11.1a38.85,38.85,0,0,0-1.77-4.37l.21.1a16,16,0,0,1-1-2.91h.11l-.21-.42h.1A7.51,7.51,0,0,1,37.66,51.84Z"/><path class="cls-3" d="M68.08,29.34s12.39,4,15.83,6.35,4.58,4.58,5,8.44,5.73,32.49,5,44.47,1.14,34.16.1,36.56-7.5,1.46-9.89,0-2.4-20.41-2.92-25-2.4-28.33-2.4-30.1-.93,16.56-.52,20.21S87.14,125,81.2,126.62s-23.75,12.5-28.64-7.71c0,0-.52-35.62,1.25-38.75C53.81,80.16,67.87,41,68.08,29.34Z"/><polygon class="cls-2" points="67.35 29.34 67.24 29.55 67.35 29.96 67.35 29.34"/><path class="cls-2" d="M67.35,32.15c0-.1.1,0,.1-.1a8.67,8.67,0,0,0-.21-1.67C67,31.11,67.56,31.73,67.35,32.15Z"/><path class="cls-2" d="M67.24,32.67c-.2.63-.1.94,0,1C67.14,33.5,67.35,32.57,67.24,32.67Z"/><path class="cls-2" d="M52.56,104l.1.2c-.21-2.81,0-6,0-9.06v.21c.11-2.6.11-5.1.21-7.6.1-1.25.1-2.5.21-3.75a11.7,11.7,0,0,1,.62-3.75h0l2.19-6.56V74a8.07,8.07,0,0,1,.31-1.15c.11-.1,0,.11,0,.21.73-1.46,1.36-4.48,1.88-5.41.1-.42.1-.63,0-.42,1.77-5.62,3.64-11.67,5.21-17.5.1-.31.2-.31.2-.21,1.15-5,2.71-10.2,3.65-15.31,0-.2-.21.52-.21,0-.42,1.67-.42,3-.83,4.48V38.5c-.31,1,.1.32-.21,1.36-.21.41-.1-.11-.1.1-.53,2.29-1.25,4.69-1.67,6.88-.31.52-.73,2.39-1.15,3.22a4.29,4.29,0,0,0-.2,1.46c-2.4,7.92-4.9,16-7.71,24.06-.42,1.46-.84,2.92-1.46,4.58h0a8.3,8.3,0,0,0-.52,2.19c-.11.73-.21,1.46-.31,2.19-.11,1.46-.21,2.92-.32,4.37h0c0,1.57,0,3.75-.1,5.63l.1,1.56c-.2,5.52-.31,11.14-.2,16.77v6.35a15,15,0,0,0,.62,2.09,17.7,17.7,0,0,0,4.27,7.39,10.29,10.29,0,0,0,4.27,2.4,12.16,12.16,0,0,0,4.69.52,28.29,28.29,0,0,0,8.85-2c1.46-.52,2.81-1,4.17-1.56a14.32,14.32,0,0,1,2.08-.73,3.37,3.37,0,0,0,.63-.32,2.62,2.62,0,0,0,.52-.41,1.11,1.11,0,0,0,.41-.52,2.14,2.14,0,0,1,.32-.52,14.74,14.74,0,0,0,.72-4.69c0-1.56-.2-3.13-.31-4.58,0,0,0-.11.11.2-.42-3.54-.84-6.87-1.46-10.1h0c-.94-4.06-1.88-8.33-2.81-12.6a31,31,0,0,1-.63-3.13c-.1-1-.1-2.08-.21-3.12V81.31c.11-2.5.21-5,.31-7.6,0-.63.11-1.25.11-2l.1-.94v-.62h0c-.1,0,0-.11-.1,0H78.8v.31c.11,1.35.21,2.6.32,4,.41,5.31.83,10.62,1.35,15.83h-.1c.21,2.08.41,4.16.52,6.14s.41,4.06.41,6.15c.11,4.06.21,8.23.53,12.29a45.77,45.77,0,0,0,.72,6.46,12.66,12.66,0,0,0,.94,3.22,3.3,3.3,0,0,0,.52.73,2.49,2.49,0,0,0,.73.42,8.65,8.65,0,0,0,1.56.52,17.38,17.38,0,0,0,3.23.52,8.29,8.29,0,0,0,3.23-.42,2.07,2.07,0,0,0,1.25-1,7.1,7.1,0,0,0,.21-.83l.1-.83a31.69,31.69,0,0,0,.11-3.23c.31-5.31-.73-12.29-.52-17.4s.1-10.2.31-15.31A108.18,108.18,0,0,0,93,72.46C92,63,90.05,53.71,89,44.54c-.41-2.08-.73-4.47-2.19-6.35a13.84,13.84,0,0,0-5.72-4.27l.1.11c-1.46-.94-3.75-1.25-4.58-1.88h.21c-.84-.52-2.19-.31-2.61-.73H74c-1-.31-.1-.1-.93-.42-.32-.1-.21.11-.84-.2,0-.42-2.6-.84-2.5-1.25.63.21-.83-.42.52-.11-.31-.21-2.18-.73-2.08-.52-.21.11-.94.11.11.52l.2-.1c.32.21.21.21.32.31,1.35.52,1.56.73,2.5,1.15h0a10.5,10.5,0,0,1,2.18.73l.21.1c.31.31,1.67.31,1.15.42,1.46.52,2.91,1,4.48,1.66A22.7,22.7,0,0,1,83.7,36c.42.21,2,1.57,1.56.94.21.42.73.94,1.25,1.67a7,7,0,0,1,.94,1.77s-.1,0-.1-.21A10.36,10.36,0,0,0,88,41.94a3.84,3.84,0,0,1,.31,1.77c.32.21.42,3.13.84,4,0,.21-.11.31-.11.21.52,3,.94,6.35,1.36,8.85.52,2.19.72,5.31,1.25,7.08a55.38,55.38,0,0,0,.72,6.25l-.1-.21c.31,2.5.63,5.52,1,7.19a12.59,12.59,0,0,0-.1,2.92,70.82,70.82,0,0,1,.41,7.39c-.1.42,0,2.08-.2,2.19.1,7.08.31,15.83.2,23.33v-.11c.11.94.42,2.09.63,3.13,0,.1,0,.1-.1-.1.1,1.35-.11,2.7-.11,4.06l-.1-.21c.1,1.25-.11,2.71-.11,4.17l-.1.1c0,.31-.11.52-.11.83,0,0-.1-.1,0-.52-.1,1.15-1.66,1.46-3,1.46a20.18,20.18,0,0,1-4.27-.52,11.58,11.58,0,0,1-2-.73c-.1,0-.31-.42-.41-.62a10.5,10.5,0,0,1-.31-1,29.12,29.12,0,0,1-.84-4.37c-.73-5.94-.83-12.08-1.25-18.12l.11.41-.32-2.29a.38.38,0,0,1,.11.21c-.21-3-.63-6-.83-9,0,0,.1.42.1,0-.31-2.18,0-3.43-.52-4.48,0-.1.1-.2.1,0-.31-3-.62-6-.83-9.06l-.31-4.58L79,70.37v-.62s0-.1-.21-.31-.41.1-.41.1v.21h0v.42l-.11,2.29c.11,5.1-.52,10.73-.1,15.93h-.1A21.42,21.42,0,0,0,79,93.5c.42,1.66.73,3.43,1.15,5.1.73,3.44,1.35,7,2,10.42.41,2.91.83,4.79,1,7.7l-.1.11a23.57,23.57,0,0,1,.2,3.75,12.3,12.3,0,0,1-.62,3.85,2.56,2.56,0,0,1-1,1.46c-.52.21-1.25.41-1.77.62-1.25.42-2.4.94-3.65,1.46l.31-.21c-.73.52-2.91,1-2.6,1.15l-.94.21a16.16,16.16,0,0,1-4.89,1.25,26.36,26.36,0,0,1-5.63,0h.32a7,7,0,0,1-3.13-1c.1,0,.1,0,.31.1a13.74,13.74,0,0,1-4.16-3.65,16.72,16.72,0,0,1-2.61-5.1l.32.31a5.47,5.47,0,0,1-.53-1.56,3.1,3.1,0,0,1-.2-.94c-.11-.31,0-.62-.11-.93v-4l.11.1-.11-1.25h.11C52.66,110,52.66,107,52.56,104Z"/><path class="cls-2" d="M71.62,31.21a.4.4,0,0,0-.31-.1A.53.53,0,0,1,71.62,31.21Z"/><path class="cls-3" d="M40,29.34s-12.4,4-15.84,6.35-4.58,4.58-5,8.44-5.73,32.49-5,44.47S13,122.76,14,125.16s7.5,1.46,9.9,0,2.39-20.41,2.91-25,2.4-28.33,2.4-30.1.94,16.56.52,20.21S20.9,125,26.83,126.62s23.75,12.5,28.64-7.71c0,0,.53-35.62-1.25-38.75C54.22,80.16,40.06,41,40,29.34Z"/><polygon class="cls-2" points="39.23 29.34 39.23 29.55 39.33 29.96 39.23 29.34"/><path class="cls-2" d="M39.75,32.25v-.1a10.21,10.21,0,0,1-.42-1.67C39.23,31.21,39.75,31.84,39.75,32.25Z"/><path class="cls-2" d="M39.75,32.78a1.52,1.52,0,0,0,.31,1C39.85,33.61,39.85,32.67,39.75,32.78Z"/><path class="cls-2" d="M55.47,103.91l.11.21c-.21-2.81,0-6-.21-9.06v.21c0-2.61-.1-5.11-.31-7.71-.11-1.25-.21-2.5-.31-3.75-.11-.62-.11-1.25-.21-1.87A6.61,6.61,0,0,0,54,80.06h0c-.84-2.08-1.57-4.27-2.4-6.56,0,.1.11.1.11.21a5.11,5.11,0,0,0-.53-1c0-.11.11.1.11.2-.31-1.56-1.67-4.37-1.77-5.41-.21-.42-.31-.63-.31-.31-1.88-5.63-3.86-11.57-5.63-17.4-.1-.31,0-.31.11-.31a93.5,93.5,0,0,1-3.86-15.31c-.1-.21,0,.52-.21,0,.21,1.67.84,3,.94,4.58l-.1-.21c.2,1.15.2.21.41,1.36,0,.41-.1-.11-.1.1.52,2.29,1.14,4.69,1.87,6.88,0,.62.73,2.5.73,3.33.21.62.42,1.14.52,1.35,2.29,8,5.11,16,7.82,24.06a46.61,46.61,0,0,1,1.66,4.48h0a9.64,9.64,0,0,1,.42,2c.1.73.1,1.46.21,2.19.1,1.46.2,2.91.2,4.37h0c.11,1.56.21,3.75.21,5.63l.21,1.56c0,5.52,0,11.14-.1,16.77v6.14c-.21.63-.32,1.36-.52,2a16,16,0,0,1-4.17,7,11.15,11.15,0,0,1-8.33,2.6,33.91,33.91,0,0,1-8.54-2c-1.36-.52-2.71-1-4.17-1.56a13.72,13.72,0,0,0-2.19-.73c-.62-.1-.93-.52-1.25-1.14a11.17,11.17,0,0,1-.72-4.27,33.88,33.88,0,0,1,.1-4.59s.1-.1,0,.21c.31-3.54.94-6.77,1.46-10.1h0c.62-4.17,1.56-8.44,2.5-12.6a28.43,28.43,0,0,0,.62-3.23c.21-1.15.11-2.19.21-3.23,0-2.08-.1-4.17-.21-6.25-.1-2.5-.21-5-.31-7.6,0-.63-.1-1.25-.1-2l-.11-.94v-.62h0v-.11l-.1-.1c-.21,0-.11.1-.11.1v.31c-.1,1.36-.21,2.61-.21,4-.41,5.31-.83,10.63-1.14,15.83h-.11c-.1,2.09-.31,4.17-.52,6.15s-.41,4.06-.62,6.14c-.21,4.06-.42,8.13-.73,12.29-.21,2.09-.42,4.27-.73,6.46a15.19,15.19,0,0,1-.73,3.13c-.1.2-.21.52-.41.62a1.76,1.76,0,0,1-.73.42l-1.57.62a16.69,16.69,0,0,1-3.22.63,6.87,6.87,0,0,1-3.23-.32,2.07,2.07,0,0,1-1.25-1,7.1,7.1,0,0,1-.21-.83l-.11-.83a17.43,17.43,0,0,1,0-3.23c.32-5.31,0-12.4.42-17.4a107.16,107.16,0,0,0,.11-15.31,123.24,123.24,0,0,1,.52-15.2c1.25-9.38,2.39-18.85,4.16-27.81a13.42,13.42,0,0,1,.63-3.33,6.8,6.8,0,0,1,1.77-3,17.72,17.72,0,0,1,5.83-4.06h-.21c1.67-.52,3.44-1.87,4.58-1.87l-.2.1c.93-.21,1.87-1.14,2.5-1.14l.1-.11c1-.41.21,0,.94-.21.31-.1.1-.2.73-.41.2.31,2.6-.94,2.81-.63-.63.21.94-.1-.31.42.41-.11,2.18-.73,2-.83.1-.21.72-.63-.42-.42l-.21.21h-.42c-1.45.41-1.66.31-2.7.62h0a11.7,11.7,0,0,1-2.19.84h-.21c-.42,0-1.46.83-1.15.41-1.45.52-2.91,1.15-4.47,1.77a27.52,27.52,0,0,0-4.59,2.4c-.31.31-2.08,1.66-1.35,1.35a6.34,6.34,0,0,0-1.67,1.46,7.71,7.71,0,0,0-1.25,2,.33.33,0,0,1,.11-.21,5.11,5.11,0,0,0-.73,2,9.47,9.47,0,0,1-.42,1.87c.21.32-.52,3-.42,4-.1.21-.1.21-.2.21-.52,3-1,6.35-1.57,8.85-.1,2.19-.93,5.32-.83,7.19-.31,1.56-.73,4.06-.94,6.25v-.21a49.64,49.64,0,0,0-.52,7.29,10.75,10.75,0,0,0-.52,2.81c0,1.67-.21,5,0,7.61-.1.41.11,2.08-.1,2.18.73,7,.21,15.73-.31,23.33v-.1c.1.94.31,2.08.41,3.13,0,.1-.1.1,0-.11,0,1.36-.21,2.71-.21,4.06l-.1-.21a30.12,30.12,0,0,0,.1,4.28v.1a3.77,3.77,0,0,0,.32,1c-.11,0-.21,0-.32-.62.11.2.11.41.21.62a2.31,2.31,0,0,0,.42.63,2.67,2.67,0,0,0,1.14.72,6.37,6.37,0,0,0,2.4.42,17,17,0,0,0,4.58-.62,9.84,9.84,0,0,0,2.19-.94,3.45,3.45,0,0,0,.83-1.15c.11-.41.32-.73.42-1.14a34.5,34.5,0,0,0,.73-4.59c.62-6,.52-12.18.94-18.22v.41l.1-2.39v.21c.42-3,.42-6.15.73-9,0,0,.1.42.1.1,0-2.18.52-3.43.21-4.58,0-.1.11-.21.11.11q.3-4.53.62-9.07l.31-4.58.11-1.14v-.63h-.32l-.1.11h-.21v.41l.11,2.29c.62,5,.52,10.63.73,15.94h-.11a22.09,22.09,0,0,1-.73,5.1c-.41,1.67-.73,3.44-1.14,5.11-.73,3.43-1.57,7-2.09,10.41a65.19,65.19,0,0,0-.93,7.81l-.11.11v3.75a12.46,12.46,0,0,0,.52,3.85,3.07,3.07,0,0,0,1.15,1.67,16,16,0,0,0,1.87.73c1.25.41,2.5.93,3.65,1.25h-.42c.84.1,2.92,1.14,2.71.72l.83.42c1.77.31,3.23.73,4.9,1.15a12.8,12.8,0,0,0,5.62,0l-.31.1a15.55,15.55,0,0,0,3.12-1c-.1.1,0,.1-.31.21a10.26,10.26,0,0,0,4.38-3.54,17,17,0,0,0,2.39-5.21v.42a16.09,16.09,0,0,0,.42-1.57,3.12,3.12,0,0,0,.21-.93l.1-.21v-.84c0-1.35.11-2.81,0-4l.11.1-.11-1.25h.11C55.68,110,55.58,107,55.47,103.91Z"/><path class="cls-2" d="M35.89,30.07c.11,0,.21-.11.42-.11C36.21,30,36,30.07,35.89,30.07Z"/><path class="cls-4" d="M46.2,23.51S38.5,27.57,37,36.21l4.58,1.67L37,41.94S37.56,58.29,52.45,77C52.45,77,40,41.94,46.2,23.51Z"/><path class="cls-2" d="M45.58,24.23h0v-.62C45.27,23.82,45.68,24.13,45.58,24.23Z"/><path class="cls-2" d="M45.48,24.44c-.11.21,0,.32,0,.42C45.37,24.65,45.58,24.44,45.48,24.44Z"/><path class="cls-2" d="M45.58,48.92h.1a27.11,27.11,0,0,1-.52-3V46c-.31-2.5-.62-4.89-.83-7.39l.1.1c0-.1-.1-.21-.1-.41a.1.1,0,0,1,.1.1c.21-.52-.2-1.56,0-1.88,0-.1-.1-.2-.2-.1a60.36,60.36,0,0,1,.1-6.14.1.1,0,0,1,.1-.11,15.84,15.84,0,0,1,.84-5.31c-.11-.1-.11.1-.21,0-.21.52,0,1-.31,1.56l-.11-.1c-.1.31.21.1,0,.52-.1.1-.1-.11-.1,0a9.64,9.64,0,0,0-.21,2.39c-.21.21-.1.84-.31,1.15a.8.8,0,0,0,.1.52,57.79,57.79,0,0,0-.1,8.54c.41,1.36.1,2.92.41,4.48h0c.11.52.21,1.25.32,1.87l.21.53a102.23,102.23,0,0,0,1.66,11.14,62.15,62.15,0,0,0,3.13,11.77l-.11-.11c.42,1.15.63,2.19,1,3.34h0c.63,1.46,1,3,1.67,4.58l.42-.21A20.87,20.87,0,0,0,50.48,74c-.94-1.35-2-2.81-2.92-4.27s-1.88-3-2.81-4.58h.1a70.22,70.22,0,0,1-3.44-7.5C40.48,55,39,52.25,38.5,49.44c-.11-1.77-1.25-4-1.15-5.73V42.15c0-.11,0-.31.11-.31a17.92,17.92,0,0,0,1.45-1.25c.53-.42.94-.94,1.46-1.36l1.46-1.46c-.94-.31-1.56-.41-2.29-.62a5.33,5.33,0,0,0-1.15-.42l-1.14-.41L37,36.21c-.1,0,0-.1,0-.1l.1-.31.11-.63A3.46,3.46,0,0,1,37.56,34a9.83,9.83,0,0,1,2.08-4.17c.63-1.35,2.09-2.29,3.13-3.44h-.11c.63-.21.73-1.14,1.25-1h0c.32,0,.32-.83.63-.73v-.1c.31-.21.1.1.31-.11s-.1-.21.11-.21c.2.32.72-.62.93-.2-.21.1.31,0,0,.31.11,0,.63-.31.52-.52s.11-.42-.31-.42v.21c-.21-.1-.1,0-.21-.1-.41.2-.62.1-.93.2h0c-.11.32-.42.42-.63.52h-.1c-.21-.1-.32.63-.32.32-.73.73-1.66,1.46-2.39,2.29,0,.21-.63.62-.31.62a5,5,0,0,0-1.15.94v-.1c-.63.31-.21.73-.83,1,.21.21-.63.83-.52,1.35H38.5a24.57,24.57,0,0,0-1.36,2.81,5.08,5.08,0,0,1-.31,1.25,1.39,1.39,0,0,0-.1.63v.83c0,.11-.11.21-.11.42v.1h.11l.21.11a6.75,6.75,0,0,0,.83.31,4.11,4.11,0,0,0,1,.31h-.1c.41.11.83.31,1.25.42a1.14,1.14,0,0,0,.52.1h.31l-.21.21h0l-.21.21a9.86,9.86,0,0,0-.94,1c-.2,0-.52.52-.62.42-.42.41-.83.94-1.25,1.35l-.42.42c-.1.1-.2.21-.2.31v.42c0,.31.1.73.1,1,.1,1.35.21,2.71.42,4.06h0c.2.31.52.63.73.94h-.11c.11.41.11.94.21,1.35l-.1-.1c.2.41.1.94.31,1.35h0l.21.31c-.11,0-.21,0-.21-.1a70,70,0,0,0,4.58,11.35l-.1-.1.41.62h-.1c.31.94,1,1.77,1.46,2.71,0,0-.21-.1-.11,0,.52.52.32,1.15.84,1.25,0,0-.11.11-.11,0,1.15,1.67,2.19,3.44,3.33,5.21,1.25,1.25,2.09,2.92,3.44,4.17H52c.21.31.52.52.73.83l.31.31-.21-.42c-.73-1.77-1.15-3.75-1.77-5.62a24.39,24.39,0,0,0-.83-2.5h.1c-.73-1.46-.62-3.44-1.46-5l.11.11c-.21-.21-.21-1-.42-.84V63c-.62-1-.31-2.08-.94-3.44l.11.11a5.61,5.61,0,0,1-.32-1l.11.1A16.3,16.3,0,0,0,46.73,55l.2.1a13.26,13.26,0,0,1-.52-2.5h.11l-.21-.41h.1A26.15,26.15,0,0,1,45.58,48.92Z"/><path class="cls-2" d="M44.75,23.71a.1.1,0,0,0,.1-.1A.1.1,0,0,1,44.75,23.71Z"/><path class="cls-4" d="M60.47,23.51s7.71,4.06,9.17,12.7l-4.58,1.67,4.58,4.06S69.12,58.29,54.22,77C54.22,77,66.72,41.94,60.47,23.51Z"/><polygon class="cls-2" points="59.74 23.71 59.74 23.71 59.85 23.82 59.74 23.71"/><path class="cls-2" d="M60.27,24.55c0-.11.1-.11,0,0L59.85,24C59.74,24.34,60.37,24.34,60.27,24.55Z"/><path class="cls-2" d="M60.27,24.65a.37.37,0,0,0,.2.31C60.37,25,60.47,24.55,60.27,24.65Z"/><path class="cls-2" d="M61.2,49l.11.11c-.11-.94.31-2,.31-3v.1a58.94,58.94,0,0,0,.31-7.39.1.1,0,0,0,.11.1c0-.1-.11-.31-.11-.42a.11.11,0,0,1,.11.11c.2-.52-.11-1.56.1-1.88,0-.1-.1-.21-.21-.1a39.72,39.72,0,0,0-.52-6,.11.11,0,0,1,.11-.11,43.55,43.55,0,0,1-1.05-5.1c-.1,0,0,.21-.2,0,0,.52.41.94.41,1.46h-.1c0,.42.21,0,.21.42,0,.2-.11,0-.11.1a18.87,18.87,0,0,0,.52,2.29c-.1.21.11.83,0,1.15.11.2.11.41.21.41a75.43,75.43,0,0,1,.21,8.44c.31,1.35-.21,2.92-.31,4.48h0A11.25,11.25,0,0,1,61.2,46l.11.52c-.73,3.65-1.15,7.4-2.09,11-.93,4.17-2.08,7.71-2.81,11.88,0,0-.1,0,0-.11-.31,1.15-.73,2.19-.94,3.34h0a39.23,39.23,0,0,1-1.35,4.68l-.52,1.46.94-1.25c.73-1,1.46-2,2.08-3,.94-1.35,2-2.81,2.92-4.27a42,42,0,0,0,2.6-4.69h.1a70.33,70.33,0,0,0,3.65-7.39c1.25-2.61,1.67-5.63,2.6-8.44.73-1.66.52-4.06,1.05-5.73a3.1,3.1,0,0,0,.2-.93l.11-.52v-.32c0-.1-.11-.1-.11-.21a17.88,17.88,0,0,0-1.45-1.35l-1.57-1.25c-.52-.42-.93-.73-1.46-1.14.63-.32,1.36-.63,2-.94a5.33,5.33,0,0,0,1.15-.42l1-.42h.11v-.1l-.11-.21-.1-.52c-.11-.41-.21-.73-.32-1.14a30.67,30.67,0,0,0-1.87-4.27c-.94-1.05-1.56-2.71-2.81-3.75v.1c-.21-.62-1.15-.62-1.25-1.15h.1c-.1-.31-.83-.1-.83-.41h-.11c-.31-.21,0-.11-.2-.31s-.11.1-.32-.11c.21-.31-.83-.42-.62-.83.21.1-.21-.31.21-.11-.11-.1-.63-.41-.73-.2s-.42.2-.21.52l.1-.11v.21c.42.31.32.52.63.73h0c.31,0,.52.31.62.42v.1c0,.21.63.1.32.21a15,15,0,0,1,2.39,2.08c.21,0,.52.63.52.31,0,.42.52,1.05.63,1.25h-.11c.11.63.63.42.63,1.05.21-.11.52.83.83,1a.1.1,0,0,1-.1.1,9.75,9.75,0,0,1,1,2.71,3.85,3.85,0,0,1,.42,1.14c0,.21.1.42.1.63V36h0l.1.11a.1.1,0,0,1-.1.1h-.21a4.54,4.54,0,0,0-1,.42l.1-.11a7,7,0,0,0-1.25.53l-.62.31a4.75,4.75,0,0,0-.73.41,7.35,7.35,0,0,0-1.46.21,1.34,1.34,0,0,1,.31.42c.32.21.53.42.84.62s.52.42.73.63a7.56,7.56,0,0,0,1,.83c0,.21.52.42.41.63a14.47,14.47,0,0,1,1.57,1.14c.31.32.41.21.41.42a3.38,3.38,0,0,1-.1.94,23,23,0,0,1-.94,3.85h0a6.93,6.93,0,0,0,.31,1.15h0a5.9,5.9,0,0,0-.41,1.25v-.11c0,.42-.31.84-.31,1.36h-.11v.31c-.1,0-.1-.11-.1-.21a78.13,78.13,0,0,1-4.06,11.35v-.21l-.21.73V63c-.52.83-.84,1.87-1.36,2.71,0,0,0-.21-.1-.11-.21.73-.73.94-.63,1.36a.1.1,0,0,1-.1-.11A39.67,39.67,0,0,1,57.14,72c-.62,1.56-2.08,2.92-2.92,4.48h0l-.62.94.1.1c.52-1.87,1.36-3.75,1.88-5.62.31-.94.42-1.57.73-2.5h.1c.11-1.67,1.25-3.34,1.25-5.11l.11.11c-.11-.31.31-1,0-.94l.2-.31c-.1-1.25.73-2.09.73-3.54v.1a3.8,3.8,0,0,1,.21-1.14v.1A15.1,15.1,0,0,0,59.64,55l.1.21c0-.63.32-1.67.42-2.5l.11.1v-.41h.1A9.73,9.73,0,0,0,61.2,49Z"/><path class="cls-2" d="M61.2,24.65Z"/><path class="cls-4" d="M74.43,49.54a25,25,0,0,0-1.15,5.32h48.54a15.44,15.44,0,0,0-1.35-5.32A432.57,432.57,0,0,0,74.43,49.54Z"/><polygon class="cls-2" points="74.43 50.17 74.53 50.27 74.64 50.17 74.43 50.17"/><path class="cls-2" d="M75.26,50h0l-.52.31C75.06,50.38,75.16,49.86,75.26,50Z"/><path class="cls-2" d="M75.47,50a.23.23,0,0,0,.31-.1C75.68,50,75.37,49.86,75.47,50Z"/><path class="cls-2" d="M96.82,48.81v-.1a20.55,20.55,0,0,1-2.6.1h.1c-2.18,0-4.27.21-6.45.32L88,49c-.1,0-.21.11-.31.11s0-.11.1-.11c-.52-.21-1.35.21-1.66,0-.11,0-.21.11-.11.21-1.77.11-3.54.21-5.31.42-.1,0-.1-.11-.1-.11a21.69,21.69,0,0,1-4.59.32c-.1.1.21.1,0,.2.52.11.94-.2,1.36-.1l-.11.1c.31,0,.11-.2.42-.1.1.1,0,.1,0,.1a13.23,13.23,0,0,0,2.08-.2c.21.2.73,0,1,.1.21-.1.32-.1.42-.21,2.4,0,4.9-.21,7.4-.31,1.14-.31,2.6,0,4-.1h0a8,8,0,0,1,1.67-.11l.42-.1c3.22.21,6.56.1,9.79.21,3.75.1,7,.41,10.62.2l-.1.11c1,0,2,.1,3,.1h2.29a.23.23,0,0,1,.21.21c.1.21.2.52.31.83.42,1.15.62,2.4.94,3.44v.42H118c-1.57,0-3.13.1-4.69.1v-.1c-2.4.1-4.79-.21-7.19-.11-2.5-.1-5.1.42-7.7.21-1.57-.31-3.65.42-5.11,0a32,32,0,0,0-9,.11c-2.81-.21-5.52.31-8.22-.11a11.9,11.9,0,0,1-2,0l-.42-.1h-.1s-.11,0,0-.11l.1-.21c.11-.31.11-.62.21-.93h-.1c.31-.42-.11-1.15.31-1.46V52c.21-.2-.31-.73,0-.83l-.11-.1c.11-.32.11,0,.21-.21s-.1-.11,0-.21c.42.1.11-.83.52-.73,0,.21.21-.21.21.21.11-.11.21-.63,0-.63s-.21-.31-.52-.1l.1.1c-.2.11-.1.11-.2.11-.11.41-.32.41-.52.73h0c.1.21-.11.52-.11.62h-.1c-.21.11.21.52,0,.42a5.9,5.9,0,0,0-.21,1.46c0,.21-.11.52-.11.73l-.1,1v.52h.1c.21,0,.42,0,.32-.11a1.28,1.28,0,0,0,.83.21c.31,0,.52.11.63,0H75c.52.31.63-.31,1.15.11.1-.21.93.1,1.14-.21l.11.1c.93,0,1.87.11,2.6.11.63-.21,1.56.1,2.08-.21a5.36,5.36,0,0,0,1.88.1H83.8a6.11,6.11,0,0,0,2.09-.21c.21.32.52.21.83.32.52-.11,1.46-.11,2.19-.21.1.1.62-.11.62.1a25.55,25.55,0,0,1,6.88,0h0a4,4,0,0,0,.93-.52h0c.42,0,.73.21,1.15.11l-.1.1c.41-.1.72.21,1.25,0v.1L100,55c0,.1,0,.21-.21.1,3.44.11,7-.31,10.62-.2l-.1.1.73-.1-.11.1c.84.1,1.77-.1,2.61,0,0,0-.11.1,0,.1.62-.2,1,.21,1.35-.1v.1c1.77-.1,3.54-.1,5.31-.1a4.48,4.48,0,0,1,1.15-.1c.42-.11,1.25.2.94-.52-.11-.53-.11-.94-.21-1.36s-.21-.73-.31-1.14h.1c-.21-.53-.31-.94-.52-1.46-.11-.21-.21-.52-.31-.73l-.21-.42c0-.1-.11-.1-.21-.1h-.21a29.72,29.72,0,0,0-3.12-.21,15.91,15.91,0,0,0-2.29,0v-.11c-1.46.32-3-.41-4.59-.1l.11-.1c-.21.2-.94-.11-.84.2l-.31-.1c-1,.42-1.87-.21-3.12,0l.1-.1a3,3,0,0,1-.94,0h.11a11.61,11.61,0,0,0-3.33,0l.1-.11c-.52.11-1.56,0-2.19.11V48.5l-.31.11V48.5A15.38,15.38,0,0,1,96.82,48.81Z"/><path class="cls-2" d="M73.49,50.48Z"/><path class="cls-3" d="M73.28,54.75s-1.35,32.71-1.14,46.87,2.29,62.49,3.44,65.2c0,0,14.68,1.15,18.33,0,0,0,4.79-83.95,3.64-87.9,0,0,1.25-1.25,1.46,3s0,21,.63,26.14.72,39.37,1.35,44.78,0,13.34,0,14.48c0,0,16.87.83,19.79,0,0,0,1.87-45.72,1.14-56.55s1.46-47.08,0-56C121.82,54.75,75.37,54.65,73.28,54.75Z"/><polygon class="cls-2" points="73.28 55.48 73.49 55.48 74.12 55.38 73.28 55.48"/><path class="cls-2" d="M77.24,55.27c-.1,0-.1,0-.21-.1l-2.29.31C75.78,55.69,76.51,55.17,77.24,55.27Z"/><path class="cls-2" d="M77.87,55.27a3.93,3.93,0,0,0,1.46-.1C79.12,55.27,77.76,55.17,77.87,55.27Z"/><path class="cls-2" d="M121.51,89.85v-.31C121.4,89.75,121.4,89.75,121.51,89.85Z"/><path class="cls-2" d="M121.82,110.47l.1.21c-.41-3.85-.1-8.12-.2-12.18v.31c.2-10.31.41-19.79.41-30.1a.57.57,0,0,0,.11.41c0-.52-.11-1-.11-1.56,0-.1.11.11.11.31.2-2.18-.21-6.35-.11-7.7,0-.63-.1-.84-.21-.52-.1-1-.1-2-.2-3l-.21-1.36v-.1h-7.4c-4.16.1-8.33.1-12.39.1-.42,0-.42-.1-.31-.1-7,.31-14.27.21-21.46.1-.31.11.73.11,0,.21,2.29.1,4.17-.21,6.25,0l-.31.1c1.56,0,.31-.2,1.87-.1.63.1-.1.1.11.1,3.22,0,6.56,0,9.58-.1.73.21,3.44,0,4.69.21a8.19,8.19,0,0,0,2-.21h17v.21l.11,1c.1.73.1,1.46.2,2.08.11,1.46.11,2.82.21,4.27v8.65c.31,5.41-.31,11.87-.31,18.23h0c0,2.08,0,5.1-.1,7.6l.1,2.08c-.1,3.75-.21,7.5,0,11.35s.1,7.61.1,11.36c-.1,7.6-.31,15.2-.52,22.91-.31,7.4-.62,14.37-.93,21.25v.62h-.11a7.52,7.52,0,0,1-1,.11,20.9,20.9,0,0,1-2.5.1h-5.1c-3.34-.1-6.67-.1-10-.21v-6.87s0-.11.1.31c0-2.39,0-4.79-.21-7.08s-.2-4.48-.31-6.77h0c-.62-11.35-.42-23.64-1-34.58,0-2.71-.42-5.42-.52-8.12s-.11-5.63-.21-8.44-.1-5.73-.1-8.65l-.11-4.37a14.75,14.75,0,0,0-.21-2.19c-.1-.31-.2-.73-.31-1-.1-.1-.21-.31-.42-.41s-.41,0-.52.2h0a28.48,28.48,0,0,1,.21,4.27v4.38h-.1c-.11,11.35-1,22.18-1.46,33.43-.73,11.56-.83,23.85-1.67,35.52-.31,3.12-.41,6.66-.62,10.2a18,18,0,0,1-3.44.53c-1.14.1-2.29.1-3.44.1a59.88,59.88,0,0,1-6.35-.31c-1.67-.11-3.33-.32-5-.42l-.1-.42c0-.2-.11-.31-.11-.52l-.1-1.14c-.1-.73-.1-1.46-.21-2.29-.1-1.57-.21-3-.31-4.48L74,148.91c-.41-6-.83-12.09-1.25-18.23-.2-6.46-.52-12.92-.73-19.27-.1-3.23-.2-6.35-.31-9.58s0-6.35.11-9.48c-.11-5.94.52-12.39.62-19l-.1.21c.31-2.39-.21-5.31.21-6.77V67c.2-1.25-.32-2.91-.11-3.64l-.1-.21c0-1.56.1-.21.21-1.36,0-.41-.21-.2-.11-1,.42-.21.11-3.75.52-3.75,0,.84.21-1.25.21.52a12.7,12.7,0,0,0,0-2.81c-.21-.21-.31-1.25-.52.31l.1.32c-.2.52-.1.41-.2.62-.11,2-.32,2.29-.42,3.75h0A14.78,14.78,0,0,1,72,62.88l-.1.31c-.21.52.21,2.29,0,1.66-.1,4.07-.21,8.75-.31,13.34.1.62-.11,3.54.1,2.5a52.45,52.45,0,0,0-.41,5.83v-.31c-.32,2.5.2,2.91-.21,5.2.21.32-.11,4.17.21,5.52-.11.32-.11.42-.11.32,0,4.16,0,8.74.11,12.18.31,3,.1,7.29.52,9.79,0,2.09,0,5.63.31,8.54v-.31c.21,3.33.42,7.5.62,9.79a24.73,24.73,0,0,0-.1,4c.21,2.19.42,6.77.73,10.21-.11.52.21,2.81,0,3,.21,2,.42,3.95.62,6,.11,1,.21,2.08.32,3.23.1.52.1,1,.2,1.66a11.24,11.24,0,0,0,.42,2l4.9.31c1.56.11,3.12.21,4.68.21s3.13.11,4.59.11a16,16,0,0,0,2.29-.11c.41,0,.73-.1,1.14-.1a1.28,1.28,0,0,0,.63-.11l1-.2c0-.42.1-.84.1-1.25v.1c0-1.35-.2-2.92-.2-4.27,0-.11.1-.11,0,.21.1-1.88.31-3.65.41-5.52V157c0-1.77.31-3.65.31-5.73l.11-.1v-1.36c.1,0,.21.11.1.84.94-16,1.46-32.6,2.19-49.06V99a.53.53,0,0,0,.1.31c.32-4.06.21-8.33.32-12.29,0,0,.1.62.1.1-.1-2.91.31-4.68-.1-6.25,0-.1.1-.2.1.11a4.92,4.92,0,0,0-.1-1.15c0-.31-.11-.73-.11-1.14l-.1.41h.21c.1,0,.2.21.2.42l.32,1.25a26.39,26.39,0,0,1,.1,2.81c0,1.88,0,3.75.11,5.63,0,3.75.1,7.6.1,11.35.1,1.67.21,3.44.31,5.31s.31,3.65.42,5.42c.1,3.64.21,7.39.42,10.93h-.11c.42,9.17.21,19,.73,28.54.1,2,.31,3.65.42,5.31s.1,3.34.1,5.31l-.1.11a56.61,56.61,0,0,1-.11,5.94c5.11.2,10.21.62,15.21.41l-.52.11c1-.21,4.27-.11,3.85-.42a5.24,5.24,0,0,0,1.25-.1c-.1-4.8.52-8.65.52-14.48l.11.41c0-1.56,0-3.33.1-4.47v.41c.42-4.79.31-10.2.42-15.41l.1.62c-.1-2.5.11-7,.11-10.31l.1.21-.1-1.67h.1A81.32,81.32,0,0,0,121.82,110.47Z"/><rect class="cls-1" x="82.97" y="49.13" width="0.73" height="5.62"/><path class="cls-2" d="M84.12,54.65h0l.2.1C84.53,54.75,84,54.75,84.12,54.65Z"/><path class="cls-2" d="M83.6,52h-.11c.21.11,0,.21.11.32h0a2.52,2.52,0,0,0,.2.83h-.1c-.21.1.1.21,0,.21h.21a1.39,1.39,0,0,0,.21.62H84c.31.21.21.42.11.52h.2c.11-.1-.2-.1,0-.2h.11c0-.11,0-.21-.11-.21.21,0,0-.11.21-.11h-.21c.11-.31-.1-.62-.1-.93-.31-.11.1-.32,0-.53h0c-.1-.1-.1-.1-.1-.2L84,52.25c.31-.41.11-.83.21-1.14s.31-.84-.1-1.25h.1c-.1-.21.1-.42,0-.52h0a.67.67,0,0,1-.1-.42,2.13,2.13,0,0,0-.84.1H83a3.32,3.32,0,0,0,.11,1H83c.11.32-.21.63-.1.84-.11.31.41.62.21.94s.41.41,0,.62-.21.73.1,1c-.1.21,0,.31,0,.52s.1.21-.1.42c.1,0,0,.1,0,.31s0,.21.1.21v-.1c-.1.2.31-.32.21,0h0c0,.2.21-.42.21-.21v-.11c-.11.42.1-.1,0,.32v.2s.1,0,.1-.2v-.94h0v-.11c.1-.2-.1.32,0,0l-.1.11-.21.21c.1-.11.1-.21.21-.21l.1-.11h0c.31-.2-.31.21.1-.1-.2.21.11-.1-.2.1a.1.1,0,0,0,.1-.1l.1-.1c-.2,0,.11-.21-.2-.21.1-.11.2-.11.1-.21h0c0-.1,0-.21-.21-.21.31,0,.21-.1.31-.1-.1-.11-.1-.21-.2-.32.1,0-.11-.1.1-.1-.42.21-.31-.1-.1-.42h0a.64.64,0,0,1-.42-.1h0s.21-.1.1-.1h.11c-.11,0,.21-.11,0-.11h.1c.11-.42-.31-.83-.21-1.25h.11l-.11-.1h.11c.1-.11-.11-.21,0-.32h.1c-.21-.1.21-.1-.1-.2h.1a.56.56,0,0,1-.1-.32c-.11-.1-.11-.1-.11-.2v-.11l.11-.1v.1a.32.32,0,0,1,.21-.1c0,.21-.11.31-.11.52s.11.1.11.21h-.11c.31.2-.31.41.11.52h-.11c.21,0-.1.1.21.1h-.1c.41.11-.21.21.1.42h-.1c.1,0,.1.1,0,.1h0c-.32.11,0,.31,0,.42h-.11c.21.1,0,.21.11.31h-.11C83.49,51.84,83.6,51.94,83.6,52Z"/><rect class="cls-1" x="108.18" y="49.13" width="0.73" height="5.62"/><path class="cls-2" d="M109.43,54.65h0l.2.1C109.84,54.75,109.22,54.75,109.43,54.65Z"/><path class="cls-2" d="M108.8,52h-.1c.21.11,0,.21.1.32h0a2.54,2.54,0,0,0,.21.83h-.1c-.21.1.1.21,0,.21h.2a1.52,1.52,0,0,0,.21.62h-.1c.31.21.21.42.1.52h.21c.1-.1-.21-.1,0-.2h.1c0-.11,0-.21-.1-.21.21,0,0-.11.21-.11h-.21c.1-.31-.1-.62-.1-.93-.32-.11.1-.32,0-.53h0c-.11-.1-.11-.1-.11-.2l-.1-.11c.31-.41.1-.83.21-1.14s.31-.84-.11-1.25h.11c-.11-.21.1-.42,0-.52h0a.62.62,0,0,1-.11-.42,2.1,2.1,0,0,0-.83.1h-.31a3.64,3.64,0,0,0,.1,1h-.1c.1.32-.21.63-.11.84-.1.31.42.62.21.94s.42.41,0,.62-.21.73.1,1c-.1.21,0,.31,0,.52s.11.21-.1.42c.1,0,0,.1,0,.31s0,.21.1.21v-.1c-.1.2.32-.32.21,0h0c0,.2.21-.42.21-.21v-.11c-.1.42.11-.1,0,.32v.2s.11,0,.11-.2v-.94h0v-.11c.1-.2-.11.32,0,0l-.11.11-.21.21c.11-.11.11-.21.21-.21l.11-.11h0c.31-.2-.32.21.1-.1-.21.21.1-.1-.21.1a.1.1,0,0,0,.11-.1l.1-.1c-.21,0,.1-.21-.21-.21.11-.11.21-.11.11-.21h0c0-.1,0-.21-.21-.21.31,0,.21-.1.31-.1-.1-.11-.1-.21-.21-.32.11,0-.1-.1.11-.1-.42.21-.32-.1-.11-.42h0a.67.67,0,0,1-.42-.1h0s.21-.1.11-.1h.1c-.1,0,.21-.11,0-.11h.11c.1-.42-.32-.83-.21-1.25h.1l-.1-.1h.1c.11-.11-.1-.21,0-.32h.11c-.21-.1.21-.1-.11-.2h.11a.52.52,0,0,1-.11-.32c-.1-.1-.1-.1-.1-.2v-.11l.1-.1v.1a.34.34,0,0,1,.21-.1c0,.21-.1.31-.1.52s.1.1.1.21h-.1c.31.2-.32.41.1.52h-.1c.21,0-.11.1.21.1h-.11c.42.11-.21.21.11.42h-.11c.11,0,.11.1,0,.1h0c-.31.11,0,.31,0,.42h-.1c.21.1,0,.21.1.31h-.1C108.7,51.84,108.8,51.94,108.8,52Z"/><circle class="cls-1" cx="97.24" cy="51.84" r="1.56"/><path class="cls-2" d="M95.26,51.94h0l-.21-.1C94.84,51.94,95.37,51.94,95.26,51.94Z"/><path class="cls-2" d="M95.16,51.94h.1C95.16,52,95.37,51.94,95.16,51.94Z"/><path class="cls-2" d="M96.82,53.29v-.1c-.1.21-.1,0-.21,0h0c-.1-.1-.41,0-.62-.1h0l-.1.1h0c.1-.21-.21,0-.11-.1a.1.1,0,0,0-.1.1,6.38,6.38,0,0,1-.52-.42.1.1,0,0,0,.1-.1c-.31,0-.31-.31-.21-.52h-.21c-.1.1.21.1.11.21h-.11c0,.1,0,.2.21.2-.1.11,0,.11-.1.21h.21c0,.32.31.52.52.63.31-.21.21.21.41.21h0c.11,0,.21-.11.21,0l.11-.11c.2.42.73.21,1,.31s1-.1.94-.72h0c0-.11.2-.11.2-.32h0c-.1-.31.32-.52,0-.83a.8.8,0,0,0-.2-.83h.1c-.21-.11-.1-.52-.31-.63-.11-.31-.63,0-.73-.21s-.31.32-.42,0c-.31-.52-.73,0-.73.32a.22.22,0,0,0-.21.2c0,.11-.1.21-.31.21.21.21-.41.11-.31.31h.1c-.2,0,.32.21,0,.11h0c-.2,0,.42.1.21.1h.11c-.42,0,.1.11-.32.11h-.2a.1.1,0,0,0,.1.1h1c.21,0-.31-.1,0,0-.1-.1,0-.1,0-.21s0,0-.21-.1c.21.1.31,0,.31,0h0c.32.1-.2-.11.11,0-.21-.11.1,0-.21-.21l.1.1h.21c-.1-.2.11,0-.1-.2.1,0,.21.1.1,0h0v-.32c.21.21.11.21.21.32V50.9c0,.1,0-.11.11.1,0-.41.31-.31.31,0h0a4.4,4.4,0,0,0,.1-.52h0s0,.21.11.11v.1c0-.1,0,.21.1,0h0v-.1c0,.1-.1.2-.1.1.1.1.52,0,.62.21h-.1c-.11.1.1.1.1.1a.1.1,0,0,0-.1.11c.21,0-.21.1.21,0h-.11c.21.1.21.2.11.31.31.1,0,.21.31.42h-.11c.21.2-.1.31-.2.52-.11,0,0,.1-.11.2l-.1-.1c.1.31-.32,0-.21.31l-.11-.1c.11.21-.1,0,.11.21l-.11-.11c.11.42-.2-.1-.2.21v-.1c0,.1,0,.1-.11.1h0c-.1-.21-.21.11-.31.11V53c0,.21-.1,0-.21.11V53C97,53.19,96.93,53.29,96.82,53.29Z"/><line class="cls-5" x1="97.24" y1="54.75" x2="97.55" y2="79.02"/><path class="cls-2" d="M98,78.81h0l.21.11C98.39,78.92,97.86,78.92,98,78.81Z"/><path class="cls-2" d="M98,78.81c.1,0-.11-.1-.11-.1S97.86,78.81,98,78.81Z"/><path class="cls-2" d="M97.34,73.92h-.1c.21.2,0,.41.1.62h0c0,.52.21.94.21,1.46h-.1a.1.1,0,0,1,.1.1h-.1c-.21.11.1.32,0,.42h.21c.1.42.1.83.2,1.25h-.1a1,1,0,0,1,.1,1h.21c.11-.1-.21-.21-.1-.31h.1c0-.11-.21,0-.1-.11h.1a.58.58,0,0,0-.21-.52c.21,0,0-.2.21-.2-.1,0,0-.11-.21-.11a8.56,8.56,0,0,0-.1-1.67c-.31-.31.1-.62-.1-.93h0c-.11-.11-.11-.21-.11-.42l-.1-.1a8.5,8.5,0,0,0,.21-2.29,3.76,3.76,0,0,0-.11-2.4h.11c-.11-.21,0-.42,0-.73h0c-.32-.52,0-1.15-.32-1.67a14.56,14.56,0,0,0-.1-2.08h.1c-.1-.52.21-1.14.11-1.67.1-.62-.42-1.14-.21-1.77.31-.31-.42-.83,0-1.14.52-.73.21-1.36-.1-2.08.2-.63-.32-1.25.1-1.88-.21-.31.31-.62.21-.94h-.11c.21-.1-.31-.21,0-.31h0c.21-.1-.41-.1-.2-.21H97c0-.1.11,0,.11-.1s-.21,0-.11-.11c.42,0-.1-.2.31-.2,0,0,.21-.11.21,0s0-.11-.21-.11-.31-.1-.52,0h-.1c0,.11-.21.11-.31.21h0c.21,0,.1.1,0,.1H96.3c-.21,0,.31.11,0,.11a1.24,1.24,0,0,1,.11.62c.1,0,0,.21.21.11-.21.1-.32.21-.32.31h0c-.31.1.32.1-.1.21.21,0-.11.21.21.31H96.3c0,.21-.1.42-.1.63.21.1-.11.31.21.52-.11.1-.21.31-.11.41h0c0,.21,0,.42.21.52-.31.11-.21.11-.31.21.1.11.1.31.21.52-.11,0,.1.11-.11.11a1.23,1.23,0,0,1,0,1.56h0c.11.1.32.1.52.21h0c0,.1-.2.21-.1.31h-.1c.1.1-.21.21,0,.31h-.11l.11.11h-.11a19.54,19.54,0,0,0,.31,2.39h-.1l.1.21h-.1c-.1.21.1.42.1.63h-.1c.21.1-.21.2.1.31h-.1a5.24,5.24,0,0,1,.1,1.25c.32.31,0,.73.32,1H97c.21.42,0,.94,0,1.46,0,.21.11.31.11.52H97c.31.31-.31.73.11,1H97c.21,0-.1.21.21.21l-.1.1c.41.21-.21.42.1.73h-.1c.1.11.1.21,0,.21h0c-.32.21,0,.52,0,.73H97c.21.1,0,.31.11.52H97l.11.1H97C97.24,73.5,97.34,73.71,97.34,73.92Z"/><path class="cls-1" d="M131.09,2.36s9.48,4.48,17.71,0c0,0,5,9.48-5.32,13S129.63,14,131.09,2.36Z"/><polygon class="cls-2" points="130.36 2.26 130.36 2.26 130.47 2.36 130.36 2.26"/><path class="cls-2" d="M130.57,2.78h0l-.21-.31C130.15,2.57,130.67,2.68,130.57,2.78Z"/><path class="cls-2" d="M130.57,2.88c-.11.11.1.21.1.21S130.67,2.88,130.57,2.88Z"/><path class="cls-2" d="M132.86,14.34h0a5,5,0,0,1-.73-1.25h0a18.24,18.24,0,0,1-1.25-3.33H131c-.11,0-.11-.11-.11-.21H131c.2-.31-.21-.73-.11-.94s-.1-.1-.21,0a7.17,7.17,0,0,1-.1-1.46c0-.52-.11-1-.11-1.45,0,0,.11-.11.11,0a2.56,2.56,0,0,1-.11-1.25,5.36,5.36,0,0,1,.21-1.25c-.1,0-.1.1-.21,0-.1.31.11.52,0,.73h-.1c-.1.2.21.1.1.2s-.1,0-.1,0c0,.42-.1.84.1,1.15-.2.1,0,.42-.2.52.1.1,0,.21.1.21a14.44,14.44,0,0,0,0,2.08c.1.73.21,1.36.31,2.08a1.79,1.79,0,0,1,.32,1.05,4.51,4.51,0,0,0,.31,1.14h0a6.42,6.42,0,0,1,.41.83l.21.21a7,7,0,0,0,.63,1.25,4.66,4.66,0,0,0,1,1,8.62,8.62,0,0,0,2.71,1.15,8.76,8.76,0,0,0,5.93-.73v.11c.52-.21,1.15-.32,1.57-.53h0c1.14-.72,2.7-1.14,3.54-2.29A7.21,7.21,0,0,0,149.84,9h.1a10.47,10.47,0,0,0,0-4.06,6.36,6.36,0,0,0-.73-2c-.1-.21-.21-.31-.31-.52l-.1-.11h-.11l-.21.11a3.44,3.44,0,0,1-.93.41c-.94,0-1.77,1.05-2.71.94a19,19,0,0,0-4.9.63c-1.56-.21-3.12,0-4.58-.63-.73.11-1.35-.62-2.19-.83v.1c-.21-.31-.73.11-.73-.31h0c-.1-.21-.52.31-.52.1l-.1.11c-.21,0,0-.11-.11-.21s-.1.1-.2.1c.1-.31-.42-.1-.32-.52.11,0-.1-.21.21-.21,0-.1-.31-.2-.31,0s-.31.21-.21.53l.11-.11v.21c.2.1.2.31.31.42h0c.21-.11.31,0,.41.1v.1c0,.21.42-.2.21,0,.52.11,1,.32,1.57.42.1-.1.41.11.31-.1a.82.82,0,0,0,.62.41h0c.21.32.42-.2.63.21.1-.21.52.21.73-.1v.21a9.77,9.77,0,0,0,1.45.31c.42-.21.84.21,1.25-.11a1.63,1.63,0,0,0,1.05.11h0a2.45,2.45,0,0,0,1.25-.21c.1.31.31.21.52.31a6.86,6.86,0,0,0,1.25-.31c.1.1.31-.1.41.1a15,15,0,0,1,3.86-.83h0l.31-.62v.1c.21-.1.52,0,.62-.1v.1c.21-.21.52,0,.63-.31h0s0-.11.1-.11V3a.11.11,0,0,0,.11-.11s0,.11.1.11a4.27,4.27,0,0,1,.52,1.25,8.93,8.93,0,0,1,.52,2.81l-.1-.1c0,.1.1.2.1.41h-.1c-.21.42,0,.94-.11,1.36,0,0-.1-.11-.1,0,.1.41-.31.41,0,.73h-.1a5.7,5.7,0,0,1-1.25,2.49,2.46,2.46,0,0,1-.32.53c-.1.2-.31.31-.41.41-.32.31-.63.52-.94.84v-.11a8.23,8.23,0,0,1-3,1.46c-.42.1-.73.31-1.15.42v-.11a1.63,1.63,0,0,1-1.25.31,2.8,2.8,0,0,0-1.25.32V15.9c-.1.21-.52,0-.41.32l-.21-.11c-.52.52-1-.1-1.77.11v-.11a.44.44,0,0,1-.52,0h.1a1.24,1.24,0,0,0-.83-.21,2.9,2.9,0,0,1-.94-.21l.11-.1c-.32.1-.73-.31-1.15-.42H134l.1-.1c-.21-.1-.42-.31-.62-.42A.74.74,0,0,1,132.86,14.34Z"/><path class="cls-6" d="M110.78,10.07s-18.33,19.37-16.35,21,16.35,12.18,16.35,12.18l2.81-1.66s0,49.37,1.36,54.05c0,0,48.22-.83,51.55,0,0,0-1.14-57.18,0-58.53,0,0,1.36,4.48,3.86,6.14,0,0,13.85-11.14,15.83-14.16,0,0-15-18.33-19.38-20.21s-15.2-6.14-18-6.66c0,0-.32,7.81-4.17,8.85S133.8,13.3,131.09,2.26C131.09,2.36,114.32,6.32,110.78,10.07Z"/><polygon class="cls-2" points="111.3 10.59 111.51 10.49 111.72 10.17 111.3 10.59"/><path class="cls-2" d="M113.28,8.92h-.1A12.47,12.47,0,0,0,112,10.07C112.65,9.76,112.76,9,113.28,8.92Z"/><path class="cls-2" d="M113.7,8.72a2.25,2.25,0,0,0,.83-.52C114.43,8.3,113.49,8.61,113.7,8.72Z"/><path class="cls-2" d="M155.77,5.07c-.1,0-.1,0-.2-.1C155.67,5.07,155.67,5.07,155.77,5.07Z"/><path class="cls-2" d="M169.11,10.38h.2c-.31-.21-.52-.41-.83-.62a7,7,0,0,0-.94-.63,11.64,11.64,0,0,0-2-.93c-1.35-.63-2.7-1.15-4.06-1.67h.21c-2.19-.83-4.27-1.67-6.46-2.4a51.25,51.25,0,0,0-6.45-2,21.61,21.61,0,0,1-.42,3.65A10.87,10.87,0,0,1,147,9.24c.1-.11,0-.11.1-.21a1.83,1.83,0,0,1-.63.94c-.1,0,0-.11.11-.21-.94,1.25-4,2-4.9,1.87-.41.11-.62.11-.31.21a8.66,8.66,0,0,1-4.27-.62,9.06,9.06,0,0,1-3.44-2.71,14.57,14.57,0,0,1-2.08-4c-.1-.31-.21-.73-.31-1l-.21-.83V2.57H131l-.32.11-1,.31c-.31,0-.31,0-.31-.11-4.58,1.57-9.58,2.82-14.06,4.9-.11.1.52-.11.1.1a25.26,25.26,0,0,1,4-1.66l-.1.1c1-.31.1-.21,1.25-.52.41-.1-.11.1.1.1,2.08-.73,4.37-1.35,6.35-2.08.52,0,2.29-.62,3.13-.73a4.5,4.5,0,0,1,.73-.21c.1,0,.1-.1.21-.1a.1.1,0,0,1,.1.1V3l.21.62a7.74,7.74,0,0,0,.52,1.46,12.94,12.94,0,0,0,1.35,2.71,8.64,8.64,0,0,0,4.79,4,11.63,11.63,0,0,0,6.25,0,5.87,5.87,0,0,0,1.57-.52,6.51,6.51,0,0,0,1.35-.94,7.85,7.85,0,0,0,1.56-2.71,18.4,18.4,0,0,0,.52-2.6c.11-.42.11-.94.21-1.36l.1-.62V2.57a4.72,4.72,0,0,0,.53.11c.31.1.52.2.83.31.62.21,1.14.41,1.77.62,1.15.42,2.39.84,3.54,1.25h0c1.35.42,3.44,1.15,5,1.77l1.46.42c1.25.52,2.39,1,3.64,1.56l.94.42.83.52c.52.42,1.05.73,1.57,1.14,2,1.78,3.85,3.65,5.62,5.53,3.65,3.85,7.08,7.91,10.52,12.08.21.21.42.52.62.73l-.2.31c-.11.21-.32.31-.42.52l-.94.94c-.62.62-1.25,1.25-2,1.87-1.35,1.25-2.7,2.4-3.95,3.44s-2.71,2.19-4.07,3.33-2.5,2-3.75,3l-.1-.1h0l-.1-.11-.52-.52-.94-1.25c-.11-.21-.31-.41-.42-.62s-.21-.42-.42-.94a7.37,7.37,0,0,1-.52-1.25l-.52-1.56-.21.21h0l-.1.2a.41.41,0,0,0-.1.32,4.76,4.76,0,0,0-.21.73c0,.31-.11.52-.11.83v3.33s0,.11-.1-.21c0,3.44-.21,6.57-.1,9.69h0c.31,7.92,0,16.56.41,24.27,0,3.12.11,6.46.11,9.89s.1,6.77.2,10.21l-1-.1-1.14-.11a19.27,19.27,0,0,1-2.4-.1H158v-.11c-7.91.11-15.52-.21-23.43,0-4.07,0-8.23.11-12.4.32l-3.12.1h-3c-.11,0-.11,0-.11-.1a31.87,31.87,0,0,1-.52-6.15c0-5.1-.83-11.66-.52-16.46.31-9.79-.1-19.26-.41-29.05V41.63L112,43.09c-.21.31-.42,0-.73-.21l-.62-.42-1.25-.83c-1.57-1.15-3.23-2.29-4.8-3.44-3.22-2.29-6.35-4.58-9.26-7.08a1,1,0,0,1-.21-.73,7.21,7.21,0,0,1,1.46-2.81A25.06,25.06,0,0,1,98.7,25c1.46-1.66,3-3.43,4.48-5.2l-.21.1c1.25-1,2.19-3,3.12-3.54l-.1.1c.73-.52,1-1.77,1.56-2.08v-.21c.73-.83.21,0,.73-.62.21-.21,0-.21.42-.63.41.11,1.66-2,2.08-1.77-.42.42.73-.52-.1.42.31-.21,1.45-1.56,1.25-1.56,0-.21.31-.84-.53-.21V10a1.44,1.44,0,0,1-.41.2,11.42,11.42,0,0,1-2,1.67h0a7.46,7.46,0,0,1-1.46,1.67l-.21.1c-.31.11-.83,1.36-.73.94-1.87,2.19-4.06,4.69-6,7.08-.21.42-1.56,1.88-.93,1.46a15.8,15.8,0,0,0-2.71,3.12A.31.31,0,0,1,97,26a5,5,0,0,0-1,1.56,5.16,5.16,0,0,1-.94,1.56,1.88,1.88,0,0,1-.1.62,1.31,1.31,0,0,0,.21,1.46,4,4,0,0,0,1.14.84,5.21,5.21,0,0,0,.94.52l.1.21c2.3,1.77,4.8,3.74,6.77,5.2,1.77,1,4.07,3.13,5.63,3.86.31.2.62.52.94.73s.31.31.52.41a2.08,2.08,0,0,1,.52.42c.1,0,.21.21.31.1l.31-.21c.52-.31,1-.62,1.46-.83l.21-.1h0l.1-.11h0V45a24,24,0,0,0,.21,3.13,10,10,0,0,0-.31,2.7c.1,1.57.1,4.69.31,7.09-.1.41.11,2-.1,2.08.41,6.66.41,15,.31,22.18V82c.1.94.42,2,.62,2.92,0,.1,0,.1-.1-.11.1,1.36-.1,2.5,0,3.86l-.1-.21c.2,1.25,0,2.5.31,4v.11l.21.94c-.11,0-.21,0-.21-.52a3.71,3.71,0,0,0,.1,1l.21,1.46v.2h2.6c1.46,0,2.82-.1,4.27-.1,2.82-.1,5.73-.1,8.55-.21,5.72-.1,11.56-.31,17.28-.31l-.41.1,2.19-.1a.32.32,0,0,0-.21.1c2.81.11,5.83-.1,8.54,0,0,0-.42.11,0,.11,2.08-.11,3.33.31,4.27-.11.1,0,.21.11,0,.11h3.75a13,13,0,0,1,1.66.21c0-2.19-.1-4.38-.1-6.57s0-4.06-.1-6.14c-.42-4.79-.21-10.1-.53-15.1h.11c-.31-6.46-.11-13.34-.11-20,0-2.81,0-4.69.11-7.4l.1-.1V38c0-.31.11-.73.11-1a.39.39,0,0,1,.1-.21v.21l.21.52a23.63,23.63,0,0,0,1.35,2.81c.32.53.63.94.94,1.36a5.42,5.42,0,0,0,1.36,1.25c.62-.52,1-.84,1.56-1.25s.93-.83,1.35-1.25l-.21.31c.52-.62,2.29-1.87,1.88-1.87l.73-.52c2.29-2.5,4.79-3.75,7.6-6.77l-.1.2c.73-.83,1.66-1.66,2.18-2.29-.1.11,0,.11-.21.31l.63-.62c.21-.21.42-.52.62-.73-.2-.31-.52-.62-.72-.94a7,7,0,0,0-.73-.83A21.79,21.79,0,0,1,184.73,25c-1-1.14-2.08-2.29-3-3.43l.41.21c-1.25-1.25-3.22-3.65-4.89-5.32l.1.11-.83-.84.1-.1C173.27,14.24,171.29,12.26,169.11,10.38Z"/><path class="cls-2" d="M146.61,10h0C146.71,9.86,146.61,9.86,146.61,10Z"/><path class="cls-2" d="M107.76,12.57c.1-.1.21-.21.31-.21C108,12.26,107.86,12.47,107.76,12.57Z"/></svg>