<svg id="Layer_1" data-name="Layer 1" xmlns="http://www.w3.org/2000/svg" viewBox="0 0 200 170"><defs><style>.cls-1{fill:#c3c0d4;}.cls-2{fill:#464b86;}.cls-3{fill:#dbd9e5;}.cls-4{fill:#e7e6ee;}.cls-5{fill:#f3f2f6;}</style></defs><title>Artboard 19</title><path class="cls-1" d="M71,38.43s-13.43,2-11.7,13.43,13.76,21.45,25.24,26,23.5,17.43,28.91,26.64,46.9,41.48,83,7.69c0,0-33.79,7.47-53.82-2s-24.37-29-33.47-34.12S77.07,52.73,71,38.43Z"/><polygon class="cls-2" points="70.36 38.65 70.36 38.87 70.68 39.19 70.36 38.65"/><path class="cls-2" d="M71.88,41.14V41l-1-1.4C71,40.38,71.77,40.6,71.88,41.14Z"/><path class="cls-2" d="M72.09,41.58a2.11,2.11,0,0,0,.65.86C72.53,42.33,72.09,41.36,72.09,41.58Z"/><path class="cls-2" d="M112.92,79.81l-.11-.11C112.81,79.81,112.81,79.81,112.92,79.81Z"/><path class="cls-2" d="M121.8,91.5l.22.11c-1.73-2.17-3.25-4.87-5-7.15l.11.11c-2.06-3-4.23-6-7.26-7.91-.76-.54-1.52-.86-2.27-1.4s-1.52-1-2.28-1.41c-1.52-1-3-1.95-4.44-3,.11.1.11,0,.22.1-.33-.21-.65-.32-1-.54-.11-.1.11,0,.22.11-1.08-1.08-3.68-2.71-4.33-3.36-.33-.21-.54-.32-.44-.1A151.71,151.71,0,0,1,82.38,55.22c-.22-.22-.22-.32-.11-.32A54.92,54.92,0,0,1,72.63,43c-.21-.11.22.54-.1.11.75,1.52,1.84,2.38,2.59,3.79l-.21-.11c.54,1,.32.11.86,1,.22.43-.1,0,0,.11a43.22,43.22,0,0,0,4.55,5.2c.22.54,1.74,1.84,2.17,2.59.43.44.87.87,1.08.87,2.82,2.92,5.85,5.63,9,8.34s6.39,5.2,9.75,7.58c1.73,1,3.46,2.17,5.31,3.36a23.31,23.31,0,0,1,2.7,1.84c.87.76,1.63,1.52,2.39,2.27h0a23,23,0,0,1,3.35,4.23,11.32,11.32,0,0,1,1,1.19,100.53,100.53,0,0,0,9.42,13.21A48.8,48.8,0,0,0,139,109.05a47.55,47.55,0,0,0,16.9,5.74,79.24,79.24,0,0,0,17.54.54s.11,0-.21.11c3.46-.22,6.6-.33,9.85-.76h0l6.5-1c1.08-.1,2.17-.32,3.36-.54l1.3-.21,1.08-.22h0l-.11.11L195,113l-.32.32-.76.65c-.76.65-1.41,1.3-2.16,1.84s-1.52,1.19-2.17,1.73l-2.27,1.63a50,50,0,0,1-13.54,6.17,51.51,51.51,0,0,1-15.16,1.95v-.11c-8.13-.21-15.6-2.6-23-5.84a91.69,91.69,0,0,1-10.94-6.18,43.89,43.89,0,0,1-9.64-8.23c-.44-.54-.76-1.08-1.19-1.62s-.76-1.19-1.09-1.74a35,35,0,0,0-2.6-3.57c-1.84-2.27-3.79-4.44-5.19-6.39A59.52,59.52,0,0,0,94.29,83.38,60.18,60.18,0,0,0,88,79.48c-2.16-1.19-4.55-1.84-6.82-2.92A54.25,54.25,0,0,1,69.71,69a41.39,41.39,0,0,1-4.77-4.88,32.3,32.3,0,0,1-3.57-5.74,19.75,19.75,0,0,1-2.06-6.28,11.93,11.93,0,0,1,1.09-6.71l-.11.1c.11-.21.21-.32.32-.54s.22-.32.33-.54a5.93,5.93,0,0,1,.76-1.08,3.16,3.16,0,0,1,1.62-1.41L63.1,42c.76-.43,1.41-1.63,2.06-1.63l.11-.1c1-.55.11,0,1-.33.33-.11,0-.22.65-.43.11.11.76-.11,1.41-.33s1.19-.43,1.3-.21c-.54.1.87-.11-.32.32.32-.11,2-.43,1.84-.65.11-.22.76-.54-.33-.43l-.21.21c-.44-.1-.33,0-.44-.1-1.41.32-1.62.21-2.7.43h0a11.34,11.34,0,0,1-2.06,1h-.22c-.22,0-.54.33-.76.55s-.43.43-.32.1a12.85,12.85,0,0,0-3.47,3.36A3.88,3.88,0,0,0,60,44.82L59.42,46a5.61,5.61,0,0,0-.32,1.19l-.22.65-.11.65v1.4c0,.55.11.87.22.44,0,.21-.11.54-.11.86a4.86,4.86,0,0,0,.11,1.2,8.31,8.31,0,0,0,.43,2.16.38.38,0,0,1-.11-.22,5.63,5.63,0,0,0,.54,1.85,4.22,4.22,0,0,1,.65,1.73c.33.11,1.3,2.81,2.17,3.36.11.21,0,.32,0,.21a40.44,40.44,0,0,0,5.63,6.83c1.73,1.3,3.9,3.46,5.63,4.33a31.66,31.66,0,0,0,5.2,3.25l-.21-.11a33.29,33.29,0,0,0,3.46,1.62c1.19.44,2.28.87,3,1.09a2.74,2.74,0,0,0,1.09.75c.43.22.86.55,1.3.76.75.33,1.73.87,2.92,1.52A36.64,36.64,0,0,1,94,83.7c.22.33,1.62,1.2,1.62,1.41a62.31,62.31,0,0,1,15.27,16.25l-.1-.11c.65.76,1.4,1.41,2,2.17,0,.1,0,.1-.1-.11a21.32,21.32,0,0,0,2.16,3.25l-.22-.11a23.87,23.87,0,0,0,2.82,2.92v.11l.76.54c-.11,0-.11.11-.54-.32a71,71,0,0,0,14.4,10q3.9,1.95,8.12,3.57a82.59,82.59,0,0,0,8.45,2.5h-.43a17.71,17.71,0,0,0,2.27.32h-.21c2.81.76,6,.76,8.77,1,0,0-.43.1,0,.1,2.06-.21,3.36.33,4.44-.21.11,0,.22.11,0,.11.76-.11,1.52-.11,2.16-.22l2.17-.33c1.52-.21,2.93-.54,4.33-.86s2.93-.76,4.34-1.19,2.81-1,4.11-1.63c4.33-2.27,9.21-5,12.89-8.45v.11c.86-.86,2.27-2.06,3.14-2.92-2.93.65-5.52,1.08-8.23,1.41s-5.42.65-8.12.86-4.77.44-7.59.54l-.1-.1c-4.77.43-10.08-.33-14.95-.65l.33-.11c-.76.11-2.93-.44-2.71-.11a2.54,2.54,0,0,0-.87-.22l-2.49-.32-1.19-.22c-.43-.11-.76-.22-1.19-.32-1.52-.55-3.25-1.09-5.2-1.74h.32a8.87,8.87,0,0,1-2.92-1.3c.11,0,.11,0,.33.11a66.26,66.26,0,0,1-9.21-6l.43.1a19.87,19.87,0,0,1-2.6-2.16c-1-.87-1.84-2-2.7-2.71l.1.11a6.45,6.45,0,0,1-.86-.87l.11-.11A38.77,38.77,0,0,1,121.8,91.5Z"/><path class="cls-2" d="M100.47,70.38Z"/><path class="cls-2" d="M67.11,38.87c.11,0,.22-.11.33-.11A1.11,1.11,0,0,1,67.11,38.87Z"/><path class="cls-3" d="M71,38.43a56.79,56.79,0,0,1,28.05-23.5c19.49-7.47,12.89,6.28,14.62,11.7s8,20.58,33.47,17.22c0,0,11.69,39.53,15.48,42.35,0,0-16.35,7.14-17.43,12.34,0,0-10.18,1.84-21.56-4.44,0,0-14.62-20.14-26.31-26.21S73.07,44.72,71,38.43Z"/><polygon class="cls-2" points="70.36 38.65 70.36 38.76 70.58 39.08 70.36 38.65"/><path class="cls-2" d="M71.44,40.6v-.11a9.26,9.26,0,0,1-.86-1.08C70.68,40.06,71.44,40.17,71.44,40.6Z"/><path class="cls-2" d="M71.55,40.93c.11.54.43.65.54.65C71.88,41.58,71.66,40.82,71.55,40.93Z"/><path class="cls-2" d="M102.42,71.79l-.11-.11Z"/><path class="cls-2" d="M111.08,79.05h.22a16.36,16.36,0,0,1-2.39-2.39c-.86-.75-1.62-1.62-2.49-2.38l.11.11a46.87,46.87,0,0,0-6.6-5.09c-2.39-1.41-4.88-2.6-7.15-4.22.11,0,.11,0,.21.1a2.41,2.41,0,0,1-.75-.43c0-.11.1,0,.21.11a14.21,14.21,0,0,0-1.84-1.41,10,10,0,0,1-1.51-1.3c-.33-.21-.44-.21-.33-.11a103.31,103.31,0,0,1-9.64-9.85C79,52,79,52,79.13,52a41.89,41.89,0,0,1-6.82-9.85c-.11-.11.11.43-.11.1.54,1.2,1.41,2,1.84,3l-.11-.11c.44.76.22,0,.65.87.11.32-.11,0,0,.1.54.76,1,1.52,1.52,2.28a15.59,15.59,0,0,0,1.73,2.06c.11.43,1.19,1.51,1.52,2.16a4.68,4.68,0,0,0,.86.76,67.11,67.11,0,0,0,14,13.1c1.3.76,2.81,1.52,4.22,2.39a22.2,22.2,0,0,1,2.17,1.41c.75.54,1.4,1,2.16,1.51h0c.43.33,1.08.76,1.63,1.19s1.19,1,1.62,1.41l1,.65A166.62,166.62,0,0,1,123.54,94.1l.21.22c.11.11.22.11.33.21l.43.22.76.43a9.84,9.84,0,0,0,1.62.76c1.09.54,2.17.87,3.25,1.3a36,36,0,0,0,13.54,2,2.4,2.4,0,0,0,.87-.11H145l.54-.1.33-.11h.21v-.11l.22-.65.32-.65a12.14,12.14,0,0,1,2.17-2.6s.11,0-.11.22a34.56,34.56,0,0,1,6.28-4.34h0a29.92,29.92,0,0,1,4-2.27c.65-.33,1.41-.76,2.06-1.08l2.38-1.19a3,3,0,0,1-.54-.65c-.11-.11-.22-.22-.22-.33l-.21-.22a8.1,8.1,0,0,1-.65-1.08,22.3,22.3,0,0,1-1.09-2.27c-.65-1.52-1.3-3-2-4.44-2.6-6.93-5.3-14.95-7.69-22.31h.11c-.65-1.84-1.19-3.69-1.73-5.64s-1.08-3.79-1.62-5.74l-3.58.33C143,44,142,44,140.76,44A42.62,42.62,0,0,1,131,42.87l-2.38-.64-2.28-1a22.16,22.16,0,0,0-2.16-1.19c-.65-.43-1.3-1-2-1.41a48.64,48.64,0,0,1-4.55-4.76,16.23,16.23,0,0,1-2.93-5.74c-.21-1-.54-1.85-.65-2.82a24.1,24.1,0,0,1,0-2.82,25,25,0,0,0-.11-5.74,4.6,4.6,0,0,0-1.29-2.6,4,4,0,0,0-2.6-1.19,14.89,14.89,0,0,0-5.74.76,46.82,46.82,0,0,0-10,3.9c-1.62.76-3,1.73-4.55,2.6s-2.92,1.84-4.33,2.92c-2.49,2.17-5.52,4.23-7.9,7h.1C76.64,31,76.1,32.69,75.23,33l.11-.11c-.54.43-.65,1.52-1.08,1.73v.11c-.43.65-.11,0-.54.54-.11.22.11.22-.22.55-.43-.11-1.08,1.73-1.52,1.62.22-.43-.54.54-.1-.43-.22.21-.87,1.51-.65,1.4.1.22,0,.76.54.11v-.21c.21-.22.21-.11.32-.22.54-1,.87-1,1.41-1.52h0a3.3,3.3,0,0,1,1-1.4l.22-.11c.33-.11.54-1.19.54-.76A55.34,55.34,0,0,1,80,28.69c.11-.33,1.41-1.3.86-1.09a14.13,14.13,0,0,0,2.6-2s0,.11-.1.11c1.19-.65,1-1.3,2.27-1.73,0-.32,1.84-1.3,2.27-2h.22a56.65,56.65,0,0,1,5.74-3.36c.65-.43,1.63-.86,2.49-1.3a22,22,0,0,0,2.38-1.19c1.09-.43,2.93-1,4.44-1.51l-.1.1a49.85,49.85,0,0,1,5.19-1.29,2.83,2.83,0,0,0,1,.21c.32.11.76.11,1.08.22a2.64,2.64,0,0,1,2,.86,4.67,4.67,0,0,1,1.3,2.39c-.11.32.22,1.51,0,1.62a25.44,25.44,0,0,1,.11,4.12,13.46,13.46,0,0,0,.54,4.55,27.25,27.25,0,0,0,4,8.12l-.11-.11c.54.54,1.3,1,1.95,1.52,0,.1,0,.1-.11,0A5.52,5.52,0,0,0,121,38.11a10.14,10.14,0,0,0,1.09,1.08l-.22-.11a5.41,5.41,0,0,1,1.19,1,4,4,0,0,0,1.41.87V41l.65.33s-.11.11-.43-.11A27.36,27.36,0,0,0,136,44.82l3,.22a29.11,29.11,0,0,0,3-.11h1.51l1.52-.11,2.71-.32,1,3.36-.11-.33.65,1.63-.11-.11c.54,2.16,1.41,4.33,2.06,6.5,0,0-.22-.33-.11,0,.65,1.51.54,2.6,1.19,3.25,0,.1-.1.1-.1,0,1.51,4.33,2.92,8.66,4.44,13.1,1.62,3.47,2.81,7.58,4.65,11h-.11c.33.65.65,1.19,1,1.84s.76,1.19,1.19,1.62c-.76.33-1.62.76-2.49,1.19l-2.6,1.3a46.87,46.87,0,0,0-5.09,2.93,36.56,36.56,0,0,0-4.77,3.57h-.1a12.82,12.82,0,0,0-1.84,2.28l-.33.65-.11.32a.11.11,0,0,1-.11.11h-.21c-.44,0-1,.11-1.41.11-2,0-3.9-.11-5.85-.11l.33-.11c-.65.11-2.28-.43-2.17,0-.22-.11-.43-.11-.65-.22-2.71-.1-4.66-1.19-7.69-2.16h.22a23.56,23.56,0,0,1-2.28-1c.11,0,.11,0,.22.11a13.68,13.68,0,0,0-1.73-1,17.17,17.17,0,0,0-1.3-1.63c-.87-1.08-1.84-2.27-2.82-3.36l.33.22c-1-1-2.49-3-3.69-4.33h.11l-.65-.65.11-.11C114.33,82.3,112.71,80.78,111.08,79.05Z"/><path class="cls-2" d="M73.18,36.16l-.22.22C73.07,36.38,73.07,36.27,73.18,36.16Z"/><path class="cls-4" d="M89.64,19.59s20.14,22.2-2.93,40.94c0,0-15.7-12.46-15.7-22.2C71,38.43,82.71,23.27,89.64,19.59Z"/><polygon class="cls-2" points="89.31 19.05 89.2 18.94 89.2 19.16 89.31 19.05"/><path class="cls-2" d="M88.66,19.7h0l.33-.54C88.77,19.16,88.88,19.7,88.66,19.7Z"/><path class="cls-2" d="M88.55,19.7a.21.21,0,0,0-.21.21C88.34,19.81,88.66,19.81,88.55,19.7Z"/><path class="cls-2" d="M74.26,34.54l.11.1a13.71,13.71,0,0,1,1.51-2v.11c1.41-1.62,2.6-3.14,4-4.76v.11c0-.11.11-.22.11-.33v.11c.43-.22.76-1.08,1.08-1.08a.15.15,0,0,0,0-.22c1.08-1.19,2.38-2.49,3.58-3.68.1,0,.1,0,.1.11a11,11,0,0,1,3.47-2.82c0-.11-.22,0-.11-.11-.43.22-.65.65-1.08.87v-.11c-.33.11.11.22-.22.32-.11,0,0-.1-.11-.1a9.12,9.12,0,0,0-1.51,1.4c-.22,0-.54.44-.87.55-.11.21-.22.32-.22.43a57,57,0,0,0-5,5.09c-.54,1.08-1.73,1.73-2.49,2.81h0a5.43,5.43,0,0,1-1,1.2l-.22.43a45.07,45.07,0,0,0-3.14,3.47l-1.52,1.84c-.32.21-.11.54-.11.75v.65a4.05,4.05,0,0,0,.11,1.2A17.65,17.65,0,0,0,75.56,50h-.11c.65.76,1.19,1.52,1.84,2.28h0c1.73,1.62,3.25,3.68,5.09,5,1,1,2.06,1.95,3.25,2.92l1,.76s.11.11.11,0l.11-.11.22-.21.43-.44c.54-.54,1.08-1,1.63-1.51h0a34.46,34.46,0,0,0,4.54-5.2c1.52-2,2.17-4.44,3-6.72.75-1.4.43-3.46.86-4.76.76-2.82.11-5.74-.86-8.45-.54-2.6-2-4.87-2.82-7.36-.76-1-1-2.39-1.84-3.47v.11c-.11-.54-.87-.65-.76-1.19h0c0-.33-.76-.22-.65-.44H90.5c-.21-.21.11-.1,0-.32s-.1.11-.21-.11c.32-.32-.54-.54-.22-.87.11.11,0-.32.33-.1,0-.11-.44-.54-.55-.33s-.43.11-.32.43h.11c0,.22,0,.11-.11.22.22.33.11.54.22.76h0c.21,0,.32.32.43.43v.11c-.11.22.54.22.22.22.54.65,1.08,1.41,1.62,2.16.11,0,.32.65.43.33-.11.32.22,1,.33,1.19h-.11c0,.54.54.32.43,1,.33-.1.33.76.76.87a.11.11,0,0,1-.11.11c.33.76.65,1.62,1,2.27.43.44.43,1.41.86,1.74A5.13,5.13,0,0,0,96,32.91h-.11a5.79,5.79,0,0,0,.76,1.84c-.22.22-.11.54-.22.87a19.86,19.86,0,0,1,.54,2c-.11.11.11.54-.11.65a10.48,10.48,0,0,1-.43,6.28h0a3.38,3.38,0,0,0,.33,1h0c-.11.44-.33.65-.44,1.09v-.11c0,.32-.43.65-.32,1.08h-.11v.33c-.11,0-.11-.11-.11-.22a27.35,27.35,0,0,1-5,8.56v-.11l-.33.54v-.11c-.65.54-1.08,1.3-1.73,1.84a.11.11,0,0,0-.11-.11c-.32.55-.86.44-.86,1a.11.11,0,0,1-.11-.11l-.87.87c-.11.1-.11.21-.22.21L86.39,60c-.65-.55-1.3-1.09-2-1.74-1.3-.65-2.28-2-3.47-2.81h.11a31.32,31.32,0,0,1-4-4.33c-.43-.65-.86-1-1.4-1.74l.1-.11c-1.08-.86-1.4-2.49-2.38-3.57h.11c-.22-.11-.32-.76-.54-.54v-.22c-.87-.65-.54-1.73-1.3-2.71h.11a4.19,4.19,0,0,1-.33-.86l.11.11c0-.54-.22-1-.22-1.52l-.1-.76-.11-.43c0-.11-.11-.22,0-.33a.11.11,0,0,0,.11.11c0-.21.32-.54.54-.76s.54-.65.65-.86V37l.11-.33.1.11C73.28,35.94,73.72,35.19,74.26,34.54Z"/><polygon class="cls-2" points="97.44 46.34 97.44 46.45 97.65 46.45 97.44 46.34"/><path class="cls-2" d="M98.19,46.67h0l-.54-.11C97.65,46.77,98.08,46.45,98.19,46.67Z"/><path class="cls-2" d="M98.19,46.67a.22.22,0,0,0,.33,0C98.41,46.77,98.3,46.56,98.19,46.67Z"/><path class="cls-2" d="M113.9,52.84v-.11c-.65.22-1.41-.22-2.06-.22h0a35.19,35.19,0,0,1-4.87-1.3h-.11c-.22-.32-1.09-.32-1.19-.54-.11,0-.22,0-.11.11-1.3-.54-2.6-1.19-3.9-1.73v-.11a9.25,9.25,0,0,1-3.14-1.84c-.11,0,0,.11-.11.11.22.32.76.21.87.54h-.11c.21.21.11-.11.32.11,0,.1-.11.1,0,.1a4,4,0,0,0,1.52.76c0,.22.54.33.54.54.11,0,.33.11.43,0a29.66,29.66,0,0,0,5.31,2.5c1,0,1.84.75,3,1h0a6.3,6.3,0,0,1,1.3.22l.44-.11a12.53,12.53,0,0,0,1.94.43,11.6,11.6,0,0,0,2,.11c1.3,0,2.6-.11,3.9,0a14.73,14.73,0,0,1,7.58,2.17h-.1a2.83,2.83,0,0,1,.75.86,6.78,6.78,0,0,0,.65.87h0c1.2,1.52,1.52,3.57,2.17,5.31a69.91,69.91,0,0,1,1,7.14h-.1c.21,2-.11,3.79,0,5.64-.11,1.94.43,4,.32,6.06-.32,1.3.54,2.82.43,4A9.31,9.31,0,0,0,134.8,92a6.44,6.44,0,0,0,2.06,2.49,20.79,20.79,0,0,0,2.49,2c1,.33,1.73,1.2,2.81,1.52v-.11c.33.44,1-.11,1.09.33h0c.1.21.54-.33.65,0l.1-.11c.22,0,0,.11.22.22s.11-.22.22-.11c0,.43.65,0,.54.43-.11,0,.22.22-.11.22.11.11.54.11.54-.11s.22-.33,0-.54l-.11.11c-.1-.11,0-.11-.1-.22-.33-.11-.33-.33-.55-.43h0a.49.49,0,0,1-.54-.11v-.11c0-.22-.43.22-.32,0a10.09,10.09,0,0,1-2.17-.65c-.11.11-.54-.22-.43,0-.11-.33-.54-.54-.76-.65h.11c-.22-.43-.54,0-.76-.43-.22.21-.54-.44-.87-.22V95.4a8.56,8.56,0,0,1-1.51-1.3,2.62,2.62,0,0,1-.65-.54c-.22-.22-.33-.43-.65-.43a6.79,6.79,0,0,0-.76-1.19h.11a12.22,12.22,0,0,0-1-1.3c.22-.33.11-.44.11-.76-.32-.22-.54-1-.76-1.52.11-.11-.21-.43,0-.54a8.46,8.46,0,0,1-.75-5.2h0c-.11-.22-.44-.43-.55-.65h0c-.1-.32.11-.65.11-1h.11c-.11-.33.11-.65,0-1h.11l-.11-.21c.11,0,.22,0,.11.1,0-2.7-.33-5.52-.33-8.34l.11.11-.11-.54h.11a12.93,12.93,0,0,0-.11-2.06s.11.11.11,0c-.21-.54.22-.86-.21-1.08h.1c-.1-.65-.21-1.41-.32-2.06s-.11-1.4-.22-2c-.54-1.09-.43-2.5-1.08-3.58H131A26.72,26.72,0,0,0,129,55.87a4.87,4.87,0,0,0-1.3-1.3v-.11a12.41,12.41,0,0,1-1.52-1,2.66,2.66,0,0,0-1.73-.65l.11-.11c-.22.11-.65-.22-.65.11l-.22-.11a2.22,2.22,0,0,1-1.19-.11,2.5,2.5,0,0,0-1.3-.11l.11-.1c-.22,0-.54.1-.76,0h.11a6.89,6.89,0,0,0-2.6,0l.11-.11a4.66,4.66,0,0,1-1.73.11V52.3l-.33.11V52.3A3.54,3.54,0,0,1,113.9,52.84Z"/><path class="cls-1" d="M124.84,40.82s6.28-7.8,11.48-8.45,7.9,1.73,10.83,11.48C147.15,43.85,130.9,45.69,124.84,40.82Z"/><polygon class="cls-2" points="124.4 41.36 124.4 41.47 124.51 41.36 124.4 41.36"/><path class="cls-2" d="M124.94,41.47h-.43C124.51,41.68,124.94,41.25,124.94,41.47Z"/><path class="cls-2" d="M124.94,41.47c0,.11.22,0,.22,0S125.05,41.36,124.94,41.47Z"/><path class="cls-2" d="M135.88,44v-.11c-.43.22-.86-.11-1.41,0h0c-1.19-.22-2.27-.11-3.35-.22h.1c-.1,0-.1.11-.21.11v-.11c-.22-.21-.76,0-.87-.21a.1.1,0,0,0-.11.1c-.86-.1-1.84-.43-2.81-.65v-.1a4.5,4.5,0,0,1-2.28-1.09c-.1,0,0,.11-.1.11.21.22.54.11.64.33h-.1c.1.1.1-.11.21,0s-.11.1,0,.1a3.17,3.17,0,0,0,1.09.33c0,.22.32.22.43.43a.37.37,0,0,0,.32-.11,15,15,0,0,0,3.79,1c.65-.22,1.3.32,2.06.32h0a2.52,2.52,0,0,1,.87,0l.22-.1a27.26,27.26,0,0,0,5.09.43,13.46,13.46,0,0,0,5.52-.33v.11c.32,0,.54-.11.76-.11a4,4,0,0,0,1.08-.1h0l.33-.11c.1,0,0-.11,0-.11l-.11-.22-.22-.65a3.7,3.7,0,0,1-.32-1.08,6.62,6.62,0,0,0-.76-1.73,17.57,17.57,0,0,0-2.17-4.33h.11c-.76-1-1.3-2.17-2.49-2.82a3.93,3.93,0,0,0-1.95-.76,12.26,12.26,0,0,0-2.06-.11c-.43-.21-.86,0-1.3.11a2.82,2.82,0,0,1-1.3.33c-1.73,0-2.92,1.19-4,2.27-1.3.76-2.06,2.06-3.25,2.71-.33.65-1.2.76-1.63,1.41h.11c-.33,0-.11.65-.54.54h0c-.22,0,.11.54-.11.43l.11.11c-.11.11-.11-.11-.22,0a.15.15,0,0,1,0,.22c-.32-.22-.21.32-.54.1.11-.1-.22,0-.11-.21a.21.21,0,0,0-.11.32c.11.11.22.33.44.33l-.11-.11c.11,0,.11,0,.22.11.1-.11.32,0,.54-.11h0c-.11-.22.1-.22.21-.33h.11c.11.11-.11-.43.11-.21a9.38,9.38,0,0,1,1-1.19c0-.11.33-.33,0-.33.22.11.55-.11.65-.22h0c.44,0,0-.43.44-.32-.11-.22.43-.22.32-.54.11,0,.11,0,.11.11.33-.33.76-.55,1.08-.87.11-.43.65-.43.65-.87.22-.1.65-.21.76-.54h0a1.89,1.89,0,0,0,.76-.86c.22.21.32.1.54.1.11-.21.54-.43.87-.75.11.1.21-.22.32,0a3.39,3.39,0,0,1,3.14-1h0c.11-.11.33-.43.44-.54h0c.21-.11.43.11.65.11v.11c.21-.11.43.1.65,0v.1l.1-.1c0,.1,0,.21-.1.1a10.23,10.23,0,0,1,2.49.55,5.53,5.53,0,0,1,2,1.51h-.1c.1.11.21.11.32.22h-.11c.11.43.65.65.76,1.08a.11.11,0,0,0-.11.11c.33.22.11.54.44.54l-.11.11A7.61,7.61,0,0,1,145,39.3c.65.54.65,1.52,1.19,2.17h-.11A3.43,3.43,0,0,1,146.6,43l.11.65c0,.11-.21,0-.32.11h-.33c-.43,0-.76.11-1.19.11v-.11c-.76.43-1.62-.22-2.38.22v-.11c-.11.22-.43,0-.43.22L142,44c-.54.43-1-.22-1.63.11V44a.48.48,0,0,1-.54,0h0c-.54-.33-1.19,0-1.73,0l.11-.11c-.33.22-.76,0-1.2,0v-.11l-.21.11v-.11C136.86,43.85,136.42,44,135.88,44Z"/><path class="cls-2" d="M125.7,40.71Z"/><path class="cls-4" d="M196.42,112.19s5.2-7.37-5.2-11.7-22-9.2-28.59-14.29c0,0-15.16,7-17.43,12.34,0,0-14.62,1.52-21.56-4.44C123.64,94.1,138.48,125.4,196.42,112.19Z"/><polygon class="cls-2" points="196.21 111.54 196.1 111.43 195.99 111.65 196.21 111.54"/><path class="cls-2" d="M194.91,112c.1,0,.1.11,0,0l.75-.43C195.34,111.54,195.23,112.08,194.91,112Z"/><path class="cls-2" d="M194.69,112.08a.45.45,0,0,0-.43.22C194.26,112.08,194.8,112.19,194.69,112.08Z"/><path class="cls-2" d="M160.14,115l-.11.11c1.41,0,2.82.33,4.34.33h-.11a68.2,68.2,0,0,0,10.5-.22c-.11,0-.11,0-.11.11.22,0,.33-.11.55-.11a.11.11,0,0,1-.11.11c.76.22,2.16-.22,2.7-.11.22,0,.33-.11.22-.22a57.52,57.52,0,0,0,8.56-1.3c.11,0,.21,0,.11.11,2.38-.76,4.87-1,7.36-1.51.11-.11-.22,0,0-.22a15.63,15.63,0,0,1-2.17.54l.11-.11c-.54.11-.11.22-.65.22-.21,0,0-.11-.11-.11a16.38,16.38,0,0,0-3.25.76c-.32-.11-1.19.22-1.62.11-.32.11-.54.11-.65.32-3.9.44-7.91,1.09-11.91,1.19a13.66,13.66,0,0,1-3,.22,33,33,0,0,0-3.35-.11h0a22.25,22.25,0,0,1-2.71,0c-.22,0-.54.11-.76.11a86.58,86.58,0,0,1-15.59-3,65.11,65.11,0,0,1-15.27-7.69s0-.11.1,0a36.76,36.76,0,0,1-3.68-3.14h0a25.49,25.49,0,0,1-5.85-7.26l-.32.33a10.62,10.62,0,0,0,2.38,1.4c4.12,2.28,9.53,3,14.51,2.93v.11a26.09,26.09,0,0,0,2.93-.11l1.51-.11h.44a.11.11,0,0,0,.11-.11l.1-.21.44-.65a20.44,20.44,0,0,1,4.22-3.9c3.36-2.28,6.82-4.88,10.51-6.5.54-.22,1.19-.54,1.84-.76l.21-.11.22.11.43.33c.33.21.65.43.87.54,1.19.75,2.49,1.4,3.47,2.16,4,2.93,8.44,4.66,13,6.39,2.06,1,4.12,1.84,6.18,2.6a63.22,63.22,0,0,1,6.06,2.71c.43.22,1,.54,1.41.76a12.81,12.81,0,0,1,1.19,1.08,13,13,0,0,1,1.73,2.92v-.1a3.85,3.85,0,0,0,.33,1.19c.11.43.21.76,0,1.08v-.11c-.11.22,0,.44.11.76a.51.51,0,0,1,0,.54l.1.11c-.1.54-.1,0-.21.43,0,.11.11.11,0,.44-.33-.11-.44,1.3-.87,1.08.11-.22-.32.32-.11-.33-.11.11-.54.87-.32.87.11.22.11.54.54.22l-.11-.22c.22-.11.11-.11.22-.11.32-.65.54-.65.86-1.08h0a2.51,2.51,0,0,1,.33-1.08l.11-.11c.21-.11-.22-.87.11-.65a7,7,0,0,0-1.2-4.77c-.21-.21-.75-1-.75-.65a1.77,1.77,0,0,0-.55-1c-.32-.33-.65-.54-.75-.76h.1c-.54-.87-1.08-.32-1.51-1.08-.22.11-1.3-.76-1.84-.65-.11-.11-.11-.22,0-.22-1.3-.65-2.82-1.3-3.9-1.73-1.08-.22-2.28-1.08-3.25-1.08a19.77,19.77,0,0,0-2.71-1.3h.11a16.86,16.86,0,0,0-3.25-1.2c-.22-.43-.65-.54-1.08-.86-.76-.22-2.17-.87-3.36-1.3-.11-.22-.87-.43-.87-.65a29.08,29.08,0,0,1-9.42-5.63h0a6.19,6.19,0,0,0-.76-.22c-.21-.11-.32-.11-.54-.22a1.6,1.6,0,0,0-.43.33c-.11,0-.11,0,.11-.11-.65.33-1.3.43-1.84.76l.1-.11a12.73,12.73,0,0,0-1.73.87h-.11l-.32.32c0-.11-.11-.21.22-.21a69.94,69.94,0,0,0-7.37,4.44,41.61,41.61,0,0,0-3.46,2.7,9.93,9.93,0,0,0-1.52,1.52l-.65.87a2.11,2.11,0,0,0-.33.54l-.21.32v-.11c0,.22-.22.22-.65.33l.11-.11c-1.41,0-2.93.22-4.23.22,0,0,.22-.11,0-.11-1,.11-1.62-.33-2.16.11,0,0-.11-.11,0-.11a28,28,0,0,1-8.45-1.3,14.42,14.42,0,0,1-6-2.82l-.65-.54.44.65a3,3,0,0,0,.54.76H124a36,36,0,0,0,6.5,7.58,19,19,0,0,0,2.92,2.28v.1c2.06,1.19,3.9,3,6.28,3.9h-.21c.43,0,1.3.76,1.3.44l.32.21c1.62.33,2.71,1.41,4.66,1.95h-.11c.54.11,1.19.33,1.52.43h-.22a9.55,9.55,0,0,0,2.49.87,23.61,23.61,0,0,0,2.71.54l-.22.11c.87,0,2.38.54,3.57.65h.44V114A11.75,11.75,0,0,0,160.14,115Z"/><path class="cls-2" d="M197.83,110.67c0,.11-.11.11-.11.22A.34.34,0,0,1,197.83,110.67Z"/><path class="cls-5" d="M136,55.76c.33.54,13.75-3.35,13.75-3.35"/><path class="cls-2" d="M149.64,51.76l-.11-.11Z"/><path class="cls-2" d="M149.53,52h0v-.21C149.53,51.54,149.64,52.08,149.53,52Z"/><path class="cls-2" d="M146.93,53.27v.11c0-.22.22-.11.32-.22h0c.33,0,.55-.32.76-.43v.11c.11.22.11-.22.22,0v-.22a2.35,2.35,0,0,0,.65-.43v.11c.11-.33.32-.33.54-.33v-.21c-.11-.11-.11.21-.11.1v-.1c-.11,0,0,.21,0,.1v-.1c-.11.1-.22,0-.22.21-.1-.21-.1,0-.21-.11v.22a3.44,3.44,0,0,0-1,.33c-.1.32-.32,0-.54.21h0c0,.11-.11.11-.21.11v.11c-.55-.22-.87.11-1.3.11s-1-.11-1.41.54v-.11c-.11.11-.33,0-.44.11h0c-.21.32-.65.11-.86.54a5.49,5.49,0,0,0-1.19.43v-.11c-.33.22-.65,0-1,.11-.32-.11-.54.54-1,.44-.33-.33-.44.43-.65.21-.54-.43-.87,0-1.19.44-.44-.11-.65.43-1.09.1-.11.22-.43-.21-.54-.1v.1c-.11-.21-.11.33-.21,0h0c0-.21-.11.44-.11.22V56c0-.43-.11.11,0-.33v-.21h0v.11h0v-.22h0a.11.11,0,0,1,.11.11c0,.11,0,.11-.11.21s-.33.11-.44.33a.11.11,0,0,0,.11-.11c-.11.11,0,.11-.11.11.11.11.11.11.11.22s0,.1.11.21h0c.11-.21.11-.11.11,0v.11c0,.22.11-.32.11,0a.63.63,0,0,1,.43-.11c0-.11.11,0,0-.21.11.21.22.32.22.21h0c.1.33,0-.32.21.11,0-.22.11.11.11-.22v.11h.43c0-.21.22.11.22-.32.11.11.22.21.22,0h0c.11,0,.21-.11.21-.33.11.33.11.22.22.33,0-.11.22-.11.22-.33,0,.11.11-.11.11.11a.53.53,0,0,1,.86-.22h0v-.54h0a.38.38,0,0,0,.22.11v.11c0-.11.11.11.22,0h0v0c.43,0,.86-.54,1.3-.54v.11l.1-.11v.11c.11.1.22-.11.33-.11v.11c0-.22.22.21.11-.22v.11a.78.78,0,0,1,.65-.22c.1-.43.43-.11.54-.43v.11c.21-.33.54-.11.76-.22s.21-.11.32-.11V54c.11-.32.43.22.54-.22v.11c0-.21.11,0,0-.32l.11.11c0-.44.33.1.43-.22v.11a.11.11,0,0,1,.11-.11v.11c.22.21.33-.11.44-.11v.11c0-.22.21-.11.21-.22v.11C146.71,53.49,146.82,53.38,146.93,53.27Z"/><path class="cls-5" d="M138.26,64.43c.33.54,13.76-3.36,13.76-3.36"/><polygon class="cls-2" points="151.91 60.42 151.8 60.42 151.8 60.53 151.91 60.42"/><path class="cls-2" d="M151.8,60.74h0v-.21C151.69,60.31,151.91,60.85,151.8,60.74Z"/><path class="cls-2" d="M149.2,62v.11c0-.21.22-.11.33-.21h0c.32,0,.54-.33.76-.44v.11c.1.22.1-.22.21,0v-.22a1.93,1.93,0,0,0,.65-.43v.11c.11-.33.33-.33.54-.33v-.21c-.1-.11-.1.21-.1.11v-.11c-.11,0,0,.21,0,.11v-.11c-.11.11-.22,0-.22.21-.11-.21-.11,0-.22-.1v.21a3.38,3.38,0,0,0-1,.33c-.11.32-.33,0-.54.21h0c0,.11-.11.11-.22.11v.11c-.54-.22-.87.11-1.3.11s-1-.11-1.41.54v-.11c-.11.11-.32,0-.43.11h0c-.22.33-.65.11-.87.54a5.22,5.22,0,0,0-1.19.44v-.11c-.32.21-.65,0-1,.11-.33-.11-.55.54-1,.43-.32-.33-.43.43-.65.22-.54-.44-.86,0-1.19.43-.43-.11-.65.43-1.08.11-.11.21-.44-.22-.54-.11v.11c-.11-.22-.11.32-.22,0h0c0-.22-.11.43-.11.21v.11c0-.43-.11.11,0-.32v-.22h0v.11h0V64.1h0a.11.11,0,0,1,.11.11c0,.11,0,.11-.11.22s-.32.11-.43.32a.11.11,0,0,0,.11-.11c-.11.11,0,.11-.11.11.11.11.11.11.11.22s0,.11.1.21h0c.11-.21.11-.1.11,0v.11c0,.22.11-.32.11,0a.65.65,0,0,1,.43-.11c0-.1.11,0,0-.21.11.21.22.32.22.21h0c.11.33,0-.32.22.11,0-.21.11.11.11-.21v.1h.43c0-.21.22.11.22-.32.1.11.21.22.21,0h0c.11,0,.22-.11.22-.32.11.32.11.21.22.32,0-.11.21-.11.21-.32,0,.1.11-.11.11.1a.53.53,0,0,1,.87-.21h0v-.54h0a.39.39,0,0,0,.21.1v.11c0-.11.11.11.22,0h0v0c.43,0,.87-.54,1.3-.54v.11l.11-.11v.11c.11.11.21-.11.32-.11v.11c0-.22.22.22.11-.22v.11a.79.79,0,0,1,.65-.22c.11-.43.43-.1.54-.43V63c.22-.33.54-.11.76-.22s.22-.11.33-.11v.11c.1-.32.43.22.54-.21v.1c0-.21.11,0,0-.32l.11.11c0-.44.32.11.43-.22v.11a.11.11,0,0,1,.11-.11v.11c.21.22.32-.11.43-.11v.11c0-.22.22-.11.22-.22v.11A1.62,1.62,0,0,0,149.2,62Z"/><path class="cls-5" d="M141.41,72.66c.32.54,13.75-3.36,13.75-3.36"/><path class="cls-2" d="M154.94,68.87h0v-.22C154.83,68.43,154.94,69,154.94,68.87Z"/><path class="cls-2" d="M154.94,68.87V69C154.83,68.87,154.94,69,154.94,68.87Z"/><path class="cls-2" d="M152.24,70.17v.11c0-.22.21-.11.32-.22h0c.33,0,.54-.33.76-.43v.1c.11.22.11-.21.22,0v-.21a2.23,2.23,0,0,0,.64-.44v.11c.11-.32.33-.32.55-.32v-.22c-.11-.11-.11.22-.11.11v-.11c-.11,0,0,.22,0,.11v-.11c-.11.11-.22,0-.22.22-.11-.22-.11,0-.22-.11V69a3.45,3.45,0,0,0-1,.32c-.11.33-.32,0-.54.22h0c0,.11-.11.11-.22.11v.1c-.54-.21-.86.11-1.3.11s-1-.11-1.41.54v-.1c-.1.1-.32,0-.43.1h0c-.22.33-.65.11-.87.54a5.4,5.4,0,0,0-1.19.44v-.11c-.32.22-.65,0-1,.11-.33-.11-.54.54-1,.43-.32-.32-.43.43-.65.22-.54-.44-.86,0-1.19.43-.43-.11-.65.43-1.08.11-.11.22-.43-.22-.54-.11v.11c-.11-.22-.11.32-.22,0h0c0-.22-.11.43-.11.22v.1c0-.43-.1.11,0-.32v-.22h0v.11h0v-.22h0a.11.11,0,0,1,.11.11c0,.11,0,.11-.11.22s-.32.11-.43.32c0,0,.11,0,.11-.1-.11.1,0,.1-.11.1.11.11.11.11.11.22s0,.11.11.22h0c.11-.22.11-.11.11,0v.11c0,.21.1-.33.1,0a.66.66,0,0,1,.44-.11c0-.11.11,0,0-.22.11.22.21.33.21.22h0c.11.32,0-.33.22.11,0-.22.11.1.11-.22v.11h.43c0-.22.22.11.22-.33.11.11.21.22.21,0h0c.11,0,.22-.11.22-.32.11.32.11.21.22.32,0-.11.21-.11.21-.32,0,.11.11-.11.11.11a.53.53,0,0,1,.87-.22h0V72h0a.38.38,0,0,0,.22.11v.1c0-.1.1.11.21,0h0v0c.44,0,.87-.54,1.3-.54v.11l.11-.11v.11c.11.11.22-.11.33-.11v.11c0-.22.21.22.1-.22v.11a.82.82,0,0,1,.65-.21c.11-.44.44-.11.54-.44v.11c.22-.32.55-.11.76-.22s.22-.1.33-.1v.1c.11-.32.43.22.54-.21v.11c0-.22.11,0,0-.33l.11.11c0-.43.32.11.43-.22v.11a.11.11,0,0,1,.11-.11v.11c.22.22.32-.11.43-.11v.11c0-.21.22-.11.22-.21v.1C152.13,70.38,152.13,70.28,152.24,70.17Z"/><path class="cls-5" d="M145.2,81.11c.32.54,13.75-3.36,13.75-3.36"/><path class="cls-2" d="M158.73,77.31h0V77.1C158.63,76.88,158.73,77.42,158.73,77.31Z"/><path class="cls-2" d="M158.73,77.31v.11C158.63,77.31,158.73,77.42,158.73,77.31Z"/><path class="cls-2" d="M156,78.61v.11c0-.21.21-.11.32-.21h0c.33,0,.54-.33.76-.44v.11c.11.22.11-.22.22,0V78a2.15,2.15,0,0,0,.65-.43v.11c.1-.33.32-.33.54-.33V77.1c-.11-.11-.11.21-.11.11V77.1c-.11,0,0,.21,0,.11V77.1c-.11.11-.22,0-.22.21-.11-.21-.11,0-.21-.1v.21a3.44,3.44,0,0,0-1,.33c-.11.32-.32,0-.54.21h0c0,.11-.11.11-.22.11v.11c-.54-.22-.86.11-1.3.11s-1-.11-1.4.54v-.11c-.11.11-.33,0-.44.11h0c-.21.33-.65.11-.86.54a5.29,5.29,0,0,0-1.2.44V79.7c-.32.21-.65,0-1,.11-.33-.11-.54.54-1,.43-.32-.33-.43.43-.65.22-.54-.44-.86,0-1.19.43-.43-.11-.65.43-1.08.11-.11.21-.43-.22-.54-.11V81c-.11-.22-.11.32-.22,0h0c0-.22-.11.43-.11.21v.11c0-.43-.1.11,0-.32v-.22h0v.11h0v-.22h0a.11.11,0,0,1,.11.11c0,.11,0,.11-.11.22s-.32.11-.43.32a.11.11,0,0,0,.11-.11c-.11.11,0,.11-.11.11.11.11.11.11.11.22s0,.11.11.22h0c.11-.22.11-.11.11,0v.1c0,.22.1-.32.1,0a.71.71,0,0,1,.44-.1c0-.11.11,0,0-.22.11.22.21.32.21.22h0c.11.32,0-.33.22.1,0-.21.11.11.11-.21v.11h.43c0-.22.22.1.22-.33.11.11.22.22.22,0h0c.1,0,.21-.11.21-.32.11.32.11.21.22.32,0-.11.22-.11.22-.32,0,.1.1-.11.1.1a.53.53,0,0,1,.87-.21h0v-.54h0a.4.4,0,0,0,.22.1v.11c0-.11.1.11.21,0h0v0c.44,0,.87-.54,1.3-.54v.11l.11-.11v.11c.11.11.22-.11.33-.11v.11c0-.22.21.22.1-.22v.11a.8.8,0,0,1,.65-.22c.11-.43.44-.1.55-.43v.11c.21-.33.54-.11.75-.22s.22-.11.33-.11v.11c.11-.32.43.22.54-.21v.1c0-.21.11,0,0-.32l.11.11c0-.44.32.11.43-.22v.11a.11.11,0,0,1,.11-.11v.11c.22.22.32-.11.43-.11v.11c0-.22.22-.11.22-.22v.11C155.81,78.83,155.92,78.72,156,78.61Z"/><path class="cls-5" d="M83.57,68.11l-1.95,2a2.1,2.1,0,0,1-3,0L63.64,55a2.1,2.1,0,0,1,0-3l2-1.95a2.11,2.11,0,0,1,3,0L83.68,65.08A2.19,2.19,0,0,1,83.57,68.11Z"/><path class="cls-2" d="M84.33,67.89c-.11.11-.11,0,0,0v.44C84.55,68.43,84.11,68,84.33,67.89Z"/><path class="cls-2" d="M84.33,67.89a.14.14,0,0,0,0-.21C84.44,67.68,84.22,67.78,84.33,67.89Z"/><path class="cls-2" d="M76.64,58.25h0c.43.22.65.76,1.08,1.09h-.1a31.82,31.82,0,0,0,2.81,2.49h-.11c.11,0,.22,0,.22.11h-.11c0,.32.65.43.65.65.11,0,.11,0,.22-.11.76.65,1.51,1.41,2.38,2.06,0,.1,0,.1-.11.1a1.81,1.81,0,0,1,1,1.19,2.81,2.81,0,0,1-.22,1.63c.11.11.11-.11.22.11.21-.33,0-.65.11-1h.1c.11-.21-.21,0-.1-.32.1-.11.1,0,.1,0a2.08,2.08,0,0,0-.65-1.41.4.4,0,0,0-.1-.32c-.11-.11-.22-.22-.22-.33s-.22-.11-.33-.11c-1-1.08-2-1.95-3.14-3-.75-.22-1-1.08-1.62-1.63h0a2,2,0,0,1-.76-.64l-.32-.11c-1.09-1.52-2.6-2.71-3.9-4.23-1.52-1.62-2.6-3.14-4.44-4.33h.1l-.65-.65a3.2,3.2,0,0,0-.75-.54h0a3,3,0,0,0-2.39.32,10.64,10.64,0,0,0-1.51,1.63,3.67,3.67,0,0,0-.87,1,1.93,1.93,0,0,0-.43,1.3,1.89,1.89,0,0,0,.43,1.3l1,1h0c1.08.86,1.84,2.16,2.92,3,1,1.19,2.38,1.84,3.25,3,.43.87,1.73,1.19,2.17,2.06a9.94,9.94,0,0,0,3.79,3.57,12.93,12.93,0,0,0,1.73,1.74,6.07,6.07,0,0,1,.87.76,2.94,2.94,0,0,0,1,.54c.32-.11.76,0,1.08-.11a1.46,1.46,0,0,0,1.09-.65H82c.43,0,.21-.76.65-.54h0c.21,0-.11-.54.21-.44v-.1c.11-.11.11.1.22,0a.15.15,0,0,1,0-.22c.33.22.22-.43.54-.11-.11.11.22,0,.11.22.11,0,.33-.22.11-.33s-.11-.32-.43-.32l.1.11c-.1-.11-.1,0-.21-.11-.22.21-.33,0-.54.11h0c0,.21-.11.21-.22.32h-.11c-.11-.11,0,.43-.11.22a12.81,12.81,0,0,1-1.08,1.19c0,.11-.33.22-.11.32a.73.73,0,0,0-.65,0h0c-.22-.21-.22.33-.43-.1-.11.32-.33-.11-.54.1v-.1A1.52,1.52,0,0,1,79,69.3c-.21-.22-.32-.43-.43-.54-.43-.11-.54-.76-1-.76a1.86,1.86,0,0,0-.76-.87h0a2.44,2.44,0,0,0-1.09-.75.45.45,0,0,0-.1-.55c-.33-.1-.65-.54-1.09-.75.11-.11-.32-.22-.11-.33a8.76,8.76,0,0,1-2.81-2.81H70.9c-.22-.11-.22-.44-.43-.55h.11c-.22-.1-.22-.43-.55-.54h0l-.21-.11a.15.15,0,0,1,.21,0c-1.4-1.51-3.14-2.7-4.54-4.22h.1l-.32-.22h.11c-.33-.43-.76-.65-1.09-1.08a.11.11,0,0,0,.11-.11c-.43-.11-.21-.54-.65-.43l.11-.11a1.5,1.5,0,0,1-.32-2.27c0-.33.43-.76.75-1.09a4.17,4.17,0,0,0,.87-1.08h0a1.9,1.9,0,0,1,1.41-1,2.15,2.15,0,0,1,1.62.43c.33.32.65.54,1,.87v.1c.86.33,1.08,1.52,2,1.85H71c.22,0,.32.43.54.1v.22c.76.11.65.87,1.3,1.19h-.11a1.52,1.52,0,0,1,.44.33h-.11c.21.65,1,.86,1.4,1.3h-.1c.32.1.65.65,1,.86h-.11l.22.11-.11.11A5.83,5.83,0,0,0,76.64,58.25Z"/><path class="cls-1" d="M11.55,139.59s-3.9,13,7.15,16.35S43.93,152.69,53,144.35s25.78-13.75,36.39-14.73,57.51-24.69,42.45-71.69c0,0-7.68,33.68-24.8,47.76s-36.71,9.53-45.16,15.7S27,140.24,11.55,139.59Z"/><polygon class="cls-2" points="11.55 140.24 11.66 140.35 12.09 140.24 11.55 140.24"/><path class="cls-2" d="M14.37,140c-.11,0,0,0-.11-.11l-1.63.33C13.39,140.45,13.93,139.91,14.37,140Z"/><path class="cls-2" d="M14.91,140A4.23,4.23,0,0,0,16,139.8C15.67,139.91,14.69,139.91,14.91,140Z"/><path class="cls-2" d="M66.89,119.44c-.1,0-.1,0-.21.11C66.89,119.55,66.89,119.44,66.89,119.44Z"/><path class="cls-2" d="M81.19,116.3l.11-.11c-2.71.65-5.74.87-8.67,1.41l.22-.11a28.46,28.46,0,0,0-10.29,3.15,15.14,15.14,0,0,0-2.16,1.51,25.62,25.62,0,0,1-2.28,1.41c-1.51,1-3,1.84-4.66,2.71l.22-.22-1,.65c-.11,0,.1-.11.21-.22-1.41.55-4,2.17-4.87,2.49q-.64.33-.33.33c-5.09,2.49-10.72,4.87-16.24,6.93-.33.11-.33,0-.33-.11a53.09,53.09,0,0,1-14.94,3.58c-.22.1.54,0,0,.21,1.62,0,2.92-.65,4.44-.65l-.22.11c1.09-.11.22-.22,1.3-.32.44,0-.11.1.11.1a52.72,52.72,0,0,0,6.61-1.84c.54,0,2.38-.75,3.25-.86a5.16,5.16,0,0,0,1.3-.65q5.69-2,11.37-4.55c3.68-1.73,7.36-3.58,11-5.52,1.63-1.09,3.47-2.17,5.31-3.36,1-.65,1.84-1.19,2.82-1.73a25.89,25.89,0,0,1,3.14-1.2h0a33.75,33.75,0,0,1,5.2-1.3,6.25,6.25,0,0,0,1.4-.43,100.82,100.82,0,0,0,15.92-2.92A48.81,48.81,0,0,0,104,108a47.48,47.48,0,0,0,12.35-12.78,75.15,75.15,0,0,0,8-15.59s.11-.11,0,.22c1.3-3.25,2.6-6.18,3.58-9.21h0c.65-2.06,1.3-4.22,2-6.28l1-3.25.32-1.3.33-1.08h0v.11l.11.21.11.43.21,1a26.15,26.15,0,0,1,.76,2.82c.22,1,.43,1.84.65,2.7a21.2,21.2,0,0,1,.43,2.71,49,49,0,0,1-.21,14.84A50.7,50.7,0,0,1,128.84,98h0c-3.57,7.26-9.1,13-15.16,18.2a88.26,88.26,0,0,1-10.29,7.25,46,46,0,0,1-11.59,5.2l-2,.32a13,13,0,0,1-2,.22c-1.41.22-2.93.43-4.34.76-2.92.65-5.63,1.52-8,2.06a56,56,0,0,0-13.75,5.41,45.69,45.69,0,0,0-6.18,4c-2,1.52-3.68,3.36-5.52,5a59,59,0,0,1-11.7,7.15,42.24,42.24,0,0,1-6.5,2.27,27.79,27.79,0,0,1-6.71.76,17.24,17.24,0,0,1-6.5-.86,11.87,11.87,0,0,1-5.63-3.8v.22c-.11-.22-.22-.32-.33-.54s-.21-.33-.32-.54a6,6,0,0,1-.65-1.08,4.53,4.53,0,0,1-.65-2.06l.11.21c0-.86-.87-1.95-.65-2.49l-.11-.11c-.11-1.08.11-.1.11-1,0-.32-.22-.11-.11-.76.22-.11.22-.76.33-1.41s.1-1.3.43-1.3c-.11.55.32-.86.22.44.1-.33.43-2.06.21-1.95-.11-.22-.11-1-.54.11l.11.21c-.22.33-.11.22-.22.33-.32,1.41-.54,1.62-.76,2.6h0a15.55,15.55,0,0,1,0,2.27l-.1.22a1.24,1.24,0,0,0,.1.86c.11.33.22.55,0,.33a11.9,11.9,0,0,0,1.52,4.55c.22.32.43.76.65,1.08l.87,1c.32.32.65.54,1,.86l.54.44.54.32c.22.11.76.43,1.2.65s.75.33.54,0a3.92,3.92,0,0,0,.75.43,4.53,4.53,0,0,0,1.09.44,12.21,12.21,0,0,0,2.06.54h-.22a4.91,4.91,0,0,0,2,.32,5.59,5.59,0,0,1,1.84.11c.22-.22,3,0,4-.54.21,0,.32.11.21.11a44.91,44.91,0,0,0,8.56-2.17c2-1,4.87-2.06,6.28-3.25A30.4,30.4,0,0,0,48.7,148l-.11.1c1-.75,2.06-1.62,3-2.38s1.74-1.73,2.28-2.27a3,3,0,0,0,1.08-.65,8.16,8.16,0,0,0,1.19-.87,23.42,23.42,0,0,1,2.6-1.95c1.08-.65,2.28-1.41,3.36-2.06.43-.1,1.73-1,1.95-.86a60.39,60.39,0,0,1,21.23-6.83H85.2c.86-.21,2-.65,2.92-1,.11,0,.11,0-.11.11a24.88,24.88,0,0,0,3.9-.54l-.22.1a20,20,0,0,0,3.9-1.3h.11l.87-.43c0,.11,0,.22-.43.33a66.68,66.68,0,0,0,15.16-8.78A84.16,84.16,0,0,0,118,113a70,70,0,0,0,6-6.61l-.22.32c.44-.65.87-1.19,1.3-1.84a.34.34,0,0,1-.11.22,53.78,53.78,0,0,0,4.66-7.47s-.11.43.11.11c.76-2,1.73-2.93,1.73-4.12,0-.11.11-.11.11.11.22-.65.54-1.41.76-2.06l.65-2.17c.43-1.4.76-2.92,1.08-4.33s.54-2.92.76-4.44.32-2.92.32-4.44A61.83,61.83,0,0,0,133,61h.11c-.44-1.19-.87-2.92-1.3-4a76.78,76.78,0,0,1-2.28,8c-.86,2.6-1.73,5.2-2.71,7.69s-1.62,4.44-2.81,7h-.11c-1.62,4.55-4.55,8.88-6.93,13.32l.11-.33c-.22.76-1.74,2.49-1.3,2.39a2.42,2.42,0,0,0-.54.65,14.86,14.86,0,0,1-1.41,2l-.76,1a6.45,6.45,0,0,1-.87.86c-1.19,1.2-2.27,2.5-3.79,3.9l.11-.21a14.1,14.1,0,0,1-2.38,2.16c.11-.11,0-.11.22-.21A67.61,67.61,0,0,1,97,111l.33-.33c-.76.43-2,.87-3.14,1.41s-2.6.87-3.69,1.3l.11-.11a4.06,4.06,0,0,1-1.08.43l-.11-.1A23.88,23.88,0,0,1,81.19,116.3Z"/><path class="cls-2" d="M53,126.7Z"/><path class="cls-2" d="M10.36,143.38a.4.4,0,0,1,.11-.33C10.36,143.05,10.36,143.27,10.36,143.38Z"/><path class="cls-3" d="M11.55,139.59a56.63,56.63,0,0,1-9.2-35.42c1.62-20.79,11.15-9,16.89-8.12s22.09,1.52,29.89-23c0,0,40.72,6.28,44.95,4.12,0,0-.54,17.76,3.68,21a35.52,35.52,0,0,1-13.21,17.54s-24.48,4.55-34.88,12.56S18.16,140.45,11.55,139.59Z"/><polygon class="cls-2" points="11.44 140.24 11.55 140.35 11.98 140.24 11.44 140.24"/><path class="cls-2" d="M13.72,140.13h0a5.41,5.41,0,0,0-1.41.22C13,140.56,13.39,140,13.72,140.13Z"/><path class="cls-2" d="M14.15,140.13A1.42,1.42,0,0,0,15,140C14.8,140.13,14,140,14.15,140.13Z"/><path class="cls-2" d="M55.09,125.51a.11.11,0,0,0-.11.11Z"/><path class="cls-2" d="M65.49,120.74l.1-.1a27.65,27.65,0,0,1-3.14,1.19c-1.08.43-2.16.75-3.25,1.3l.11-.11a43.27,43.27,0,0,0-7.47,3.79,78.32,78.32,0,0,1-6.93,4.66.11.11,0,0,0,.11-.11,9,9,0,0,0-.76.54c-.11,0,0-.11.11-.11-.54.22-1.3.65-2.06,1a7.5,7.5,0,0,1-1.84.75c-.33.11-.44.33-.22.33a88.52,88.52,0,0,1-13.1,4.44c-.22,0-.22,0-.22-.11a42.87,42.87,0,0,1-11.8,1.95c-.11.11.43.11,0,.22,1.3,0,2.38-.44,3.46-.33h.11c.87-.11.11-.22,1.08-.22.33,0-.11.11.11.11a23.12,23.12,0,0,0,2.71-.43,11.93,11.93,0,0,0,2.6-.65c.43.11,1.84-.43,2.6-.43.43-.22.86-.22,1.08-.44a63.76,63.76,0,0,0,17.76-7c1.19-.86,2.6-1.95,4-2.81a21.7,21.7,0,0,1,2.16-1.3l2.28-1.3h0c.54-.33,1.08-.65,1.73-1a16.38,16.38,0,0,1,2.06-.86,3.93,3.93,0,0,1,1-.54,165.55,165.55,0,0,1,24.37-6.83l.33-.11c.11,0,.21-.1.32-.21l.33-.33.75-.54c.44-.32,1-.76,1.41-1.08.87-.76,1.74-1.63,2.6-2.38a40.35,40.35,0,0,0,4.33-5.31,24.44,24.44,0,0,0,3.14-6.07,7.13,7.13,0,0,0,.33-.86l.11-.43.11-.55.1-.32v-.22l-.1-.11-.44-.43A3.79,3.79,0,0,1,97,96.7a13.39,13.39,0,0,1-1.41-3s0-.11.11.11a37,37,0,0,1-1.19-7.58h0a32.17,32.17,0,0,1-.32-4.66V76.45a2.57,2.57,0,0,1-.87.21c-.11,0-.33.11-.43.11h-.33c-.43,0-.87.11-1.19.11H88.88c-1.63,0-3.25-.11-4.87-.11-7.37-.54-15.71-1.62-23.51-2.6v-.1c-2-.22-3.89-.55-5.84-.76l-5.85-1c-.44,1.09-.87,2.28-1.3,3.36a21.74,21.74,0,0,1-1.41,3.25,39.69,39.69,0,0,1-5.2,8.34c-.54.65-1.08,1.3-1.62,1.84l-1.84,1.73c-.65.44-1.3,1-2.06,1.41S34,93,33.21,93.45a42.44,42.44,0,0,1-6.28,2.06,18.63,18.63,0,0,1-6.39.22,8.41,8.41,0,0,1-2.82-.65,14.94,14.94,0,0,1-2.59-1.3,30,30,0,0,0-5.31-2.39,5.5,5.5,0,0,0-2.93,0,4.27,4.27,0,0,0-2.27,1.85,13.92,13.92,0,0,0-1.84,5.41A43.66,43.66,0,0,0,2,109.26a47,47,0,0,0,.43,5.31c.22,1.73.44,3.47.76,5.2,1,3.14,1.52,6.82,2.93,10.18v-.11c.21,1.3,1.51,2.49,1.51,3.47l-.11-.11c.11.76,1.2,1.19,1.09,1.73l.11.11c.43.76,0,.11.21.76.11.21.22,0,.44.43-.33.33,1.08,1.73.75,2-.21-.43.22.76-.43-.11.11.33,1,1.41,1,1.19.21,0,.65.33.32-.43l-.22-.11c0-.32-.1-.21,0-.32a13.34,13.34,0,0,1-.86-2h0a4.29,4.29,0,0,1-.87-1.52v-.22c0-.32-.87-1-.43-.75a46.9,46.9,0,0,1-3-6.72c-.22-.32-.65-1.84-.65-1.19,0-.65-.55-2.49-.65-3.14a.1.1,0,0,1,.1.11c0-1.41-.75-1.52-.65-2.82-.32-.11-.43-2.27-.86-2.92,0-.22.11-.22.11-.22a49.24,49.24,0,0,1-.65-6.71,23.25,23.25,0,0,1-.11-2.82,20.33,20.33,0,0,0,0-2.6c.11-1.19.43-3,.54-4.66v.22a40.6,40.6,0,0,1,1.08-5.2,3.9,3.9,0,0,0,.65-.76c.22-.21.33-.65.65-.86a2.72,2.72,0,0,1,1.63-1.41,4.66,4.66,0,0,1,2.7-.11c.22.22,1.41.44,1.41.65a38,38,0,0,1,3.79,1.63A13.55,13.55,0,0,0,19,95.94a28,28,0,0,0,9.1-.11H28a12.55,12.55,0,0,0,2.17-1.08c.11,0,.11,0-.11.11.54-.11,1-.33,1.52-.43A7.74,7.74,0,0,0,33,93.88l-.11.11c.43-.21.86-.43,1.4-.75a5,5,0,0,0,1.41-.87h.11l.54-.54c0,.11.11.21-.32.43a28,28,0,0,0,8-8.66L45.45,81a29,29,0,0,0,1.19-2.71c.22-.43.43-.87.65-1.41l.54-1.41L48.7,73l3.46.54h-.32l1.73.11h-.21c2.27.44,4.54.54,6.71.87,0,0-.32,0,0,.11,1.63,0,2.6.54,3.47.32.1,0,.1.11-.11.11,4.55.43,9.2,1.08,13.75,1.52,3.79,0,8,.75,12,.54v.11c.65,0,1.41-.11,2.06-.11a5.62,5.62,0,0,0,1.95-.44V82.4a54.8,54.8,0,0,0,.43,5.85,28.16,28.16,0,0,0,1.2,5.85l-.11.11a14.34,14.34,0,0,0,1.3,2.6,2.31,2.31,0,0,0,.43.54l.22.22.1.11v.1a5.78,5.78,0,0,1-.54,1.3c-.75,1.84-1.73,3.58-2.6,5.31v-.32c-.1.64-1.3,1.94-1,1.94-.11.22-.33.33-.43.55-1.2,2.38-3.14,3.68-5.31,6.06l.11-.22A12,12,0,0,1,85.2,114c.11-.11,0-.11.21-.22A9.27,9.27,0,0,0,83.79,115c-.65.11-1.41.33-2.06.44-1.41.32-2.81.75-4.22,1.08l.32-.22c-1.3.44-3.79,1-5.52,1.52l.11-.11-.87.33-.11-.11A21.32,21.32,0,0,1,65.49,120.74Z"/><path class="cls-2" d="M44.48,131.68Z"/><path class="cls-2" d="M10.47,136.66a.38.38,0,0,0,.11.22A.38.38,0,0,1,10.47,136.66Z"/><path class="cls-4" d="M2.56,114.79S31.26,106,38.3,134.93c0,0-17.87,8.88-26.75,4.66C11.55,139.59,2.89,122.58,2.56,114.79Z"/><polygon class="cls-2" points="1.8 114.79 1.8 114.79 1.91 115 1.8 114.79"/><path class="cls-2" d="M2.13,115.65h0l-.33-.54C1.7,115.33,2.24,115.44,2.13,115.65Z"/><path class="cls-2" d="M2.13,115.76c-.11.22.11.22.11.33C2.24,116,2.35,115.65,2.13,115.76Z"/><path class="cls-2" d="M9.49,135H9.6a14.83,14.83,0,0,1-1.08-2.27h.11c-.87-2-1.74-3.69-2.6-5.64h.11c-.11-.1-.22-.1-.22-.21H6c0-.44-.54-1.19-.54-1.52-.11-.11-.11-.11-.22,0-.65-1.52-1.19-3.25-1.84-4.76,0-.11,0-.11.11-.11a9.89,9.89,0,0,1-1.09-4.34c-.1,0-.1.22-.21,0,0,.55.32.87.32,1.3H2.45c0,.33.22,0,.22.33,0,.11-.11,0-.11,0a10.88,10.88,0,0,0,.65,2c-.11.22.22.65.11,1,.11.11.11.33.33.33a41.46,41.46,0,0,0,2.49,6.71c.75.87.86,2.28,1.51,3.47h0a15,15,0,0,1,.76,1.41l.33.32a29.63,29.63,0,0,0,1.84,4.33l1.08,2.17c.11.32.43.32.65.43l.54.22c.43.11.76.32,1.19.43a17.49,17.49,0,0,0,10.29-.43v.11c1-.33,2-.33,2.82-.65h0c2.16-.87,4.76-1.41,6.71-2.49,1.3-.44,2.6-1.09,4-1.63l1.08-.54a.11.11,0,0,0,.11-.11v-.11l-.11-.32-.76-.54c-.21-.76-.43-1.41-.65-2.06h.11a45.18,45.18,0,0,0-2.71-6.39c-1.08-2.17-3.14-3.9-4.76-5.63-.87-1.3-2.92-1.84-3.9-2.82a13.53,13.53,0,0,0-8-2.81c-2.6-.65-5.31-.33-7.8-.54-1.19.32-2.6-.11-3.9.21l.11.11c-.54-.22-1,.54-1.41.22h0c-.32-.11-.54.54-.65.32v.11c-.32.11-.11-.11-.32-.11s0,.22-.22.22c-.11-.33-.76.22-.87-.11.22,0-.32-.11,0-.32-.11,0-.65.1-.54.32s-.11.43.22.43v-.1c.11.1.11,0,.21.1.44-.1.55.11.76.11h0c.11-.21.44-.21.65-.21l.11.1c.11.11.43-.43.33-.1a16.67,16.67,0,0,1,2.7-.55c.11-.1.76-.1.44-.21.21.21,1,.21,1.19.21H9.17c.54.22.54-.32,1.08,0,.11-.32.87,0,1.09-.32l.1.11c.87,0,1.74.11,2.49.11.65-.22,1.41.21,2-.11a7.12,7.12,0,0,0,1.74.32h-.11a6.65,6.65,0,0,0,2.06.11c.1.33.43.33.65.54.43,0,1.3.33,2.05.44.11.1.54.1.54.32A10.53,10.53,0,0,1,28.34,119h0a2.93,2.93,0,0,0,1,.11s0,.11-.11,0c.33.22.44.54.76.87h-.11c.33.21.44.65.87.75v.11l.22.11a.15.15,0,0,1-.22,0,25.25,25.25,0,0,1,5.63,8.12l-.11-.11.33.55h-.11c.22.75.65,1.51.87,2.38,0,0-.11-.11-.11,0,.43.54,0,1,.54,1.19,0,0-.11.11-.11,0l.44,1.19c0,.11.1.22.1.33l-.32.1c-.76.33-1.52.65-2.38,1a26.9,26.9,0,0,1-4,1.84v-.11a30.49,30.49,0,0,1-5.63,1.73c-.76.11-1.3.44-2.17.55v-.11c-1.3.65-2.92.21-4.33.65l.11-.11c-.22.22-.87,0-.76.32l-.54.11c-1,.54-1.73-.21-3,0l.1-.11a2.24,2.24,0,0,1-.86-.1h.11c-.44-.22-1-.22-1.52-.44l-.76-.21-.43-.11c-.11,0-.22,0-.33-.22h.11a2.3,2.3,0,0,1-.43-.76,3,3,0,0,0-.54-1h.11l-.11-.33.11-.1A21.3,21.3,0,0,1,9.49,135Z"/><polygon class="cls-2" points="30.07 119.12 30.18 119.12 30.18 119.01 30.07 119.12"/><path class="cls-2" d="M30.61,118.58h0l-.32.43C30.61,119.12,30.4,118.58,30.61,118.58Z"/><path class="cls-2" d="M30.72,118.58c.22,0,.11-.22.22-.22C30.83,118.47,30.61,118.47,30.72,118.58Z"/><path class="cls-2" d="M43,107h0a16.72,16.72,0,0,1-1.19,1.62v-.1c-1.09,1.3-2.06,2.7-3.25,3.89v-.1c0,.1,0,.21-.11.21v-.11c-.43.11-.76.76-1,.87a.15.15,0,0,0,0,.22c-1,.86-2.17,1.84-3.25,2.7-.11,0-.11,0-.11-.1a8.43,8.43,0,0,1-3,2c0,.11.1,0,.1.11.44-.11.55-.54.87-.54v.11c.22-.11-.11-.22.22-.22.11,0,0,.11.11.11a6,6,0,0,0,1.3-1c.21.1.54-.33.75-.33s.22-.22.22-.32a25.65,25.65,0,0,0,4.55-3.79c.43-.87,1.51-1.41,2.16-2.28h0a3.4,3.4,0,0,1,.76-1.08l.11-.43A8.41,8.41,0,0,0,43.39,107c.33-.54.65-1.08,1-1.73A33.46,33.46,0,0,1,46,101.79a15.6,15.6,0,0,1,5.2-6v.11a4,4,0,0,1,1.08-.32c.33-.11.76-.11,1.09-.22h0c1.84-.54,3.89.11,5.74.33,2.16.54,4.65,1.4,6.82,2.16V98c1.84.65,3.36,1.73,5.09,2.38,1.73,1,3.79,1.41,5.52,2.28,1,.76,2.82.65,3.79,1.3a9.62,9.62,0,0,0,6.93.76A8,8,0,0,0,90.4,104c1-.44,1.84-1,2.81-1.41.65-.76,1.84-1.08,2.6-2H95.7c.44-.11.33-.87.76-.87h0c.33,0,0-.65.22-.65V99c.1-.22.1,0,.21-.11s-.11-.11,0-.22c.33.22.33-.54.65-.32-.11.1.33-.11.11.21.11,0,.33-.43.22-.43s-.22-.43-.44-.22l.11.11h-.21c-.22.22-.44.22-.65.33h0c0,.21-.22.32-.33.43h-.11c-.21,0,0,.54-.1.22a10.44,10.44,0,0,1-1.41,1.62c0,.11-.44.43-.11.43a1.12,1.12,0,0,0-.87.44v-.11c-.54,0-.21.54-.76.43.11.22-.54.33-.65.65-.1,0-.1-.11-.1-.11a7.61,7.61,0,0,1-1.74.76,1.29,1.29,0,0,1-.86.76c-.33.11-.54.11-.65.32a3.65,3.65,0,0,0-1.41.22h0a7.24,7.24,0,0,0-1.63.33c-.21-.33-.43-.22-.64-.33-.33.11-1.09,0-1.63.11-.11-.11-.43,0-.43-.22a8.41,8.41,0,0,1-5-1.51h0c-.22,0-.55.21-.87.21h0c-.33-.11-.54-.43-.76-.43h.11c-.33,0-.54-.43-.87-.43V102h-.21c0-.11.1-.11.21-.11-2.49-1.19-5.09-2.06-7.69-3.25h.11l-.54-.11h.11a6.24,6.24,0,0,0-2-.76s.11,0,.11-.1c-.54,0-.65-.55-1.09-.22a.11.11,0,0,1,.11-.11c-.65-.22-1.3-.43-2.06-.65l-1.94-.65c-1.2,0-2.39-.65-3.69-.54V95.4a24.76,24.76,0,0,0-4.87,0,11.49,11.49,0,0,0-1.73.54v-.11a7.46,7.46,0,0,1-1.52,1,3.76,3.76,0,0,0-1.3,1.3V98c0,.22-.54.54-.22.65l-.21.11a2.13,2.13,0,0,1-.54,1c-.22.33-.55.54-.65,1.09v-.11a3.89,3.89,0,0,1-.33.65v-.11a6.65,6.65,0,0,0-1.08,2.38l-.11-.11a6.13,6.13,0,0,1-.65,1.63v.21H44A5.38,5.38,0,0,0,43,107Z"/><path class="cls-1" d="M36.79,91.94s-4.34-9.1-2.71-14,5-6.39,14.94-5C49,73.09,43.83,88.58,36.79,91.94Z"/><path class="cls-2" d="M37.33,92.15h0l-.11.33C37.44,92.59,37.22,92.15,37.33,92.15Z"/><path class="cls-2" d="M37.44,92.15c.1,0,.1-.11.1-.21C37.54,92,37.33,92,37.44,92.15Z"/><path class="cls-2" d="M44.37,83.27h0c-.11.43-.54.76-.65,1.19h0c-.65,1-1.09,2-1.63,2.93v0c-.32.11-.32.65-.54.65,0,.1,0,.1.11.1-.54.76-1.19,1.52-1.73,2.28a.11.11,0,0,1-.11-.11,3.63,3.63,0,0,1-2,1.63c0,.1.11,0,.11.1.32,0,.32-.43.65-.43v.11c.21,0-.11-.22.11-.22s0,.11.1.11a1.49,1.49,0,0,0,.76-.87c.22.11.33-.21.54-.21,0-.11.11-.22,0-.33a16.21,16.21,0,0,0,2.49-3c.11-.65.87-1.08,1.09-1.73h0a2.67,2.67,0,0,1,.43-.76v-.33a30.23,30.23,0,0,0,2.6-4.44c.87-1.73,1.84-3.25,2.06-5.19v.1c.11-.21.21-.54.32-.75a2.58,2.58,0,0,0,.33-1h0l.11-.32c0-.11,0-.11-.11-.11h-.22l-.65-.11c-.54,0-.76-.11-1.08-.11a11.6,11.6,0,0,0-1.95-.11,17.73,17.73,0,0,0-4.77.11v-.11c-1.19.33-2.6.22-3.68,1.09a4.74,4.74,0,0,0-1.52,1.4c-.32.55-.65,1.2-1,1.74a1.69,1.69,0,0,0-.43,1.3,5.44,5.44,0,0,1-.22,1.3c-.76,1.51-.22,3.14.43,4.54.11,1.52,1,2.71,1.09,4.12.43.54.21,1.41.54,2.06l.11-.11c-.11.32.54.43.21.76h0c-.11.21.54.11.33.32h.11c.1.11-.11.11-.11.22s.21,0,.11.11c-.33.21.21.32-.11.54,0-.11-.11.22-.22,0a.23.23,0,0,0,.33.22c.21-.11.43,0,.43-.22h-.11c.11-.11,0-.11.11-.11-.11-.22.11-.32.11-.54h0c-.22,0-.22-.22-.22-.33l.11-.1c.11-.11-.43-.11-.11-.11l-.65-1.3c-.11,0-.11-.33-.32-.22.21-.22.1-.54,0-.76h0c.21-.32-.33-.21-.11-.54-.22,0-.11-.43-.44-.54l.11-.11c-.11-.43-.21-1-.32-1.3-.33-.21-.11-.76-.54-1a3.33,3.33,0,0,0-.11-1h0a2.62,2.62,0,0,0-.44-1c.33-.11.22-.33.33-.44-.22-.21-.22-.75-.33-1.08.11-.11-.1-.32.11-.32a3.5,3.5,0,0,1,.44-3.25h0l-.33-.65h0c0-.22.33-.33.33-.54v.1c0-.21.32-.32.32-.54h.11V76a.1.1,0,0,1,.11.1,6.9,6.9,0,0,1,1.51-2A5.79,5.79,0,0,1,39.17,73v.11c.11-.11.22-.11.32-.22V73c.44,0,.87-.21,1.3-.21,0,0-.11.1,0,.1.33-.21.54.22.65-.21v.11a7.5,7.5,0,0,1,2.71-.11c.76-.33,1.62.11,2.38-.11v.11a4.09,4.09,0,0,1,1.63.11l.65.1c.11,0-.11.22-.11.33l-.11.32a10.56,10.56,0,0,0-.32,1.09h-.11c0,.86-.87,1.41-.87,2.16l-.11-.11c.11.22-.21.44.11.55l-.11.1c.22.65-.54.76-.54,1.52v-.11c0,.22-.11.44-.22.44v-.11c-.54.32-.43,1.08-.75,1.51l-.11-.1c0,.32-.33.75-.43,1.08h0v.22L45,81.65C44.69,82.4,44.58,82.84,44.37,83.27Z"/><path class="cls-4" d="M131.87,57.82s-4.54-7.8-12.77-.32S101.44,73.52,94,77.21c0,0-.11,16.78,3.68,21,0,0-4.87,14-13.21,17.54C84.44,115.87,119.1,115.76,131.87,57.82Z"/><polygon class="cls-2" points="131.12 57.71 131.12 57.71 131.22 57.93 131.12 57.71"/><path class="cls-2" d="M131.12,59h0v-.86C130.79,58.47,131.22,58.9,131.12,59Z"/><path class="cls-2" d="M131,59.34a.83.83,0,0,0,0,.54C130.9,59.66,131.22,59.23,131,59.34Z"/><path class="cls-2" d="M118.88,91.72l.11.11c.54-1.3,1.51-2.49,2.16-3.79v.1a74.93,74.93,0,0,0,4.33-9.63v.1a.81.81,0,0,1,.11-.54v.11a10.94,10.94,0,0,0,1-2.49c0-.22,0-.32-.11-.22A72.94,72.94,0,0,0,129,67.24c.11-.11.11-.11.22-.11.32-2.38,1.19-4.87,1.73-7.25-.11-.11-.11.21-.22,0-.32.76-.1,1.51-.43,2.16l-.11-.1c-.21.54.22.1-.11.65-.1.21-.1-.11-.1,0-.22,1.08-.65,2.16-.76,3.24-.22.22-.33,1.2-.65,1.52,0,.33-.11.54,0,.76-1.3,3.68-2.39,7.58-4,11.26a10.64,10.64,0,0,1-1.19,2.82c-.54,1-1,2-1.52,2.92h0a16,16,0,0,1-1.19,2.39,6.52,6.52,0,0,0-.22.75A82.51,82.51,0,0,1,111,101a65,65,0,0,1-13.43,10.51s-.11,0,.11-.11a25.65,25.65,0,0,1-4.44,1.95h0a25.55,25.55,0,0,1-9,2.17l.11.43a8.21,8.21,0,0,0,2.27-1.52c3.9-2.71,6.83-7.36,8.89-11.8h.1c.44-.87.76-1.84,1.2-2.71l.54-1.3.1-.43V98l-.1-.22-.44-.65a23.51,23.51,0,0,1-1.73-5.52c-.65-4-1.52-8.23-1.41-12.35a5.8,5.8,0,0,0,0-2V77.1L94,77l.43-.22c.33-.21.65-.32,1-.54,1.19-.76,2.38-1.62,3.46-2.16,4.33-2.39,7.8-5.64,11.37-9.1,1.74-1.41,3.36-2.93,5.09-4.44a38.49,38.49,0,0,1,5.09-4.33l1.3-1a7,7,0,0,1,1.52-.65,11.26,11.26,0,0,1,3.36-.32l-.11-.11a5.34,5.34,0,0,0,1.3.21c.43.11.87.11,1,.44h-.1c.1.21.43.21.65.21a.83.83,0,0,1,.54.22h.11c.43.33,0,.11.32.43.11.11.11-.1.33.22-.22.33,1,.87.64,1.19-.21-.21.11.44-.32,0,.11.11.54.87.65.65.22,0,.54.22.43-.32h-.21v-.33c-.44-.54-.33-.76-.65-1.3h0c-.33-.11-.65-.54-.87-.76v-.1c0-.22-.87-.22-.54-.33a7.34,7.34,0,0,0-4.87-1c-.22.1-1.3.32-.87.43a4.37,4.37,0,0,0-1.08.11,4.25,4.25,0,0,0-1,.43.11.11,0,0,1,.11-.11c-1,.11-.76.76-1.73.87,0,.22-1.19.87-1.41,1.41-.11,0-.22,0-.22-.11-1.08,1-2.27,1.95-3.25,2.81-.65.87-2,1.63-2.38,2.5a9,9,0,0,0-2.27,2v-.11a28.07,28.07,0,0,0-2.5,2.38c-.43,0-.75.32-1.29.65a32.2,32.2,0,0,1-2.6,2.38c-.22,0-.76.65-.87.54a31.28,31.28,0,0,1-9.1,6.18h0l-.54.54c-.11.11-.32.21-.43.32a4.12,4.12,0,0,0,.11.54v-.1c0,.75-.11,1.3-.11,2l-.11-.11a11.6,11.6,0,0,0,.11,2h0l.11.43c-.11,0-.22,0-.22-.22a75.22,75.22,0,0,0,.87,8.56c.32,1.41.54,2.82,1,4.22a11.4,11.4,0,0,0,.76,2.06l.54,1a1.84,1.84,0,0,0,.32.43l.22.32h-.11c.22.11.11.22,0,.65v-.1c-.65,1.29-1.08,2.7-1.62,3.89,0,0,0-.21-.11-.1-.32,1-1,1.3-.87,1.95a.1.1,0,0,1-.1-.11,28.29,28.29,0,0,1-4.88,7,13.55,13.55,0,0,1-5.09,4.11l-.76.33.76-.11c.33,0,.54-.11.87-.11v.11a38.53,38.53,0,0,0,9.64-2.6c1.3-.54,2.06-1,3.35-1.63l.11.11c2-1.4,4.44-2.27,6.18-4l-.11.21c.21-.32,1.19-.86.86-1l.44-.22c1-1.41,2.49-1.84,3.68-3.46v.1a12.81,12.81,0,0,1,1.08-1.19l-.11.11a10.08,10.08,0,0,0,1.85-1.84c.54-.65,1.08-1.41,1.62-2.17V98c.43-.76,1.52-2,2.17-2.92v.1l.21-.54.11.11C117.47,94.21,118.12,92.91,118.88,91.72Z"/><path class="cls-2" d="M131.12,55.87a.1.1,0,0,0,.1.11C131.22,56.09,131.12,56,131.12,55.87Z"/><path class="cls-5" d="M55,88.25c.65,0,2.92-13.86,2.92-13.86"/><path class="cls-2" d="M57.47,74.39h0l-.22-.11C57,74.28,57.58,74.39,57.47,74.39Z"/><path class="cls-2" d="M57.36,74.39c-.11,0,.11,0,.11.11S57.58,74.5,57.36,74.39Z"/><path class="cls-2" d="M57.47,77.42h.11c-.22-.11,0-.21,0-.32h0a1.21,1.21,0,0,0-.11-.87h.11a.11.11,0,0,1-.11-.11h.11c.22,0-.11-.21.11-.21h-.11a1.83,1.83,0,0,0-.11-.76h.11c-.33-.22-.11-.43,0-.65h-.22c-.11,0,.22.11,0,.22h-.11c-.1,0,.22,0,.11.1h-.11c0,.11-.1.22.11.33-.21,0,0,.11-.21.11.1,0,0,.11.1.11-.1.32,0,.65-.1,1,.32.22-.11.32,0,.54h0c.1.11.1.22,0,.22l.1.11c-.32.32-.21.86-.43,1.3s-.54.86-.11,1.4h-.1c0,.11-.11.22-.11.44h0c.21.32-.11.65.11,1.08a4.4,4.4,0,0,0-.11,1.19h-.11c.11.33-.33.54-.33,1-.21.32.22.75,0,1.08-.32.11.33.54-.1.65-.65.32-.33.76-.11,1.19-.22.33.11.76-.33,1.08.22.22-.43.22-.43.44h.11c-.22,0,.32.21-.11.21h0c-.22,0,.43.22.22.22h.1c0,.11-.1,0-.1,0l.1.11c-.32-.22,0,.21-.32-.11L55,88.36l-.11-.11h0l.11.11h0l-.11-.11h0a.11.11,0,0,0,.11-.11.11.11,0,0,1,.11.11.94.94,0,0,0,.11.54v-.1c.11.1,0,.1.11.1s.21-.1.21,0h.22c-.11-.1,0-.1,0-.1h.11c.11,0-.22-.22,0-.11,0-.22,0-.33.11-.44-.11,0,0-.1-.22-.1.22,0,.32,0,.32-.11h0c.33,0-.21-.22.11-.11-.21-.11.11-.11-.21-.22h.1c0-.1.22-.21.22-.32-.22-.11.11-.22-.11-.33.11,0,.22-.1.11-.21h0c0-.11,0-.22-.22-.33h.33a.38.38,0,0,1-.11-.32c.11,0,0-.11.22-.11-.33-.33-.11-.65.21-.87h0c-.1-.11-.32-.11-.43-.21h0c0-.11.22-.11.11-.11h.11c-.11-.11.21-.11,0-.11h.11c.1-.43-.11-1,0-1.41h.1l-.1-.11h.1c.11-.11,0-.21,0-.32h.11c-.21-.11.22-.11-.11-.22h.11a.94.94,0,0,1,.11-.76c-.32-.21,0-.43-.22-.65h.11c-.21-.32.11-.54.11-.86V80H57c-.33-.21.32-.32,0-.65h.11c-.22-.11.1-.11-.22-.11H57c-.43-.21.21-.21,0-.43h.11c0-.11-.11-.11,0-.11h0c.32-.11,0-.32.1-.43h.11c-.11-.11,0-.22,0-.33h.11l-.11-.1h.11C57.58,77.64,57.47,77.53,57.47,77.42Z"/><path class="cls-5" d="M63.86,90c.65,0,2.93-13.87,2.93-13.87"/><polygon class="cls-2" points="66.03 75.91 66.03 75.91 66.14 76.02 66.03 75.91"/><path class="cls-2" d="M66.24,76.12h0L66,76C65.92,76,66.35,76.12,66.24,76.12Z"/><path class="cls-2" d="M66.24,76.12c-.1,0,.11,0,.11.11C66.24,76.12,66.46,76.12,66.24,76.12Z"/><path class="cls-2" d="M66.35,79.05h.11c-.22-.11,0-.22,0-.33h0a1.19,1.19,0,0,0-.11-.86h.11a.11.11,0,0,1-.11-.11h.11c.22,0-.11-.22.11-.22h-.11a1.83,1.83,0,0,0-.11-.76h.11c-.32-.21-.11-.43,0-.65h-.22c-.1,0,.22.11,0,.22h-.1c-.11,0,.21,0,.1.11h-.1c0,.11-.11.21.1.32-.21,0,0,.11-.21.11.11,0,0,.11.11.11-.11.32,0,.65-.11,1,.32.22-.11.33,0,.55h0c.11.1.11.21,0,.21l.11.11c-.33.33-.22.87-.44,1.3s-.54.87-.11,1.41h-.1c0,.11-.11.22-.11.43h0c.21.33-.11.65.11,1.08a4.44,4.44,0,0,0-.11,1.2h-.11c.11.32-.33.54-.33,1-.21.33.22.76,0,1.08-.32.11.33.55-.1.65-.65.33-.33.76-.11,1.19-.22.33.11.76-.33,1.09.22.21-.43.21-.43.43h.11c-.22,0,.32.22-.11.22h0c-.22,0,.43.21.22.21h.1c0,.11-.1,0-.1,0l.1.11c-.32-.21,0,.22-.32-.11l-.11-.1-.11-.11h0l.11.11h0l-.11-.11h0a.11.11,0,0,0,.11-.11.11.11,0,0,1,.11.11,1,1,0,0,0,.11.54v-.11c.11.11,0,.11.11.11s.21-.11.21,0h.22c-.11-.11,0-.11,0-.11h.11c.11,0-.22-.22,0-.11,0-.21,0-.32.11-.43-.11,0,0-.11-.22-.11.22,0,.32,0,.32-.11h0c.33,0-.21-.21.11-.11-.21-.1.11-.1-.21-.21h.1c0-.11.22-.22.22-.33-.22-.11.11-.21-.11-.32.11,0,.22-.11.11-.22h0c0-.11,0-.22-.22-.32h.33a.4.4,0,0,1-.11-.33c.11,0,0-.11.22-.11-.33-.32-.11-.65.21-.86h0c-.1-.11-.32-.11-.43-.22h0c0-.11.22-.11.11-.11h.11c-.11-.11.21-.11,0-.11h.11c.1-.43-.11-1,0-1.4h.1l-.1-.11h.1c.11-.11,0-.22,0-.33h.11c-.21-.11.22-.11-.11-.21h.11a.94.94,0,0,1,.11-.76c-.32-.22,0-.44-.22-.65h.11c-.21-.33.11-.54.11-.87v-.32h.11c-.33-.22.32-.33,0-.65H66c-.22-.11.11-.11-.22-.11h.11c-.43-.22.22-.22,0-.43H66c0-.11-.11-.11,0-.11h0c.32-.11,0-.33.11-.44h.1c-.1-.1,0-.21,0-.32h.11l-.11-.11h.11C66.46,79.26,66.35,79.16,66.35,79.05Z"/><path class="cls-5" d="M72.63,90.64c.65,0,2.93-13.87,2.93-13.87"/><polygon class="cls-2" points="74.8 76.56 74.69 76.56 74.8 76.67 74.8 76.56"/><path class="cls-2" d="M75,76.77h0l-.22-.11C74.58,76.66,75.12,76.77,75,76.77Z"/><path class="cls-2" d="M74.91,76.77c-.11,0,.11,0,.11.11C75,76.77,75.12,76.77,74.91,76.77Z"/><path class="cls-2" d="M75,79.7h.1c-.21-.11,0-.22,0-.33h0a1.24,1.24,0,0,0-.1-.86h.1a.1.1,0,0,1-.1-.11h.1c.22,0-.1-.22.11-.22h-.11a2,2,0,0,0-.1-.76h.1c-.32-.21-.1-.43,0-.65h-.21c-.11,0,.21.11,0,.22H74.8c-.11,0,.22,0,.11.11H74.8c0,.11-.11.21.11.32-.22,0,0,.11-.22.11.11,0,0,.11.11.11-.11.32,0,.65-.11,1,.33.22-.11.33,0,.55h0c.11.1.11.21,0,.21l.11.11c-.33.33-.22.87-.43,1.3s-.54.87-.11,1.41h-.11c0,.11-.11.21-.11.43h0c.22.33-.11.65.11,1.08A4.44,4.44,0,0,0,74,84.9h-.11c.11.32-.32.54-.32,1-.22.33.22.76,0,1.08-.33.11.32.55-.11.65-.65.33-.32.76-.11,1.19-.21.33.11.76-.32,1.09.21.21-.44.21-.44.43h.11c-.21,0,.33.22-.11.22h0c-.21,0,.44.21.22.21H73c0,.11-.11,0-.11,0l.11.11c-.33-.21,0,.22-.33-.11l-.1-.1-.11-.11h0l.11.11h0l-.11-.11h0a.11.11,0,0,0,.11-.11c.1,0,.1.11.1.11a1,1,0,0,0,.11.54V91c.11.11,0,.11.11.11s.22-.11.22,0h.21c-.1-.11,0-.11,0-.11h.11c.11,0-.21-.22,0-.11,0-.21,0-.32.11-.43-.11,0,0-.11-.22-.11.22,0,.33,0,.33-.11h0c.32,0-.22-.21.11-.11-.22-.1.11-.1-.22-.21h.11c0-.11.22-.22.22-.33-.22-.11.1-.21-.11-.32.11,0,.21-.11.11-.22h0c0-.11,0-.22-.22-.32h.32a.43.43,0,0,1-.1-.33c.1,0,0-.11.21-.11-.32-.32-.11-.65.22-.86h0c-.11-.11-.33-.11-.43-.22h0c0-.11.21-.11.1-.11H74c-.11-.11.22-.11,0-.11h.11c.11-.43-.11-1,0-1.4h.11l-.11-.11h.11c.11-.11,0-.22,0-.33h.11c-.22-.11.21-.11-.11-.21h.11a1,1,0,0,1,.1-.76c-.32-.22,0-.44-.21-.65h.11c-.22-.33.1-.54.1-.87V82.3h.11c-.32-.22.33-.33,0-.65h.11c-.22-.11.11-.11-.22-.11h.11c-.43-.22.22-.22,0-.43h.11c0-.11-.11-.11,0-.11h0c.33-.11,0-.33.11-.44h.11c-.11-.1,0-.21,0-.32H75l-.11-.11H75C75.12,80,75,79.81,75,79.7Z"/><path class="cls-5" d="M81.84,90.85c.65,0,2.92-13.86,2.92-13.86"/><polygon class="cls-2" points="84 76.77 84 76.77 84.11 76.88 84 76.77"/><path class="cls-2" d="M84.22,77h0L84,76.88C83.79,76.88,84.33,77,84.22,77Z"/><path class="cls-2" d="M84.22,77c-.11,0,.11,0,.11.11C84.22,77,84.33,77,84.22,77Z"/><path class="cls-2" d="M84.33,79.91h.11c-.22-.1,0-.21,0-.32h0a1.21,1.21,0,0,0-.11-.87h.11a.11.11,0,0,1-.11-.11h.11c.22,0-.11-.21.11-.21h-.11a1.83,1.83,0,0,0-.11-.76h.11c-.33-.22-.11-.43,0-.65h-.22c-.11,0,.22.11,0,.22h-.11c-.1,0,.22,0,.11.1h-.11c0,.11-.1.22.11.33-.21,0,0,.11-.21.11.1,0,0,.11.1.11-.1.32,0,.65-.1,1,.32.22-.11.33,0,.54h0c.1.11.1.22,0,.22l.1.11c-.32.32-.21.86-.43,1.3s-.54.86-.11,1.4h-.11c0,.11-.1.22-.1.44h0c.21.32-.11.65.1,1.08a4.83,4.83,0,0,0-.1,1.19h-.11c.11.33-.33.54-.33,1-.21.32.22.76,0,1.08-.32.11.33.54-.11.65-.65.32-.32.76-.1,1.19-.22.33.1.76-.33,1.08.22.22-.43.22-.43.44h.11c-.22,0,.32.21-.11.21h0c-.22,0,.43.22.21.22h.11c0,.11-.11,0-.11,0l.11.11c-.32-.22,0,.22-.32-.11l-.11-.11-.11-.11h0l.11.11h0l-.11-.11h0s.11,0,.11-.1a.1.1,0,0,1,.11.1,1,1,0,0,0,.11.55v-.11c.1.11,0,.11.1.11s.22-.11.22,0h.22c-.11-.11,0-.11,0-.11h.11c.1,0-.22-.22,0-.11,0-.22,0-.33.1-.43-.1,0,0-.11-.21-.11.21,0,.32,0,.32-.11h0c.33,0-.21-.22.11-.11-.22-.11.11-.11-.22-.22h.11c0-.1.22-.21.22-.32-.22-.11.11-.22-.11-.33.11,0,.22-.1.11-.21h0c0-.11,0-.22-.22-.33h.33a.38.38,0,0,1-.11-.32c.11,0,0-.11.22-.11-.33-.33-.11-.65.21-.87h0c-.11-.1-.32-.1-.43-.21h0c0-.11.22-.11.11-.11h.11c-.11-.11.21-.11,0-.11h.1c.11-.43-.1-1,0-1.41h.11l-.11-.11h.11c.11-.1,0-.21,0-.32h.11c-.22-.11.22-.11-.11-.22h.11a1,1,0,0,1,.11-.76c-.33-.21,0-.43-.22-.65h.11c-.22-.32.11-.54.11-.86v-.33h.11c-.33-.21.32-.32,0-.65H84c-.22-.1.1-.1-.22-.1h.11c-.44-.22.21-.22,0-.44H84c0-.11-.11-.11,0-.11h0c.32-.1,0-.32.1-.43h.11c-.11-.11,0-.22,0-.32h.11l-.11-.11h.11C84.44,80.13,84.33,80,84.33,79.91Z"/><path class="cls-5" d="M43.72,140.89l1,2.6a2.07,2.07,0,0,1-1.3,2.7l-19.93,7.15a2.07,2.07,0,0,1-2.7-1.3l-1-2.49a2.1,2.1,0,0,1,1.3-2.71L41,139.7A2,2,0,0,1,43.72,140.89Z"/><polygon class="cls-2" points="44.48 140.67 44.48 140.67 44.37 140.56 44.48 140.67"/><path class="cls-2" d="M43.93,140.24h0c.11.11.22.11.44.21C44.48,140.24,43.93,140.35,43.93,140.24Z"/><path class="cls-2" d="M43.93,140.13c0-.11-.21-.11-.21-.11S43.83,140.24,43.93,140.13Z"/><path class="cls-2" d="M31.91,143v.1c.44-.32,1-.32,1.41-.65h0c1.19-.43,2.27-1,3.47-1.51V141c0-.11.1-.11.1-.22v.11c.33.11.76-.44.87-.33s.11-.11,0-.21a23.5,23.5,0,0,0,2.82-1.3.1.1,0,0,1,.1.1,1.82,1.82,0,0,1,1.52-.32,2.41,2.41,0,0,1,1.41.87c.11,0,0-.11.11-.11-.22-.33-.65-.33-.87-.54H43c-.22-.11-.11.21-.33,0s.11-.11,0-.11a2.36,2.36,0,0,0-1.51,0c-.11-.11-.22,0-.33,0s-.21.11-.32,0c-.11.11-.22.11-.22.21-1.41.44-2.71,1.09-4,1.52-.54.54-1.4.43-2.16.87h0a2.29,2.29,0,0,1-.87.43l-.21.22a50.78,50.78,0,0,0-5.42,1.73,26.63,26.63,0,0,0-5.85,2.17V146l-.86.32a1.52,1.52,0,0,0-.87.54h0a3.07,3.07,0,0,0-.76,2.28,6.84,6.84,0,0,0,.87,2.06,5.35,5.35,0,0,0,.43,1.19,2.28,2.28,0,0,0,2.38,1.19c.44-.11.87-.33,1.3-.43v.1c1.3-.65,2.71-.75,4-1.3,1.41-.32,2.71-1.4,4.12-1.62,1,0,1.84-1.08,2.81-1.08A11.19,11.19,0,0,0,40,147.39a21.26,21.26,0,0,0,2.28-.87c.32-.11.76-.33,1.08-.43a1.72,1.72,0,0,0,.87-.65,8.63,8.63,0,0,1,.43-1.09,1.47,1.47,0,0,0-.11-1.19h.11c.11-.32-.54-.54-.21-.76h0c.1-.21-.55-.21-.33-.32H44c-.11-.22.11-.11.11-.22s-.22,0-.11-.11c.33-.1-.21-.43.22-.54,0,.11.11-.21.22,0a.34.34,0,0,0-.33-.32c-.22,0-.43,0-.43.21h.11c-.11.11,0,.11-.11.11.11.22-.11.33-.11.54h0c.22.11.22.22.22.33l-.11.11c-.11.11.43.11.11.21.21.44.43,1.09.65,1.52.1,0,0,.33.21.22a.75.75,0,0,0-.32.54h0c-.33.11.21.32-.22.43.22.22-.22.22-.11.54a.11.11,0,0,1-.11-.11.79.79,0,0,1-.54.22c-.21.11-.54.11-.76.22-.32.32-.86.21-1.08.65a1.43,1.43,0,0,0-1.08.32h0a1.83,1.83,0,0,0-1.08.65c-.22-.21-.33-.11-.55-.21a9.9,9.9,0,0,1-1.08.65c-.11-.11-.32.21-.43,0a7.68,7.68,0,0,1-3.79,1.3h0l-.33.65v-.11c-.21.11-.43,0-.65.11v-.11c-.21.11-.43,0-.65.21h0l-.11.11V150c-1.95.64-3.79,1.62-5.74,2.27v-.11l-.32.22v-.11c-.54.11-1,.43-1.41.54v-.11c-.32.33-.65,0-.65.44,0,0-.11-.11,0-.11a1.49,1.49,0,0,1-2.16-.65c-.33-.22-.44-.76-.65-1.09a6.49,6.49,0,0,0-.55-1.29h.11a1.84,1.84,0,0,1-.32-1.63,3.19,3.19,0,0,1,1.08-1.3,5.7,5.7,0,0,0,1.19-.54v.11c.65-.65,1.73-.33,2.49-1v.11c.11-.22.54-.11.33-.43h.21c.44-.65,1.09-.22,1.74-.65v.11c.21-.11.32-.22.54-.22v.11c.65.11,1.19-.43,1.84-.65v.11c.22-.22.87-.33,1.19-.54v.1l.22-.1v.1C30.94,143.49,31.37,143.16,31.91,143Z"/></svg>