<svg id="Layer_1" data-name="Layer 1" xmlns="http://www.w3.org/2000/svg" viewBox="0 0 200 170"><defs><style>.cls-1{fill:#cfcddd;}.cls-2{fill:#464b86;}.cls-3{fill:#c3c0d4;}.cls-4{fill:#dbd9e5;}.cls-5{fill:#9691b5;}.cls-6{fill:none;}</style></defs><title>Artboard 36</title><path class="cls-1" d="M35.64,58.66S27.38,22.94,26,18,23.61,8.43,30.8,8.43h94.8c5.78,0,13.33,1.3,14.27,9.91s4.83,47.75,4.83,47.75Z"/><polygon class="cls-2" points="35.52 59.49 35.64 59.49 36.11 59.37 35.52 59.49"/><path class="cls-2" d="M38.23,59.37c-.12,0-.12-.12,0,0l-1.65.12C37.17,59.72,37.76,59.13,38.23,59.37Z"/><path class="cls-2" d="M38.58,59.37c.59.12.83,0,1-.12C39.41,59.49,38.47,59.25,38.58,59.37Z"/><path class="cls-2" d="M105.09,63.26l.11-.12c-2.59,0-5.42-.35-8.13-.47h.23c-6.83-.47-13.2-.71-20-1.06h.23a3.14,3.14,0,0,1-1.06,0h.24c-1.42-.35-4.25-.12-5.19-.35-.35,0-.59.11-.35.11-5.31-.35-11.09-.7-16.51-.82-.24,0-.35-.12-.24-.24-4.71,0-9.55-.47-14.26-.82-.24.12.47.12,0,.23,1.53.24,2.83,0,4.24.24l-.23.12c1.06.12.23-.24,1.29,0,.36.12-.11.12.12.12a60,60,0,0,0,6.37.23c.47.24,2.36.12,3.06.35a4,4,0,0,0,1.3-.11c7.55.59,15.21.94,22.88,1.53,3.65-.12,7.9.59,12.14.82h0c1.42,0,3.42.12,5.07.24l1.42-.12c10,1.06,20.28,1.54,30.42,2.36,6,.47,11.55.94,17.09,1.3L144.82,62c-.12-1.29-.35-2.71-.47-4.12l-1.06-8.26s0-.11.12.24c-.36-3.18-.59-6.25-.95-9.2h0c-1.06-7.54-1.53-15.8-2.71-23a11.72,11.72,0,0,0-.94-3.3,9.91,9.91,0,0,0-2.12-2.83,12,12,0,0,0-3.07-1.89,19.32,19.32,0,0,0-3.54-.94,48.92,48.92,0,0,0-7.31-.36c-2.36,0-4.83,0-7.19.12V8.31c-7.55.12-14.86-.23-22.4-.11-7.79-.12-15.92.47-23.82.23-4.84-.35-11.2.47-15.8,0-4.72-.23-9.32-.35-13.91-.23-2.36,0-4.6.11-7,.11-1.18,0-2.36.12-3.42.12a5.78,5.78,0,0,0-3.18,1.18,3.34,3.34,0,0,0-1.3,2.71,9.93,9.93,0,0,0,.35,3.19c.24,1.06.59,2,.83,3.06s.59,2.12.82,3.07c1.06,4.13,2.13,8.25,2.83,12.38,1.18,3.77,1.54,8.13,2.71,12.5V46.4c.12,1.65,1.18,3.3,1,4.36v-.12c0,.83.94,1.77.82,2.36l.12.12c.24.94-.12.12,0,.94.12.24.24.12.24.71-.36.24.59,2.36.23,2.6-.11-.59,0,.94-.35-.36,0,.36.47,2,.59,1.77.23.12.59.71.47-.35l-.24-.12c.12-.36,0-.24.12-.47a23.7,23.7,0,0,1-.23-2.48h0a4.42,4.42,0,0,1-.48-2v-.24c.12-.35-.7-1.41-.35-1.06-.71-2.59-1.41-5.66-2.12-8.73-.24-.35-.47-2.24-.59-1.53a14.62,14.62,0,0,0-.59-3.89s.12,0,.12.24c0-1.66-.71-1.77-.71-3.42-.35-.12-.59-2.72-1.06-3.54,0-.24.12-.24.12-.24-.59-2.71-1.3-5.66-1.77-8-.36-1-.59-2.13-.95-3.31a9.9,9.9,0,0,0-1.06-3.06,15.28,15.28,0,0,1-.35-5.19v.12a3.1,3.1,0,0,1,2-2,14,14,0,0,1,2.83-.59,8,8,0,0,0,2.6.36c1.53-.12,4.48-.12,6.84-.24.35.12,1.88-.12,2,.12a211.68,211.68,0,0,1,21.23,0h-.12a24.15,24.15,0,0,0,2.83-.59h-.12c1.3,0,2.48.24,3.66.12l-.24.12c1.18-.12,2.48.23,3.77,0l.12.11.83-.11c0,.11,0,.23-.48.11,10.73.12,21.82-.35,32.78-.23l-.35.12,2.12-.12a.34.34,0,0,0-.23.12c2.71.11,5.54-.12,8.25,0,0,0-.47.11,0,.11,2-.23,3.18.24,4.13-.11.11,0,.11.11,0,.11,1.41,0,2.71,0,4.12-.11s2.72,0,4.13.11a15.23,15.23,0,0,1,7.55,2.48A8.62,8.62,0,0,1,139.16,17c.36,2.36.47,4.83,1,7.19H140c.94,6.13,1.29,12.62,2,19,.24,2.59.47,4.36.83,7.07l-.12.12c.82,4.48.59,9.43,1.53,14l-.12-.35a1.69,1.69,0,0,1,.12.82c0,.24.12.59.12.83-.35,0-.71,0-.47.11l-.83-.11c-3.18.23-5.77-.59-9.67-.59l.24-.12a24.36,24.36,0,0,1-3.07-.12h.36c-3.19-.59-6.84-.47-10.26-.71l.35-.11c-1.65.11-4.71-.36-6.84-.36l.12-.12h-1.06V63.5C110.51,63.5,107.92,63.5,105.09,63.26Z"/><path class="cls-2" d="M35.4,54.89v.35C35.52,55.24,35.4,55,35.4,54.89Z"/><path class="cls-3" d="M136.57,11.5c.35.35,30.3,12.73,32.9,13.79s4.83,1.77,5.07,5.66,0,23,0,23L144.82,66.09Z"/><polygon class="cls-2" points="135.74 11.62 135.74 11.73 135.86 11.85 135.74 11.62"/><path class="cls-2" d="M136.21,12.79h0l-.35-.7C135.74,12.44,136.33,12.56,136.21,12.79Z"/><path class="cls-2" d="M136.21,13a.6.6,0,0,0,.24.47C136.33,13.38,136.33,12.91,136.21,13Z"/><path class="cls-2" d="M141.52,44h.12c-.36-1.18-.36-2.59-.71-3.77v.12c-.47-3.19-1.06-6.14-1.65-9.32a.12.12,0,0,1,.12.12c-.12-.12-.12-.35-.24-.47a.12.12,0,0,1,.12.12c.12-.71-.47-2-.35-2.36s-.12-.24-.24-.12c-.47-2.48-.82-5.19-1.41-7.67a.11.11,0,0,1,.11-.11A42.51,42.51,0,0,1,136.21,14c-.11-.11-.11.24-.23,0,0,.71.47,1.3.35,2l-.12-.12c0,.47.24.12.24.59,0,.24-.12,0-.12.12a28.51,28.51,0,0,0,.59,2.95c-.12.23.12,1.06,0,1.53.12.23.12.47.24.59.47,3.54,1.18,7.07,1.65,10.73.59,1.65.47,3.65.94,5.66h0a11.05,11.05,0,0,1,.47,2.36l.24.59c.35,4.71,1.3,9.43,1.89,14.26.23,2,.47,3.89.7,5.78l.36,2.83c.23,1.18.35,2.36.59,3.54.47-.24,1.06-.47,1.53-.71l.94-.47c.59-.36,1.3-.59,1.89-.94l-.12.11c1.42-.7,2.71-1.06,4-1.65h0c3.18-1.65,7-2.83,10-4.36,2-.83,4-1.65,6.13-2.48,1.07-.47,2.13-.94,3.19-1.29.47-.24,1.06-.48,1.53-.71l.83-.35c.11,0,.11,0,.23-.12v-.71h.12c-.12-3.54.24-7,.12-10.61.12-3.66-.47-7.55-.24-11.2a4.62,4.62,0,0,0-.82-3.66,9.94,9.94,0,0,0-3-2.12,56.84,56.84,0,0,0-12.15-4.84c-3.65-1.76-7.66-2.83-11.08-4.71-1.77-.47-3.54-1.77-5.42-2.6v.12c-.59-.59-1.65-.23-1.89-.82H140c-.24-.36-1.06.11-1.18-.24l-.12.12c-.47-.12,0-.12-.35-.36-.12,0-.12.12-.36,0,.12-.35-1.06-.35-.94-.82.24.12-.35-.35.24-.24a1.6,1.6,0,0,1-.48-.23h-.35l-.12.12h0l.24-.24h0l-.24.24.24-.24h-.24c-.12,0-.12.12,0,.35l.24-.11c.12.23.12.11.12.23.59.24.59.47.94.83h0a2.2,2.2,0,0,1,.94.35v.12c.12.23.83,0,.47.12,1.18.47,2.6,1.06,3.9,1.53.23,0,1.06.47.82.12a4.29,4.29,0,0,0,1.53.94h-.11c.59.59.94.12,1.53.71.23-.24,1.18.59,1.65.47,0,.12.12.12,0,.24,1.18.47,2.48,1.17,3.54,1.65.94.11,2,.94,2.94.94a10.14,10.14,0,0,0,2.48,1.06h-.12a20.43,20.43,0,0,0,3,.94c.12.48.59.59.94.83.71.12,2,.71,3.07.94.12.24.82.24.82.47a24,24,0,0,1,4.6,1.66,8.94,8.94,0,0,1,2.13,1.17,3.1,3.1,0,0,1,1.17,1.65h0a6.71,6.71,0,0,1,.83.95h-.12a7.59,7.59,0,0,1,0,1.65l-.12-.12c.12.59-.23,1.18,0,1.77h-.11l.11.35c-.11,0-.23,0-.11-.23-.12,5.07.35,10.26.23,15.44l-.12-.23.12,1.06-.12-.12c-.11,1.3.12,2.6,0,3.89,0,0-.11-.12-.11,0s.11.24,0,.24h-.24c-.35.12-.59.12-.71.47,0,0-.11-.12,0-.12-2.35,1.06-4.83,2.12-7.19,3.07-1.89,1.18-4.24,1.77-6.13,3v-.12c-2.59,1.29-5.54,2.24-8.25,3.42-1.18.47-1.89.82-3.07,1.29l-.12-.11a7.06,7.06,0,0,1-1.65.82c-.23.12-.59.24-.82.36l-.71.23a5.23,5.23,0,0,0-.12-1.3c-.12-.47-.24-.94-.35-1.41l.11.12c-.23-.36-.11-1.3-.47-1.18v-.36c-.7-1.41-.23-2.71-.7-4.48l.11.12a7.6,7.6,0,0,1-.23-1.41l.12.11c.11-1.53-.48-3.18-.71-4.83l.23.12c-.23-.71-.35-2.24-.59-3.19H142l-.12-.47H142C142,46.52,141.64,45.22,141.52,44Z"/><path class="cls-2" d="M137.87,12.79l-.12-.11C137.75,12.79,137.87,12.79,137.87,12.79Z"/><path class="cls-4" d="M138.81,160.89l-98-4.72c-5-.23-5.89-1.41-5.89-6.36V62.91c0-5.07.82-5.78,5.89-5.43l98,3.54c4.95.24,5.89,2,5.89,7.08v87.37C144.7,160.54,143.88,161.13,138.81,160.89Z"/><path class="cls-2" d="M142.23,161.36h-.12a11.34,11.34,0,0,1-2,.47C140.93,162,141.64,161.36,142.23,161.36Z"/><path class="cls-2" d="M142.94,161.24a2,2,0,0,0,1.17-.82c0,.12-.35.47-.7.59S142.82,161.13,142.94,161.24Z"/><path class="cls-2" d="M144.59,77.65l-.12-.24c.23,3.18,0,6.84.12,10.26v-.24c0,8.73.11,16.75.23,25.35a.43.43,0,0,0-.12-.35c0,.47.12.83.12,1.3,0,.11-.12-.12-.12-.24-.23,1.77.12,5.31,0,6.49,0,.47.12.7.24.47,0,6.72.12,13.91.24,20.87,0,.35-.12.35-.12.35.12,3,.23,5.9.23,9v4.6a17.83,17.83,0,0,1-.11,2.36,9,9,0,0,1-.59,2.36c0,.35.47-.59.23.12a5.54,5.54,0,0,0,.59-2.95v-2.6l.12.24c0-1.3-.24-.24-.12-1.53.12-.47.12.11.12-.12,0-2.71,0-5.54-.12-8.14.24-.59,0-2.94.24-3.89-.12-.71,0-1.41-.24-1.65.12-9.43-.12-19.22-.12-28.89-.35-4.6.12-10,0-15.33h0c-.11-1.76-.11-4.36-.11-6.36l-.12-1.77c.12-6.37.23-12.74.23-19.1a18.71,18.71,0,0,0-.11-2.48,6.7,6.7,0,0,0-.71-2.48,3.46,3.46,0,0,0-2-1.65,9.65,9.65,0,0,0-2.47-.59c-3.3-.23-6.49-.23-9.67-.47C115.7,59.72,103,58.9,88.81,58.9c0,0-.11-.12.24-.12-4.13-.12-7.78-.35-11.67-.35h0c-9.55,0-19.93-.83-29.13-.83l-8.6-.35a7.4,7.4,0,0,0-2.24.23,3,3,0,0,0-1.77,1.42,11.62,11.62,0,0,0-.47,4.48c0,6,.11,12.26.11,18.16h-.11c.11,9.55-.24,18.74-.12,28.18-.12,9.78.47,20,.23,29.95a98.42,98.42,0,0,0,0,10,18.9,18.9,0,0,0,.24,2.59,4.69,4.69,0,0,0,.82,2.24,3.8,3.8,0,0,0,2,1.18,7.28,7.28,0,0,0,2.24.36c11.67,1.18,23.11,1.29,34.9,1.53,10.85.71,21.7.71,32.19,1.65,4.95,0,10.49.83,16,1.06l-.24-.12c2,.36,4.48-.11,5.66.36h-.24c1.07.23,2.48-.36,3.07-.12l.12-.12c1.29,0,.12.12,1.18.24.35,0,.11-.24.94-.12.12.47,3.07.12,3.18.59-.7,0,1.07.23-.47.23.47.12,2.6.12,2.36-.11.24-.24,1.06-.36-.24-.59l-.23.12c-.47-.24-.35-.12-.47-.24-1.65-.12-1.89-.35-3.07-.47h0a9,9,0,0,1-2.59-.12l-.24-.12c-.35-.23-1.89.24-1.41,0-3.42-.12-7.43-.23-11.2-.47-.59.12-3-.12-2.13.12a31.26,31.26,0,0,0-4.83-.59h.23c-2-.47-2.47.23-4.36-.36-.35.24-3.54-.23-4.6,0-.23-.11-.35-.11-.23-.23-3.42-.24-7.31-.47-10.26-.59-2.48.12-6.13-.35-8.26-.12-1.76-.12-4.71-.47-7.19-.47h.24c-2.83-.12-6.37-.24-8.26-.12a19.27,19.27,0,0,0-3.3-.59c-1.88.12-5.66-.12-8.6-.12-.48-.23-2.36,0-2.48-.23-4,0-8.61-.12-13.09-.35a27.77,27.77,0,0,1-3.3-.36,3.53,3.53,0,0,1-2.48-1.41,6.52,6.52,0,0,1-.47-3.07,30.33,30.33,0,0,1,.12-3.3v.12c-.12-1.06-.35-2.36-.59-3.54v.12c0-1.54.24-3.07.12-4.6l.12.23c-.12-1.53.23-3.06,0-4.83l.11-.12-.11-1.06c.11,0,.23.12.11.71.12-13.56-.35-27.47-.23-41.27l.12.47L36.11,91a.37.37,0,0,0,.12.24c.11-3.42-.12-7,0-10.38,0,0,.11.47.11,0-.23-2.48.24-4-.11-5.19,0-.12.11-.23.11,0-.11-3.42-.11-7-.11-10.37a38.67,38.67,0,0,1,.11-5.19A3.91,3.91,0,0,1,37.17,58a3.56,3.56,0,0,1,2.24-.58c1.41-.12,3-.12,4.36-.12s3.07.12,4.6.12c3.07.11,6.13.23,9.2.23v.12c7.78,0,15.92.59,24.05.82,3.3.12,5.54.12,9,.24l.12.12c5.66-.12,11.79.71,17.81.59l-.36.12c.95-.12,3.54.23,3.19-.12l1.06.12c4-.36,7.31.47,12.14.35l-.35.12a36,36,0,0,1,3.77.12h-.35c4,.47,8.6.23,13,.47l-.47.11a9.29,9.29,0,0,1,1.76.12,4.34,4.34,0,0,1,2,.83c1.3.94,1.53,2.71,1.65,4l-.12-.12a5.6,5.6,0,0,1,.12,1.41h-.12A41.71,41.71,0,0,0,144.59,77.65Z"/><path class="cls-5" d="M168.52,141.08,151.31,157c-3.07,2.83-6.61,4.72-6.61,2V66.21c0-5.07,1-5.19,5.9-7.43l16.51-6.84c5.07-2.12,7.19-3.06,7.19,2v74C174.42,133.54,174.06,135.07,168.52,141.08Z"/><polygon class="cls-2" points="168.99 141.55 169.11 141.55 169.23 141.2 168.99 141.55"/><path class="cls-2" d="M170.29,139.9h-.12l-.59,1.18C170.06,140.73,169.94,140,170.29,139.9Z"/><path class="cls-2" d="M170.53,139.67a.81.81,0,0,0,.35-.71C170.88,139.2,170.29,139.55,170.53,139.67Z"/><path class="cls-2" d="M174.3,89.08l-.12-.11c.24,2,0,4.24.12,6.36v-.12c0,5.31.12,10.26.24,15.57,0-.12,0-.12-.12-.24,0,.24.12.59.12.83s-.12-.12-.12-.12c-.24,1.06.12,3.3,0,4,0,.35.12.47.23.24,0,4.12.12,8.6.24,12.73,0,.24-.12.24-.12.24a13.31,13.31,0,0,1-.47,5.66,17.08,17.08,0,0,1-3.07,4.83c0,.12.36-.24.12.12.83-.83,1.18-1.89,2-2.71v.11c.47-.7-.12-.23.47-.94.23-.24.12.12.12,0a8.89,8.89,0,0,0,1.06-5.07c.23-.35,0-1.77.23-2.48-.11-.47,0-.82-.23-1.06.12-5.77-.12-11.79-.12-17.68-.35-2.83.12-6.14,0-9.44h0c-.12-1.06-.12-2.59-.12-3.89l-.12-1.06c.36-7.78.12-15.68.24-23.58,0-4.48.12-8.61.12-12.85V55.36a14.21,14.21,0,0,0-.24-3.18,3.15,3.15,0,0,0-.82-1.65,2.75,2.75,0,0,0-1.89-.59A9.94,9.94,0,0,0,168.88,51s-.12,0,.11-.12c-2.35,1.06-4.48,1.77-6.6,2.71h0c-2.71,1.3-5.54,2.36-8.25,3.54-1.42.59-2.83,1.18-4.13,1.77A18,18,0,0,0,146.12,61a4.12,4.12,0,0,0-1.42,2.24,10.8,10.8,0,0,0-.23,2.71v5.54c0,3.78.12,7.55.12,11.09h-.12c.12,5.78-.24,11.44-.12,17.33-.12,6,.47,12.26.24,18.4-.36,3.77.47,8.6,0,12.14a163.6,163.6,0,0,0,.11,21.46v7.43a1.06,1.06,0,0,0,.48.94,3.14,3.14,0,0,0,1.06,0c2.94-1.18,5.19-3.77,7.78-5.78,2-2.24,4.95-4.12,7.43-6.48h-.12c1.06-.59,1.77-2.12,2.59-2.36l-.11.12c.59-.24.7-1.42,1.18-1.42v-.11c.58-.59.11,0,.58-.36.12-.12-.11-.23.36-.47.35.24,1.3-1.41,1.65-1.06-.35.24.59-.35,0,.35.23-.11,1.18-1.06.94-1.18s.24-.7-.47-.35v.24c-.35.11-.23.11-.35.11-.83.71-1.06.59-1.65,1.07h0c-.24.47-.83.82-1.18,1.17h-.24c-.35,0-.59,1.07-.59.59-1.53,1.54-3.3,3.19-5.07,4.72-.12.35-1.3,1.18-.82,1.06a12.09,12.09,0,0,0-2.48,1.77.12.12,0,0,1,.12-.12c-1.18.59-.95,1.3-2,1.77.12.35-1.65,1.42-1.88,2.12h-.24a24.8,24.8,0,0,1-4.83,3.66,2.49,2.49,0,0,1-1,.47.81.81,0,0,1-.59,0,4.4,4.4,0,0,1-.11-.71c0-.47-.12-.82-.12-1.18a26,26,0,0,0,.12-4.36v.12a31.9,31.9,0,0,0-.24-5.07c.35-.47.24-1.3.35-2-.11-1.18-.11-3.53-.23-5.3.12-.24-.12-1.42.12-1.53a124.47,124.47,0,0,1,0-16.39v.11a11.93,11.93,0,0,0-.59-2.12v.12a22.32,22.32,0,0,0,.11-2.83l.12.12c-.12-1,.24-1.89,0-3l.12-.12-.12-.71c.12,0,.24,0,.12.36.12-8.26-.35-16.86-.24-25.35l.12.35-.12-1.65a.12.12,0,0,0,.12.12c.12-2.12-.12-4.25,0-6.37,0,0,.12.35.12,0-.24-1.53.24-2.48-.12-3.18,0-.12.12-.12.12,0-.12-4.25-.12-8.49-.12-12.74a10.23,10.23,0,0,1,0-2.71,3.44,3.44,0,0,1,1.06-2.36,15.83,15.83,0,0,1,2.36-1.41c.83-.36,1.65-.83,2.48-1.18V59c4.24-2,9.08-3.66,13.56-5.66,1.88-.71,3.18-1.42,5.07-2.13l.12.12a6.6,6.6,0,0,1,2.47-.71,1.73,1.73,0,0,1,1.18.36,1.9,1.9,0,0,1,.59,1.18,19.6,19.6,0,0,1,.12,2.71A19.6,19.6,0,0,0,174,57.6l-.12-.23c.23.58-.12,2.24.23,2L174,60c.47,2.48-.24,4.48.11,7.43l-.11-.24a8.43,8.43,0,0,1,0,2.36v-.24c-.36,2.48,0,5.31,0,7.9l-.12-.35c.23,1.3,0,3.66.12,5.31l-.12-.12.12.82h-.12A37.66,37.66,0,0,1,174.3,89.08Z"/><path class="cls-2" d="M165.93,142.5c.12-.12.12-.12.23-.12S166.05,142.38,165.93,142.5Z"/><path class="cls-5" d="M31.27,22.11s-1.53,1.06,0,2.95l105.3,2.12s-.71-.59,0-3.42Z"/><polygon class="cls-2" points="31.27 22.93 31.39 22.93 31.63 22.82 31.27 22.93"/><path class="cls-2" d="M33,22.7c-.12,0,0-.12,0,0L32,22.94C32.33,23.17,32.69,22.58,33,22.7Z"/><path class="cls-2" d="M33.28,22.7c.35.12.59-.12.71-.12C33.87,22.7,33.28,22.58,33.28,22.7Z"/><path class="cls-2" d="M77.61,22.82l.12-.12c-1.77.24-3.65-.12-5.42,0h.11c-4.59-.12-8.84,0-13.32,0,.12,0,.12,0,.12-.12-.24,0-.47.12-.71.12s.12-.12.12-.12c-.94-.23-2.83.12-3.42-.12-.24,0-.35.12-.24.24-3.53,0-7.42,0-11,.12-.12,0-.24-.12-.12-.12a64.77,64.77,0,0,1-9.55,0c-.12.12.35.12,0,.24,1.06.11,1.89-.24,2.83,0l-.12.11c.71.12.12-.23.83-.11.23.11-.12.11,0,.11a25.8,25.8,0,0,0,4.24-.11c.36.23,1.53,0,2.12.23.36-.12.71,0,.95-.12,5,.24,10.14.12,15.21.12,2.36-.35,5.3.12,8.13.12h0a16.25,16.25,0,0,1,3.42,0l1-.12c6.72.47,13.44.35,20.28.59,7.66.24,14.38.59,21.93.24l-.12.11c2.12,0,4.13.12,6.13.12h0c2.48-.12,5.19-.12,7.78,0h7.67c-.12.36-.12.71-.24,1.18a5.62,5.62,0,0,0,0,1.42.71.71,0,0,0,.12.47.12.12,0,0,0,.12.12h-.47c-2.36,0-4.72-.12-7.2-.12s-5,0-7.42-.12v-.12c-5.07,0-9.91-.47-14.86-.47-5.19-.24-10.61.24-15.8-.12-3.18-.47-7.43.24-10.5-.12a120.3,120.3,0,0,0-18.39-.23c-5.78-.36-11.44.12-17-.47-2.59.23-5.54-.47-8.49-.47l.12.11c-1.06-.35-2.36.36-2.95-.11h.12c-.59-.24-1.3.47-1.65.23l-.12.12c-.35,0-.47,0-.47-.12v-.12h-.12a.11.11,0,0,0-.12-.11c-.11-.12-.23.11-.35-.36.12-.12-.12-.47-.12-.94s0-.83.24-.71c-.12.24.35-.35.23.24a.85.85,0,0,1,.24-.47c.12-.24.24-.36.12-.36,0-.23.23-.71-.47-.35v.23c-.24.12-.24.12-.36.12a2.76,2.76,0,0,0-.47,1.06,1.29,1.29,0,0,0,0,.95h0a2.39,2.39,0,0,1,.47.7c.12.12.24.36.36.47a.68.68,0,0,0,.47.12l.23.12c.24.24,1.06-.35.83,0h5.89c.24-.12,1.54,0,1.07-.24a9,9,0,0,0,2.59.36h-.12c1.06.35,1.3-.24,2.36.12.12-.24,1.89.11,2.48-.24.11.12.11.12.11.24,1.89,0,3.89.23,5.43.23,1.29-.23,3.18.24,4.36-.12a18.85,18.85,0,0,0,3.77.12h-.11c1.53,0,3.3,0,4.36-.12.47.36,1.06.24,1.77.48.94-.12,3.06,0,4.48-.12.23.12,1.29,0,1.29.23a80.93,80.93,0,0,1,14,.36h-.12c.59-.12,1.3-.36,1.88-.47h-.11c.82,0,1.65.23,2.47.23l-.11.12c.82-.12,1.65.24,2.47,0v.12l.59-.12c0,.12,0,.24-.35.12,7.19.23,14.5,0,21.81.23l-.24.12,1.42-.12a.12.12,0,0,0-.12.12c1.77.12,3.66,0,5.43,0,0,0-.24.12,0,.12,1.29-.24,2.12.35,2.71-.12.12,0,.12.12,0,.12,3.65-.12,7.31,0,11,.12a3.54,3.54,0,0,0,1.06-.12c.12-.12.24-.12.24-.24l.12-.11V25.29a13.86,13.86,0,0,1,.35-1.65h-2.59a15.55,15.55,0,0,0-2.36.12v-.12c-4.13.24-8.49-.12-12.73-.12h-4.72v-.11c-3,.35-6.25-.47-9.43-.12l.23-.12c-.47.24-1.88-.12-1.65.24l-.59-.12c-2.12.47-3.89-.24-6.48,0l.11-.12a11.05,11.05,0,0,1-2,0H95c-2.13-.35-4.6,0-6.84-.12l.23-.11c-1.06.11-3.06,0-4.6,0l.12-.12-.71.12v-.12C81.27,22.7,79.38,22.82,77.61,22.82Z"/><path class="cls-2" d="M30.21,24.59c0-.12,0-.24-.12-.24A.42.42,0,0,1,30.21,24.59Z"/><path class="cls-4" d="M31.27,25.06,36,44.51S138.93,46.16,139.4,46.4s-2.83-19.22-2.83-19.22Z"/><polygon class="cls-2" points="31.27 25.88 31.39 25.88 31.63 25.77 31.27 25.88"/><path class="cls-2" d="M33.28,25.65c-.12,0,0-.12,0,0l-1.3.23C32.45,26.12,32.92,25.53,33.28,25.65Z"/><path class="cls-2" d="M33.63,25.65c.47.12.59-.12.71-.12C34.22,25.65,33.51,25.53,33.63,25.65Z"/><path class="cls-2" d="M84.1,26.12l.12-.12c-2,.24-4.13-.12-6.25,0h.11c-5.18-.12-10,0-15.21,0,.12,0,.12,0,.24-.12-.24,0-.59.12-.83.12s.12-.12.12-.12c-1.06-.23-3.18.12-3.89-.12-.35,0-.47.12-.23.12-4,0-8.38-.12-12.62,0-.24,0-.24-.12-.24-.12a83.44,83.44,0,0,1-10.84-.11c-.12.11.35.11,0,.23,1.17.12,2.12-.23,3.18,0l-.12.12c.83.12.12-.24.94-.12.36.12-.11.12.12.12a32.24,32.24,0,0,0,4.84-.12c.35.24,1.76,0,2.35.24.48-.12.83,0,1.07-.12,5.66.24,11.55.12,17.45.24,2.71-.36,6,.23,9.31.11h0a22.92,22.92,0,0,1,3.89,0l1.06-.11c7.67.47,15.45.35,23.11.7,8.85.24,16.51.71,25,.36l-.12.12c2.48,0,4.72.11,7.08.11h2.71v.24l.24.94c.23,1.42.47,2.95.7,4.37.48,2.94,1,5.89,1.54,8.6.11.83.23,1.65.35,2.6,0,.47.12.82.12,1.29v.59c0,.12-.12,0-.24.12h-.35c-5.07-.12-10.85-.23-16.16-.23v-.12c-5.77,0-11.31-.47-17-.47-5.9-.24-12.15.23-18-.12-3.66-.47-8.49.23-11.91-.12A158,158,0,0,0,54.62,45c-3.07-.11-6.25-.11-9.32-.11H40.71a14,14,0,0,1-2.24-.12c-.83,0-1.54-.12-2.36-.12-.12-.35-.12-.71-.24-.94-.94-2.83-1.18-6.25-2-9.44l-.12.12c0-1.18-1.06-2.47-.83-3.3v.12c0-.71-.82-1.3-.7-1.77l-.12-.12c-.24-.71.12-.12,0-.71-.12-.23-.24,0-.24-.47.36-.23-.59-1.77-.11-2,.11.35,0-.71.35.23,0-.23-.35-1.53-.47-1.41s-.59-.47-.47.35l.23.12c-.12.24,0,.24-.12.36a11.17,11.17,0,0,1,.12,1.88h0a4.2,4.2,0,0,1,.47,1.53v.12c-.11.24.59,1.06.24.83.59,2,1.18,4.36,1.65,6.6.24.24.35,1.77.47,1.18a12.4,12.4,0,0,0,.36,3,.12.12,0,0,1-.12-.12c0,1.3.7,1.41.47,2.59.23.12.23.48.59,1.89h1.3c.23,0,.47,0,.58-.12.12.12.24.12.12.24,2.13,0,4.37.23,6.25.23,1.53-.23,3.66.24,4.95-.11a26.23,26.23,0,0,0,4.37.11H53a31.64,31.64,0,0,0,5-.23c.47.35,1.18.23,2,.47,1.18-.12,3.42,0,5.18-.12.24.12,1.42,0,1.54.24a104.38,104.38,0,0,1,16,.35h-.12c.71-.12,1.42-.35,2.13-.47h-.12c.94,0,1.89.24,2.83.24l-.12.11c.94-.11,1.89.24,2.83,0v.12l.71-.12c0,.12,0,.24-.35.12,8.13.24,16.5,0,24.87.24l-.35.12,1.65-.12a.12.12,0,0,0-.12.12c2,.11,4.25,0,6.25.11,0,0-.35.12,0,.12,1.54-.12,2.36.35,3.19-.12.11,0,.11.12,0,.12,4.12,0,8.49,0,12.49.24H139c.24,0,.59,0,.71-.12a1,1,0,0,0,0-.83l-.12-.7-.11-.71c-.12-.83-.24-1.77-.36-2.6-.23-1.76-.59-3.53-.94-5.18h.12c-.47-2.24-.83-4.72-1.3-7.08L136.8,28l-.11-.48c-.12-.11-.36,0-.48,0h-.94c-1.18,0-2.47-.11-3.65-.11-2-.12-3.42,0-5.43,0V27.3c-3.42.35-7.19-.47-10.73-.12l.24-.12c-.59.24-2.12-.12-1.89.24l-.59-.12c-2.47.35-4.36-.35-7.31-.12l.24-.12a13.87,13.87,0,0,1-2.24,0h.23a57.44,57.44,0,0,0-7.78-.11l.35-.12c-1.29.12-3.53-.12-5.18,0l.11-.12-.82.12v-.12A27.26,27.26,0,0,0,84.1,26.12Z"/><path class="cls-4" d="M69.83,86.49a4,4,0,0,1,.71,2.36,3.42,3.42,0,0,1-.71,2.24,3,3,0,0,1-1.18.82,3.65,3.65,0,0,1,1.77,1.42A4.54,4.54,0,0,1,71,95.57a4,4,0,0,1-.71,2.36,3.37,3.37,0,0,1-1.06,1.18,3.93,3.93,0,0,1-1.77.7,12.51,12.51,0,0,1-2.12.12l-6.84-.35V84.25l7.31.35C67.83,84.72,69.12,85.31,69.83,86.49Zm-8.25.59V90.5l3.65.23a6.06,6.06,0,0,0,1.65-.23,1.52,1.52,0,0,0,.59-1.3,1.32,1.32,0,0,0-.82-1.41,3.87,3.87,0,0,0-1.77-.36Zm0,5.89V97.1l3.65.24a2.72,2.72,0,0,0,1.53-.24,1.81,1.81,0,0,0,.95-1.89,1.65,1.65,0,0,0-.95-1.65,2.7,2.7,0,0,0-1.53-.35Z"/><path class="cls-6" d="M69.83,86.49a4,4,0,0,1,.71,2.36,3.42,3.42,0,0,1-.71,2.24,3,3,0,0,1-1.18.82,3.65,3.65,0,0,1,1.77,1.42A4.54,4.54,0,0,1,71,95.57a4,4,0,0,1-.71,2.36,3.37,3.37,0,0,1-1.06,1.18,3.93,3.93,0,0,1-1.77.7,12.51,12.51,0,0,1-2.12.12l-6.84-.35V84.25l7.31.35C67.83,84.72,69.12,85.31,69.83,86.49Zm-8.25.59V90.5l3.65.23a6.06,6.06,0,0,0,1.65-.23,1.52,1.52,0,0,0,.59-1.3,1.32,1.32,0,0,0-.82-1.41,3.87,3.87,0,0,0-1.77-.36Zm0,5.89V97.1l3.65.24a2.72,2.72,0,0,0,1.53-.24,1.81,1.81,0,0,0,.95-1.89,1.65,1.65,0,0,0-.95-1.65,2.7,2.7,0,0,0-1.53-.35Z"/><path class="cls-2" d="M61.69,93.45h0l-.11.23C61.69,93.92,61.69,93.33,61.69,93.45Z"/><path class="cls-2" d="M61.69,93.45c0,.11,0-.12.12-.12S61.69,93.33,61.69,93.45Z"/><path class="cls-2" d="M65.59,93.09V93c-.12.24-.36,0-.48.12h0c-.35-.12-.82.12-1.17.24v-.12a.12.12,0,0,1-.12.12v-.12c-.12-.24-.24.12-.36,0v.24a2.7,2.7,0,0,0-.94.23v-.12c-.24.36-.59.24-.83.12v.24c.12.12.12-.24.24,0V94c0,.11,0-.24.12-.12V94a.42.42,0,0,0,.35-.12c0,.23.12,0,.12.23,0-.11.12,0,.12-.23a4.62,4.62,0,0,0,1.29,0c.24-.36.48.12.71,0h0A.44.44,0,0,1,65,93.8l.11-.12c.48.36,1.18.24,1.54.59.23.12.23.36.35.59a2.21,2.21,0,0,0,.47.59h-.12c.12.12-.11.35,0,.47h0a.52.52,0,0,1,0,.59,1,1,0,0,0-.23.59,4.69,4.69,0,0,1-1.53.47v-.12c-.48.12-.83-.23-1.3-.23-.47-.24-.94.35-1.42.12-.23-.36-.7.35-.94,0-.12-.12-.12-.24-.24-.36a.46.46,0,0,0-.11-.35c-.12-.12-.24-.35-.36-.47.24-.47-.35-1,.12-1.53-.23-.24.35-.48.24-.71h-.12c.23-.12-.35-.24,0-.24h0c.23,0-.47-.12-.24-.12h-.11c.47,0-.12-.11.35-.11h.23s0-.12-.23-.12h-.71c0,.12-.23.12-.35.12h0c.23,0,.12.11,0,.11h-.12c-.24,0,.35.12,0,.12a.71.71,0,0,1,.12.47c.12,0,0,.12.23.12-.23,0-.35.12-.35.24h0c-.35.12.35.12-.12.23.24,0-.12.12.24.24h-.12c0,.12-.12.35-.12.47.24.12-.12.24.24.35-.12.12-.24.24-.12.36h0c0,.12,0,.23.24.35-.36,0-.24.12-.36.24.12.12.12.47.24.59-.12.12.12.12-.12.35l.24.24a1,1,0,0,1,.82,0c.12,0,.24.11.35.11s.12.12.24.24h0a2,2,0,0,1,.24-.59h0c.11,0,.11.24.23.12v.12c.12-.12.12.23.24,0V98c.59.12,1.3-.23,1.88-.11V98l.12-.11V98c.12.12.36-.11.47,0v.12c.12-.23.24.24.24-.12v.12l1.06-.35c.12-.47.59-.35.59-.83h.12c0-.47.35-.7.35-1.18v-.47h.12c-.24-.12-.12-.23-.12-.47s0-.35-.23-.35h.11c-.23,0,0-.24-.35,0l.12-.12c-.47.12,0-.47-.47-.35h.12c-.12,0-.12,0-.12-.12h0c0-.36-.36-.24-.59-.24l.12-.12c-.12.12-.24-.11-.48,0v-.11l-.11.11v-.11C65.94,93,65.82,93.09,65.59,93.09Z"/><path class="cls-2" d="M61.69,87.55h0l-.11.24C61.69,88,61.69,87.43,61.69,87.55Z"/><path class="cls-2" d="M61.69,87.55c0,.12,0-.12.12-.12S61.69,87.43,61.69,87.55Z"/><path class="cls-2" d="M65.23,87.2v-.12c-.12.23-.23,0-.47.12h0c-.35-.12-.71.11-1.06.23v-.12a.12.12,0,0,1-.12.12v-.12c-.12-.23-.23.12-.23,0v.24a2.18,2.18,0,0,0-.83.24v-.12c-.24.35-.47.23-.71.12V88c.12.12.12-.23.24,0v.12c0,.12,0-.24.12-.12v.12a.43.43,0,0,0,.35-.12c0,.24.12,0,.12.24,0-.12.12,0,.12-.24a3.82,3.82,0,0,0,1.17,0c.24-.35.36.12.59,0h0a.37.37,0,0,1,.24-.12l.12-.11c.47.35,1.06.23,1.41.47a.12.12,0,0,1,.12.12l.12.11c.12.12.12.12.12.24s.23.24.47.47H67c.12.12,0,.24,0,.35h0c.12.24.12.36,0,.48s-.12.23-.24.47a4.37,4.37,0,0,1-1.29.47v-.12c-.36.12-.71-.23-1.18-.12-.36-.23-.83.36-1.3.12-.23-.35-.59.36-.82,0s-.24-.35-.48-.23a1.86,1.86,0,0,1-.35-.48c.24-.47-.35-.94.12-1.41-.24-.24.35-.47.23-.71h-.11c.23-.12-.36-.23,0-.23h0c.23,0-.47-.12-.24-.12h-.12c.47,0-.11-.12.36-.12h.23s0-.12-.23-.12h-.71c0,.12-.24.12-.35.12h0c.23,0,.11.12,0,.12H60.4c-.24,0,.35.12,0,0a.7.7,0,0,1,.12.47c.11,0,0,.12.23.12-.23,0-.35.12-.35.23h0c-.36.12.35.12-.12.24.24,0-.12.12.24.24H60.4c0,.11-.12.35-.12.47.24.11-.12.23.24.35-.12.12-.24.24-.12.35h0c0,.12,0,.48.23.48-.35.23-.23.23-.35.47.12.12.12.35.24.47h.11c-.11.12.24,0,0,.12.95-.36,1.42-.24,1.65.12h0a1.9,1.9,0,0,1,.24-.59h0c.12,0,.12.23.24.11v.12c.11-.12.11.24.23,0v.12c.59.12,1.18-.24,1.77-.12v.12l.12-.12v.12c.12.12.35-.12.47,0v.12c.12-.24.24.23.24-.12v.12a2.72,2.72,0,0,1,.94-.24c.12-.23.12-.35.35-.35s.24-.24.24-.36h.12c0-.47.23-.7.23-1.06,0-.12-.12-.23-.12-.35h.12c-.23-.12-.12-.24-.12-.35s0-.36-.23-.36l.12-.12c-.24.12,0-.23-.36.12v-.12c-.35.24-.11-.35-.47-.23v-.12c-.12,0-.12.12-.12,0h0c-.11-.35-.35-.12-.59-.12V87.9c-.11.12-.23,0-.35,0v-.11l-.12.11v-.11C65.59,87.08,65.35,87.2,65.23,87.2Z"/><polygon class="cls-2" points="70.54 86.02 70.54 85.9 70.42 85.9 70.54 86.02"/><path class="cls-2" d="M70,85.78h0a.42.42,0,0,0,.35.12C70.42,85.66,70,85.9,70,85.78Z"/><path class="cls-2" d="M70,85.66c0-.11-.12,0-.24,0C69.83,85.55,69.83,85.78,70,85.66Z"/><path class="cls-2" d="M59.1,84.37v.11c.24-.23.83,0,1.18,0h0a16.12,16.12,0,0,0,3.3-.11v.11a.43.43,0,0,1,.24-.11v.11c.23.24.7-.11.82.12.12,0,.12-.12.12-.23h2.83v.11a2.46,2.46,0,0,1,2.24,1.07c.12,0,0-.12.12-.12-.12-.24-.59-.12-.71-.47h.12c-.12-.12-.12.11-.24,0s.12-.12,0-.12c-.35-.12-.7-.47-1.18-.36,0-.23-.35-.11-.47-.35-.12,0-.23,0-.23.12A20.88,20.88,0,0,0,63.46,84c-.59.36-1.29-.11-2,0h0a1,1,0,0,1-.83,0l-.23.12a2,2,0,0,0-.83-.12c-.35,0-.82-.11-1.29-.11v3.65a16,16,0,0,0,.11,5.31h-.11c.11.47-.12,1.06,0,1.53h0c.35,1.18,0,2.59.23,3.77V99.7a7.74,7.74,0,0,1,1.65.11h1.65v.12c1.18-.12,2.36.35,3.66.35a7.05,7.05,0,0,0,3.77-.82c.47,0,.71-.47.94-.83a4.7,4.7,0,0,1,.59-1.06,3,3,0,0,0-.59-4.12,1.87,1.87,0,0,0-.7-.71,10,10,0,0,0-1.18-.59c.35-.24.82-.47,1.18-.71l.7-.71c0-.59.59-1.29.48-2h-.12c.23-.35-.47-.47-.12-.71h0c.12-.23-.59-.12-.35-.35H70c-.12-.12.12-.12.12-.24H70c.35-.23-.24-.35.12-.59,0,.12.11-.23.23-.12,0-.11-.23-.35-.35-.23s-.36.12-.47.35l.11-.12c-.11.12,0,.12-.11.12.11.24-.12.36-.12.47h0c.23,0,.12.12.12.24h-.12c-.12.12.35.12.12.12a2.16,2.16,0,0,1,.23,1.18c.12.12,0,.35.24.23a.65.65,0,0,0-.36.47h0c-.35.12.24.36-.23.36.23.12-.24.23,0,.47-.12,0-.12,0-.12-.12,0,.12-.12.12-.12.24l-.11.12-.24.23a4.93,4.93,0,0,1-1.42.59,1.19,1.19,0,0,1-.58.36,5.29,5.29,0,0,0,1.65.58c.11.12.35.24.59.48l.23.23a.42.42,0,0,0,.24.12h0a3,3,0,0,0,.7.59c-.23.24-.11.35-.23.47.23.12.23.59.47.83-.12.11.12.23-.12.23a1.74,1.74,0,0,1,0,1.54,1.87,1.87,0,0,1-1.06,1.06h0c0,.11.12.47.12.7h0c-.12.12-.35.12-.47.24v-.12c-.12.24-.36,0-.47.24h0l-.12.12c0-.12-.12-.24,0-.24a13.52,13.52,0,0,1-5.07.47l.12-.12-.36.12v-.12a5.12,5.12,0,0,0-1.3,0s.12-.11,0-.11c-.35.23-.47-.24-.7.11v-.11H59.81c-.47,0-.71,0-.83-.12v-.12c-.11,0-.11-.12-.11-.24V98a3.88,3.88,0,0,0-.12-1.17h.12a13.13,13.13,0,0,1,0-3.07c0-.47-.12-.71-.12-1.18h.12c-.36-.71.35-1.53-.12-2.24h.12c-.24-.12.11-.47-.24-.47l.12-.12c-.47-.47.23-.94-.12-1.53h.12a.35.35,0,0,1,0-.47h0c.35-.48,0-1.07,0-1.65l.12.11c-.24-.23,0-.7-.12-1.06h.12l-.12-.12h.12a1.7,1.7,0,0,0-.12-.7Z"/><path class="cls-4" d="M85.51,99.58a6.14,6.14,0,0,1-5,1.53,7.14,7.14,0,0,1-5-2,8.67,8.67,0,0,1-2.36-6.37c0-2.83.83-4.84,2.36-6.13a6.18,6.18,0,0,1,5-1.54,7.34,7.34,0,0,1,5,2,8.6,8.6,0,0,1,2.36,6.37C87.75,96.16,87.05,98.16,85.51,99.58Zm-2-2.48a6.33,6.33,0,0,0,1.06-3.89,6.47,6.47,0,0,0-1.06-4,3.7,3.7,0,0,0-3-1.53,3.61,3.61,0,0,0-3.07,1.18,6.4,6.4,0,0,0-1.17,3.89,5.86,5.86,0,0,0,1.17,4,3.76,3.76,0,0,0,3.07,1.53A2.89,2.89,0,0,0,83.51,97.1Z"/><path class="cls-6" d="M85.51,99.58a6.14,6.14,0,0,1-5,1.53,7.14,7.14,0,0,1-5-2,8.67,8.67,0,0,1-2.36-6.37c0-2.83.83-4.84,2.36-6.13a6.18,6.18,0,0,1,5-1.54,7.34,7.34,0,0,1,5,2,8.6,8.6,0,0,1,2.36,6.37C87.75,96.16,87.05,98.16,85.51,99.58Zm-2-2.48a6.33,6.33,0,0,0,1.06-3.89,6.47,6.47,0,0,0-1.06-4,3.7,3.7,0,0,0-3-1.53,3.61,3.61,0,0,0-3.07,1.18,6.4,6.4,0,0,0-1.17,3.89,5.86,5.86,0,0,0,1.17,4,3.76,3.76,0,0,0,3.07,1.53A2.89,2.89,0,0,0,83.51,97.1Z"/><polygon class="cls-2" points="82.92 96.63 82.8 96.63 82.92 96.75 82.92 96.63"/><path class="cls-2" d="M82.92,97h0l-.12-.23C82.68,96.63,83,97.1,82.92,97Z"/><path class="cls-2" d="M82.92,97c-.12,0,0,.12,0,.12S83,97.1,82.92,97Z"/><path class="cls-2" d="M77.61,97.22h0c.24.12.24.47.59.59h0a2.55,2.55,0,0,0,1.89.47v.12l.12-.12v.12c.11.23.35-.12.47.12v-.24a1.81,1.81,0,0,0,1.3-.47s0,.12.11.12c.24-.48.59-.48,1-.71,0-.12-.12,0-.12-.12s0,.35-.24.24v-.12c-.12,0,.12.23,0,.12a.12.12,0,0,1-.12-.12c-.11.12-.23.12-.35.35-.12-.12-.12.12-.23-.12,0,.12-.12.12,0,.24a4.88,4.88,0,0,1-1.89.12c-.35.35-.59-.24-.94-.36h0c-.12,0-.36,0-.36-.11h-.23A6.17,6.17,0,0,1,77.38,95,24.74,24.74,0,0,0,77,92h.12c0-.35.12-.59.12-.82h0c-.24-.71.35-1.3.35-2a3.66,3.66,0,0,1,2-1.53v.12c.7-.36,1.41.11,2,.11a3.45,3.45,0,0,0,1.06.24,1.66,1.66,0,0,1,.95.59c0,.24.23.35.47.59s.47.35.35.59a3.25,3.25,0,0,0,.71,2.47c-.12.83.35,1.66-.24,2.36.24.47-.47.71-.59,1.06h.12c-.35,0,.24.48-.23.36h0c-.24,0,.35.35.11.35l.12.12c0,.12-.12,0-.23,0l.11.12c-.35-.24-.11.23-.47,0a.23.23,0,0,1-.23-.24.17.17,0,0,0,0,.24c.11.12.23.35.47.35L84,97c.12.12.12,0,.12.12.12-.12.23,0,.47,0h0c-.12-.12,0-.23.12-.23h.12c.11.11-.24-.36,0-.12.11-.24.23-.59.35-1-.12-.11.12-.23-.12-.23.24,0,.35-.24.47-.24h0c.36-.12-.23-.23.24-.35-.24-.12.12-.24-.24-.47h.24c0-.24.23-.59.23-.83-.23-.23.12-.47-.23-.71a.52.52,0,0,0,.12-.59h0a.63.63,0,0,0-.36-.58c.36-.12.24-.24.36-.36-.12-.12-.12-.47-.36-.59.12-.12-.12-.12.12-.23a3.35,3.35,0,0,1-.82-2.13h0c-.12,0-.48.12-.59.12h0c-.12-.12,0-.35-.12-.35h.12c-.12,0,0-.36-.24-.24h-.12L84,87.9a2.46,2.46,0,0,0-1.53-.82A8.21,8.21,0,0,0,80.8,87v-.12l-.24.12v-.12c-.24-.12-.59.12-.83.12v-.12c-.11.24-.47-.12-.35.24V87L78,88c0,.59-.59.83-.48,1.42h-.11a9.7,9.7,0,0,1-.48,1.77c-.11.23,0,.47,0,.7h-.11c.35.47-.36,1,.11,1.3h-.11c.23,0,0,.24.23.24l-.11.11c.47.24-.12.59.23.83H77a.37.37,0,0,1,.12.24H77c-.23.35.24.58.36.94h-.12c.23.12.23.35.35.59h0l-.12.12C77.14,96.87,77.49,97,77.61,97.22Z"/><polygon class="cls-2" points="85.98 100.17 86.1 100.17 85.98 100.05 85.98 100.17"/><path class="cls-2" d="M86.1,99.7h0v.35C86.34,100.17,86,99.58,86.1,99.7Z"/><path class="cls-2" d="M86.22,99.7c.12,0,0-.12,0-.24C86.34,99.58,86.1,99.58,86.22,99.7Z"/><path class="cls-2" d="M87.16,89.79h-.11c.35.24.23.83.47,1.18h0a25.12,25.12,0,0,1,.47,3h-.12L88,94h-.12c-.23.23.12.7-.12.82a.12.12,0,0,0,.12.12,22.12,22.12,0,0,1-.35,2.59H87.4a2.62,2.62,0,0,1-1.06,2c0,.12.12,0,.12.12.23-.12.11-.48.35-.59v.11c.12-.11-.12-.11,0-.23s.12.12.12,0c.12-.36.47-.59.35-1.06.24,0,.12-.36.36-.36,0-.11,0-.23-.12-.23a12.5,12.5,0,0,0,.59-3.54c-.36-.59,0-1.18-.12-1.89h0a1.65,1.65,0,0,1-.24-.82l-.23-.24a6.68,6.68,0,0,0-2.12-4.24,5.28,5.28,0,0,0-4.84-1.89V84.6a5.54,5.54,0,0,0-1.41,0h0c-.59.24-1.18.24-1.77.47a2.69,2.69,0,0,0-1.54,1,6.35,6.35,0,0,0-2.47,3.53h-.12A11.44,11.44,0,0,0,72.66,93c-.12,1.18.59,2.36.71,3.54a1.7,1.7,0,0,0,.47,1.06c.24.36.59.59.59,1a3.12,3.12,0,0,0,1.3,1.65,6.41,6.41,0,0,0,2.12.59c1.18.59,2.47.11,3.77.47.59-.36,1.3.12,1.89-.24v-.12c.35.12.35-.59.59-.23h0c.23.12,0-.59.23-.36v-.11c.12-.12.12.11.24,0s-.12-.12,0-.12c.24.35.24-.35.59,0-.12.12.24,0,.12.23a.23.23,0,0,0,.12-.35c-.12-.12-.24-.35-.48-.35l.12.12c-.12-.12-.12,0-.12-.12-.11.12-.35,0-.47,0h0c0,.23-.12.23-.23.23H84.1c-.12-.11,0,.36-.12.12a3.13,3.13,0,0,1-1.06.59c0,.12-.35.12-.12.24-.12-.24-.47-.24-.59-.24h0c-.23-.35-.23.35-.47,0,0,.35-.35,0-.47.24v-.12c-.36,0-.83-.12-1.18-.12-.35.24-.71-.24-.94.12-.24-.12-.48-.36-.71-.24h0c-.36,0-.71-.12-1,0,0-.35-.11-.35-.11-.47-.24,0-.59-.23-.95-.23,0-.12-.23-.12-.11-.24a2.71,2.71,0,0,1-1.77-2.24h0c-.12,0-.47-.12-.71-.12h0c-.12-.12,0-.35-.12-.59h.12c-.12-.12,0-.35-.12-.47h0l-.12-.12h.24a10.36,10.36,0,0,1-.47-4.71l.12.11a.43.43,0,0,0-.12-.35h.12c.23-.35.11-.83.23-1.18,0,0,.12.12.12,0-.12-.35.35-.35,0-.59a.12.12,0,0,1,.12.12,2.92,2.92,0,0,1,1.18-1.89c.23-.82.94-.94,1.53-1.41v.12c.71-.59,1.77-.48,2.71-.59h1.06v.11c.71-.35,1.3.48,2.13.36l-.12.12c.12-.12.35.23.47-.12l.12.12c.59-.24.7.58,1.29.7h-.11c.11,0,.35.12.35.24h-.12c.12.59.71.71,1.06,1.06H85.4c.23.12.47.59.7.83H86l.12.11L86,89.2A.92.92,0,0,1,87.16,89.79Z"/><path class="cls-4" d="M101.9,100.52a6.14,6.14,0,0,1-5,1.53,7.06,7.06,0,0,1-5-2,8.65,8.65,0,0,1-2.36-6.37c0-2.83.83-4.83,2.36-6.13A6.14,6.14,0,0,1,97,86a7.34,7.34,0,0,1,5,2,8.61,8.61,0,0,1,2.36,6.37C104.14,97,103.44,99.11,101.9,100.52ZM99.9,98A6.33,6.33,0,0,0,101,94.15a6.49,6.49,0,0,0-1.06-4,3.7,3.7,0,0,0-3-1.53,3.64,3.64,0,0,0-3.07,1.18,6.4,6.4,0,0,0-1.17,3.89,5.84,5.84,0,0,0,1.17,4A3.76,3.76,0,0,0,97,99.22,3.1,3.1,0,0,0,99.9,98Z"/><path class="cls-6" d="M101.9,100.52a6.14,6.14,0,0,1-5,1.53,7.06,7.06,0,0,1-5-2,8.65,8.65,0,0,1-2.36-6.37c0-2.83.83-4.83,2.36-6.13A6.14,6.14,0,0,1,97,86a7.34,7.34,0,0,1,5,2,8.61,8.61,0,0,1,2.36,6.37C104.14,97,103.44,99.11,101.9,100.52ZM99.9,98A6.33,6.33,0,0,0,101,94.15a6.49,6.49,0,0,0-1.06-4,3.7,3.7,0,0,0-3-1.53,3.64,3.64,0,0,0-3.07,1.18,6.4,6.4,0,0,0-1.17,3.89,5.84,5.84,0,0,0,1.17,4A3.76,3.76,0,0,0,97,99.22,3.1,3.1,0,0,0,99.9,98Z"/><path class="cls-2" d="M99.43,97.93h0l-.12-.24C99.07,97.45,99.54,97.93,99.43,97.93Z"/><path class="cls-2" d="M99.31,97.93c-.12,0,0,.11,0,.11S99.43,98,99.31,97.93Z"/><path class="cls-2" d="M94.12,98h0c.24.12.24.48.59.59h0a2.51,2.51,0,0,0,1.89.48v.11l.11-.11v.11c.12.24.36-.11.48.12v-.23a1.74,1.74,0,0,0,1.29-.48.12.12,0,0,0,.12.12c.24-.47.59-.47.94-.71,0-.11-.11,0-.11-.11s0,.35-.24.23V98c-.12,0,.12.24,0,.12a.12.12,0,0,1-.12-.12c-.12.12-.23.12-.35.36-.12-.12-.12.12-.24-.12,0,.12-.11.12,0,.24a5,5,0,0,1-1.88.11c-.36.36-.59-.23-.95-.35h0c-.11,0-.35,0-.35-.12h-.24a6.32,6.32,0,0,1-1.18-2.36,24.54,24.54,0,0,0-.35-2.94h.12c0-.36.12-.59.12-.83h0c-.24-.71.35-1.3.35-2a3.73,3.73,0,0,1,2-1.54v.12c.71-.35,1.42.12,2,.12a3.38,3.38,0,0,0,1.06.24,1.57,1.57,0,0,1,.94.58c0,.24.24.36.48.59s.47.36.35.59a3.23,3.23,0,0,0,.71,2.48c-.12.83.35,1.65-.24,2.36.24.47-.47.71-.59,1.06H101c-.35,0,.23.47-.24.35h0c-.23,0,.36.36.12.36l.12.11c0,.12-.12,0-.24,0l.12.12c-.35-.23-.12.24-.47,0a.23.23,0,0,1-.24-.23.16.16,0,0,0,0,.23c.12.12.24.36.48.36l-.12-.12c.12.12.12,0,.12.12.11-.12.23,0,.47,0h0c-.12-.12,0-.24.11-.24h.12c.12.12-.23-.35,0-.12a7.82,7.82,0,0,0,.36-.94c-.12-.12.11-.24-.12-.24.23,0,.35-.23.47-.23h0c.35-.12-.24-.24.24-.36-.24-.11.11-.23-.24-.47h.24c0-.23.23-.59.23-.82-.23-.24.12-.47-.23-.71a.53.53,0,0,0,.11-.59h0a.64.64,0,0,0-.35-.59c.35-.12.24-.24.35-.35-.11-.12-.11-.47-.35-.59.12-.12-.12-.12.12-.24a3.41,3.41,0,0,1-.83-2.12h0c-.12,0-.47.12-.59.12h0c-.11-.12,0-.36-.11-.36h.11c-.11,0,0-.35-.23-.23h-.12l.12-.12A2.52,2.52,0,0,0,99,87.9a8.89,8.89,0,0,0-1.65-.11v-.12l-.23.12v-.12c-.24-.12-.59.12-.83.12v-.12c-.12.23-.47-.12-.35.23v-.11l-1.42,1.06c0,.59-.59.82-.47,1.41h-.12A9.66,9.66,0,0,1,93.41,92c-.12.24,0,.47,0,.71h-.12c.36.47-.35.94.12,1.3h-.12c.24,0,0,.23.24.23l-.12.12c.47.24-.12.59.24.82h-.12a.37.37,0,0,1,.12.24h-.12c-.24.35.24.59.35.94h-.11c.23.12.23.36.35.59h0L94,97.1C93.65,97.69,93.88,97.81,94.12,98Z"/><polygon class="cls-2" points="102.37 101.11 102.49 101.11 102.49 100.99 102.37 101.11"/><path class="cls-2" d="M102.61,100.52h0v.35C102.73,101,102.37,100.52,102.61,100.52Z"/><path class="cls-2" d="M102.61,100.52c.12,0,0-.12,0-.24C102.73,100.4,102.49,100.4,102.61,100.52Z"/><path class="cls-2" d="M103.55,90.62h-.11c.35.23.23.82.47,1.18h0a27.22,27.22,0,0,1,.47,2.94h-.12l.12.12h-.12c-.24.24.12.71-.12.83,0,.11.12.11.12.11a24.65,24.65,0,0,1-.35,2.6h-.12a2.62,2.62,0,0,1-1.06,2c0,.12.12,0,.12.12.23-.12.11-.47.35-.59v.12c.12-.12-.12-.12,0-.24s.12.12.12,0c.12-.35.47-.59.35-1.06.24,0,.12-.35.35-.35,0-.12,0-.24-.11-.24a12.49,12.49,0,0,0,.59-3.53c-.36-.59,0-1.18-.12-1.89h0a1.69,1.69,0,0,1-.24-.83l-.23-.23a6.67,6.67,0,0,0-2.13-4.25A5.25,5.25,0,0,0,97,85.55v-.12a5.55,5.55,0,0,0-1.41,0h0c-.59.23-1.18.23-1.77.47a2.67,2.67,0,0,0-1.54.94,6.4,6.4,0,0,0-1.53,1.54,6.12,6.12,0,0,0-.94,2h-.12a11.38,11.38,0,0,0-.59,3.42c-.12,1.18.59,2.36.71,3.54a1.75,1.75,0,0,0,.47,1.06c.24.35.59.59.59.94a3,3,0,0,0,1.3,1.65,6.18,6.18,0,0,0,2.12.59c1.18.59,2.47.12,3.77.47.59-.35,1.3.12,1.89-.23v-.12c.35.12.35-.59.59-.24h0c.23.12,0-.59.23-.35V101c.12-.12.12.12.24,0s-.12-.12,0-.12c.24.36.24-.35.59,0-.12.12.23,0,.12.24a.22.22,0,0,0,.11-.35c-.11-.12-.23-.36-.47-.36l.12.12c-.12-.12-.12,0-.12-.12-.11.12-.35,0-.47,0h0c0,.24-.12.24-.23.24h-.12c-.12-.12,0,.35-.12.12a3.3,3.3,0,0,1-1.06.59c0,.11-.36.11-.12.23-.12-.23-.47-.23-.59-.23h0c-.23-.36-.23.35-.47,0,0,.35-.35,0-.47.23v-.12c-.36,0-.83-.11-1.18-.11-.36.23-.71-.24-.94.11-.24-.11-.48-.35-.71-.23h0c-.36,0-.71-.12-1,0,0-.36-.11-.36-.11-.47-.24,0-.59-.24-1-.24,0-.12-.23-.12-.11-.24A2.66,2.66,0,0,1,90.94,98h0c-.12,0-.47-.11-.71-.11h0c-.12-.12,0-.36-.12-.59h.12c-.12-.12,0-.36-.12-.47h0L90,96.75h.24A10.41,10.41,0,0,1,89.76,92l.12.12a.41.41,0,0,0-.12-.35h.12c.23-.36.11-.83.23-1.18,0,0,.12.11.12,0-.12-.36.35-.36,0-.59,0,0,.12,0,.12.11a2.92,2.92,0,0,1,1.18-1.88c.23-.83.94-1,1.53-1.42V87c.71-.59,1.77-.47,2.71-.59h1.06v.12c.71-.35,1.3.47,2.12.35l-.11.12c.11-.12.35.24.47-.12l.12.12c.59-.24.7.59,1.29.71h-.11c.11,0,.35.12.35.23h-.12c.12.59.71.71,1.06,1.07h-.12c.24.11.48.58.71.82h-.12l.12.12-.12.12A.94.94,0,0,1,103.55,90.62Z"/><path class="cls-4" d="M106.62,86.84l3.06.12v6.25l5.9-6,4.13.23-6.25,5.9,6.6,9.31-4.13-.23-4.71-7L109.68,97v5.07l-3.06-.11Z"/><path class="cls-6" d="M106.62,86.84l3.06.12v6.25l5.9-6,4.13.23-6.25,5.9,6.6,9.31-4.13-.23-4.71-7L109.68,97v5.07l-3.06-.11Z"/><polygon class="cls-2" points="105.91 86.84 105.79 86.84 105.91 86.96 105.91 86.84"/><path class="cls-2" d="M106.15,87.43h0l-.24-.35C105.68,87.2,106.27,87.31,106.15,87.43Z"/><path class="cls-2" d="M106.15,87.55c-.12.12.12.24.12.24S106.27,87.55,106.15,87.55Z"/><path class="cls-2" d="M108.51,102.05v-.11a1.4,1.4,0,0,1-1,0c-.35,0-.47-.12-.82-.12v-.12h0v-1.06a3.92,3.92,0,0,0-.12-1.18c-.12-.83-.12-1.65-.24-2.48l.12.12c0-.12-.12-.12-.12-.23h.12c.24-.36-.12-1.07,0-1.3s-.12-.12-.23-.12c0-1.3-.12-2.71-.24-4,0-.12.12-.12.12,0A8.81,8.81,0,0,1,106,87.9c-.12,0-.12.12-.24,0-.11.36.24.71,0,1.07h-.11c0,.23.23,0,.11.35-.11.12-.11,0-.11,0a7.17,7.17,0,0,0,.11,1.53c-.23.12,0,.59-.23.71.12.12,0,.24.23.35-.11,1.89.12,3.78.12,5.66.36.83-.12,1.89,0,3h0a4.39,4.39,0,0,1,.12,1.42c0,.11.12.23.12.35a29.26,29.26,0,0,0,3.77.35v-5.3a4.72,4.72,0,0,1,.71-.59c.12-.12.23-.12.23-.24l.12.24v.12l.12.23.71,1.06a13.38,13.38,0,0,0,1.65,2h-.12c.47.59.83,1.29,1.3,1.88h0l.35.36.35.47h1.18l1.06.12a5.16,5.16,0,0,1,1.3.11h1.18c-.24-.23-.35-.47-.59-.7-.71-1.06-1.41-2-2.12-3l-2.12-2.83h.11a6.13,6.13,0,0,1-1.06-1.53l-.94-1.54.47-.47.59-.59c1.53-1.18,2.48-3,4.13-4.12a4.24,4.24,0,0,0,1.06-.83c-.59,0-1.3.12-1.65.12a3.92,3.92,0,0,1-1.18-.12c-.24-.12-.47-.12-.71-.24s-.47-.11-.82-.11a7.68,7.68,0,0,1-1.06.94c-.36.35-.59.71-1,1.06-.59.71-1.06,1.42-1.65,2.12a25.2,25.2,0,0,0-2.36,2.48V91c0-.24.12-.59.12-.83a6.5,6.5,0,0,1,0-1.53c0-.23.12-.47.12-.82s.12-.71,0-1h-.12V87a.74.74,0,0,0-.71,0c-.23.12-.35.12-.47-.12h0c-.23-.23-.47.47-.59.24v.12c-.23,0,0-.12-.23-.12s0,.23-.24.12c0-.48-.59.11-.59-.48.12,0-.24-.23.12-.23-.12,0-.47,0-.47.12s-.24.35,0,.59l.11-.12c.12.12.12.12.12.23.36,0,.36.24.59.36h0c.12-.24.36,0,.47,0v.12c.12.23.36-.36.24,0h.94V88c.12,0,0,.59.24.36a1.51,1.51,0,0,0-.35.94h0c-.36.35.35.47-.12.82.23,0-.12.71.23,1-.11,0-.11.12-.11,0a6.58,6.58,0,0,1-.12,1.53,10.65,10.65,0,0,1-.12,2c.12.11.12.35.12.7a7.74,7.74,0,0,0,1.53-1.77,5.79,5.79,0,0,0,1.53-1.41v.12a4.61,4.61,0,0,0,1-1.3c.35.12.47-.12.7-.24.12-.35.71-.82,1-1.41.11,0,.23-.35.47-.24a2.78,2.78,0,0,1,.35-.59l.24-.35.12-.12h.7a2.59,2.59,0,0,1,.95.12c.35,0,.35.12.47.12a.12.12,0,0,1-.12.12h0a2.78,2.78,0,0,1,.83-.36h.23a3.87,3.87,0,0,1-.59.36h-.12l-.11.11c-.12,0-.12,0-.12.12h0l-.12.24a.17.17,0,0,1,0-.24c-.82.71-1.53,1.53-2.24,2.24L113.93,92l-.59.59-.83.83.59.94.48.59h-.12l.35.35h-.12A15.34,15.34,0,0,0,114.87,97a.12.12,0,0,0-.12.12c.48.24.24.83.71.71l-.12.12a31.29,31.29,0,0,1,2.36,3.3,4.91,4.91,0,0,1,1.3,1.53,1.48,1.48,0,0,0-.71.12v-.12a2.76,2.76,0,0,1-1.41,0c-.47,0-1.06-.12-1.42-.12-.23-.35-.59-.94-.82-1.29-.36-.59-.71-.83-1.06-1.42l.11-.12c-.94-.7-1.06-2.12-2-2.83h.12c-.24,0-.36-.59-.59-.35v-.24a.84.84,0,0,1-.47-.47c-.24.24-.83.36-1.18,1v-.12c-.12.12-.24.35-.36.47v0c-.35.82,0,1.65,0,2.59l-.12-.11c.24.35,0,1.17.12,1.65h-.12l.12.23h-.12v.47Z"/><path class="cls-4" d="M55.92,104.77a3.37,3.37,0,0,1,1.41,1.17,2.83,2.83,0,0,1,.71,1.3,3.68,3.68,0,0,1,.24,1.65,4.81,4.81,0,0,1-.59,2.12,2.74,2.74,0,0,1-1.77,1.42,3.35,3.35,0,0,1,1.53,1.3,5.81,5.81,0,0,1,.47,2.35v1.07a4,4,0,0,0,.12,1.41,1.64,1.64,0,0,0,.59.94v.36l-3.54-.24c-.12-.35-.12-.59-.23-.82a4.78,4.78,0,0,1-.12-1.3v-1.42a3.85,3.85,0,0,0-.47-2,2.48,2.48,0,0,0-1.77-.59l-3.07-.12v6l-3.06-.12V103.94l7.31.35A5.69,5.69,0,0,1,55.92,104.77Zm-6.49,1.88v4.13l3.42.23a5.64,5.64,0,0,0,1.53-.11,1.65,1.65,0,0,0,.95-1.65,1.94,1.94,0,0,0-.83-1.89,2.46,2.46,0,0,0-1.41-.35Z"/><path class="cls-6" d="M55.92,104.77a3.37,3.37,0,0,1,1.41,1.17,2.83,2.83,0,0,1,.71,1.3,3.68,3.68,0,0,1,.24,1.65,4.81,4.81,0,0,1-.59,2.12,2.74,2.74,0,0,1-1.77,1.42,3.35,3.35,0,0,1,1.53,1.3,5.81,5.81,0,0,1,.47,2.35v1.07a4,4,0,0,0,.12,1.41,1.64,1.64,0,0,0,.59.94v.36l-3.54-.24c-.12-.35-.12-.59-.23-.82a4.78,4.78,0,0,1-.12-1.3v-1.42a3.85,3.85,0,0,0-.47-2,2.48,2.48,0,0,0-1.77-.59l-3.07-.12v6l-3.06-.12V103.94l7.31.35A5.69,5.69,0,0,1,55.92,104.77Zm-6.49,1.88v4.13l3.42.23a5.64,5.64,0,0,0,1.53-.11,1.65,1.65,0,0,0,.95-1.65,1.94,1.94,0,0,0-.83-1.89,2.46,2.46,0,0,0-1.41-.35Z"/><path class="cls-2" d="M49.55,107.24h0l-.12.24C49.43,107.71,49.43,107.12,49.55,107.24Z"/><path class="cls-2" d="M49.55,107.24c0,.12,0-.12.12-.12C49.55,107.24,49.55,107.12,49.55,107.24Z"/><path class="cls-2" d="M53.32,106.89v-.12c-.11.24-.35,0-.47,0h0c-.35-.12-.71.12-1.18.24v-.12a.12.12,0,0,1-.12.12v-.12c-.11-.24-.23.12-.23,0v.23a2.66,2.66,0,0,0-.94.24v-.12c-.24.36-.59.24-.83.12v.24c.12.11.12-.24.24,0v.11c0,.12,0-.23.11-.11v.11a.47.47,0,0,0,.36-.11c0,.23.12,0,.12.23,0-.12.11,0,.11-.23a5.14,5.14,0,0,0,1.3,0c.24-.36.47.11.71,0h0a.36.36,0,0,1,.23-.12l.12-.12c.47.35,1.06.24,1.42.59s.11.71.7,1.3h-.11c.11.11,0,.35,0,.47h0a.57.57,0,0,1,0,.59c-.12.12-.12.23-.24.47a5.19,5.19,0,0,1-1.41.47v-.12c-.48.12-.83-.23-1.3-.23-.47-.24-.95.35-1.3.11-.12-.23-.23-.11-.47,0s-.47.24-.47,0,0-.23-.12-.23c.12-.24.12-.35,0-.47a2.41,2.41,0,0,1-.35-.59c.23-.47-.36-1,.11-1.42-.23-.23.36-.47.24-.7h-.12c.24-.12-.35-.24,0-.24h0c.24,0-.47-.12-.23-.12h-.12c.47,0-.12-.12.35-.12h.24s0-.11-.24-.11h-.71c0,.11-.23.11-.35.11h0c.24,0,.12.12,0,.12h-.12c-.23,0,.36.12,0,.12a.7.7,0,0,1,.12.47c.12,0,0,.12.24.12-.24,0-.36.12-.36.23h0c-.35.12.36.12-.12.24.24,0-.11.12.24.24h-.12c0,.11-.11.35-.11.47.23.12-.12.23.23.35-.12.12-.23.24-.12.36h0c0,.11,0,.23.24.35-.35,0-.24.12-.35.12.11,0,.11.47.23.59-.12.11.12.11-.12.23a.62.62,0,0,1,.24.47,2.69,2.69,0,0,1,1.3.36h0a1.82,1.82,0,0,1,.23-.59h0c.12,0,.12.23.24.12v.11c.12-.11.12.24.23,0v.12c.59.12,1.3-.23,1.89-.12v.12l.12-.12v.12c.12.12.35-.12.47,0v.12c.12-.24.24.24.24-.12v.12a3.32,3.32,0,0,1,1.06-.24,1.55,1.55,0,0,1,.35-.47.6.6,0,0,0,.24-.47H55c0-.47.36-.71.24-1.06a.41.41,0,0,0-.12-.35h.12c-.35-.24.24-.59-.24-.83h.12c-.23,0,0-.24-.35,0l.12-.12c-.48.12,0-.35-.36-.35h.12c-.12,0-.12,0-.12-.12h0c.12-.35-.35-.23-.47-.35l.12-.12c-.12.12-.24-.12-.47,0v-.12l-.12.12v-.12C53.68,106.77,53.44,106.89,53.32,106.89Z"/><path class="cls-2" d="M55.56,104.06h0c.12,0,.36-.12.48-.12C55.92,103.7,55.68,104.29,55.56,104.06Z"/><path class="cls-2" d="M55.56,104.06c-.11-.12-.23,0-.23.12C55.33,103.94,55.45,104.18,55.56,104.06Z"/><path class="cls-2" d="M46.37,108.3h.11c-.23-.47,0-1.06-.11-1.65h0a22.41,22.41,0,0,0-.12-2.83h1.3v.12c.11,0,.11-.12.23-.12v.12c.24.24.83-.12,1.06.12.12,0,.12-.12.12-.24a33.73,33.73,0,0,0,3.42-.12v.12a6.28,6.28,0,0,1,2.95.12c.12-.12-.12-.12,0-.24-.36-.23-.71.12-.95-.11v-.12c-.23-.12-.11.23-.23.12s0-.12,0-.12c-.47,0-.94-.12-1.3.12-.12-.24-.47,0-.59-.24-.12.12-.23,0-.23.12-1.54-.24-3.07-.12-4.72-.24a4.78,4.78,0,0,1-1.3.12,3.2,3.2,0,0,1-.12,1.06v.83h0A2.84,2.84,0,0,1,46,106.3l.12.23a54.81,54.81,0,0,0-.24,6.14c0,1.06-.11,2.12-.11,3.06v2.36c0,.47.11.82.11,1.18h.83l-.12.12h3.07V117a11.3,11.3,0,0,0-.12-2v-1.88a8.78,8.78,0,0,1,1.77.12,10.9,10.9,0,0,1,1.89.11v.12a2,2,0,0,1,1.06.35,2.49,2.49,0,0,1,.47,1,13.94,13.94,0,0,1,0,2.24,4,4,0,0,0,.12,1.18c0,.23.11.35.11.59l.24.59a8.79,8.79,0,0,1,2.48.11,3.54,3.54,0,0,0,1.18.12H59v-.12c0-.11,0-.35-.11-.35a1.35,1.35,0,0,1-.59-.59,1,1,0,0,1,0-.82,5.79,5.79,0,0,0,.11-2.83,5.91,5.91,0,0,0-.47-1.42,2.31,2.31,0,0,0-1.18-.94,2.21,2.21,0,0,0-.7-.47,3.78,3.78,0,0,0,1.17-.59,2.37,2.37,0,0,0,.71-.83,10,10,0,0,0,.71-2,4.39,4.39,0,0,1-.12-1.3,2.46,2.46,0,0,0-.35-1.3l-.12.12c.12-.47-.71-.35-.47-.83h0c0-.23-.59,0-.47-.23H57c-.12-.12.12-.12,0-.24a.17.17,0,0,1-.24,0c.24-.35-.47-.23-.23-.59.11.12-.12-.23.23-.23,0-.12-.35-.24-.47,0s-.35.23-.23.47l.11-.12v.24c.24.12.12.35.24.47h0c.23-.12.23.12.35.23v.12c-.12.12.47-.12.12.12a3.73,3.73,0,0,1,.94,1.3c.12,0,.12.35.36.23-.24.24-.12.59-.12.71h0c-.35.35.35.35,0,.59.35,0-.12.47.24.59H58a2.78,2.78,0,0,1-.59,1.18.6.6,0,0,1-.24.47s-.59.35-.7.59c-.48.12-1.42.35-2,.47a5.68,5.68,0,0,0,.83.36h-.24c.47.23,1.18.47,1.53.7s.48.36.71.36c-.23.23-.12.35-.12.47.24.12.36.59.48,1.06-.12.12.11.35-.12.35a10.77,10.77,0,0,1,.35,2v1.18a1.63,1.63,0,0,0,.24.7c0,.12.12.24.23.36h.12l.71-.59-.36.35h0c-.23,0-.47-.23-.7-.23v-.12c-.24.12-.47-.24-.83,0v-.12l-.23.12c0-.12,0-.24.11-.12H56c0-.12,0,0-.11-.35l-.12-.71c-.24-1.06-.12-2.12-.47-3.42l.12.12c-.12-.12-.24-.36-.36-.47h.12a1.24,1.24,0,0,0-.83-.71c-.35-.12-.59-.12-.94-.24,0,0,.12-.11,0-.11-.47.11-.71-.36-.94.11v-.11H50.26l-1.06-.12v.7c0,.24.11.36.11.59a.44.44,0,0,0,.12.36v.71a7.11,7.11,0,0,0,.12,1.53h-.12a8.75,8.75,0,0,1,.12,2.47c-.47,0-.71-.11-1.18-.11a5.54,5.54,0,0,0-1.41,0v-.12c-.12,0-.24.12-.36.12-.12-.71.36-1.65,0-2.48l.12.12c-.24-.12.12-.59-.24-.47l.12-.12c-.47-.59.24-1.18-.12-2h.12a.52.52,0,0,1,0-.59v.12c.36-.7,0-1.41,0-2.12l.12.12c-.24-.36,0-.94-.12-1.42h.12l-.12-.23h.12A2.8,2.8,0,0,1,46.37,108.3Z"/><path class="cls-4" d="M72.66,108l-8-.47v3.3l7.43.35v2.71l-7.43-.35v3.89l8.37.47v2.72L61.46,120V104.65l11.2.59Z"/><path class="cls-6" d="M72.66,108l-8-.47v3.3l7.43.35v2.71l-7.43-.35v3.89l8.37.47v2.72L61.46,120V104.65l11.2.59Z"/><polygon class="cls-2" points="73.49 107.95 73.49 107.95 73.37 107.83 73.49 107.95"/><path class="cls-2" d="M73.25,107.36h0l.24.47C73.72,107.6,73.13,107.48,73.25,107.36Z"/><path class="cls-2" d="M73.25,107.24c.12-.12-.12-.23-.12-.23S73,107.24,73.25,107.24Z"/><path class="cls-2" d="M61.58,108.89h.11a12.56,12.56,0,0,1-.11-2.12h0v-2a24.09,24.09,0,0,0,2.94-.12l-.11.12a.42.42,0,0,0,.23-.12.12.12,0,0,1-.12.12c.36.23,1.07-.12,1.3.11a.11.11,0,0,0,.12-.11h4.24c.12,0,.12.11,0,.11a3.54,3.54,0,0,1,1.07-.11H72.9v2.12c.11,0,.11-.12.23,0,.12-.47-.23-.59,0-1.3h.12c0-.47-.24,0-.12-.47.12-.24.12,0,.12-.12v-.23a5.6,5.6,0,0,1-1.41-.12,2.27,2.27,0,0,0-.83.12c-.12-.24-.59,0-.83-.24-.11.12-.23,0-.35.12-1.89-.24-3.89-.12-5.89-.24a4.39,4.39,0,0,1-1.3.12,14.47,14.47,0,0,1-1.77-.24v.95h0a.7.7,0,0,0,.12.47v1.06l.12.35c-.36,2.6-.12,5.19-.24,7.9,0,1-.12,1.77-.12,2.6v3.18H63a8.78,8.78,0,0,0,1.77-.12l-.12.12c.83,0,1.65.12,2.36.12h0a24.17,24.17,0,0,1,3,0,13,13,0,0,0,3.06,0v-3.07c-.82,0-1.65-.11-2.47-.11H68.06v-.12a8.78,8.78,0,0,1-1.77-.12l-.94-.12-.71-.12v-3.53c.47,0,1.3-.12,2-.12a12.63,12.63,0,0,1,2.12.12,6.1,6.1,0,0,0,1.41.11c.48,0,1.07-.11,1.42-.11a2.59,2.59,0,0,1,.12-1,2,2,0,0,0,.12-.82c0-.36.11-.71.11-1.06-.23,0-.59-.12-.82-.12H69a24.35,24.35,0,0,0-2.83.23,10.23,10.23,0,0,0-1.89-.11c0-1.42-.12-2-.12-3.54a2.24,2.24,0,0,1,.94.12c.36,0,.48.12.83.12,1.06-.24,2.12.47,3.3.47V108c.35.35.94-.35,1.18.12h0c.24.23.47-.47.59-.24v-.12c.24,0,0,.12.24.12s0-.23.23-.12c0,.47.59,0,.59.47-.12,0,.24.24-.12.24.12,0,.47,0,.47-.12s.24-.35,0-.59l-.11.12c-.12-.12-.12-.12-.12-.23-.35,0-.35-.24-.59-.36h0c-.24.24-.35,0-.59,0v-.12c-.12-.23-.47.36-.24,0H68.42c-.12.12-.59,0-.48.24A1.8,1.8,0,0,0,67,107h0c-.35-.36-.47.23-.94-.12-.12.23-.59-.12-1.06.23-.12-.11-.12-.11-.12-.23-.47,0-.94-.12-1.42-.12,0,.83-.11,1.53-.11,2.12a2.16,2.16,0,0,1,.11.83v.59a5.42,5.42,0,0,0,.12.59v.35c.24,0,.59.12,1.06.12h.83a8.21,8.21,0,0,0,1.77-.12c.11.35.35.24.7.47.36-.12,1.18,0,1.77-.12.12.12.47,0,.47.24.24,0,.48-.12.71-.12a.44.44,0,0,0,.36-.12v.83c0,.59,0,.59-.12.71a1.51,1.51,0,0,0-.71-.24h0c-.24.12-.47.35-.71.47h0c-.35,0-.59-.23-.94-.23V113c-.35.12-.59-.24-.94,0v-.12l-.24.12c0-.12,0-.24.12-.12-.59,0-1.06-.12-1.65-.12H63.7v4.84l1.53.12-.12.11.59-.11-.11.11c.7.12,1.41,0,2.12.12,0,0-.12.12,0,.12.47-.24.82.35,1.06-.12v.12h3.42v.35a1.23,1.23,0,0,1,.12.47v1.42h-.59a2.29,2.29,0,0,0-.83.12v-.12c-1.65.24-3.3-.24-5-.24a10.85,10.85,0,0,0-1.89,0V120a3.59,3.59,0,0,1-1.53,0l-.83-.12h-.58a.44.44,0,0,0-.12-.36h.12c-.24,0,.11-.59-.24-.59l.12-.23c-.47-.83.23-1.53-.12-2.48l.12.12a1,1,0,0,1,0-.82v.11c.35-.82,0-1.77,0-2.71l.12.12c-.24-.47,0-1.18-.12-1.77h.12L61,111h.12A2.18,2.18,0,0,0,61.58,108.89Z"/><path class="cls-4" d="M86.57,106.06v2.71L82,108.54v12.62L78.79,121V108.3l-4.6-.23v-2.71Z"/><path class="cls-6" d="M86.57,106.06v2.71L82,108.54v12.62L78.79,121V108.3l-4.6-.23v-2.71Z"/><path class="cls-2" d="M86.22,105.47h0l.35-.23C86.34,105,86.22,105.59,86.22,105.47Z"/><path class="cls-2" d="M86.1,105.47c-.12-.11-.12.12-.12.12S86.1,105.59,86.1,105.47Z"/><path class="cls-2" d="M77.14,105.12Z"/><path class="cls-2" d="M74.9,105.47v.12a.87.87,0,0,1,.59-.12c.24,0,.47.12.71,0h0a17,17,0,0,0,3.42-.11v.11a.43.43,0,0,1,.23-.11v.11c.24.24.71-.11.83.12.12,0,.12-.12.12-.23a22.41,22.41,0,0,0,2.83-.12v.12a4.33,4.33,0,0,1,2.47,0c0-.12-.12-.12,0-.24-.23-.12-.47.24-.71,0V105c-.11-.12,0,.24-.23.12s0-.12,0-.12c-.35,0-.71-.12-1.06.12-.12-.24-.36,0-.47-.24-.12.12-.24,0-.24.12-1.3-.12-2.59,0-3.89-.12-.59.36-1.3-.11-2,0h0a1,1,0,0,1-.82,0l-.24.12a2,2,0,0,0-.82-.12c-.36,0-.83-.11-1.3-.11v3.53l.94.12c.71.12,1.42.12,2,.24.35,0,.59.11.94.11h.36l.11.24c0,.24.12.59.12.83h-.12c.12.59-.11,1.06,0,1.53h0c.36,1.3,0,2.71.24,3.89,0,1.53,0,3.18.12,4.83h-.12v.71a2,2,0,0,1,.83.12l.82.12c.24,0,.47.12.83.12h1.06V120c0-.36-.12-.71-.12-1a5.62,5.62,0,0,1-.12-2c.35-.83-.47-1.89,0-2.71.59-1.54.24-3.07-.12-4.72a5.62,5.62,0,0,0,0-1.42,9.59,9.59,0,0,1,3.19.24c.59-.12.94.12,1.65.24,0-.24.12-.48,0-.71h-.12c.24-.35-.35-.59,0-.83h0c.24-.11-.47-.35-.24-.47h-.11c0-.12.11,0,.11-.12s-.23,0-.11-.11c.47,0-.12-.48.35-.48,0,.12.24-.11.24.12,0-.12,0-.35-.24-.35s-.35-.12-.59,0h.12c-.12,0-.12,0-.24.12s-.23.23-.35.47h0c.23.12.12.23,0,.35h-.12c-.24,0,.35.24,0,.24a1.5,1.5,0,0,0,.12.71V108s-.12,0,0,.23l-.36-.35h0c-.23-.35-.35.35-.58-.12,0,.24-.48-.11-.59.24v-.24a5.77,5.77,0,0,1-1.42-.23c-.23.23-1.53-.24-1.77.12h0a3.9,3.9,0,0,0-.12.7v.83h0a1.57,1.57,0,0,0,.24,1.06c-.35.12-.24.24-.35.47.11.24.11.71.23,1.18-.12.12.12.35-.12.35a5.94,5.94,0,0,1,0,3.54h0a2.76,2.76,0,0,0,.59.47h0c0,.24-.23.36-.11.59h-.12c.12.24-.24.36,0,.59h-.12l.12.12c-.12,0-.24,0-.12-.12V119l.12.83a.42.42,0,0,0,.12.35H79.62l.12-.12c-.12,0-.24.12-.36.12v-.12c-.12-.11-.23,0-.35,0s-.12-.23-.12-.35H79c-.24-.24.23-.47-.12-.71H79a22.25,22.25,0,0,1-.12-2.83c-.35-.82,0-1.65-.35-2.47h.11a14.79,14.79,0,0,1,0-3.19c0-.47-.11-.7-.11-1.18h.11c-.23-.47,0-.94,0-1.65a3.41,3.41,0,0,0-1.06,0l.12-.11c-.12.23-.47-.12-.47.23l-.12-.12c-.59.47-.94-.23-1.65,0v-.11c-.24,0-.35.11-.47,0h0c-.35-.24-.59-.12-1.06-.12,0-.12-.12-.36-.12-.47H74c-.24-.12,0-.71-.12-1.07H74l-.12-.23H74a1.48,1.48,0,0,0-.12-.71C74.55,105.47,74.67,105.47,74.9,105.47Z"/><path class="cls-4" d="M88.46,106.18l3.18.12v9.43a6.11,6.11,0,0,0,.36,2.36,2.66,2.66,0,0,0,2.47,1.41A2.21,2.21,0,0,0,97,118.33a5.17,5.17,0,0,0,.35-2.25v-9.43l3.19.12v9.43a8.34,8.34,0,0,1-.71,3.78c-.94,1.65-2.71,2.35-5.31,2.24s-4.36-1.06-5.3-2.83a8.86,8.86,0,0,1-.71-3.89Z"/><path class="cls-6" d="M88.46,106.18l3.18.12v9.43a6.11,6.11,0,0,0,.36,2.36,2.66,2.66,0,0,0,2.47,1.41A2.21,2.21,0,0,0,97,118.33a5.17,5.17,0,0,0,.35-2.25v-9.43l3.19.12v9.43a8.34,8.34,0,0,1-.71,3.78c-.94,1.65-2.71,2.35-5.31,2.24s-4.36-1.06-5.3-2.83a8.86,8.86,0,0,1-.71-3.89Z"/><polygon class="cls-2" points="87.64 106.18 87.64 106.18 87.75 106.3 87.64 106.18"/><path class="cls-2" d="M87.87,106.77h0l-.23-.35C87.4,106.53,88.11,106.65,87.87,106.77Z"/><path class="cls-2" d="M87.87,106.89c-.12.12.12.23.12.23S88.11,106.77,87.87,106.89Z"/><path class="cls-2" d="M91.05,121.16h0c-.58-.24-.94-.83-1.29-1.18h.12a7.62,7.62,0,0,1-1.42-4.25h.12c0-.12-.12-.12-.12-.23h.12c.23-.36-.12-1,0-1.18s-.12-.12-.24-.12c0-1.18-.12-2.6-.23-3.77,0-.12.11-.12.11,0a7.88,7.88,0,0,1-.11-3.31c-.12,0-.12.12-.24,0-.12.36.24.59,0,.95h-.12c0,.23.24,0,.12.23s-.12,0-.12,0a5.26,5.26,0,0,0,.12,1.42c-.23.12,0,.47-.23.71.11.11,0,.23.23.35-.12,1.77.12,3.42.12,5.3.35.83.12,1.89.59,2.83h0a9.45,9.45,0,0,1,.71,1.07.44.44,0,0,0,.35.11,5.43,5.43,0,0,0,3.07,2,12.53,12.53,0,0,0,3.65.23,5.51,5.51,0,0,0,3.77-1.65,4.77,4.77,0,0,0,1-3.89h.11a12.49,12.49,0,0,0,0-2.12h0c-.35-1.77,0-3.66-.23-5.31v-2.94a8.78,8.78,0,0,1-1.77-.12H97.54v.59h-.12c.12,1.77-.23,3.42-.12,5.19a10.74,10.74,0,0,0,.12,2.71,5.15,5.15,0,0,1-.12,2.71c-.35.47-.47,1.06-.94,1.41a2.29,2.29,0,0,1-1.77.36,3.41,3.41,0,0,1-2.24-1.65,20.8,20.8,0,0,1-.71-3.07c.24-2-.35-3.89.12-5.89a2,2,0,0,1,0-1.18,4.61,4.61,0,0,0,.24-1.54h-.47v.12a.53.53,0,0,0-.59,0c-.24.12-.36.12-.48-.12h0c-.23-.23-.47.48-.58.24v.12c-.24,0,0-.12-.24-.12s0,.24-.12.12c0-.47-.59.12-.59-.47.12,0-.23-.24.12-.24-.12,0-.47,0-.47.12s-.24.35,0,.59v-.12c.12.12,0,.12.12.24.35,0,.35.23.59.35h0c.11-.24.35,0,.47,0v.12c.12.23.35-.36.23,0h1.18V107c.12,0,0,.23.24.11-.24.12-.36.71-.36.83h0c-.35.35.36.47-.11.82.23,0-.12.59.23.83h-.12c0,.59-.11,1.3-.11,1.89.23.47-.12,1.06.23,1.53a2.39,2.39,0,0,0-.12,1.3h0a3.17,3.17,0,0,0,.24,1.53c-.35.12-.24.35-.35.59.23.35.23,1.18.59,1.65-.12.12.23.47.11.59a3.83,3.83,0,0,0,2.6,1.18,4.46,4.46,0,0,0,3-.36h0a2.72,2.72,0,0,0,.11-.94h0c.12-.23.48-.47.48-.82v.11c0-.35.35-.59.11-.94H98l-.12-.24c.12,0,.24,0,.12.12.12-2.59-.35-5.07-.23-7.54l.11.11-.11-.47h.11a2.48,2.48,0,0,0,0-.94v-.71l.12.12a.17.17,0,0,1,0-.24c.12,0,.24.12.12-.11,0,0,.12.11,0,.11a13.55,13.55,0,0,1,2.12,0v.71c.36,1.06,0,2.24.36,3.3h-.12a27.72,27.72,0,0,1,0,4.37,7.59,7.59,0,0,1,0,1.65h-.12a2.31,2.31,0,0,1-.24,1.53,7.69,7.69,0,0,0-.59,1.41l-.11-.11c.11.23-.48.47-.12.59l-.24.11a1,1,0,0,1-.71.71,2.2,2.2,0,0,0-1.06.47v-.12a1.63,1.63,0,0,1-.7.24v-.12c-.71-.23-1.54.24-2.36.12l.12-.12a7.16,7.16,0,0,1-1.54-.12v-.11h-.23v-.12A4.75,4.75,0,0,1,91.05,121.16Z"/><path class="cls-4" d="M113.46,107.83a3.47,3.47,0,0,1,1.41,1.18,2.78,2.78,0,0,1,.71,1.3,3.68,3.68,0,0,1,.24,1.65,4.85,4.85,0,0,1-.59,2.12,2.74,2.74,0,0,1-1.77,1.42,3.28,3.28,0,0,1,1.53,1.29,5.86,5.86,0,0,1,.47,2.36v1.06a4,4,0,0,0,.12,1.42,1.67,1.67,0,0,0,.59.94v.35l-3.54-.23c-.12-.36-.12-.59-.23-.83a4.7,4.7,0,0,1-.12-1.29v-1.42a3.85,3.85,0,0,0-.47-2,2.44,2.44,0,0,0-1.77-.59l-3.07-.12v6l-3.06-.12V107l7.31.35A11.25,11.25,0,0,1,113.46,107.83Zm-6.61,2V114l3.42.24a5.3,5.3,0,0,0,1.54-.12,1.64,1.64,0,0,0,.94-1.65,2,2,0,0,0-.83-1.89,2.54,2.54,0,0,0-1.41-.35Z"/><path class="cls-6" d="M113.46,107.83a3.47,3.47,0,0,1,1.41,1.18,2.78,2.78,0,0,1,.71,1.3,3.68,3.68,0,0,1,.24,1.65,4.85,4.85,0,0,1-.59,2.12,2.74,2.74,0,0,1-1.77,1.42,3.28,3.28,0,0,1,1.53,1.29,5.86,5.86,0,0,1,.47,2.36v1.06a4,4,0,0,0,.12,1.42,1.67,1.67,0,0,0,.59.94v.35l-3.54-.23c-.12-.36-.12-.59-.23-.83a4.7,4.7,0,0,1-.12-1.29v-1.42a3.85,3.85,0,0,0-.47-2,2.44,2.44,0,0,0-1.77-.59l-3.07-.12v6l-3.06-.12V107l7.31.35A11.25,11.25,0,0,1,113.46,107.83Zm-6.61,2V114l3.42.24a5.3,5.3,0,0,0,1.54-.12,1.64,1.64,0,0,0,.94-1.65,2,2,0,0,0-.83-1.89,2.54,2.54,0,0,0-1.41-.35Z"/><path class="cls-2" d="M107,110.31h0l-.12.23C106.85,110.78,107,110.19,107,110.31Z"/><path class="cls-2" d="M107,110.31c0,.12,0-.12.12-.12S107,110.19,107,110.31Z"/><path class="cls-2" d="M110.75,110v-.11c-.12.23-.36,0-.48,0h0c-.35-.12-.7.11-1.17.23V110a.12.12,0,0,1-.12.12V110c-.12-.23-.24.12-.24,0v.24a2.72,2.72,0,0,0-.94.24v-.12c-.24.35-.59.23-.83.12v.23c.12.12.12-.23.24,0v.12c0,.12,0-.24.12-.12v.12a.43.43,0,0,0,.35-.12c0,.24.12,0,.12.24,0-.12.12,0,.12-.24a4.64,4.64,0,0,0,1.29,0c.24-.35.47.12.71,0h0a.37.37,0,0,1,.24-.12l.11-.11c.48.35,1.07.23,1.42.58s.12.71.71,1.3h-.12c.12.12,0,.36,0,.47h0a.53.53,0,0,1,0,.59c-.12.12-.12.24-.24.47a4.88,4.88,0,0,1-1.41.48v-.12c-.47.12-.83-.24-1.3-.24-.47-.23-.94.36-1.3.12-.11-.24-.23-.12-.47,0s-.47.24-.47,0,0-.24-.12-.24c.12-.23.12-.35,0-.47a2.34,2.34,0,0,1-.35-.59c.23-.47-.35-.94.12-1.41-.24-.24.35-.47.23-.71h-.12c.24-.12-.35-.23,0-.23h0c.24,0-.47-.12-.23-.12h-.12c.47,0-.12-.12.35-.12h.24s0-.12-.24-.12h-.7c0,.12-.24.12-.36.12h0c.24,0,.12.12,0,.12h-.11c-.24,0,.35.12,0,.12a.73.73,0,0,1,.11.47c.12,0,0,.11.24.11-.24,0-.35.12-.35.24h0c-.36.12.35.12-.12.24.23,0-.12.11.23.23h-.11c0,.12-.12.36-.12.47.23.12-.12.24.23.36-.11.12-.23.23-.11.35h0a.32.32,0,0,0,.23.35c-.35,0-.23.12-.35.12.12,0,.12.47.23.59-.11.12.12.12-.11.24a.63.63,0,0,1,.23.47,2.76,2.76,0,0,1,1.3.35h0a2.34,2.34,0,0,1,.23-.59h0c.12,0,.12.24.24.12v.12c.12-.12.12.24.24,0v.12c.59.12,1.29-.24,1.88-.12v.12l.12-.12v.12c.12.12.35-.12.47,0v.12c.12-.24.24.23.24-.12v.12a3.38,3.38,0,0,1,1.06-.24,1.78,1.78,0,0,1,.35-.47.62.62,0,0,0,.24-.47h.12c0-.47.35-.71.23-1.06a.44.44,0,0,0-.12-.36h.12c-.35-.23.24-.59-.23-.82h.11c-.23,0,0-.24-.35,0l.12-.12c-.47.12,0-.36-.35-.36H112c-.11,0-.11,0-.11-.11h0c.11-.36-.36-.24-.48-.36l.12-.11c-.12.11-.23-.12-.47,0v-.12l-.12.12v-.12C111.1,109.84,111,110,110.75,110Z"/><polygon class="cls-2" points="113.81 107.12 113.81 107.12 113.58 107.24 113.81 107.12"/><path class="cls-2" d="M113.1,107.24h0c.12,0,.36-.12.48-.12C113.46,106.89,113.1,107.36,113.1,107.24Z"/><path class="cls-2" d="M113,107.12c-.12-.11-.24,0-.24.12C112.87,107.12,113,107.36,113,107.12Z"/><path class="cls-2" d="M103.79,111.37h.12c-.24-.47,0-1.06-.12-1.65h0a22.25,22.25,0,0,0-.12-2.83H105V107c.12,0,.12-.12.23-.12V107c.24.23.83-.12,1.07.11.11,0,.11-.11.11-.23a33.73,33.73,0,0,0,3.42-.12v.12a6.14,6.14,0,0,1,3,.12c.12-.12-.12-.12,0-.24-.35-.24-.71.12-.94-.12v-.12c-.24-.11-.12.24-.24.12s0-.12,0-.12a2.41,2.41,0,0,0-1.3.12c-.11-.23-.47,0-.59-.23-.11.11-.23,0-.23.11-1.53-.23-3.07-.11-4.72-.23a4.7,4.7,0,0,1-1.29.12,3.23,3.23,0,0,1-.12,1.06v.82h0a2.89,2.89,0,0,1,.12,1.06l.11.24a54.62,54.62,0,0,0-.23,6.13c0,1.06-.12,2.12-.12,3.07v2.36c0,.47.12.82.12,1.17h.82l-.12.12h3.07v-2.36a11.25,11.25,0,0,0-.12-2V116.2a8.78,8.78,0,0,1,1.77.12,10,10,0,0,1,1.89.12v.12a1.86,1.86,0,0,1,1.06.35,2.38,2.38,0,0,1,.47.94,13.94,13.94,0,0,1,0,2.24,3.92,3.92,0,0,0,.12,1.18c0,.24.12.36.12.59l.23.59a8.41,8.41,0,0,1,2.48.12,3.57,3.57,0,0,0,1.18.12h.12v-.12c0-.12,0-.35-.12-.35a1.46,1.46,0,0,1-.59-.59,1,1,0,0,1,0-.83,5.91,5.91,0,0,0,.12-2.83,6.53,6.53,0,0,0-.48-1.41,2.35,2.35,0,0,0-1.17-1,2.81,2.81,0,0,0-.71-.47,3.73,3.73,0,0,0,1.18-.59,2.32,2.32,0,0,0,.7-.82,9.34,9.34,0,0,0,.71-2,4.29,4.29,0,0,1-.12-1.29,2.32,2.32,0,0,0-.35-1.3l-.12.12c.12-.48-.71-.36-.47-.83h0c0-.24-.59,0-.47-.24h-.12c-.12-.11.12-.11,0-.23a.16.16,0,0,1-.23,0c.23-.35-.48-.24-.24-.59.12.12-.12-.24.24-.24,0-.11-.36-.23-.48,0s-.35.24-.23.48l.12-.12v.23c.23.12.11.36.23.47h0c.24-.11.24.12.36.24v.12c-.12.12.47-.12.11.12a3.61,3.61,0,0,1,1,1.29c.11,0,.11.36.35.24-.24.24-.12.59-.12.71h0c-.35.35.36.35,0,.59.36,0-.12.47.24.59h-.24a2.78,2.78,0,0,1-.59,1.18.64.64,0,0,1-.23.47,2.55,2.55,0,0,0-.71.59c-.47.11-1.42.35-2,.47a6.29,6.29,0,0,0,.83.35h-.24c.48.24,1.18.47,1.54.71s.47.35.7.35c-.23.24-.11.36-.11.47.23.12.35.59.47,1.07-.12.11.12.35-.12.35a9.37,9.37,0,0,1,.35,2v1.18a1.67,1.67,0,0,0,.24.71c0,.12.12.24.24.35h.11l.71-.59-.35.36h0c-.24,0-.47-.24-.71-.24v-.12c-.24.12-.47-.23-.83,0v-.11l-.23.11c0-.11,0-.23.12-.11h-1.18c0-.12,0,0-.12-.36l-.12-.7c-.23-1.07-.12-2.13-.47-3.42l.12.11c-.12-.11-.24-.35-.36-.47h.12a1.27,1.27,0,0,0-.82-.71c-.36-.11-.59-.11-1-.23,0,0,.12-.12,0-.12-.47.12-.7-.35-.94.12v-.12h-2.24l-1.06-.12v.71c0,.24.12.35.12.59a.44.44,0,0,0,.11.35V118a7.11,7.11,0,0,0,.12,1.53h-.12A8.81,8.81,0,0,1,107,122c-.47,0-.7-.12-1.18-.12a5.55,5.55,0,0,0-1.41,0v-.12c-.12,0-.24.12-.36.12-.11-.71.36-1.65,0-2.47l.12.11c-.23-.11.12-.59-.23-.47l.11-.12c-.47-.58.24-1.17-.11-2H104a.56.56,0,0,1,0-.59v.12c.36-.71,0-1.42,0-2.12l.12.11c-.23-.35,0-.94-.12-1.41h.12l-.12-.24h.12A12,12,0,0,1,103.79,111.37Z"/><path class="cls-4" d="M118.88,107.83l3.3.24,6,11V108.42l2.94.12v15.33l-3.18-.12-6.13-11.2V123.4l-3-.12V107.83Z"/><path class="cls-6" d="M118.88,107.83l3.3.24,6,11V108.42l2.94.12v15.33l-3.18-.12-6.13-11.2V123.4l-3-.12V107.83Z"/><polygon class="cls-2" points="118.06 107.83 118.06 107.83 118.17 107.95 118.06 107.83"/><path class="cls-2" d="M118.41,108.54h0l-.24-.47C117.94,108.3,118.53,108.42,118.41,108.54Z"/><path class="cls-2" d="M118.29,108.66c-.12.11.12.23.12.23S118.53,108.66,118.29,108.66Z"/><path class="cls-2" d="M121.71,122.33h-.12a2,2,0,0,1,.12.83c-.35,0-.71-.12-1.18-.12H119c-.12-1.18-.12-2.47-.24-3.65l.12.11a.42.42,0,0,0-.12-.23.12.12,0,0,1,.12.12c.24-.36-.12-1.18,0-1.42s-.12-.12-.23-.12c0-1.41-.12-3.06-.24-4.59a.12.12,0,0,1,.12-.12,10.62,10.62,0,0,1-.12-3.89c-.12,0-.12.11-.24,0-.11.47.24.82,0,1.18h-.11c0,.23.23,0,.11.35-.11.12-.11,0-.11,0a9.57,9.57,0,0,0,.11,1.77c-.23.12,0,.59-.23.82.12.12,0,.36.23.36-.11,2.12.12,4.12.12,6.25a3.33,3.33,0,0,1,.12,1.53,2,2,0,0,1-.12.82v1.3h1.89l.35-.12c.36.12,1,.12,1.42.24a12.51,12.51,0,0,1,.12-2.12v-6.37a.44.44,0,0,1,.11-.35,3.73,3.73,0,0,0,.36.7l.11.12h0l.12.12.36.59a10,10,0,0,1,.82,1.18h-.12c.48.71.83,1.53,1.3,2.24h0a12.49,12.49,0,0,1,1.3,2l.59,1.06c.23.36.47.83.7,1.18h1.77c.59,0,1.06.12,1.77.12V121a28.35,28.35,0,0,0-.12-3.19h.12c-.12-2.12.24-4.12.12-6.13v-1.41c0-.47-.12-1.06-.12-1.65H128.2v.59c-.36,1.29.47,3.06,0,4.36a12.89,12.89,0,0,0-.24,2v1.54c0,.59.12,1.18.12,1.76l-.36-.35a1.55,1.55,0,0,0-.35-.47l-.12-.24a27.68,27.68,0,0,0-1.88-3.3,15.13,15.13,0,0,1-1.54-3.06A4.76,4.76,0,0,1,123,110c-.12-.23-.24-.59-.36-.82a5.85,5.85,0,0,0-.47-.95v-.11c-.47-.12-.94.35-1.18,0h0c-.23-.24-.59.47-.7.23v.12c-.24,0,0-.12-.24-.12s0,.24-.24.12c0-.47-.7,0-.7-.47.12,0-.24-.24.12-.24-.12,0-.59,0-.48.12s-.23.35,0,.59l.12-.12c.12.12.12.12.12.24.35,0,.35.23.71.35h0c.23-.23.47,0,.59,0V109c.11.24.47-.35.35,0h1.18c.12.24.23.35.35.59.12,0,.36.59.47.35a1.44,1.44,0,0,0,.24,1.06h-.12c-.12.59.59.36.36.95.23-.12.23.71.7.71a.11.11,0,0,1-.11.11c.35.71.7,1.42.94,2,.47.35.59,1.18,1.06,1.41.12.24.12.47.24.71a7.21,7.21,0,0,0,.7,1.3h-.11a12.08,12.08,0,0,0,.82,1.29c.12,0,.35-.11.47-.11.12.35.24.35.36.35h0c.11-.12.47-.24.59-.59v-.59c.11,0-.12-.94.11-.82-.11-.71-.11-1.42-.23-2.13v-1.53a13,13,0,0,1,.35-3h0c-.12-.23-.35-.47-.59-.82h0a.68.68,0,0,1,.12-.47,1.21,1.21,0,0,1,.12-.36h.12c-.12-.12,0-.12.11-.23H129v.11h1.53v1.07l.12,1.65c0,1.06.12,2.12.12,3.3l-.12-.12.12.59-.12-.12c-.12.71.12,1.53,0,2.24,0,0-.12-.12-.12,0,.24.59-.23.83.12,1.18h-.12a14,14,0,0,1,.12,2.24v2.12c0,.12.12.24.12.36h-1.3a6.5,6.5,0,0,0-1.53,0l-.24-.24h.12c-1.06-1.3-1.65-3.06-2.59-4.6a8.46,8.46,0,0,0-1.06-1.65l.11-.12a4.69,4.69,0,0,1-.94-1.65,8.31,8.31,0,0,0-1.06-1.88v-.24c-.12.35-.47-1.06-.24.12L122,113c0,.12,0,.24-.12.12a.88.88,0,0,1-.12.59,3.69,3.69,0,0,0,0,1.18l-.12-.24a1.26,1.26,0,0,1,0,.94v-.11c-.35.94,0,1.88,0,2.83l-.11-.12c.23.47,0,1.29.11,1.88h-.11l.11.36h-.11A7.77,7.77,0,0,1,121.71,122.33Z"/></svg>