<svg id="Layer_1" data-name="Layer 1" xmlns="http://www.w3.org/2000/svg" viewBox="0 0 200 170"><defs><style>.cls-1{fill:#fbd6b9;}.cls-2{fill:#f5ad7c;}.cls-3{fill:#fffbf7;}.cls-4{fill:#f8c49d;}.cls-5{fill:#ffe9d9;}.cls-6{fill:#fff2e8;}.cls-7{fill:#cfcddd;}</style></defs><title>Artboard 26</title><path class="cls-1" d="M183.14,132.7H23.56a3.15,3.15,0,0,1-3.21-3.21V32.76a3.14,3.14,0,0,1,3.21-3.2H183.14a3.13,3.13,0,0,1,3.2,3.2v96.73A3.2,3.2,0,0,1,183.14,132.7Z"/><path class="cls-2" d="M183.14,133.45h.32c.21-.11.53-.11.75-.21C183.89,133.34,183.57,133.34,183.14,133.45Z"/><path class="cls-2" d="M186.77,130.35c-.1.11-.1.11-.1.21a4.16,4.16,0,0,1-1.61,2.46,2.16,2.16,0,0,0,1.28-1.28A13.3,13.3,0,0,1,186.77,130.35Z"/><path class="cls-2" d="M186.88,129.49a4.76,4.76,0,0,0-.11-1.6C186.88,128.21,186.77,129.71,186.88,129.49Z"/><path class="cls-2" d="M186.77,43.45v.32C186.88,43.56,186.77,43.45,186.77,43.45Z"/><path class="cls-2" d="M176.4,29.66l-.21.11c2.14-.11,4.28-.11,6.63-.11a3.11,3.11,0,0,1,2.88,1.28,3.71,3.71,0,0,1,.64,1.5v1.39c0,11.22.11,21.59.22,32.71a.62.62,0,0,0-.11-.43c0,.54.11,1.18.11,1.71,0,.11-.11-.21-.11-.32-.21,2.35.11,7,0,8.34,0,.64.11,1,.22.53,0,8.77.1,18.07.21,26.94,0,.42-.11.53-.11.42.32,7.59.22,15.61.11,23.31.11.32.11-.75.21,0,.11-2.46-.21-4.6,0-6.84l.11.32c0-1.61-.21-.32-.11-2,.11-.65.11.21.11-.11,0-3.53,0-7.16-.11-10.48.22-.85,0-3.74.22-5a9.09,9.09,0,0,0-.22-2.14c.11-12.29-.1-24.8-.1-37.41-.32-5.88.1-12.93,0-19.88h0c-.11-2.24-.11-5.56-.11-8.34l-.11-2.35a3.88,3.88,0,0,0-1.39-2.88,3.77,3.77,0,0,0-1.49-.65c-.54-.1-1.07,0-1.61-.1h-43.5c-18.92-.11-35.38-.32-53.76.1,0,0-.11,0,.32-.1-5.35.1-10.16-.11-15.18,0h0c-12.4.32-25.76,0-37.73.21H24.09A3.33,3.33,0,0,0,20.46,33v8.76c0,7.8.1,15.82.1,23.52h-.1c.1,12.29-.22,24.26-.11,36.55-.11,6.31,0,12.83.11,19.35l.1,4.91v2.46a5.69,5.69,0,0,0,.32,2.35,3.17,3.17,0,0,0,1.71,1.61,5.9,5.9,0,0,0,2.35.21h4.81c7.91.32,18.28-.43,25.66,0,15.18.54,29.93.22,45.21-.11,14,.22,28-.32,41.69.11,6.41-.21,13.57.32,20.73.22l-.21-.11c2.56.21,5.77-.32,7.37,0h-.32c1.39.21,3.21-.43,4-.22l.21-.1c1.61,0,.22.1,1.5.1.43,0,.21-.21,1.17-.1.22.43,4.07-.11,4.17.32-.85,0,1.39.21-.64.21.54,0,3.32,0,3.1-.21.22-.22,1.28-.32-.32-.54l-.32.11a1.5,1.5,0,0,1-.64-.21,36.19,36.19,0,0,1-4.06-.32h0a12.61,12.61,0,0,1-3.42,0l-.32-.11c-.54-.21-2.46.32-1.82,0-4.49.11-9.62.11-14.54.11-.75.1-3.84,0-2.78.21a61.64,61.64,0,0,0-6.3-.32h.32c-2.67-.32-3.21.32-5.67-.11-.42.22-4.59-.1-6,.22-.32-.11-.43-.11-.32-.11-4.49,0-9.52-.11-13.26-.11-3.2.22-7.91-.1-10.69.22-2.35-.11-6.09-.22-9.3-.11h.33c-3.64,0-8.23,0-10.69.21a24.52,24.52,0,0,0-4.28-.32c-2.46.11-7.37.11-11.12.22-.53-.11-3.09.1-3.31-.11-10.47.43-23.3.21-34.52,0h.21c-1.5.11-3.1.32-4.6.53h.22c-2,0-4-.21-6-.1l.32-.11c-1.92.11-3.95-.21-6.2,0l-.1-.11a5.16,5.16,0,0,1-1.29-.1c.11-.11.11-.11.75,0a3,3,0,0,1-2.14-1.39,2.92,2.92,0,0,1-.32-1.29v-8.23c0-4.38-.1-8.87-.1-13.36-.11-9-.11-18-.11-26.93l.11.64L21,77.76a.5.5,0,0,0,.11.32c.1-4.38-.11-9.08,0-13.36,0,0,.1.64.1.11-.21-3.21.22-5.13-.1-6.74,0-.1.1-.21.1.11-.1-4.49-.1-9-.1-13.47V32.87a3.68,3.68,0,0,1,.32-1.5,2.72,2.72,0,0,1,1.81-1.6,5.52,5.52,0,0,1,1.39-.11h7.49c4,0,8,0,11.86-.1v.1c10.05-.21,20.74,0,31.11,0,4.27,0,7.26-.1,11.54-.1l.11.1c7.26-.32,15.39.32,23-.1l-.54.1c1.18-.21,4.6.11,4.17-.21l1.39.11c5.13-.43,9.41.21,15.82-.11l-.43.11a36.56,36.56,0,0,1,4.92,0h-.54c5.24.32,11.23,0,16.79,0l-.65.1c2.68-.21,7.59,0,11.23-.1l-.22.1,1.82-.1v.1C167.53,29.77,171.91,29.66,176.4,29.66Z"/><rect class="cls-3" x="26.65" y="39.17" width="153.38" height="89.36"/><polygon class="cls-2" points="180.79 128.53 180.79 128.21 180.68 127.68 180.79 128.53"/><path class="cls-2" d="M180.57,124.58c0,.1,0,.1-.1.21l.32,2.25C181,126.07,180.47,125.22,180.57,124.58Z"/><path class="cls-2" d="M180.57,123.94a4.46,4.46,0,0,0-.1-1.5C180.57,122.76,180.47,124,180.57,123.94Z"/><path class="cls-2" d="M165.93,39.17l-.21.11c3.84-.21,8.12,0,12.18-.11h1.92v6.74c0,2.24,0,4.49.11,6.84,0,4.49.11,9.09.11,13.68a.8.8,0,0,0-.11-.43c0,.54.11,1.07.11,1.61,0,.1-.11-.11-.11-.32-.21,2.13.11,6.3,0,7.69,0,.64.11.86.22.54,0,7.91.1,16.46.21,24.58,0,.43-.11.43-.11.32.32,7,.22,14.22.11,21.27.11.32.11-.75.21,0,.11-2.24-.21-4.17,0-6.2l.11.22c0-1.5-.21-.32-.11-1.82.11-.64.11.11.11-.11,0-3.2,0-6.52-.11-9.51.22-.75,0-3.42.22-4.6-.11-.85,0-1.6-.22-1.92.11-11.22-.1-22.66-.1-34.1-.32-5.34.1-11.76,0-18.17h0c0-.85-.11-1.92-.11-3V38.85h-1.5l-2.14.11c-14.85-.32-30.14-.11-45.21-.21-17.21-.11-32.28-.32-48.95.1,0,0-.11,0,.32-.1-4.81.1-9.19-.11-13.79,0h0c-11.33.32-23.52,0-34.42.21H26.55c0,10.9.1,23,.1,34.42h-.1c.1,11.22-.22,22-.11,33.24-.11,7.16.11,14.43.21,21.81q6.9-.17,13.47,0c7.16.32,16.68-.43,23.41,0,13.9.53,27.36.21,41.15-.11,12.83.21,25.55-.32,37.95.11,5.88-.22,12.4.32,18.92.21l-.22-.11c2.35.22,5.24-.32,6.74,0h-.22c1.29.22,2.89-.42,3.64-.21l.21-.11c1.5,0,.21.11,1.39.11.43,0,.21-.21,1.07-.11.21.43,3.63-.1,3.74.32-.85,0,1.28.22-.53.22.53,0,3,0,2.78-.22.21-.21,1.17-.32-.33-.53l-.32.11c-.53-.11-.42-.11-.53-.22a29.87,29.87,0,0,1-3.74-.32h0a10,10,0,0,1-3.1,0l-.32-.11c-.43-.21-2.25.32-1.71,0-4.06.11-8.77.11-13.26.11-.64.11-3.52,0-2.45.21a51.8,51.8,0,0,0-5.78-.32h.32c-2.45-.32-2.88.32-5.13-.1-.32.21-4.17-.11-5.45.21-.32-.11-.43-.11-.32-.11-4.06,0-8.66-.1-12.08-.1-3,.21-7.16-.11-9.72.21-2.14-.11-5.56-.21-8.45-.11h.32c-3.31,0-7.48,0-9.83.22a19.44,19.44,0,0,0-3.85-.32c-2.24.1-6.73.1-10.15.21-.54-.11-2.78.11-3-.11-9.51.43-21.27.22-31.42,0H50c-1.29.11-2.89.32-4.17.54H46c-1.82,0-3.63-.22-5.45-.11l.32-.11c-1.71.11-3.63-.21-5.66,0l-.11-.1-1.28.1c0-.1.1-.21.74-.1H27.4c0-6.52-.1-13.15-.1-19.78-.11-6.84-.11-13.78-.11-20.63l.11.65-.11-3.21a.52.52,0,0,0,.11.32c.1-4.06-.11-8.23,0-12.19,0,0,.1.65.1.11-.21-2.88.22-4.7-.1-6.09,0-.11.1-.21.1.11-.1-8.13-.1-16.46-.1-24.59,0-1-.11-1.92-.11-3H36c3.1,0,6.1,0,9.09-.11v.11c9.19-.22,18.81,0,28.32,0,4,0,6.63-.11,10.59-.11l.1.11c6.63-.32,14,.32,21-.11l-.42.11c1.06-.22,4.16.11,3.74-.22l1.17.11c4.71-.43,8.55.22,14.43-.11l-.43.11a30.49,30.49,0,0,1,4.49,0h-.42c4.81.32,10.15,0,15.28,0l-.53.11c2.46-.22,6.94,0,10.15-.11l-.21.11,1.6-.11v.11C157.91,39.39,161.87,39.28,165.93,39.17Z"/><circle class="cls-4" cx="103.4" cy="34.79" r="1.92"/><path class="cls-2" d="M101.05,34.9h0l-.22-.11C100.62,34.9,101.16,34.9,101.05,34.9Z"/><path class="cls-2" d="M100.94,34.9h.11C100.94,35,101.16,34.9,100.94,34.9Z"/><path class="cls-2" d="M103,36.61V36.5c-.1.22-.21,0-.32,0h0c-.21-.1-.43-.1-.75-.21h0s-.1.11-.1,0h.1c.11-.21-.21,0-.1-.21,0,0-.11,0-.11.1-.21-.1-.32-.32-.53-.53a.1.1,0,0,0,.1-.11c-.43-.11-.32-.43-.32-.53h-.21c-.11.1.21.1.1.21h-.1c0,.11.21,0,.1,0h-.1c0,.11,0,.21.21.21-.11.11,0,.11-.11.22h.22c.11.43.43.53.64.85.32-.1.21.32.43.32h.21l.11-.1c.32.42.85.32,1.28.32s1.18-.11,1.18-.86h0c0-.1.21-.21.21-.32h0c-.11-.43.32-.64.11-1a1.33,1.33,0,0,0-.22-1.07h.11c-.21-.21-.11-.64-.43-.75-.21-.32-.75,0-.85-.21s-.43.32-.54,0c-.42-.54-.85,0-.85.43-.22,0-.22.21-.32.32s-.11.21-.32.32c.1.21-.43.1-.43.43h.11c-.22,0,.32.21-.11.21h0c-.21,0,.43.11.21.11h.11c-.43,0,.11.1-.32.1h-.21s0,.11.1.11h.64a.5.5,0,0,0,.32-.11h0c-.21,0-.1,0,0-.1h.11c.21,0-.32-.11,0,0a.15.15,0,0,1,0-.22c-.11,0,0-.1-.21-.1a.29.29,0,0,0,.32,0h0c.32.1-.22-.22.1,0-.21-.11.11,0-.1-.22a.1.1,0,0,1,.1.11c0-.11.22-.11.22-.11-.11-.21.11,0,0-.21.11,0,.21.1.21,0h0s.11-.11,0-.32c.22.21.11.21.22.32,0-.11,0-.11.1-.32,0,.1,0-.11.11.1,0-.42.43-.32.53,0h0a4.28,4.28,0,0,0,.11-.53h0s0,.21.11.11v.1c.1-.1,0,.22.1,0h0v-.1c0,.1-.1.21-.1.1.21.11.64,0,.85.32h-.1c-.11.11.1.11.21.22s-.11,0-.11.1c.22,0-.21.22.22.11h-.11a.27.27,0,0,1,.11.43c.32.11,0,.32.21.53h-.11c.22.32-.1.43-.21.64s0,.11-.11.22l-.1-.11c.1.32-.43,0-.32.32l-.11-.1c.11.21-.11,0,0,.21l-.11-.11c.11.43-.21-.1-.32.22v-.11c0,.11,0,.11-.11.11h0c-.21-.22-.21.1-.32.1v-.1c0,.21-.1,0-.21.1v-.1C103.19,36.5,103.08,36.61,103,36.61Z"/><path class="cls-5" d="M74.65,84.71s14.75-5,21.8-12.83l1.93,1.29S86.73,85.35,75.18,87.49C75.18,87.49,73.26,87.81,74.65,84.71Z"/><polygon class="cls-2" points="74.01 84.39 73.9 84.39 74.01 84.5 74.01 84.39"/><path class="cls-2" d="M74,85h0l-.11-.43C73.69,84.6,74.22,84.92,74,85Z"/><path class="cls-2" d="M74,85c-.11.11,0,.21.1.21C73.9,85.24,74.11,85.14,74,85Z"/><path class="cls-2" d="M83.52,84.28v-.11c-.32.43-.86.43-1.28.75h0a12.6,12.6,0,0,0-1.61.86,11.28,11.28,0,0,1-1.6.85v-.1c0,.1-.11.1-.11.21v-.11c-.32-.1-.64.32-.85.32s-.11.11,0,.22c-.43.21-1,.32-1.39.53a8.2,8.2,0,0,0-1.5.54.11.11,0,0,1-.11-.11.81.81,0,0,1-.85-.11,1.41,1.41,0,0,1-.53-.85,2.2,2.2,0,0,1,.32-1.5c-.11-.11-.11.11-.22,0-.21.21,0,.64-.21.86h-.11c-.11.21.22.1.11.32s-.11,0-.11,0a2.57,2.57,0,0,0,.11.85.92.92,0,0,0,.75.64c0,.11.21.22.42.22a1,1,0,0,1,.54.1c.11-.1.21-.1.21-.21a15.18,15.18,0,0,0,2-.53c.64-.22,1.29-.54,2-.75.54-.54,1.39-.54,2-.86h0a1.32,1.32,0,0,1,.85-.43l.21-.21A7,7,0,0,0,84,85.14c.42-.22.85-.43,1.17-.64.86-.43,1.61-1,2.35-1.39a15.9,15.9,0,0,0,4.81-3.64v.11c.43-.43,1-.64,1.29-1.07h0c.85-1.07,2.24-1.82,3-3,.64-.54,1.18-1.07,1.92-1.82l.11-.11-.11-.1-.1-.11-.32-.21-.65-.43-.53-.32-.32-.22-.11-.1-.1.1v-.1a21,21,0,0,1-1.5,1.49,15.33,15.33,0,0,0-1.6,1.29,6.53,6.53,0,0,0-1.61,1.38,6.37,6.37,0,0,1-1.71,1.29c-1,.21-1.49,1.39-2.35,1.49A13.71,13.71,0,0,0,83.2,81.5c-1.5.54-2.67,1.61-4.28,1.82-.53.53-1.49.32-2.24.64l.11.11c-.33-.11-.43.53-.75.32h0c-.22-.11-.22.53-.32.32v.11c-.22.1-.11-.11-.22-.11s0,.21-.1.11c-.11-.32-.43.21-.54-.22.11,0-.21-.1,0-.21-.11,0-.32.11-.21.21s0,.43.21.43v-.11c.11.11.11,0,.11.11.21-.11.32.11.53.11h0c.11-.22.22-.22.32-.22l.11.11c.11.11.11-.43.21-.11.43-.21,1-.42,1.5-.64,0-.11.43-.11.21-.32a.64.64,0,0,0,.75,0h0c.43.21.22-.43.64-.21-.1-.22.54-.11.54-.43.1,0,.1.11.1.11.43-.22,1-.32,1.39-.54.22-.32.86-.32,1-.75a1.31,1.31,0,0,0,1-.42h0c.32-.22.85-.43,1-.75a.54.54,0,0,0,.53.1c.22-.21.65-.42,1-.74.1.1.32-.22.42,0A9.33,9.33,0,0,1,89.4,78.4h0a1.92,1.92,0,0,0,.1-.75v.11c.22-.11.43-.11.65-.21v.1c.1-.21.42-.1.53-.42h0l.11-.11c0,.11.1.11,0,.21a38.94,38.94,0,0,0,4.59-4v.11l.22-.32v.1a1.23,1.23,0,0,0,.53-.53c.11-.11.11-.22.22-.22a.1.1,0,0,1,.1-.1v.21c0-.21.11,0,.11,0s0,.11.21-.11c0,0,0,.11-.1.11l.64.32.43.22c.21.1,0,.21-.11.21l-.43.32c-.32.85-1.28,1.18-1.71,2v-.11a12.8,12.8,0,0,1-2.56,2.25,7.64,7.64,0,0,0-1,.85l-.1-.1c-.43.74-1.5.74-2,1.6v-.11c0,.22-.43.22-.22.43H89.4c-.22.64-1,.43-1.39,1.07V81.5c-.11.11-.32.32-.43.32v-.1c-.64.1-1.07.64-1.6,1v-.11c-.22.32-.75.43-1.07.75v-.11l-.11.22h0A5.38,5.38,0,0,1,83.52,84.28Z"/><path class="cls-5" d="M96.45,71.88s.11-4.27,5-6.41,4.16,3.31,2.78,4.81a8.71,8.71,0,0,1-5.88,2.89Z"/><path class="cls-2" d="M96.35,72.31h0l-.22.11C96,72.63,96.35,72.2,96.35,72.31Z"/><path class="cls-2" d="M96.35,72.42c0,.1.1,0,.1-.11C96.35,72.42,96.45,72.2,96.35,72.42Z"/><path class="cls-2" d="M101.48,72.2v-.1c-.11.32-.43.21-.54.32h0a8.67,8.67,0,0,0-1.49.75v-.11a.11.11,0,0,1-.11.11v-.11c-.11-.22-.32.21-.43,0v.21a.38.38,0,0,0-.32.11h-.21c-.11,0-.11-.11-.22-.11-.32-.1-.43-.21-.64-.21a.11.11,0,0,1,.11-.11c-.54.11-.75-.32-1.07-.53-.11.1,0,.1-.11.1s.32,0,.32.11l-.21.11c0,.1.11-.11.11,0s-.11.1-.11.1c.21.11.32.22.53.11-.1.22.11.11.11.32.11,0,.11,0,.21-.1a1.84,1.84,0,0,0,.43.32c.11.1.22.1.32.21h.43c.43-.11.64-.11,1-.21.22-.43.64-.11,1-.32h0c.11-.11.22-.22.32-.22l.11-.21a4.41,4.41,0,0,0,2.25-1.07,4.78,4.78,0,0,0,1.17-.86c.22-.1.32-.32.43-.64a1,1,0,0,0,.11-.75h0a2.07,2.07,0,0,0,.21-.74h0c-.11-.65.32-1.39,0-1.93a2.79,2.79,0,0,0-.32-1.17.82.82,0,0,0-.43-.43c-.21-.11-.32-.22-.53-.22v-.1a2.64,2.64,0,0,0-1.82,0,1.28,1.28,0,0,0-.85.43,2.5,2.5,0,0,1-.86.53c-.53-.11-.53.75-1.07.75-1,0-1.28.85-1.5,1.6-.53.43-.53,1.28-1.06,1.71.1.32-.54.54-.54,1h.11c-.32.11.32.32-.11.32h0c-.21,0,.43.22.22.22h.1c0,.11-.1,0-.1,0s.21,0,.1.11c-.43,0,.11.21-.32.21,0,0-.21.11-.21-.11,0,0,0,.22.1.22s.33.1.54,0h.11c0-.11.21-.11.32-.11h0c-.22-.11-.11-.11,0-.11h.1c.22,0-.32-.21,0-.1a1.36,1.36,0,0,1,.11-.65c-.11-.1.11-.21-.11-.21.22,0,.32-.11.32-.21h0c.32,0-.21-.22.22-.22-.22-.1.1-.1-.11-.32h.11c.1-.21.32-.32.32-.53s.32-.22.11-.54c.1-.1.32-.1.32-.32h0a.47.47,0,0,0,.1-.53c.32.21.32.1.43.1,0-.21.11-.32.21-.53.11.11.11-.11.22,0a1.18,1.18,0,0,1,1.28-1h0c0-.11-.11-.43-.11-.54h0c.11-.1.22,0,.32,0v.11c0-.11.22.11.22-.11h0v-.1c0,.1.11.1,0,.1.75-.32,1.39-1,2.24-1v.11l.11-.11v.11c.21.11.32,0,.53,0,0,0-.1.11,0,.11s0,.32.32,0a.1.1,0,0,1-.1.1c.32,0,.53.43.64.75.43.21.11.64.43,1.07h-.11c.21.53-.11,1-.21,1.5a.93.93,0,0,0-.11.53h-.11c.11.21-.1.32-.21.53s-.32.22-.32.43l-.11-.1c.11.21-.21.1,0,.32h-.11c.11.53-.42.21-.53.64v-.11a.34.34,0,0,1-.11.21V71c-.42-.11-.42.32-.64.53v-.1c0,.21-.32.21-.43.32v0l-.1-.11A4,4,0,0,0,101.48,72.2Z"/><path class="cls-5" d="M46.32,29.56s8.55-9.52,19.56,0c0,0-2.88,49.91-.75,61.78,0,0-12.72,5.13-18.81,0C46.32,91.44,41.51,51.25,46.32,29.56Z"/><path class="cls-2" d="M45.57,30.84c0-.11.11,0,0,0l-.1-.86C45.25,30.2,45.79,30.62,45.57,30.84Z"/><path class="cls-2" d="M45.47,31.05a.83.83,0,0,0,0,.54C45.47,31.37,45.68,30.94,45.47,31.05Z"/><path class="cls-2" d="M44.4,64.72l.11.11a25.81,25.81,0,0,1-.22-4.17v.11c0-1.71-.11-3.42-.11-5.13s-.1-3.32-.1-5c0,.11,0,.11.1.11,0-.21-.1-.32-.1-.54l.1.11c.22-.75-.1-2.14.11-2.56,0-.22-.11-.32-.11-.22,0-1.39.11-2.78.11-4.17s.11-2.78.22-4.17a.1.1,0,0,1,.1-.1,21.86,21.86,0,0,1,.22-3.64c.1-1.17.42-2.45.64-3.63-.11-.11-.11.21-.22,0-.21.75-.1,1.5-.32,2.14l-.1-.11c-.11.54.21.11,0,.64-.11.22-.11-.1-.11,0a16.84,16.84,0,0,0-.21,3.32c-.22.21-.11,1.17-.33,1.6,0,.32,0,.53.11.64-.21,1.92-.32,3.85-.43,5.77s-.1,3.85-.1,5.88c.32,1.82-.11,4.06,0,6.2h0a21.16,21.16,0,0,1,.1,2.57l.11.74a146.86,146.86,0,0,0,.54,15.4c.1,2.88.32,5.66.53,8.44.11,1.39.21,2.67.43,4.06.1.64.21,1.39.32,2v.54c0,.1,0,.1.1.1l.54.32a4.23,4.23,0,0,0,1,.54s0,.11-.11,0a11.93,11.93,0,0,0,4.6,1.28h0A28.49,28.49,0,0,0,63.53,92a2.48,2.48,0,0,1,.86-.22c.21-.1.64-.21.85-.32A10.15,10.15,0,0,1,65,89.63,34.7,34.7,0,0,1,64.71,86c-.11-2.46-.22-4.92-.32-7.27h.1c-.21-3.84.22-7.48.11-11.33.21-4-.21-8.12.11-12,.42-2.46-.22-5.66.21-7.91a76.29,76.29,0,0,0,.53-14,31.47,31.47,0,0,0,.22-3.21V30a.24.24,0,0,0-.22-.21l-.64-.43-1.28-1a28.44,28.44,0,0,0-5.77-2.57c-.54,0-1-.1-1.5-.1a7.83,7.83,0,0,1-1.6-.11,7.78,7.78,0,0,0-1.6.11,8.69,8.69,0,0,0-1.61.42h.11c-.86,0-1.5,1.07-2.14,1l.11-.11c-.43.11-.64.85-1,.85V28c-.43.32-.11,0-.43.11-.11.11.11.21-.21.32-.33-.21-1,.85-1.18.53.21-.21-.43.22,0-.32-.21.11-.86.75-.64.86s0,.53.43.21v-.21h.21c.53-.43.75-.32,1.18-.54h0c.1-.32.53-.53.74-.64h.11c.21,0,.43-.64.43-.32a11.41,11.41,0,0,1,3.95-1.82c.22-.21,1.18-.21.75-.32a2.31,2.31,0,0,0,1,.11h.86c.75.21,1-.21,1.6.21a.94.94,0,0,1,.75,0,1.53,1.53,0,0,0,1,.11c.11.11.11.11,0,.22a20.72,20.72,0,0,1,3.53,1.71c.21.1.53.21.75.32s.42.32.64.53.43.32.64.54.21.1.32.21H65v.11h0v.21c0,.21-.11.43-.11.75a3.92,3.92,0,0,0,0,1.6v-.11A15.61,15.61,0,0,0,65,35.65c-.32.32-.32.85-.43,1.28.11.75,0,2.24.11,3.42-.11.21,0,1-.22,1A59.88,59.88,0,0,1,64,52h0c.11.43.32,1,.43,1.39,0,0-.11,0,0-.11,0,.65-.22,1.18-.22,1.82l-.1-.11c.1.65-.22,1.18-.11,1.93h-.11l.11.43c-.11,0-.22,0-.11-.32-.21,5.45,0,11-.11,16.56l-.1-.21.1,1.07s0-.11-.1-.11c-.11,1.39.1,2.78.1,4.17,0,0-.1-.21-.1,0,.21,1-.22,1.6.21,2.14,0,0-.11.1-.11,0,.11,1.39.22,2.78.22,4.17s.11,2.77.32,4.16c.11.33.11.54.21.86s.11.53.22.85v.22l-.32.11-.86.32c-1.17.42-2.35.74-3.53,1.06v-.1a20.39,20.39,0,0,1-9.51.53c-.64-.1-1.17-.32-1.71-.43a10.39,10.39,0,0,1-1.6-.74v-.11a2.5,2.5,0,0,1-.75-.43l-.21-.1-.11-.11v-.54A9.42,9.42,0,0,1,46,88.56a21.51,21.51,0,0,0-.43-3.64l.11.11c-.21-.32-.11-1.39-.32-1.28l.11-.43c-.54-1.6-.11-2.89-.43-4.92l.21.75a3.83,3.83,0,0,1-.1-1.5c0,.11,0,0,.1.11a28.52,28.52,0,0,0-.32-5.24l.11.22c-.21-.86-.11-2.35-.32-3.42l.11.1-.11-.53h.11C44.72,67.39,44.51,66.11,44.4,64.72Z"/><path class="cls-2" d="M48,28.81a.1.1,0,0,0-.1.1Z"/><circle class="cls-5" cx="54.98" cy="89.63" r="20.2"/><polygon class="cls-2" points="34.03 89.63 34.03 89.73 34.14 89.84 34.03 89.63"/><path class="cls-2" d="M34.35,90.69h0L34,90.05C33.92,90.27,34.46,90.48,34.35,90.69Z"/><path class="cls-2" d="M34.35,90.91c-.11.21.11.32.11.43C34.35,91.23,34.46,90.8,34.35,90.91Z"/><path class="cls-2" d="M50.38,109.29h0a10.48,10.48,0,0,1-1.49-.42,8.2,8.2,0,0,0-1.5-.54h.11a23.48,23.48,0,0,1-6.63-4.06H41c-.11-.11-.32-.11-.43-.21h.11c-.22-.54-1.18-1.18-1.39-1.5-.11-.11-.22-.11-.22,0A21.11,21.11,0,0,1,35.63,97c0-.11,0-.11.11-.11a12.17,12.17,0,0,1-1.39-5.45c-.11-.1-.11.22-.21,0-.11.64.32,1.07.32,1.71l-.11-.1c0,.42.21,0,.21.42,0,.22-.1,0-.1.11A9.14,9.14,0,0,0,35.21,96c-.11.21.32.85.21,1.17.11.22.21.43.32.43a19.81,19.81,0,0,0,5.34,7.27c1.29.75,2.46,2,4,2.78h0l1.82.75.53.1a20,20,0,0,0,11.76,1.18,20.89,20.89,0,0,0,6.2-2.24A24.1,24.1,0,0,0,68,105.66a16.6,16.6,0,0,0,2.24-2.46s.11,0,0,.11l1.18-1.5.54-.75c.1-.21.32-.53.42-.75h0c1.29-2.67,2.67-5.66,2.67-8.65a20.15,20.15,0,0,0-1.92-10.8h.11c-1.39-2.56-2.89-5.13-5.24-7-2.24-2.13-5.45-3.1-8.34-4-1.81-.75-4.38-.32-6.09-.54-3.74-.32-7.16,1.29-10.05,3.53a15.89,15.89,0,0,0-3.74,3.31c-.53.65-1,1.29-1.49,1.93s-1,1.39-1.39,2a10.69,10.69,0,0,1-1.07,2.14,5.8,5.8,0,0,0-.54,1.17A6.08,6.08,0,0,0,35,84.82h.11c-.43.53.11,1.39-.32,1.71v-.11c-.22.32.32.85.11,1l.1.11c0,.43-.1,0-.21.32,0,.11.21.11.11.32-.43,0,0,1-.43,1,0-.21-.22.32-.22-.11,0,.11-.1.86.11.75.21.11.32.32.54-.1l-.11-.11c.11-.11.11-.11.21-.11,0-.53.22-.53.32-1h0a1.88,1.88,0,0,1,0-.75l.11-.1c.21-.11-.21-.65,0-.43a8.88,8.88,0,0,1,.21-1.61c.11-.53.32-1.17.43-1.71,0-.21.32-.85,0-.64a3.14,3.14,0,0,0,.75-1.28V82c.53-.43.11-.75.64-1.18-.11-.11,0-.32.21-.53a1.15,1.15,0,0,0,.32-.75h.22a15.07,15.07,0,0,1,1.92-2.46c.32-.75,1.29-1.28,1.61-1.92a3.47,3.47,0,0,0,.85-.65,2.92,2.92,0,0,0,.86-.74v.1a10.15,10.15,0,0,0,1.92-1.6c.32.11.64-.11,1.07-.11a8.4,8.4,0,0,1,1-.64c.43-.21.86-.32,1.28-.53.22.1.65-.32.75-.11a12.46,12.46,0,0,1,7.91-.64h0c.32-.11.75-.21,1.18-.32h0a1.66,1.66,0,0,1,.64.21,1.48,1.48,0,0,0,.64.22h-.11c.43,0,.86.42,1.39.32v.1h.32c0,.11-.1.11-.21.11a29.5,29.5,0,0,1,5.56,2.67A16,16,0,0,1,71.23,78l-.11-.11.53.53h-.1c.43,1,1.17,1.71,1.6,2.67,0,0-.11-.1-.11,0,.54.65.22,1.18.75,1.39,0,0-.1.11-.1,0a15,15,0,0,1,1,3,16.41,16.41,0,0,1,.32,3.1,8,8,0,0,1,.1,2.78,6.16,6.16,0,0,1-.21,1.39,6.78,6.78,0,0,1-.21,1.39h-.11a17.76,17.76,0,0,1-2.89,6.73c-.64.75-1,1.39-1.71,2.14h-.1a8.18,8.18,0,0,1-1.93,1.92,4.26,4.26,0,0,1-1.17.75c-.32.32-.75.53-1.07.85v-.21c-.11.32-1,.53-.75.75l-.32.11A3.9,3.9,0,0,1,63,108a17.54,17.54,0,0,0-1.82.64l.11-.11a2.35,2.35,0,0,1-1.07.33l.1-.11c-1.28.11-2.56.64-4,.64l.11-.11a10.49,10.49,0,0,1-2.68.11l.11-.11-.43.11v-.11c-.53,0-1.07-.1-1.6-.1A2.36,2.36,0,0,1,50.38,109.29Z"/><circle class="cls-6" cx="54.98" cy="89.63" r="8.55"/><polygon class="cls-2" points="45.79 89.63 45.79 89.63 45.9 89.73 45.79 89.63"/><path class="cls-2" d="M46.11,90.05h0l-.22-.32C45.68,90,46.22,90.05,46.11,90.05Z"/><path class="cls-2" d="M46,90.16c-.11.11.11.11.11.21C46.11,90.27,46.22,90.16,46,90.16Z"/><path class="cls-2" d="M53.06,97.86v-.11c-.43.11-.86-.21-1.29-.32h0a13.39,13.39,0,0,1-2.88-1.6h0c0-.33-.54-.43-.54-.65-.1,0-.1,0-.21.11a9,9,0,0,1-1.6-2.35l.1-.11A3.05,3.05,0,0,1,46,90.48c-.11,0-.11.11-.21,0-.11.32.32.43.1.75h-.1c0,.21.21,0,.1.21s-.1,0-.1,0a2.11,2.11,0,0,0,.43,1.07c-.11.11.1.43,0,.54.1.1.1.21.21.1a7.46,7.46,0,0,0,2.35,3.1c.64.22,1.07.86,1.71,1.18h0a1.77,1.77,0,0,1,.86.32h.32a8.11,8.11,0,0,0,5,.64,7.28,7.28,0,0,0,2.67-1,4.63,4.63,0,0,0,2-2v.1a5.68,5.68,0,0,0,1-1.28h0c.42-1.17,1.17-2.46,1-3.74a7.75,7.75,0,0,0-.86-4.6h.11a10.31,10.31,0,0,0-2.14-3c-1-1-2.46-1.07-3.53-1.6-.74-.54-1.81.11-2.56-.22a4.44,4.44,0,0,0-4.17,1.5A3.82,3.82,0,0,0,48.67,84a14,14,0,0,1-1.28,1.6c-.11.65-.85,1.07-1,1.93h.11c-.32.21.21.64-.22.75h0c-.21.1.43.42.11.42h.11c0,.22-.11,0-.11.11s.21,0,.11.11c-.43,0,.1.43-.32.43,0-.11-.22.1-.22-.11,0,.11,0,.32.11.32s.32.11.53,0h-.1c.1-.11.1,0,.21-.11s.21-.21.32-.43h0c-.21-.1-.11-.21,0-.32h.11c.21,0-.32-.32,0-.21a7,7,0,0,1,.21-1.39c-.11-.11.11-.32-.11-.32.32,0,.43-.32.54-.43h0c.43-.1-.11-.43.32-.43-.21-.21.32-.32.11-.64.1,0,.1,0,.1.11a7.44,7.44,0,0,1,.86-1c0-.43.53-.43.53-.86a1.54,1.54,0,0,0,.75-.53h0c.21-.21.64-.43.75-.75.21.21.32.11.53.11.11-.22.54-.43.86-.64.11.1.21-.11.32,0a3.17,3.17,0,0,1,3.1-.22h0a2.8,2.8,0,0,1,.53-.43h0c.22,0,.32.22.54.22v.11c.21,0,.32.21.53.1v.11h.11a.11.11,0,0,1-.11.11,7.77,7.77,0,0,1,4.17,2.78h-.11l.32.21h-.1c.1.43.53.64.64,1.07h-.11c.32.21,0,.53.43.53,0,0-.11.11-.11,0a4,4,0,0,1,.54,2.46c.42.75,0,1.5.1,2.35h-.1a5.32,5.32,0,0,1-1.18,2.78c-.32.32-.32.64-.64,1h-.11c-.21.75-1.28.86-1.71,1.5v-.11c0,.22-.42.22-.21.43h-.21c-.33.64-1,.21-1.39.75v-.11a.81.81,0,0,1-.43.22v-.11c-.54-.11-1.07.32-1.61.32v-.11c-.21.22-.74.11-1.06.11v-.11l-.22.11v-.11A2.56,2.56,0,0,1,53.06,97.86Z"/><path class="cls-7" d="M10.09,140.93c-14,4.06-15.29-14.75,27.68-15.6,17.85-.32,16.57-12.94,17.32-15.4h.32c0,8-4.92,15.93-15.71,15.82-16.79-.21-42.65,4.92-37,14.11,1.82,2.89,7.38-.75,7.38-.75v1.82"/><polygon class="cls-2" points="10.84 140.93 10.84 140.82 10.73 140.61 10.84 140.93"/><path class="cls-2" d="M10.51,139.22c0,.11,0,.11-.1.11.1.11.1.32.21.53l.11.32.11.22c.1-.11,0-.43-.11-.64S10.41,139.44,10.51,139.22Z"/><path class="cls-2" d="M10.51,138.9c0-.53-.1-.64-.1-.53h0C10.51,138.37,10.3,139.11,10.51,138.9Z"/><path class="cls-2" d="M19.07,127.57v-.11c-1.18.43-2.57.54-3.85,1l.1-.11a33.93,33.93,0,0,0-9,3.53s0-.11.1-.11c-.1.11-.21.32-.42.32,0,0,0-.11.1-.11-.75.22-1.6,1.18-2,1.39-.11.11-.11.22,0,.22a5,5,0,0,0-1.92,3.2v.43a.68.68,0,0,0,.1.43c0,.32.22.64.22.85a2.64,2.64,0,0,0,1,1.39c.11.11,0,.11,0,.22a4.2,4.2,0,0,0,3-.11,10.1,10.1,0,0,0,1.61-.53l.42-.22.43-.21a4.57,4.57,0,0,0,1.18-.75c.21-.21-.32.11.1-.32-.53.32-1.17.75-1.6,1a2.2,2.2,0,0,1-.85.43v-.11c-.43.11,0,.22-.54.32-.21,0,0-.1-.11-.1a9.07,9.07,0,0,1-2.67.64c-.21-.22-.85-.22-1-.54-.21-.1-.32-.21-.43-.21a4.77,4.77,0,0,1-.75-2.25,3.71,3.71,0,0,1,.86-2.24,11.45,11.45,0,0,1,4.17-3.21c1.39-1.07,3.53-1.49,5.34-2.14h0a7.45,7.45,0,0,1,2.35-.74l.65-.32a125.33,125.33,0,0,1,14.43-2.14c2.77-.22,5.34-.22,7.9-.22,1.29,0,2.57,0,4-.1a18.71,18.71,0,0,0,4-1.07l-.1.11a13,13,0,0,0,4-2.14h0a20.59,20.59,0,0,0,3.64-4.38,14.51,14.51,0,0,0,1.71-5.24,16.92,16.92,0,0,0,.32-3.32v-.1h-.54v.1c-.32,1.61-.32,3.21-.75,4.92a14.41,14.41,0,0,1-1.92,4.6h0a10.5,10.5,0,0,1-4,3.52c-.32.22-.86.33-1.18.54a6.94,6.94,0,0,0-1.28.53c-.86.22-1.71.54-2.57.75a80.34,80.34,0,0,1-11.33,1.07c-2.35-.21-5.34.86-7.48.75a34.39,34.39,0,0,0-12.93,3.21A20.15,20.15,0,0,0,6,132.59a12.28,12.28,0,0,0-4.17,4.28,4.4,4.4,0,0,0,0,2.89,3.5,3.5,0,0,0,2.35,1.92v-.11c.75.54,1.71,0,2.14.32H6.24c.43.22,1-.53,1.18-.21l.1-.11c.43-.1.11.11.43.11.11,0,0-.21.32-.21.11.21.32.1.64.1s.54-.21.64,0c-.21.11.43.11-.1.32.21,0,1-.21.85-.42s.32-.43-.21-.43l-.11.21c-.21-.1-.11,0-.21-.1a4.58,4.58,0,0,1-1.18,0h0a1.78,1.78,0,0,1-1,.21l-.11-.11c-.1-.1-.64.32-.53.11a6.09,6.09,0,0,1-3.85-.75c-.21,0-.75-.64-.64-.32-.11-.21-.11-.53-.22-.75a2.21,2.21,0,0,1-.1-.75v.11c.1-.21.1-.32,0-.43v-.32c-.11-.21-.11-.42.21-.64-.32-.21.54-1.07.54-1.5h.21a12.15,12.15,0,0,1,2.78-2.45,7.21,7.21,0,0,1,1.28-1,3.72,3.72,0,0,0,1.28-.85,14.81,14.81,0,0,0,2.46-1.07l-.1.11a25.28,25.28,0,0,0,2.88-1.29c.43.22.86,0,1.28,0,.65-.32,2-.64,3.1-1.06.22.1.86-.22,1-.11A27.88,27.88,0,0,1,29,126.93h0a8,8,0,0,0,1.28-.64v.11c.64-.11,1.17.1,1.71,0l-.11.1a10.61,10.61,0,0,0,1.82-.1h0l.43-.11c0,.11,0,.21-.22.21,1.29,0,2.57-.1,3.85-.1.64-.11,1.28-.11,2-.22s1.28-.11,2-.21a19.85,19.85,0,0,0,7.59-2.78l-.11.11c.33-.22.54-.43.86-.65v.11a9.41,9.41,0,0,0,1.5-1.39l1.28-1.6s0,.21.11.1a8.47,8.47,0,0,1,.64-1.06.9.9,0,0,0,.21-.86.11.11,0,0,1,.11.11c1.17-2.46,1.39-5.35,1.82-7.8l-.43.32h.32l-.32-.32c.32,2.13-.43,4.38-.86,6.52h-.1a12.09,12.09,0,0,1-2.14,4,13,13,0,0,1-3.42,3,15.87,15.87,0,0,1-3,1.5l-.1-.11a8.25,8.25,0,0,1-3.21.75,8.88,8.88,0,0,1-1.71,0c-.53,0-1.17.11-1.71.11l.11-.11c-.32.21-1.39-.11-1.18.21l-.43-.1c-1.49.43-2.77-.11-4.59.32l.1-.11a3.14,3.14,0,0,1-1.38.11c.1,0,0,0,.1-.11-1.6-.21-3.31.32-4.91.54l.21-.11c-.75.21-2.25.32-3.31.53V127l-.54.21v-.11A13.34,13.34,0,0,0,19.07,127.57Z"/><path class="cls-5" d="M8.59,136.66a6.93,6.93,0,0,0,7,6.94H191.15a6.93,6.93,0,0,0,6.95-6.94Z"/><polygon class="cls-2" points="8.59 137.41 8.8 137.41 9.23 137.3 8.59 137.41"/><path class="cls-2" d="M11.69,137.19c-.11,0,0,0-.11-.11l-1.81.32C10.62,137.62,11.16,137,11.69,137.19Z"/><path class="cls-2" d="M12.23,137.19a2.61,2.61,0,0,0,1.17-.11C13.19,137.19,12.12,137,12.23,137.19Z"/><path class="cls-2" d="M91.11,136.55l.21-.11c-3,.22-6.52,0-9.72.11h.21c-8.12,0-15.71.11-23.84.21a.4.4,0,0,0,.32-.1c-.42,0-.85.1-1.28.1-.11,0,.11-.1.21-.1-1.71-.22-5,.1-6.09,0-.53,0-.64.1-.43.21-6.3,0-13.14.11-19.56.21-.32,0-.32-.1-.32-.1-5.55.32-11.33.21-17,.1-.22.11.53.11,0,.22,1.82.1,3.31-.22,5,0l-.21.1c1.17,0,.21-.21,1.49-.1.54.1-.1.1.11.1,2.57,0,5.24,0,7.59-.1.64.21,2.78,0,3.63.21.65-.11,1.29,0,1.61-.21,8.87.1,18.06-.11,27.15-.11,4.27-.32,9.4.11,14.43,0h0c1.6-.11,4.06-.11,6-.11l1.71-.1c11.87.32,24,.1,36.13.21,13.68.11,25.76.32,39-.11,0,0,.1,0-.22.11,3.85-.11,7.38.11,11,0h0c9-.32,18.71,0,27.36-.21h2.25v.53a3.79,3.79,0,0,1-.22,1,6.88,6.88,0,0,1-2,3.42A6,6,0,0,1,192,143.6a13.26,13.26,0,0,1-2.14.11h-2.14c-5.66,0-11.43.11-17.1.11v-.11c-9,.11-17.63-.21-26.51-.11-9.19-.1-18.92.43-28.11.22-5.77-.32-13.25.43-18.6,0-11-.54-21.8-.22-32.81.1-10.15-.21-20.42.33-30.25-.1-4.7.21-9.83-.32-15.07-.22l.21.11a25.16,25.16,0,0,0-2.88,0,4,4,0,0,1-2.35-.21h.21c-.43-.11-1.07-.22-1.6-.32s-1-.22-1.18-.54h-.21c-1-.75-.11-.1-.75-.75-.22-.21-.22,0-.64-.53.1-.21-.43-.75-.75-1.39s-.54-1.39-.32-1.39c.21.64-.11-1,.32.32A9.48,9.48,0,0,0,9,137.73c-.11-.54-.11-1-.22-.86-.21-.21-.42-1-.53.32l.11.21c-.11.43,0,.33-.11.54a12.66,12.66,0,0,0,.32,1.71A8.36,8.36,0,0,0,9,140.93H9a15.5,15.5,0,0,0,1.82,1.93l.21.21a1.61,1.61,0,0,0,1,.53c.32.11.64.22.32.22a11.51,11.51,0,0,0,2.57.64H23c.53-.11,2.78,0,2-.21a32.78,32.78,0,0,0,4.6.32h-.22c1.93.32,2.36-.32,4.17.1.32-.21,3.32.11,4.38-.21.22.11.33.11.22.11,3.31,0,6.84.1,9.62.1,2.35-.21,5.77.11,7.8-.21,1.71.11,4.38.21,6.74.11h-.22c2.67,0,6,0,7.8-.22a12.3,12.3,0,0,0,3.1.32c1.82-.1,5.35-.1,8-.21.43.11,2.24-.11,2.35.11,7.59-.43,17-.22,25.12,0h-.11c1.07-.11,2.25-.32,3.32-.54h-.11c1.5,0,2.89.22,4.38.11l-.21.11c1.39-.11,2.88.21,4.49,0l.1.1,1.07-.1c0,.1-.1.21-.64.1,12.72.11,25.76-.32,38.91-.21l-.43.11,2.57-.11a.34.34,0,0,0-.22.11c3.21.1,6.52-.11,9.73,0,0,0-.53.1,0,.1,2.35-.21,3.74.22,4.92-.1.1,0,.21.1-.11.1,3.21-.1,6.52-.1,9.83-.1h4.92a7.17,7.17,0,0,0,4.81-1.39,7.61,7.61,0,0,0,2.46-3.53c.11-.32.21-.75.32-1.07l.11-.53v-1h-2c-2.89,0-5.78,0-8.66.11v-.11c-7.27.22-15.07,0-22.56,0-3.1,0-5.23.11-8.44.11l-.11-.11c-5.34.32-11.11-.32-16.67.11l.43-.11c-.86.22-3.32-.1-3,.22l-1-.11c-3.74.43-6.84-.21-11.44.11l.33-.11a18.83,18.83,0,0,1-3.53,0h.32c-3.85-.32-8.12,0-12.19,0l.43-.11c-1.92.22-5.56,0-8.12.11l.1-.11-1.28.11v-.11C97.52,136.44,94.31,136.55,91.11,136.55Z"/><path class="cls-2" d="M9.45,141a.57.57,0,0,1-.22-.43A.81.81,0,0,0,9.45,141Z"/><path class="cls-6" d="M112.91,141.25h-19a.51.51,0,0,1-.54-.53v-1.18a.51.51,0,0,1,.54-.53h19a.51.51,0,0,1,.54.53v1.18A.51.51,0,0,1,112.91,141.25Z"/><path class="cls-2" d="M112.91,142h0c.11,0,.11,0,.22-.11C113,142,113,142,112.91,142Z"/><path class="cls-2" d="M113.55,141.57h0c-.1.11-.21.32-.32.43C113.55,142.11,113.45,141.47,113.55,141.57Z"/><path class="cls-2" d="M113.66,141.47c.21-.11.11-.22,0-.22C113.77,141.36,113.55,141.47,113.66,141.47Z"/><path class="cls-2" d="M106.5,139.11v.11c.32-.21.75,0,1.07-.11h0a20.22,20.22,0,0,0,2.67-.21V139l.11-.11V139c.21.21.53-.11.64,0s.11-.11,0-.22c.32,0,.75-.1,1.07-.1l.53-.11a2.32,2.32,0,0,1,.86.11c0,.1,0,.1-.11.1a.72.72,0,0,1,.43.54v1.28a.63.63,0,0,1-.11.43c.11.11.11-.11.21.11.11-.11.11-.54.11-.54s-.11-.21,0-.32h.11c0-.11-.22,0-.11-.21s.11,0,.11,0v-.43c0-.11,0-.54-.22-.64.11-.22-.21-.43-.32-.64-.1,0-.21-.11-.32,0a1.1,1.1,0,0,0-.53-.11h-1.18c-.53,0-1.07.11-1.6.11-.53.32-1.07-.11-1.6,0h0a1.46,1.46,0,0,1-.64.1l-.22.11a25.77,25.77,0,0,0-4.06-.21,12.11,12.11,0,0,0-4.38.1v-.1c-.43.1-.86-.11-1.29,0h0c-1.06.32-2.13,0-3.09.21h-.86a.81.81,0,0,0-.53.75v1.07A.6.6,0,0,0,94,141h.11v.11c1.07-.11,2,.21,3,.1,1.07.11,2.14-.43,3.21-.21.64.32,1.5-.43,2.14,0a5.65,5.65,0,0,0,3.74-.11c1.17.22,2.35-.32,3.42.11.53-.22,1.07.32,1.71.21v-.1c.21.21.43-.33.64,0h0c.11.21.21-.43.32-.22v-.11c.11,0,0,.11.11.11s0-.21.11-.11c0,.43.32-.1.32.33-.11,0,.1.21,0,.21s.32,0,.21-.21.11-.33,0-.54v-.11c-.21,0-.21-.21-.32-.32h0c-.11.22-.21.11-.32,0v-.1c0-.22-.22.32-.11,0a4.26,4.26,0,0,1-1.17.1c-.11.11-.32,0-.22.22a.7.7,0,0,0-.53-.32h0c-.22-.32-.22.32-.43-.11,0,.21-.43-.11-.53.21v-.1c-.33,0-.75-.11-1.07-.11-.32.21-.64-.11-.86.21a1,1,0,0,0-.75-.1h0a1.15,1.15,0,0,0-.85.21c-.11-.32-.22-.21-.32-.32-.22.11-.64.11-1,.21,0-.1-.22.11-.33-.1a4.5,4.5,0,0,1-2.88,0h0c-.11.1-.21.32-.43.53h0c-.21,0-.32-.21-.53-.11v-.1c-.11.1-.32-.22-.54,0v-.11l-.1.11c0-.11,0-.22.1-.11-1.39-.11-2.88.32-4.38.21l.11-.1-.32.1v-.1c-.32-.11-.75.1-1.07,0v-.11h0c-.11.11,0-.21-.32,0l.1-.11c-.1,0-.1-.1-.21-.32v-.75a.38.38,0,0,1,.11-.21.22.22,0,0,1,.21-.21h.43a2.87,2.87,0,0,0,1-.11v.11a10,10,0,0,1,2.57,0c.32,0,.64-.11,1-.11v.11c.64-.32,1.28.32,1.92-.11v.11c.11-.22.43.1.32-.22l.11.11c.43-.43.75.21,1.28-.11v.11a.32.32,0,0,1,.43,0h0c.43.32,1,0,1.39,0v.11c.21-.22.64,0,1-.11v.11l.11-.11v.11C105.75,139.22,106.07,139.11,106.5,139.11Z"/><path class="cls-2" d="M110.35,138.9Z"/></svg>