<svg id="Layer_1" data-name="Layer 1" xmlns="http://www.w3.org/2000/svg" viewBox="0 0 200 170"><defs><style>.cls-1{fill:#9aceb0;}.cls-2{fill:#68be96;}.cls-3{fill:#e1f0e7;}.cls-4{fill:#bbdcc8;}</style></defs><title>Artboard 8</title><path class="cls-1" d="M163.4,17.16s-92.7-6.5-110.6-6c-8.4.2-20.4,7.7-20.4,7.7S159.5,41.76,163.4,17.16Z"/><polygon class="cls-2" points="162.8 17.06 162.7 17.16 162.7 17.46 162.8 17.06"/><path class="cls-2" d="M162.4,19h0a3,3,0,0,0,.2-1.3,1.7,1.7,0,0,0-.1.7C162.5,18.66,162.5,18.86,162.4,19Z"/><path class="cls-2" d="M162.2,19.26a1.08,1.08,0,0,0-.3.7C161.9,19.76,162.4,19.26,162.2,19.26Z"/><path class="cls-2" d="M110.2,28.16l-.1.1c2.1-.1,4.5.2,6.7.2h-.2a151,151,0,0,0,16.5-.3c-.1,0-.1,0-.2.1.3,0,.6-.1.9-.1.1,0-.1.1-.2.1,1.2.1,3.5-.3,4.2-.2.3,0,.5-.1.3-.2a67.35,67.35,0,0,0,13.3-2.3c.2,0,.3,0,.2.1q2.7-.9,5.4-2.1a13.86,13.86,0,0,0,4.6-3.3c0-.2-.3.2-.1-.1l-.6.6-.6.6a4.49,4.49,0,0,1-1.3,1l.1-.1c-.7.4,0,.3-.8.6-.3.1,0-.1-.1-.1a49.58,49.58,0,0,1-4.7,2.2c-.4,0-1.8.5-2.5.5-.4.2-.9.3-1,.4A103.86,103.86,0,0,1,131.4,28c-2.9.4-6.5.1-10,.1h0a29.35,29.35,0,0,1-4.2,0l-1.2.1c-8.2-.5-16.6-.9-24.9-1.8-9.5-1-17.7-2.2-26.9-2.9,0,0-.1-.1.2,0-2.7-.3-5.1-.7-7.5-1h0c-6.2-.6-12.8-1.9-18.8-2.6-1.7-.3-3.4-.6-5.4-.9.4-.3,1-.6,1.5-.9s1.3-.7,1.9-1c1.3-.7,2.6-1.3,3.9-2A52.07,52.07,0,0,1,48.3,12v.1a23.38,23.38,0,0,1,4.5-.7c1.5,0,3.1,0,4.6.1l9.2.3c6.4.4,13.1.2,19.5.7,3.9.5,9.2.1,12.9.7,7.6.9,15.1,1.1,22.7,1.3,7,.6,14.1.6,20.9,1.4,3.3,0,6.8.7,10.4.9l-.1-.1c1.3.3,2.9-.1,3.7.3h-.1c.7.2,1.6-.3,2-.1l.1-.1c.8,0,.1.1.7.2.2,0,.1-.2.6-.1.1.4,2,.1,2.1.5-.5,0,.7.2-.3.2a4.16,4.16,0,0,0,1.6,0c.1-.2.7-.3-.1-.5l-.2.1c-.3-.2-.2-.1-.3-.2-1.1-.1-1.2-.3-2-.4h0a4.58,4.58,0,0,1-1.7-.1l-.2-.1c-.2-.2-1.3.2-.9,0-2.2-.1-4.8-.3-7.3-.4-.4.1-1.9-.1-1.4.1a16.45,16.45,0,0,0-3.2-.5h.2c-1.3-.4-1.6.2-2.8-.3-.2.2-2.3-.2-3,0-.2-.1-.2-.1-.1-.2-2.3-.2-4.8-.4-6.7-.5-1.7.1-4-.4-5.4-.1-1.2-.1-3-.4-4.7-.4h.2a50.77,50.77,0,0,0-5.4-.1,9.27,9.27,0,0,0-2.1-.5c-1.2.1-3.7-.1-5.6-.1-.3-.2-1.5,0-1.6-.2a174.11,174.11,0,0,1-17.4-1h.1a18.1,18.1,0,0,1-2.3.3c-.1,0-.1-.1.1,0-1,0-2-.3-3-.3l.2-.1a30.28,30.28,0,0,0-3.1-.2l-.1-.1h-.7c0-.1.1-.2.4-.1-8.8-.5-17.9-.7-26.9-.8l.3-.1-1.8.1a.31.31,0,0,0,.2-.1,19.33,19.33,0,0,0-3.4.1,32,32,0,0,0-3.3.7s.3-.2,0-.1c-1.5.6-2.6.5-3.2,1.1-.1,0-.2-.1,0-.1q-3.15,1.2-6.3,2.7c-1,.5-2.1,1-3.1,1.5l-1.5.8-1,.6-1.1.6c-.1.1-.3.2-.4.3,1.2.2,2.4.3,3.7.5.9.2,1.9.3,2.8.5,1.9.3,3.8.6,5.7.8v.1c5,.6,10.3,1.6,15.5,2.3,2.2.3,3.6.4,5.8.7V24c3.7.2,7.6,1.3,11.5,1.4l-.3.1c.6-.1,2.3.3,2.1,0l.7.2c2.6-.1,4.7.7,7.9.8h-.2a18.09,18.09,0,0,1,2.5.2h-.3a75.09,75.09,0,0,0,8.4.7l-.3.1c1.4,0,3.8.3,5.6.3l-.1.1h.9V28C105.8,28.06,108,28.06,110.2,28.16Z"/><path class="cls-3" d="M32.4,18.86c-.4-.1,4.4,14.1,3.1,25.7s-2.3,46.6-1.5,56.9c.8,9.4,1.3,32.4.3,38.6a1.27,1.27,0,0,0,1,1.5c11.6,2.2,95.1,18.3,108.6,17.1a1.08,1.08,0,0,0,.7-.3l2.7-2.1a1.39,1.39,0,0,0,.5-1c-.2-9.1-2.3-109.4-.2-128.8.1-.8-21.5.7-51.3-1.6C77.6,23.26,44.6,21.86,32.4,18.86Z"/><polygon class="cls-2" points="32.3 19.46 32.5 19.56 33.1 19.56 32.3 19.46"/><path class="cls-2" d="M36.2,20.06c-.1,0,0-.1-.2-.1-.8,0-1.5-.1-2.3-.1C34.7,20.16,35.5,19.76,36.2,20.06Z"/><path class="cls-2" d="M36.8,20.16a4.34,4.34,0,0,0,1.5.1C38,20.36,36.7,20,36.8,20.16Z"/><path class="cls-2" d="M135.1,26l.2-.1c-3.8.2-8.1,0-12.1,0h.3c-10.2-.2-19.6-.5-29.7-1.2h-.9c-2.1-.3-6.3-.3-7.6-.5-.6,0-.9,0-.5.1-7.9-.5-16.4-1-24.4-1.4-.4-.1-.5-.1-.3-.2a190.4,190.4,0,0,1-21.1-2c-.3,0,.7.2,0,.2,2.2.4,4.2.4,6.2.7h-.3c1.5.2.3-.2,1.9.1.6.1-.2.1.1.1,3.2.3,6.5.7,9.5.7.7.2,3.4.3,4.6.5a13.05,13.05,0,0,0,2,0c11.1.9,22.5,1.4,33.8,2.3,5.3.1,11.7.8,18.1,1h0c2.1,0,5.1.1,7.5.1l2.1-.1c3.9.1,7.8.2,11.8.2h11.2v.2l-.2,2.5c-.1.9-.1,1.8-.2,2.7l-.2,5.4c-.1,3.6-.2,7.2-.3,10.7-.3,17.1-.4,32.1.2,48.8,0,0,0,.1-.1-.3.1,4.8.1,9.2.2,13.7h0c.4,11.2.3,23.4.8,34.2.1,3.3.1,6.7.2,10.2,0,.4.1.9-.2,1.2a4.36,4.36,0,0,1-1,.8c-.7.5-1.4,1.1-2.1,1.6-.3.3-.8.2-1.2.2h-2.6l-1.3-.1c-7.1-.5-14.3-1.4-21.2-2.4v-.1c-11.1-1.5-21.7-3.6-32.7-5.4-11.3-2.1-23.3-3.8-34.6-6.1-3.5-.8-7.6-1.5-11.6-2.2-1-.2-2-.3-3-.5l-.7-.1a1.08,1.08,0,0,1-.7-.3,1.47,1.47,0,0,1-.5-1.4c.3-1.9.3-3.8.5-5.4a175.36,175.36,0,0,0,.1-20.5q-.15-5.1-.6-10.2c-.3-3.4-.6-6.8-.7-10.3.1-12.7,0-25.5,1-37.8a72.45,72.45,0,0,1,.7-9.1c.2-1.6.4-3.2.5-4.8a26.93,26.93,0,0,0-.1-4.9l-.1.2c.1-2.4-.8-5.1-.7-6.6l.1.2c0-1.3-.9-2.8-.8-3.5l-.1-.2c-.3-1.5.1-.2-.1-1.3-.1-.4-.2-.1-.3-1,.3-.3-.9-3.5-.6-3.7.2.8-.2-1.3.4.5a7.32,7.32,0,0,0-.4-1.6,3.09,3.09,0,0,1-.2-.8v-.1h-.4l-.1.3h0l.1-.2-.1.2h.3a.37.37,0,0,0,.3-.1.1.1,0,0,0-.1-.1c-.1,0-.1-.1-.2-.1h-.1a.31.31,0,0,0-.2.1.1.1,0,0,1-.1.1v.4l.2.3v.6c.5,1.9.3,2.2.6,3.6h0a11.77,11.77,0,0,1,.7,3v.3c-.1.5.7,2.2.4,1.6a54.21,54.21,0,0,1,1.2,13c.1.6-.2,3.4,0,2.5a25,25,0,0,0-.5,2.8c-.1,1.1-.2,2.3-.3,2.9v-.3c-.4,2.4.1,2.9-.4,5.1.2.4-.3,4.1-.1,5.4-.1.3-.1.4-.2.3-.2,4.1-.4,8.6-.6,12.1.1,3-.3,7.2,0,9.7a77.13,77.13,0,0,0-.1,8.5v-.3a93.69,93.69,0,0,0,.4,9.8,23.67,23.67,0,0,0-.1,3.9c.3,2.2.4,6.7.7,10a27.19,27.19,0,0,1-.1,3c.3,4.7.4,10,.3,15.4,0,1.3-.1,2.7-.2,4a13.55,13.55,0,0,1-.2,2c0,.3-.1.7-.1,1l-.1.5a1.63,1.63,0,0,0,0,.7,1.85,1.85,0,0,0,.7,1.2l.6.3.5.1c.6.1,1.3.3,1.9.4,1.3.3,2.5.6,3.8.8h-.1l4.2.3c.1,0,.1.1-.2,0,1.8.3,3.5.8,5.3,1.1h-.3c1.7.2,3.5.8,5.5,1l.1.1,1.3.2c0,.1-.1.1-.8,0,15.6,3,31.8,5.5,47.8,8.2h-.6l3.1.4h-.3c4,.7,8.1,1.2,12,1.8,0,0-.6,0-.1.1,2.9.2,4.6.9,6.1.7.1,0,.2.1-.1.1,2,.2,4,.5,6.1.7l6.1.6c2.1.1,4.1.4,6.2.3h.8a2.2,2.2,0,0,0,.8-.1,2.18,2.18,0,0,0,.8-.5l.6-.5,1.2-.9.6-.5c.2-.2.5-.4.6-.7a2.2,2.2,0,0,0,.1-.8v-.6a5.7,5.7,0,0,0-.1-1.3c0-.9-.1-1.7-.1-2.6,0-1.8-.1-3.6-.1-5.4-.1-3.6-.1-7.3-.3-10.8h.1c-.4-9.1-.3-18.8-.5-28.2,0-3.9-.1-6.6-.2-10.5l.1-.1c-.4-6.6.2-13.9-.2-20.9l.1.5c-.2-1.1,0-4.2-.2-3.8l.1-1.2c-.4-4.7.2-8.6-.1-14.3l.1.4c0-1.5-.1-3.3,0-4.5v.5c.2-2.4.2-4.9.2-7.5s0-5.2.1-7.7l.1.6a94.42,94.42,0,0,1,.5-10.1v-1.2a.37.37,0,0,0-.3-.1v-.1a2.77,2.77,0,0,0-.9-.1h-5.3A46.45,46.45,0,0,0,135.1,26Z"/><path class="cls-2" d="M33.1,24.16c0-.2-.1-.3-.1-.5C33,23.76,33,24.06,33.1,24.16Z"/><path class="cls-3" d="M167.3,132.76l-17,20.4a1.31,1.31,0,0,1-2.3-.8c-3-77-1.2-115.4-.5-126.1a1.22,1.22,0,0,1,2-.9c2.2,1.7,10.5-.4,12.8-7.9.4-1.2,2.3-.6,2.4.6.2,3.1.4,7.9.7,14.9.6,13.6.6,51.2.6,58.9,0,7.4-.6,33.5,1.4,39.8A.79.79,0,0,1,167.3,132.76Z"/><path class="cls-2" d="M167.8,133.16c.1,0,.1-.1.2-.1a1.09,1.09,0,0,0,.1-.5A.86.86,0,0,1,167.8,133.16Z"/><path class="cls-2" d="M167.7,130.46v.1l.3.6a1.91,1.91,0,0,1,.3.8c0-.2,0-.5-.1-.6s-.1-.2-.2-.3S167.7,130.66,167.7,130.46Z"/><path class="cls-2" d="M167.7,130.06a1,1,0,0,0-.3-.8C167.5,129.36,167.5,130.16,167.7,130.06Z"/><path class="cls-2" d="M166.1,70.36l-.1-.1c.2,2.3,0,4.9.1,7.4v-.2c0,6.2.2,11.9.2,18.1,0-.1,0-.1-.1-.2,0,.3.1.6.1,1,0,.1-.1-.1-.1-.2-.2,1.3.1,3.8-.1,4.6,0,.4.1.5.2.3,0,4.8,0,10,.3,14.8,0,.2-.1.3-.1.2.4,4.2.4,8.6.9,12.8.1.1,0-.4.2,0a26,26,0,0,1-.4-3.7l.1.2c0-.9-.2-.2-.2-1.1,0-.4.1.1.1-.1-.2-1.9-.2-3.9-.4-5.7.1-.5,0-2.1.1-2.8a9.68,9.68,0,0,0-.2-1.2c0-6.8-.1-13.7-.1-20.6-.3-3.2.1-7.1,0-11h0c-.1-1.3-.1-3.1-.1-4.6l-.1-1.3c.2-9,0-18.2,0-27.4,0-5.2,0-10.1-.2-14.9s-.5-9.6-.9-14.7c0,0,0-.1.1.2,0-.7-.1-1.5-.1-2.2a1.75,1.75,0,0,0-1.8-1.5,1.17,1.17,0,0,0-1.1.7c-.1.2-.1.4-.2.5l-.2.5a14.17,14.17,0,0,1-.8,1.8h0a11.76,11.76,0,0,1-8.1,5.7,7,7,0,0,1-2.5-.1c-.2,0-.3-.2-.5-.3a1.49,1.49,0,0,0-.7-.3,1.55,1.55,0,0,0-1.4.5.91.91,0,0,0-.3.7,1.48,1.48,0,0,1-.1.7,5.7,5.7,0,0,1-.1,1.3,20.9,20.9,0,0,1-.1,2.5c-.5,8-.7,17.1-.7,25.5h-.1c0,6.8-.4,13.3-.2,20.1-.1,7,.4,14.3.3,21.3-.3,4.4.5,10,.3,14.1a230.16,230.16,0,0,0,.8,24.9c0,3.9.3,7.7.4,11.6,0,1,.1,1.9.1,2.9l.1,1.4a1.1,1.1,0,0,0,.6,1,1.06,1.06,0,0,0,1.2-.1c.3-.3.6-.7.9-1,.6-.7,1.3-1.4,1.9-2.1,2.1-2.9,5-5.6,7.5-8.6l-.2.1c1.1-.9,1.8-2.6,2.6-3.1l-.1.1c.6-.5.8-1.6,1.2-1.8v-.1c.6-.7.1,0,.6-.5.2-.2-.1-.2.3-.6.4.1,1.4-1.8,1.7-1.6-.3.4.6-.5,0,.4.2-.2,1.2-1.4,1-1.4-.1-.2.2-.8-.5-.2v.2a1.42,1.42,0,0,1-.4.2,10.73,10.73,0,0,1-1.7,1.5h0a9.83,9.83,0,0,1-1.2,1.5l-.2.1c-.3.1-.6,1.3-.6.8-1.5,1.9-3.3,4.1-5.1,6.2-.2.4-1.4,1.6-.8,1.3a14.21,14.21,0,0,0-2.4,2.5.31.31,0,0,1,.1-.2c-1.2.9-.9,1.5-2.1,2.4.1.3-1.7,1.9-1.9,2.7-.2.1-.2.1-.2,0-.2.2-.4.5-.6.7s-.3.3-.4.3a.81.81,0,0,1-.8-.4v-3.4c-.3-1.8-.1-4.3-.4-5.9a45,45,0,0,0-.1-5.1v.2c-.1-2-.2-4.5-.4-5.9a8,8,0,0,0,.3-2.3c-.2-1.3-.2-4.1-.4-6.1.1-.3-.1-1.7.1-1.8a170.07,170.07,0,0,1-.4-19v.1c-.1-.8-.4-1.7-.5-2.5v.1c-.1-1.1.1-2.2.1-3.3l.1.2c-.1-1.1.1-2.2,0-3.4l.1-.1-.1-.8c.1,0,.2,0,.1.5,0-9.6-.4-19.6-.3-29.5l.1.4-.1-1.9a.31.31,0,0,0,.1.2c.1-2.4,0-5,.1-7.4,0,0,.1.4.1,0-.1-1.8.3-2.8-.1-3.7,0-.1.1-.1.1,0,0-4.9.1-9.9.4-14.9-.1-2.1,0-4.2.1-6.4.1-1.1.1-2.2.2-3.3V27a2,2,0,0,1,.1-.8,1.08,1.08,0,0,1,1.1-.8v.1a1.61,1.61,0,0,1,.9.3,1.93,1.93,0,0,0,1,.3,5,5,0,0,0,2.1-.1,9.74,9.74,0,0,0,4-1.5,11.42,11.42,0,0,0,5.4-6.6,2.39,2.39,0,0,1,.3-.7.84.84,0,0,1,.7-.2,1.52,1.52,0,0,1,1.2.7,6.05,6.05,0,0,1,.2,1.5c0,.5.1,1.1.1,1.7l-.1.1c.5,4,.1,8.5.7,12.7l-.1-.3c.2.6,0,2.5.3,2.3l-.1.7c.5,2.8,0,5.2.3,8.7l-.1-.2a26.23,26.23,0,0,1,.1,2.7c0-.1,0-.1-.1-.3-.2,2.9.1,6.2.1,9.2l-.1-.3a61.42,61.42,0,0,1,.1,6.2l-.1-.1.1,1H166C165.9,65.56,166,67.86,166.1,70.36Z"/><path class="cls-2" d="M164.8,135c.1-.1.1-.2.2-.2S164.8,134.86,164.8,135Z"/><path class="cls-1" d="M36.7,33.06c12.9.9,97.9,5.2,109.1,5.8a1.24,1.24,0,0,1,1.2,1.3v.3a1.35,1.35,0,0,1-1.4,1.3L36.5,35.66a1.28,1.28,0,0,1-1.2-1.1h0A1.39,1.39,0,0,1,36.7,33.06Z"/><path class="cls-2" d="M36.8,32.36h-.2a.76.76,0,0,0-.4.2C36.4,32.46,36.6,32.46,36.8,32.36Z"/><path class="cls-2" d="M34.9,34h0a2.19,2.19,0,0,1,.8-1.4,1,1,0,0,0-.7.7A1.48,1.48,0,0,1,34.9,34Z"/><path class="cls-2" d="M34.9,34.36c0,.6.3.8.4.8-.1,0-.2-.3-.2-.5A.36.36,0,0,1,34.9,34.36Z"/><path class="cls-2" d="M80.8,38.06l.1-.1c-1.8.1-3.8-.2-5.7-.2h.1c-4.8-.3-9.2-.4-13.9-.6h.2c-.2,0-.5.1-.7.1s.1,0,.2-.1c-1-.2-2.9,0-3.6-.2-.3,0-.4.1-.3.1-3.7-.2-7.7-.3-11.5-.4-.2,0-.2-.1-.2-.1a40.08,40.08,0,0,1-4.9-.1l-2.5-.2-1.2-.1h-.3a.6.6,0,0,1-.4-.1,1.61,1.61,0,0,1-.7-.4c-.2-.1.3.4-.1.1a1.39,1.39,0,0,0,1,.5h.8a6.6,6.6,0,0,1,1.4.1l-.1.1c.7.1.2-.2.9,0,.3.1-.1.1.1.1a33.81,33.81,0,0,0,4.5.1c.3.2,1.6.1,2.1.3a2,2,0,0,0,.9-.1c5.2.4,10.6.5,15.9.8,2.5-.2,5.5.4,8.5.4h0c1,0,2.4,0,3.5.1l1-.1c6.9.7,14.1.9,21.1,1.4,8,.5,15,1.1,22.9,1.2,0,0,.1.1-.2.1,2.3.1,4.3.3,6.4.3h0c5.3,0,11,.6,16.1.7.8,0,1.6.1,2.4.1a4.87,4.87,0,0,1,1.2.1,1.46,1.46,0,0,0,1.2-.5,1.31,1.31,0,0,0,.3-1.2,1.25,1.25,0,0,0-.6-1.1c-.4-.3-.9-.2-1.3-.3l-1.3-.1c-3.3-.2-6.7-.3-10-.5v-.1c-5.2-.1-10.3-.7-15.5-.9-5.4-.4-11.1-.2-16.5-.7-3.3-.5-7.8-.1-10.9-.5a175.08,175.08,0,0,0-19.2-.9c-6-.5-11.9-.4-17.7-1-2.8.1-5.7-.6-8.8-.7l.1.1c-1.1-.3-2.5.2-3.1-.2h.1c-.6-.2-1.4.3-1.7.1l-.1.1c-.7,0-.1-.1-.6-.2-.2,0-.1.2-.5.1-.1-.4-1.7,0-1.7-.4.4,0-.6-.2.3-.2-.2-.1-1.4-.1-1.3.1-.1.2-.6.3.1.5l.2-.1a.77.77,0,0,1,.3.2c.9.1,1,.3,1.7.4h0a7.5,7.5,0,0,1,1.5,0l.1.1c.2.2,1.1-.2.8,0,1.9,0,4.1.2,6.2.3.3-.1,1.6.1,1.2-.1a11.72,11.72,0,0,0,2.7.4h-.1c1.1.3,1.4-.2,2.4.2.2-.2,1.9.2,2.6-.1.1.1.2.1.1.2,1.9.1,4,.3,5.7.4,1.4-.1,3.4.3,4.6,0,1,.1,2.6.3,4,.3H71a23.41,23.41,0,0,0,4.6,0,4.36,4.36,0,0,0,1.8.4c1-.1,3.1.1,4.7,0,.2.1,1.3,0,1.4.2a124,124,0,0,1,14.7.8h-.1c.6-.1,1.3-.3,2-.4.1,0,.1.1-.1,0a19,19,0,0,1,2.5.3l-.2.1a21.75,21.75,0,0,0,2.6.1l.1.1h.6c0,.1,0,.2-.4.1,7.4.5,15.1.5,22.8,1h1.2a.31.31,0,0,0-.2.1c1.9.2,3.8.1,5.7.3,0,0-.3.1,0,.1,1.4-.1,2.2.3,2.9,0,.1,0,.1.1,0,.1,1.9,0,3.8.1,5.7.2l2.9.2a.94.94,0,0,1,.9.5.9.9,0,0,1,.1.5,1.08,1.08,0,0,1-.1.6,1.06,1.06,0,0,1-.6.7c-.3.1-.7,0-1.1.1-.8,0-1.7-.1-2.5-.1-1.7-.1-3.4-.2-5.1-.2v-.1c-4.3,0-8.8-.5-13.2-.7-1.8-.1-3.1-.1-4.9-.2v-.1c-3.1.1-6.5-.6-9.8-.5l.2-.1c-.5.1-2-.2-1.8.1l-.6-.1c-2.2.3-4-.4-6.7-.3l.2-.1a13.42,13.42,0,0,1-2.1-.1h.2c-2.2-.4-4.8-.2-7.1-.4l.3-.1c-1.2.1-3.3-.2-4.8-.2l.1-.1H87v-.1C84.5,38.16,82.7,38.16,80.8,38.06Z"/><path class="cls-1" d="M44,19.16a1.23,1.23,0,0,0-1.5,1.3c.4,10.4,2.7,67.2,2.6,71.7-.2,5,1.1,12.6,1.1,17.7,0,4.8-.9,27.1-.2,32.7a1.28,1.28,0,0,0,1,1.1l7.1,1.3a1.25,1.25,0,0,0,1.5-1.2c.1-5.5.4-24.3,0-29.7-.5-6.4-1.7-13.3-1.2-17.1s-3-65.5-2.6-75.1a1.3,1.3,0,0,0-1-1.3Z"/><polygon class="cls-2" points="43.8 19.76 44 19.86 44.3 19.86 43.8 19.76"/><path class="cls-2" d="M46,20H44.6C45.1,20.26,45.7,19.76,46,20Z"/><path class="cls-2" d="M46.4,20.06c.5.2.7.1.8,0C47,20.16,46.3,20,46.4,20.06Z"/><path class="cls-2" d="M53.6,69.86l.1.1c-.3-2.1-.2-4.5-.4-6.7v.1c-.2-5.6-.6-10.8-.9-16.4,0,.1,0,.1.1.2,0-.3-.1-.6-.1-.9,0-.1.1.1.1.2.1-1.2-.3-3.5-.1-4.2,0-.3-.1-.5-.2-.3-.2-4.4-.5-9-.7-13.5,0-.2.1-.3.1-.2a37.07,37.07,0,0,1-.2-5.8v-.7a.9.9,0,0,0-.1-.5c-.1-.1-.2-.3-.3-.3s-.1-.1-.2-.1l-.3-.1-2.9-.6c-.2,0,.4.2,0,.2a12.23,12.23,0,0,0,1.7.3c.3,0,.6.1.8.1s.3.1.4.1a1,1,0,0,1,.3.1h-.1c.2.1.2.1.3.1s.1,0,.2.2-.1,0-.1.1a.37.37,0,0,1,.1.3v2a21.12,21.12,0,0,0,.2,2.6,19.29,19.29,0,0,0-.1,2.5,7.47,7.47,0,0,0,.2,1.1c.1,6.1.5,12.4.7,18.7.4,2.9.2,6.5.5,9.9h0c.1,1.1.2,2.8.3,4.1l.2,1.1c.1,8.2.7,16.5.8,24.8.1,2.4.1,4.6.1,6.9,0,1-.2,2.2-.2,3.3s0,2.2.1,3.3c.3,4.4,1.1,8.7,1.5,13.3,0,0,0,.1-.1-.2.2,2.6.1,5.1.2,7.6h0c.3,6.2-.1,12.9.1,18.9V143a1.94,1.94,0,0,1-.3,1.3c-.6.8-1.6.3-2.5.2-1.9-.3-3.8-.7-5.7-1.1a1.3,1.3,0,0,1-1-.9c-.1-.5-.1-1-.2-1.5-.1-1-.1-2-.1-2.9-.1-2-.1-3.9-.1-5.8h.1c-.1-6.2.4-12.1.5-18.3.1-1.6.1-3.2.1-4.8a42.16,42.16,0,0,0-.4-4.9c-.3-3.2-.8-6.5-.8-9.7,0-1,.1-2,.1-3.1s-.1-2.2-.1-3.4c-.1-2.2-.3-4.5-.2-6.3a213.47,213.47,0,0,0-.9-22.6c-.1-7-.8-14-.7-20.8-.4-3.2,0-6.8-.2-10.4l-.1.1c.2-1.3-.4-2.9-.1-3.7v.1c.2-.7-.5-1.6-.3-2l-.1-.1c-.1-.8.1-.1.1-.7,0-.2-.2-.1-.1-.6.2-.1.1-.6.1-1.1s.4-.9.5-.8c-.1.1,0,.1.1,0s.1,0-.1.3a2.18,2.18,0,0,1,.5-.4c.2-.1.5-.1.4-.2.1-.2.7-.2-.1-.5-.1,0-.1.1-.2.1-.3-.1-.2,0-.4-.1a2.07,2.07,0,0,0-1.1.9,3.81,3.81,0,0,0-.3,1h0a5,5,0,0,1,.1,1.7l-.1.2c-.1.3.4,1.2.1.9.2,2.2.3,4.8.4,7.3.1.3.1,1.9.2,1.4a11.33,11.33,0,0,0-.1,3.2v-.2c-.2,1.3.3,1.6,0,2.8.3.2,0,2.3.3,3,0,.2-.1.2-.1.2.1,2.3.1,4.7.2,6.7.3,1.6.1,3.9.4,5.3a38.7,38.7,0,0,0,.1,4.7v-.2c.1,1.8.2,4.1.4,5.4a4.71,4.71,0,0,0-.2,2.1c.2,1.2.2,3.7.4,5.5-.1.3.1,1.5-.1,1.6a122.23,122.23,0,0,1,.5,17.2V89c.1.7.4,1.5.5,2.3v-.1c0,1-.2,2-.1,3l-.1-.2a16.68,16.68,0,0,0,.2,3.1v.1l.1.7c-.1,0-.2,0-.2-.4.3,4.4,1,8.8.9,13.2s-.1,9-.2,13.5l-.1-.3.1,1.7a.31.31,0,0,0-.1-.2c-.1,2.2,0,4.5,0,6.7,0,0-.1-.3-.1,0,.2,1.6-.2,2.6.1,3.4,0,.1-.1.1-.1,0,.1,2.2.1,4.5.4,6.8a1.8,1.8,0,0,0,.6.9,6.31,6.31,0,0,0,.9.4l1.7.3c1.1.2,2.2.4,3.3.7a6.75,6.75,0,0,1,1.4.2c.3,0,.4.1.7.1a1.88,1.88,0,0,0,.8-.2,1.72,1.72,0,0,0,.8-1.4v-1.5c0-2,.1-4,0-5.9h.1c-.2-5,.1-10.4,0-15.6,0-2.2-.1-3.6-.2-5.8l.1-.1c-.5-3.6-.5-7.7-1.2-11.4l.1.3c-.2-.6-.1-2.3-.4-2.1l.1-.7a9.22,9.22,0,0,1,0-3.7,19,19,0,0,0,.1-4.2l.1.2a21.75,21.75,0,0,1-.1-2.5c0,.1,0,.1.1.3a79.54,79.54,0,0,0-.3-8.4l.1.3c-.2-1.3-.2-3.8-.3-5.6l.1.1-.1-.9h.1A23.76,23.76,0,0,1,53.6,69.86Z"/><path class="cls-1" d="M119.8,25.66c.1,12.6.7,117,3.3,130.2a1.28,1.28,0,0,0,1,1l8.8,1.5a1.32,1.32,0,0,0,1.5-1.3c-.6-13.9-4.9-114.5-2.5-131.5a1.32,1.32,0,0,0-1.3-1.5l-9.5.4A1.18,1.18,0,0,0,119.8,25.66Z"/><path class="cls-2" d="M120.5,25.66h0v-.3Q120.35,25.66,120.5,25.66Z"/><path class="cls-2" d="M121.4,24.86c-.1,0,0,0-.1-.1-.3.1-.4.1-.5.2s-.2.2-.2.3C120.8,25.26,120.8,24.76,121.4,24.86Z"/><path class="cls-2" d="M121.8,24.86a7.75,7.75,0,0,0,.9-.1C122.5,24.86,121.7,24.66,121.8,24.86Z"/><path class="cls-2" d="M131.6,73.16l.1.1c-.3-2.3-.1-4.8-.2-7.2v.2c-.1-6.1-.3-11.7-.4-17.7,0,.1,0,.1.1.2,0-.3-.1-.6-.1-.9,0-.1.1.1.1.2.2-1.3-.1-3.7,0-4.5,0-.4-.1-.5-.2-.3V36c0-1.2,0-2.5.1-3.7s0-2.4.1-3.7c0-.2.1-.3.2-.2v-3.1a.86.86,0,0,0-.6-.7h-1.5c-2.1.1-4.2.1-6.4.2-.2.1.4.1,0,.2,1.4,0,2.5-.3,3.7-.2l-.2.1c.9,0,.2-.2,1.1-.1.4,0-.1.1.1.1.9,0,1.9-.1,2.8-.1a.55.55,0,0,1,.6.4c.1.1.1.2.1.4v.7c-.2.4-.2,2-.4,2.7a3.78,3.78,0,0,0,.1,1.2c-.4,6.7-.2,13.4-.2,20.3.3,3.2,0,7,.2,10.8h0c.1,1.2.2,3,.2,4.5l.2,1.2c-.1,8.9.3,17.9.5,26.9.2,10.2.3,19.2,1.1,29.1,0,0,0,.1-.1-.2.2,2.9.2,5.5.3,8.2h0c.5,6.7.5,14,1.1,20.4.1,2,.2,4,.2,6.1a1.08,1.08,0,0,1-.8,1c-.2.1-.5,0-.7,0l-.8-.1c-1-.2-2.1-.3-3.1-.5s-2.1-.3-3.2-.5l-1.6-.3a1.28,1.28,0,0,1-1-1c-.1-1.1-.3-2.1-.4-3.1s-.2-2.1-.3-3.1h.1c-.6-6.6-.5-13.1-.9-19.7-.1-6.8-.8-14.1-.7-21,.2-4.3-.6-9.9-.3-13.9.3-8.2-.1-16.2-.5-24.5.1-7.6-.4-15.2-.2-22.5-.3-3.5.2-7.3.1-11.2l-.1.1c.2-1.4-.4-3.1,0-4v.1c.2-.7-.4-1.7-.2-2.2l-.1-.1c0-.9.1-.1.1-.8,0-.3-.2-.1-.1-.6.4-.1-.1-2.2.3-2.2,0,.5.2-.8.2.3,0-.3,0-1.8-.2-1.7-.2-.1-.3-.7-.5.2l.1.2c-.1.3-.1.2-.2.3a11.69,11.69,0,0,1-.3,2.2h0a5.74,5.74,0,0,1,.1,1.8l-.1.2c-.2.3.3,1.3,0,1,.1,2.4.1,5.2.1,7.9.1.4,0,2.1.2,1.5a13,13,0,0,0-.2,3.4v-.2c-.3,1.4.3,1.7-.1,3.1.3.2-.1,2.5.2,3.2l-.1.2v7.2c.2,1.8,0,4.3.3,5.8a41.55,41.55,0,0,0,0,5v-.2a47.33,47.33,0,0,0,.3,5.8,7.55,7.55,0,0,0-.3,2.3c.1,1.3.1,4,.3,6-.1.3.1,1.7-.1,1.8a164.77,164.77,0,0,1,.3,18.7v-.1c.1.8.4,1.7.5,2.5v-.1c.1,1.1-.1,2.1,0,3.2l-.1-.2c.1,1-.1,2.1.1,3.4v.1l.1.8c-.1,0-.2,0-.2-.5.2,9.5.8,19.2,1.2,28.9l-.1-.4.2,1.9a.35.35,0,0,1-.1-.2c0,2.4.3,4.9.5,7.2,0,0-.1-.4-.1,0,.3,1.7,0,2.8.5,3.6,0,.1-.1.1-.1,0l.3,1.8a2.77,2.77,0,0,1,.1.9,1.6,1.6,0,0,0,.7.9c.2.1.3.2.5.2s.3.1.5.1l.9.1,1.8.3,3.6.6,1.8.3a2,2,0,0,0,1.1,0,1.6,1.6,0,0,0,.9-.7,1.49,1.49,0,0,0,.2-.9l-.1-.8c0-.5-.1-1-.1-1.6-.1-1.1-.1-2.1-.2-3.2-.1-2.2-.2-4.3-.4-6.4h.1c-.4-5.4-.4-11.2-.7-16.8-.1-2.3-.2-3.9-.3-6.3l.1-.1c-.4-3.9,0-8.3-.5-12.4l.1.3c-.2-.6,0-2.5-.3-2.2l.1-.7c-.5-2.8,0-5.1-.3-8.5l.1.2a12.64,12.64,0,0,1-.1-2.7c0,.1,0,.1.1.3.2-2.9-.2-6-.3-9.1l.1.3c-.2-1.5-.1-4.1-.2-6.1l.1.1-.1-1h.1C131.8,78,131.7,75.56,131.6,73.16Z"/><path class="cls-1" d="M119.2,24.46c-1.8,1.2-5,14.3-6.6,24.3-1.4,8.8-13.1,39.9-30.6,44.6-5.5,1.5,9.1,8.4,9.1,8.4,2.4-2.9,23.9-3.8,40.4-77.4C131.8,23.66,122.8,22.06,119.2,24.46Z"/><polygon class="cls-2" points="120 25.56 120.1 25.56 120.1 25.36 120 25.56"/><path class="cls-2" d="M120.9,24.66a.1.1,0,0,1-.1-.1,9.22,9.22,0,0,0-.5.8C120.7,25.56,120.6,24.46,120.9,24.66Z"/><path class="cls-2" d="M121.2,24.56c.3,0,.4-.3.5-.4C121.6,24.46,121,24.36,121.2,24.56Z"/><path class="cls-2" d="M124,53.06l.2.2c.1-1.6,1-3.2,1.4-4.8v.1a121.36,121.36,0,0,0,2.9-11.9c0,.1.1.1.1.2,0-.2-.1-.5,0-.7.1,0,.1.1.1.2.6-.8.4-2.6.8-3,0-.2-.1-.4-.2-.3.3-1.3.6-2.7.9-4l.4-2.1.2-1,.1-.5v-.3c0-.1.1-.3-.1-.3a.6.6,0,0,0-.4-.1v-.3c-2.7,0-5.6-.5-8.3-.1-.1.2.3.1.1.3.8,0,1.5-.6,2.3-.4l-.1.2c.6.1.1-.4.7-.2.2.1-.1.2.1.2,1.2-.1,2.5.2,3.7,0,.1.2.4.2.8.3.2,0,.3.1.5.1V25c.1-.1.2,0,.4-.2a.14.14,0,0,1,0,.2c0,.1,0,.1-.1.4l-.2.8-.4,1.6c-.2,1.1-.5,2.1-.7,3.2-.5,2.1-1,4.3-1.5,6.5,0,2.3-1.4,4.6-1.9,7.2h-.1a16.28,16.28,0,0,1-.7,3v.9c-2.3,5.7-4,11.7-6.6,17.3-.7,1.6-1.4,3.1-2.2,4.6s-1.5,3-2.2,4.4c-1.5,2.9-3,5.8-4.4,8.9,0,0-.1,0,0-.2A20,20,0,0,1,108,86c-.5.7-1.1,1.5-1.6,2.2h0a28.72,28.72,0,0,1-4.4,5.5c-1.7,1.7-3.5,3.1-5.2,4.6a17.49,17.49,0,0,1-2.7,1.6c-.5.3-1,.5-1.5.8-.2.1-.5.3-.7.4a2.65,2.65,0,0,0-.6.5,15,15,0,0,1-2.2-1.1c-.8-.4-1.6-.8-2.4-1.3a23.51,23.51,0,0,1-4.5-3l.1-.1a3.78,3.78,0,0,1-1-1.2,1.1,1.1,0,0,1,0-.8,1.47,1.47,0,0,1,.6-.5c1-.3,2.2-.6,3.2-1a19.61,19.61,0,0,0,5.9-3.5,22.41,22.41,0,0,0,5-5.2c1.5-2,2.8-4,4.3-5.9,2.2-2.1,3-6.2,4.8-8.3,3.4-4.6,5-10.1,6.2-15.7a23.76,23.76,0,0,0,1.1-3.8c.3-1.3.4-2.6.6-3.9a37.16,37.16,0,0,1,1.7-7.5c.1-2.5,1.7-4.8,2.3-7.4h-.2c.7-.8,0-2.2.8-2.6v.1c.5-.4-.4-1.4.1-1.5l-.1-.1c.2-.6.2,0,.5-.4,0-.2-.3-.2,0-.5.7.2.5-1.5,1.3-1.1-.2.3.5-.2.3.4.1,0,.2-.3.3-.5a.3.3,0,0,0,0-.4c-.1-.3,0-.9-.7-.7a.37.37,0,0,0,.1.3H119c-.5.7-.9.7-1.3,1.2h0c.1.5-.3,1-.4,1.3l-.2.1c-.4.1.3,1.1-.2.7-.4,1.6-.9,3.5-1.4,5.3.1.3-.4,1.4.1,1.1a4.59,4.59,0,0,0-1.1,2.2s-.1-.1,0-.1c-.8.9.3,1.3-.6,2,.4.2-.5,1.6-.1,2.3a.19.19,0,0,1-.3,0c-.4,1.7-.9,3.5-1.2,4.9.2,1.3-.7,2.9-.3,4a12.89,12.89,0,0,0-1,3.3v-.1a22.56,22.56,0,0,0-.8,3.9c-.7.2-.8.8-1.1,1.3,0,.9-.8,2.6-1.1,4-.3.1-.3,1.1-.7,1a29,29,0,0,1-5.8,11.3V74c-.1.6,0,1.3-.1,1.9-.1,0-.1,0,0-.1-.3.7-1,1.1-1.4,1.7-.1,0,0,0,0-.2-.3.7-1.1,1-1.3,1.9h-.1l-.2.5c-.1-.1-.2-.2,0-.4a63.29,63.29,0,0,1-6.2,7.5A28.33,28.33,0,0,1,88.5,90a22.15,22.15,0,0,1-4.3,2.3l.2-.2a10.91,10.91,0,0,1-1.1.6c0-.1,0-.1.1-.2-.2,0-.4.1-.6.1l-.3.1-.4.2a1.75,1.75,0,0,0-1.2,1.3,2.2,2.2,0,0,0,.5,1.6l.3.3.2.2.5.5s-.3-.1-.2.2c1.2.6,1.3,1.6,2.2,1.4,0,.1,0,.2-.2.2,1.2.7,2.4,1.3,3.6,2l1.8,1,.9.5c.4.2.9.5,1.3.7a7,7,0,0,1,1-.8c.3-.1.5-.3.8-.4,2.2-1.8,5.2-3,7.1-5.4l.1.1c2.6-2.8,5.5-5.5,7.7-8.7a9.39,9.39,0,0,0,1.2-1.8c.3-.6.7-1.2,1.1-1.9l.2.1c.9-2.6,3.4-4.7,4.1-7.6l.1.3c-.1-.6.9-1.5.3-1.6l.4-.4c.1-2.1,1.9-3,2.3-5.4l.1.2a6.69,6.69,0,0,1,.7-1.7V68c1.3-1.6,1.5-3.9,2.3-5.8l.2.3c.1-1.1,1-2.7,1.3-4l.1.1.1-.7.2.1A13.62,13.62,0,0,1,124,53.06Z"/><path class="cls-2" d="M117,25.86c0-.1.1-.1.1-.2C117.1,25.76,117.1,25.86,117,25.86Z"/><path class="cls-4" d="M42.4,20.46s-2.5,15.7,6.7,33c35.1,66.2,47.2,45.4,47.2,45.4-9.3-4.6-38.4-38.3-44.5-77.1C51.8,21.76,42.7,18.56,42.4,20.46Z"/><path class="cls-2" d="M43,20.56h0c-.1,0-.1-.1,0,0Z"/><path class="cls-2" d="M43.8,20.26h0a1.21,1.21,0,0,0-.8.3C43.3,20.66,43.6,20.16,43.8,20.26Z"/><path class="cls-2" d="M44.1,20.36a.56.56,0,0,0,.6-.1C44.6,20.36,44,20.16,44.1,20.36Z"/><path class="cls-2" d="M58.4,46.56a.1.1,0,0,0-.1-.1A.1.1,0,0,1,58.4,46.56Z"/><path class="cls-2" d="M62.3,54.36h.1c-.9-1.4-1.4-3.2-2.2-4.7l.1.1c-.8-2-1.6-4-2.4-5.9-.4-1-.8-2-1.1-2.9s-.7-2-1.1-3a.1.1,0,0,0,.1.1l-.3-.6c0-.1.1,0,.1.1a15.43,15.43,0,0,0-.5-1.7,6.76,6.76,0,0,1-.4-1.5c-.1-.2-.2-.3-.2-.2-.5-1.6-.9-3.3-1.4-5s-.8-3.5-1.2-5.2c0-.2,0-.2.1-.2l-.3-1.1-.1-.5s0-.2-.1-.2c-.7-.2-1.3-.4-2-.6a31.45,31.45,0,0,0-4.4-1.1c-.1.1.3.1,0,.2a11.93,11.93,0,0,1,2.6.5h-.1c.6.2.2-.2.8.1.2.1-.1.1,0,.1.7.2,1.3.4,2,.6l1,.3h.2l.1.1c-.1.3.3,1.4.2,2a3.39,3.39,0,0,0,.3.8c.2,1.2.4,2.4.7,3.6s.6,2.3.9,3.5.7,2.4,1,3.5.8,2.3,1.2,3.5a23.42,23.42,0,0,1,1.3,3.5c.4,1.2.9,2.5,1.4,3.8h0c.4.8.9,2,1.3,3a3.51,3.51,0,0,0,.5.8,127.24,127.24,0,0,0,8.7,17.3c3.8,6.3,7.3,11.8,12.1,17.1,0,0,0,.1-.1-.1.7.8,1.3,1.6,1.9,2.3L85,89h0a15.93,15.93,0,0,0,1.3,1.3l1.3,1.3a33.15,33.15,0,0,0,2.7,2.6,32.18,32.18,0,0,0,2.8,2.4c.5.4,1,.7,1.5,1.1s1.1.6,1.5.8c.1.1.3.1.3.3a1.38,1.38,0,0,0-.3.4l-.7.7a5.67,5.67,0,0,1-1.8,1.2,8.15,8.15,0,0,1-4.4.5,20.55,20.55,0,0,1-8.2-3.8h0c-3.9-2.8-6.8-6.5-9.9-10.1-3-3.9-6.4-7.9-8.9-12.1-1.4-2.7-4.1-5.8-5.3-8.5-2.6-5.4-5.7-10.2-8.6-15.4a71.23,71.23,0,0,1-3.1-7.6,44.31,44.31,0,0,1-1.9-7.8c-.7-2.4-.6-5.3-.7-8l-.1.1c.2-1-.4-2.2,0-2.9v.1c.2-.5-.4-1.2-.2-1.6l-.1-.1c0-.6.1-.1.2-.6,0-.2-.2-.1-.1-.5.4-.1,0-1.6.4-1.6,0,.3.2-.5.2.3.1-.2.2-1.3,0-1.2-.2-.1-.3-.6-.5.1l.1.1c-.2.2-.1.2-.2.2a12.26,12.26,0,0,1-.4,1.6h0a5.63,5.63,0,0,1,0,1.3l-.1.1c-.2.2.3,1,0,.7a55.87,55.87,0,0,0,.3,5.7c.1.3.1,1.5.3,1a7,7,0,0,0,0,2.5.1.1,0,0,1-.1-.1c-.1,1.1.4,1.2.3,2.2.3.1.3,1.8.7,2.3,0,.1-.1.2-.1.1l.6,2.7c.2.9.5,1.7.7,2.4.6,1.2.9,3,1.6,3.9a15.33,15.33,0,0,0,1.4,3.4l-.1-.1a24.35,24.35,0,0,0,2.1,3.7c-.1.5.3,1,.5,1.6.6.8,1.5,2.5,2.3,3.7,0,.3.6,1,.5,1.2,2.3,3.4,4.7,7.8,6.8,11.6h0l1.3,1.3c0,.1,0,.1-.1,0a13.24,13.24,0,0,0,1.2,2l-.1-.1a22.63,22.63,0,0,0,1.3,2v.1l.4.4c-.1,0-.2.1-.3-.2a105.61,105.61,0,0,0,13.1,16.2l-.2-.1,1.1.9a.1.1,0,0,1-.1-.1,42.34,42.34,0,0,0,4,3.4s-.3-.1-.1.1c1.1.6,1.5,1.4,2.3,1.4a.1.1,0,0,1-.1.1,21.3,21.3,0,0,0,4.9,2.1,9.91,9.91,0,0,0,5.4-.1,6.25,6.25,0,0,0,2-1.3c.3-.3.6-.5.9-.8a3.11,3.11,0,0,0,.4-.6c.1-.1.1-.2.2-.3v-.1H97l-.2-.1c-.2-.1-.4-.3-.6-.4l-.5-.3c-.3-.2-.7-.4-1-.6a12.74,12.74,0,0,0-1.9-1.3h.1a69,69,0,0,1-8.6-8.5c-1.1-1.3-1.8-2.1-2.9-3.4v-.1a19.12,19.12,0,0,1-2.7-3.5c-.9-1.2-1.7-2.5-2.7-3.6l.2.1c-.4-.3-1-1.5-1.1-1.2l-.2-.5a12.42,12.42,0,0,1-1.7-2.3,20.07,20.07,0,0,0-1.7-2.7l.1.1c-.4-.5-.8-1.2-1.1-1.6,0,.1,0,0,.1.1-.9-1.9-2.2-3.7-3.3-5.6l.2.1a22.35,22.35,0,0,1-2.1-3.8h.1l-.4-.6.1-.1A15.51,15.51,0,0,1,62.3,54.36Z"/><path class="cls-2" d="M55.5,37.56h0C55.6,37.66,55.5,37.66,55.5,37.56Z"/></svg>