<svg id="Layer_1" data-name="Layer 1" xmlns="http://www.w3.org/2000/svg" viewBox="0 0 200 170"><defs><style>.cls-1{fill:#bbdcc8;}.cls-2{fill:#68be96;}.cls-3{fill:#e9f4ed;}.cls-4{fill:#daece1;}</style></defs><title>Artboard 1 copy</title><path class="cls-1" d="M181.77,27c-4-.4-63.4-5.6-76.3-6.4-9.6-.6-20.9-1.2-28.5,1.9-9,3.6-58.4,22.8-58.4,22.8,24.8,2.4,80.1,7.7,90.7,8.9,12,1.3,16-.6,20.9-2.2C133.87,50.66,164.57,35,181.77,27Z"/><polygon class="cls-2" points="181.17 25.76 180.97 25.76 180.77 26.16 181.17 25.76"/><path class="cls-2" d="M178.87,27.36c.1,0,.1.1.2.1l1.2-1.2C179.47,26.16,179.47,27.36,178.87,27.36Z"/><path class="cls-2" d="M178.47,27.46a1.08,1.08,0,0,0-.8.6C177.77,27.86,178.67,27.66,178.47,27.46Z"/><path class="cls-2" d="M129.57,51.26c.1,0,.1-.1.2-.1Z"/><path class="cls-2" d="M115.87,54.66l-.2.2c1.3-.2,2.8-.2,4.2-.3a31.76,31.76,0,0,0,4.3-.6l-.2.1a42.84,42.84,0,0,0,5.1-1.5,28.13,28.13,0,0,0,4.7-2.1c3-1.5,6-3.2,9.2-4.8l-.2.2a7.05,7.05,0,0,1,.9-.7c.1,0-.1.1-.2.2,1.5-.3,3.8-2.1,4.8-2.3.4-.2.5-.4.2-.4,4.9-2.5,10.2-5.2,15.1-8,.3-.1.4,0,.3.1a90.86,90.86,0,0,1,13.2-6.7c.1-.2-.5.1-.2-.3-1.5.5-2.5,1.6-3.9,2l.1-.2c-1,.4,0,.4-1.1.7-.4.1,0-.2-.2-.1a36,36,0,0,0-5.8,3.2c-.6-.1-2.1,1-3,1.1-.5.4-1,.6-1.1.9-7.1,3.3-14,7.1-21.2,10.6a26.56,26.56,0,0,1-5.3,2.8c-2,.8-4,1.7-6,2.5v-.1a23.54,23.54,0,0,1-4.9,1.7c-.4.2-.9.4-1.3.6-5.1.7-10.3.2-15.5-.3s-10.5-1-15.7-1.6c-11.9-1.3-22.3-2.8-33.9-3.1,0-.1-.1-.1.2-.1-3.4-.2-6.4-.7-9.5-.9v-.1c-7.9-.2-16.3-1.7-23.9-1.8l-2.9-.3a16.41,16.41,0,0,0-2.3-.2c-.2,0,0,0,.1-.1l.3-.1a1.42,1.42,0,0,1,.6-.2c.4-.2.8-.3,1.2-.5,2.8-1.1,5.8-2.3,8.8-3.5s6.3-2.6,9.4-3.8V37c7.2-3.1,14.4-5.2,21.6-8.2,3.8-1.3,7.6-3,11.3-4.7,1.9-.8,3.8-1.7,5.7-2.4a31.89,31.89,0,0,1,6-1.2c5-.1,11.5-1.2,16.2-.3,4.8.7,9.5,1.3,14.2,1.6s9.5.4,14.3.5c8.8,1.1,17.8,1,26.3,2.4,4.1-.1,8.5,1.3,13,1.5l-.1-.2c1.6.6,3.7-.4,4.6.4H173c.8.4,2.1-.7,2.6-.2l.2-.2c1,0,.1.2.9.3.3,0,.1-.3.8-.2.1.7,2.6.1,2.6.9-.6,0,.9.4-.4.4.4.1,2.1.2,2-.1.2-.3.9-.6-.1-1l-.2.2c-.3-.3-.3-.2-.4-.4-1.4-.2-1.5-.6-2.5-.8h0a4.07,4.07,0,0,1-2.2-.1l-.2-.2c-.3-.3-1.6.5-1.2,0-2.8-.1-6.1-.4-9.2-.6-.5.2-2.4-.2-1.8.2a13.67,13.67,0,0,0-4-.9.35.35,0,0,1,.2-.1c-1.6-.7-2,.4-3.6-.5-.3.5-2.9-.4-3.8.1-.2-.1-.2-.2-.2-.3-2.8-.3-6-.7-8.4-.9-2.1.3-5-.6-6.8-.2a25.52,25.52,0,0,0-5.9-.6l.2-.1a31.39,31.39,0,0,0-6.8-.1c-.6-.6-1.6-.6-2.6-.9-1.6.1-4.7-.2-7-.2-.3-.3-1.9-.1-2-.4-6.6.2-14.8-.8-21.9-1.2h.1a17.18,17.18,0,0,0-2.9,1.1c-.1,0-.1-.1.1-.1-1.3.2-2.5-.1-3.8.1,0-.1,0-.1.2-.2-1.2.3-2.6,0-4,.7l-.1-.1-.9.4c0-.1,0-.3.5-.4a19.56,19.56,0,0,0-4.1,1.3c-1.3.5-2.6,1-3.9,1.6-2.6,1.1-5.2,2.2-7.8,3.2-5.2,2.2-10.5,4.4-15.8,6.4l.3-.3-2,1c0-.1.1-.1.2-.2-2.7.8-5.3,2.2-7.8,3.2,0-.1.3-.3-.1-.3-1.8,1.1-3.2.8-3.9,1.8-.1,0-.2-.1,0-.3l-7.2,3-3.6,1.4c-1.7.6-3.4,1.3-5,1.9l-.7.6a.78.78,0,0,1-.4.4c0,.1-.3.2-.1.2l.4.1a8.47,8.47,0,0,0,1.7.4l3.4.3,2.7.3a46.66,46.66,0,0,0,5.2.3v.1c6.4.2,13,1.3,19.6,1.9,2.7.3,4.6.3,7.3.6l.1.2c4.7-.2,9.6,1.5,14.5,1.3l-.4.2c.8-.3,2.9.4,2.7-.2l.8.3c3.3-.5,5.9.9,10,.8l-.3.1a14.67,14.67,0,0,1,3.1.2c-.1,0-.1.1-.3.1,3.3.9,7.1.6,10.6,1l-.4.2c1.7-.1,4.8.5,7.1.5l-.1.1,1.1-.1v.2A24.87,24.87,0,0,0,115.87,54.66Z"/><path class="cls-2" d="M143.57,45.46h0C143.47,45.56,143.47,45.46,143.57,45.46Z"/><path class="cls-2" d="M178.07,25.56c.1,0,.2.1.4.1A.6.6,0,0,0,178.07,25.56Z"/><path class="cls-3" d="M197.47,29.76s-2,61-3.3,69.9c-1,6.6-7,12.2-16.1,19.9-8.1,6.9-35.4,27.7-42.2,32.1s-14.4,4.7-19.5,4.5c-6.6-.4-83.3-11.7-92.6-11.7s-11.5-8.8-12.3-18.3S4.27,53,4.27,53s98,9.1,105.4,9.3c7.8.3,14.4.3,24.4-3.8C146,53.66,197.47,29.76,197.47,29.76Z"/><path class="cls-2" d="M198.67,29.06c-.2-.1-.4-.3-.8-.5a2.1,2.1,0,0,0-1.4.2l-.1.1-.1.1-.1.1a4.77,4.77,0,0,1,.8-.4,1.7,1.7,0,0,1,1,0A4.35,4.35,0,0,1,198.67,29.06Z"/><path class="cls-2" d="M193.07,30.86c.1,0,.1.1.2,0l2.2-1.7C194.17,29.46,193.87,30.66,193.07,30.86Z"/><path class="cls-2" d="M192.27,31.06c-1,.3-1.3.7-1.4.9C191.07,31.66,192.67,31.26,192.27,31.06Z"/><path class="cls-2" d="M84.67,60.36l-.3.2c4.4,0,9.4.8,14,1l-.3.1a170,170,0,0,0,17.3.9,61.3,61.3,0,0,0,8.5-.9,49.44,49.44,0,0,0,8.3-2.5c-.2.1-.2.2-.4.3a8,8,0,0,1,1.6-.8c.2,0-.1.2-.3.3,2.4-.6,6.6-3.1,8.1-3.4.6-.3.8-.6.4-.5,8.4-3.8,17.3-8,25.7-12.1.4-.1.5-.1.5.1,7-3.9,14.8-7.2,22.2-10.5.2-.3-.8.2-.2-.3-2.5.9-4.2,2.4-6.5,3.1l.2-.3c-1.6.6-.2.5-1.9,1.1-.7.2.1-.2-.2-.1-3.3,1.6-6.9,3.1-9.9,4.9-.9.1-3.6,1.6-5,1.9a10.69,10.69,0,0,0-1.9,1.2c-5.9,2.6-11.8,5.4-17.8,8.1-3,1.4-6,2.8-9,4.1a78.18,78.18,0,0,1-9.1,3.6,27,27,0,0,1-9.7,2c-3.5.2-7.2-.1-10.8-.2v-.1c-2.4,0-5.9-.2-8.7-.5l-2.4.1c-17.1-2-34.7-3.2-52.1-5-9.9-1-19.2-1.9-28.4-2.9l-6.9-.6-3.5-.3-2.8-.2c-.4-.1-.2.3-.2.5l.1.7.2,1.5c.3,2.3.6,4.7.9,7.1s.6,4.7,1,7.1c-.1,0-.1.1-.2-.4.7,5.5,1,10.6,1.6,15.9h-.1c1.8,12.9,2.6,27.1,4.4,39.5.2,1.9.3,3.9.6,5.8a41.16,41.16,0,0,0,1.2,5.9,16.59,16.59,0,0,0,2.7,5.5,9,9,0,0,0,5.2,3.3c.5.1,1,.2,1.6.3l1.6.1c1,.1,2.1.1,3.1.2l6.2.6c4.1.4,8.2.9,12.2,1.4l-.1.1c12.9,1.4,25.3,3.8,38.1,5.3,6.6,1,13.4,1.8,20.2,2.5s13.7,1.9,20.4,1.2a22.9,22.9,0,0,0,12.7-4.9c3.8-2.8,7.4-5.8,10.8-7.8a225.67,225.67,0,0,0,19.2-14.1,204.35,204.35,0,0,0,17.9-15.8,38.06,38.06,0,0,0,7.2-8.3,15.74,15.74,0,0,0,1.9-5.1,48.86,48.86,0,0,0,.5-5.5c.4-7.3.7-14.6,1.4-21.7-.1-6.8,1.2-14.2,1.3-21.8l-.2.3c.6-2.7-.4-6.1.3-7.7v.3c.4-1.4-.7-3.4-.3-4.2l-.2-.2c0-1.7.2-.2.3-1.5,0-.5-.3-.2-.2-1.3.7-.2,0-4.3.8-4.4,0,1,.4-1.5.5.7.1-.6.2-3.5-.2-3.3-.4-.3-.6-1.4-1,.4l.3.4c-.3.6-.1.4-.4.7-.1,2.3-.5,2.6-.7,4.3h0a14.43,14.43,0,0,1,0,3.6l-.2.4c-.3.5.5,2.7,0,1.9,0,4.7-.2,10.1-.4,15.3.2.7-.2,4,.3,2.9a29.07,29.07,0,0,0-.8,6.6c0-.1-.1-.1-.1-.3-.7,2.8.4,3.4-.4,6,.5.4-.4,4.8.1,6.3q-.15.45-.3.3c-.2,4.7-.7,10-1,14a37.59,37.59,0,0,1-.3,5.7c-.1.5-.1,1-.2,1.4a6.11,6.11,0,0,1-.3,1.3c-.2.8-.4,1.6-.6,2.3-1,2.1-3.5,4.9-5.7,7.5l.2-.3c-2.6,2.8-6.2,5.9-8,7.9-1.2.3-2.4,1.5-3.8,2.4-1.8,1.8-5.9,5-8.9,7.6-.6.2-2.5,2.1-2.9,1.9a171.45,171.45,0,0,1-14,11.2c-2.5,1.9-5.1,3.7-7.6,5.4-1.3.9-2.6,1.7-3.8,2.5s-2.5,1.6-3.7,2.2l.1-.1a37.32,37.32,0,0,1-3.8,2.8c-.2,0-.2,0,.1-.2a25.54,25.54,0,0,1-6,1.2c0-.1,0-.1.3-.2-1.9.5-4,.1-6.4.4l-.1-.1c-.5,0-1,.1-1.5.1,0-.1.1-.3.9-.2-1.1,0-2.2-.2-3.4-.3s-2.3-.3-3.4-.4l-6.9-.9c-4.6-.6-9.3-1.1-14-1.7-9.4-1.1-18.8-2.3-28.1-3.6h.7l-3.7-.3c0-.1.2-.1.4-.1-4.6-.8-9.5-1.1-14-1.7,0-.1.7-.1.1-.2-3.4-.1-5.3-1.1-7.1-.6-.2-.1-.2-.2.1-.2-4.7-.4-9.4-1-14.2-1.2a10,10,0,0,1-6.3-1.9,12.34,12.34,0,0,1-3.6-5.6c-1.6-3.5-2-7.7-2.4-11.9s-.8-8.4-1.5-12.5H10c-1.5-10.5-2.1-21.7-3.3-32.6-.4-4.5-.9-7.6-1.3-12.1l.2-.1a111.44,111.44,0,0,1-1.2-11.9l-.1-1.3v-.6l.6.1c.7.1,1.9.2,2.8.3,2,.2,4.1.3,6.1.3l-.6.2c1.3-.2,4.8.6,4.4-.1l1.4.3c5.5-.3,9.9,1.3,16.6,1.4l-.5.1c1.8.1,3.9.2,5.2.4-.2,0-.1.1-.5,0,5.5,1.1,11.7,1,17.6,1.6l-.7.2c2.9,0,8,.7,11.8.9l-.2.1h1.9v.2C75.37,59.76,80,60,84.67,60.36Z"/><path class="cls-2" d="M133.17,58.76h0C133,58.86,133.07,58.86,133.17,58.76Z"/><path class="cls-2" d="M196.17,36a1.27,1.27,0,0,1,.1-.6C196.17,35.46,196.17,35.76,196.17,36Z"/><path class="cls-4" d="M6.57,44.06S66,19.86,76,16.36c9.7-3.4,19.1-2.4,30-2.1,7.9.2,72,7,87.1,8.1L182,27s-63.1-5.6-76.5-6.4c-9.6-.6-20.9-1.2-28.5,1.9-9,3.6-58.4,22.8-58.4,22.8Z"/><polygon class="cls-2" points="6.37 45.36 6.57 45.46 7.07 45.36 6.37 45.36"/><path class="cls-2" d="M9.57,45.26c-.1,0,0-.1-.1-.2l-1.9.4C8.37,46,9.07,45,9.57,45.26Z"/><path class="cls-2" d="M10.07,45.36a1.37,1.37,0,0,0,1.2-.1C11,45.46,10,45.06,10.07,45.36Z"/><path class="cls-2" d="M68.87,26.46c-.1,0-.1.1-.2.1A.31.31,0,0,1,68.87,26.46Z"/><path class="cls-2" d="M84,20.46l.1-.2c-1.5.4-3.1.7-4.7,1.1a22.92,22.92,0,0,0-4.6,1.7l.2-.2c-7.6,2.9-14.4,5.9-21.9,9l.2-.2a3.88,3.88,0,0,1-1.1.6c-.1,0,.1-.1.2-.2-1.7.3-4.6,2-5.7,2.2-.4.2-.6.4-.3.4-5.8,2.4-12.1,4.9-18,7.5-.3.1-.4,0-.4-.2a59.76,59.76,0,0,1-7.7,3.4l-1,.4-.7.3c-.3,0-.6-.1-.8-.1l-2.1-.2c-1.4-.2-2.8-.3-4.2-.5-.2.1.6.2,0,.3,1.8.4,3.3-.1,4.9.4l-.2.1c1.2.2.3-.4,1.5,0,.5.2-.1.2.1.2l.7.1c.2,0,.3-.1.4-.1l.3-.1.9-.4c.6-.2,1.2-.5,1.8-.7a35.39,35.39,0,0,0,3.4-1.6c.7.1,2.5-1,3.5-1,.6-.4,1.2-.6,1.3-.9,8.3-3.1,16.6-6.7,25.1-9.9,3.7-2.1,8.7-3.3,13.4-5.3v.1a56.94,56.94,0,0,1,5.5-2.3l1.4-.9c1.4-.5,2.8-.9,4.2-1.3a32.09,32.09,0,0,1,4.3-.7,65.48,65.48,0,0,1,8.9-.5,179,179,0,0,1,17.9,1c13.6,1.3,25.4,2.8,38.7,3,0,.1.1.1-.3.1,3.8.2,7.3.7,10.9.9v.1c4.5.1,9.1.5,13.7.9l6.8.6.9.1a.76.76,0,0,0,.5-.2l.4-.2c.5-.2,1-.5,1.5-.7,1-.5,2-.9,3-1.4s2.2-.9,3.5-1.4a21.16,21.16,0,0,0,2.1-1.1c.2-.1,0-.1-.1-.1l-.3-.1c-.2,0-.4-.1-.6-.1-.4-.1-.9-.1-1.3-.2-7.9-.7-16.5-1.4-24.7-2.2v-.1c-8.9-.6-17.4-2.1-26.2-2.8-9.1-1.2-18.8-1.1-27.9-2.3a31,31,0,0,0-4.5-.5c-1.6-.1-3.2,0-4.9,0a65.22,65.22,0,0,1-9.1-.3,39,39,0,0,0-16.3,1.6c-2.6.9-5,2-7.5,3.1s-5,2.3-7.5,3.4c-9.6,3.4-18.6,8-28,11-4.1,2.2-9.3,3.2-14,5.2l.2.1c-1.9.3-3.6,2.2-4.9,2l.2-.1c-1,0-1.8,1.6-2.5,1.5l-.1.2c-1.1.5-.2-.1-1.1.1-.3.2,0,.3-.7.5-.4-.6-2.6,1.2-3,.5.6-.2-1.1.1.2-.6-.4.1-2.3.9-2,1.1,0,.4-.6,1,.6.8l.1-.3c.5.1.3,0,.5.1,1.5-.6,1.8-.3,2.9-.6h0a5.77,5.77,0,0,1,2.3-1h.3c.5.1,1.4-1.2,1.2-.6,2.9-1.3,6.4-2.7,9.7-4.1.4-.4,2.6-1,1.7-1.1a13.72,13.72,0,0,0,4.4-1.2c0,.1,0,.1-.2.2,2-.2,1.9-1.4,3.9-1.4.1-.6,3.1-1.1,3.8-2,.2,0,.4.1.3.2,3-1.2,6.4-2.4,9-3.4,2-1.3,5.4-1.9,7-3.2a39.43,39.43,0,0,0,6.3-2.4l-.2.2a51.77,51.77,0,0,0,7-3.3c.9.3,2-.3,3.1-.5,1.5-.9,4.9-2.1,7.3-3.2.4.1,2.1-.7,2.3-.4a34.58,34.58,0,0,1,11.9-1.8c4.2,0,8.6.5,12.6.9h-.1c1.1-.2,2.3-.6,3.3-.8.1,0,.1.1-.1.1,1.5,0,2.8.5,4.3.6,0,.1,0,.1-.3.1,1.4-.1,2.8.5,4.5.4l.1.1h1c0,.1-.1.3-.6.2,12.6,1.3,25.6,1.9,38.5,3.3l-.5.1h2.5c0,.1-.1.1-.3.1,3.2.5,6.5.5,9.6.9,0,.1-.5.1-.1.2,2.3-.1,3.7.8,4.9.2.1,0,.2.2-.1.2,3.2.2,6.4.4,9.6.7l4.8.5,2.2.2,1.1.1h2.4c-.3.2-.9.4-1.5.7s-1.2.5-1.9.8l-2.6,1.1c-.9.4-1.8.8-2.6,1.1-.2.1-.3.2-.5.2h-2.1v-.1c-7.3-.2-14.9-1.3-22.4-1.8-3.1-.3-5.2-.3-8.3-.6l-.1-.2c-5.3.2-11-1.5-16.6-1.3l.4-.2c-.9.3-3.3-.4-3,.2l-1-.3c-3.8.5-6.8-.9-11.4-.8l.3-.1a18.87,18.87,0,0,1-3.5-.2c.1,0,.1-.1.4-.1a38.05,38.05,0,0,0-5.9-.7c-2-.1-4.1-.1-6.1-.2l.5-.2c-2,.2-5.5-.3-8.1-.2l.2-.1-1.3.2v-.2C90.27,19.66,87.17,20,84,20.46Z"/><path class="cls-2" d="M52.47,32.16Z"/><path class="cls-2" d="M11,43.46c-.1,0-.3.1-.4.1S10.87,43.56,11,43.46Z"/><polygon class="cls-2" points="191.57 104.76 191.57 104.76 191.27 104.96 191.57 104.76"/><path class="cls-2" d="M190.07,105.16a.1.1,0,0,0,.1.1l.9-.5C190.67,104.36,190.27,105.36,190.07,105.16Z"/><path class="cls-2" d="M189.87,105.06c-.3-.2-.5.1-.6.2C189.37,105.06,189.87,105.36,189.87,105.06Z"/><path class="cls-2" d="M159.67,102.66h.1C159.77,102.56,159.67,102.56,159.67,102.66Z"/><path class="cls-2" d="M151.77,102.86l-.1.2c1.5-.3,3.1.3,4.7.2l-.1.1c3.9.4,7.6.4,11.5.5-.1,0-.1.1-.2.1a.66.66,0,0,1,.6-.1c.1.1-.1.1-.1.1.8.4,2.4,0,2.9.3.2,0,.4-.2.2-.3,3.1.2,6.3.4,9.5.4.1.1.2.2.1.3,2.7-.4,5.5.1,8.2.4.1-.1-.3-.2,0-.3-.9-.3-1.6.2-2.4-.1l.1-.1c-.6-.1-.1.4-.7.1-.2-.1.1-.2,0-.2a15.27,15.27,0,0,0-3.7,0c-.3-.4-1.3-.1-1.7-.5-.3.1-.6,0-.8.2-4.3-.5-8.7-.6-13.1-1-2.1.5-4.5-.5-7-.5v-.1a9.52,9.52,0,0,1-2.9-.1l-.8.2c-5.7-1-11.6-1.2-17.4-1.9-6.6-.7-12.3-1.7-18.9-1.4,0-.1,0-.1.1-.1-1.9,0-3.5-.4-5.3-.4v-.1c-4.4.2-9-.8-13.3-.6l-3.4-.3-3.7-.3c-1.3.7-2.7,1.5-4.1,2.2s-2.7,1.5-4,2.3V102c-3.7,2.3-7.7,3.7-11.4,5.9-4.1,1.8-7.7,4.9-11.9,6.7-2.7.8-5.3,3.6-7.9,4.3-5.2,1.7-9.5,4.7-13.9,7.7-4.5,2-8.4,5.1-13,6.7-1.8,1.5-4.5,1.8-6.6,3.1l.2.1c-1,0-1.5,1.5-2.3,1.2l.1-.1c-.6-.1-.6,1.3-1,1v.2c-.5.3-.2-.1-.6,0-.1.1.1.3-.3.4-.4-.6-1.2.8-1.6.1.3-.1-.6,0,0-.5-.2,0-1.1.5-.8.8.1.4-.1.8.6.8v-.3c.3.1.2,0,.4.2.7-.3,1,0,1.5-.2h0c.2-.5.7-.5,1-.6l.2.1c.3.2.5-.9.5-.4a37.9,37.9,0,0,1,4.5-2.5c.1-.3,1.2-.6.7-.8a3.34,3.34,0,0,0,2.2-.6.1.1,0,0,1-.1.1c1.1.1.7-1,1.8-.8-.1-.5,1.5-.6,1.7-1.4a.22.22,0,0,1,.2.2c1.4-.7,3-1.4,4.2-2,.8-.9,2.5-1.1,3.1-2.1a11.43,11.43,0,0,0,3-1.4l-.1.1a10.7,10.7,0,0,0,3.1-2.2c.6.3,1,0,1.6-.1.6-.6,2.2-1.4,3.2-2.2.3.1.9-.6,1.1-.3a36.38,36.38,0,0,1,10.7-5.6v.1c.3-.4.6-1.1,1-1.6.1,0,.1.1,0,.1.6-.4,1.4-.4,2-.8v.2c.5-.5,1.4-.4,1.9-1l.1.1.4-.4c0,.1.1.3-.1.4,5.5-2.8,10.8-6.4,16.4-9.2l-.1.2,1-.8c0,.1,0,.1-.1.2,1.5-.5,2.7-1.6,4.1-2.3,0,.1-.1.3.1.2.8-.8,1.8-.5,2-1.4.1,0,.2.1.1.2a27.55,27.55,0,0,1,2.9-1.7l1.5-.8,1.3-.7,2.5.3c2.7-.4,5.5.4,8.3.1v.1c3.6-.2,7.2.6,10.9.9,1.5.2,2.5.1,4.1.2v.2c2.6-.4,5.3,1,8.1.6l-.5.1c.4-.3,1.6.3,1.5-.3l.5.2c1.9-.6,3.3.6,5.5.3l-.2.1a3.15,3.15,0,0,1,1.7.1c-.1,0,0,.1-.2.1,1.8.7,3.9.3,5.9.5l-.2.2a26.82,26.82,0,0,1,3.9.2l-.1.1.6-.1v.2C148.57,102.86,150.17,102.76,151.77,102.86Z"/><path class="cls-2" d="M168.07,104Z"/><path class="cls-2" d="M17.47,140.06h-.2A.14.14,0,0,0,17.47,140.06Z"/><path class="cls-2" d="M95.07,97.46H95l.6.1C95.87,97.56,94.87,97.56,95.07,97.46Z"/><path class="cls-2" d="M95.07,97.46c.1-.1-.1-.1-.2-.1C95.07,97.36,94.77,97.46,95.07,97.46Z"/><path class="cls-2" d="M93.57,90.06h-.2c.4.3,0,.6.2.9h-.1a7.94,7.94,0,0,0,.6,2.2H94a.35.35,0,0,1,.2.1h-.1c-.4.2.3.5,0,.6,0,0,.2.1.3,0a4.26,4.26,0,0,0,.6,1.8h-.3c.6.5.4,1,.3,1.6.2,0,.2-.1.3,0,.2-.2-.4-.3-.1-.5h.2c.1-.1-.4,0-.2-.1a.14.14,0,0,1,.2,0c-.1-.2,0-.5-.3-.7.3-.1,0-.3.3-.4-.1-.1-.1-.1-.3-.1a10.68,10.68,0,0,0-.3-2.5c-.7-.4.1-.9-.2-1.4h.1a.48.48,0,0,1-.2-.6l-.3-.1c.5-1.1,0-2.3.2-3.4.1-1.3.5-2.5-.4-3.7h.1c-.1-.4.1-.7-.1-1h.1c-.6-.8,0-1.8-.6-2.6a18.16,18.16,0,0,0-.3-3.2h.1c-.3-.8.3-1.7.1-2.5.2-.9-.8-1.7-.5-2.6.6-.6-.8-1.2-.2-1.7.9-1.1.2-2.1-.4-3.1.3-1-.6-1.9,0-2.9-.5-.4.5-1,.3-1.4h-.2c.5-.2-.7-.4,0-.5h0c.4-.1-.9-.2-.4-.2h-.2c-.1-.1.2,0,.3-.1s-.3,0-.2-.1c.7-.1-.2-.3.6-.3,0,.1.3-.1.5,0s0-.2-.3-.2-.7-.1-1,.1H92c-.3.1-.1,0-.3.1,0,.2-.4.2-.6.3h0c.3.1.1.2.1.2h-.1c-.3.1.6.1.1.1a3,3,0,0,1,.2,1c.2,0,0,.3.4.2a.6.6,0,0,0-.5.5h-.1c-.6.2.5.2-.1.4.5,0-.1.3.4.4h-.3c0,.3-.2.7-.2.9.4.2-.2.6.4.7-.1.2-.4.4-.1.6h-.1a.71.71,0,0,0,.5.7c-.6.1-.5.2-.6.3.3.2.2.5.5.7-.3.1.1.2-.3.2a1.72,1.72,0,0,1,.1,2.4h0c.2.1.7.2,1,.3h-.1c.1.1-.3.3-.2.4H92c.2.1-.3.3,0,.4h-.1l.1.1h-.3c-.1,1.2.7,2.4.6,3.6h-.1l.2.2h-.1c-.2.3.2.6.1.9h-.3c.4.2-.4.4.3.4h-.3a2.82,2.82,0,0,1,.2,1.8c.7.5.1,1.1.7,1.6h-.1c.5.7,0,1.4.2,2.1a2.35,2.35,0,0,0,.2.8h-.2c.6.5-.5,1.1.2,1.6h-.2c.3.1-.1.3.5.3l-.2.1c.8.3-.3.7.2,1.1h-.1c.1.1.2.2.1.3h-.1c-.5.4.1.8.1,1.1h-.3c.3.2,0,.5.2.8h-.1l.2.1h-.2C93.37,89.46,93.57,89.76,93.57,90.06Z"/><polygon class="cls-2" points="125.27 155.86 125.37 155.86 125.17 155.76 125.27 155.86"/><path class="cls-2" d="M124.77,155.16h-.1l.6.4C125.57,155.46,124.57,155.26,124.77,155.16Z"/><path class="cls-2" d="M124.87,155.06c.1-.2-.1-.2-.2-.3C124.87,154.86,124.57,155.06,124.87,155.06Z"/><path class="cls-2" d="M123.07,136.06h-.2c.4.7,0,1.6.2,2.3H123a35.52,35.52,0,0,0,.7,5.7.1.1,0,0,1-.1-.1c.1.1.2.2.2.3a.1.1,0,0,1-.1-.1c-.4.4.3,1.2,0,1.5a.19.19,0,0,0,.3.1,37.76,37.76,0,0,0,.6,4.7c0,.1-.1.1-.3.1a8.14,8.14,0,0,1,.4,4.1c.2,0,.2-.1.3,0,.2-.4-.4-.8-.1-1.2h.2c.1-.3-.4,0-.2-.4a.14.14,0,0,1,.2,0c-.1-.6,0-1.3-.4-1.8.3-.2,0-.7.3-.9-.1-.2-.1-.3-.3-.4.1-2.2-.3-4.3-.4-6.5-.7-1,0-2.3-.2-3.5h.1a2.3,2.3,0,0,1-.2-1.4l-.3-.4c.4-2.9,0-5.8.1-8.7,0-3.3.4-6.2-.6-9.4.1,0,.1,0,.1.1a23.48,23.48,0,0,1-.1-2.6h.1c-.6-2.2-.1-4.5-.7-6.6,0-2.5-.2-5.4-.4-8.1h.1c-.3-2.1.3-4.3,0-6.4.2-2.2-.9-4.5-.6-6.8.6-1.4-.8-3.2-.2-4.5.9-2.7.2-5.3-.5-7.9.3-2.5-.7-4.9-.1-7.3-.5-1.1.5-2.4.3-3.6l-.2.1c.5-.5-.7-1,0-1.3h0c.3-.3-.9-.5-.4-.7h-.2c-.1-.3.2,0,.3-.3,0-.1-.3,0-.2-.2.7-.1-.2-.7.6-.8,0,.2.3-.3.5.1.1-.1,0-.6-.3-.5s-.7-.2-1,.1h.3c-.3.1-.1.1-.3.1,0,.4-.4.5-.6.7h0c.3.2.1.4.1.6l-.1.1c-.3.1.6.4.1.3a10.55,10.55,0,0,1,.2,2.5c.2.1,0,.7.4.5-.4.2-.5.9-.5,1.1a.1.1,0,0,1-.1-.1c-.6.5.6.5-.1,1,.5.1-.1.8.5,1a.37.37,0,0,1-.3.1c0,.8-.1,1.7-.1,2.3.5.6-.1,1.4.5,1.9a2.86,2.86,0,0,0-.1,1.6l-.1-.1a4.14,4.14,0,0,0,.5,1.9c-.6.2-.4.5-.6.8.3.4.2,1.3.5,1.9-.3.1.1.5-.3.6a9.47,9.47,0,0,1,.1,6h0c.2.2.7.5,1,.8h-.1c.1.4-.3.7-.2,1.1-.1,0-.1,0-.1-.1.2.3-.3.7,0,1.1h-.1l.2.2c-.1,0-.3,0-.3-.1,0,3.1.8,6.2.8,9.4l-.1-.1.2.6c-.1,0-.1,0-.1-.1-.2.8.2,1.6.2,2.3-.1,0-.2-.1-.3,0,.4.5-.4.9.3,1.2,0,0-.2.1-.3,0a25.28,25.28,0,0,1,.3,4.7c.7,1.3.2,2.8.7,4.1h-.1c.5,1.7.1,3.6.3,5.4a12.31,12.31,0,0,0,.2,2h-.2c.7,1.3-.5,2.7.3,4l-.2-.1c.3.2-.1.8.5.7l-.2.2c.8.9-.3,1.7.2,2.8l-.1-.1a1.41,1.41,0,0,1,.1.9.1.1,0,0,1-.1-.1c-.5.9.1,2,.1,2.9l-.3-.1c.3.5.1,1.3.2,2H123l.2.3H123A10,10,0,0,0,123.07,136.06Z"/><path class="cls-1" d="M109.77,62.26s1.1,10.1,11.2,9.1c9.3-.9,7.4-9.9,7.4-9.9"/><path class="cls-2" d="M127.47,61.86H127C126.67,61.86,127.67,61.76,127.47,61.86Z"/><path class="cls-2" d="M127.47,61.86c-.1.1.1,0,.2,0C127.47,62,127.77,61.86,127.47,61.86Z"/><path class="cls-2" d="M127.57,67.76l.2.1c-.2-.4.2-.5.2-.8h.1a3.1,3.1,0,0,0,.1-1.9h.1a.35.35,0,0,1-.2-.1h.1c.4-.1-.2-.4.1-.5a1,1,0,0,0-.3-.1,2.82,2.82,0,0,0-.4-1.5h.3c-.6-.4-.4-.8-.3-1.2-.2,0-.2.1-.3,0-.2.1.4.2.1.3h-.2c-.1.1.4,0,.2.1h-.2c.1.2,0,.4.3.5-.3.1,0,.2-.3.3.1,0,.1.1.3.1-.2.6.1,1.3-.1,1.9.6.5-.3.6-.2,1h-.1a.45.45,0,0,1,0,.5l.2.2a1.21,1.21,0,0,0-.5.5c-.1.2-.3.3-.4.5a2,2,0,0,1-.9.9c-.9.5-1.7.4-2.3,1.5V70c-.2.2-.5.1-.8.3v-.1a1.78,1.78,0,0,1-1,.4,2.11,2.11,0,0,0-1,.4h-2.6v-.1a1.21,1.21,0,0,1-1-.3,1.8,1.8,0,0,0-.9-.4c-.3-.3-.7-.2-1.1-.3a1,1,0,0,1-1-.5c0-.4-.3-.4-.6-.4s-.6-.1-.5-.5a1.33,1.33,0,0,0-.5-1.3,7.62,7.62,0,0,0-1.3-.7c-.1-.8-1.2-1.3-.8-2.3-.5-.2.3-.9.1-1.2l-.1.1c.4-.2-.7-.2-.1-.4h0c.3-.1-.9,0-.5-.1h-.2c-.1-.1.2,0,.2-.1h-.2c.7-.1-.2-.2.6-.3a.78.78,0,0,1,.5,0c.1,0,0-.2-.3-.1a3.08,3.08,0,0,0-1,.1h.3c-.3.1-.1,0-.3.1,0,.1-.4.2-.5.3h0c.3,0,.2.1.1.2h-.1c-.3.1.6,0,.1.1a1.14,1.14,0,0,1,.3.8c.2,0,0,.2.4.1-.4.2-.4.4-.4.5h-.1c-.5.3.6,0-.1.4.5-.1-.1.3.5.2a.37.37,0,0,1-.3.1c.1.3,0,.6.1.9.5,0,0,.5.6.4-.1.2-.2.5.1.6h-.1a.72.72,0,0,0,.7.4c-.5.4-.3.4-.4.6.3,0,.4.3.8.3-.2.2.2.1-.1.3,1,.1,1.3.8,1.5,1.7h0a4.17,4.17,0,0,0,.8-.6l-.1.1c.1,0,0,.4.1.4s0,.1-.1.1c.2-.1,0,.4.3.2l-.1.1.2-.1c-.1.1-.2.3-.2.2a2.51,2.51,0,0,0,.7.4c.3.1.6.1.8.2s.6.1.8.1a2.35,2.35,0,0,1,.8.2l-.1.1.3-.2v.1c.2.3.6,0,.8.1,0,.1-.1.2,0,.3.2-.3.3.5.4-.2V72a2.89,2.89,0,0,1,1.6,0c.4-.7.9-.1,1.3-.6v.1c.5-.6,1.2-.1,1.8-.4.3,0,.4-.2.6-.3l.1.2c.1-.4.4-.3.6-.3s.5,0,.6-.4l.1.2c-.1-.3.3,0,0-.5l.2.1c-.1-.8.6,0,.7-.6l.1.1c0-.1,0-.3.2-.2v.1c.6.3.4-.5.7-.7l.2.2c-.1-.3.3-.3.3-.6l.1.1-.1-.2.2.1C127.47,68.36,127.47,68.06,127.57,67.76Z"/><path class="cls-4" d="M6.57,44.06s-7.5,2.7-2.2,8.9c0,0,98,9.1,105.4,9.3,7.8.3,14.4.3,24.4-3.8,11.7-4.9,63.3-28.8,63.3-28.8s.3-7.5-4.5-7.3-57.9,27.9-62.8,29.5-8.9,3.5-20.9,2.2C95.57,52.56,6.57,44.06,6.57,44.06Z"/><polygon class="cls-2" points="6.37 45.36 6.57 45.46 7.17 45.36 6.37 45.36"/><path class="cls-2" d="M9.77,45.26c-.1,0,0-.1-.1-.2l-2,.4C8.47,46,9.27,45,9.77,45.26Z"/><path class="cls-2" d="M10.37,45.36a1.63,1.63,0,0,0,1.3-.1C11.37,45.46,10.17,45.06,10.37,45.36Z"/><path class="cls-2" d="M94.67,52.56l.2-.2c-3.3.1-6.9-.7-10.4-.8l.2-.1c-8.7-.9-16.8-1.4-25.5-2,.1,0,.2-.1.3-.1-.4,0-.9.1-1.4.1-.1-.1.1-.1.3-.1-1.8-.5-5.4-.3-6.5-.7-.5,0-.8.1-.5.3-6.8-.6-14-1.2-21-1.6q-.45-.15-.3-.3A157.74,157.74,0,0,1,12,45.56c-.2.1.6.2,0,.3,1.9.4,3.6,0,5.3.4l-.2.1c1.3.2.3-.4,1.6,0,.5.2-.1.2.1.2a74.9,74.9,0,0,0,8.1.5c.6.4,2.9.3,3.9.7.7-.1,1.4,0,1.7-.1,9.5,1.1,19.3,1.7,29,2.7,4.6-.2,10,1.1,15.5,1.4v.1a51.29,51.29,0,0,1,6.5.5l1.8-.1c6.3.9,12.7,1.6,19.2,2.2l4.8.5c1.6.2,3.3.3,4.9.4a41.21,41.21,0,0,0,9.9-.6,41,41,0,0,0,5.3-1.5c.4-.1.8-.3,1.3-.4s.9-.3,1.3-.5c.8-.4,1.6-.7,2.4-1.1,3.2-1.5,6.3-2.9,9.4-4.4,6.2-3,12.2-6.1,18.4-9.7,0,.1.1,0-.2.2,3.7-1.9,7.1-3.4,10.6-5.2v.1c4.2-2.3,8.8-4.5,13.3-6.5,1.1-.5,2.3-1,3.4-1.5s2.3-.9,3.4-1.2a4.33,4.33,0,0,1,1.6.1,3.81,3.81,0,0,1,1.3.9,7.55,7.55,0,0,1,1.4,3,12.25,12.25,0,0,1,.2,1.9v.6c0,.1-.1.1-.2.1-.3.1-.6.3-.9.4-4.6,2.1-9.5,4.4-14.4,6.7s-9.8,4.6-14.6,6.9v-.1c-8.6,4.2-17.3,7.5-26,11.6-4.6,1.8-9.1,4.2-13.9,5.6a40.38,40.38,0,0,1-14.9,1.6c-3.1-.3-6.6-.5-10.1-.6a58,58,0,0,1-9.8-.8c-11.7-2-23.2-2.4-35.1-2.9-10.9-1.3-21.8-1.4-32.3-3.1-5,0-10.5-1.5-16-1.9l.2.2a8.13,8.13,0,0,0-3.1-.2H4.37l-.1-.1c-.1-.1-.1-.2-.2-.3s-.1-.3-.2-.5l.2.1A3.34,3.34,0,0,0,3,51a1.79,1.79,0,0,1-.5-.7.66.66,0,0,1-.1-.6l-.2-.2c-.1-.7,0-.7,0-.7s.1,0,.2-.5-.3-.2,0-1a.51.51,0,0,0,.5-.4c.2-.2.4-.6.7-.9.5-.6,1.2-1,1.4-.7-.5.4,1-.3-.1.6a9,9,0,0,0,1.1-.7c.4-.3.8-.5.7-.7,0-.4.7-1-.6-.8l-.1.4c-.5,0-.4,0-.6-.1-.8.4-1.3.7-1.7.9a2.09,2.09,0,0,0-.6.4,1.87,1.87,0,0,0-.7.6h0a6.89,6.89,0,0,0-.3.8l-.2.4-.1.4a13.12,13.12,0,0,0-.3,1.5l-.1.3c-.1.1,0,.4,0,.6a2.09,2.09,0,0,0,.4.6c.3.4.5.6.1.4a5.67,5.67,0,0,0,.8,1.3c.4.5.8,1,1.1,1.4a4.1,4.1,0,0,0,1.1.1l.7.1c.5,0,.9.1,1.4.1,1.9.2,3.9.3,5.8.5.6-.2,3,.3,2.2-.2a19.38,19.38,0,0,0,4.9,1s-.1.1-.3,0c2,.8,2.5-.3,4.4.6.3-.5,3.5.5,4.7,0,.2.1.3.2.2.3,3.5.3,7.3.9,10.3,1.2,2.6-.2,6.1.8,8.3.4a46.44,46.44,0,0,0,7.2.8l-.3.1a63.18,63.18,0,0,0,8.4.3c.8.6,2,.6,3.2.9,1.9-.1,5.7.3,8.7.3.4.3,2.4.1,2.5.5A191.86,191.86,0,0,1,104,63h-.1c1.1-.1,2.5-.5,3.6-.7.1,0,.1.1-.1.1,1.6,0,3.1.5,4.7.5,0,.1,0,.1-.3.1,1.5-.1,3.1.4,4.9,0l.1.1,1.1-.2c0,.1-.1.3-.7.3a41,41,0,0,0,10.4-1.6c1.7-.5,3.4-1.1,5-1.7l4.8-2.1c6.3-2.9,12.7-5.9,19.1-8.8l-.4.3,2.4-1.3c0,.1-.1.1-.2.2,3.2-1.2,6.3-3.1,9.4-4.4,0,.1-.4.4.1.3,2.1-1.4,3.8-1.3,4.7-2.4.1,0,.3.1.1.3,6.2-3.1,12.7-6.1,19.1-8.9a18.34,18.34,0,0,1,2.4-1.3l1.2-.6c.2-.1.4-.3.6-.4l.5-.5.5.1h.1a.1.1,0,0,0,.1-.1v-.2c0-.1.1,0,.1-.1l.5-.1h.2c-.4-.3-.1-.1-.2-.1h0c0-.1.1-.1.1-.2a.6.6,0,0,0,.1-.4v-.5a2,2,0,0,0-.1-.8,10.17,10.17,0,0,0-.9-3.3,4.35,4.35,0,0,0-2.5-2.3,4.1,4.1,0,0,0-1.8,0,4,4,0,0,0-1.5.6v-.1c-3.6,1.6-7.3,3.3-11,4.9s-7.4,3.4-11.1,5.2c-3.1,1.4-5,2.6-8.1,4.1l-.1-.1c-4.8,3.1-11,4.8-16,8.1l.3-.4c-.7.7-3.3,1.5-2.7,1.9l-1,.3a20.83,20.83,0,0,1-5.1,2.7,48.53,48.53,0,0,0-5.9,2.7l.3-.2a22.76,22.76,0,0,1-3.6,1.3.77.77,0,0,1,.3-.2c-2,.4-4.1.9-6.3,1.2a36.57,36.57,0,0,1-6.6.4l.5-.2c-2.1.3-5.9-.4-8.7-.6l.2-.1h-1.4v-.2C101.47,53,98.07,52.86,94.67,52.56Z"/><path class="cls-2" d="M2,46.36a1.38,1.38,0,0,1,.3-.4A1.87,1.87,0,0,0,2,46.36Z"/></svg>