<svg id="Layer_1" data-name="Layer 1" xmlns="http://www.w3.org/2000/svg" viewBox="0 0 200 170"><defs><style>.cls-1{fill:#ffe9d9;}.cls-2{fill:#f5ad7c;}.cls-3{fill:#f8c49d;}.cls-4{fill:none;}.cls-5{fill:#fbd6b9;}.cls-6{fill:#fff2e8;}</style></defs><title>Artboard 27</title><rect class="cls-1" x="83.46" y="77" width="66.4" height="5.7" transform="translate(-18.23 122.15) rotate(-51.8)"/><polygon class="cls-2" points="93.48 104.72 93.48 104.82 93.68 104.82 93.48 104.72"/><path class="cls-2" d="M94.48,105.32c0-.1.1-.1,0,0l-.7-.3C94,105.32,94.48,105.12,94.48,105.32Z"/><path class="cls-2" d="M94.68,105.42c.2.2.3.2.4.2C95,105.62,94.68,105.32,94.68,105.42Z"/><path class="cls-2" d="M113.78,88v-.1a27.73,27.73,0,0,1-2.2,2.9v-.1c-1.9,2.4-3.5,4.7-5.3,7.1v-.1c-.1.1-.1.3-.2.4V98a17.91,17.91,0,0,0-1.4,1.8c-.1.2-.1.3,0,.2-1.4,1.9-3,3.9-4.3,5.9-.1.1-.1.1-.2,0a6.73,6.73,0,0,1-.7,1.1l-.4.6-.7.9-1.1-.9-.7-.6a17.41,17.41,0,0,1-1.4-1.2c-.1,0,.1.2-.1.1.5.5,1.1.6,1.5,1.1h-.1c.3.3.2-.1.5.3.1.2-.1,0,0,.1.5.4,1,.8,1.6,1.2.3-.4.6-.8.8-1.1s.3-.4.4-.6c.3-.1.6-.8,1-1,.1-.2.3-.4.2-.6,2.1-2.6,4.1-5.3,6.2-8,.7-1.4,2.2-2.7,3.3-4.3h0a10.15,10.15,0,0,1,1.3-1.8l.3-.6c3-3.3,5.6-7,8.5-10.5,3.2-4,6.2-7.3,8.9-11.5,0,0,.1,0,0,.1.8-1.2,1.7-2.1,2.5-3.2h0c1.9-2.8,4.3-5.5,6.1-8.2.5-.6,1-1.2,1.5-1.9-1.5-1.1-3.1-2.4-4.7-3.6-.9,1.2-1.8,2.4-2.8,3.6h0c-2,2.7-4.2,5-6.2,7.7-2.2,2.6-4.1,5.8-6.4,8.4-1.6,1.5-2.8,4.1-4.3,5.5a64.35,64.35,0,0,0-7.5,9.7c-2.5,2.9-4.5,6.1-7,8.8-.9,1.5-2.5,2.7-3.6,4.3h.1c-.6.4-.7,1.4-1.2,1.5v-.1c-.4.2-.2.9-.5,1v.1c-.3.4-.1,0-.4.2-.1.1.1.1-.1.3-.3-.2-.6.9-1,.7.2-.2-.4.2-.1-.3-.1.1-.6.7-.4.8s0,.5.4.2V104c.2,0,.1-.1.2,0,.4-.5.6-.4.9-.7h0a5.58,5.58,0,0,1,.5-.8h.1c.2,0,.2-.7.3-.4.7-1,1.6-2.1,2.4-3.1,0-.2.6-.8.3-.7.4-.1,1-.9,1.3-1.2v.1c.7-.4.3-.8,1-1.2-.1-.2.8-.9.8-1.4h.2c.8-1,1.7-2,2.3-2.8.4-.8,1.4-1.6,1.6-2.4a16,16,0,0,0,1.6-1.9v.1a12.41,12.41,0,0,0,1.6-2.4c.4-.1.6-.4,1-.7.3-.6,1.2-1.6,1.7-2.5.2,0,.5-.7.7-.6a44.26,44.26,0,0,1,5.8-7.3h0a6.47,6.47,0,0,0,.4-1.3s.1,0,0,.1c.3-.5.8-.7,1.1-1.2v.1c.3-.5.8-.7,1-1.3h.1l.2-.3s.1.1,0,.3c3-3.7,5.7-7.7,8.8-11.5l-.1.2.5-.8v.1c.8-.9,1.5-2,2.2-2.9,0,0,0,.2.1.1.4-.8,1-1,1-1.5a.1.1,0,0,1,.1.1c.4-.6.9-1.2,1.3-1.8l.7.5.9.7,1.8,1.5.2.1.1.1c.1,0,.2.1.3.2-.1.1-.1.2-.2.4l-.4.5a7.63,7.63,0,0,0-.8,1.1,17.68,17.68,0,0,0-1.6,2.2h0c-1.5,2.3-3.5,4.4-5.2,6.6-.7.9-1.2,1.6-1.9,2.5h-.1c-1,1.7-2.8,3.1-3.8,4.9v-.2c-.1.4-.8.9-.5,1l-.3.2c-.6,1.3-1.7,1.9-2.6,3.4v-.1a4.44,4.44,0,0,1-.8,1.1v-.1a34.4,34.4,0,0,0-2.8,3.6v-.2a29.94,29.94,0,0,1-1.8,2.4v-.1l-.2.4.1-.1C115.18,86.12,114.58,87.12,113.78,88Z"/><path class="cls-2" d="M95.28,103.32l-.1.1A.1.1,0,0,0,95.28,103.32Z"/><path class="cls-3" d="M40.88,69.62a36.3,36.3,0,1,0,36.3,36.3A36.36,36.36,0,0,0,40.88,69.62Zm0,66.1a29.8,29.8,0,1,1,29.8-29.8A29.81,29.81,0,0,1,40.88,135.72Z"/><path class="cls-4" d="M40.88,69.62a36.3,36.3,0,1,0,36.3,36.3A36.36,36.36,0,0,0,40.88,69.62Zm0,66.1a29.8,29.8,0,1,1,29.8-29.8A29.81,29.81,0,0,1,40.88,135.72Z"/><polygon class="cls-2" points="40.88 136.42 40.98 136.42 41.18 136.32 40.88 136.42"/><path class="cls-2" d="M42.38,136.12h0l-1,.3C41.88,136.52,42.08,136,42.38,136.12Z"/><path class="cls-2" d="M42.68,136.12c.4.1.5-.1.6-.1C43.08,136.12,42.58,135.92,42.68,136.12Z"/><path class="cls-2" d="M69.78,112.72l-.1-.1c-.1.7-.3,1.5-.5,2.3a19.45,19.45,0,0,0-.8,2.2V117a31.78,31.78,0,0,1-6.1,9.7c0-.1,0-.1.1-.1a2.19,2.19,0,0,1-.3.5c-.1,0,0-.1,0-.1-.7.4-1.7,1.7-2.2,2-.2.2-.2.3-.1.2a34,34,0,0,1-8.2,5c-.2,0-.2,0-.2-.1a21.93,21.93,0,0,1-8,2c-.1.1.3.1,0,.2.9.1,1.6-.4,2.4-.4l-.1.1c.6,0,.1-.2.7-.2.3,0,0,.1.1.1a18,18,0,0,0,1.9-.5,8.51,8.51,0,0,0,1.7-.6c.3.1,1.3-.5,1.8-.5.3-.2.6-.3.7-.4a28.19,28.19,0,0,0,10.7-7.8,58.21,58.21,0,0,0,4.1-5.8h0c.3-.8.8-1.8,1.2-2.7l.2-.8a24.7,24.7,0,0,0,2.1-8.5l.1-2.2c0-.7-.1-1.5-.1-2.2l-.1-1.1-.2-1.1c-.1-.7-.2-1.5-.3-2.2a32.29,32.29,0,0,0-3.4-9,13.73,13.73,0,0,0-1.3-2,13.3,13.3,0,0,1-1.4-1.9l-1.7-1.7c-.5-.6-1.2-1-1.8-1.6,0,0,0-.1.1,0-.7-.6-1.4-1.2-2.1-1.7l-1.1-.8a10.54,10.54,0,0,1-1.1-.7h0c-3.9-2.1-8.4-3.9-12.6-4A29.46,29.46,0,0,0,28,78.92v-.1a32,32,0,0,0-10.2,7.7c-.7.9-1.4,1.8-2,2.7l-.9,1.5-.4.8-.3.8-.7,1.6c-.2.5-.4,1.1-.6,1.6s-.4,1.1-.6,1.6a9.83,9.83,0,0,1-.5,1.6c-.1.3-.2.7-.3,1s-.1.7-.2,1.1a19.42,19.42,0,0,0-.2,2.4v2.3a14.7,14.7,0,0,1,0,2.1,17.54,17.54,0,0,0,.3,4,10.55,10.55,0,0,0,.5,1.9,13.89,13.89,0,0,0,.6,1.9l.7,1.9.9,1.8.5.9.6.8a15.26,15.26,0,0,1,1.1,1.6l1.1,1.5.6.7.6.7,1.3,1.3a17.41,17.41,0,0,0,1.4,1.2,31.55,31.55,0,0,0,2.9,2.2,13,13,0,0,0,1.5,1c.5.3,1,.7,1.5,1,1.1.4,2.1,1,3.2,1.5.6.3,1.1.5,1.7.8a12.09,12.09,0,0,0,1.8.5l-.1-.1a3.19,3.19,0,0,0,1.4.3c.5,0,.9,0,1.1.2h-.1c.5.2,1.2-.2,1.4,0l.1-.1c.6,0,.1.1.5.2.2,0,.1-.2.4-.1.1.4,1.4,0,1.4.4-.3,0,.5.2-.2.2.2.1,1.2.1,1.1-.1.1-.2.5-.3-.1-.5l-.1.1c-.2-.1-.1-.1-.2-.2a8.4,8.4,0,0,1-1.4-.4h0a4.8,4.8,0,0,1-1.2,0l-.1-.1c-.2-.2-.9.2-.6-.1l-2.4-.3-2.5-.6c-.3,0-1.2-.5-.9-.1a6.26,6.26,0,0,0-2-1h.1c-.7-.7-1.1-.2-1.7-.9-.1.1-.5-.1-.8-.3a3.45,3.45,0,0,0-1.1-.5c-.1-.1-.1-.2,0-.2a9,9,0,0,1-2-1.4c-.6-.5-1.2-.9-1.7-1.4-1-.6-2-1.9-2.8-2.4-.2-.3-.6-.7-.9-1.2a13.44,13.44,0,0,0-1.1-1.4l.1.1c-.8-1-1.6-2.3-2.2-3a5.62,5.62,0,0,0-.4-1.5c-.2-.3-.5-.9-.9-1.5s-.5-1.3-.8-1.9c.1-.2-.4-1-.2-1.1-.3-.8-.6-1.8-.9-2.7s-.4-2-.5-3-.1-2.1,0-3.1.2-2,.4-3v.1c0-.5-.2-1.1-.2-1.6,0,0,.1,0,0,.1a3,3,0,0,1,.2-1c.1-.3.2-.6.3-1v.1c.1-.7.5-1.3.6-2.1H13l.1-.5q.15,0,0,.3a30,30,0,0,1,4.1-8.2c.5-.6.9-1.3,1.4-1.9l1.5-1.8,1.7-1.6a13.3,13.3,0,0,1,1.9-1.4l-.1.2.9-.8a.1.1,0,0,1-.1.1c1.4-.7,2.6-1.7,4-2.3,0,0-.2.2,0,.1.9-.7,1.7-.5,2.1-1,.1,0,.1.1,0,.1a29.6,29.6,0,0,1,4.5-1.4l2.3-.3a9.06,9.06,0,0,1,2.3-.1,18.6,18.6,0,0,1,4.1-.1l2.1.3,1,.1c.3.1.7.1,1,.2v.1a25.15,25.15,0,0,1,9.9,4.4,25.12,25.12,0,0,1,3.2,2.5v.1a14.85,14.85,0,0,1,2.8,2.8c.4.5.8,1.1,1.2,1.7.2.3.4.5.6.8a5.55,5.55,0,0,0,.6.8l-.2-.1c.4.3.8,1.4,1,1.1l.2.4a7.24,7.24,0,0,1,1.2,2.3,23.32,23.32,0,0,0,1,2.7l-.1-.1a3.68,3.68,0,0,1,.5,1.6c0-.1,0,0-.1-.2.1.9.4,1.9.5,2.8a16,16,0,0,1,.5,2.9l-.1-.2c.1.5.1,1.1.2,1.8s-.1,1.4,0,2.1l-.1-.1.1.6h-.1a19.42,19.42,0,0,1-.2,2.4A25.68,25.68,0,0,1,69.78,112.72Z"/><polygon class="cls-2" points="40.88 70.22 40.98 70.32 41.28 70.22 40.88 70.22"/><path class="cls-2" d="M42.68,70.12c-.1,0,0-.1,0,0l-1.1.2C42,70.52,42.38,70,42.68,70.12Z"/><path class="cls-2" d="M43,70.12c.4.1.6,0,.7-.1C43.48,70.22,42.88,70,43,70.12Z"/><path class="cls-2" d="M72.38,88.82l-.1-.1C72.38,88.72,72.38,88.72,72.38,88.82Z"/><path class="cls-2" d="M76.18,97.52l.1.1c-.3-.8-.5-1.8-.8-2.7s-.6-1.8-1-2.7l.1.1a33.91,33.91,0,0,0-7.8-11.6c.1,0,.1,0,.2.1a2.65,2.65,0,0,1-.6-.5c0-.1.1,0,.1.1-.6-.8-2.3-1.9-2.6-2.4-.2-.2-.4-.2-.3,0a33.61,33.61,0,0,0-10-5.5c-.2-.1-.2-.1-.1-.2a63.24,63.24,0,0,0-9.6-2.1c-.1.1.3.1,0,.2a28.5,28.5,0,0,1,2.9.3l-.1.1c.7.2.2-.2.9,0,.3.1-.1.1,0,.1a17.42,17.42,0,0,1,2.2.5c.7.2,1.5.3,2.1.5.3.3,1.5.6,1.9.9a5.07,5.07,0,0,0,.9.2,38,38,0,0,1,12.8,9.1c2,1.6,3.3,4.3,4.9,6.8h0c.5.8,1.1,2.1,1.6,3.1l.5.9a44.19,44.19,0,0,1,2.2,10.2l.1,2.6c0,.9-.1,1.8-.1,2.6l-.1,1.3-.2,1.3a23.81,23.81,0,0,1-.5,2.6,35.14,35.14,0,0,1-4.3,10.5l-.7,1.2a8.34,8.34,0,0,1-.8,1.2c-.5.7-1.1,1.5-1.6,2.3l-1.8,2.1c-.6.7-1.3,1.4-2,2.1,0,0-.1,0,.1-.1a12,12,0,0,1-1.2,1.1,11.32,11.32,0,0,0-1.3,1c-.4.3-.9.6-1.3.9s-.9.5-1.3.8h0c-.5.4-1.1.7-1.7,1.1l-1.8.9a25,25,0,0,1-3.8,1.5,13.89,13.89,0,0,1-1.9.6c-.7.2-1.3.3-1.9.5-1.3.3-2.6.5-3.8.7a38.38,38.38,0,0,1-19.3-3.3v-.1a37.64,37.64,0,0,1-12.2-9.5c-3.3-4.2-6.4-9.2-7.5-14.6-.1-.4-.2-.8-.3-1.3s-.1-.9-.2-1.4c-.1-.9-.4-1.9-.5-2.8s-.2-1.9-.2-2.8a21.12,21.12,0,0,1,.2-2.6c.1-1.6.6-3.2.8-4.8.2-.8.4-1.5.6-2.3a20.16,20.16,0,0,1,.7-2.3l.8-2.3a21.4,21.4,0,0,1,1-2.2l.5-1.1.6-1.1,1.2-2.1,1.4-1.8.7-.9.8-.8,1.5-1.7c.5-.5,1.1-1,1.6-1.5a23.87,23.87,0,0,1,3.5-2.8c.6-.4,1.3-.8,1.9-1.2a17.38,17.38,0,0,1,1.9-1c.6-.3,1.2-.7,1.9-1,.3-.1.7-.3,1-.4l1.1-.3c.7-.2,1.4-.4,2.2-.7s1.5-.3,2.2-.5h-.1a10.46,10.46,0,0,0,1.7-.4,2.4,2.4,0,0,1,1.4-.2h-.1c.6.1,1.3-.6,1.7-.5l.1-.1c.7-.1.1.1.6.1.2,0,.1-.2.5-.1.1.4,1.7-.2,1.8.2-.4,0,.6.1-.3.3.2,0,1.4-.1,1.3-.2.1-.2.6-.3-.2-.5l-.1.1a.77.77,0,0,1-.3-.2c-.9,0-1.1-.2-1.8-.2h0a3.93,3.93,0,0,1-1.5.1l-.2-.1c-.2-.1-1,.5-.8.2-1,.2-2,.3-3,.6s-2.1.5-3.1.8c-.3.2-1.6.6-1.1.6a13.43,13.43,0,0,0-2.7.7.1.1,0,0,1,.1-.1c-1.2.2-1.1.8-2.3,1,0,.2-.5.3-1,.6a4.14,4.14,0,0,0-1.2.9c-.1,0-.2,0-.2-.1a9.13,9.13,0,0,0-1.3.8l-1.2.9a21.05,21.05,0,0,0-2.2,1.7c-.9,1.1-2.6,2.2-3.2,3.4l-1.3,1.3a11.8,11.8,0,0,0-1.3,1.8l.1-.1a22.22,22.22,0,0,0-2.4,4c-.5.2-.7.9-1.1,1.5-.2.5-.5,1.2-.9,2a24.13,24.13,0,0,0-.8,2.5c-.2.2-.4,1.3-.6,1.3-.2,1.1-.5,2.3-.7,3.5s-.4,2.5-.5,3.8-.2,2.6-.2,3.8,0,2.5.1,3.8v-.1a15.39,15.39,0,0,0,.8,1.9c0,.1,0,.1-.1-.1a5.7,5.7,0,0,1,.1,1.3,7.89,7.89,0,0,0,.3,1.3l-.1-.1c.3.8.3,1.7.7,2.6v.1l.3.6c-.1,0-.2,0-.3-.3a34.24,34.24,0,0,0,5.3,10.2l.9,1.1a10.63,10.63,0,0,0,.9,1.1l2,2.1,2.2,1.9a20.28,20.28,0,0,0,2.3,1.8l-.3-.1,1.3.8h-.2a35.3,35.3,0,0,0,5,2.8s-.3,0-.1.1a12.62,12.62,0,0,1,1.6.7,2.66,2.66,0,0,0,1.2.3c.1,0,.1.1-.1.1l1.4.5.7.2.7.2c.9.2,1.9.5,2.8.7l2.9.4.7.1H38l1.5.1c1.6,0,3.3-.2,5-.3a18.66,18.66,0,0,0,2.5-.4,5.07,5.07,0,0,1,1.3-.2,5.64,5.64,0,0,0,1.2-.4v.1a39.76,39.76,0,0,0,12.1-5.4,23,23,0,0,0,3.8-3.2h.1c1.1-1.1,2.2-2.3,3.4-3.5.6-.6,1.1-1.3,1.6-1.9a6.07,6.07,0,0,0,.7-1c.2-.4.4-.7.6-1.1v.3c.1-.5,1.1-1.7.7-1.6l.4-.4a12.78,12.78,0,0,1,1.3-2.9,17.46,17.46,0,0,0,1.3-3.3v.2a9.48,9.48,0,0,1,.6-2v.2a13.12,13.12,0,0,0,.9-3.4c.1-1.2.3-2.4.3-3.6l.1.3v-2.3a10,10,0,0,0-.1-2.5l.1.1-.1-.8h.1a14.46,14.46,0,0,0-.4-2.9C76.68,99.42,76.48,98.42,76.18,97.52Z"/><path class="cls-3" d="M159.08,69.62a36.3,36.3,0,1,0,36.3,36.3A36.36,36.36,0,0,0,159.08,69.62Zm0,66.1a29.8,29.8,0,1,1,29.8-29.8A29.81,29.81,0,0,1,159.08,135.72Z"/><path class="cls-4" d="M159.08,69.62a36.3,36.3,0,1,0,36.3,36.3A36.36,36.36,0,0,0,159.08,69.62Zm0,66.1a29.8,29.8,0,1,1,29.8-29.8A29.81,29.81,0,0,1,159.08,135.72Z"/><polygon class="cls-2" points="159.08 136.42 159.18 136.42 159.38 136.32 159.08 136.42"/><path class="cls-2" d="M160.68,136.12c-.1,0-.1-.1,0,0l-1,.3C160.08,136.52,160.38,136,160.68,136.12Z"/><path class="cls-2" d="M160.88,136.12c.4.1.5-.1.6-.1C161.38,136.12,160.78,135.92,160.88,136.12Z"/><path class="cls-2" d="M188.08,112.72l-.1-.1c-.1.7-.3,1.5-.5,2.3a19.45,19.45,0,0,0-.8,2.2V117a31.78,31.78,0,0,1-6.1,9.7c0-.1,0-.1.1-.1a2.19,2.19,0,0,1-.3.5c-.1,0,0-.1,0-.1-.7.4-1.7,1.7-2.2,2-.2.2-.2.3-.1.2a36,36,0,0,1-8.2,5c-.2,0-.2,0-.2-.1a21.93,21.93,0,0,1-8,2c-.1.1.3.1,0,.2.9.1,1.6-.4,2.4-.4l-.1.1c.6,0,.1-.2.7-.2.3,0,0,.1.1.1a18,18,0,0,0,1.9-.5,8.51,8.51,0,0,0,1.7-.6c.3.1,1.3-.5,1.8-.5.3-.2.6-.3.7-.4a28.19,28.19,0,0,0,10.7-7.8,58.21,58.21,0,0,0,4.1-5.8h0c.3-.8.8-1.8,1.2-2.7l.2-.8a24.7,24.7,0,0,0,2.1-8.5l.1-2.2c0-.7-.1-1.5-.1-2.2l-.1-1.1-.2-1.1c-.1-.7-.2-1.5-.3-2.2a32.29,32.29,0,0,0-3.4-9,13.73,13.73,0,0,0-1.3-2,13.3,13.3,0,0,1-1.4-1.9l-1.7-1.7c-.5-.6-1.2-1-1.8-1.6,0,0,0-.1.1,0-.7-.6-1.4-1.2-2.1-1.7l-1.1-.8a10.54,10.54,0,0,1-1.1-.7h0c-3.9-2.1-8.4-3.9-12.6-4a29.46,29.46,0,0,0-15.9,2.8v-.1a32,32,0,0,0-10.2,7.7c-.7.9-1.4,1.8-2,2.7l-.9,1.5-.4.8-.3.8-.7,1.6c-.2.5-.4,1.1-.6,1.6s-.4,1.1-.6,1.6a9.83,9.83,0,0,1-.5,1.6c-.1.3-.2.7-.3,1s-.1.7-.2,1.1a19.42,19.42,0,0,0-.2,2.4v2.3a14.7,14.7,0,0,1,0,2.1,17.54,17.54,0,0,0,.3,4,10.55,10.55,0,0,0,.5,1.9,13.89,13.89,0,0,0,.6,1.9l.7,1.9.9,1.8.5.9.6.8a15.26,15.26,0,0,1,1.1,1.6l1.1,1.5.5.7.6.7,1.3,1.3a17.41,17.41,0,0,0,1.4,1.2,31.55,31.55,0,0,0,2.9,2.2,13,13,0,0,0,1.5,1c.5.3,1,.7,1.5,1,1.1.4,2.1,1,3.2,1.5.6.3,1.1.5,1.7.8a12.09,12.09,0,0,0,1.8.5l-.1-.1a3.19,3.19,0,0,0,1.4.3c.5,0,.9,0,1.1.2h-.1c.5.2,1.2-.2,1.4,0l.1-.1c.6,0,.1.1.5.2.2,0,.1-.2.4-.1.1.4,1.4,0,1.4.4-.3,0,.5.2-.2.2.2.1,1.2.1,1.1-.1.1-.2.5-.3-.1-.5l-.1.1c-.2-.1-.1-.1-.2-.2a8.4,8.4,0,0,1-1.4-.4h0a4.8,4.8,0,0,1-1.2,0l-.1-.1c-.2-.2-.9.2-.6-.1l-2.4-.3-2.5-.6c-.3,0-1.2-.5-.9-.1a6.26,6.26,0,0,0-2-1h.1c-.7-.7-1.1-.2-1.7-.9-.1.1-.5-.1-.8-.3a3.45,3.45,0,0,0-1.1-.5c-.1-.1-.1-.2,0-.2a9,9,0,0,1-2-1.4c-.6-.5-1.2-.9-1.7-1.4-1-.6-2-1.9-2.8-2.4-.2-.3-.6-.7-.9-1.2a13.44,13.44,0,0,0-1.1-1.4l.1.1c-.8-1-1.6-2.3-2.2-3a5.62,5.62,0,0,0-.4-1.5c-.2-.3-.5-.9-.9-1.5s-.5-1.3-.8-1.9c.1-.2-.4-1-.2-1.1-.3-.8-.6-1.8-.9-2.7s-.4-2-.5-3-.1-2.1,0-3.1.2-2,.4-3v.1c0-.5-.2-1.1-.2-1.6,0,0,.1,0,0,.1a3,3,0,0,1,.2-1c.1-.3.2-.6.3-1v.1c.1-.7.5-1.3.6-2.1h.1l.1-.5q.15,0,0,.3a30,30,0,0,1,4.1-8.2c.5-.6.9-1.3,1.4-1.9l1.5-1.8L140,83a13.3,13.3,0,0,1,1.9-1.4l-.1.2.9-.8a.1.1,0,0,1-.1.1c1.4-.7,2.6-1.7,4-2.3,0,0-.2.2,0,.1.9-.7,1.7-.5,2.1-1,.1,0,.1.1,0,.1a29.6,29.6,0,0,1,4.5-1.4l2.3-.3a9.06,9.06,0,0,1,2.3-.1,18.6,18.6,0,0,1,4.1-.1l2.1.3,1,.1c.3.1.7.1,1,.2v.1a30.52,30.52,0,0,1,13.1,6.9v.1a14.85,14.85,0,0,1,2.8,2.8c.4.5.8,1.1,1.2,1.7.2.3.4.5.6.8a5.55,5.55,0,0,0,.6.8l-.2-.1c.4.3.8,1.4,1,1.1l.2.4a7.24,7.24,0,0,1,1.2,2.3,23.32,23.32,0,0,0,1,2.7l-.1-.1a3.68,3.68,0,0,1,.5,1.6c0-.1,0,0-.1-.2.1.9.4,1.9.5,2.8a16,16,0,0,1,.5,2.9l-.1-.2c.1.5.1,1.1.2,1.8s-.1,1.4,0,2.1l-.1-.1.1.6h-.1a19.42,19.42,0,0,1-.2,2.4C188.38,111.22,188.28,111.92,188.08,112.72Z"/><polygon class="cls-2" points="159.08 70.22 159.18 70.32 159.48 70.22 159.08 70.22"/><path class="cls-2" d="M160.88,70.12h0l-1.1.2C160.28,70.52,160.58,70,160.88,70.12Z"/><path class="cls-2" d="M161.18,70.12c.4.1.6,0,.7-.1C161.78,70.22,161.18,70,161.18,70.12Z"/><path class="cls-2" d="M190.68,88.82l-.1-.1A.1.1,0,0,1,190.68,88.82Z"/><path class="cls-2" d="M194.48,97.52l.1.1c-.3-.8-.5-1.8-.8-2.7s-.6-1.8-1-2.7l.1.1a33.91,33.91,0,0,0-7.8-11.6c.1,0,.1,0,.2.1a2.65,2.65,0,0,1-.6-.5c0-.1.1,0,.1.1-.6-.8-2.3-1.9-2.6-2.4-.2-.2-.4-.2-.3,0a33.61,33.61,0,0,0-10-5.5c-.2-.1-.2-.1-.1-.2a63.24,63.24,0,0,0-9.6-2.1c-.1.1.3.1,0,.2a28.5,28.5,0,0,1,2.9.3l-.1.1c.7.2.2-.2.9,0,.3.1-.1.1,0,.1a17.42,17.42,0,0,1,2.2.5c.7.2,1.5.3,2.1.5.3.3,1.5.6,1.9.9a5.07,5.07,0,0,0,.9.2,38,38,0,0,1,12.8,9.1c2,1.6,3.3,4.3,4.9,6.8h0c.5.8,1.1,2.1,1.6,3.1l.5.9a44.19,44.19,0,0,1,2.2,10.2l.1,2.6c0,.9-.1,1.8-.1,2.6l-.1,1.3-.2,1.3a23.81,23.81,0,0,1-.5,2.6,35.14,35.14,0,0,1-4.3,10.5l-.7,1.2a8.34,8.34,0,0,1-.8,1.2c-.5.7-1.1,1.5-1.6,2.3l-1.8,2.1c-.6.7-1.3,1.4-2,2.1,0,0-.1,0,.1-.1a12,12,0,0,1-1.2,1.1,11.32,11.32,0,0,0-1.3,1c-.4.3-.9.6-1.3.9s-.9.5-1.3.8h0c-.5.4-1.1.7-1.7,1.1l-1.8.9a25,25,0,0,1-3.8,1.5,13.89,13.89,0,0,1-1.9.6c-.7.2-1.3.3-1.9.5-1.3.3-2.6.5-3.8.7a38.38,38.38,0,0,1-19.3-3.3v-.1a37.64,37.64,0,0,1-12.2-9.5c-3.3-4.2-6.4-9.2-7.5-14.6-.1-.4-.2-.8-.3-1.3s-.1-.9-.2-1.4c-.1-.9-.4-1.9-.5-2.8s-.2-1.9-.2-2.8a21.12,21.12,0,0,1,.2-2.6c.1-1.6.6-3.2.8-4.8.2-.8.4-1.5.6-2.3a20.16,20.16,0,0,1,.7-2.3l.8-2.3a21.4,21.4,0,0,1,1-2.2l.5-1.1.6-1.1,1.2-2.1,1.4-1.8.7-.9.8-.8,1.5-1.7c.5-.5,1.1-1,1.6-1.5a23.87,23.87,0,0,1,3.5-2.8c.6-.4,1.3-.8,1.9-1.2a17.38,17.38,0,0,1,1.9-1c.6-.3,1.2-.7,1.9-1,.3-.1.7-.3,1-.4l1.1-.3c.7-.2,1.4-.4,2.2-.7s1.5-.3,2.2-.5h-.1a10.46,10.46,0,0,0,1.7-.4,2.4,2.4,0,0,1,1.4-.2h-.1c.6.1,1.3-.6,1.7-.5l.1-.1c.7-.1.1.1.6.1.2,0,.1-.2.5-.1.1.4,1.7-.2,1.8.2-.4,0,.6.1-.3.3.2,0,1.4-.1,1.3-.2.1-.2.6-.3-.2-.5l-.1.1a.77.77,0,0,1-.3-.2c-.9,0-1.1-.2-1.8-.2h0a3.93,3.93,0,0,1-1.5.1l-.2-.1c-.2-.1-1,.5-.8.2-.9.2-2,.3-3,.6s-2.1.5-3.1.8c-.3.2-1.6.6-1.1.6a13.43,13.43,0,0,0-2.7.7.1.1,0,0,1,.1-.1c-1.2.2-1.1.8-2.3,1,0,.2-.5.3-1,.6a4.14,4.14,0,0,0-1.2.9c-.1,0-.2,0-.2-.1a9.13,9.13,0,0,0-1.3.8l-1.2.9a21.05,21.05,0,0,0-2.2,1.7c-.9,1.1-2.6,2.2-3.2,3.4l-1.3,1.3a11.8,11.8,0,0,0-1.3,1.8l.1-.1a22.22,22.22,0,0,0-2.4,4c-.5.2-.7.9-1.1,1.5-.2.5-.5,1.2-.9,2a24.13,24.13,0,0,0-.8,2.5c-.2.2-.4,1.3-.6,1.3-.2,1.1-.5,2.3-.7,3.5s-.4,2.5-.5,3.8-.2,2.6-.2,3.8,0,2.5.1,3.8v-.1a15.39,15.39,0,0,0,.8,1.9c0,.1,0,.1-.1-.1a5.7,5.7,0,0,1,.1,1.3,7.89,7.89,0,0,0,.3,1.3l-.1-.1c.3.8.3,1.7.7,2.6v.1l.3.6c-.1,0-.2,0-.3-.3a34.24,34.24,0,0,0,5.3,10.2l.9,1.1a10.63,10.63,0,0,0,.9,1.1l2,2.1,2.2,1.9a20.28,20.28,0,0,0,2.3,1.8l-.3-.1,1.3.8h-.2a35.3,35.3,0,0,0,5,2.8s-.3,0-.1.1a12.62,12.62,0,0,1,1.6.7,2.66,2.66,0,0,0,1.2.3c.1,0,.1.1-.1.1l1.4.5.7.2.7.2c.9.2,1.9.5,2.8.7l2.9.4.7.1h.7l1.5.1c1.6,0,3.3-.2,5-.3a18.66,18.66,0,0,0,2.5-.4,5.07,5.07,0,0,1,1.3-.2,5.64,5.64,0,0,0,1.2-.4v.1a39.76,39.76,0,0,0,12.1-5.4,23,23,0,0,0,3.8-3.2h.1c1.1-1.1,2.2-2.3,3.4-3.5.6-.6,1.1-1.3,1.6-1.9a6.07,6.07,0,0,0,.7-1c.2-.4.4-.7.6-1.1v.3c.1-.5,1.1-1.7.7-1.6l.4-.4a12.78,12.78,0,0,1,1.3-2.9,17.46,17.46,0,0,0,1.3-3.3v.2a9.48,9.48,0,0,1,.6-2v.2a13.12,13.12,0,0,0,.9-3.4c.1-1.2.3-2.4.3-3.6l.1.3v-2.3a10,10,0,0,0-.1-2.5l.1.1-.1-.8h.1a14.46,14.46,0,0,0-.4-2.9C194.88,99.42,194.78,98.42,194.48,97.52Z"/><rect class="cls-1" x="61.2" y="85.76" width="5.7" height="42.2" transform="translate(-46.42 164.47) rotate(-86.61)"/><polygon class="cls-2" points="85.68 110.92 85.68 110.92 85.58 110.82 85.68 110.92"/><path class="cls-2" d="M85.48,110.22h0l.2.5C85.78,110.52,85.28,110.32,85.48,110.22Z"/><path class="cls-2" d="M85.48,110a.22.22,0,0,0-.1-.3C85.48,109.82,85.38,110.12,85.48,110Z"/><path class="cls-2" d="M70.58,104.42v.1a9.66,9.66,0,0,1,2.4.1h-.1a58.08,58.08,0,0,0,5.9.1l-.1.1c.1,0,.2-.1.3-.1l-.1.1c.4.2,1.3,0,1.5.1s.2-.1.1-.1a17,17,0,0,1,2.3.1h2.8v.2a.22.22,0,0,1-.2.2,1.7,1.7,0,0,0,.1.7v1.6a14.92,14.92,0,0,1-.2,2.1c.1.1.1-.1.2,0,.1-.4-.1-.8,0-1.2l.1.1c.1-.3-.2-.1-.1-.4.1-.1.1,0,.1,0a12.05,12.05,0,0,0,0-1.9c.2,0,.1-1,.3-1.5h0a2,2,0,0,0-.8.1l-1.1-.1-.8-.1a9.7,9.7,0,0,1-1.7-.1c-1.1,0-2.3-.1-3.4-.1-1.1.3-2.3-.2-3.6-.2h0a3.78,3.78,0,0,1-1.5,0l-.4.1c-2.9-.4-5.9-.4-8.9-.7a63.07,63.07,0,0,0-9.7-.5l.1-.1a25.28,25.28,0,0,0-2.7-.1h0c-2.2.1-4.6-.3-6.8-.2-.5,0-1.1-.1-1.7-.1-.1.9-.1,1.9-.2,2.9s-.1,2-.1,3h1.1v.1c2.2,0,4.3.5,6.6.5,2.3.3,4.7-.1,7,.2,1.4.4,3.3-.2,4.6.2a31.49,31.49,0,0,0,8.1.4c2.5.3,5.1,0,7.5.5,1.2-.2,2.4.4,3.7.4v-.1c.4.3,1.1-.3,1.3.1h0c.2.2.6-.4.7-.2v-.1c.3,0,0,.1.3.2.1,0,0-.2.2-.1,0,.4.7,0,.7.4-.2,0,.2.2-.1.2.1,0,.6.1.6-.1s.3-.3,0-.5l-.1.1c-.1-.1-.1-.1-.1-.2-.4,0-.4-.2-.7-.3h0c-.2.1-.5,0-.6,0l-.1-.1c-.1-.2-.5.3-.3,0a23.48,23.48,0,0,1-2.6-.1c-.1.1-.7,0-.5.2a2.28,2.28,0,0,0-1.1-.3h.1c-.5-.3-.6.2-1-.1-.1.2-.8-.1-1.1.1-.1-.1-.1-.1,0-.2a21.16,21.16,0,0,0-2.4-.2c-.6.2-1.4-.2-1.9.1a4.42,4.42,0,0,0-1.7-.2h.1a5.57,5.57,0,0,0-1.9.1c-.2-.3-.5-.3-.7-.4-.4.1-1.3,0-2,.1-.1-.1-.6,0-.6-.2a18.71,18.71,0,0,1-6.2-.4h0c-.3.1-.6.3-.9.4h0c-.4,0-.7-.2-1.1-.2l.1-.1c-.3.1-.7-.2-1.1-.1v-.1l-.3.1c0-.1,0-.2.2-.1-3.1-.2-6.4-.1-9.6-.3l.1-.1-.6.1.1-.1a19.27,19.27,0,0,0-2.4-.1s.1-.1,0-.1h-.4c-.1,0-.1-.1-.1,0h-.1l.1-.1v-2.1a17.91,17.91,0,0,1,.2-2.4c0-.1-.1-.3-.1-.4h1.5a10.82,10.82,0,0,0,1.8,0v.1a54,54,0,0,1,5.6.3c.8.1,1.3,0,2.1.1v.1c1.3-.2,2.7.4,4.1.2l-.1.1c.2-.2.8.1.8-.2l.2.1c1-.3,1.7.3,2.8.1l-.1.1c.3,0,.7-.1.9,0h-.1a14.64,14.64,0,0,0,3,.2l-.1.1c.5-.1,1.4.1,2,0v.1l.3-.1v.1Z"/><rect class="cls-1" x="26.47" y="76.43" width="54.5" height="5.7" transform="translate(-41.27 91.44) rotate(-63.17)"/><path class="cls-2" d="M39.58,103.12h0L39,103C39.08,103.32,39.48,102.92,39.58,103.12Z"/><path class="cls-2" d="M39.68,103.22c.2.2.3.1.4.1C40,103.32,39.78,103.12,39.68,103.22Z"/><path class="cls-2" d="M53,87.12h0c-.3.8-1,1.7-1.4,2.6v-.1c-1.2,2.2-2.1,4.4-3.1,6.7v-.1a.6.6,0,0,1-.1.4v-.1c-.4.4-.6,1.4-.9,1.7-.1.1,0,.2.1.2-.8,1.8-1.8,3.7-2.5,5.5-.1.1-.1.1-.2,0a4.17,4.17,0,0,0-.2.6l-.4.9-1.3-.6-.9-.5c-.6-.3-1.2-.7-1.8-1-.1,0,.1.2-.1.1.5.3,1,.3,1.4.7h-.1c.3.2.2-.1.5.1.1.1-.1.1,0,.1.3.2.6.3.9.5a9.75,9.75,0,0,0,1.4.6c.1-.2.1-.3.2-.5.1,0,.1-.1.2-.3a1.42,1.42,0,0,0,.2-.4,2.19,2.19,0,0,1,.3-.5,4.33,4.33,0,0,1,.1-.5c1.3-2.4,2.5-5,3.8-7.6.3-1.3,1.4-2.6,2-4h0a13,13,0,0,1,.8-1.7l.1-.5c1.9-3.2,3.4-6.6,5.2-9.9a100.25,100.25,0,0,0,5.4-10.9s.1,0,0,.1c.5-1.1,1.1-2,1.5-3.1h0c1-2.6,2.7-5.2,3.6-7.7.3-.6.6-1.2,1-1.9-1.7-.8-3.5-1.7-5.3-2.6-.4.8-.8,1.7-1.2,2.6h-.1c-1.1,2.5-2.7,4.8-3.8,7.3-1.4,2.5-2.3,5.4-3.8,7.9-1.1,1.5-1.5,3.8-2.6,5.2a46.11,46.11,0,0,0-4.5,9.2c-1.6,2.8-2.6,5.8-4.3,8.4-.5,1.4-1.6,2.6-2.3,4.1h.1c-.5.4-.3,1.3-.8,1.5v-.1c-.3.2.1.8-.2.9l.1.1c-.1.3-.1,0-.3.2,0,.1.1.1,0,.3-.3-.1-.3.9-.7.7.1-.2-.3.2-.2-.2-.1.1-.4.7-.2.7s.2.4.5.1l-.1-.1c.2-.1.1-.1.2-.1.2-.4.4-.4.7-.7h0a1.49,1.49,0,0,1,.3-.7h.1c.2,0,0-.6.2-.4.4-.9.9-2,1.4-3,0-.2.4-.8.1-.6a3.45,3.45,0,0,0,.9-1.2v.1c.5-.4.1-.8.7-1.1-.2-.2.5-.9.4-1.3h.2c.5-.9,1.1-1.9,1.5-2.6.1-.8.9-1.5.9-2.2a6.07,6.07,0,0,0,1-1.8v.1a8.38,8.38,0,0,0,.9-2.3c.4-.1.5-.4.7-.7.1-.6.7-1.5.9-2.3.2-.1.3-.6.5-.6a28.44,28.44,0,0,1,3.6-6.9h0a4.05,4.05,0,0,0,0-1.1s.1,0,0,.1a12.75,12.75,0,0,0,.7-1.2v.1c.1-.4.5-.7.6-1.2h.1l.1-.3c.1,0,.1.1,0,.2,1.8-3.5,3.4-7.3,5.3-10.9v.2l.3-.8v.1c.5-.8.9-1.9,1.3-2.7,0,0,0,.2.1.1.2-.7.7-.9.6-1.4a.1.1,0,0,1,.1.1l.2-.5.1-.3.3.1.5.2,1.1.5a22.56,22.56,0,0,0,2.2,1.1c.2.1.3.1.5.2a3.39,3.39,0,0,0-.3.8c-.2.3-.3.7-.5,1a18.94,18.94,0,0,0-.9,2.1h-.1c-.8,2.1-2.1,4.2-3.1,6.3a25.57,25.57,0,0,0-1.1,2.4h-.1c-.5,1.6-1.8,3-2.3,4.7v-.2c0,.3-.5.9-.2.9l-.2.2c-.2,1.2-1.1,1.8-1.5,3.2v-.1a2.34,2.34,0,0,1-.5,1v-.1c-.8.9-1.1,2.3-1.7,3.4l-.1-.2a22.89,22.89,0,0,1-1.1,2.3v-.1l-.1.4h-.1A9.17,9.17,0,0,0,53,87.12Z"/><path class="cls-2" d="M40,101.32l-.1.1C40,101.42,40,101.42,40,101.32Z"/><rect class="cls-1" x="66.68" y="49.72" width="70.6" height="5.7"/><polygon class="cls-2" points="65.98 49.62 65.88 49.72 66.08 49.92 65.98 49.62"/><path class="cls-2" d="M66.18,50.92c0-.1.1,0,0,0l-.2-.8C65.78,50.42,66.28,50.72,66.18,50.92Z"/><path class="cls-2" d="M66.18,51.12c-.1.3.1.4.1.5C66.18,51.52,66.28,51,66.18,51.12Z"/><path class="cls-2" d="M93.48,55.32l.1-.1c-1.2.2-2.6,0-3.8.1h.1c-3.2,0-6.2.1-9.4.2a.1.1,0,0,0,.1-.1c-.2,0-.3.1-.5.1a.1.1,0,0,1,.1-.1,19.05,19.05,0,0,0-2.4,0c-.2,0-.3.1-.2.2-2.5,0-5.2.1-7.7.2a.1.1,0,0,1-.1-.1,7.57,7.57,0,0,1-1.5.1h-2v-4.1c-.1-.1-.1.2-.2,0-.1.7.2,1.3,0,2l-.1-.1c0,.5.2.1.1.6-.1.2-.1,0-.1,0v1.7h1.5c.3,0,.6-.1.9-.1.2.2,1.1,0,1.5.2.3-.1.5,0,.6-.2,3.5.1,7.1-.1,10.7-.1,1.7-.3,3.7.1,5.7,0h0a18.48,18.48,0,0,1,2.4-.1l.7-.1c4.7.3,9.5.1,14.2.2,5.4.1,10.1.3,15.4-.1l-.1.1c1.5-.1,2.9.1,4.3,0h0c3.6-.3,7.4,0,10.8-.2h2.6v-5.9c-1.7,0-3.4,0-5.2.1v-.1c-3.5.1-6.9-.2-10.5-.1-3.6-.1-7.4.4-11.1.2-2.3-.3-5.2.3-7.4,0a70.57,70.57,0,0,0-13,.1c-4-.2-8,.3-11.9-.1-1.8.2-3.9-.3-5.9-.2l.1.1c-.7-.2-1.6.3-2.1,0h.1c-.4-.2-.9.4-1.1.2l-.1.1c-.5,0-.1-.1-.4-.1-.1,0-.1.2-.3.1-.1-.4-1.2.1-1.2-.3.3,0-.4-.2.2-.2-.2,0-1,0-.9.1-.1.2-.4.3.1.5l.1-.1c.2.1.1.1.2.2.6,0,.7.2,1.2.3h0a1.17,1.17,0,0,1,1,0l.1.1c.1.2.7-.3.5,0,1.3-.1,2.7-.1,4.2-.1.2-.1,1.1,0,.8-.2a5.66,5.66,0,0,0,1.8.3h-.1c.8.3.9-.3,1.6.1.1-.2,1.3.1,1.7-.2l.1.1c1.3,0,2.7.1,3.8.1.9-.2,2.3.1,3.1-.2a11.5,11.5,0,0,0,2.7.1h-.1a14.67,14.67,0,0,0,3.1-.2c.3.3.8.2,1.2.3.7-.1,2.1-.1,3.2-.2.2.1.9-.1.9.1a54.55,54.55,0,0,1,9.9,0h0a6.94,6.94,0,0,0,1.3-.5h-.1a9.7,9.7,0,0,0,1.7.1l-.1.1c.5-.1,1.1.2,1.8,0v.1l.4-.1c0,.1,0,.2-.2.1,5,.1,10.2-.3,15.3-.2l-.2.1,1-.1a.1.1,0,0,0-.1.1c1.3.1,2.6-.1,3.8,0,0,0-.2.1,0,.1.9-.2,1.5.2,1.9-.1,0,0,.1.1,0,.1a7.57,7.57,0,0,0,1.5-.1h1.2v4.3a2.49,2.49,0,0,1,.1.8h-2.5a28.1,28.1,0,0,0-2.9.1v-.1c-2.9.2-5.9,0-8.9,0-1.2,0-2.1,0-3.3.1v-.1c-2.1.3-4.4-.3-6.6.1l.2-.1c-.3.2-1.3-.1-1.2.2l-.4-.1c-1.5.4-2.7-.2-4.5.1l.1-.1a3.3,3.3,0,0,1-1.4,0h.1a25.65,25.65,0,0,0-4.8,0l.2-.1c-.8.2-2.2,0-3.2.1l.1-.1-.5.1v-.1C96,55.22,94.68,55.32,93.48,55.32Z"/><path class="cls-2" d="M80.08,55.52Z"/><rect class="cls-1" x="72.32" y="44.86" width="5.7" height="62.1" transform="translate(-24.17 36.61) rotate(-23.7)"/><polygon class="cls-2" points="64.98 45.62 64.98 45.62 64.88 45.82 64.98 45.62"/><path class="cls-2" d="M64.08,46.32h0l.5-.5C64.38,45.72,64.38,46.32,64.08,46.32Z"/><path class="cls-2" d="M64,46.32c-.3,0-.3.2-.3.3C63.68,46.52,64.08,46.42,64,46.32Z"/><path class="cls-2" d="M69.48,69.72h.1a29.17,29.17,0,0,1-1.4-3.1l.1.1c-1.1-2.6-2.3-5-3.6-7.5a.1.1,0,0,1,.1.1,1.38,1.38,0,0,1-.3-.4.1.1,0,0,1,.1.1c-.1-.6-.8-1.6-.8-2-.1-.1-.2-.2-.2-.1-.9-2-1.9-4.2-3-6.2,0-.1,0-.1.1-.1a14.69,14.69,0,0,1-1.2-2.3l1.3-.6.9-.4c.6-.2,1.2-.5,1.8-.7,0-.1-.2,0-.1-.1a11.11,11.11,0,0,1-1.6.7v-.1c-.4.1,0,.2-.4.3-.2,0,0-.1-.1-.1-.7.3-1.4.6-2,.9a5.14,5.14,0,0,0,.8,1.4c-.1.3.4.9.4,1.2.2.2.2.4.4.4,1.2,2.9,2.6,5.8,3.9,8.7.9,1.2,1.3,3,2.1,4.6h0a11.08,11.08,0,0,1,.9,1.9l.2.7c1.4,3.9,3.3,7.7,4.9,11.7,1.9,4.4,3.3,8.4,5.6,12.5l-.1-.1c.6,1.2,1,2.4,1.6,3.5h0c1.5,2.8,2.6,6,4.1,8.7l.9,2.1q2.55-1.2,5.4-2.4c-.5-1.2-1.1-2.4-1.6-3.6h.1c-1.4-2.8-2.3-5.7-3.6-8.5-1.2-3-3-5.9-4.1-9-.5-2-2.2-4.1-2.7-6a58.07,58.07,0,0,0-4.7-10.5c-1.3-3.3-3.1-6.4-4.2-9.7-.9-1.4-1.1-3.3-1.9-4.9V51c0-.7-.9-1.2-.7-1.7v.1c0-.4-.7-.6-.6-.8h-.1c-.2-.4.1-.1,0-.4-.1-.1-.2,0-.2-.2.3-.2-.5-.9-.1-1.1.1.2,0-.4.3,0,0-.2-.3-.8-.5-.7s-.4-.2-.4.3h.2c-.1.2,0,.1-.1.2a2.16,2.16,0,0,1,.1,1.1h0c.3.2.3.6.4.8v.1c-.1.2.5.5.2.4.5,1,1,2.2,1.6,3.4.2.1.4.9.4.6a4.19,4.19,0,0,0,.4,1.6.1.1,0,0,1-.1-.1c0,.7.6.6.5,1.4.3,0,.4,1.1.8,1.3a.1.1,0,0,1-.1.1c.5,1.1.9,2.2,1.3,3.1.5.7.7,1.9,1.3,2.4a7.87,7.87,0,0,0,.9,2.2l-.1-.1a17.32,17.32,0,0,0,1.3,2.4c-.2.4.1.7.1,1.1.4.5.8,1.7,1.3,2.5-.1.2.4.7.2.8a39.59,39.59,0,0,1,3.5,8.1h0a7.64,7.64,0,0,0,.9.9h-.1c.2.5.3,1,.5,1.4l-.1-.1c.3.4.3,1,.6,1.4h0l.2.3c-.1,0-.2,0-.2-.1,1.7,4.1,3.9,8.2,5.7,12.4l-.1-.1.5.8a.1.1,0,0,1-.1-.1c.4,1.1,1,2.1,1.4,3.1,0,0-.2-.1-.1,0,.5.7.3,1.3.8,1.5,0,0-.1.1-.1,0,.3.5.5,1,.8,1.5l-.3.1-.5.2-1.1.5c-.7.3-1.5.6-2.2.9l-.2.1-.1.1c-.1.1-.2.1-.3.2-.1-.1-.1-.2-.2-.3l-.3-.5c-.2-.4-.3-.8-.5-1.2a16.27,16.27,0,0,0-1.1-2.3h.1c-1.2-2.2-2.1-4.8-3.2-7.2-.4-1-.8-1.7-1.2-2.7l.1-.1c-1-1.6-1.3-3.7-2.4-5.3l.2.1c-.3-.2-.4-1.1-.6-.9l-.1-.3c-.9-1.1-.8-2.3-1.7-3.6l.1.1a3.45,3.45,0,0,1-.5-1.1l.1.1a32.94,32.94,0,0,0-1.7-3.9l.2.1c-.4-.6-.8-1.8-1.2-2.6h.1l-.3-.4.1-.1A10.39,10.39,0,0,1,69.48,69.72Z"/><rect class="cls-3" x="59.28" y="39.86" width="3.6" height="7.9" transform="translate(-12.46 28.26) rotate(-23.71)"/><path class="cls-2" d="M60.78,39.12h0v-.3C60.68,38.72,60.88,39.22,60.78,39.12Z"/><path class="cls-2" d="M60.78,39.12c-.1,0,0,.1,0,.1S60.88,39.22,60.78,39.12Z"/><path class="cls-2" d="M58.48,42.12h.1c-.3-.1-.2-.4-.3-.5h0L58,41c.1-.1.3-.2.5-.4v.1c.2.1.2-.2.3-.1v-.2a6.07,6.07,0,0,0,1-.7l.1.1c.2-.4.5-.4.9-.5a.1.1,0,0,0-.1-.1c-.1,0-.1.3-.3.2v-.1c-.1,0,.1.2,0,.1s0-.1,0-.1-.3.1-.4.3c-.1-.1-.2.1-.3-.1,0,.1-.1.1,0,.2a4.88,4.88,0,0,0-.7.3l-.4.2-.2.1-.3.1c-.1.3-.3.3-.7.4a1.69,1.69,0,0,0,.2.5h0a.55.55,0,0,1,.3.5h.2c0,.8.5,1.3.7,2s.3,1.5,1,2.1h-.1c.2.2.1.4.3.6h0c.5.4.4,1,.9,1.4.1.1.1.3.2.4a5.94,5.94,0,0,0,.8-.4c.2-.1.5-.3.7-.4v.1c.2-.2.5-.2.7-.3a2.61,2.61,0,0,0,.8-.3c.2,0,.3-.1.5-.2-.3-.6-.7-.8-.8-1.3.1-.4-.6-.6-.5-1,.2-.8-.4-1.3-.9-1.7-.1-.6-.7-1-.6-1.7-.3-.2,0-.6-.2-.9h-.1c.2-.2-.4-.1-.1-.3h0c.1-.1-.4,0-.3-.1H61c-.1-.1.1,0,.1-.1s-.2.1-.1,0c.3-.2-.1-.1.2-.3a.35.35,0,0,1,.2-.1s0-.1-.2-.1-.3.1-.4.2h.1c-.1.1-.1,0-.1.1s-.1.2-.2.3h0c.2,0,.1.1.1.1h-.1c-.1.1.3,0,.1.1.1.1.2.4.3.5s.1.2.2,0a.25.25,0,0,0-.1.4h0c-.2.2.3,0,0,.3.2-.1,0,.2.3.1l-.1.1a1.27,1.27,0,0,1,.1.6c.3,0,0,.4.4.3,0,.1-.1.3.1.4h0c.1.1.2.3.4.3-.2.2-.2.2-.2.3.2,0,.2.3.4.4-.1.1.1.1-.1.2a1.45,1.45,0,0,1,.6,1.4h.5c.1.1-.1.2,0,.3h-.1c.1,0-.1.2.1.2h.1c-.1,0-.1.1-.1,0a.35.35,0,0,0,.1.2v.1l.1.1a.35.35,0,0,0-.1.2,3.33,3.33,0,0,1-.6.3v-.1l-.1.2v-.1c-.2,0-.3.2-.5.3v-.1c-.1.2-.3-.1-.2.2V47c-.2.1-.3.2-.5.3a.37.37,0,0,1-.3.1c0,.1-.1.1-.1.2s-.1-.1-.2-.2-.1-.2-.3-.3h.1c-.4-.3-.3-.8-.6-1.2a1.38,1.38,0,0,0-.3-.4h.1c-.4-.2,0-.7-.5-.9h.1c-.2,0,0-.2-.3-.1l.1-.1c-.4,0,0-.4-.3-.6h.1c-.1,0-.2-.1-.1-.2h.1c.2-.3-.2-.4-.3-.7h.1c-.2,0-.1-.3-.3-.4h0l.1-.1C58.68,42.42,58.58,42.22,58.48,42.12Z"/><path class="cls-5" d="M53.78,33.62c4.1.9,12,.2,15.8,0s5.3,3.1,2.2,3.5-4.1,1.3-6.3,2.9-9.4,2.4-15.1,1.1-5.7-2.6-5.2-5.9S48.48,32.52,53.78,33.62Z"/><polygon class="cls-2" points="53.88 32.92 53.88 32.92 53.78 33.02 53.88 32.92"/><path class="cls-2" d="M53.38,33h0l.4-.2C53.58,32.72,53.38,33.22,53.38,33Z"/><path class="cls-2" d="M53.28,33c-.1-.1-.2,0-.2.1C53.08,33,53.28,33.12,53.28,33Z"/><path class="cls-2" d="M45.58,38.92h.1c-.5-.3-.4-.9-.5-1.4h0a13.4,13.4,0,0,1,.1-2,3.39,3.39,0,0,1,.5-1.9v.1c0-.1,0-.2.1-.2v.1c.1-.1.3-.2.4-.3s.3-.2.4-.2.1-.1,0-.2a9.82,9.82,0,0,1,3.4-.3s.1.1,0,.1a6.58,6.58,0,0,1,2.8.4c.1-.1-.1-.1,0-.2-.3-.2-.6.1-.8-.1v-.1c-.2-.1-.1.2-.3,0s0-.1,0-.1a5.7,5.7,0,0,0-1.3-.1c-.1-.2-.5-.1-.6-.3a.37.37,0,0,0-.3.1,9.66,9.66,0,0,0-2.4-.1,5.64,5.64,0,0,0-1.2.4,2.19,2.19,0,0,0-.9,1,18.43,18.43,0,0,0-.5,2.5h0a2,2,0,0,1,0,1.1c0,.1.1.2.2.3a3.17,3.17,0,0,0,.4,1.6,2.56,2.56,0,0,0,1.3,1,21.16,21.16,0,0,0,2.9,1.1A14.85,14.85,0,0,0,56,42v.1c.7-.1,1.2.1,1.9,0h0c1.5-.3,3.2-.2,4.6-.8a9.53,9.53,0,0,0,2.7-.9c.8-.5,1.5-1.2,2.3-1.7v.1a5.38,5.38,0,0,1,2-1,15.52,15.52,0,0,1,2.1-.4,2.66,2.66,0,0,0,1.2-.3c.4-.2.8-.5.8-.9a1.43,1.43,0,0,0-.3-1.1,3,3,0,0,0-.8-.8,2,2,0,0,0-1.5-.5,7.44,7.44,0,0,1-1.5,0,12.74,12.74,0,0,0-5.5.4c-1.7-.1-3.4.4-5.1,0-.8.2-1.6-.3-2.5-.3V34c-.3-.3-.7.3-.9-.1h0c-.1-.2-.4.4-.5.1v.1c-.2,0,0-.1-.2-.2s0,.2-.2.1c0-.4-.5,0-.4-.4.1,0-.1-.2.1-.2-.1-.1-.4-.1-.4.1s-.2.3-.1.5l.1-.1v.2c.3.1.3.3.5.4h0c.2-.1.3,0,.4,0v.1c0,.2.3-.3.2,0,.6,0,1.2.1,1.8.1.1-.1.5,0,.3-.2.1.2.6.3.8.3h0c.3.3.4-.3.7.1.1-.2.6.1.7-.2,0,.1.1.1,0,.1.6,0,1.2.1,1.6.1.4-.2,1,.1,1.3-.2a1.4,1.4,0,0,0,1.1,0h0a2.77,2.77,0,0,0,1.3-.3c.1.3.3.2.5.3a7.89,7.89,0,0,0,1.3-.3c.1.1.4-.1.4.1a6.65,6.65,0,0,1,2.1-.3,3.81,3.81,0,0,1,1.9.4h0c.2-.1.4-.3.6-.3h0c.2,0,.4.3.6.4h-.1c.2,0,.3.3.5.4h0l.2.1a.14.14,0,0,1-.2,0,1.39,1.39,0,0,1,.4.9,1.31,1.31,0,0,1-.8.6c-.2.1-.5.1-.8.2s-.6.1-.8.2a9.83,9.83,0,0,0-1.6.5l.1-.1-.4.3v-.1a3.39,3.39,0,0,0-1.4.9.1.1,0,0,0-.1-.1c-.2.4-.7.2-.6.6l-.1-.1a5.3,5.3,0,0,1-1.2,1,3.51,3.51,0,0,1-1.4.6c-.7.6-1.8.5-2.7.9v-.1a12,12,0,0,1-3.8.3,6.55,6.55,0,0,1-1.4,0v-.1c-.9.3-1.8-.4-2.8-.1l.1-.1c-.2.2-.5-.1-.5.2l-.2-.1c-.7.3-1.1-.4-1.9-.3l.1-.1c-.2,0-.5,0-.6-.1h.1a6.53,6.53,0,0,0-2-.5l.1-.1a6.47,6.47,0,0,1-1.3-.4h-.2l.1-.1C46.38,39.52,45.88,39.32,45.58,38.92Z"/><path class="cls-2" d="M54.38,34.32h0C54.28,34.22,54.38,34.22,54.38,34.32Z"/><path class="cls-5" d="M136.88,32.72h-18.6a2.11,2.11,0,0,1-2.1-2.1v-.5a2.11,2.11,0,0,1,2.1-2.1h18.6a2.11,2.11,0,0,1,2.1,2.1v.5A2.18,2.18,0,0,1,136.88,32.72Z"/><polygon class="cls-2" points="136.88 33.42 136.88 33.42 136.98 33.32 136.88 33.42"/><path class="cls-2" d="M137.38,33.12h0c-.1,0-.2.2-.3.3C137.18,33.52,137.28,33,137.38,33.12Z"/><path class="cls-2" d="M137.38,33.12c.1,0,.1-.1.1-.2C137.58,33.12,137.38,33,137.38,33.12Z"/><path class="cls-2" d="M133,28.12v.1c.4-.2.9,0,1.3-.1h0a8.6,8.6,0,0,0,1.6-.1,8.08,8.08,0,0,1,1.6-.1h-.1c.1,0,.1-.1.2-.1l-.1.1c.2.2.7.2.7.4.1,0,.1,0,.1-.1a2,2,0,0,1,.8,1.2,1.7,1.7,0,0,1,.1.7c0,.2.1.4.1.7h-.1a2.08,2.08,0,0,1-.3,1.3,1.9,1.9,0,0,1-1.1.7c0,.1.1,0,.1.2.3,0,.4-.4.7-.4v.1c.2-.1-.1-.2.1-.2a.1.1,0,0,1,.1.1,1.74,1.74,0,0,0,.6-1.1c.2,0,.1-.4.3-.6-.1-.1,0-.2-.1-.3a3.33,3.33,0,0,0,0-1,3,3,0,0,0-.4-1,2.28,2.28,0,0,0-1.9-1c-.6.3-1.3-.1-1.9,0h0a2,2,0,0,1-.8.1l-.2.1a38.54,38.54,0,0,0-4.8-.2,18.13,18.13,0,0,0-5.2.1v-.1c-.5.1-1-.1-1.5,0h0c-1.2.3-2.5,0-3.6.2h-1.1a1.61,1.61,0,0,0-1.1.5,2.46,2.46,0,0,0-.8,2.1h-.1a2.72,2.72,0,0,0,.6,1.7,1.81,1.81,0,0,0,1.7.7c1.2.1,2.5-.4,3.7-.2.8.3,1.8-.4,2.5,0a7.84,7.84,0,0,0,4.3-.1c1.3.2,2.7-.3,4,.1.6-.2,1.3.3,2,.2v-.1c.2.2.6-.3.7,0h0c.1.2.3-.4.4-.2v-.1c.2,0,0,.1.1.1s0-.2.1-.1c0,.4.4-.1.4.3-.1,0,.1.2-.1.2.1,0,.3,0,.3-.2s.1-.3,0-.5v.1c-.1-.1,0-.1-.1-.2s-.2-.2-.4-.3h0c-.1.2-.2.1-.3,0v-.1c0-.2-.2.3-.2,0a6.15,6.15,0,0,1-1.4.1c-.1.1-.4,0-.3.2-.1-.2-.5-.3-.6-.3h0c-.3-.3-.3.3-.5-.1,0,.2-.4-.1-.6.2v-.1c-.4,0-.9-.1-1.3-.1-.3.2-.8-.1-1,.2a1.34,1.34,0,0,0-.9-.1h0a1.5,1.5,0,0,0-1,.2c-.1-.3-.3-.2-.4-.3-.2.1-.7.1-1.1.2-.1-.1-.3.1-.3-.1a6.16,6.16,0,0,1-3.3,0h0a2.18,2.18,0,0,0-.4.5h0c-.2,0-.4-.2-.6-.1V32c-.2.1-.4-.2-.6,0v-.1l-.1.1c0-.1,0-.2.1-.1a23.48,23.48,0,0,0-2.6.1l-.6.1h-.5a1.8,1.8,0,0,1-.9-.6h.1a.22.22,0,0,1-.2-.2h.1a3.54,3.54,0,0,1-.3-1.1s.1.1.1,0,0-.3,0-.4,0-.1-.1-.2h.1a1.42,1.42,0,0,1,1.3-1.4,2,2,0,0,1,1.1-.2,3.75,3.75,0,0,0,1.1-.1V28a15,15,0,0,1,3,0c.4,0,.7-.1,1.1-.1V28c.7-.3,1.5.3,2.2-.1l-.1.1c.1-.2.4.1.4-.2l.1.3c.5-.4.9.2,1.5-.1v.1a.45.45,0,0,1,.5,0h0c.5.3,1.1,0,1.6,0l-.1.1c.3-.2.7,0,1.1-.1v.1l.2-.1v.1C132.08,28.22,132.48,28.12,133,28.12Z"/><path class="cls-1" d="M136.58,28a14.93,14.93,0,0,1,6.3,4.7s-5.5,4.4-5.5,8.2,6.8,37.6,10.5,44.7,8,13.8,11.3,15.8c0,0-.8,5.2-3.7,4.3,0,0-10.2-10.3-13.4-20.2s-7.9-39.4-9.8-43.9S137.28,36,136.58,28Z"/><polygon class="cls-2" points="135.88 28.12 135.88 28.22 135.98 28.42 135.88 28.12"/><path class="cls-2" d="M136.18,29.42h0l-.3-.8C135.78,28.92,136.28,29.22,136.18,29.42Z"/><path class="cls-2" d="M136.08,29.72a.4.4,0,0,0,.1.5C136.08,30.12,136.28,29.62,136.08,29.72Z"/><path class="cls-2" d="M137,63.52l.1.1a29.79,29.79,0,0,1-.9-4.3l.1.1c-.7-3.6-1.5-6.9-2.3-10.5a.1.1,0,0,0,.1.1c-.1-.2-.2-.3-.2-.5s.1,0,.1.1c0-.8-.6-2.2-.6-2.7-.1-.2-.2-.3-.2-.2a33.11,33.11,0,0,0-1.2-4.2,3.91,3.91,0,0,1-.1-2.4,8.11,8.11,0,0,1,1-2.1c.1-.1.2-.1.2,0,.6-1.1,1.4-2.1,2-3.2a10.38,10.38,0,0,0,1.2-3.5c-.1-.1-.1.2-.2,0a15.52,15.52,0,0,1-.4,2.1v-.1c-.2.5.2.2-.1.6-.1.2-.1-.1-.1,0-.4,1-1.1,1.9-1.6,2.9-.3.1-.7,1-1.1,1.3-.1.3-.3.6-.3.7a4.55,4.55,0,0,0-.8,3.2,2.35,2.35,0,0,1,.2.8l.2.7a7.37,7.37,0,0,1,.4,1.4c.5,2,1,4,1.4,6,.7,1.8.8,4.2,1.3,6.4h0a18.07,18.07,0,0,1,.6,2.7l.3.7c.8,5.3,2,10.6,3.1,16,.6,3,1.2,5.9,2,8.7a27.64,27.64,0,0,0,3.7,8s0,.1-.1-.1a43.24,43.24,0,0,0,2.7,4.2h0c2.6,3.2,5.1,6.8,8.1,9.4a1.94,1.94,0,0,0,1.8-.3,4.43,4.43,0,0,0,1.2-1.5,6.36,6.36,0,0,0,.6-1.8c0-.2.1-.3.1-.5v-.4l-.1-.1a5.55,5.55,0,0,1-.8-.6,25.18,25.18,0,0,1-5-5.8h.1a38.57,38.57,0,0,1-3.1-5.1c-.5-.9-.9-1.8-1.4-2.6s-.9-1.8-1.3-2.7c-.7-1.9-1.4-3.9-2.1-5.9a46.3,46.3,0,0,1-1.7-6.1c-.3-2.6-1.8-5.7-2-8.2a120.72,120.72,0,0,0-3.1-14.5c-.3-2.3-.8-4.5-1.2-6.8a6.53,6.53,0,0,1,0-3.4,7.53,7.53,0,0,1,1.7-3,8.2,8.2,0,0,1,1.7-2,10.63,10.63,0,0,1,1.1-.9,10.59,10.59,0,0,0,1.2-1c-.3-.4-.7-.8-.9-1.1v.1c-.4-.8-1.6-1.1-1.8-1.6h.1c-.2-.4-1.1-.3-1.2-.6h-.1c-.5-.3,0-.1-.3-.4-.1-.1-.1.1-.4-.1.1-.4-1.2-.6-1.1-.9.3.1-.4-.3.3-.1-.2-.1-1-.5-1-.3s-.5.2,0,.5l.1-.1c.1.2.1.1.1.2.6.3.6.5,1,.8h0c.4,0,.7.4.9.5v.1c0,.2.8.2.5.3a9.14,9.14,0,0,1,1.6,1.3,6,6,0,0,1,.8.8l.2.2.1.1.2.2-.1.1a.1.1,0,0,1-.1.1l-.3.3c-.2.2-.3.3-.1.3a4.31,4.31,0,0,0-1.7,1.3v-.1c-.8.5-.5,1-1.3,1.4.1.2-1,1.2-.9,1.8-.1.1-.2.1-.2,0a9.17,9.17,0,0,0-.9,2.3,8.82,8.82,0,0,0,0,2.3,30.92,30.92,0,0,0,.7,3.5,18.73,18.73,0,0,0,.5,3l-.1-.1a12.79,12.79,0,0,0,.9,3.4,2.23,2.23,0,0,0,0,1.4c.3.8.6,2.4.9,3.5-.1.2.3,1,.1,1.1a75,75,0,0,1,2.5,11.1h0c.2.4.6.9.8,1.3,0,.1,0,.1-.1,0,.2.6.2,1.3.4,1.9l-.1-.1a19.45,19.45,0,0,0,.5,2v.1l.2.4c-.1,0-.2,0-.2-.2.7,2.8,1.6,5.6,2.6,8.4a58.53,58.53,0,0,0,4,7.9l-.2-.2.7.9a.1.1,0,0,1-.1-.1,29.22,29.22,0,0,0,2.4,3.7s-.2-.1-.1.1c.7.8.8,1.5,1.4,1.7a.1.1,0,0,1-.1.1,30.84,30.84,0,0,0,3,3.3,5.5,5.5,0,0,0,.9.7c.1.1.3.2.4.3l.1.1h.1v.1a5.07,5.07,0,0,1-.2.9,4.18,4.18,0,0,1-.4,1,3.61,3.61,0,0,1-.8,1.5,1.84,1.84,0,0,1-1.6.5h-.2l-.1-.1-.3-.4-.7-.7-1.4-1.4h.1a50.94,50.94,0,0,1-6.2-8.1c-.7-1.2-1.3-2-2-3.2l.1-.1c-1.5-2-2-4.6-3.1-6.8l-.1.3c-.3-.3-.4-1.5-.6-1.2v-.4c-.8-1.5-.6-3-1.3-5l.1.1a4.71,4.71,0,0,1-.4-1.6c0,.1,0,0,.1.2a37.65,37.65,0,0,0-1.2-5.4l.2.2c-.3-.8-.5-2.5-.8-3.6l.1.1-.2-.6h.1C137.68,66.32,137.28,64.92,137,63.52Z"/><path class="cls-2" d="M138.08,29.42a.1.1,0,0,1-.1-.1C137.88,29.32,138,29.32,138.08,29.42Z"/><circle class="cls-3" cx="40.88" cy="105.92" r="4.3"/><path class="cls-2" d="M36.08,106.12h0l-.2-.1C35.68,106,36.18,106.12,36.08,106.12Z"/><path class="cls-2" d="M36.08,106.12c-.1.1.1.1.1.1S36.18,106.12,36.08,106.12Z"/><path class="cls-2" d="M39.88,110v-.1c-.3.1-.4-.1-.7-.1h0a10.09,10.09,0,0,1-1.5-.7h.1c0-.2-.3-.2-.3-.3a.1.1,0,0,0-.1.1,12.49,12.49,0,0,1-.9-1.2l.1-.1a1.37,1.37,0,0,1-.4-1.2c-.1,0-.1.1-.2,0-.1.2.2.2.1.4H36c0,.1.2,0,.1.1s-.1,0-.1,0c.1.2.1.4.3.5-.1.1.1.2-.1.3.1,0,.1.1.2.1a4.31,4.31,0,0,0,1.3,1.7c.4,0,.5.5.9.6h0c.2,0,.3,0,.4.1l.2-.1a3.33,3.33,0,0,0,2.6.4,2.74,2.74,0,0,0,2.5-1.6v.1c.1-.3.4-.4.5-.7h0c.1-.7.6-1.3.4-2a3.57,3.57,0,0,0-.5-2.3h.1c-.4-.5-.5-1.2-1.1-1.6-.5-.6-1.3-.4-1.9-.8-.4-.4-.9.2-1.3-.1a1.77,1.77,0,0,0-2.1.8,1.78,1.78,0,0,0-.8.7,2.7,2.7,0,0,1-.7.8c.1.4-.6.5-.6.9h.1c-.3.1.3.4-.1.4h0c-.2,0,.4.2.2.2h.1c0,.1-.1,0-.1.1s.2,0,.1.1c-.4,0,.1.2-.3.2,0,0-.2.1-.2,0s0,.2.1.2.3.1.5,0h.1c0-.1.2-.1.3-.2h0c-.2-.1-.1-.1,0-.2h.1c.2,0-.3-.1,0-.1a2,2,0,0,1,.1-.7c-.1-.1.1-.2-.1-.2a.52.52,0,0,0,.4-.2h0c.3,0-.2-.2.2-.2-.2-.1.2-.1-.1-.3.1,0,.1,0,.1.1.1-.2.3-.3.4-.4-.1-.3.3-.2.2-.5a.4.4,0,0,0,.4-.2h0a.62.62,0,0,0,.3-.5c.2.2.2.1.3.2,0-.2.2-.2.4-.4.1.1.1-.1.2.1.3-.5,1.1-.4,1.5-.1h0c.1-.1.2-.3.3-.4h0c.1,0,.2.2.3.2v.1c.1-.1.1.2.3.1v.1h.1a.1.1,0,0,1-.1.1,3.93,3.93,0,0,1,2.1,1.3h-.1l.2.1h-.1c0,.2.3.3.3.5a.1.1,0,0,0-.1.1c.2.1-.1.3.2.2h-.1a1.68,1.68,0,0,1,.3,1.2c.3.4,0,.7.2,1.2h-.1c.1.6-.3,1-.6,1.4a1.33,1.33,0,0,0-.3.5l-.1-.1c0,.5-.7.3-.8.8v-.1c0,.2-.2.1-.1.3h-.1c-.1.5-.5.1-.7.4V110a.31.31,0,0,1-.2.1V110c-.3-.2-.5.2-.8.2v-.1c-.1.2-.4,0-.6.1v-.1l-.1.1v-.1A3.44,3.44,0,0,0,39.88,110Z"/><circle class="cls-3" cx="159.08" cy="105.92" r="4.3"/><path class="cls-2" d="M154.38,106.12h0l-.2-.1C154,106,154.48,106.12,154.38,106.12Z"/><path class="cls-2" d="M154.28,106.12c-.1.1.1.1.1.1S154.48,106.12,154.28,106.12Z"/><path class="cls-2" d="M158.08,110v-.1c-.3.1-.4-.1-.7-.1h0a10.09,10.09,0,0,1-1.5-.7h.1c0-.2-.3-.2-.3-.3a.1.1,0,0,0-.1.1,12.49,12.49,0,0,1-.9-1.2l.1-.1a1.37,1.37,0,0,1-.4-1.2c-.1,0-.1.1-.2,0-.1.2.2.2.1.4h-.1c0,.1.2,0,.1.1s-.1,0-.1,0c.1.2.1.4.3.5-.1.1.1.2-.1.3.1,0,.1.1.2.1a4.31,4.31,0,0,0,1.3,1.7c.4,0,.5.5.9.6h0c.2,0,.3,0,.4.1l.2-.1a3.33,3.33,0,0,0,2.6.4,2.74,2.74,0,0,0,2.5-1.6v.1c.1-.3.4-.4.5-.7h0c.1-.7.6-1.3.4-2a3.57,3.57,0,0,0-.5-2.3h.1c-.4-.5-.5-1.2-1.1-1.6-.5-.6-1.3-.4-1.9-.8-.4-.4-.9.2-1.3-.1a4.7,4.7,0,0,0-2.9,1.5,2.7,2.7,0,0,1-.7.8c.1.4-.6.5-.6.9h.1c-.3.1.3.4-.1.4h0c-.2,0,.4.2.2.2h.1c0,.1-.1,0-.1.1s.2,0,.1.1c-.4,0,.1.2-.3.2,0,0-.2.1-.2,0s0,.2.1.2.3.1.5,0h.1c0-.1.2-.1.3-.2h0c-.2-.1-.1-.1,0-.2h.1c.2,0-.3-.1,0-.1a2,2,0,0,1,.1-.7c-.1-.1.1-.2-.1-.2a.52.52,0,0,0,.4-.2h0c.3,0-.2-.2.2-.2-.2-.1.2-.1-.1-.3.1,0,.1,0,.1.1.1-.2.3-.3.4-.4-.1-.3.3-.2.2-.5a.4.4,0,0,0,.4-.2h0a.62.62,0,0,0,.3-.5c.2.2.2.1.3.2,0-.2.2-.2.4-.4.1.1.1-.1.2.1.3-.5,1.1-.4,1.5-.1h0c.1-.1.2-.3.3-.4h0c.1,0,.2.2.3.2v.1c.1-.1.1.2.3.1v.1h.1a.1.1,0,0,1-.1.1,3.93,3.93,0,0,1,2.1,1.3h-.1l.2.1h-.1c0,.2.3.3.3.5a.1.1,0,0,0-.1.1c.2.1-.1.3.2.2H163a1.68,1.68,0,0,1,.3,1.2c.3.4,0,.7.2,1.2h-.1c.1.6-.3,1-.6,1.4a1.33,1.33,0,0,0-.3.5l-.1-.1c0,.5-.7.3-.8.8v-.1c0,.2-.2.1-.1.3h-.1c-.1.5-.5.1-.7.4V110a.31.31,0,0,1-.2.1V110c-.3-.2-.5.2-.8.2v-.1c-.1.2-.4,0-.6.1v-.1l-.1.1v-.1A3.08,3.08,0,0,0,158.08,110Z"/><circle class="cls-3" cx="91.58" cy="108.72" r="8.2"/><path class="cls-2" d="M85.78,115.12h-.4C85.38,115.32,85.78,115,85.78,115.12Z"/><path class="cls-2" d="M85.78,115.22c0,.1.2,0,.2,0S85.88,115.12,85.78,115.22Z"/><path class="cls-2" d="M95.88,115.62v-.1c-.2.4-.7.4-1.1.7h0a10.4,10.4,0,0,1-3,.9V117c-.1,0-.1.1-.2.1V117c-.2-.2-.7.1-.8-.1a.1.1,0,0,0-.1.1,12.82,12.82,0,0,1-2.7-.5v-.1a3.6,3.6,0,0,1-2.1-1.1c-.1,0,0,.1-.1.1.1.3.5.1.6.4h-.1c.1.1.1-.1.2,0s-.1.1,0,.1a1.78,1.78,0,0,0,1,.4c0,.2.3.2.4.4a.37.37,0,0,0,.3-.1,8,8,0,0,0,3.8.6c.6-.3,1.3-.1,2-.4h0a2,2,0,0,1,.8-.4l.2-.2a7.37,7.37,0,0,0,3.9-3.1,6.42,6.42,0,0,0,1.2-2.5,5,5,0,0,0,0-2.7h.1c0-.3-.1-.5-.1-.8a1.45,1.45,0,0,0-.2-.7h0c-.5-1.1-.9-2.5-1.9-3.2a7.89,7.89,0,0,0-3.7-2.5v-.1a8.62,8.62,0,0,0-3.5-.6c-1.3,0-2.4.9-3.5,1.3-.9.2-1.2,1.3-1.9,1.6a4.32,4.32,0,0,0-1.8,3.9,4.44,4.44,0,0,0-.1,2,13.55,13.55,0,0,1,.2,2c.4.5.2,1.3.6,1.9l.1-.1c-.1.4.6.3.4.6h0c-.1.2.5,0,.4.2h.1c.1.1-.1.1,0,.2a.14.14,0,0,1,.2,0c-.3.3.3.2,0,.5-.1-.1,0,.2-.2.1,0,.1.2.3.3.1s.3-.2.3-.4l-.1.1c.1-.1,0-.1.1-.2-.1-.2,0-.3,0-.5h0c-.2,0-.2-.1-.2-.2V113c.1-.1-.4,0-.1-.1a4.44,4.44,0,0,1-.8-1.1c-.1,0-.1-.3-.3-.1a.45.45,0,0,0,0-.6h0c.2-.3-.3-.2-.1-.5-.3,0,0-.4-.4-.5l.1-.1a5.28,5.28,0,0,1-.1-1.2c-.2-.3.1-.7-.2-1a1.06,1.06,0,0,0,.1-.8h0a3.35,3.35,0,0,0,0-1c.3,0,.3-.2.4-.3-.1-.3.1-.7.2-1,.1,0,.1-.3.3-.2a3.08,3.08,0,0,1,2-2.3h0a1.27,1.27,0,0,1,.1-.6h0c.1-.1.4-.1.5-.2v.1c.1-.2.4-.1.5-.3h0l.1-.1c0,.1.1.1,0,.2,1.4-.6,3.1-1.3,4.7-1l-.1.1.3-.1v.1c.4.2.8.1,1.2.3,0,0-.1.1,0,.1.3-.1.4.4.6.1a.1.1,0,0,1-.1.1,4.65,4.65,0,0,1,2.1,1.3c.8.2,1,1,1.6,1.5h-.1a5.36,5.36,0,0,1,1.1,2.7c0,.4.2.7.2,1.1h-.1c.4.7-.3,1.4-.1,2.2l-.1-.1c.1.1-.2.4.1.4l-.1.1c.2.6-.5.8-.5,1.4v-.1c0,.2-.1.4-.2.4v-.1c-.5.3-.5.9-.9,1.3l-.1-.1c-.1.3-.5.6-.7.8v-.1l-.1.2-.1-.1C96.48,115.12,96.28,115.42,95.88,115.62Z"/><path class="cls-2" d="M85.78,113.72Z"/><path class="cls-3" d="M98,93.72h-6.1a2.43,2.43,0,0,1-2.4-2.4v-.6a2.43,2.43,0,0,1,2.4-2.4H98a2.43,2.43,0,0,1,2.4,2.4v.6A2.5,2.5,0,0,1,98,93.72Z"/><path class="cls-2" d="M98.18,94.12h0c-.1,0-.1.1-.2.2C98.18,94.52,98.18,94,98.18,94.12Z"/><path class="cls-2" d="M98.28,94.12c.1.1.1-.1.1-.1S98.28,94,98.28,94.12Z"/><path class="cls-2" d="M99.68,89.22h0c.2.1.2.4.3.6h0a7.09,7.09,0,0,1,.4,1.7h-.1l.1.1h-.1c-.2.1.1.4-.1.4l.1.1a3.4,3.4,0,0,1-.7,1.5.1.1,0,0,1-.1-.1,1.31,1.31,0,0,1-1.2.7c0,.1.1.1,0,.2.2.1.2-.2.4-.2v.1c.1,0,0-.2.1-.1s0,.1,0,.1c.2-.1.5-.2.5-.4.1.1.2-.1.4-.1,0-.1.1-.1,0-.2a2.78,2.78,0,0,0,.8-2.1c-.2-.2-.1-.3-.1-.5s.1-.4,0-.6h0a.76.76,0,0,1-.2-.5l-.2-.1a2,2,0,0,0-.8-1.2,3.36,3.36,0,0,0-1.4-.5,5.71,5.71,0,0,0-2.9.1v-.1c-.3.1-.5-.1-.8,0h0c-.7.3-1.4,0-2,.2a4.87,4.87,0,0,0-1.2.1,2,2,0,0,0-1,.8h0a2.62,2.62,0,0,0-.5.9,1.8,1.8,0,0,0-.2,1,1.23,1.23,0,0,0,.2,1,4.05,4.05,0,0,1,.5.9c0,.3.3.4.5.4s.5.1.6.3a1.1,1.1,0,0,0,1.2.3l1.2-.3c.7.2,1.5-.3,2.2.1.3-.2.7.3,1.1.2v-.1c.1.2.3-.3.4,0h0c.1.2.2-.4.2-.2v-.1c.1,0,0,.1.1.1s0-.2.1-.1c0,.4.2-.1.2.3,0,0,.1.2,0,.2a.2.2,0,0,0,.2-.2c0-.2.1-.3,0-.5v-.1c-.1,0-.1-.2-.2-.3h0c-.1.2-.1.1-.2,0v-.1c0-.2-.1.3-.1,0a2,2,0,0,1-.8.1c0,.1-.2,0-.1.2a.75.75,0,0,0-.3-.3h0c-.1-.3-.2.3-.3-.1,0,.2-.2-.1-.3.2v-.1c-.2,0-.5-.1-.7-.1-.2.2-.4-.1-.6.2a.44.44,0,0,0-.5-.1h0a.73.73,0,0,0-.6.2c-.1-.3-.1-.2-.2-.3-.1.1-.4.1-.6.2,0-.1-.2.1-.2-.1a.83.83,0,0,1-.8.2c-.3-.1-.5-.3-.5-.5h0a.76.76,0,0,1-.5.2h0c-.1,0,0-.2-.1-.3h.1c-.1,0,0-.2-.2-.2h-.1c.1,0,.1-.1.1,0a3,3,0,0,1-.4-1,1.93,1.93,0,0,1,0-1.3h0v-.2h0c.2-.1.1-.4.3-.5a.1.1,0,0,0,.1.1c0-.2.3,0,.1-.3l.1.1a1.43,1.43,0,0,1,1.1-.5c.3-.3.8,0,1.2-.3v.1a4.84,4.84,0,0,1,1.7,0c.2,0,.4-.1.6-.1v.1c.4-.3.8.3,1.2-.1v.1c.1-.2.2.1.2-.2l.1.1c.3-.4.5.2.8-.1v.1a.19.19,0,0,1,.3,0h0c.3.3.6,0,.9.1l-.1.1c.2-.1.4.1.5.1H99l-.1.1A1.51,1.51,0,0,1,99.68,89.22Z"/><path class="cls-3" d="M91.48,129.12h-6.1a2.43,2.43,0,0,1-2.4-2.4v-.6a2.43,2.43,0,0,1,2.4-2.4h6.1a2.43,2.43,0,0,1,2.4,2.4v.6A2.43,2.43,0,0,1,91.48,129.12Z"/><polygon class="cls-2" points="91.48 129.72 91.58 129.82 91.58 129.72 91.48 129.72"/><path class="cls-2" d="M91.78,129.52h0c-.1,0-.1.1-.2.2C91.68,129.92,91.78,129.42,91.78,129.52Z"/><path class="cls-2" d="M91.88,129.52c.1.1.1-.1.1-.1S91.78,129.42,91.88,129.52Z"/><path class="cls-2" d="M93.28,124.62h0c.2.1.2.4.3.6h0a7.09,7.09,0,0,1,.4,1.7h-.1l.1.1h-.1c-.2.1.1.4-.1.4l.1.1a3.4,3.4,0,0,1-.7,1.5.1.1,0,0,1-.1-.1,1.31,1.31,0,0,1-1.2.7c0,.1.1.1,0,.2.2.1.2-.2.4-.2v.1c.1,0,0-.2.1-.1s0,.1,0,.1c.2-.1.5-.2.5-.4.1.1.2-.1.4-.1,0-.1.1-.1,0-.2a2.78,2.78,0,0,0,.8-2.1c-.2-.2-.1-.3-.1-.5s.1-.4,0-.6h0a.76.76,0,0,1-.2-.5l-.2-.1a2,2,0,0,0-.8-1.2,3.36,3.36,0,0,0-1.4-.5,5.71,5.71,0,0,0-2.9.1v-.1c-.3.1-.5-.1-.8,0h0c-.7.3-1.4,0-2,.2a4.87,4.87,0,0,0-1.2.1,2,2,0,0,0-1,.8h0a2.62,2.62,0,0,0-.5.9,1.8,1.8,0,0,0-.2,1,1.23,1.23,0,0,0,.2,1,4.05,4.05,0,0,1,.5.9c0,.3.3.4.5.4s.5.1.6.3a1.1,1.1,0,0,0,1.2.3l1.2-.3c.7.2,1.5-.3,2.2.1.3-.2.7.3,1.1.2v-.1c.1.2.3-.3.4,0h0c.1.2.2-.4.2-.2V129c.1,0,0,.1.1.1s0-.2.1-.1c0,.4.2-.1.2.3,0,0,.1.2,0,.2a.2.2,0,0,0,.2-.2c0-.2.1-.3,0-.5v-.1c-.1,0-.1-.2-.2-.3h0c-.1.2-.1.1-.2,0v-.1c0-.2-.1.3-.1,0a2,2,0,0,1-.8.1c0,.1-.2,0-.1.2a.75.75,0,0,0-.3-.3h0c-.1-.3-.2.3-.3-.1,0,.2-.2-.1-.3.2v-.1c-.2,0-.5-.1-.7-.1-.2.2-.4-.1-.6.2a.44.44,0,0,0-.5-.1h0a.73.73,0,0,0-.6.2c-.1-.3-.1-.2-.2-.3-.1.1-.4.1-.6.2,0-.1-.2.1-.2-.1a.83.83,0,0,1-.8.2c-.3-.1-.5-.3-.5-.5h0a.76.76,0,0,1-.5.2h0c-.1,0,0-.2-.1-.3H84c-.1,0,0-.2-.2-.2h-.1c.1,0,.1-.1.1,0a3,3,0,0,1-.4-1,1.93,1.93,0,0,1,0-1.3h0v-.2h0c.2-.1.1-.4.3-.5a.1.1,0,0,0,.1.1c0-.2.3,0,.1-.3l.1.1a1.43,1.43,0,0,1,1.1-.5c.3-.3.8,0,1.2-.3v.1a4.84,4.84,0,0,1,1.7,0c.2,0,.4-.1.6-.1v.1c.4-.3.8.3,1.2-.1v.1c.1-.2.2.1.2-.2l.1.1c.3-.4.5.2.8-.1v.1a.19.19,0,0,1,.3,0h0c.3.3.6,0,.9.1l-.1.1c.2-.1.4.1.5.1h.1l-.1.1C92.78,124.42,93.08,124.42,93.28,124.62Z"/><polygon class="cls-6" points="90.58 123.72 96.98 93.72 93.08 93.72 86.68 123.72 90.58 123.72"/><polygon class="cls-2" points="90.58 123.12 90.48 123.02 90.38 123.12 90.58 123.12"/><path class="cls-2" d="M90,123.32h0l.4-.2C90.18,122.92,90.08,123.42,90,123.32Z"/><path class="cls-2" d="M89.88,123.32c-.1-.1-.2.1-.2.1S89.88,123.42,89.88,123.32Z"/><path class="cls-2" d="M88.88,113.12l-.1-.1a5.08,5.08,0,0,1-.3,1.7h0c-.3,1.4-.4,2.8-.7,4.2v-.1a.35.35,0,0,0,.1.2l-.1-.1c-.2.3-.1.9-.3,1.1a.1.1,0,0,0,.1.1c-.1.6-.2,1.1-.3,1.7l-.1.9v.5a.35.35,0,0,1-.2.1h0a9.33,9.33,0,0,1,2.5-.1c0-.1-.1-.1,0-.2-.3-.1-.6.2-.9,0v-.1c-.2,0,0,.2-.3.1-.1-.1,0-.1,0-.1h-1l-.1.1v-.1a.1.1,0,0,1,.1-.1h-.2v-.1l.1-.3.1-.6.2-1.2a20.48,20.48,0,0,1,.5-2.4c-.2-.8.4-1.6.5-2.5h0a2.34,2.34,0,0,1,.2-1.1l-.1-.3a64.25,64.25,0,0,0,1.5-6.3,32.5,32.5,0,0,0,1.4-6.9s.1,0,0,.1c.1-.7.3-1.3.4-1.9h0c.1-1.6.7-3.3.8-4.8.1-.3.1-.6.2-1,1,0,2.6,0,3.7-.1l-.2,1h-.1c-.2,1.6-.9,3-1.1,4.6-.5,1.6-.4,3.4-.9,5-.5.9-.2,2.4-.7,3.3a14.26,14.26,0,0,0-1.1,5.8c-.5,1.7-.5,3.6-1.2,5.3a12.94,12.94,0,0,1-.8,2.6h.1c-.3.3.2.8-.2.9h0c-.2.1.3.5.1.6h.1c0,.2-.1,0-.2.2s.2.1.1.2c-.4,0,0,.5-.4.5,0-.1-.2.1-.2-.1-.1.1-.1.4.1.4s.3.2.5.1l-.1-.1h.2c.1-.3.3-.3.4-.5h0c-.1-.2,0-.3.1-.4h.1c.2,0-.2-.4,0-.2.1-.6.2-1.2.3-1.9-.1-.1.1-.5-.1-.4.3-.1.4-.6.4-.7h0c.4-.3-.2-.5.2-.7-.2-.1.2-.6,0-.8h.2c.1-.6.4-1.2.5-1.7-.1-.5.3-1,.1-1.4a2.13,2.13,0,0,0,.3-1.2h0a3.53,3.53,0,0,0,.1-1.4c.3-.1.3-.3.4-.5a8.64,8.64,0,0,1,.1-1.5c.1,0,0-.4.2-.4a10.06,10.06,0,0,1,1-4.4h0c-.1-.2-.2-.5-.3-.7h0c0-.3.3-.5.3-.7l.1.1c0-.3.3-.5.2-.8h.1v-.2c.1,0,.2,0,.1.1.5-2.2.7-4.6,1.2-6.8v-.4l.1.1a10.1,10.1,0,0,0,.3-1.7s.1.1.1,0a1.85,1.85,0,0,1,.2-.7c.1-.2.1-.5,0-.5l.1-.1v-.2l-1.3.1h-2.6a1.27,1.27,0,0,1-.6.1c0,.3-.1.6-.1.8l-.1.6a5.85,5.85,0,0,0-.2,1.3h-.1a31.44,31.44,0,0,1-.8,4,9.92,9.92,0,0,1-.3,1.5h-.1c.1,1-.7,1.9-.6,2.9l-.1-.1c.1.2-.2.6.1.6l-.1.2c.2.7-.4,1.2-.4,2L90,107c0,.2,0,.5-.1.6v-.1a4.92,4.92,0,0,0-.4,2.1l-.1-.1c.1.4-.2,1-.2,1.4h-.1v.2H89A12.12,12.12,0,0,1,88.88,113.12Z"/><path class="cls-2" d="M91.28,123.12Z"/></svg>