<svg id="Layer_1" data-name="Layer 1" xmlns="http://www.w3.org/2000/svg" viewBox="0 0 200 170"><defs><style>.cls-1{fill:#e1f0e7;}.cls-2{fill:#68be96;}.cls-3{fill:#bbdcc8;}.cls-4{fill:#52b587;}.cls-5{fill:#f0f7f3;}</style></defs><title>Artboard 1</title><path class="cls-1" d="M187.56,125.2H11.36a8.49,8.49,0,0,1-8.5-8.5V53.1a8.49,8.49,0,0,1,8.5-8.5h176.3a8.49,8.49,0,0,1,8.5,8.5v63.6A8.64,8.64,0,0,1,187.56,125.2Z"/><path class="cls-2" d="M187.56,126.5l.3.1a4.88,4.88,0,0,0,.7-.3A3,3,0,0,1,187.56,126.5Z"/><path class="cls-2" d="M192.16,124.9c-.1,0-.1-.1-.3,0a10.37,10.37,0,0,1-2.5,1.5,2.58,2.58,0,0,0,1.6-.6A2.86,2.86,0,0,1,192.16,124.9Z"/><path class="cls-2" d="M192.86,124.5a2.11,2.11,0,0,0,1.2-1.3,2.94,2.94,0,0,1-.8.8C193,124.2,192.66,124.4,192.86,124.5Z"/><path class="cls-2" d="M164.26,44.8l-.2.2c4.2-.4,8.9,0,13.4-.2l-.3.1h8.3a26.39,26.39,0,0,1,4,.1,8.53,8.53,0,0,1,3.6,1.7,8.12,8.12,0,0,1,2.4,3.1,8.81,8.81,0,0,1,.8,3.9c.1,2.7.1,5.5.2,8.2,0-.2-.1-.2-.1-.4a8.81,8.81,0,0,1,.2,1.7c0,.2-.1-.2-.1-.4-.4,2.4.2,6.9-.1,8.4,0,.7.2,1,.3.6.1,8.7.2,18.1.5,27-.1.4-.2.5-.3.4.3,3.8.4,7.7.4,11.6,0,2,0,3.9-.1,5.9a9.62,9.62,0,0,1-2.3,5.9c-.1.4.7-.6.3.2,2-2.1,2.1-4.9,2.2-7.1l.2.3c.1-1.7-.4-.3-.2-2,.1-.7.2.2.2-.1-.1-3.5.1-7.2-.3-10.5.3-.8,0-3.8.3-5.1a9.63,9.63,0,0,0-.3-2.2c.2-12.3-.1-24.8-.1-37.4-.2-1.5-.2-3-.3-4.6a21.75,21.75,0,0,0-.1-2.5A8.65,8.65,0,0,0,196,49a9.09,9.09,0,0,0-3.7-4.1,8.25,8.25,0,0,0-2.6-1,13.2,13.2,0,0,0-2.8-.2v-.1c-2.3.2-5.6.2-8.3.2l-2.3.3c-16.4-.6-33.1-.2-49.7-.4-18.9-.2-35.4-.6-53.8.2,0-.1-.1-.1.4-.1-5.3.1-10.1-.1-15.1,0v-.1c-12.4.5-25.8-.1-37.8.5H12a9.25,9.25,0,0,0-2.9.4,8.67,8.67,0,0,0-4.7,3.5,8.51,8.51,0,0,0-1.8,5.8c.1,7.9.1,15.8.2,23.5h-.1c.2,12.3-.4,24.2-.2,36.5v3.6c.1.4.1.8.2,1.2a9.41,9.41,0,0,0,2.5,4.3,8.33,8.33,0,0,0,4.5,2.2,20.9,20.9,0,0,0,2.5.1l2.4-.1c6.5-.2,13-.3,19.4-.1,7.9.6,18.3-.7,25.7-.1,15.2,1,30,.3,45.2-.2,14,.3,28.1-.5,41.7.2,6.4-.4,13.6.6,20.7.4l-.3-.2c2.6.5,5.7-.7,7.3,0H174c1.4.4,3.2-.8,4-.4l.2-.2c1.7-.1.2.2,1.5.3.5,0,.2-.3,1.2-.2.2.7,4-.2,4.2.7-.9,0,1.4.3-.6.5.6.1,3.3,0,3.1-.3.2-.4,1.3-.7-.4-1l-.3.3c-.6-.3-.4-.1-.6-.3-2.2,0-2.5-.4-4.1-.6h0a13.24,13.24,0,0,1-3.4.1l-.3-.1c-.5-.3-2.5.6-1.8.1-4.5.1-9.6.1-14.6.1-.7.2-3.8,0-2.7.4a26.39,26.39,0,0,0-6.3-.5c.1,0,.1-.1.3-.1-2.7-.6-3.2.5-5.7-.2-.4.5-4.6-.2-6,.4q-.45-.15-.3-.3c-4.5,0-9.5-.2-13.3-.2-3.3.4-7.9-.2-10.7.4a70.1,70.1,0,0,0-9.3-.1l.3-.1c-3.7,0-8.2.1-10.7.4-1.1-.6-2.7-.5-4.2-.6-2.4.3-7.4.2-11.1.4-.6-.3-3.1.1-3.3-.3a305.85,305.85,0,0,1-34.5-.1h.2c-1.4.2-3.1.7-4.6,1-.1,0-.1-.1.2-.1-2,.1-3.9-.3-6-.2,0-.1,0-.1.3-.1-1.9.2-3.9-.3-6.2,0l-.1-.1-1.4.1c0-.1.1-.3.9-.3H11.36a7.53,7.53,0,0,1-2.9-.6,8.19,8.19,0,0,1-4.1-4.1,9.41,9.41,0,0,1-.6-3v-3.4c0-2.2-.1-4.5-.1-6.7,0-4.5-.1-9,0-13.5l.1.7-.2-3.5c.1,0,.1.2.1.4.2-4.4-.1-9-.1-13.4.1,0,.2.7.3.1-.3-3.2.5-5.1-.3-6.7,0-.1.2-.3.3.1-.1-4.5-.2-9-.2-13.5V53.5a8.08,8.08,0,0,1,.5-3.1A7.88,7.88,0,0,1,8.36,46a9.23,9.23,0,0,1,2.5-.9,27.15,27.15,0,0,1,2.9-.1h5.9c4,0,8,0,11.9-.2v.1c10-.5,20.7,0,31.1-.1,4.3.1,7.2-.1,11.6-.1l.1.2c7.3-.6,15.4.6,23-.1l-.5.2c1.2-.3,4.6.1,4.2-.5l1.3.2c5.2-.8,9.4.4,15.8-.1l-.4.1a42,42,0,0,1,4.9-.1c-.2,0-.1.1-.5.1,5.3.6,11.2-.1,16.8,0l-.6.3c2.7-.3,7.6,0,11.2-.2l-.2.1,1.8-.2v.2C155.36,45,159.76,44.8,164.26,44.8Z"/><rect class="cls-3" x="32.16" y="44.6" width="134.7" height="18.5"/><polygon class="cls-2" points="168.16 63.1 168.26 62.9 167.96 62.6 168.16 63.1"/><path class="cls-2" d="M167.66,60.6c0,.1-.1,0-.1.1l.6,1.4C168.46,61.5,167.46,61,167.66,60.6Z"/><path class="cls-2" d="M167.76,60.2c.1-.6-.1-.8-.2-.9C167.76,59.5,167.46,60.3,167.76,60.2Z"/><path class="cls-2" d="M120,44.8l-.1.2c2.4-.4,5.1,0,7.7-.2l-.2.1c6.5.1,12.4-.3,18.8-.5-.1,0-.1.1-.2.1a3.55,3.55,0,0,1,1-.2c.1,0-.1.1-.2.1,1.4.4,4-.2,4.8.1.4,0,.5-.2.3-.3,2.4,0,4.9-.1,7.4-.1l8.3-.3v.9c-.1.4-.2.5-.3.5.1.6.1,1.3.2,1.9a9.7,9.7,0,0,1,.1,1.7c.1,1.1.1,2.2.1,3.4,0,2.2-.1,4.5-.1,6.7.2.2.2-.5.3,0,.2-1.4-.4-2.6-.1-3.9l.2.2c.1-.9-.4-.2-.2-1.2.1-.4.2.1.2-.1a39.54,39.54,0,0,0-.3-6c.2-.2.2-.8.2-1.4V45.3c0-.5.1-1,.1-1.4a.9.9,0,0,0-.1-.5,7.52,7.52,0,0,0-1.9.3h-5.6c-1.8,0-3.6,0-5.4.1-3.6.1-7.2.1-10.8.1-3.4.6-7.4-.1-11.4.1v-.1a36.2,36.2,0,0,1-4.8.2l-1.3.3c-9.4-.6-19-.2-28.6-.4-10.8-.2-20.4-.6-30.9.2,0-.1-.1-.1.2-.1-3,.1-5.8-.1-8.7,0V44c-7.1.5-14.8-.1-21.7.5h-5.3v9.3c0,3.1.1,6.3.1,9.5,1.1,0,2.2,0,3.3-.1v.1c7.1-.3,13.9.4,21,.2,7.3.3,14.9-.7,22.3-.3,4.5.6,10.5-.7,14.7-.1,8.8,1,17.2.3,26-.2,8.1.3,16.1-.5,23.9.2,3.7-.4,7.8.6,11.9.4l-.1-.2c1.5.5,3.3-.7,4.2,0h-.2c.8.4,1.8-.8,2.3-.4l.1-.2c.9-.1.1.2.8.3.3,0,.1-.3.7-.2.1.7,2.3-.2,2.4.7-.5,0,.8.3-.4.5.3.1,1.9,0,1.8-.3.1-.4.8-.7-.2-1l-.2.3c-.3-.3-.2-.1-.4-.3-1.3,0-1.4-.4-2.3-.6h0a4.58,4.58,0,0,1-2,.1l-.2-.1c-.3-.3-1.4.6-1.1.1-2.6.1-5.5.1-8.4.1-.4.2-2.2,0-1.6.4a9,9,0,0,0-3.6-.5.35.35,0,0,1,.2-.1c-1.5-.6-1.8.5-3.3-.2-.2.5-2.6-.2-3.4.4-.2-.1-.2-.2-.2-.3-2.6,0-5.5-.2-7.6-.2-1.9.4-4.5-.2-6.2.4a23.57,23.57,0,0,0-5.4-.1l.2-.1a37.94,37.94,0,0,0-6.2.4c-.6-.6-1.5-.5-2.4-.6-1.4.3-4.2.2-6.4.4-.3-.3-1.8.1-1.9-.3a100.9,100.9,0,0,1-19.8-.1h.1a27.73,27.73,0,0,0-2.6,1c-.1,0-.1-.1.1-.1-1.2.1-2.3-.3-3.4-.2,0-.1,0-.1.2-.1-1.1.2-2.3-.3-3.6,0l-.1-.1-.8.1c0-.1.1-.3.5-.3-10.1-.1-20.4.5-30.8.4l.4-.1-2,.2c0-.1.1-.1.2-.1-2.5-.2-5.2.1-7.7.1,0-.1.4-.2,0-.3a2.77,2.77,0,0,1-.9.1H33c-.2,0-.3-.1-.5-.1,0-.1-.1-.1-.3-.2,0-.1.2-.1.3-.1V60.4l-.1-1.9c0-1.3,0-2.6-.1-3.9,0-2.6,0-5.2.1-7.8a11.55,11.55,0,0,1-.2-1.6c.3,0,.6-.1.9-.1h4.3a56.2,56.2,0,0,0,5.8-.2V45c5.8-.5,11.9,0,17.9-.1,2.5.1,4.2-.1,6.7-.1l.1.2c4.2-.6,8.8.6,13.2-.1l-.3.2c.7-.3,2.7.1,2.4-.5l.8.2c3-.8,5.4.4,9.1-.1l-.2.1a13.78,13.78,0,0,1,2.8-.1c-.1,0-.1.1-.3.1,3,.6,6.4-.1,9.6,0l-.4.3c1.6-.3,4.4,0,6.4-.2l-.1.1,1-.2V45C114.86,45,117.36,44.8,120,44.8Z"/><path class="cls-2" d="M163.36,61.9h.3S163.46,62,163.36,61.9Z"/><path class="cls-4" d="M78,73c3.3,0,4.5,2.5,4.5,5.9s-1.2,5.9-4.5,5.9-4.5-2.5-4.5-5.9S74.66,73,78,73Zm0,2.5c-1.6,0-1.8,1.6-1.8,3.3s.2,3.4,1.8,3.4,1.8-1.5,1.8-3.4C79.76,77.1,79.56,75.5,78,75.5Z"/><path class="cls-4" d="M89.26,82.8h-5.4V80.6l5-7.2h3v7h1.3v2.4h-1.3v2.1h-2.7V82.8Zm.2-2.4v-4l-2.7,4Z"/><path class="cls-4" d="M94.76,78.1h7v2.3h-7Z"/><path class="cls-4" d="M108.36,73c3.3,0,4.5,2.5,4.5,5.9s-1.2,5.9-4.5,5.9-4.5-2.5-4.5-5.9S105.06,73,108.36,73Zm0,2.5c-1.6,0-1.8,1.6-1.8,3.3s.2,3.4,1.8,3.4,1.8-1.5,1.8-3.4C110.16,77.1,110.06,75.5,108.36,75.5Z"/><path class="cls-4" d="M122.46,73.2v2.4h-5v2.2a2.71,2.71,0,0,1,2.1-.8c2.5,0,3.5,1.9,3.5,3.8a3.63,3.63,0,0,1-4,4c-2.6,0-4.1-1.5-4.2-3.5h2.7a1.37,1.37,0,0,0,1.5,1.1c1,0,1.5-.7,1.5-1.8s-.5-1.6-1.5-1.6a1.33,1.33,0,0,0-1.4,1h-2.6V73.1h7.4Z"/><circle class="cls-3" cx="37.26" cy="79" r="5.2"/><polygon class="cls-2" points="43.76 79 43.86 79 43.66 78.9 43.76 79"/><path class="cls-2" d="M43.26,78.7h-.1a1.42,1.42,0,0,1,.6.2C44.06,78.8,43.06,78.8,43.26,78.7Z"/><path class="cls-2" d="M43.36,78.6c.1-.1-.1-.1-.2-.1C43.36,78.6,43.06,78.7,43.36,78.6Z"/><path class="cls-2" d="M40.06,73.8h0C40.16,73.7,40.16,73.8,40.06,73.8Z"/><path class="cls-2" d="M38.46,74.1l-.1.2c.3-.3.5.1.8.1v.1c.5.3,1.2.3,1.9.7l-.1.1a.35.35,0,0,0,.2-.1l-.1.1c-.2.4.5.2.3.4.1,0,.2-.1.3-.2.4.4.8.9,1.3,1.4a.35.35,0,0,1-.2.1c.8.3.7,1,.6,1.5.2,0,.2-.1.3,0,.2-.2-.4-.3-.2-.5h.2c.1-.1-.4,0-.2-.1a.14.14,0,0,1,.2,0c-.1-.2-.1-.6-.5-.7.3-.2-.1-.3.2-.5-.1,0-.1-.1-.3,0a4.74,4.74,0,0,0-1.6-2.1c-.7.2-.6-.7-1.2-.7v-.1a.66.66,0,0,1-.6-.1l-.2.2a2.33,2.33,0,0,0-1.5-.7,9.65,9.65,0,0,0-1.7,0,5.92,5.92,0,0,0-1.9.5,1.93,1.93,0,0,0-1.1,1.6l-.1-.1c-.1.3-.5.5-.6.8h-.1a5,5,0,0,1-.3,1.3,1.66,1.66,0,0,0,0,1.2,4.61,4.61,0,0,0,.6,2.8l-.1.1a1.91,1.91,0,0,1,.5,1,1.6,1.6,0,0,0,.7.9,1.17,1.17,0,0,0,1.1.5,1.8,1.8,0,0,1,1.2.3c.2.4.5.2.8.1s.5-.3.8,0a1.24,1.24,0,0,0,1.5.2,3.45,3.45,0,0,0,.9-1.2,1.76,1.76,0,0,0,.9-.8,1.59,1.59,0,0,1,.9-.9c-.1-.3.1-.4.3-.5s.5-.3.5-.5h-.2c.5-.1-.6-.5.1-.4h0c.4,0-.8-.3-.4-.3h-.2c0-.1.2,0,.3-.1s-.3,0-.2-.1c.7,0-.1-.2.7-.2,0,.1.3-.1.5.1.1,0,.1-.2-.3-.2a3.33,3.33,0,0,0-1,0h0c0,.1-.4.1-.6.2h0c.3.1.1.1.1.2h-.1c-.3,0,.6.2.1.1.1.2,0,.5,0,.7.2.1-.1.2.3.2-.4-.1-.6,0-.6.1h-.1c-.6-.1.4.4-.3.2.4.3-.2.1.2.5-.1,0-.2-.1-.3-.1-.1.2-.4.3-.5.4.2.4-.4.1-.1.6-.2,0-.5-.1-.4.2v-.1a.66.66,0,0,0-.2.7c-.3-.5-.3-.3-.5-.5,0,.3-.2.3-.3.6-.1-.2-.1.2-.2-.2-.3.9-1.1.7-1.6.1h0a3.55,3.55,0,0,1-.4.9V84c-.1.1-.2-.3-.3-.3v-.1c-.1.1-.1-.3-.3-.1v-.1l-.1.1c0-.1.1-.3.1-.2a5.64,5.64,0,0,0-1.2-.4,1.78,1.78,0,0,1-1.1-.8h-.2c.1,0,.1,0,.1-.1.1-.3-.4-.3-.4-.6.1,0,.2,0,.2-.1-.4,0,.3-.4-.4-.2l.2-.1a1.31,1.31,0,0,1-.4-1.3.6.6,0,0,1-.3-.6.93.93,0,0,0-.1-.7h.1c-.3-.7.4-1.1.7-1.7.2-.2.2-.4.3-.6l.1.1c-.1-.4.2-.4.4-.5s.5-.1.5-.5l.1.2c-.1-.3.3,0,0-.5l.2.1c0-.4.1-.4.3-.4s.4.2.5-.2v.1c.1-.1.2-.2.3-.1v.1c.4.5.6-.2,1-.2v.3c.1-.3.4,0,.6-.2v.1l.1-.2v.2A1.8,1.8,0,0,1,38.46,74.1Z"/><polyline class="cls-3" points="37.16 75.9 36.86 78 37.66 79.7 37.16 82.1"/><path class="cls-2" d="M38.06,82.2H38l.6.1C38.86,82.4,37.86,82.1,38.06,82.2Z"/><path class="cls-2" d="M38.06,82.2c.1,0-.1,0-.2-.1C38.06,82.2,37.76,82.1,38.06,82.2Z"/><path class="cls-2" d="M37.26,80.7h-.2c.4.1,0,.1.1.2h-.1c-.1.1.2.3.4.5h-.1a.35.35,0,0,1,.2.1h-.1c-.4,0,.2.1-.1.1a.49.49,0,0,1,.3.1,1.4,1.4,0,0,0,.4.4h-.3c.6.2.3.3.2.3.2,0,.2,0,.3.1s-.4-.1-.1-.1h.1c.1,0-.4-.1-.2-.1h.2c-.1-.1.1-.1-.3-.2.3.1,0,0,.3,0-.1,0-.1,0-.3-.1.2-.1-.1-.3,0-.5-.6-.2.2-.1,0-.3h.1c-.1-.1-.2-.1-.1-.1l-.3-.1c.6-.1.2-.4.5-.5s.8-.6-.1-.8h.1c-.2-.1,0-.2-.1-.2h.1c-.6,0-.1-.4-.7-.3,0-.2-.2-.3-.4-.4l.1-.1c-.3,0,.2-.4,0-.4.1-.1,0-.1-.2-.1s-.4-.1-.2-.2c.6,0-.7-.3,0-.3,1,0,.4-.3-.2-.6.4-.1-.5-.4.2-.5-.4-.1.6-.1.5-.2h-.2c.5,0-.6-.2.1-.1h0c.4,0-.8-.2-.4-.1h-.1c.7.1-.1-.1.7,0a1.34,1.34,0,0,1,.5.1c.1,0,0,0-.3-.1a3.75,3.75,0,0,0-1-.1H36c.3.1.1,0,.1.1H36c-.3,0,.6.1.1,0,.1.1.1.1.1.2.2,0,0,0,.4.1H36c-.6,0,.5.1-.2,0,.5.1-.2,0,.4.1h-.3c0,.1-.2.1-.2.1.4.1-.2.1.4.2-.1,0-.4,0-.2.1h-.1a1.09,1.09,0,0,0,.4.2c-.6-.1-.5,0-.6,0a1.47,1.47,0,0,1,.4.2c-.3,0,.1.1-.3,0,.7.2.4.3-.1.4h0c.2.1.7.1.9.2h-.1c.1,0-.3,0-.3.1H36c.2,0-.3.1,0,.1h-.3c-.1.1,0,.2,0,.3.3.2.7.3.7.5h-.1l.2-.1h-.1c-.2.1.2,0,.1.1a.35.35,0,0,0-.2.1c.3-.1-.4.2.3,0l-.2.1c.3,0,.3.1.2.2.6-.2.1.1.6,0l-.1.1c.5-.1.1.2.2.3a.1.1,0,0,1,.1.1h-.2c.3,0,.2.1,0,.1s-.3.1.1.1h-.2c.3,0-.1,0,.5.1h-.2c.8.2-.4,0,.1.2h-.1c.1,0,.2.1.1.1h-.1c-.6,0,0,.1,0,.2l-.3-.1c.3.1,0,.1.1.2h-.1l.2.1h-.2C37.06,80.6,37.26,80.6,37.26,80.7Z"/><rect class="cls-5" x="57.76" y="93.7" width="83.4" height="19.4"/><polygon class="cls-2" points="142.56 113.1 142.56 113 142.36 112.8 142.56 113.1"/><path class="cls-2" d="M142.06,111.5a.1.1,0,0,0-.1.1l.6,1C142.86,112.1,141.86,111.7,142.06,111.5Z"/><path class="cls-2" d="M142.16,111.2a.5.5,0,0,0-.2-.6C142.06,110.7,141.86,111.2,142.16,111.2Z"/><path class="cls-2" d="M125.46,92.9h.1C125.46,92.8,125.46,92.8,125.46,92.9Z"/><path class="cls-2" d="M116.76,93.8l-.1.2c1.6-.4,3.4,0,5.2-.2l-.1.1c4.3.1,8.3-.3,12.7-.5-.1,0-.1.1-.2.1a1.45,1.45,0,0,1,.7-.2c.1,0-.1.1-.1.1.9.4,2.7-.2,3.2.1.3,0,.4-.2.2-.3,1.1,0,2.2-.1,3.4-.1a17.7,17.7,0,0,0,.1,2.3c0,.6.1,1.2.1,1.9.1,1.2.1,2.5.2,3.7-.1.2-.2.2-.3.1a38.58,38.58,0,0,1,.3,9c.2.1.2-.3.3,0,.2-1-.4-1.8-.1-2.6l.2.1c.1-.6-.4-.1-.2-.8.1-.3.2.1.2-.1a17.11,17.11,0,0,0-.3-4c.3-.3,0-1.5.3-2-.1-.4-.1-.7-.3-.8,0-1.1.1-2.1.1-3.2V92.5c-1.6,0-3.3.1-5,.1h-4c-2.3.6-5-.1-7.7.1v-.1a16.68,16.68,0,0,1-3.2.2l-.9.3c-6.3-.6-12.8-.2-19.2-.4-7.3-.2-13.7-.6-20.8.2,0-.1,0-.1.1-.1-2,.1-3.9-.1-5.8,0v-.1c-4.8.5-10-.1-14.6.5h-3.6v7.4c0,2.5.1,4.9.1,7.3h-.1c0,.8.1,1.7.1,2.5V113c1.6.1,3.2.1,4.7.2a35.3,35.3,0,0,0,4.6,0c4.9.3,10-.7,15-.3,3,.6,7-.7,9.9-.1,5.9,1,11.6.3,17.5-.2,5.4.3,10.8-.5,16.1.2,2.5-.4,5.2.6,8,.4l-.1-.2c1,.5,2.2-.7,2.8,0h-.1c.5.4,1.2-.8,1.5-.4l.1-.2c.6-.1.1.2.6.3.2,0,.1-.3.5-.2.1.7,1.6-.2,1.6.7-.3,0,.5.3-.2.5.2.1,1.3,0,1.2-.3.1-.4.5-.7-.1-1l-.1.3c-.2-.3-.2-.1-.2-.3-.8,0-1-.4-1.6-.6h0c-.4.3-1,.1-1.3.1l-.1-.1c-.2-.3-1,.6-.7.1-1.7.1-3.7.1-5.6.1-.3.2-1.5,0-1.1.4a4.18,4.18,0,0,0-2.4-.5.1.1,0,0,1,.1-.1c-1-.6-1.2.5-2.2-.2-.2.5-1.8-.2-2.3.4-.1-.1-.2-.2-.1-.3-1.7,0-3.7-.2-5.1-.2-1.3.4-3-.2-4.1.4a10.53,10.53,0,0,0-3.6-.1l.1-.1a16.24,16.24,0,0,0-4.1.4c-.4-.6-1-.5-1.6-.6a39.68,39.68,0,0,1-4.3.4c-.2-.3-1.2.1-1.3-.3a45.67,45.67,0,0,1-13.3-.1h.1a16.18,16.18,0,0,0-1.8,1c-.1,0,0-.1.1-.1-.8.1-1.5-.3-2.3-.2,0-.1,0-.1.1-.1-.7.2-1.5-.3-2.4,0V112l-.6.1c0-.1,0-.3.3-.3-3.4-.1-6.8.1-10.3.2-1.7.1-3.5.1-5.2.2h-5a.1.1,0,0,0,.1-.1c-.2.1-.5.1-.8.2h.2c0-.3.1-.4.1-.6v-1.2a21.75,21.75,0,0,1-.1-2.5c.1,0,.2.3.3,0-.3-1.2.5-2-.3-2.6,0-.1.2-.1.3,0-.2-3.4-.2-7-.1-10.4a2,2,0,0,1-.2-.9c.2,0,.4-.1.6-.1h2.7a25.49,25.49,0,0,0,3.9-.2v.1c3.9-.5,8,0,12-.1,1.7.1,2.8-.1,4.5-.1v.2c2.8-.6,5.9.6,8.9-.1l-.2.2c.5-.3,1.8.1,1.6-.5l.5.2c2-.8,3.6.4,6.1-.1l-.2.1a6.37,6.37,0,0,1,1.9-.1c-.1,0,0,.1-.2.1,2,.6,4.3-.1,6.5,0l-.2.3c1-.3,3,0,4.3-.2l-.1.1.7-.2v.2C113.36,94,115.06,93.8,116.76,93.8Z"/><path class="cls-4" d="M73.86,98.6v8.7h-1.1l-4.6-6.9v6.9h-1.1V98.6h1.1l4.6,6.9V98.6Z"/><path class="cls-4" d="M79.76,107.4a4.31,4.31,0,0,1-4.4-4.4,4.4,4.4,0,1,1,4.4,4.4Zm0-1a3.19,3.19,0,0,0,3.2-3.5,3.24,3.24,0,0,0-3.2-3.5,3.51,3.51,0,0,0,0,7Z"/><path class="cls-4" d="M94.06,105.4h-3.8l-.7,1.9h-1.1l3.1-8.6h1.3l3.1,8.6h-1.2Zm-1.9-5.3-1.6,4.4h3.1Z"/><path class="cls-4" d="M104.66,103c0,2.7-1.8,4.3-4.6,4.3h-2.7V98.6h2.7C103,98.7,104.66,100.3,104.66,103Zm-4.6,3.4c2.3,0,3.5-1.3,3.5-3.4s-1.2-3.4-3.5-3.4h-1.6v6.8Z"/><path class="cls-4" d="M106.16,98.7h1.2l3.2,7.1,3.2-7.1H115v8.6h-1.1v-6.4l-2.9,6.4h-.8l-2.9-6.4v6.4h-1.1V98.7Z"/><path class="cls-4" d="M122.06,105.4h-3.8l-.7,1.9h-1.2l3.1-8.6h1.3l3.1,8.6h-1.2Zm-1.9-5.3-1.6,4.4h3.1Z"/><path class="cls-4" d="M125.36,98.7h1.1v8.7h-1.1Z"/><path class="cls-4" d="M129.56,98.7v7.8h3v.9h-4.2V98.7Z"/></svg>