<svg id="Layer_1" data-name="Layer 1" xmlns="http://www.w3.org/2000/svg" viewBox="0 0 200 170"><defs><style>.cls-1{fill:#f8c49d;}.cls-2{fill:#f5ad7c;}.cls-3{fill:#fbd6b9;}.cls-4{fill:#ffe9d9;}.cls-5{fill:#fff2e8;}</style></defs><title>Artboard 28</title><path class="cls-1" d="M90.64,59.37l.2,11.2s2.6,1.6,4.1,0l-.5-11.4A3.1,3.1,0,0,0,90.64,59.37Z"/><polygon class="cls-2" points="91.04 59.87 91.14 59.87 91.04 59.77 91.04 59.87"/><path class="cls-2" d="M91.14,59.57h0v.3C91.24,59.87,91,59.47,91.14,59.57Z"/><path class="cls-2" d="M91.14,59.57c.1,0,0-.1,0-.1S91,59.37,91.14,59.57Z"/><path class="cls-2" d="M94.64,61.67h.1c-.2-.2,0-.5-.1-.8h0a3.75,3.75,0,0,0-.1-1c-.1-.3-.1-.7-.2-.9h0c0-.2-.4-.1-.4-.2l-.1.1a2.23,2.23,0,0,0-1.4,0v-.1a2.22,2.22,0,0,1-1.1.5c0,.1.1,0,.1.1.2,0,.1-.3.3-.2v.1c.1,0-.1-.2.1-.1s0,.1,0,.1.3-.1.4-.3c.1.2.2,0,.3.1,0-.1.1-.1.1-.2a2.77,2.77,0,0,1,.9.1c.2,0,.3.1.5.1s.2,0,.2.1a.1.1,0,0,1,.1.1v.3c0,.2-.1.4,0,.6h0a.75.75,0,0,1,.1.5l.1.1a28.1,28.1,0,0,0-.1,2.9,8,8,0,0,0,.2,3.1h-.1c.1.3,0,.6.1.9h0c.3.7,0,1.5.3,2.2.1.4-.3.6-.6.8a3,3,0,0,1-1.3.2v-.1a1.69,1.69,0,0,1-1-.3l-.5-.3c-.1-.1-.2-.1-.4-.2a1.86,1.86,0,0,0-.1-1,2.16,2.16,0,0,1-.1-1.1c.3-.5-.4-1.1-.1-1.5.5-.9.1-1.7-.2-2.6.2-.8-.3-1.6,0-2.4-.2-.4.3-.8.2-1.2h-.1c.2-.2-.3-.3,0-.4h0c.2-.1-.4-.2-.2-.2h-.1c0-.1.1,0,.1-.1s-.2,0-.1-.1c.4,0-.1-.2.3-.2,0,.1.2-.1.2,0a.2.2,0,0,0-.2-.2c-.2,0-.3-.1-.5,0h-.1c0,.1-.2.1-.3.2h0c.2.1.1.1,0,.2h-.1c-.2,0,.3.1,0,.1a2.49,2.49,0,0,1,.1.8c.1,0,0,.2.2.2a.54.54,0,0,0-.3.4h0c-.3.2.3.2-.1.3.2,0-.1.3.2.3h-.1c0,.3-.1.6-.1.8.2.2-.1.5.2.6-.1.1-.2.4-.1.5h0c0,.2,0,.5.2.6-.3.1-.2.2-.3.3.1.1.1.4.2.6-.1,0,.1.2-.1.2a2,2,0,0,1,0,2h0a2.19,2.19,0,0,0,.5.3h0c0,.1-.2.2-.1.3H90c.1.1-.2.2,0,.4h-.1l.4.6h-.1c0,.5.1,1,.1,1.6a1.27,1.27,0,0,0,.1.6,1.69,1.69,0,0,0,.5.2l.8.3h.1v.1c.2.2.6.1.8.1,0,0-.1.1,0,.1s.3.2.4-.1v.1a2.84,2.84,0,0,0,1.7-.7c0-.2.2-.3.2-.4v-.4a1.7,1.7,0,0,0-.1-.7h.1c-.3-.6,0-1.2-.1-1.8,0-.3-.1-.4-.1-.7h.1c-.3-.4.2-.9-.1-1.3h.1c-.2-.1,0-.3-.2-.2l.1-.1c-.4-.3.2-.6-.1-.9h.1a.19.19,0,0,1,0-.3h.1c.3-.3-.1-.6-.1-1h.1c-.2-.2,0-.4-.1-.6h.1l-.1-.1h.1A1.88,1.88,0,0,1,94.64,61.67Z"/><path class="cls-3" d="M82.84,44.87c1.1-2.5,9.9-4.9,16.8-1.1,5.4,3-.3,6.4-1.3,8.8s-1.6,5.9-4,6.6-5.3-.3-6.4-2.3a10.64,10.64,0,0,0-4.5-5C81.94,50.77,81.94,47.07,82.84,44.87Z"/><polygon class="cls-2" points="82.24 44.67 82.14 44.67 82.24 44.77 82.24 44.67"/><path class="cls-2" d="M82.24,45.17h0l-.1-.4C81.94,44.87,82.44,45.17,82.24,45.17Z"/><path class="cls-2" d="M82.24,45.27c-.1.1,0,.2.1.2C82.14,45.47,82.34,45.27,82.24,45.27Z"/><path class="cls-2" d="M87.24,55.27h.1c-.4-.3-.5-.8-.9-1.1h.1a9.76,9.76,0,0,0-2.9-2.1h0c-.1-.3-.7-.5-.6-.7-.1-.1-.1,0-.2,0a9.78,9.78,0,0,1-.9-2.9s.1-.1.1,0a3.85,3.85,0,0,1,.2-2.6c-.1-.1-.1.1-.2,0-.2.3,0,.6-.1.8h-.1c-.1.2.2.1,0,.3s-.1,0-.1,0a4.82,4.82,0,0,0,0,1.2c-.2.1,0,.4-.2.6.1.1.1.2.2.2a5.22,5.22,0,0,0,.4,2.1,2.66,2.66,0,0,0,.6,1,1,1,0,0,0,.5.4l.4.3c.7.1,1.1.9,1.7,1.3h0a1.87,1.87,0,0,1,.7.6l.3.1a17.1,17.1,0,0,1,1.3,2.3,4.84,4.84,0,0,0,1.9,2.1,6.3,6.3,0,0,0,3,1,9.15,9.15,0,0,0,1.6-.1,2.48,2.48,0,0,0,1.4-.8v.1a4.89,4.89,0,0,0,1.2-1.3h0a19,19,0,0,0,1.4-4,3.7,3.7,0,0,1,.5-1.1,6.73,6.73,0,0,1,.7-1.1c.5-.7,1.1-1.3,1.6-2h0a16.29,16.29,0,0,0,1.1-1.7,2.55,2.55,0,0,0,.1-2.1,1.46,1.46,0,0,0-.6-.9,4.7,4.7,0,0,0-.9-.6,9.29,9.29,0,0,0-1-.5,4.05,4.05,0,0,1-.9-.5c-.7-.6-2-.4-2.7-.9a6.92,6.92,0,0,0-4.9-.4c-1.6-.1-3,.5-4.5.6a3.54,3.54,0,0,1-1.1.3,2.1,2.1,0,0,0-1.1.4l.1.1c-.4-.1-.3.6-.7.4h0c-.2-.1,0,.5-.2.4v.1c-.1.1-.1-.1-.2,0a.14.14,0,0,1,0,.2c-.3-.2-.2.4-.5.2.1-.1-.2.1-.2-.2-.1,0-.3.4-.1.4s.3.3.5.2l-.1-.1h.2c.1-.2.3-.1.4-.1h0c0-.2.1-.2.2-.3h.1c.1.1,0-.4.1-.1l.5-.5a5.74,5.74,0,0,0,.7-.4c0-.1.4-.1.2-.3a.6.6,0,0,0,.7,0h0c.4.2.2-.4.6-.1,0-.2.5-.1.5-.4l.1.1c.5-.1,1-.1,1.4-.2.3-.3.8,0,1.1-.4a3.35,3.35,0,0,0,1,0h0a3.09,3.09,0,0,0,1.1-.2c.1.3.3.2.4.3a4.48,4.48,0,0,1,1.2-.1c0,.1.3,0,.3.2a5.46,5.46,0,0,1,1.8.1,5.31,5.31,0,0,1,1.7.8h0c.2,0,.4-.2.6-.3h0c.2,0,.3.3.5.4h-.1c.2,0,.3.3.6.3v.1h.2a.1.1,0,0,1-.1.1,8.55,8.55,0,0,1,2.2,1.5,2.22,2.22,0,0,1,.5,1.1,3.08,3.08,0,0,1-.3,1.3v-.1l-.1.4v-.1c-.3.3-.4.8-.7,1.2a.1.1,0,0,0-.1-.1c-.1.4-.5.3-.3.6a.1.1,0,0,1-.1-.1c-.5.8-1.2,1.5-1.8,2.5-.1.9-.6,1.7-.7,2.5h-.1a8.26,8.26,0,0,1-1.4,3,7.27,7.27,0,0,1-.8.9l-.1-.1a1.37,1.37,0,0,1-1.1.4,4.87,4.87,0,0,0-1.2.1l.1-.1c-.1.2-.5-.1-.5.2l-.1-.1c-.6.3-1-.3-1.7-.3h.1a.76.76,0,0,1-.5-.2h.1c-.4-.5-1.1-.6-1.5-1H89c-.3-.1-.5-.6-.8-.9h.1l-.2-.1.1-.1C87.84,56.07,87.54,55.67,87.24,55.27Z"/><path class="cls-4" d="M99.14,78.87a13.53,13.53,0,0,1-1.3-4.5c-.1-2.1-1.9-3.9-5.1-3.9s-5,1.8-5.1,3.9a13.53,13.53,0,0,1-1.3,4.5"/><path class="cls-2" d="M86.84,78.87h0l.1.2C87.14,79.17,86.74,78.87,86.84,78.87Z"/><path class="cls-2" d="M86.84,78.87c.1,0,0-.1-.1-.1C86.94,78.87,86.74,78.87,86.84,78.87Z"/><path class="cls-2" d="M87.64,74.07h-.1c.2.2,0,.4,0,.6h0a7.5,7.5,0,0,0,0,1.5h-.1l.1.1h-.1c-.2.1,0,.3-.1.4l.1.1a5,5,0,0,0-.2,1.2h-.1c.2.4-.1.7-.3,1,.1,0,.1,0,.1.1.1-.1-.1-.3.1-.3h.1c.1,0-.2-.1,0-.1h.1c0-.2.2-.3,0-.5.2,0,.1-.2.2-.2s0-.1-.1-.1a9.83,9.83,0,0,0,.5-1.6c-.2-.3.2-.6.1-.9h0a.3.3,0,0,1,0-.4l-.1-.1a5.39,5.39,0,0,0,.3-1,2,2,0,0,1,.5-.9c.5-.6,1.1-.7,1.6-1.4v.1c.2-.1.4-.1.6-.2h0c.4-.4,1.1-.2,1.5-.5a14.08,14.08,0,0,1,2,.1v.1c.6,0,.9.5,1.4.7.4.4,1.1.4,1.3,1,0,.2.1.3.3.5a.37.37,0,0,1,.2.5,3.75,3.75,0,0,0-.1,1,4.67,4.67,0,0,0,.5,1c-.1.6.5,1.1.4,1.8.3.2-.1.7.1.9h.1c-.2.2.4.1.1.3h0c-.1.1.4,0,.3.1H99c.1.1-.1,0-.1.1s.1-.1.1,0c-.3.2.1.1-.2.3a.35.35,0,0,1-.2.1s.1.2.2.1.3-.1.4-.2h-.1c.1-.1.1,0,.1-.1s.1-.2.2-.3h0c-.2,0-.1-.1-.1-.1h.1c.1-.1-.3,0-.1-.1a2.19,2.19,0,0,1-.3-.5c-.1,0-.1-.2-.2,0a.4.4,0,0,0,.2-.4h0c.2-.2-.3,0,0-.3-.2.1,0-.2-.3-.2l.1-.1c-.1-.2,0-.4-.1-.6s0-.3-.3-.4c0-.1.1-.3,0-.4h0a.54.54,0,0,0-.3-.4c.3-.1.2-.1.3-.2-.2-.1-.1-.3-.3-.4.1,0-.1-.1.1-.2a3.37,3.37,0,0,1-.5-1.7h-.5c-.1-.1,0-.2-.1-.3h.1c-.1,0,0-.3-.2-.2h-.1l.1-.1a5,5,0,0,0-2.2-1.3h-.2V71c-.2-.2-.4,0-.6-.1,0,0,.1-.1,0-.1s-.2-.3-.3.1v-.1a6.15,6.15,0,0,1-1.3-.1c-.3.3-.7,0-1.1.3v-.1c-.4.3-.9.1-1.4.3-.2,0-.3.2-.5.2v-.1c-.1.4-.8.1-.9.6v-.1c.1.2-.2.1,0,.3h-.1c.1.4-.4.2-.4.5v-.1c0,.1,0,.2-.1.2h0c-.4,0-.3.4-.4.6l-.1-.1c.1.2-.1.3-.1.5h-.1l.1.1h-.1C87.64,73.67,87.64,73.87,87.64,74.07Z"/><polygon class="cls-1" points="78.34 80.57 80.94 83.47 86.34 79.97 82.34 77.17 78.34 80.57"/><path class="cls-2" d="M78.74,81.07l.1.1Z"/><path class="cls-2" d="M78.74,80.87h0l.1.2C78.94,81.17,78.64,80.77,78.74,80.87Z"/><path class="cls-2" d="M78.74,80.87c.1,0,0-.1,0-.1S78.64,80.77,78.74,80.87Z"/><path class="cls-2" d="M81.64,77.67h0c-.1.2-.3.1-.4.3h0c-.4.2-.5.6-.8,1v-.1c-.2-.1-.1.3-.3.2a.1.1,0,0,0,.1.1c-.2.3-.5.5-.6.8a.1.1,0,0,1-.1-.1c0,.4-.3.5-.6.7,0,.1.1,0,.1.1s0-.3.2-.2v.1c.1,0-.1-.2,0-.1a.1.1,0,0,1,.1.1.52.52,0,0,0,.2-.4c.1.1.1-.1.3,0V80c.4-.2.7-.7,1.1-1,0-.4.4-.3.6-.5h0c0-.1.1-.2.2-.3V78l.6-.3.2-.2.1-.1c.1.1.2.1.2.2.6.5.9,1,1.8,1.1h0c.2.1.3.3.5.3h0a.85.85,0,0,1,.6.3,1,1,0,0,0,.6.3.35.35,0,0,0,.2.1,7.63,7.63,0,0,0-1.1.8v-.1c-.3.4-.9.3-1.2.7-.5.1-.6.9-1.2,1-.4-.1-.4.7-.8.6a.75.75,0,0,0-.5.1c-.1,0-.2.1-.3.2a3.93,3.93,0,0,1-.6-.2c-.2-.5-.9-.6-1-1.2-.3,0-.1-.6-.4-.7l-.1.1c.1-.2-.4.1-.2-.2h0c.1-.2-.4.2-.3,0l-.1.1c-.1,0,.1-.1.1-.1s-.1.1-.1,0c.3-.2-.2-.1.1-.3a.35.35,0,0,1,.2-.1.14.14,0,0,0-.2,0c-.1.1-.3.2-.3.3l.1-.1c-.1.1,0,.1-.1.1s-.1.2-.1.3h0c.1-.1.1,0,.1.1v.1c-.1.1.3-.1.1,0a.78.78,0,0,1,.4.4c.1,0,.1.1.2,0-.1.2-.1.3,0,.4h0c-.1.3.3-.1.1.2.2-.2.1.2.3,0l-.1.1a2.19,2.19,0,0,1,.3.5c.2-.1.1.3.4.2,0,.1,0,.3.2.3h0c.1,0,.1.1.2.1s.2.1.3.1c-.1.3,0,.3,0,.5a.76.76,0,0,1,.4.2l.2-.2c0,.1.2-.2.2,0a2.18,2.18,0,0,1,.4-.5c.1-.1.2-.2.3-.2a1.7,1.7,0,0,1,.7-.1h0c0-.1-.1-.4-.1-.5h0c0-.1.2,0,.3,0v.1c0-.1.2,0,.2-.1h0v-.1c0,.1.1.1,0,.1.6-.3,1-1,1.6-1.3v.1l.1-.2v.1c.2,0,.3-.3.4-.3a.1.1,0,0,0,.1.1c0-.2.3.1.1-.3l.1.1.2-.2c.1-.1.2-.2.3-.2a4.35,4.35,0,0,1,.7-.4V80c-.3-.1-.4-.4-.9-.4h.1c-.6-.1-.7-.5-1.1-.7-.1-.1-.3-.1-.4-.2v-.1c-.4.1-.3-.6-.8-.5l.1-.1c-.1.1-.1-.2-.3.1V78c-.4.2-.2-.4-.5-.3h.1c-.1,0-.2,0-.2-.1h0c0-.2-.1-.2-.2-.3a.37.37,0,0,1-.3-.1v-.1h-.1c-.1.1-.2.1-.3.3v0l-.1-.1A.74.74,0,0,0,81.64,77.67Z"/><path class="cls-1" d="M106.44,81.47l4.2-.6,1.2,3.4s-2.7.8-3.5,1.9C108.34,86.17,106,82.77,106.44,81.47Z"/><polygon class="cls-2" points="105.74 81.27 105.74 81.27 105.84 81.37 105.74 81.27"/><path class="cls-2" d="M105.94,81.47h0l-.2-.2C105.64,81.37,106,81.47,105.94,81.47Z"/><path class="cls-2" d="M105.94,81.57c-.1,0,.1.1.1.1S106,81.57,105.94,81.57Z"/><path class="cls-2" d="M107.64,84.77h.1c-.2,0-.1-.2-.3-.3h0c-.1-.3-.4-.5-.7-.8h.1c.1-.1-.2-.2-.1-.3h-.2a5.58,5.58,0,0,1-.5-.8h.1c-.4-.2-.3-.5-.2-.8h-.2c-.1.1.2.2,0,.3h-.1c0,.1.2,0,.1.1h-.1a.4.4,0,0,0,.2.4c-.2.1,0,.1-.1.2.1,0,.1.1.2,0a2.57,2.57,0,0,0,.5,1.2c.4,0,.1.4.3.6h0a.22.22,0,0,1,.2.2h.2c0,.6.4.9.8,1.7.1.2.2.5.4.6a6,6,0,0,1,.8-.8c.1-.2.2-.2.2-.3s.1-.2.2-.3v.1c.1-.1.3-.1.4-.2h0c.2-.4.7-.3,1-.7.3-.1.7-.2,1-.3l-.3-.6h.1c-.3-.4-.1-.8-.3-1.2,0-.4-.6-.7-.6-1.1a.19.19,0,0,0-.1-.3c-.1-.1-.2-.1-.2-.2a.1.1,0,0,1-.1-.1.52.52,0,0,0-.4-.2h-.4a4.35,4.35,0,0,1-.7.4c-.5-.1-.9.4-1.3.1-.2.3-.5-.2-.7-.1v.1c-.1-.2-.1.4-.2,0h0c-.1-.2,0,.4-.1.2v.1a.1.1,0,0,0-.1-.1v.1c-.1-.4-.1.1-.2-.3a.14.14,0,0,1,0-.2s-.1,0-.1.2a.9.9,0,0,0,.1.5V82c.1,0,.1.2.2.3h0c0-.2.1-.1.1-.1v.1c0,.2,0-.3.1,0a.75.75,0,0,1,.5-.1c0-.1.1,0,.1-.2.1.2.2.3.2.2h0c.1.3.1-.3.2.1,0-.2.2.1.2-.2v.1c.1,0,.3.1.4,0s.3.1.3-.2c.1.1.2.2.3,0h0a.32.32,0,0,0,.3-.3c.1.3.1.2.2.3.1-.1.2-.1.3-.3,0,.1.1-.1.1.1,0-.1.1-.1.2-.2a.1.1,0,0,1,.1-.1h.1a.35.35,0,0,1-.1.2h0a.76.76,0,0,1,.4-.2h0a.35.35,0,0,0-.1.2h-.1c.1,0-.1.2.1.2h0c.1.6.6,1,.8,1.6h-.1l.1.1h-.1c0,.1,0,.1.1.2l.1.1h-.1c.2.1-.2,0,.2.1h-.1c.1,0,.1.1.1.2s-.2.1-.3.1c0,.2-.1.2-.2.3s-.2.1-.3.3v-.1c-.2.3-.6.3-.9.5-.1,0-.2.2-.3.2v-.1c0,.4-.6,0-.6.5v-.1c0,.2-.1,0,0,.3l-.1-.1c0,.4-.2.3-.2.3h-.1v-.1a.1.1,0,0,1-.1-.1V86c0-.2,0-.3-.1-.3s-.2,0-.2-.1l.1-.1c-.2,0-.1-.2-.2-.2h0l.1-.1C107.84,85,107.64,85,107.64,84.77Z"/><path class="cls-4" d="M78.94,92.87c0,4.6,6.6,8.4,14.7,8.4s14.7-3.8,14.7-8.4v-3c0-4.6-6.6-8.4-14.7-8.4s-14.7,3.8-14.7,8.4Z"/><polygon class="cls-2" points="79.64 92.87 79.64 92.87 79.54 92.77 79.64 92.87"/><path class="cls-2" d="M79.44,92.27h0l.2.4C79.84,92.47,79.34,92.37,79.44,92.27Z"/><path class="cls-2" d="M79.44,92.17c.1-.1-.1-.2-.1-.2S79.34,92.17,79.44,92.17Z"/><path class="cls-2" d="M89.24,81.77v-.1a13.32,13.32,0,0,1-1.9.5h0a12.82,12.82,0,0,0-4.4,2.1v-.1a.22.22,0,0,1-.2.2v-.1c-.4,0-.8.7-1,.7s-.1.2,0,.2a5.66,5.66,0,0,0-2.1,3.2h-.1V90a10.87,10.87,0,0,1-.1,1.8c.1,0,.1-.1.2,0,.1-.4-.2-.7,0-1h.1c0-.2-.2-.1-.1-.3s.1,0,.1,0a3.69,3.69,0,0,0-.1-1.5c.2-.1.1-.5.3-.6,0-.1.1-.2,0-.3a9.33,9.33,0,0,1,3.6-3.8c.6-.7,1.7-.8,2.6-1.2h0a2.1,2.1,0,0,1,1.1-.4l.3-.2a25.69,25.69,0,0,1,7.3-.5,22.77,22.77,0,0,1,3.9.6c1.3.3,2.5.6,3.8,1,0,0,0,.1-.1,0,.7.3,1.3.7,2,1h0a7.23,7.23,0,0,1,2.2,1.7,7.89,7.89,0,0,1,1.4,2.3,18.3,18.3,0,0,1,.2,3.4v.9l-.1.9-.2.8c-.1.3-.2.5-.3.8h-.1a4.94,4.94,0,0,1-1.8,2c-.7.5-1.5,1-2.3,1.5-1.7.7-3.5,1.8-5.4,2-1.2-.1-2.7.7-3.8.4-2.3-.4-4.4-.3-6.8-.6-1-.4-2-.6-3-1a7.6,7.6,0,0,1-2.6-1.6c-.9-.4-1.4-1.5-2-2.4v.1c0-.4-.7-.6-.5-1h0c.1-.2-.6-.3-.4-.5h-.1c-.1-.2.1-.1.1-.3s-.2,0-.2-.2c.3-.1-.2-.6.2-.7,0,.1.1-.2.2.1,0-.1,0-.5-.2-.4s-.3-.2-.5.1h.1c-.1.1-.1.1-.2.1,0,.3-.2.4-.2.7h0c.2.1.2.4.2.5l-.1.1c-.1.1.4.3.1.3.2.3.3.7.5,1a6.07,6.07,0,0,0,.7,1c.1,0,.4.5.4.2-.1.3.3.7.5.9h-.1c.1.5.5.1.6.6.2-.2.5.5.9.4v.1a17.39,17.39,0,0,0,1.8,1.1c.6,0,1.1.6,1.6.4a2.54,2.54,0,0,0,1.3.5h-.1a5,5,0,0,0,1.7.2c.1.3.4.3.6.4.4-.1,1.1.1,1.7,0,.1.1.5,0,.5.2a31.26,31.26,0,0,1,5.3,0h0c.2-.1.4-.4.6-.6v.1c.3-.1.6.1.9,0v.1c.3-.1.6,0,.9-.2h0l.2-.1c0,.1,0,.2-.1.2a15.72,15.72,0,0,0,7.2-3.8v.1l.3-.4v.1a2.7,2.7,0,0,0,.7-.8c.2-.3.3-.6.5-.9a.1.1,0,0,0,.1.1c0-.5.6-.7.3-1a.1.1,0,0,1,.1.1,7.84,7.84,0,0,0,.2-2.1v-2c-.1-.3-.1-.6-.2-.9a2.92,2.92,0,0,0-.2-.9l-.3-.9a1.79,1.79,0,0,0-.5-.7h.1a11.51,11.51,0,0,0-3.5-3.1,11.11,11.11,0,0,0-1.6-.7v-.1c-1.1-.2-2.1-1.1-3.3-1l.1-.1c-.2.1-.7-.2-.7.1l-.2-.1c-.8.2-1.4-.4-2.4-.3l.1-.1h-.6a5.28,5.28,0,0,0-2.5,0l.1-.1c-.4.2-1.2,0-1.7.2v-.1l-.3.1v-.1C90.54,81.47,89.94,81.67,89.24,81.77Z"/><ellipse class="cls-5" cx="93.64" cy="92.57" rx="13.3" ry="7.6"/><polygon class="cls-2" points="79.74 92.57 79.64 92.57 79.84 92.67 79.74 92.57"/><path class="cls-2" d="M80,93.07h0c0-.1-.2-.2-.3-.4C79.54,93,80.14,93,80,93.07Z"/><path class="cls-2" d="M79.94,93.27c-.1.1.1.2.1.2S80.14,93.17,79.94,93.27Z"/><path class="cls-2" d="M91.24,100v-.1a5.24,5.24,0,0,1-1.7-.2h0a26,26,0,0,1-4-1h0c-.2-.3-.8-.3-.9-.5-.1,0-.2,0-.1.1a13.16,13.16,0,0,1-2.9-1.9c0-.1,0-.1.1-.1a3.78,3.78,0,0,1-1.6-2.7c-.1,0-.1.1-.2,0,0,.4.3.6.3.9h-.1c0,.2.2,0,.2.2s-.1,0-.1.1a2.09,2.09,0,0,0,.4.6,1.21,1.21,0,0,0,.5.5c-.1.2.3.4.3.6a.37.37,0,0,0,.3.1,10.8,10.8,0,0,0,4.1,2.5c.8,0,1.5.6,2.4.7h0a4.48,4.48,0,0,1,1.1.1l.3-.1a19,19,0,0,0,6.3.4,18.57,18.57,0,0,0,3.4-.5,8.71,8.71,0,0,0,3.1-1.4v.1c.6-.4,1.2-.6,1.7-1h0a14.48,14.48,0,0,0,1.7-1.8,4.44,4.44,0,0,0,1-2.2,4.87,4.87,0,0,0-.2-2.9,6.83,6.83,0,0,0-1.8-2.3h0a14.13,14.13,0,0,0-3.9-2.4c-1.5-.7-3.2-.6-4.8-.9-1-.4-2.3.2-3.2-.1a8.79,8.79,0,0,0-5.5,1c-1.8.4-3.1,1.5-4.6,2.3-.4.7-1.5.9-1.9,1.8H81c-.4.2,0,.8-.4.8h0c-.3.1.3.5,0,.5h.1c0,.2-.1,0-.2.1s.2.1.1.2c-.4,0,0,.5-.4.5,0-.1-.2.2-.2-.1,0,.1-.1.5.1.4s.3.2.5,0h-.1c.1-.1.1-.1.2-.1,0-.3.2-.3.3-.4h0c-.2-.1,0-.3,0-.4h.1c.2,0-.2-.4,0-.2,0-.3.2-.5.3-.8a4.35,4.35,0,0,1,.4-.7c0-.1.3-.3.1-.4a1.18,1.18,0,0,0,.7-.4V89c.4,0,.1-.5.5-.4-.1-.2.5-.3.4-.6a.1.1,0,0,1,.1.1,9.14,9.14,0,0,1,1.4-.7c.2-.4.9-.3,1.1-.7a4.51,4.51,0,0,0,1.1-.3h0a4.49,4.49,0,0,0,1.2-.6c.2.2.4.1.6.2.3-.2.9-.3,1.3-.5.1.1.4-.1.4.1a6.69,6.69,0,0,1,4.2-.1h0c.2-.1.4-.3.6-.4h0c.3,0,.5.2.7.2v.1c.2-.1.5.2.8.1v.1h.2c0,.1,0,.2-.1.1,2.1.4,4.3.7,6.2,1.9h-.1l.4.1h-.1a4.23,4.23,0,0,0,.7.5,3,3,0,0,1,.7.5.1.1,0,0,0-.1.1c.4.1.3.6.7.5l-.1.1a4.21,4.21,0,0,1,1.4,2.8,2.2,2.2,0,0,1,.1,1.4c-.1.5-.3.9-.4,1.4h-.1a5.88,5.88,0,0,1-2.7,2.7,12.49,12.49,0,0,0-1.2.8v-.1c-.7.7-1.9.5-2.7,1.1v-.1c-.1.2-.6.1-.4.4h-.2c-.6.5-1.2.1-1.9.4v-.1a.66.66,0,0,1-.6.1l.1-.1c-.7-.2-1.4.2-2.1.2l.1-.1c-.3.2-1,0-1.4.1v-.1l-.2.1v-.1A5.12,5.12,0,0,0,91.24,100Z"/><path class="cls-3" d="M108.34,89.87v-3.7c0-4.6-6.6-8.4-14.7-8.4s-14.7,3.8-14.7,8.4v3.7c0-4.6,6.6-8.4,14.7-8.4S108.34,85.17,108.34,89.87Z"/><polygon class="cls-2" points="109.04 89.87 109.04 89.77 108.94 89.67 109.04 89.87"/><path class="cls-2" d="M108.74,89.17h0c0,.2.2.3.3.4C109.14,89.37,108.64,89.27,108.74,89.17Z"/><path class="cls-2" d="M108.74,89.07c.1-.2-.1-.2-.2-.2C108.74,88.77,108.64,89.07,108.74,89.07Z"/><path class="cls-2" d="M94.84,81.57v.1c.6-.2,1.3.1,2,.1h0a26.48,26.48,0,0,1,4.9.9h.1c.3.3,1,.3,1.2.5.1,0,.2,0,.1-.1a15.15,15.15,0,0,1,3.6,2.2c0,.1,0,.1-.1.1a4.73,4.73,0,0,1,2,3.1c.1,0,0-.1.2,0,0-.4-.4-.7-.4-1.1h.1c-.1-.3-.2,0-.2-.3,0-.1.1,0,.1-.1-.3-.5-.6-1.1-1.1-1.3,0-.2-.4-.5-.4-.7-.2-.1-.2-.2-.4-.1a12.79,12.79,0,0,0-5.1-2.8c-1,0-1.9-.6-3-.7h0a5.7,5.7,0,0,1-1.3-.1l-.4.1a21.57,21.57,0,0,0-7.6.1,19.09,19.09,0,0,0-4.1,1.1,8.9,8.9,0,0,0-3.5,2.3v-.1a6.47,6.47,0,0,1-.9.8,5.5,5.5,0,0,0-.7.9h0a5.89,5.89,0,0,0-1,3.4h.5a17,17,0,0,0-.1-2.3,8,8,0,0,1,.5-3.4,9.8,9.8,0,0,1,2.1-2.8v.1a13.19,13.19,0,0,1,4.9-2.4c1.8-.4,3.8-1.3,5.8-1.2,1.2.2,2.8-.4,3.9.1,2.2.7,4.4.9,6.7,1.6.9.6,1.9,1,2.8,1.7a5.46,5.46,0,0,1,2,2.5,1.61,1.61,0,0,1,.4.7,2,2,0,0,1,.1.8,8.55,8.55,0,0,0,0,1.6h.1c-.2.4.3.9,0,1.1h0c-.2.2.4.5.2.6h.1c0,.3-.1,0-.1.2s.2,0,.1.2c-.4,0,.1.6-.3.6,0-.1-.2.2-.2-.1,0,.1,0,.5.2.5s.3.2.5-.1l-.1-.1c.1-.1.1-.1.2-.1,0-.3.2-.4.3-.6h0a.33.33,0,0,1,0-.5l.1-.1c.2-.1-.3-.4,0-.3-.1-.7,0-1.4-.1-2.2-.1-.1,0-.6-.2-.4.2-.2.1-.9,0-1.1h0c.1-.5-.4-.4-.3-.9-.2,0-.3-.7-.7-.7,0-.1,0-.1.1-.1-.2-.3-.5-.6-.7-.9s-.5-.5-.7-.8c-.5-.2-.9-.9-1.5-.9a2.55,2.55,0,0,0-1.2-.8h.1a3.68,3.68,0,0,0-1.6-.5.82.82,0,0,0-.5-.5c-.4,0-1.1-.3-1.7-.3-.1-.2-.5-.1-.5-.3a34.76,34.76,0,0,1-5.4-.7h0a3,3,0,0,0-.7.5h0c-.3,0-.6-.1-.9-.1l.1-.1c-.3.1-.6-.1-1,.1h0l-.2.1c0-.1,0-.2.1-.1a19.81,19.81,0,0,0-4.1.8,32,32,0,0,0-3.9,1.6l.1-.1-.4.3V80a7.35,7.35,0,0,0-1.7,1.2.1.1,0,0,0-.1-.1c-.3.4-.8.4-.7.8a.1.1,0,0,1-.1-.1,8.06,8.06,0,0,0-1.9,3.8,10.87,10.87,0,0,1,.1,1.8,10.87,10.87,0,0,0,.1,1.8h-.1c0,.2.1.4.1.6h.2a5.33,5.33,0,0,1,1.5-3.6l.6-.6.6-.6.1.1c.7-1,2.1-1,3-1.8v.1c.1-.2.7-.2.5-.5h.2a2.35,2.35,0,0,1,1-.5,5.27,5.27,0,0,0,1.2-.3v.1a1.85,1.85,0,0,1,.7-.2l-.1.1a10.86,10.86,0,0,0,2.5-.4l-.1.1a8.81,8.81,0,0,1,1.7-.2v.1l.3-.1v.1A11.35,11.35,0,0,1,94.84,81.57Z"/><path class="cls-4" d="M5.14,36.77s20.5,18,39.6,28.1,31,13.8,33.7,17.2h0a9,9,0,0,1,3.9-3.2c2.4-1,7-2.8,3.3-5s-44.3-24.8-49.4-27.7c-8.4-4.7-18-14.6-26.5-11.8a13,13,0,0,0-4.6,2.4Z"/><polygon class="cls-2" points="5.64 36.37 5.64 36.37 5.64 36.37 5.64 36.37 5.54 37.27 5.54 37.27 5.54 37.27 5.54 37.27 5.54 37.27 5.54 37.27 5.64 37.27 5.74 37.07 5.64 37.17 5.54 37.27 5.54 37.27 5.54 37.27 5.54 37.27 5.54 37.27 5.54 37.27 5.54 37.27 5.54 37.27 5.64 36.37 5.64 36.37"/><path class="cls-2" d="M6.54,36.27h0a1.87,1.87,0,0,0-.6.7C6.34,36.87,6.24,36.27,6.54,36.27Z"/><path class="cls-2" d="M6.84,36.17c.3-.1.4-.3.4-.4C7.14,36,6.64,36.07,6.84,36.17Z"/><path class="cls-2" d="M41.14,49l.1-.1c-1.4-.6-2.8-1.6-4.2-2.3h.1c-3.5-1.9-6.6-4-10-6.2h.2c-.2-.1-.4-.1-.6-.3,0-.1.1,0,.1,0-.6-.6-2.1-1.3-2.5-1.7q-.3-.15-.3,0a28.2,28.2,0,0,0-4.2-2.3,20.36,20.36,0,0,0-2.2-.9c-.4-.1-.8-.2-1.1-.3l-.6-.2-.6-.1c-.1-.1-.2-.1-.1-.2a13.41,13.41,0,0,0-4,0c-.7.2-1.3.3-2,.5a10.84,10.84,0,0,0-1.9.8c-.1.1.3,0,.1.1a10.2,10.2,0,0,1,2.2-.9l-.1.1c.6-.1.1-.2.6-.3.2,0,0,.1.1.1.3-.1.6-.1.9-.2a2.77,2.77,0,0,0,.9-.1c.6-.1,1.2,0,1.8-.1a6.4,6.4,0,0,1,1.7.5c.3,0,.6.1.8,0a34.69,34.69,0,0,1,5.9,2.7c1.9,1.1,3.8,2.4,5.7,3.6,1.9.9,3.8,2.7,6,4h0c.7.4,1.8,1,2.6,1.5l.8.3c5,3.1,10.3,5.9,15.5,8.9,5.9,3.4,10.9,6.5,16.9,9.3,0,0,0,.1-.1,0,1.7.9,3.2,1.8,4.8,2.6h0c2,1,4,2.1,6,3.2,1,.6,2,1.1,3,1.7.5.3,1,.5,1.5.8s1,.5,1.4.8a1.15,1.15,0,0,1,.5,1.2,2.1,2.1,0,0,1-.8,1.1,17.25,17.25,0,0,1-2.7,1.5,10.85,10.85,0,0,0-2.8,1.5,23.91,23.91,0,0,0-2.2,2.3V82h.1l.1-.1a12.43,12.43,0,0,0-3.5-2.5h0c-4-2-7.8-4-11.8-5.7-4.1-2-8.6-3.6-12.6-5.9-2.4-1.5-6-2.7-8.2-4.3-4.5-3.1-9.1-5.7-13.8-8.6-4.1-3-8.4-5.7-12-8.9-2-1.2-3.7-3.2-5.7-4.8v.1c-.6-.8-1.8-1.1-2-1.7H9c-.3-.4-1.1-.4-1.2-.8h-.1c-.5-.4,0-.1-.3-.4-.1-.1-.2.1-.4-.2.2-.3-1.2-.9-.9-1.2.2.2-.3-.4.3,0-.1-.2-.9-.8-.9-.6-.2.1-.6-.1-.2.4h.2c.1.2.1.2.1.3.6.5.5.7.9,1.2h0c.4.1.7.5,1,.8v.1c0,.2.9.3.5.4,1.3,1,2.7,2.2,4.1,3.3.3.1,1.1.9.9.5a6.09,6.09,0,0,0,1.6,1.6h-.1c.6.8,1.1.5,1.6,1.3.3-.1,1.2,1.1,1.8,1.1.1.1.1.2,0,.2,1.3,1,2.7,2.1,3.8,3,1.1.5,2.2,1.8,3.2,2.1a23.72,23.72,0,0,0,2.7,2h-.1a26.42,26.42,0,0,0,3.3,2c.2.5.7.7,1.1,1.1.8.4,2.3,1.4,3.5,2,.1.2,1,.5.9.7,3.4,1.7,7.4,4.1,10.8,6.2H47c.5.1,1.1.2,1.7.3,0,0,0,.1-.1,0,.7.3,1.2.8,1.9,1.1h-.1c.7.2,1.2.8,2,1v.1l.5.2q0,.15-.3,0c5.6,2.9,11.7,5.2,17.5,8h-.2l1.2.4H71c1.4.8,2.9,1.3,4.3,2.1,0,0-.3,0-.1.1,1.1.4,1.4,1.1,2.1,1.2a.1.1,0,0,1-.1.1l.7.5.6.6.5-.5h0v.5a12,12,0,0,1,2.8-2.7,7.5,7.5,0,0,1,1.8-.8c.6-.3,1.2-.5,1.8-.8a7.46,7.46,0,0,0,1.7-1.4,2.22,2.22,0,0,0,.5-1.1c0-.2-.1-.4-.1-.6s-.2-.3-.3-.5a5.17,5.17,0,0,0-1.8-1.2,16.32,16.32,0,0,0-1.9-.9h0c-3.3-1.6-6.5-3.6-9.8-5.4-1.3-.8-2.3-1.2-3.7-2v-.1c-2.4-1-4.7-2.9-7.2-4H63c-.5-.1-1.4-.9-1.4-.5l-.4-.3c-1.8-.6-2.9-1.8-5-2.7h.2a11.88,11.88,0,0,1-1.6-.8H55c-1.5-1.2-3.5-1.9-5.3-2.9H50a31.34,31.34,0,0,1-3.5-1.9h.1l-.6-.2v-.1C44,50.47,42.64,49.77,41.14,49Z"/><path class="cls-2" d="M6.34,38.57c-.1-.1-.1-.1-.1-.2A.35.35,0,0,0,6.34,38.57Z"/><path class="cls-3" d="M5,36.77c-3.4,2.9-2.7,6.5-2.3,8.4.6,2.5,4.8,12.3,13,17,10.6,6,44.7,20.1,44.1,19.8,4.4,1.9,13.3,6.2,16.1,2.9.9-1.1,1.7-2,2.3-2.8h0c-2.7-3.4-14.6-7.1-33.7-17.2S5.14,36.77,5,36.77Z"/><polygon class="cls-2" points="4.54 37.17 4.54 37.17 4.54 37.17 4.64 37.27 4.64 37.27 4.64 37.27 4.64 37.27 4.64 37.37 4.64 37.37 4.94 37.47 4.74 37.37 4.74 37.37 4.64 37.27 4.64 37.27 4.64 37.27 4.64 37.27 4.54 37.17"/><path class="cls-2" d="M5.94,38.07h0l-.9-.4C5.24,38.07,5.84,37.87,5.94,38.07Z"/><path class="cls-2" d="M6.14,38.27a.54.54,0,0,0,.5.3C6.44,38.57,6.14,38.17,6.14,38.27Z"/><path class="cls-2" d="M37,60.47l.1-.1a42.31,42.31,0,0,1-4-2.4h.1c-3.3-2.2-6.4-4.1-9.6-6.3h.2c-.2-.1-.4-.1-.6-.3,0-.1.1,0,.1,0-.6-.6-2-1.3-2.4-1.8q-.3-.15-.3,0c-2.5-1.8-5.1-3.8-7.6-5.6-.1-.1-.1-.2,0-.2a44.76,44.76,0,0,1-6.4-5.1c-.1,0,.2.2-.1.1.6.6,1.4.9,1.9,1.5h-.1c.4.4.2-.1.6.4.1.2-.1,0,0,.1a27.73,27.73,0,0,0,2.9,2.2c.1.3,1,.8,1.3,1.2.3.1.5.4.7.3,3.3,2.7,6.9,5.3,10.5,7.9,1.9,1,3.7,2.7,5.8,4h0c.7.4,1.7,1,2.5,1.5l.7.3a125.94,125.94,0,0,0,15,8.9,147.73,147.73,0,0,0,17.1,8.1s0,.1-.1,0c1.7.7,3.2,1.5,4.8,2.2h0c1.4.6,2.8,1.2,4.1,1.9a21.16,21.16,0,0,1,2,1.2,5.5,5.5,0,0,1,.9.7c.1.1.3.2.4.4l.3.3.1.1h0c-.1.1-.2.3-.3.4-.7.8-1.3,1.7-1.9,2.5a4.55,4.55,0,0,1-3.6,1,18.91,18.91,0,0,1-4-.8c-2.6-.8-5.2-1.9-7.7-2.9v-.1c-.2-.1-.5-.2-.7-.3l-.1.1v-.1h-.1l-.2-.1-.4-.1-.7-.3-1.4-.6c-.9-.4-1.8-.8-2.8-1.2-1.8-.8-3.7-1.6-5.5-2.4-4-1.9-8.5-3.3-12.5-5.2-2.4-1.4-6-2.3-8.2-3.7s-4.7-2.5-7.1-3.6a66.72,66.72,0,0,1-7.1-3.5,29.22,29.22,0,0,1-9.2-11.2A16.92,16.92,0,0,1,2.34,43l-.1.1c.1-.9-.3-2,.2-2.5v.1c.3-.4-.1-1.2.2-1.4v-.1c.2-.5.1,0,.4-.4.1-.2-.1-.1.1-.4.2.1.4-.2.6-.5s.4-.5.6-.4c-.2.2.4-.2,0,.3.1-.1.8-.7.6-.8s.1-.6-.4-.3v.2c-.2,0-.2.1-.3,0a2.31,2.31,0,0,1-.7.5,6.13,6.13,0,0,0-.6.4h0c-.1.4-.5.8-.6,1.1l-.1.1c-.2.1-.1,1-.2.7a10.56,10.56,0,0,0-.1,5.3c.1.2.4,1.3.4.9a4.28,4.28,0,0,0,.6,2.2.1.1,0,0,1-.1-.1c.1,1,.7.9.8,1.9.3,0,.7,1.5,1.2,1.8,0,.1,0,.2-.1.2a30.69,30.69,0,0,0,2.6,4c.9.8,1.7,2.2,2.7,2.7a13.38,13.38,0,0,0,2.4,2.3h-.1a11.48,11.48,0,0,0,3.3,1.9,3.06,3.06,0,0,0,1.2,1c.8.3,2.4,1.1,3.6,1.6.1.2,1,.4,1,.6a108.09,108.09,0,0,1,11,5.1h-.1c.5.1,1.1.1,1.7.2,0,0,0,.1-.1,0,.7.3,1.2.7,1.9,1h-.1a19.47,19.47,0,0,0,2,.9v.1l.5.1q0,.15-.3,0c5.6,2.5,11.5,4.7,17.3,7.2H55l1.2.4h-.1c.6.3,1.2.5,1.8.8l.9.3.4.2.2.1h.2s0,.1.2,0c.3-.3,0-.5.1-.5l-.1-.1h0l-.3.6c.3.1.5.2.8.3,0,0-.3,0-.1.1,1.1.3,1.6.9,2.2.8a.1.1,0,0,1-.1.1c2.9,1.1,5.9,2.4,9.1,2.8a8.25,8.25,0,0,0,3.7-.8,2.34,2.34,0,0,0,.7-.7l.6-.8c.4-.5.7-1,1.1-1.5h.2l.1-.1.1-.2a.37.37,0,0,0,.1-.3h0l-.1-.1h0v-.2l-.5-.5-.5-.4a4.13,4.13,0,0,0-1.1-.7c-.8-.5-1.5-.9-2.3-1.3a44.42,44.42,0,0,0-4.9-2.4c-1.4-.7-2.3-1-3.7-1.6v-.1c-2.5-.8-4.8-2.5-7.3-3.3h.2c-.5,0-1.4-.8-1.4-.4l-.4-.3c-1.8-.4-2.9-1.6-5-2.4h.2a12.62,12.62,0,0,1-1.6-.7h.2a42.48,42.48,0,0,0-5.2-2.7h.3c-.9-.3-2.4-1.3-3.5-1.8h.1l-.6-.2v-.1A36.81,36.81,0,0,0,37,60.47Z"/><path class="cls-2" d="M3.24,38c.1-.1.1-.1.1-.2A.35.35,0,0,1,3.24,38Z"/><path class="cls-4" d="M110.74,84.77c-1.8-5.1-7.1-6.2,2.1-7.6,3-.4,50.6-10.7,61.7-14.9s22.8-5.3,23.6,2.6c-1.5,3.1-26.6,9.7-36.1,10.7s-51.3,9.2-51.3,9.2Z"/><polygon class="cls-2" points="110.54 84.07 110.54 84.07 110.54 84.07 110.54 84.07 110.94 85.37 110.94 85.37 110.94 85.37 110.94 85.37 110.94 85.37 110.94 85.37 111.04 85.37 111.24 85.27 111.04 85.37 110.94 85.37 110.94 85.37 110.94 85.37 110.94 85.37 110.94 85.37 110.94 85.37 110.94 85.37 110.94 85.37 110.54 84.07 110.54 84.07"/><path class="cls-2" d="M112.34,84.87h0l-.9.4C111.94,85.37,112.14,84.77,112.34,84.87Z"/><path class="cls-2" d="M112.64,84.87c.4,0,.5-.2.6-.2C113.14,84.77,112.54,84.67,112.64,84.87Z"/><path class="cls-2" d="M151.24,77.17l.1-.1c-1.5.4-3.2.5-4.8.9l.1-.1c-4,.7-7.7,1.5-11.6,2.3a.1.1,0,0,0,.1-.1,1.42,1.42,0,0,1-.6.2c-.1,0,.1-.1.1-.1-.9,0-2.4.6-3,.5-.2.1-.3.2-.2.2-3.1.6-6.4,1.3-9.6,2-.2,0-.2,0-.2-.1a71.68,71.68,0,0,1-8.3,1.7c-.1.1.3,0,0,.2.9-.1,1.6-.5,2.4-.5l-.1.1c.6-.1.1-.2.7-.2.3,0,0,.1.1.1,1.2-.3,2.6-.5,3.7-.9a14.05,14.05,0,0,0,1.8-.2,2.39,2.39,0,0,0,.7-.3c4.4-.7,8.8-1.7,13.3-2.5,2-.7,4.6-.8,7.1-1.3h0a22.71,22.71,0,0,1,3-.6l.8-.3c5.9-.7,11.8-1.9,17.8-2.5a99.29,99.29,0,0,0,19-4.5s.1,0-.1.1c1.8-.6,3.5-1,5.2-1.6h0c2.1-.8,4.3-1.6,6.4-2.6a11.94,11.94,0,0,0,1.6-.8,1.79,1.79,0,0,0,.7-.5,4.62,4.62,0,0,0,.7-.7l.1-.1v-.4l-.1-.4c-.1-.3-.1-.6-.3-.8a10.93,10.93,0,0,0-.8-1.5,6.43,6.43,0,0,0-3.3-2.3,14.71,14.71,0,0,0-4.2-.6,33.41,33.41,0,0,0-8.4,1.2V60c-2.2.6-4.3,1.2-6.3,1.9-1,.3-2.1.7-3.1,1s-2.1.6-3.2,1c-4.4,1.1-9,2.8-13.5,3.7-2.8.4-6.3,1.9-9,2.2a122.62,122.62,0,0,0-15.9,3.8c-5,.9-9.9,2.4-14.8,3.1a19.31,19.31,0,0,1-3.6.6c-.6.1-1.3.1-1.9.2a4.9,4.9,0,0,0-1.9.7h.1a1.17,1.17,0,0,0-.6.6,1.06,1.06,0,0,0,.1.8c.3.4.6.7.6,1.1l-.1-.1c.1.5,1,.7,1,1h.1c.4.5,0,.1.2.5.1.1.2,0,.3.3-.3.2.8,1.3.4,1.5-.1-.3.1.5-.3-.1.1.2.4,1.1.6.9.2,0,.5.3.4-.3l-.2-.1c0-.2,0-.2.1-.3-.3-.8-.2-.9-.4-1.5h0a3.38,3.38,0,0,1-.7-1.1v-.1c0-.3-.8-.6-.4-.5a8.74,8.74,0,0,1-.8-1,2.26,2.26,0,0,1-.4-.9c0-.1,0-.2.2-.3a2.19,2.19,0,0,1,.5-.3,5.64,5.64,0,0,1,1.2-.4c.2-.2,1.3-.3.9-.4a8.88,8.88,0,0,0,2.3-.1.1.1,0,0,1-.1.1c1,.1,1.1-.5,2.1-.3.1-.3,1.6-.2,2.1-.6.1,0,.2.1.1.1,1.6-.3,3.4-.6,4.7-.9,1.1-.5,2.8-.5,3.7-1a16.35,16.35,0,0,0,3.3-.7l-.1.1a25.09,25.09,0,0,0,3.8-1.1c.4.2,1,0,1.6,0,.8-.3,2.6-.7,3.9-1.1.2.1,1.1-.3,1.2-.1a90.63,90.63,0,0,1,12.2-2.8h-.1a11.91,11.91,0,0,0,1.5-.9c.1,0,.1,0-.1.1.7-.2,1.4-.2,2.1-.4l-.1.1a22.5,22.5,0,0,0,2.2-.5h.1l.5-.2c0,.1,0,.2-.3.2,3.1-.7,6.2-1.6,9.3-2.5s6.2-2,9.3-3.1l-.2.1,1.1-.5a.1.1,0,0,1-.1.1c1.5-.4,3.1-1.1,4.6-1.4,0,0-.2.1,0,.1,1.1-.4,1.8-.2,2.3-.7.1,0,.1.1,0,.1a20.38,20.38,0,0,1,9.5-.2,5.27,5.27,0,0,1,3.5,2,10.42,10.42,0,0,1,1,1.8,3.55,3.55,0,0,1,.2,1c.1.3-.2.5-.4.8V65a17.45,17.45,0,0,1-4.9,2.5l-5.4,1.8c-1.5.4-2.5.8-4,1.3l-.1-.1c-2.5,1-5.4,1.2-8,2.2l.2-.2c-.4.3-1.6.3-1.4.6h-.5c-1.7.8-3.4.6-5.6,1.3l.1-.1c-.6.2-1.3.3-1.7.4.1,0,0,0,.2-.1-1.9.1-4,.6-6,.9l.2-.2c-1,.3-2.7.4-4,.7l.1-.1-.6.2V76A30.62,30.62,0,0,1,151.24,77.17Z"/><path class="cls-2" d="M110.34,82.47c0,.1.1.1.1.2A.35.35,0,0,1,110.34,82.47Z"/><path class="cls-3" d="M110.74,84.77s41.9-8.2,51.4-9.1,34.6-7.6,36.1-10.7c.8,7.9-21,15.4-26.2,16s-45.1,7-48,7.5-11.8,3.3-12.8-2.2a13.08,13.08,0,0,0-.5-1.5Z"/><polygon class="cls-2" points="111.04 85.37 111.04 85.37 111.04 85.37 111.04 85.37 110.14 84.97 110.14 84.97 110.14 84.97 110.14 84.97 110.14 84.97 110.14 84.97 110.14 85.07 110.34 85.17 110.24 85.07 110.14 84.97 110.14 84.97 110.14 84.97 110.14 84.97 110.14 84.97 110.14 84.97 110.14 84.97 110.14 84.97 111.04 85.37 111.04 85.37"/><path class="cls-2" d="M110.74,86.27h0l-.5-.8C110.24,85.87,110.74,86,110.74,86.27Z"/><path class="cls-2" d="M110.74,86.57a.68.68,0,0,0,.3.6C110.94,87,110.94,86.47,110.74,86.57Z"/><path class="cls-2" d="M139.74,86.17h-.1C139.74,86.27,139.74,86.17,139.74,86.17Z"/><path class="cls-2" d="M147.44,84.47l.1-.1c-1.4.4-3.1.5-4.6.8l.1-.1c-3.9.6-7.5,1.3-11.3,2.1a.1.1,0,0,0,.1-.1,1.42,1.42,0,0,1-.6.2c-.1,0,.1-.1.1-.1-.8,0-2.4.5-2.9.5-.2.1-.3.1-.2.2-1.5.3-3.1.5-4.6.9s-3.1.8-4.7,1.1c-.2,0-.2-.1-.2-.1a9.79,9.79,0,0,1-4.2.2,4.19,4.19,0,0,1-2.1-.8,4.86,4.86,0,0,1-1.5-1.7c-.1-.1.1.3-.1.1a2.42,2.42,0,0,0,.8,1.1,10.47,10.47,0,0,0,1.1.8h-.1c.6.3.2-.1.8.2.2.2-.1.1,0,.1a8.74,8.74,0,0,0,3.9.3c.3.2,1.4-.1,1.8,0,.3-.1.6-.1.7-.3,1.1-.2,2.2-.4,3.2-.6s2.1-.4,3.2-.6c2.2-.4,4.3-.8,6.5-1.1,2-.6,4.5-.7,6.9-1.2h0a21.76,21.76,0,0,1,2.9-.5l.8-.3c5.7-.6,11.5-1.7,17.3-2.5,3.3-.4,6.4-.9,9.4-1.3l2.3-.3a15.54,15.54,0,0,0,2.3-.5,27,27,0,0,0,4.5-1.6s.1,0-.1.1c1.8-.7,3.4-1.2,5-1.9h0c2-1,4-1.9,6-3a21.41,21.41,0,0,0,5.3-3.9,11.79,11.79,0,0,0,2.2-2.7c.1-.3.3-.5.4-.8s.2-.7.3-1a3.4,3.4,0,0,0,.1-1c0-.1,0-.5-.1-.3l-.1.1-.1.1-.6.6a2.09,2.09,0,0,1-.6.4,4.67,4.67,0,0,1-1,.5,18.94,18.94,0,0,1-2.1.9c-1.4.6-2.9,1.1-4.3,1.6v-.1c-4.1,1.5-8.2,2.3-12.3,3.4-4.3.9-8.8,2.5-13.3,2.9-2.8,0-6.3,1.2-8.9,1.3a101.93,101.93,0,0,0-15.6,2.8c-4.9.7-9.6,2-14.4,2.6-2.2.6-4.7.6-7.2,1.1l.1.1c-.9-.1-1.9.7-2.5.5h.1c-.5-.1-1,.6-1.3.5l-.1.1c-.6.1-.1-.1-.5,0-.2,0,0,.2-.4.2-.1-.3-1.4.3-1.5,0,.3-.1-.5-.1.2-.3-.2,0-1.2.2-1,.4,0,.2-.4.4.2.4l.1-.2c.2.1.2,0,.2.1a7.44,7.44,0,0,1,1.5,0h0a5.27,5.27,0,0,1,1.2-.3h.1c.2.1.8-.5.6-.2,1.5-.4,3.3-.7,5-1,.2-.1,1.3-.2.9-.4a7.84,7.84,0,0,0,2.2-.2.1.1,0,0,1-.1.1c1,.1,1-.5,2-.3.1-.3,1.6-.2,2-.6.1,0,.2.1.1.1,1.6-.3,3.3-.5,4.6-.8,1.1-.4,2.7-.4,3.7-.9a23,23,0,0,0,3.2-.5l-.1.1a16.71,16.71,0,0,0,3.7-.9,3.69,3.69,0,0,0,1.5.1c.8-.3,2.5-.6,3.8-.9.2.1,1.1-.2,1.2-.1a64.29,64.29,0,0,1,11.9-1.9h-.1c.5-.2,1-.5,1.5-.7.1,0,0,0-.1.1.7-.1,1.4,0,2.1-.1l-.1.1a19.19,19.19,0,0,0,2.2-.3h.1l.5-.2c0,.1,0,.2-.3.2,6.1-1,12.2-2.9,18.3-4.6l-.2.1,1.1-.4a.1.1,0,0,1-.1.1,39.56,39.56,0,0,0,4.5-1.5s-.2.2,0,.1c1-.5,1.8-.4,2.2-.9.1,0,.1.1,0,.1,1-.4,2.1-.8,3.1-1.3a8.73,8.73,0,0,0,2.5-1.4l.1-.1.1-.1h0v.4l-.1.4-.1.4a7.68,7.68,0,0,1-2.2,3.3,26,26,0,0,1-3.2,2.6v-.1c-2.8,2.1-6.3,3.5-9.7,4.9-1.4.5-2.4.9-3.8,1.4l-.1-.1c-2.4,1.1-5.2,1.3-7.8,1.9l.2-.1c-.4.2-1.6.2-1.4.4H169c-1.7.6-3.3.3-5.5.9l.1-.1a15.47,15.47,0,0,1-1.7.3c.1,0,0,0,.2-.1a38.79,38.79,0,0,0-5.8.9l.2-.2c-.9.3-2.7.4-3.9.7l.1-.1-.6.2v-.1A16.53,16.53,0,0,1,147.44,84.47Z"/><path class="cls-2" d="M131.34,87.27Z"/><path class="cls-2" d="M112.94,84.87h-.2C112.74,85,112.84,84.87,112.94,84.87Z"/><path class="cls-3" d="M78.34,135.47a25.72,25.72,0,0,0,7.5-.9c6.5-2,7.4-4.1,8.6-10.6s4.2-19.5,4.8-23.2c0,0-2-.1-4.6-.4h0c-4.5,3.1-16.3,35.1-16.3,35.1Z"/><polygon class="cls-2" points="79.04 135.47 79.04 135.47 79.04 135.47 78.94 135.67 78.94 135.67 78.94 135.67 78.94 135.67 78.94 135.67 78.94 135.67 79.04 135.67 78.94 135.47 78.94 135.57 78.94 135.67 78.94 135.67 78.94 135.67 78.94 135.67 78.94 135.67 78.94 135.67 79.04 135.47 79.04 135.47"/><path class="cls-2" d="M78.94,134.87h0l.1.5C79.24,135.27,78.84,135,78.94,134.87Z"/><path class="cls-2" d="M79,134.77c.1-.1,0-.2,0-.3C79.14,134.57,78.94,134.77,79,134.77Z"/><path class="cls-2" d="M85.24,117.67h0c-.2.6-.7,1.3-.9,2v-.1a46,46,0,0,0-1.9,5.2v.1c-.3.3-.3,1.1-.5,1.3,0,.1,0,.2.1.1-.5,1.4-1,2.9-1.4,4.3,0,.1-.1.1-.2,0a16.27,16.27,0,0,1-1.3,3.7c.1.1.1-.1.2.1.2-.4.1-.8.4-1.1l.1.1c.1-.2-.2-.1,0-.4.1-.1.1.1.1,0a5.49,5.49,0,0,0,.5-1.7c.2-.1.2-.6.5-.7,0-.2.1-.3,0-.4.8-1.9,1.4-3.9,2.2-5.9.1-1,.9-2,1.2-3.1h0a6.94,6.94,0,0,1,.5-1.3v-.4c1.3-2.4,2.2-5.1,3.5-7.6,1.4-2.9,2.8-5.2,3.9-8.1,0,0,.1,0,0,.1.4-.8.9-1.4,1.3-2.1h0c.2-.3.3-.5.5-.8s.4-.5.6-.6h0c1.3.1,3,.3,4.2.3H99v.2l-.1.4c-.1.3-.1.6-.2.9a12.86,12.86,0,0,1-.4,1.9c-.2,1.3-.5,2.6-.7,3.9h-.1c-.3,2.1-1.1,3.9-1.4,6-.6,2-.6,4.3-1.2,6.4-.6,1.2-.2,3.1-.8,4.2a24.73,24.73,0,0,0-1.1,3.6,10.61,10.61,0,0,1-1.6,3.4,11.73,11.73,0,0,1-3,1.9,14.22,14.22,0,0,1-3.3,1.1c-1,.5-2.3.2-3.5.4l.1.1c-.4-.2-.9.4-1.2.1h0c-.2-.2-.5.4-.7.2v.1c-.3,0,0-.1-.3-.1-.1,0,0,.2-.2.1,0-.4-.7.1-.7-.3.2,0-.2-.2.1-.2-.1,0-.6,0-.5.2s-.2.3.1.5l.1-.1c.1.1.1.1.1.2.4,0,.4.2.7.3h0c.2-.2.4-.1.6-.1l.1.1c.1.2.4-.3.3-.1l2.5-.3c.1-.1.6-.1.4-.2.2.2.9.1,1.1.1h0c.5.2.5-.4,1-.1,0-.3.8-.1.9-.5a.1.1,0,0,1,.1.1,14.16,14.16,0,0,0,2.2-.7c.4-.4,1.3-.5,1.6-1a3.69,3.69,0,0,0,1.4-.9v.1a3.57,3.57,0,0,0,1.2-1.6c.3,0,.5-.3.7-.5.1-.5.5-1.2.6-1.9.2-.1.1-.5.3-.5a23.46,23.46,0,0,1,1.3-5.7h0a6.89,6.89,0,0,0-.3-.8h0c0-.3.3-.6.3-1v.1c0-.3.3-.6.2-1h.1v-.3c.1,0,.2,0,.1.2.7-2.9,1-5.9,1.7-8.8v-.4a17,17,0,0,0,.4-2.2s.1.1.1,0c-.1-.6.4-.8.1-1.1h.1a35.83,35.83,0,0,1,.9-4.5v-1l.1-.6v-.3c0-.1.1-.2-.1-.2a17.73,17.73,0,0,0-2.2-.1v-.1a23.48,23.48,0,0,1-2.6-.1h0a8.37,8.37,0,0,0-1.8,2c-.4.6-.6,1.1-1,1.7h-.1c-.3,1.2-1.5,2.1-1.8,3.4l-.1-.1c.1.3-.4.7-.1.7l-.2.2c0,1-.9,1.4-1.1,2.4v-.1a6.89,6.89,0,0,1-.3.8v-.1a7.56,7.56,0,0,0-1.1,2.6l-.1-.1a8.27,8.27,0,0,1-.7,1.8v.2h-.1A17.23,17.23,0,0,1,85.24,117.67Z"/><path class="cls-4" d="M78.34,135.47s11.8-31.9,16.2-35.2h0c-5-.5-12.5-1.6-13.6-3.1,0,0-1.2-.8-2.7,2s-10.9,27.5-11.8,29.7-2.2,3.5,0,4.8c1.6.7,6.7,1.7,11.9,1.8Z"/><polygon class="cls-2" points="77.64 135.47 77.64 135.47 77.64 135.47 78.34 134.77 78.34 134.77 78.34 134.77 78.34 134.77 78.34 134.77 78.34 134.77 78.24 134.77 78.14 134.87 78.24 134.77 78.24 134.77 78.34 134.77 78.34 134.77 78.34 134.77 78.34 134.77 78.34 134.77 78.34 134.77 77.64 135.47 77.64 135.47"/><path class="cls-2" d="M77.44,135c.1,0,.1.1,0,0l.5-.2C77.84,134.57,77.64,135.07,77.44,135Z"/><path class="cls-2" d="M77.34,135a.22.22,0,0,0-.3.1C77,135,77.34,135.07,77.34,135Z"/><path class="cls-2" d="M68.34,124.07h0a24.43,24.43,0,0,1-1,2.4v-.1c-.4,1-.8,2.1-1.2,3.1l-.6,1.5a2.22,2.22,0,0,0-.1,1.6.1.1,0,0,1-.1-.1l.2.2h-.1c0,.3.3.5.6.6s.6.2.7.4c.1,0,.2,0,.2-.1a18.43,18.43,0,0,0,5.2,1,.1.1,0,0,1,.1.1,35.53,35.53,0,0,1,4.6.3c.1-.1-.2-.1,0-.2-.5-.1-.9.1-1.3,0l.1-.1c-.3-.1-.1.2-.4.1-.1-.1,0-.1,0-.1a14.77,14.77,0,0,0-2.1-.1c-.1-.2-.7-.1-1-.3-.2,0-.4,0-.4.1a23.25,23.25,0,0,1-3.6-.8,5.94,5.94,0,0,1-1.6-.6,1.4,1.4,0,0,1-.8-1.1,3,3,0,0,1,.5-1.7,11.08,11.08,0,0,0,.9-1.9h0a9.83,9.83,0,0,1,.5-1.6v-.5c1.4-2.9,2.5-6.1,3.8-9.2a102.08,102.08,0,0,0,3.8-10s.1,0,0,.1c.3-1,.8-1.9,1.1-2.8h0a20.94,20.94,0,0,1,1.3-3.5,13.83,13.83,0,0,1,1.7-3.2,4.05,4.05,0,0,1,.9-.5h.5c.2,0,.2.2.4.3a8.11,8.11,0,0,0,2.1,1,37.35,37.35,0,0,0,4.6.9v.1c2.2.3,4.4.8,6.6,1l-.1-.4c-.2.1-.3.3-.5.4a13.61,13.61,0,0,0-2.1,3.2,27.13,27.13,0,0,1-1.8,3.4c-1,1.3-1.3,3.4-2.2,4.6a31.84,31.84,0,0,0-3.5,8.3c-1.2,2.5-1.9,5.3-3.2,7.7-.3,1.3-1.2,2.4-1.7,3.8h.1c-.4.4-.1,1.2-.5,1.4v-.1c-.3.2.2.7-.1.8l.1.1c-.1.3-.1,0-.2.2s.1.1,0,.3c-.4-.1-.2.8-.6.7.1-.2-.2.2-.2-.2-.1.1-.3.6-.1.6s.2.4.5.1l-.1-.1c.2-.1.1-.1.2-.1.2-.4.4-.4.6-.7h0c-.1-.3.1-.5.2-.7h.1c.2,0-.1-.6.1-.4.3-.9.6-1.8,1-2.7,0-.2.3-.7,0-.6a2.59,2.59,0,0,0,.7-1.1v.1c.5-.4,0-.7.5-1-.2-.2.4-.8.2-1.2H82c.3-.8.8-1.7,1.1-2.4,0-.7.7-1.4.6-2a9.13,9.13,0,0,0,.8-1.7v.1a6.12,6.12,0,0,0,.6-2.1c.3-.1.4-.4.6-.7.1-.5.5-1.4.7-2.1.2-.1.2-.6.4-.5a21.86,21.86,0,0,1,2.9-6.2h0v-1s.1,0,0,.1c.1-.4.5-.6.6-1v.1c.1-.4.5-.6.6-1.1H91l.1-.3c.1,0,.1.1,0,.2.6-1,1.1-2,1.7-3a11.15,11.15,0,0,1,2-2.7l-.6-.3.4-.4c-1.2-.1-2.4-.2-3.6-.4h-.6l.1-.1c-.9-.2-1.8-.2-2.6-.4,0,0,.1-.1,0-.1-.7.1-1-.4-1.3-.1v-.1a20,20,0,0,1-2.6-.5,7.2,7.2,0,0,1-2.4-1,.35.35,0,0,1-.2-.1c-.1,0-.1-.1-.2-.2a1,1,0,0,0-.7-.2,2.73,2.73,0,0,0-1.2.6,5.71,5.71,0,0,0-1.3,2.1h-.1c-.6,1.9-1.6,3.8-2.4,5.7-.3.8-.5,1.4-.8,2.2h-.1c-.2,1.5-1.4,2.7-1.6,4.3l-.1-.1c.1.3-.4.8-.1.9l-.2.2c0,1.1-.8,1.7-1.1,3v-.1a9.44,9.44,0,0,1-.3.9v-.1a16.59,16.59,0,0,0-1.2,3.1l-.1-.2c-.1.6-.5,1.4-.7,2.1v.3h-.1C68.84,122.37,68.64,123.17,68.34,124.07Z"/></svg>