<?xml version="1.0" encoding="utf-8"?>
<!-- Generator: Adobe Illustrator 23.0.1, SVG Export Plug-In . SVG Version: 6.00 Build 0)  -->
<svg version="1.1" id="Layer_1" xmlns="http://www.w3.org/2000/svg" xmlns:xlink="http://www.w3.org/1999/xlink" x="0px" y="0px"
	 viewBox="0 0 200 170" style="enable-background:new 0 0 200 170;" xml:space="preserve">
<style type="text/css">
	.st0{fill:#EAB9C5;}
	.st1{fill:#D97294;}
	.st2{fill:#F5E1E5;}
	.st3{fill:#F8E9EC;}
	.st4{fill:#E299AD;}
	.st5{fill:#D45D85;}
	.st6{fill:#FDF8F9;}
	.st7{fill:#F3DADF;}
	.st8{fill:none;}
	.st9{fill:none;stroke:#B5DFCC;stroke-width:2;stroke-linecap:round;stroke-linejoin:round;stroke-miterlimit:10;}
	.st10{fill:#DB7C99;}
	.st11{fill:#FAF0F2;}
	.st12{fill:#F6E5E8;}
	.st13{fill:#DA7194;}
	.st14{fill:#F3A169;}
	.st15{fill:none;stroke:#EBB1C5;stroke-miterlimit:10;}
	.st16{fill:#0075C2;}
</style>
<g>
	<g>
		<g>
			<path class="st0" d="M71,38.4c0,0-13.4,1.9-11.7,13.4c1.7,11.5,13.8,21.4,25.2,26c11.5,4.5,23.5,17.4,28.9,26.6
				c5.4,9.2,46.9,41.5,83,7.7c0,0-33.8,7.5-53.8-1.9s-24.4-29-33.5-34.1C99.9,71,77.1,52.7,71,38.4z"/>
			<g>
				<g>
					<g>
						<g>
							<polygon class="st5" points="70.4,38.7 70.4,38.9 70.7,39.2 							"/>
							<path class="st5" d="M71.9,41.1c0-0.1,0-0.1,0-0.1l-1-1.4C71,40.4,71.8,40.6,71.9,41.1z"/>
							<path class="st5" d="M72.1,41.6c0.2,0.5,0.5,0.8,0.6,0.9C72.5,42.3,72.1,41.4,72.1,41.6z"/>
							<path class="st5" d="M112.9,79.8l-0.1-0.1C112.8,79.8,112.8,79.8,112.9,79.8z"/>
							<path class="st5" d="M121.8,91.5l0.2,0.1c-1.7-2.2-3.2-4.9-5-7.1l0.1,0.1c-2.1-3-4.2-6-7.3-7.9c-0.8-0.5-1.5-0.9-2.3-1.4
								c-0.8-0.4-1.5-1-2.3-1.4c-1.5-1-3-1.9-4.4-3c0.1,0.1,0.1,0,0.2,0.1c-0.3-0.2-0.6-0.3-1-0.5c-0.1-0.1,0.1,0,0.2,0.1
								c-1.1-1.1-3.7-2.7-4.3-3.4c-0.3-0.2-0.5-0.3-0.4-0.1c-4.4-3.6-9.1-7.6-13.2-11.8c-0.2-0.2-0.2-0.3-0.1-0.3
								c-3.7-3.4-6.9-7.5-9.6-11.9c-0.2-0.1,0.2,0.5-0.1,0.1c0.8,1.5,1.8,2.4,2.6,3.8l-0.2-0.1c0.5,1,0.3,0.1,0.9,1
								c0.2,0.4-0.1,0,0,0.1c1.4,1.8,2.9,3.7,4.5,5.2c0.2,0.5,1.7,1.8,2.2,2.6c0.4,0.4,0.9,0.9,1.1,0.9c2.8,2.9,5.8,5.6,9,8.3
								c3.1,2.6,6.4,5.2,9.7,7.6c1.7,1,3.5,2.2,5.3,3.4c1,0.5,1.8,1.2,2.7,1.8c0.9,0.8,1.6,1.5,2.4,2.3l0,0c1.1,1,2.4,2.7,3.4,4.2
								c0.3,0.3,0.6,0.8,1,1.2c2.8,4.5,5.8,9.1,9.4,13.2c3.6,4.1,7.8,7.8,12.6,10.5c5.4,3.1,11.2,4.9,16.9,5.7s11.5,1,17.5,0.5
								c0,0,0.1,0-0.2,0.1c3.5-0.2,6.6-0.3,9.9-0.8l0,0c2.2-0.3,4.3-0.6,6.5-1c1.1-0.1,2.2-0.3,3.4-0.5l1.3-0.2l1.1-0.2
								c0.1,0,0,0,0,0l-0.1,0.1l-0.2,0.1l-0.3,0.3l-0.8,0.6c-0.8,0.6-1.4,1.3-2.2,1.8c-0.8,0.5-1.5,1.2-2.2,1.7
								c-0.8,0.5-1.5,1.1-2.3,1.6c-4,2.6-8.6,4.8-13.5,6.2c-4.9,1.4-10.2,2.1-15.2,1.9v-0.1c-8.1-0.2-15.6-2.6-23-5.8
								c-3.7-1.8-7.5-3.8-10.9-6.2c-3.6-2.4-6.9-5-9.6-8.2c-0.4-0.5-0.8-1.1-1.2-1.6c-0.3-0.5-0.8-1.2-1.1-1.7
								c-0.8-1.2-1.6-2.4-2.6-3.6c-1.8-2.3-3.8-4.4-5.2-6.4c-3.1-3.8-6.7-7.3-10.7-10.2c-1.9-1.4-4.1-2.7-6.3-3.9
								c-2.2-1.2-4.5-1.8-6.8-2.9c-4.1-2.1-8-4.5-11.5-7.6c-1.7-1.5-3.4-3.1-4.8-4.9c-1.4-1.8-2.6-3.7-3.6-5.7c-1-1.8-1.7-4-2.1-6.3
								c-0.2-2.3,0-4.7,1.1-6.7l-0.1,0.1c0.1-0.2,0.2-0.3,0.3-0.5c0.1-0.2,0.2-0.3,0.3-0.5c0.2-0.3,0.4-0.8,0.8-1.1
								c0.5-0.8,1.1-1.3,1.6-1.4L63.1,42c0.8-0.4,1.4-1.6,2.1-1.6l0.1-0.1c1-0.5,0.1,0,1-0.3c0.3-0.1,0-0.2,0.6-0.4
								c0.1,0.1,0.8-0.1,1.4-0.3c0.6-0.2,1.2-0.4,1.3-0.2c-0.5,0.1,0.9-0.1-0.3,0.3c0.3-0.1,2.1-0.4,1.8-0.6
								c0.1-0.2,0.8-0.5-0.3-0.4l-0.2,0.2c-0.4-0.1-0.3,0-0.4-0.1c-1.4,0.3-1.6,0.2-2.7,0.4l0,0c-0.6,0.4-1.5,0.8-2.1,1h-0.2
								c-0.2,0-0.5,0.3-0.8,0.5c-0.2,0.2-0.4,0.4-0.3,0.1c-1.3,0.9-2.5,1.9-3.5,3.4c-0.2,0.3-0.5,0.6-0.6,1.1L59.4,46
								c-0.2,0.4-0.2,0.9-0.3,1.2l-0.2,0.6l-0.1,0.6c0,0.2,0,0.9,0,1.4s0.1,0.9,0.2,0.4c0,0.2-0.1,0.5-0.1,0.9s0,0.8,0.1,1.2
								c0.1,0.9,0.2,1.7,0.4,2.2c0,0-0.1-0.1-0.1-0.2c0.1,0.9,0.3,1.4,0.5,1.8c0.2,0.4,0.5,0.9,0.6,1.7c0.3,0.1,1.3,2.8,2.2,3.4
								c0.1,0.2,0,0.3,0,0.2c1.6,2.5,3.8,5.1,5.6,6.8c1.7,1.3,3.9,3.5,5.6,4.3c1.2,0.9,3.2,2.4,5.2,3.2l-0.2-0.1
								c1.1,0.5,2.3,1.2,3.5,1.6c1.2,0.4,2.3,0.9,3,1.1c0.2,0.3,0.6,0.5,1.1,0.8c0.4,0.2,0.9,0.5,1.3,0.8c0.8,0.3,1.7,0.9,2.9,1.5
								c1.1,0.6,2.3,1.4,3.2,2.2c0.2,0.3,1.6,1.2,1.6,1.4c5.5,3.9,11.4,10.2,15.3,16.2l-0.1-0.1c0.6,0.8,1.4,1.4,2.1,2.2
								c0,0.1,0,0.1-0.1-0.1c0.6,1.1,1.3,2.3,2.2,3.2c0,0,0,0-0.2-0.1c0.9,0.9,1.6,2.1,2.8,2.9v0.1l0.8,0.5c-0.1,0-0.1,0.1-0.5-0.3
								c4.2,3.9,9.2,7.1,14.4,10c2.6,1.3,5.3,2.5,8.1,3.6c2.8,1,5.6,1.8,8.4,2.5h-0.4c0.8,0.1,1.5,0.3,2.3,0.3c0,0-0.1,0-0.2,0
								c2.8,0.8,6,0.8,8.8,1c0,0-0.4,0.1,0,0.1c2.1-0.2,3.4,0.3,4.4-0.2c0.1,0,0.2,0.1,0,0.1c0.8-0.1,1.5-0.1,2.2-0.2l2.2-0.3
								c1.5-0.2,2.9-0.5,4.3-0.9c1.4-0.3,2.9-0.8,4.3-1.2c1.4-0.5,2.8-1,4.1-1.6c4.3-2.3,9.2-5,12.9-8.4v0.1
								c0.9-0.9,2.3-2.1,3.1-2.9c-2.9,0.6-5.5,1.1-8.2,1.4c-2.7,0.3-5.4,0.6-8.1,0.9c-2.8,0.2-4.8,0.4-7.6,0.5l-0.1-0.1
								c-4.8,0.4-10.1-0.3-14.9-0.6l0.3-0.1c-0.8,0.1-2.9-0.4-2.7-0.1c-0.3-0.1-0.5-0.2-0.9-0.2c-0.9-0.1-1.6-0.2-2.5-0.3l-1.2-0.2
								c-0.4-0.1-0.8-0.2-1.2-0.3c-1.5-0.5-3.2-1.1-5.2-1.7h0.3c-1.1-0.3-2.3-0.8-2.9-1.3c0.1,0,0.1,0,0.3,0.1
								c-2.9-1.7-6.4-3.6-9.2-6l0.4,0.1c-0.8-0.4-1.6-1.3-2.6-2.2s-1.8-1.9-2.7-2.7l0.1,0.1c-0.3-0.2-0.5-0.5-0.9-0.9l0.1-0.1
								C125.3,96.1,123.5,93.8,121.8,91.5z"/>
							<path class="st5" d="M100.5,70.4L100.5,70.4C100.6,70.5,100.5,70.4,100.5,70.4z"/>
							<path class="st5" d="M67.1,38.9c0.1,0,0.2-0.1,0.3-0.1C67.4,38.8,67.2,38.9,67.1,38.9z"/>
						</g>
					</g>
				</g>
			</g>
		</g>
		<g>
			<path class="st7" d="M71,38.4c0,0,8.6-16,28.1-23.5s12.9,6.3,14.6,11.7c1.7,5.4,8,20.6,33.5,17.2c0,0,11.7,39.5,15.5,42.3
				c0,0-16.4,7.1-17.4,12.3c0,0-10.2,1.8-21.6-4.4c0,0-14.6-20.1-26.3-26.2C85.6,61.8,73.1,44.7,71,38.4z"/>
			<g>
				<g>
					<g>
						<g>
							<polygon class="st5" points="70.4,38.7 70.4,38.8 70.6,39.1 							"/>
							<path class="st5" d="M71.4,40.6c0-0.1,0,0,0-0.1c-0.3-0.3-0.5-0.6-0.9-1.1C70.7,40.1,71.4,40.2,71.4,40.6z"/>
							<path class="st5" d="M71.6,40.9c0.1,0.5,0.4,0.6,0.5,0.6C71.9,41.6,71.7,40.8,71.6,40.9z"/>
							<path class="st5" d="M102.4,71.8l-0.1-0.1C102.3,71.7,102.3,71.7,102.4,71.8z"/>
							<path class="st5" d="M111.1,79h0.2c-0.9-0.6-1.6-1.5-2.4-2.4c-0.9-0.8-1.6-1.6-2.5-2.4l0.1,0.1c-2.2-1.9-4.3-3.7-6.6-5.1
								c-2.4-1.4-4.9-2.6-7.1-4.2c0.1,0,0.1,0,0.2,0.1c-0.2-0.1-0.5-0.2-0.8-0.4c0-0.1,0.1,0,0.2,0.1c-0.4-0.4-1.2-1-1.8-1.4
								c-0.6-0.5-1.3-1-1.5-1.3c-0.3-0.2-0.4-0.2-0.3-0.1c-3.4-2.9-6.6-6.4-9.6-9.9C79,52,79,52,79.1,52c-2.7-2.8-5-6.3-6.8-9.9
								c-0.1-0.1,0.1,0.4-0.1,0.1c0.5,1.2,1.4,1.9,1.8,3l-0.1-0.1c0.4,0.8,0.2,0,0.6,0.9c0.1,0.3-0.1,0,0,0.1c0.5,0.8,1,1.5,1.5,2.3
								c0.5,0.8,1.1,1.4,1.7,2.1c0.1,0.4,1.2,1.5,1.5,2.2c0.3,0.3,0.6,0.6,0.9,0.8c4,4.9,8.6,9.4,14,13.1c1.3,0.8,2.8,1.5,4.2,2.4
								c0.8,0.4,1.4,0.9,2.2,1.4c0.8,0.5,1.4,1,2.2,1.5l0,0c0.4,0.3,1.1,0.8,1.6,1.2c0.5,0.4,1.2,1,1.6,1.4c0.3,0.2,0.6,0.4,1,0.6
								c5.8,5.8,11.6,12.2,16.6,19.1l0.2,0.2c0.1,0.1,0.2,0.1,0.3,0.2l0.4,0.2l0.8,0.4c0.5,0.3,1.1,0.5,1.6,0.8
								c1.1,0.5,2.2,0.9,3.2,1.3c2.2,0.8,4.4,1.3,6.7,1.6c2.3,0.3,4.5,0.4,6.8,0.3c0.3,0,0.5,0,0.9-0.1h0.4l0.5-0.1l0.3-0.1h0.2
								v-0.1l0.2-0.6c0.1-0.2,0.2-0.4,0.3-0.6c0.5-1,1.3-1.7,2.2-2.6c0,0,0.1,0-0.1,0.2c1.9-1.8,4.1-3,6.3-4.3l0,0
								c1.3-0.9,2.6-1.6,4-2.3c0.6-0.3,1.4-0.8,2.1-1.1l2.4-1.2c-0.2-0.2-0.4-0.4-0.5-0.6c-0.1-0.1-0.2-0.2-0.2-0.3
								c-0.1-0.1-0.1-0.1-0.2-0.2c-0.2-0.3-0.4-0.6-0.6-1.1c-0.4-0.8-0.8-1.5-1.1-2.3c-0.6-1.5-1.3-3-1.9-4.4
								c-2.6-6.9-5.3-14.9-7.7-22.3h0.1c-0.6-1.8-1.2-3.7-1.7-5.6c-0.5-1.9-1.1-3.8-1.6-5.7c-1.2,0.1-2.4,0.2-3.6,0.3
								c-1.2,0.1-2.3,0.1-3.5,0.1c-3.2,0-6.5-0.3-9.7-1.1c-0.8-0.2-1.6-0.4-2.4-0.6l-2.3-1c-0.8-0.4-1.4-0.9-2.2-1.2
								c-0.6-0.4-1.3-1-1.9-1.4c-1.4-1.4-3.1-2.9-4.5-4.8c-1.4-1.8-2.5-3.9-2.9-5.7c-0.2-1-0.5-1.8-0.6-2.8c-0.1-1,0-1.9,0-2.8
								c0.1-1.9,0.2-3.9-0.1-5.7c-0.2-1-0.5-1.9-1.3-2.6c-0.6-0.8-1.6-1.1-2.6-1.2c-1.9-0.2-3.9,0.2-5.7,0.8
								c-3.5,0.9-6.8,2.3-10,3.9c-1.6,0.8-3,1.7-4.5,2.6c-1.4,1-2.9,1.8-4.3,2.9c-2.5,2.2-5.5,4.2-7.9,7h0.1
								c-1.1,0.8-1.6,2.5-2.5,2.8l0.1-0.1c-0.5,0.4-0.6,1.5-1.1,1.7v0.1c-0.4,0.6-0.1,0-0.5,0.5c-0.1,0.2,0.1,0.2-0.2,0.5
								c-0.4-0.1-1.1,1.7-1.5,1.6c0.2-0.4-0.5,0.5-0.1-0.4c-0.2,0.2-0.9,1.5-0.6,1.4c0.1,0.2,0,0.8,0.5,0.1v-0.2
								c0.2-0.2,0.2-0.1,0.3-0.2c0.5-1,0.9-1,1.4-1.5l0,0c0.1-0.5,0.6-1.1,1-1.4l0.2-0.1c0.3-0.1,0.5-1.2,0.5-0.8
								c1.3-1.8,3-3.8,4.8-5.6c0.1-0.3,1.4-1.3,0.9-1.1c0.6-0.2,2.1-1.5,2.6-1.9c0,0,0,0.1-0.1,0.1c1.2-0.6,1-1.3,2.3-1.7
								c0-0.3,1.8-1.3,2.3-1.9c0.2,0,0.2,0,0.2,0c1.8-1.3,4.1-2.5,5.7-3.4c0.6-0.4,1.6-0.9,2.5-1.3s1.7-0.8,2.4-1.2
								c1.1-0.4,2.9-1,4.4-1.5l-0.1,0.1c1.7-0.5,4-1.1,5.2-1.3c0.3,0.1,0.5,0.2,1,0.2c0.3,0.1,0.8,0.1,1.1,0.2
								c0.5,0,1.4,0.2,1.9,0.9c0.6,0.5,1.1,1.5,1.3,2.4c-0.1,0.3,0.2,1.5,0,1.6c0.2,1.3,0.1,2.7,0.1,4.1c0,1.4,0,3,0.5,4.5
								c0.9,2.9,2.3,5.7,4,8.1l-0.1-0.1c0.5,0.5,1.3,1,1.9,1.5c0,0.1,0,0.1-0.1,0c0.3,0.4,0.6,0.8,1.1,1.1c0.3,0.3,0.6,0.8,1.1,1.1
								c0,0,0,0-0.2-0.1c0.4,0.3,0.9,0.5,1.2,1c0.4,0.3,0.9,0.8,1.4,0.9V41l0.6,0.3c0,0-0.1,0.1-0.4-0.1c3.4,2.1,7.4,3.1,11.3,3.6
								l3,0.2c1,0,1.9,0,3-0.1c0.5,0,1,0,1.5,0l1.5-0.1l2.7-0.3l1,3.4l-0.1-0.3l0.6,1.6l-0.1-0.1c0.5,2.2,1.4,4.3,2.1,6.5
								c0,0-0.2-0.3-0.1,0c0.6,1.5,0.5,2.6,1.2,3.2c0,0.1-0.1,0.1-0.1,0c1.5,4.3,2.9,8.7,4.4,13.1c1.6,3.5,2.8,7.6,4.7,11h-0.1
								c0.3,0.6,0.6,1.2,1,1.8c0.4,0.5,0.8,1.2,1.2,1.6c-0.8,0.3-1.6,0.8-2.5,1.2c-0.9,0.4-1.7,0.9-2.6,1.3
								c-1.7,0.9-3.5,1.8-5.1,2.9c-1.8,1.2-3,2.1-4.8,3.6h-0.1c-0.6,0.6-1.3,1.4-1.8,2.3c-0.1,0.2-0.2,0.4-0.3,0.6l-0.1,0.3
								c0,0,0,0.1-0.1,0.1h-0.2c-0.4,0-1,0.1-1.4,0.1c-1.9,0-3.9-0.1-5.8-0.1l0.3-0.1c-0.6,0.1-2.3-0.4-2.2,0
								c-0.2-0.1-0.4-0.1-0.6-0.2c-2.7-0.1-4.7-1.2-7.7-2.2h0.2c-0.8-0.3-1.7-0.6-2.3-1c0.1,0,0.1,0,0.2,0.1c-0.5-0.3-1.2-0.8-1.7-1
								c-0.3-0.5-0.9-1.1-1.3-1.6c-0.9-1.1-1.8-2.3-2.8-3.4l0.3,0.2c-1-1-2.5-3-3.7-4.3h0.1l-0.6-0.6l0.1-0.1
								C114.3,82.3,112.7,80.8,111.1,79z"/>
							<path class="st5" d="M73.2,36.2c-0.1,0.1-0.1,0.1-0.2,0.2C73.1,36.4,73.1,36.3,73.2,36.2z"/>
						</g>
					</g>
				</g>
			</g>
		</g>
		<g>
			<path class="st2" d="M89.6,19.6c0,0,20.1,22.2-2.9,40.9c0,0-15.7-12.5-15.7-22.2C71,38.4,82.7,23.3,89.6,19.6z"/>
			<g>
				<g>
					<g>
						<g>
							<polygon class="st5" points="89.3,19 89.2,18.9 89.2,19.2 							"/>
							<path class="st5" d="M88.7,19.7C88.7,19.7,88.8,19.7,88.7,19.7l0.3-0.5C88.8,19.2,88.9,19.7,88.7,19.7z"/>
							<path class="st5" d="M88.6,19.7c-0.2,0-0.2,0.2-0.2,0.2C88.3,19.8,88.7,19.8,88.6,19.7z"/>
							<path class="st5" d="M74.3,34.5l0.1,0.1c0.3-0.8,1.1-1.3,1.5-1.9v0.1c1.4-1.6,2.6-3.1,4-4.8v0.1c0-0.1,0.1-0.2,0.1-0.3v0.1
								c0.4-0.2,0.8-1.1,1.1-1.1c0.1-0.1,0-0.2,0-0.2c1.1-1.2,2.4-2.5,3.6-3.7c0.1,0,0.1,0,0.1,0.1c0.9-1.2,2.2-2.1,3.5-2.8
								c0-0.1-0.2,0-0.1-0.1c-0.4,0.2-0.6,0.6-1.1,0.9v-0.1c-0.3,0.1,0.1,0.2-0.2,0.3c-0.1,0,0-0.1-0.1-0.1
								c-0.5,0.4-1.1,0.9-1.5,1.4c-0.2,0-0.5,0.4-0.9,0.5c-0.1,0.2-0.2,0.3-0.2,0.4c-1.8,1.5-3.4,3.4-5,5.1
								c-0.5,1.1-1.7,1.7-2.5,2.8l0,0c-0.2,0.4-0.6,0.9-1,1.2L75.4,33c-1.1,1.1-2.2,2.3-3.1,3.5l-1.5,1.8c-0.3,0.2-0.1,0.5-0.1,0.8
								v0.6c0,0.4,0,0.9,0.1,1.2c0.8,3.6,2.3,6.6,4.8,9.1c0,0,0,0-0.1,0c0.6,0.8,1.2,1.5,1.8,2.3l0,0c1.7,1.6,3.2,3.7,5.1,5
								c1,1,2.1,1.9,3.2,2.9l1,0.8c0,0,0.1,0.1,0.1,0l0.1-0.1l0.2-0.2l0.4-0.4c0.5-0.5,1.1-1,1.6-1.5l0,0c1.6-1.7,3.4-3.2,4.5-5.2
								c1.5-1.9,2.2-4.4,3-6.7c0.8-1.4,0.4-3.5,0.9-4.8c0.8-2.8,0.1-5.7-0.9-8.4c-0.5-2.6-1.9-4.9-2.8-7.4c-0.8-1-1-2.4-1.8-3.5v0.1
								c-0.1-0.5-0.9-0.6-0.8-1.2l0,0c0-0.3-0.8-0.2-0.6-0.4h-0.1c-0.2-0.2,0.1-0.1,0-0.3c-0.1-0.1-0.1,0.1-0.2-0.1
								c0.3-0.3-0.5-0.5-0.2-0.9c0.1,0.1,0-0.3,0.3-0.1c0-0.1-0.4-0.5-0.5-0.3c-0.2,0.1-0.4,0.1-0.3,0.4h0.1c0,0.2,0,0.1-0.1,0.2
								c0.2,0.3,0.1,0.5,0.2,0.8l0,0c0.2,0,0.3,0.3,0.4,0.4v0.1c-0.1,0.2,0.5,0.2,0.2,0.2c0.5,0.6,1.1,1.4,1.6,2.2
								c0.1,0,0.3,0.6,0.4,0.3c-0.1,0.3,0.2,1,0.3,1.2c0,0,0,0-0.1,0c0,0.5,0.5,0.3,0.4,1c0.3-0.1,0.3,0.8,0.8,0.9
								c0,0.1-0.1,0.1-0.1,0.1c0.3,0.8,0.6,1.6,1,2.3c0.4,0.4,0.4,1.4,0.9,1.7c0.1,0.4,0.1,1.1,0.4,1.6h-0.1
								c0.2,0.6,0.4,1.5,0.8,1.8c-0.2,0.2-0.1,0.5-0.2,0.9c0.2,0.4,0.3,1.3,0.5,1.9c-0.1,0.1,0.1,0.5-0.1,0.6
								c0.5,1.8,0.3,4.3-0.4,6.3l0,0c0,0.3,0.2,0.6,0.3,1c0,0-0.1,0,0,0c-0.1,0.4-0.3,0.6-0.4,1.1c0,0,0,0,0-0.1
								c0,0.3-0.4,0.6-0.3,1.1h-0.1v0.3c-0.1,0-0.1-0.1-0.1-0.2c-1.2,3-2.7,6.1-5,8.6v-0.1l-0.3,0.5v-0.1c-0.6,0.5-1.1,1.3-1.7,1.8
								c0,0,0-0.1-0.1-0.1c-0.3,0.5-0.9,0.4-0.9,1c0,0-0.1,0-0.1-0.1L86.8,60c-0.1,0.1-0.1,0.2-0.2,0.2L86.4,60
								c-0.6-0.5-1.3-1.1-1.9-1.7c-1.3-0.6-2.3-1.9-3.5-2.8h0.1c-1.5-1.2-2.7-2.8-4-4.3c-0.4-0.6-0.9-1-1.4-1.7l0.1-0.1
								c-1.1-0.9-1.4-2.5-2.4-3.6h0.1c-0.2-0.1-0.3-0.8-0.5-0.5v-0.2c-0.9-0.6-0.5-1.7-1.3-2.7h0.1c-0.1-0.3-0.3-0.6-0.3-0.9
								c0,0,0,0,0.1,0.1c0-0.5-0.2-1-0.2-1.5l-0.1-0.8l-0.1-0.4c0-0.1-0.1-0.2,0-0.3c0,0,0,0.1,0.1,0.1c0-0.2,0.3-0.5,0.5-0.8
								c0.2-0.3,0.5-0.6,0.6-0.9V37l0.1-0.3l0.1,0.1C73.3,35.9,73.7,35.2,74.3,34.5z"/>
						</g>
					</g>
				</g>
			</g>
		</g>
		<g>
			<g>
				<g>
					<g>
						<g>
							<polygon class="st5" points="97.4,46.3 97.4,46.4 97.7,46.4 							"/>
							<path class="st5" d="M98.2,46.7C98.2,46.6,98.2,46.6,98.2,46.7l-0.5-0.1C97.7,46.8,98.1,46.4,98.2,46.7z"/>
							<path class="st5" d="M98.2,46.7c0.1,0.1,0.2,0.1,0.3,0C98.4,46.8,98.3,46.6,98.2,46.7z"/>
							<path class="st5" d="M113.9,52.8v-0.1c-0.6,0.2-1.4-0.2-2.1-0.2l0,0c-1.7-0.4-3.2-0.6-4.9-1.3c0,0,0,0,0.1,0
								c-0.1,0-0.2,0-0.3,0c0,0,0,0,0.1,0c-0.2-0.3-1.1-0.3-1.2-0.5c-0.1,0-0.2,0-0.1,0.1c-1.3-0.5-2.6-1.2-3.9-1.7
								c0-0.1,0-0.1,0-0.1c-1.2-0.3-2.2-1.1-3.1-1.8c-0.1,0,0,0.1-0.1,0.1c0.2,0.3,0.8,0.2,0.9,0.5h-0.1c0.2,0.2,0.1-0.1,0.3,0.1
								c0,0.1-0.1,0.1,0,0.1c0.4,0.3,1,0.6,1.5,0.8c0,0.2,0.5,0.3,0.5,0.5c0.1,0,0.3,0.1,0.4,0c1.6,1.1,3.5,1.7,5.3,2.5
								c1,0,1.8,0.8,3,1l0,0c0.3,0,0.9,0.1,1.3,0.2l0.4-0.1c0.6,0.2,1.3,0.3,1.9,0.4c0.6,0.1,1.3,0.1,1.9,0.1c1.3,0,2.6-0.1,3.9,0
								c2.9,0.1,5.3,0.8,7.6,2.2c0,0,0,0-0.1,0c0.3,0.2,0.5,0.5,0.8,0.9c0.2,0.3,0.4,0.6,0.6,0.9l0,0c1.2,1.5,1.5,3.6,2.2,5.3
								c0.4,2.2,0.8,4.8,1,7.1h-0.1c0.2,1.9-0.1,3.8,0,5.6c-0.1,1.9,0.4,4,0.3,6.1c-0.3,1.3,0.5,2.8,0.4,4c-0.2,2.4,0.8,4.8,2.3,6.6
								c0.4,1,1.2,1.8,2.1,2.5c0.8,0.8,1.6,1.3,2.5,1.9c1,0.3,1.7,1.2,2.8,1.5v-0.1c0.3,0.4,1-0.1,1.1,0.3l0,0
								c0.1,0.2,0.5-0.3,0.6,0l0.1-0.1c0.2,0,0,0.1,0.2,0.2c0.1,0,0.1-0.2,0.2-0.1c0,0.4,0.6,0,0.5,0.4c-0.1,0,0.2,0.2-0.1,0.2
								c0.1,0.1,0.5,0.1,0.5-0.1c0.1-0.2,0.2-0.3,0-0.5l-0.1,0.1c-0.1-0.1,0-0.1-0.1-0.2c-0.3-0.1-0.3-0.3-0.5-0.4l0,0
								c-0.2,0.1-0.4,0-0.5-0.1v-0.1c0-0.2-0.4,0.2-0.3,0c-0.6-0.1-1.4-0.3-2.2-0.6c-0.1,0.1-0.5-0.2-0.4,0
								c-0.1-0.3-0.5-0.5-0.8-0.6c0,0,0,0,0.1,0c-0.2-0.4-0.5,0-0.8-0.4c-0.2,0.2-0.5-0.4-0.9-0.2c0-0.1,0-0.1,0-0.1
								c-0.5-0.3-1.1-0.9-1.5-1.3c-0.2-0.1-0.4-0.3-0.6-0.5c-0.2-0.2-0.3-0.4-0.6-0.4c-0.2-0.3-0.4-0.9-0.8-1.2h0.1
								c-0.3-0.4-0.6-1-1-1.3c0.2-0.3,0.1-0.4,0.1-0.8c-0.3-0.2-0.5-1-0.8-1.5c0.1-0.1-0.2-0.4,0-0.5c-0.9-1.4-1-3.5-0.8-5.2l0,0
								c-0.1-0.2-0.4-0.4-0.5-0.6l0,0c-0.1-0.3,0.1-0.6,0.1-1c0,0,0,0,0.1,0c-0.1-0.3,0.1-0.6,0-1h0.1l-0.1-0.2c0.1,0,0.2,0,0.1,0.1
								c0-2.7-0.3-5.5-0.3-8.3l0.1,0.1l-0.1-0.5c0,0,0,0,0.1,0c0.1-0.6-0.1-1.4-0.1-2.1c0,0,0.1,0.1,0.1,0c-0.2-0.5,0.2-0.9-0.2-1.1
								h0.1c-0.1-0.6-0.2-1.4-0.3-2.1c-0.1-0.6-0.1-1.4-0.2-2.1c-0.5-1.1-0.4-2.5-1.1-3.6h0.1c-0.6-1.4-1.1-3-2.1-4.4
								c-0.3-0.5-0.8-0.9-1.3-1.3v-0.1c-0.5-0.2-1-0.6-1.5-1c-0.5-0.4-1.1-0.6-1.7-0.6l0.1-0.1c-0.2,0.1-0.6-0.2-0.6,0.1l-0.2-0.1
								c-0.4,0.1-0.8,0-1.2-0.1c-0.3-0.1-0.8-0.2-1.3-0.1l0.1-0.1c-0.2,0-0.5,0.1-0.8,0c0,0,0,0,0.1,0c-0.9-0.3-1.7,0-2.6,0l0.1-0.1
								c-0.4,0.2-1.2,0.1-1.7,0.1v-0.1l-0.3,0.1v-0.1C115.2,52.8,114.5,52.8,113.9,52.8z"/>
						</g>
					</g>
				</g>
			</g>
		</g>
		<g>
			<path class="st0" d="M124.8,40.8c0,0,6.3-7.8,11.5-8.4c5.2-0.6,7.9,1.7,10.8,11.5C147.1,43.8,130.9,45.7,124.8,40.8z"/>
			<g>
				<g>
					<g>
						<g>
							<polygon class="st5" points="124.4,41.4 124.4,41.5 124.5,41.4 							"/>
							<path class="st5" d="M124.9,41.5C124.9,41.4,124.9,41.4,124.9,41.5h-0.4C124.5,41.7,124.9,41.3,124.9,41.5z"/>
							<path class="st5" d="M124.9,41.5c0,0.1,0.2,0,0.2,0C125.1,41.6,125.1,41.4,124.9,41.5z"/>
							<path class="st5" d="M135.9,44v-0.1c-0.4,0.2-0.9-0.1-1.4,0l0,0c-1.2-0.2-2.3-0.1-3.4-0.2c0,0,0,0,0.1,0
								c-0.1,0-0.1,0.1-0.2,0.1c0,0,0,0,0-0.1c-0.2-0.2-0.8,0-0.9-0.2c-0.1,0-0.1,0.1-0.1,0.1c-0.9-0.1-1.8-0.4-2.8-0.6v-0.1
								c-0.9-0.1-1.6-0.5-2.3-1.1c-0.1,0,0,0.1-0.1,0.1c0.2,0.2,0.5,0.1,0.6,0.3h-0.1c0.1,0.1,0.1-0.1,0.2,0c0,0.1-0.1,0.1,0,0.1
								c0.3,0.1,0.6,0.3,1.1,0.3c0,0.2,0.3,0.2,0.4,0.4c0.1,0,0.2,0,0.3-0.1c1.2,0.5,2.5,0.8,3.8,1c0.6-0.2,1.3,0.3,2.1,0.3l0,0
								c0.2-0.1,0.5,0,0.9,0l0.2-0.1c1.6,0.4,3.5,0.3,5.1,0.4c1.9,0.1,3.7,0.3,5.5-0.3c0,0,0,0,0,0.1c0.3,0,0.5-0.1,0.8-0.1
								c0.3,0,0.8,0,1.1-0.1l0,0l0.3-0.1c0.1,0,0-0.1,0-0.1l-0.1-0.2l-0.2-0.6c-0.2-0.4-0.2-0.6-0.3-1.1c-0.2-0.6-0.4-1.3-0.8-1.7
								c-0.5-1.4-1.2-3-2.2-4.3h0.1c-0.8-1-1.3-2.2-2.5-2.8c-0.5-0.4-1.2-0.6-1.9-0.8c-0.6-0.1-1.3-0.1-2.1-0.1
								c-0.4-0.2-0.9,0-1.3,0.1c-0.4,0.2-0.9,0.3-1.3,0.3c-1.7,0-2.9,1.2-4,2.3c-1.3,0.8-2.1,2.1-3.2,2.7c-0.3,0.6-1.2,0.8-1.6,1.4
								h0.1c-0.3,0-0.1,0.6-0.5,0.5l0,0c-0.2,0,0.1,0.5-0.1,0.4l0.1,0.1c-0.1,0.1-0.1-0.1-0.2,0c0,0,0.1,0.1,0,0.2
								c-0.3-0.2-0.2,0.3-0.5,0.1c0.1-0.1-0.2,0-0.1-0.2c-0.1,0-0.2,0.2-0.1,0.3c0.1,0.1,0.2,0.3,0.4,0.3l-0.1-0.1
								c0.1,0,0.1,0,0.2,0.1c0.1-0.1,0.3,0,0.5-0.1l0,0c-0.1-0.2,0.1-0.2,0.2-0.3h0.1c0.1,0.1-0.1-0.4,0.1-0.2
								c0.2-0.4,0.6-0.8,1-1.2c0-0.1,0.3-0.3,0-0.3c0.2,0.1,0.5-0.1,0.6-0.2l0,0c0.4,0,0-0.4,0.4-0.3c-0.1-0.2,0.4-0.2,0.3-0.5
								c0.1,0,0.1,0,0.1,0.1c0.3-0.3,0.8-0.5,1.1-0.9c0.1-0.4,0.6-0.4,0.6-0.9c0.2-0.1,0.6-0.2,0.8-0.5l0,0c0.3-0.2,0.6-0.5,0.8-0.9
								c0.2,0.2,0.3,0.1,0.5,0.1c0.1-0.2,0.5-0.4,0.9-0.8c0.1,0.1,0.2-0.2,0.3,0c0.8-0.9,2.1-1.2,3.1-1l0,0c0.1-0.1,0.3-0.4,0.4-0.5
								l0,0c0.2-0.1,0.4,0.1,0.6,0.1c0,0,0,0,0,0.1c0.2-0.1,0.4,0.1,0.6,0v0.1l0.1-0.1c0,0.1,0,0.2-0.1,0.1c0.9,0.1,1.6,0.2,2.5,0.5
								c0.8,0.3,1.5,0.9,2.1,1.5h-0.1c0.1,0.1,0.2,0.1,0.3,0.2c0,0,0,0-0.1,0c0.1,0.4,0.6,0.6,0.8,1.1c0,0-0.1,0-0.1,0.1
								c0.3,0.2,0.1,0.5,0.4,0.5l-0.1,0.1c0.5,0.8,1,1.6,1.2,2.5c0.6,0.5,0.6,1.5,1.2,2.2h-0.1c0.3,0.4,0.4,1,0.5,1.5l0.1,0.6
								c0,0.1-0.2,0-0.3,0.1h-0.3c-0.4,0-0.8,0.1-1.2,0.1v-0.1c-0.8,0.4-1.6-0.2-2.4,0.2v-0.1c-0.1,0.2-0.4,0-0.4,0.2l-0.1-0.1
								c-0.5,0.4-1-0.2-1.6,0.1V44c-0.2,0.1-0.3,0.1-0.5,0l0,0c-0.5-0.3-1.2,0-1.7,0l0.1-0.1c-0.3,0.2-0.8,0-1.2,0v-0.1l-0.2,0.1
								v-0.1C136.9,43.8,136.4,44,135.9,44z"/>
							<path class="st5" d="M125.7,40.7C125.7,40.7,125.6,40.7,125.7,40.7C125.7,40.8,125.7,40.7,125.7,40.7z"/>
						</g>
					</g>
				</g>
			</g>
		</g>
		<g>
			<path class="st2" d="M196.4,112.2c0,0,5.2-7.4-5.2-11.7c-10.3-4.3-22-9.2-28.6-14.3c0,0-15.2,7-17.4,12.3c0,0-14.6,1.5-21.6-4.4
				C123.6,94.1,138.5,125.4,196.4,112.2z"/>
			<g>
				<g>
					<g>
						<g>
							<polygon class="st5" points="196.2,111.5 196.1,111.4 196,111.6 							"/>
							<path class="st5" d="M194.9,112C195,112,195,112.1,194.9,112l0.8-0.4C195.3,111.5,195.2,112.1,194.9,112z"/>
							<path class="st5" d="M194.7,112.1c-0.3,0-0.4,0.2-0.4,0.2C194.3,112.1,194.8,112.2,194.7,112.1z"/>
							<path class="st5" d="M160.1,115l-0.1,0.1c1.4,0,2.8,0.3,4.3,0.3h-0.1c3.6,0.2,6.9,0.1,10.5-0.2c-0.1,0-0.1,0-0.1,0.1
								c0.2,0,0.3-0.1,0.5-0.1c0,0,0,0.1-0.1,0.1c0.8,0.2,2.2-0.2,2.7-0.1c0.2,0,0.3-0.1,0.2-0.2c2.8-0.2,5.7-0.6,8.6-1.3
								c0.1,0,0.2,0,0.1,0.1c2.4-0.8,4.9-1,7.4-1.5c0.1-0.1-0.2,0,0-0.2c-0.8,0.1-1.4,0.5-2.2,0.5l0.1-0.1c-0.5,0.1-0.1,0.2-0.6,0.2
								c-0.2,0,0-0.1-0.1-0.1c-1.1,0.2-2.3,0.3-3.2,0.8c-0.3-0.1-1.2,0.2-1.6,0.1c-0.3,0.1-0.5,0.1-0.6,0.3
								c-3.9,0.4-7.9,1.1-11.9,1.2c-1,0.2-1.9,0.2-3,0.2c-1.1-0.1-2.2-0.1-3.4-0.1l0,0c-0.8,0.1-1.8,0-2.7,0c-0.2,0-0.5,0.1-0.8,0.1
								c-5.2-0.6-10.5-1.4-15.6-3c-5.7-1.9-10.3-4.4-15.3-7.7c0,0,0-0.1,0.1,0c-1.4-1-2.5-2.1-3.7-3.1l0,0c-2.4-1.9-4.3-4.5-5.8-7.3
								l-0.3,0.3c0.8,0.5,1.5,1.1,2.4,1.4c4.1,2.3,9.5,3,14.5,2.9v0.1c1,0,1.9,0,2.9-0.1l1.5-0.1h0.4c0.1,0,0.1-0.1,0.1-0.1l0.1-0.2
								l0.4-0.6c1.1-1.5,2.7-2.7,4.2-3.9c3.4-2.3,6.8-4.9,10.5-6.5c0.5-0.2,1.2-0.5,1.8-0.8l0.2-0.1l0.2,0.1l0.4,0.3
								c0.3,0.2,0.6,0.4,0.9,0.5c1.2,0.8,2.5,1.4,3.5,2.2c4,2.9,8.4,4.7,13,6.4c2.1,1,4.1,1.8,6.2,2.6c2.1,0.9,4.1,1.6,6.1,2.7
								c0.4,0.2,1,0.5,1.4,0.8c0.4,0.3,0.9,0.8,1.2,1.1c0.6,0.9,1.3,1.8,1.7,2.9v-0.1c0,0.4,0.2,0.9,0.3,1.2c0.1,0.4,0.2,0.8,0,1.1
								v-0.1c-0.1,0.2,0,0.4,0.1,0.8c0.1,0.2,0.1,0.4,0,0.5l0.1,0.1c-0.1,0.5-0.1,0-0.2,0.4c0,0.1,0.1,0.1,0,0.4
								c-0.3-0.1-0.4,1.3-0.9,1.1c0.1-0.2-0.3,0.3-0.1-0.3c-0.1,0.1-0.5,0.9-0.3,0.9c0.1,0.2,0.1,0.5,0.5,0.2l-0.1-0.2
								c0.2-0.1,0.1-0.1,0.2-0.1c0.3-0.6,0.5-0.6,0.9-1.1l0,0c0-0.4,0.2-0.9,0.3-1.1l0.1-0.1c0.2-0.1-0.2-0.9,0.1-0.6
								c0.2-1.5-0.2-3.4-1.2-4.8c-0.2-0.2-0.8-1-0.8-0.6c0-0.2-0.2-0.6-0.5-1s-0.6-0.5-0.8-0.8h0.1c-0.5-0.9-1.1-0.3-1.5-1.1
								c-0.2,0.1-1.3-0.8-1.8-0.6c-0.1-0.1-0.1-0.2,0-0.2c-1.3-0.6-2.8-1.3-3.9-1.7c-1.1-0.2-2.3-1.1-3.2-1.1
								c-0.6-0.3-1.7-1-2.7-1.3h0.1c-1.1-0.4-2.4-1.1-3.2-1.2c-0.2-0.4-0.6-0.5-1.1-0.9c-0.8-0.2-2.2-0.9-3.4-1.3
								c-0.1-0.2-0.9-0.4-0.9-0.6c-3.1-1.1-6.8-3.2-9.4-5.6l0,0c-0.2-0.1-0.4-0.1-0.8-0.2c-0.2-0.1-0.3-0.1-0.5-0.2
								c-0.2,0.1-0.3,0.2-0.4,0.3c-0.1,0-0.1,0,0.1-0.1c-0.6,0.3-1.3,0.4-1.8,0.8c0,0,0,0,0.1-0.1c-0.5,0.3-1.2,0.4-1.7,0.9h-0.1
								l-0.3,0.3c0-0.1-0.1-0.2,0.2-0.2c-2.5,1.3-5,2.8-7.4,4.4c-1.2,0.9-2.4,1.7-3.5,2.7c-0.5,0.4-1.1,1-1.5,1.5l-0.6,0.9
								c-0.1,0.1-0.2,0.3-0.3,0.5l-0.2,0.3v-0.1c0,0.2-0.2,0.2-0.6,0.3l0.1-0.1c-1.4,0-2.9,0.2-4.2,0.2c0,0,0.2-0.1,0-0.1
								c-1,0.1-1.6-0.3-2.2,0.1c0,0-0.1-0.1,0-0.1c-2.8,0-5.7-0.4-8.4-1.3c-2.1-0.3-4.2-1.5-6-2.8l-0.6-0.5l0.4,0.6
								c0.1,0.2,0.3,0.5,0.5,0.8H124c1.8,2.7,3.9,5.4,6.5,7.6c1,1,1.8,1.5,2.9,2.3v0.1c2.1,1.2,3.9,3,6.3,3.9h-0.2
								c0.4,0,1.3,0.8,1.3,0.4l0.3,0.2c1.6,0.3,2.7,1.4,4.7,1.9h-0.1c0.5,0.1,1.2,0.3,1.5,0.4c-0.1,0,0,0-0.2,0
								c0.8,0.4,1.6,0.6,2.5,0.9c0.9,0.2,1.8,0.4,2.7,0.5l-0.2,0.1c0.9,0,2.4,0.5,3.6,0.6h-0.1h0.5v0.1
								C157.3,114.8,158.7,114.8,160.1,115z"/>
							<path class="st5" d="M197.8,110.7c0,0.1-0.1,0.1-0.1,0.2C197.7,110.9,197.7,110.8,197.8,110.7z"/>
						</g>
					</g>
				</g>
			</g>
		</g>
		<g>
			<path class="st11" d="M136,55.8c0.3,0.5,13.8-3.4,13.8-3.4"/>
			<g>
				<g>
					<g>
						<g>
							<path class="st5" d="M149.6,51.8l-0.1-0.1L149.6,51.8z"/>
							<path class="st5" d="M149.5,52C149.5,52,149.5,52.1,149.5,52v-0.2C149.5,51.5,149.6,52.1,149.5,52z"/>
							<path class="st5" d="M146.9,53.3v0.1c0-0.2,0.2-0.1,0.3-0.2l0,0c0.3,0,0.5-0.3,0.8-0.4c0,0,0,0,0,0.1v-0.1v0.1
								c0.1,0.2,0.1-0.2,0.2,0c0,0,0-0.1,0-0.2c0.2-0.1,0.4-0.2,0.6-0.4v0.1c0.1-0.3,0.3-0.3,0.5-0.3c0-0.1,0-0.1,0-0.2
								c-0.1-0.1-0.1,0.2-0.1,0.1v-0.1c-0.1,0,0,0.2,0,0.1c0-0.1,0-0.1,0-0.1c-0.1,0.1-0.2,0-0.2,0.2c-0.1-0.2-0.1,0-0.2-0.1
								c0,0.1,0,0.1,0,0.2c-0.3,0-0.6,0.2-1,0.3c-0.1,0.3-0.3,0-0.5,0.2l0,0c0,0.1-0.1,0.1-0.2,0.1v0.1c-0.5-0.2-0.9,0.1-1.3,0.1
								c-0.5,0-1-0.1-1.4,0.5c0,0,0,0,0-0.1c-0.1,0.1-0.3,0-0.4,0.1l0,0c-0.2,0.3-0.6,0.1-0.9,0.5c-0.4,0.1-0.8,0.2-1.2,0.4v-0.1
								c-0.3,0.2-0.6,0-1,0.1c-0.3-0.1-0.5,0.5-1,0.4c-0.3-0.3-0.4,0.4-0.6,0.2c-0.5-0.4-0.9,0-1.2,0.4c-0.4-0.1-0.6,0.4-1.1,0.1
								c-0.1,0.2-0.4-0.2-0.5-0.1v0.1c-0.1-0.2-0.1,0.3-0.2,0l0,0c0-0.2-0.1,0.4-0.1,0.2V56v-0.1c0,0,0,0.2,0,0.1
								c0-0.4-0.1,0.1,0-0.3c0,0,0,0,0-0.1c0,0,0,0,0-0.1l0,0l0,0l0,0l0,0v0.1l0,0l0,0l0,0l0,0l0,0l0,0l0,0l0,0v-0.2l0,0
								c0,0,0.1,0,0.1,0.1s0,0.1-0.1,0.2c-0.2,0.1-0.3,0.1-0.4,0.3c0,0,0.1,0,0.1-0.1c-0.1,0.1,0,0.1-0.1,0.1
								c0.1,0.1,0.1,0.1,0.1,0.2c0,0.1,0,0.1,0.1,0.2l0,0c0.1-0.2,0.1-0.1,0.1,0v0.1c0,0.2,0.1-0.3,0.1,0c0.1-0.1,0.3-0.1,0.4-0.1
								c0-0.1,0.1,0,0-0.2c0.1,0.2,0.2,0.3,0.2,0.2l0,0c0.1,0.3,0-0.3,0.2,0.1c0-0.2,0.1,0.1,0.1-0.2c0,0.1,0,0.1,0,0.1
								c0.1,0,0.3,0,0.4,0c0-0.2,0.2,0.1,0.2-0.3c0.1,0.1,0.2,0.2,0.2,0l0,0c0.1,0,0.2-0.1,0.2-0.3c0.1,0.3,0.1,0.2,0.2,0.3
								c0-0.1,0.2-0.1,0.2-0.3c0,0.1,0.1-0.1,0.1,0.1c0.2-0.4,0.5-0.4,0.9-0.2l0,0c0-0.1,0-0.3,0-0.5l0,0c0,0,0.1,0.1,0.2,0.1
								c0,0,0,0,0,0.1c0-0.1,0.1,0.1,0.2,0l0,0v-0.1c0,0.1,0,0.2,0,0.1c0.4,0,0.9-0.5,1.3-0.5v0.1l0.1-0.1c0,0,0,0,0,0.1
								c0.1,0.1,0.2-0.1,0.3-0.1v0.1c0-0.2,0.2,0.2,0.1-0.2v0.1c0.2-0.2,0.4-0.2,0.6-0.2c0.1-0.4,0.4-0.1,0.5-0.4v0.1
								c0.2-0.3,0.5-0.1,0.8-0.2c0.1,0,0.2-0.1,0.3-0.1V54c0.1-0.3,0.4,0.2,0.5-0.2v0.1c0-0.2,0.1,0,0-0.3l0.1,0.1
								c0-0.4,0.3,0.1,0.4-0.2v0.1c0-0.1,0.1-0.1,0.1-0.1s0,0,0,0.1c0.2,0.2,0.3-0.1,0.4-0.1v0.1c0-0.2,0.2-0.1,0.2-0.2v0.1v-0.1
								v0.1C146.7,53.5,146.8,53.4,146.9,53.3z"/>
						</g>
					</g>
				</g>
			</g>
		</g>
		<g>
			<path class="st11" d="M138.3,64.4c0.3,0.5,13.8-3.4,13.8-3.4"/>
			<g>
				<g>
					<g>
						<g>
							<polygon class="st5" points="151.9,60.4 151.8,60.4 151.8,60.5 							"/>
							<path class="st5" d="M151.8,60.7L151.8,60.7v-0.2C151.7,60.3,151.9,60.9,151.8,60.7z"/>
							<path class="st5" d="M149.2,62v0.1c0-0.2,0.2-0.1,0.3-0.2l0,0c0.3,0,0.5-0.3,0.8-0.4c0,0,0,0,0,0.1v-0.1v0.1
								c0.1,0.2,0.1-0.2,0.2,0c0,0,0-0.1,0-0.2c0.2-0.1,0.4-0.2,0.6-0.4v0.1c0.1-0.3,0.3-0.3,0.5-0.3c0-0.1,0-0.1,0-0.2
								c-0.1-0.1-0.1,0.2-0.1,0.1v-0.1c-0.1,0,0,0.2,0,0.1c0-0.1,0-0.1,0-0.1c-0.1,0.1-0.2,0-0.2,0.2c-0.1-0.2-0.1,0-0.2-0.1
								c0,0.1,0,0.1,0,0.2c-0.3,0-0.6,0.2-1,0.3c-0.1,0.3-0.3,0-0.5,0.2l0,0c0,0.1-0.1,0.1-0.2,0.1v0.1c-0.5-0.2-0.9,0.1-1.3,0.1
								c-0.5,0-1-0.1-1.4,0.5c0,0,0,0,0-0.1c-0.1,0.1-0.3,0-0.4,0.1l0,0c-0.2,0.3-0.6,0.1-0.9,0.5c-0.4,0.1-0.8,0.2-1.2,0.4v-0.1
								c-0.3,0.2-0.6,0-1,0.1c-0.3-0.1-0.5,0.5-1,0.4c-0.3-0.3-0.4,0.4-0.6,0.2c-0.5-0.4-0.9,0-1.2,0.4c-0.4-0.1-0.6,0.4-1.1,0.1
								c-0.1,0.2-0.4-0.2-0.5-0.1v0.1c-0.1-0.2-0.1,0.3-0.2,0l0,0c0-0.2-0.1,0.4-0.1,0.2v0.1v-0.1c0,0,0,0.2,0,0.1
								c0-0.4-0.1,0.1,0-0.3c0,0,0,0,0-0.1c0,0,0,0,0-0.1l0,0l0,0l0,0l0,0v0.1l0,0l0,0l0,0l0,0l0,0l0,0l0,0l0,0v-0.2l0,0
								c0,0,0.1,0,0.1,0.1c0,0.1,0,0.1-0.1,0.2c-0.2,0.1-0.3,0.1-0.4,0.3c0,0,0.1,0,0.1-0.1c-0.1,0.1,0,0.1-0.1,0.1
								c0.1,0.1,0.1,0.1,0.1,0.2c0,0.1,0,0.1,0.1,0.2l0,0c0.1-0.2,0.1-0.1,0.1,0v0.1c0,0.2,0.1-0.3,0.1,0c0.1-0.1,0.3-0.1,0.4-0.1
								c0-0.1,0.1,0,0-0.2c0.1,0.2,0.2,0.3,0.2,0.2l0,0c0.1,0.3,0-0.3,0.2,0.1c0-0.2,0.1,0.1,0.1-0.2c0,0.1,0,0.1,0,0.1
								c0.1,0,0.3,0,0.4,0c0-0.2,0.2,0.1,0.2-0.3c0.1,0.1,0.2,0.2,0.2,0l0,0c0.1,0,0.2-0.1,0.2-0.3c0.1,0.3,0.1,0.2,0.2,0.3
								c0-0.1,0.2-0.1,0.2-0.3c0,0.1,0.1-0.1,0.1,0.1c0.2-0.4,0.5-0.4,0.9-0.2l0,0c0-0.1,0-0.3,0-0.5l0,0c0,0,0.1,0.1,0.2,0.1
								c0,0,0,0,0,0.1c0-0.1,0.1,0.1,0.2,0l0,0V64c0,0.1,0,0.2,0,0.1c0.4,0,0.9-0.5,1.3-0.5v0.1l0.1-0.1c0,0,0,0,0,0.1
								c0.1,0.1,0.2-0.1,0.3-0.1v0.1c0-0.2,0.2,0.2,0.1-0.2v0.1c0.2-0.2,0.4-0.2,0.6-0.2c0.1-0.4,0.4-0.1,0.5-0.4V63
								c0.2-0.3,0.5-0.1,0.8-0.2c0.1,0,0.2-0.1,0.3-0.1v0.1c0.1-0.3,0.4,0.2,0.5-0.2v0.1c0-0.2,0.1,0,0-0.3l0.1,0.1
								c0-0.4,0.3,0.1,0.4-0.2v0.1c0-0.1,0.1-0.1,0.1-0.1s0,0,0,0.1c0.2,0.2,0.3-0.1,0.4-0.1v0.1c0-0.2,0.2-0.1,0.2-0.2v0.1v-0.1
								v0.1C149,62.3,149.1,62,149.2,62z"/>
						</g>
					</g>
				</g>
			</g>
		</g>
		<g>
			<path class="st11" d="M141.4,72.7c0.3,0.5,13.8-3.4,13.8-3.4"/>
			<g>
				<g>
					<g>
						<g>
							<path class="st5" d="M154.9,68.9C154.9,68.9,154.9,69,154.9,68.9v-0.2C154.8,68.4,154.9,69,154.9,68.9z"/>
							<path class="st5" d="M154.9,68.9c0-0.1,0,0.1,0,0.1C154.8,68.9,154.9,69,154.9,68.9z"/>
							<path class="st5" d="M152.2,70.2v0.1c0-0.2,0.2-0.1,0.3-0.2l0,0c0.3,0,0.5-0.3,0.8-0.4c0,0,0,0,0,0.1v-0.1v0.1
								c0.1,0.2,0.1-0.2,0.2,0c0,0,0-0.1,0-0.2c0.2-0.1,0.4-0.2,0.6-0.4v0.1c0.1-0.3,0.3-0.3,0.5-0.3c0-0.1,0-0.1,0-0.2
								c-0.1-0.1-0.1,0.2-0.1,0.1v-0.1c-0.1,0,0,0.2,0,0.1s0-0.1,0-0.1c-0.1,0.1-0.2,0-0.2,0.2c-0.1-0.2-0.1,0-0.2-0.1
								c0,0.1,0,0.1,0,0.2c-0.3,0-0.6,0.2-1,0.3c-0.1,0.3-0.3,0-0.5,0.2l0,0c0,0.1-0.1,0.1-0.2,0.1v0.1c-0.5-0.2-0.9,0.1-1.3,0.1
								c-0.5,0-1-0.1-1.4,0.5c0,0,0,0,0-0.1c-0.1,0.1-0.3,0-0.4,0.1l0,0c-0.2,0.3-0.6,0.1-0.9,0.5c-0.4,0.1-0.8,0.2-1.2,0.4v-0.1
								c-0.3,0.2-0.6,0-1,0.1c-0.3-0.1-0.5,0.5-1,0.4c-0.3-0.3-0.4,0.4-0.6,0.2c-0.5-0.4-0.9,0-1.2,0.4c-0.4-0.1-0.6,0.4-1.1,0.1
								c-0.1,0.2-0.4-0.2-0.5-0.1v0.1c-0.1-0.2-0.1,0.3-0.2,0l0,0c0-0.2-0.1,0.4-0.1,0.2v0.1v-0.1c0,0,0,0.2,0,0.1
								c0-0.4-0.1,0.1,0-0.3c0,0,0,0,0-0.1c0,0,0,0,0-0.1l0,0l0,0l0,0l0,0v0.1l0,0l0,0l0,0l0,0l0,0l0,0l0,0l0,0v-0.2l0,0
								c0,0,0.1,0,0.1,0.1s0,0.1-0.1,0.2c-0.2,0.1-0.3,0.1-0.4,0.3c0,0,0.1,0,0.1-0.1c-0.1,0.1,0,0.1-0.1,0.1
								c0.1,0.1,0.1,0.1,0.1,0.2s0,0.1,0.1,0.2l0,0c0.1-0.2,0.1-0.1,0.1,0v0.1c0,0.2,0.1-0.3,0.1,0c0.1-0.1,0.3-0.1,0.4-0.1
								c0-0.1,0.1,0,0-0.2c0.1,0.2,0.2,0.3,0.2,0.2l0,0c0.1,0.3,0-0.3,0.2,0.1c0-0.2,0.1,0.1,0.1-0.2c0,0.1,0,0.1,0,0.1
								c0.1,0,0.3,0,0.4,0c0-0.2,0.2,0.1,0.2-0.3c0.1,0.1,0.2,0.2,0.2,0l0,0c0.1,0,0.2-0.1,0.2-0.3c0.1,0.3,0.1,0.2,0.2,0.3
								c0-0.1,0.2-0.1,0.2-0.3c0,0.1,0.1-0.1,0.1,0.1c0.2-0.4,0.5-0.4,0.9-0.2l0,0c0-0.1,0-0.3,0-0.5l0,0c0,0,0.1,0.1,0.2,0.1
								c0,0,0,0,0,0.1c0-0.1,0.1,0.1,0.2,0l0,0v-0.1c0,0.1,0,0.2,0,0.1c0.4,0,0.9-0.5,1.3-0.5v0.1l0.1-0.1c0,0,0,0,0,0.1
								c0.1,0.1,0.2-0.1,0.3-0.1v0.1c0-0.2,0.2,0.2,0.1-0.2v0.1c0.2-0.2,0.4-0.2,0.6-0.2c0.1-0.4,0.4-0.1,0.5-0.4v0.1
								c0.2-0.3,0.5-0.1,0.8-0.2c0.1,0,0.2-0.1,0.3-0.1v0.1c0.1-0.3,0.4,0.2,0.5-0.2v0.1c0-0.2,0.1,0,0-0.3l0.1,0.1
								c0-0.4,0.3,0.1,0.4-0.2v0.1c0-0.1,0.1-0.1,0.1-0.1s0,0,0,0.1c0.2,0.2,0.3-0.1,0.4-0.1v0.1c0-0.2,0.2-0.1,0.2-0.2v0.1v-0.1
								v0.1C152.1,70.4,152.1,70.3,152.2,70.2z"/>
						</g>
					</g>
				</g>
			</g>
		</g>
		<g>
			<path class="st11" d="M145.2,81.1c0.3,0.5,13.8-3.4,13.8-3.4"/>
			<g>
				<g>
					<g>
						<g>
							<path class="st5" d="M158.7,77.3L158.7,77.3v-0.2C158.6,76.9,158.7,77.4,158.7,77.3z"/>
							<path class="st5" d="M158.7,77.3c0-0.1,0,0.1,0,0.1C158.6,77.3,158.7,77.4,158.7,77.3z"/>
							<path class="st5" d="M156,78.6v0.1c0-0.2,0.2-0.1,0.3-0.2l0,0c0.3,0,0.5-0.3,0.8-0.4c0,0,0,0,0,0.1v-0.1v0.1
								c0.1,0.2,0.1-0.2,0.2,0c0,0,0-0.1,0-0.2c0.2-0.1,0.4-0.2,0.6-0.4v0.1c0.1-0.3,0.3-0.3,0.5-0.3c0-0.1,0-0.1,0-0.2
								c-0.1-0.1-0.1,0.2-0.1,0.1v-0.1c-0.1,0,0,0.2,0,0.1s0-0.1,0-0.1c-0.1,0.1-0.2,0-0.2,0.2c-0.1-0.2-0.1,0-0.2-0.1
								c0,0.1,0,0.1,0,0.2c-0.3,0-0.6,0.2-1,0.3c-0.1,0.3-0.3,0-0.5,0.2l0,0c0,0.1-0.1,0.1-0.2,0.1v0.1c-0.5-0.2-0.9,0.1-1.3,0.1
								c-0.5,0-1-0.1-1.4,0.5c0,0,0,0,0-0.1c-0.1,0.1-0.3,0-0.4,0.1l0,0c-0.2,0.3-0.6,0.1-0.9,0.5c-0.4,0.1-0.8,0.2-1.2,0.4v-0.1
								c-0.3,0.2-0.6,0-1,0.1c-0.3-0.1-0.5,0.5-1,0.4c-0.3-0.3-0.4,0.4-0.6,0.2c-0.5-0.4-0.9,0-1.2,0.4c-0.4-0.1-0.6,0.4-1.1,0.1
								c-0.1,0.2-0.4-0.2-0.5-0.1V81c-0.1-0.2-0.1,0.3-0.2,0l0,0c0-0.2-0.1,0.4-0.1,0.2v0.1v-0.1c0,0,0,0.2,0,0.1
								c0-0.4-0.1,0.1,0-0.3c0,0,0,0,0-0.1c0,0,0,0,0-0.1l0,0l0,0l0,0l0,0v0.1l0,0l0,0l0,0l0,0l0,0l0,0l0,0l0,0v-0.2l0,0
								c0,0,0.1,0,0.1,0.1s0,0.1-0.1,0.2c-0.2,0.1-0.3,0.1-0.4,0.3c0,0,0.1,0,0.1-0.1c-0.1,0.1,0,0.1-0.1,0.1
								c0.1,0.1,0.1,0.1,0.1,0.2s0,0.1,0.1,0.2l0,0c0.1-0.2,0.1-0.1,0.1,0v0.1c0,0.2,0.1-0.3,0.1,0c0.1-0.1,0.3-0.1,0.4-0.1
								c0-0.1,0.1,0,0-0.2c0.1,0.2,0.2,0.3,0.2,0.2l0,0c0.1,0.3,0-0.3,0.2,0.1c0-0.2,0.1,0.1,0.1-0.2c0,0.1,0,0.1,0,0.1
								c0.1,0,0.3,0,0.4,0c0-0.2,0.2,0.1,0.2-0.3c0.1,0.1,0.2,0.2,0.2,0l0,0c0.1,0,0.2-0.1,0.2-0.3c0.1,0.3,0.1,0.2,0.2,0.3
								c0-0.1,0.2-0.1,0.2-0.3c0,0.1,0.1-0.1,0.1,0.1c0.2-0.4,0.5-0.4,0.9-0.2l0,0c0-0.1,0-0.3,0-0.5l0,0c0,0,0.1,0.1,0.2,0.1
								c0,0,0,0,0,0.1c0-0.1,0.1,0.1,0.2,0l0,0v-0.1c0,0.1,0,0.2,0,0.1c0.4,0,0.9-0.5,1.3-0.5v0.1l0.1-0.1c0,0,0,0,0,0.1
								c0.1,0.1,0.2-0.1,0.3-0.1v0.1c0-0.2,0.2,0.2,0.1-0.2v0.1c0.2-0.2,0.4-0.2,0.6-0.2c0.1-0.4,0.4-0.1,0.5-0.4v0.1
								c0.2-0.3,0.5-0.1,0.8-0.2c0.1,0,0.2-0.1,0.3-0.1v0.1c0.1-0.3,0.4,0.2,0.5-0.2v0.1c0-0.2,0.1,0,0-0.3L154,79
								c0-0.4,0.3,0.1,0.4-0.2v0.1c0-0.1,0.1-0.1,0.1-0.1s0,0,0,0.1c0.2,0.2,0.3-0.1,0.4-0.1v0.1c0-0.2,0.2-0.1,0.2-0.2v0.1v-0.1
								v0.1C155.8,78.8,155.9,78.7,156,78.6z"/>
						</g>
					</g>
				</g>
			</g>
		</g>
		<g>
			<path class="st11" d="M83.6,68.1l-1.9,1.9c-0.9,0.9-2.2,0.9-3,0L63.6,55c-0.9-0.9-0.9-2.2,0-3l1.9-1.9c0.9-0.9,2.2-0.9,3,0
				l15.1,15.1C84.4,65.8,84.4,67.2,83.6,68.1z"/>
			<g>
				<g>
					<g>
						<g>
							<path class="st5" d="M84.3,67.9C84.2,68,84.2,67.9,84.3,67.9c0,0.1,0,0.3,0,0.4C84.5,68.4,84.1,68,84.3,67.9z"/>
							<path class="st5" d="M84.3,67.9c0.1-0.1,0-0.2,0-0.2C84.4,67.7,84.2,67.8,84.3,67.9z"/>
							<path class="st5" d="M76.6,58.3L76.6,58.3c0.4,0.2,0.6,0.8,1.1,1.1h-0.1c0.9,1,1.8,1.6,2.8,2.5c0,0,0,0-0.1,0
								c0.1,0,0.2,0,0.2,0.1c0,0,0,0-0.1,0c0,0.3,0.6,0.4,0.6,0.6c0.1,0,0.1,0,0.2-0.1c0.8,0.6,1.5,1.4,2.4,2.1c0,0.1,0,0.1-0.1,0.1
								c0.4,0.2,0.9,0.6,1,1.2c0.1,0.5,0,1.1-0.2,1.6c0.1,0.1,0.1-0.1,0.2,0.1c0.2-0.3,0-0.6,0.1-1h0.1c0.1-0.2-0.2,0-0.1-0.3
								c0.1-0.1,0.1,0,0.1,0c-0.1-0.5-0.2-1.1-0.6-1.4c0-0.1,0-0.2-0.1-0.3c-0.1-0.1-0.2-0.2-0.2-0.3c-0.1,0-0.2-0.1-0.3-0.1
								c-1-1.1-2.1-1.9-3.1-3c-0.8-0.2-1-1.1-1.6-1.6l0,0c-0.2-0.1-0.5-0.3-0.8-0.6l-0.3-0.1c-1.1-1.5-2.6-2.7-3.9-4.2
								c-1.5-1.6-2.6-3.1-4.4-4.3c0,0,0,0,0.1,0c-0.2-0.2-0.4-0.4-0.6-0.6c-0.2-0.2-0.5-0.4-0.8-0.5l0,0c-0.9-0.2-1.7-0.1-2.4,0.3
								c-0.6,0.5-1.1,1.1-1.5,1.6c-0.3,0.3-0.6,0.5-0.9,1c-0.3,0.3-0.4,0.9-0.4,1.3c0,0.4,0.1,1,0.4,1.3s0.6,0.6,1,1l0,0
								c1.1,0.9,1.8,2.2,2.9,3c1,1.2,2.4,1.8,3.2,3c0.4,0.9,1.7,1.2,2.2,2.1c0.9,1.6,2.3,2.6,3.8,3.6c0.5,0.6,1.1,1.2,1.7,1.7
								c0.3,0.2,0.6,0.5,0.9,0.8c0.3,0.2,0.5,0.4,1,0.5c0.3-0.1,0.8,0,1.1-0.1c0.4,0,0.9-0.3,1.1-0.6h-0.1c0.4,0,0.2-0.8,0.6-0.5
								l0,0c0.2,0-0.1-0.5,0.2-0.4v-0.1c0.1-0.1,0.1,0.1,0.2,0c0,0-0.1-0.1,0-0.2c0.3,0.2,0.2-0.4,0.5-0.1c-0.1,0.1,0.2,0,0.1,0.2
								c0.1,0,0.3-0.2,0.1-0.3c-0.1-0.1-0.1-0.3-0.4-0.3l0.1,0.1c-0.1-0.1-0.1,0-0.2-0.1c-0.2,0.2-0.3,0-0.5,0.1l0,0
								c0,0.2-0.1,0.2-0.2,0.3h-0.1c-0.1-0.1,0,0.4-0.1,0.2c-0.3,0.4-0.8,0.9-1.1,1.2c0,0.1-0.3,0.2-0.1,0.3c-0.2-0.1-0.5-0.1-0.6,0
								l0,0c-0.2-0.2-0.2,0.3-0.4-0.1c-0.1,0.3-0.3-0.1-0.5,0.1c0-0.1,0-0.1,0-0.1c-0.2-0.1-0.3-0.2-0.4-0.3
								c-0.2-0.2-0.3-0.4-0.4-0.5c-0.4-0.1-0.5-0.8-1-0.8c-0.1-0.2-0.3-0.6-0.8-0.9l0,0c-0.3-0.3-0.6-0.6-1.1-0.8
								c0.1-0.3,0-0.4-0.1-0.5c-0.3-0.1-0.6-0.5-1.1-0.8c0.1-0.1-0.3-0.2-0.1-0.3c-1.1-0.5-2.1-1.7-2.8-2.8l0,0c-0.2,0-0.5,0-0.8,0
								l0,0c-0.2-0.1-0.2-0.4-0.4-0.5c0,0,0,0,0.1,0c-0.2-0.1-0.2-0.4-0.5-0.5l0,0l-0.2-0.1c0,0,0.1-0.1,0.2,0
								c-1.4-1.5-3.1-2.7-4.5-4.2h0.1l-0.3-0.2c0,0,0,0,0.1,0c-0.3-0.4-0.8-0.6-1.1-1.1c0,0,0.1,0,0.1-0.1c-0.4-0.1-0.2-0.5-0.6-0.4
								l0.1-0.1c-0.8-0.4-1-1.6-0.3-2.3c0-0.3,0.4-0.8,0.8-1.1c0.3-0.3,0.6-0.6,0.9-1.1l0,0c0.3-0.5,0.8-0.9,1.4-1
								c0.5-0.1,1.2,0.1,1.6,0.4c0.3,0.3,0.6,0.5,1,0.9v0.1c0.9,0.3,1.1,1.5,1.9,1.8H71c0.2,0,0.3,0.4,0.5,0.1v0.2
								c0.8,0.1,0.6,0.9,1.3,1.2h-0.1c0.2,0.1,0.3,0.2,0.4,0.3c0,0,0,0-0.1,0c0.2,0.6,1,0.9,1.4,1.3h-0.1c0.3,0.1,0.6,0.6,1,0.9
								h-0.1l0.2,0.1l-0.1,0.1C75.9,57.6,76.3,57.9,76.6,58.3z"/>
						</g>
					</g>
				</g>
			</g>
		</g>
	</g>
	<g>
		<g>
			<path class="st0" d="M11.6,139.6c0,0-3.9,13,7.1,16.4s25.2-3.2,34.3-11.6c9.1-8.3,25.8-13.8,36.4-14.7s57.5-24.7,42.5-71.7
				c0,0-7.7,33.7-24.8,47.8s-36.7,9.5-45.2,15.7C53.5,127.6,27,140.2,11.6,139.6z"/>
			<g>
				<g>
					<g>
						<g>
							<polygon class="st5" points="11.6,140.2 11.7,140.3 12.1,140.2 							"/>
							<path class="st5" d="M14.4,140c-0.1,0,0,0-0.1-0.1l-1.6,0.3C13.4,140.5,13.9,139.9,14.4,140z"/>
							<path class="st5" d="M14.9,140c0.6,0,0.9-0.2,1.1-0.2C15.7,139.9,14.7,139.9,14.9,140z"/>
							<path class="st5" d="M66.9,119.4c-0.1,0-0.1,0-0.2,0.1C66.9,119.6,66.9,119.4,66.9,119.4z"/>
							<path class="st5" d="M81.2,116.3l0.1-0.1c-2.7,0.6-5.7,0.9-8.7,1.4l0.2-0.1c-3.6,0.5-7.1,1.3-10.3,3.1
								c-0.8,0.4-1.5,1-2.2,1.5c-0.8,0.5-1.5,1-2.3,1.4c-1.5,1-3,1.8-4.7,2.7c0.1-0.1,0.1-0.1,0.2-0.2c-0.3,0.2-0.6,0.4-1,0.6
								c-0.1,0,0.1-0.1,0.2-0.2c-1.4,0.5-4,2.2-4.9,2.5c-0.4,0.2-0.5,0.3-0.3,0.3c-5.1,2.5-10.7,4.9-16.2,6.9
								c-0.3,0.1-0.3,0-0.3-0.1c-4.7,1.8-9.7,3.1-14.9,3.6c-0.2,0.1,0.5,0,0,0.2c1.6,0,2.9-0.6,4.4-0.6l-0.2,0.1
								c1.1-0.1,0.2-0.2,1.3-0.3c0.4,0-0.1,0.1,0.1,0.1c2.3-0.5,4.7-1.1,6.6-1.8c0.5,0,2.4-0.8,3.2-0.9c0.5-0.2,1.1-0.4,1.3-0.6
								c3.8-1.3,7.6-2.8,11.4-4.5c3.7-1.7,7.4-3.6,11-5.5c1.6-1.1,3.5-2.2,5.3-3.4c1-0.6,1.8-1.2,2.8-1.7c1-0.4,2.1-0.9,3.1-1.2l0,0
								c1.4-0.5,3.5-1,5.2-1.3c0.4-0.1,1-0.2,1.4-0.4c5.3-0.6,10.7-1.4,15.9-2.9c5.3-1.5,10.4-3.7,14.8-6.8c5.2-3.6,9.1-8,12.3-12.8
								c3.2-4.8,5.8-10,8-15.6c0,0,0.1-0.1,0,0.2c1.3-3.2,2.6-6.2,3.6-9.2l0,0c0.6-2.1,1.3-4.2,1.9-6.3c0.3-1.1,0.6-2.2,1-3.2
								l0.3-1.3l0.3-1.1c0-0.1,0,0,0,0v0.1l0.1,0.2l0.1,0.4l0.2,1c0.3,1,0.5,1.8,0.8,2.8c0.2,1,0.4,1.8,0.6,2.7
								c0.2,0.9,0.3,1.8,0.4,2.7c0.6,4.7,0.6,9.9-0.2,14.8c-0.9,5.1-2.5,10.1-4.8,14.5l0,0c-3.6,7.3-9.1,13-15.2,18.2
								c-3.2,2.6-6.6,5.1-10.3,7.3s-7.5,4.1-11.6,5.2c-0.6,0.1-1.3,0.2-1.9,0.3s-1.4,0.2-2.1,0.2c-1.4,0.2-2.9,0.4-4.3,0.8
								c-2.9,0.6-5.6,1.5-8,2.1c-4.9,1.2-9.4,3-13.8,5.4c-2.2,1.2-4.2,2.5-6.2,4c-1.9,1.5-3.7,3.4-5.5,5c-3.7,2.8-7.6,5.3-11.7,7.1
								c-2.1,1-4.2,1.6-6.5,2.3c-2.2,0.5-4.4,0.8-6.7,0.8c-2.1,0.1-4.3-0.1-6.5-0.9c-2.2-0.8-4.2-1.9-5.6-3.8v0.2
								c-0.1-0.2-0.2-0.3-0.3-0.5c-0.1-0.2-0.2-0.3-0.3-0.5c-0.2-0.3-0.5-0.8-0.6-1.1c-0.4-0.8-0.6-1.5-0.6-2.1l0.1,0.2
								c0-0.9-0.9-1.9-0.6-2.5l-0.1-0.1c-0.1-1.1,0.1-0.1,0.1-1c0-0.3-0.2-0.1-0.1-0.8c0.2-0.1,0.2-0.8,0.3-1.4
								c0.1-0.6,0.1-1.3,0.4-1.3c-0.1,0.5,0.3-0.9,0.2,0.4c0.1-0.3,0.4-2.1,0.2-1.9c-0.1-0.2-0.1-1-0.5,0.1l0.1,0.2
								c-0.2,0.3-0.1,0.2-0.2,0.3c-0.3,1.4-0.5,1.6-0.8,2.6l0,0c0.1,0.8,0,1.7,0,2.3l-0.1,0.2c-0.1,0.2,0,0.6,0.1,0.9
								c0.1,0.3,0.2,0.5,0,0.3c0.2,1.5,0.6,3.1,1.5,4.5c0.2,0.3,0.4,0.8,0.6,1.1l0.9,1c0.3,0.3,0.6,0.5,1,0.9l0.5,0.4l0.5,0.3
								c0.2,0.1,0.8,0.4,1.2,0.6c0.4,0.2,0.8,0.3,0.5,0c0.2,0.1,0.4,0.3,0.8,0.4c0.3,0.2,0.8,0.3,1.1,0.4c0.8,0.2,1.6,0.5,2.1,0.5
								c0,0-0.1,0-0.2,0c0.9,0.3,1.4,0.3,1.9,0.3s1-0.1,1.8,0.1c0.2-0.2,3,0,4-0.5c0.2,0,0.3,0.1,0.2,0.1c3-0.4,6.2-1.3,8.6-2.2
								c1.9-1,4.9-2.1,6.3-3.2c1.4-0.8,3.6-1.9,5.2-3.4l-0.1,0.1c1-0.8,2.1-1.6,3-2.4c1-0.9,1.7-1.7,2.3-2.3
								c0.3-0.1,0.8-0.3,1.1-0.6c0.4-0.2,0.8-0.5,1.2-0.9c0.5-0.5,1.5-1.2,2.6-1.9c1.1-0.6,2.3-1.4,3.4-2.1c0.4-0.1,1.7-1,1.9-0.9
								c5.8-3.4,14.1-6,21.2-6.8h-0.1c0.9-0.2,1.9-0.6,2.9-1c0.1,0,0.1,0-0.1,0.1c1.3-0.2,2.6-0.1,3.9-0.5c0,0,0,0-0.2,0.1
								c1.2-0.4,2.6-0.5,3.9-1.3h0.1l0.9-0.4c0,0.1,0,0.2-0.4,0.3c5.4-2.2,10.4-5.2,15.2-8.8c2.3-1.8,4.5-3.7,6.7-5.8
								c2.1-2.1,4.1-4.2,6-6.6l-0.2,0.3c0.4-0.6,0.9-1.2,1.3-1.8c0,0,0,0.1-0.1,0.2c1.8-2.3,3.2-5,4.7-7.5c0,0-0.1,0.4,0.1,0.1
								c0.8-1.9,1.7-2.9,1.7-4.1c0-0.1,0.1-0.1,0.1,0.1c0.2-0.6,0.5-1.4,0.8-2.1l0.6-2.2c0.4-1.4,0.8-2.9,1.1-4.3
								c0.3-1.4,0.5-2.9,0.8-4.4c0.1-1.5,0.3-2.9,0.3-4.4c-0.2-4.9-0.6-10.4-2.2-15.3h0.1c-0.4-1.2-0.9-2.9-1.3-4
								c-0.6,2.9-1.4,5.4-2.3,8c-0.9,2.6-1.7,5.2-2.7,7.7c-1,2.6-1.6,4.4-2.8,7h-0.1c-1.6,4.5-4.5,8.9-6.9,13.3l0.1-0.3
								c-0.2,0.8-1.7,2.5-1.3,2.4c-0.2,0.2-0.4,0.4-0.5,0.6c-0.4,0.8-0.9,1.4-1.4,2.1l-0.8,1c-0.2,0.3-0.5,0.5-0.9,0.9
								c-1.2,1.2-2.3,2.5-3.8,3.9l0.1-0.2c-0.8,0.8-1.6,1.7-2.4,2.2c0.1-0.1,0-0.1,0.2-0.2c-2.9,1.9-6,4.2-9.3,5.7l0.3-0.3
								c-0.8,0.4-1.9,0.9-3.1,1.4c-1.2,0.4-2.6,0.9-3.7,1.3l0.1-0.1c-0.3,0.2-0.8,0.3-1.1,0.4l-0.1-0.1
								C86.9,115.1,84.1,115.8,81.2,116.3z"/>
							<path class="st5" d="M53,126.7L53,126.7C53.1,126.6,53.1,126.6,53,126.7z"/>
							<path class="st5" d="M10.4,143.4c0-0.1,0-0.2,0.1-0.3C10.4,143.1,10.4,143.3,10.4,143.4z"/>
						</g>
					</g>
				</g>
			</g>
		</g>
		<g>
			<path class="st7" d="M11.6,139.6c0,0-10.8-14.6-9.2-35.4s11.2-9,16.9-8.1s22.1,1.5,29.9-23c0,0,40.7,6.3,44.9,4.1
				c0,0-0.5,17.8,3.7,21c0,0-2.7,10-13.2,17.5c0,0-24.5,4.5-34.9,12.6C39.3,136.3,18.2,140.5,11.6,139.6z"/>
			<g>
				<g>
					<g>
						<g>
							<polygon class="st5" points="11.4,140.2 11.6,140.3 12,140.2 							"/>
							<path class="st5" d="M13.7,140.1L13.7,140.1c-0.5,0-1,0.1-1.4,0.2C13,140.6,13.4,140,13.7,140.1z"/>
							<path class="st5" d="M14.2,140.1c0.5,0.1,0.8-0.1,0.9-0.1C14.8,140.1,14,140,14.2,140.1z"/>
							<path class="st5" d="M55.1,125.5c0,0-0.1,0-0.1,0.1C55.1,125.5,55.1,125.5,55.1,125.5z"/>
							<path class="st5" d="M65.5,120.7l0.1-0.1c-1,0.4-2.1,0.9-3.1,1.2c-1.1,0.4-2.2,0.8-3.2,1.3l0.1-0.1c-2.6,1.1-5.2,2.3-7.5,3.8
								c-2.3,1.5-4.4,3.4-6.9,4.7c0.1,0,0.1-0.1,0.1-0.1c-0.2,0.1-0.4,0.3-0.8,0.5c-0.1,0,0-0.1,0.1-0.1c-0.5,0.2-1.3,0.6-2.1,1
								c-0.8,0.3-1.4,0.8-1.8,0.8c-0.3,0.1-0.4,0.3-0.2,0.3c-4.1,1.8-8.7,3.2-13.1,4.4c-0.2,0-0.2,0-0.2-0.1
								c-3.7,1.2-7.8,1.8-11.8,1.9c-0.1,0.1,0.4,0.1,0,0.2c1.3,0,2.4-0.4,3.5-0.3h0.1c0.9-0.1,0.1-0.2,1.1-0.2
								c0.3,0-0.1,0.1,0.1,0.1c0.9-0.1,1.8-0.2,2.7-0.4c0.9-0.1,1.7-0.3,2.6-0.6c0.4,0.1,1.8-0.4,2.6-0.4c0.4-0.2,0.9-0.2,1.1-0.4
								c6.1-1.5,12.2-3.7,17.8-7c1.2-0.9,2.6-1.9,4-2.8c0.8-0.4,1.4-1,2.2-1.3c0.8-0.4,1.5-0.9,2.3-1.3l0,0c0.5-0.3,1.1-0.6,1.7-1
								c0.6-0.3,1.4-0.6,2.1-0.9c0.3-0.2,0.6-0.4,1-0.5c7.8-2.8,16-5.2,24.4-6.8l0.3-0.1c0.1,0,0.2-0.1,0.3-0.2l0.3-0.3l0.8-0.5
								c0.4-0.3,1-0.8,1.4-1.1c0.9-0.8,1.7-1.6,2.6-2.4c1.6-1.6,3-3.5,4.3-5.3c1.3-1.8,2.4-3.9,3.1-6.1c0.1-0.2,0.2-0.5,0.3-0.9
								l0.1-0.4l0.1-0.5l0.1-0.3v-0.2L98,97.8l-0.4-0.4c-0.2-0.2-0.3-0.3-0.5-0.6c-0.6-0.9-1-1.9-1.4-3c0,0,0-0.1,0.1,0.1
								c-0.8-2.6-1-5-1.2-7.6l0,0c-0.2-1.5-0.3-3-0.3-4.7c0-0.8,0-1.5,0-2.4v-2.7c-0.3,0.1-0.5,0.2-0.9,0.2c-0.1,0-0.3,0.1-0.4,0.1
								s-0.2,0-0.3,0c-0.4,0-0.9,0.1-1.2,0.1c-0.9,0-1.6,0-2.5,0c-1.6,0-3.2-0.1-4.9-0.1c-7.4-0.5-15.7-1.6-23.5-2.6v-0.1
								c-1.9-0.2-3.9-0.5-5.8-0.8c-1.9-0.3-3.9-0.6-5.8-1c-0.4,1.1-0.9,2.3-1.3,3.4c-0.3,1.1-0.9,2.2-1.4,3.2
								c-1.4,2.9-3,5.7-5.2,8.3c-0.5,0.6-1.1,1.3-1.6,1.8l-1.8,1.7c-0.6,0.4-1.3,1-2.1,1.4c-0.6,0.4-1.4,0.8-2.2,1.2
								c-1.8,0.6-4,1.6-6.3,2.1c-2.3,0.4-4.5,0.5-6.4,0.2c-1-0.1-1.9-0.2-2.8-0.6c-0.9-0.3-1.7-0.8-2.6-1.3
								c-1.7-0.9-3.4-1.8-5.3-2.4c-1-0.2-1.9-0.3-2.9,0c-1,0.3-1.7,1-2.3,1.8c-1.1,1.6-1.5,3.6-1.8,5.4c-0.8,3.5-0.9,7.1-0.8,10.6
								c0,1.7,0.2,3.5,0.4,5.3c0.2,1.7,0.4,3.5,0.8,5.2c1,3.1,1.5,6.8,2.9,10.2v-0.1c0.2,1.3,1.5,2.5,1.5,3.5l-0.1-0.1
								c0.1,0.8,1.2,1.2,1.1,1.7l0.1,0.1c0.4,0.8,0,0.1,0.2,0.8c0.1,0.2,0.2,0,0.4,0.4c-0.3,0.3,1.1,1.7,0.8,1.9
								c-0.2-0.4,0.2,0.8-0.4-0.1c0.1,0.3,1,1.4,1,1.2c0.2,0,0.6,0.3,0.3-0.4l-0.2-0.1c0-0.3-0.1-0.2,0-0.3c-0.5-1-0.5-1.2-0.9-1.9
								l0,0c-0.4-0.3-0.6-1.1-0.9-1.5v-0.2c0-0.3-0.9-1-0.4-0.8c-1.1-1.9-2.2-4.3-3-6.7c-0.2-0.3-0.6-1.8-0.6-1.2
								c0-0.6-0.5-2.5-0.6-3.1c0,0,0.1,0,0.1,0.1c0-1.4-0.8-1.5-0.6-2.8c-0.3-0.1-0.4-2.3-0.9-2.9c0-0.2,0.1-0.2,0.1-0.2
								c-0.4-2.3-0.5-4.8-0.6-6.7c-0.1-0.9-0.1-1.8-0.1-2.8s0.1-1.9,0-2.6c0.1-1.2,0.4-3,0.5-4.7v0.2c0.2-1.8,0.8-4,1.1-5.2
								c0.2-0.2,0.4-0.4,0.6-0.8c0.2-0.2,0.3-0.6,0.6-0.9c0.2-0.5,0.8-1.1,1.6-1.4c0.8-0.3,1.8-0.3,2.7-0.1c0.2,0.2,1.4,0.4,1.4,0.6
								c1.2,0.4,2.5,1,3.8,1.6c1.3,0.6,2.7,1.3,4.3,1.5c3,0.4,6.2,0.4,9.1-0.1H28c0.8-0.2,1.5-0.8,2.2-1.1c0.1,0,0.1,0-0.1,0.1
								c0.5-0.1,1-0.3,1.5-0.4c0.4-0.1,1-0.3,1.4-0.5c0,0,0,0-0.1,0.1c0.4-0.2,0.9-0.4,1.4-0.8c0.4-0.2,1-0.4,1.4-0.9h0.1l0.5-0.5
								c0,0.1,0.1,0.2-0.3,0.4c3.2-2.2,6-5.3,8-8.7l1.4-2.6c0.4-0.9,0.9-1.8,1.2-2.7c0.2-0.4,0.4-0.9,0.6-1.4l0.5-1.4l0.9-2.5
								l3.5,0.5h-0.3l1.7,0.1c0,0-0.1,0-0.2,0c2.3,0.4,4.5,0.5,6.7,0.9c0,0-0.3,0,0,0.1c1.6,0,2.6,0.5,3.5,0.3
								c0.1,0,0.1,0.1-0.1,0.1c4.5,0.4,9.2,1.1,13.8,1.5c3.8,0,8,0.8,12,0.5v0.1c0.6,0,1.4-0.1,2.1-0.1c0.6-0.1,1.4-0.1,1.9-0.4
								c0,0.8,0,1.8,0,2.8s0,1.9,0,2.9c0.1,1.9,0.1,3.9,0.4,5.8c0.2,2.2,0.5,3.7,1.2,5.8l-0.1,0.1c0.3,0.9,0.8,1.7,1.3,2.6
								c0.1,0.2,0.3,0.4,0.4,0.5l0.2,0.2l0.1,0.1v0.1c-0.1,0.4-0.3,0.9-0.5,1.3c-0.8,1.8-1.7,3.6-2.6,5.3v-0.3
								c-0.1,0.6-1.3,1.9-1,1.9c-0.1,0.2-0.3,0.3-0.4,0.5c-1.2,2.4-3.1,3.7-5.3,6.1l0.1-0.2c-0.6,0.6-1.3,1.3-1.8,1.6
								c0.1-0.1,0-0.1,0.2-0.2c-0.5,0.3-1.2,0.8-1.6,1.2c-0.6,0.1-1.4,0.3-2.1,0.4c-1.4,0.3-2.8,0.8-4.2,1.1l0.3-0.2
								c-1.3,0.4-3.8,1-5.5,1.5l0.1-0.1l-0.9,0.3l-0.1-0.1C69.7,119.2,67.7,120,65.5,120.7z"/>
							<path class="st5" d="M44.5,131.7L44.5,131.7C44.6,131.6,44.6,131.6,44.5,131.7z"/>
							<path class="st5" d="M10.5,136.7c0,0.1,0.1,0.2,0.1,0.2S10.5,136.8,10.5,136.7z"/>
						</g>
					</g>
				</g>
			</g>
		</g>
		<g>
			<path class="st2" d="M2.6,114.8c0,0,28.7-8.8,35.7,20.1c0,0-17.9,8.9-26.8,4.7C11.6,139.6,2.9,122.6,2.6,114.8z"/>
			<g>
				<g>
					<g>
						<g>
							<polygon class="st5" points="1.8,114.8 1.8,114.8 1.9,115 							"/>
							<path class="st5" d="M2.1,115.7C2.2,115.5,2.2,115.5,2.1,115.7l-0.3-0.5C1.7,115.3,2.2,115.4,2.1,115.7z"/>
							<path class="st5" d="M2.1,115.8C2,116,2.2,116,2.2,116.1C2.2,116,2.3,115.7,2.1,115.8z"/>
							<path class="st5" d="M9.5,135h0.1c-0.5-0.6-0.6-1.5-1.1-2.3h0.1c-0.9-1.9-1.7-3.7-2.6-5.6h0.1C6,127,5.9,127,5.9,126.9H6
								c0-0.4-0.5-1.2-0.5-1.5c-0.1-0.1-0.1-0.1-0.2,0c-0.6-1.5-1.2-3.2-1.8-4.8c0-0.1,0-0.1,0.1-0.1c-0.8-1.3-1-2.8-1.1-4.3
								c-0.1,0-0.1,0.2-0.2,0c0,0.5,0.3,0.9,0.3,1.3H2.5c0,0.3,0.2,0,0.2,0.3c0,0.1-0.1,0-0.1,0c0.2,0.6,0.3,1.4,0.6,1.9
								c-0.1,0.2,0.2,0.6,0.1,1c0.1,0.1,0.1,0.3,0.3,0.3c0.5,2.3,1.5,4.4,2.5,6.7c0.8,0.9,0.9,2.3,1.5,3.5l0,0
								c0.2,0.3,0.5,1,0.8,1.4l0.3,0.3c0.5,1.5,1.1,2.9,1.8,4.3l1.1,2.2c0.1,0.3,0.4,0.3,0.6,0.4l0.5,0.2c0.4,0.1,0.8,0.3,1.2,0.4
								c3.6,0.9,6.9,0.8,10.3-0.4c0,0,0,0,0,0.1c1-0.3,1.9-0.3,2.8-0.6l0,0c2.2-0.9,4.8-1.4,6.7-2.5c1.3-0.4,2.6-1.1,4-1.6l1.1-0.5
								c0,0,0.1,0,0.1-0.1v-0.1l-0.1-0.3l-0.8-0.5c-0.2-0.8-0.4-1.4-0.6-2.1h0.1c-0.9-2.2-1.5-4.3-2.7-6.4c-1.1-2.2-3.1-3.9-4.8-5.6
								c-0.9-1.3-2.9-1.8-3.9-2.8c-2.3-1.9-5.2-2.6-8-2.8c-2.6-0.6-5.3-0.3-7.8-0.5c-1.2,0.3-2.6-0.1-3.9,0.2l0.1,0.1
								c-0.5-0.2-1,0.5-1.4,0.2l0,0c-0.3-0.1-0.5,0.5-0.6,0.3v0.1c-0.3,0.1-0.1-0.1-0.3-0.1c-0.1,0,0,0.2-0.2,0.2
								c-0.1-0.3-0.8,0.2-0.9-0.1c0.2,0-0.3-0.1,0-0.3c-0.1,0-0.6,0.1-0.5,0.3c0,0.2-0.1,0.4,0.2,0.4v-0.1c0.1,0.1,0.1,0,0.2,0.1
								c0.4-0.1,0.5,0.1,0.8,0.1l0,0c0.1-0.2,0.4-0.2,0.6-0.2l0.1,0.1c0.1,0.1,0.4-0.4,0.3-0.1c0.8-0.2,1.7-0.4,2.7-0.5
								c0.1-0.1,0.8-0.1,0.4-0.2c0.2,0.2,1,0.2,1.2,0.2c0,0,0,0-0.1,0c0.5,0.2,0.5-0.3,1.1,0c0.1-0.3,0.9,0,1.1-0.3
								c0.1,0.1,0.1,0.1,0.1,0.1c0.9,0,1.7,0.1,2.5,0.1c0.6-0.2,1.4,0.2,1.9-0.1c0.4,0.1,1.1,0.3,1.7,0.3h-0.1
								c0.6,0.1,1.5,0.2,2.1,0.1c0.1,0.3,0.4,0.3,0.6,0.5c0.4,0,1.3,0.3,2.1,0.4c0.1,0.1,0.5,0.1,0.5,0.3c1.9,0.3,4.1,1.6,5.5,3.1
								l0,0c0.3,0.1,0.6,0.1,1,0.1c0,0,0,0.1-0.1,0c0.3,0.2,0.4,0.5,0.8,0.9c0,0,0,0-0.1,0c0.3,0.2,0.4,0.6,0.9,0.8v0.1l0.2,0.1
								c0,0-0.1,0.1-0.2,0c2.3,2.3,4.3,5,5.6,8.1l-0.1-0.1l0.3,0.5h-0.1c0.2,0.8,0.6,1.5,0.9,2.4c0,0-0.1-0.1-0.1,0
								c0.4,0.5,0,1,0.5,1.2c0,0-0.1,0.1-0.1,0l0.4,1.2c0,0.1,0.1,0.2,0.1,0.3l-0.3,0.1c-0.8,0.3-1.5,0.6-2.4,1
								c-1.2,0.9-2.7,1.2-4,1.8v-0.1c-1.7,0.9-3.7,1.2-5.6,1.7c-0.8,0.1-1.3,0.4-2.2,0.5v-0.1c-1.3,0.6-2.9,0.2-4.3,0.6l0.1-0.1
								c-0.2,0.2-0.9,0-0.8,0.3l-0.5,0.1c-1,0.5-1.7-0.2-3,0l0.1-0.1c-0.3,0-0.6,0-0.9-0.1c0,0,0,0,0.1,0c-0.4-0.2-1-0.2-1.5-0.4
								l-0.8-0.2l-0.4-0.1c-0.1,0-0.2,0-0.3-0.2c0.1,0,0.1,0,0.1,0c-0.1-0.1-0.3-0.4-0.4-0.8c-0.1-0.3-0.3-0.8-0.5-1h0.1l-0.1-0.3
								l0.1-0.1C10.3,136.4,9.8,135.8,9.5,135z"/>
						</g>
					</g>
				</g>
			</g>
		</g>
		<g>
			<g>
				<g>
					<g>
						<g>
							<polygon class="st5" points="30.1,119.1 30.2,119.1 30.2,119 							"/>
							<path class="st5" d="M30.6,118.6C30.6,118.6,30.5,118.6,30.6,118.6l-0.3,0.4C30.6,119.1,30.4,118.6,30.6,118.6z"/>
							<path class="st5" d="M30.7,118.6c0.2,0,0.1-0.2,0.2-0.2C30.8,118.5,30.6,118.5,30.7,118.6z"/>
							<path class="st5" d="M43,107L43,107c-0.2,0.5-0.9,1.1-1.2,1.6v-0.1c-1.1,1.3-2.1,2.7-3.2,3.9v-0.1c0,0.1,0,0.2-0.1,0.2v-0.1
								c-0.4,0.1-0.8,0.8-1,0.9c-0.1,0.1,0,0.2,0,0.2c-1,0.9-2.2,1.8-3.2,2.7c-0.1,0-0.1,0-0.1-0.1c-0.8,1-1.9,1.5-3,2.1
								c0,0.1,0.1,0,0.1,0.1c0.4-0.1,0.5-0.5,0.9-0.5v0.1c0.2-0.1-0.1-0.2,0.2-0.2c0.1,0,0,0.1,0.1,0.1c0.4-0.3,1-0.5,1.3-1
								c0.2,0.1,0.5-0.3,0.8-0.3c0.1-0.1,0.2-0.2,0.2-0.3c1.6-1,3.1-2.4,4.5-3.8c0.4-0.9,1.5-1.4,2.2-2.3l0,0
								c0.1-0.3,0.4-0.8,0.8-1.1l0.1-0.4c0.4-0.4,0.9-1,1.2-1.5c0.3-0.5,0.6-1.1,1-1.7c0.5-1.2,1-2.4,1.6-3.5c1.4-2.6,2.9-4.4,5.2-6
								c0,0,0,0,0,0.1c0.3-0.1,0.8-0.3,1.1-0.3c0.3-0.1,0.8-0.1,1.1-0.2l0,0c1.8-0.5,3.9,0.1,5.7,0.3c2.2,0.5,4.7,1.4,6.8,2.2V98
								c1.8,0.6,3.4,1.7,5.1,2.4c1.7,1,3.8,1.4,5.5,2.3c1,0.8,2.8,0.6,3.8,1.3c2.1,1.2,4.7,1.3,6.9,0.8c1.1,0,2.2-0.3,3.1-0.8
								c1-0.4,1.8-1,2.8-1.4c0.6-0.8,1.8-1.1,2.6-1.9h-0.1c0.4-0.1,0.3-0.9,0.8-0.9l0,0c0.3,0,0-0.6,0.2-0.6V99
								c0.1-0.2,0.1,0,0.2-0.1c0-0.1-0.1-0.1,0-0.2c0.3,0.2,0.3-0.5,0.6-0.3c-0.1,0.1,0.3-0.1,0.1,0.2c0.1,0,0.3-0.4,0.2-0.4
								c-0.1-0.1-0.2-0.4-0.4-0.2l0.1,0.1c-0.2,0-0.1,0-0.2,0c-0.2,0.2-0.4,0.2-0.6,0.3l0,0c0,0.2-0.2,0.3-0.3,0.4h-0.1
								c-0.2,0,0,0.5-0.1,0.2c-0.4,0.5-0.9,1.2-1.4,1.6c0,0.1-0.4,0.4-0.1,0.4c-0.3,0-0.8,0.2-0.9,0.4c0,0,0,0,0-0.1
								c-0.5,0-0.2,0.5-0.8,0.4c0.1,0.2-0.5,0.3-0.6,0.6c-0.1,0-0.1-0.1-0.1-0.1c-0.5,0.3-1.3,0.6-1.7,0.8c-0.3,0.6-0.6,0.6-0.9,0.8
								c-0.3,0.1-0.5,0.1-0.6,0.3c-0.3,0-0.9,0-1.4,0.2l0,0c-0.5,0.1-1.2,0.1-1.6,0.3c-0.2-0.3-0.4-0.2-0.6-0.3
								c-0.3,0.1-1.1,0-1.6,0.1c-0.1-0.1-0.4,0-0.4-0.2c-1.6,0.1-3.6-0.5-5-1.5l0,0c-0.2,0-0.5,0.2-0.9,0.2c0,0,0-0.1,0,0
								c-0.3-0.1-0.5-0.4-0.8-0.4c0,0,0,0,0.1,0c-0.3,0-0.5-0.4-0.9-0.4V102h-0.2c0-0.1,0.1-0.1,0.2-0.1c-2.5-1.2-5.1-2.1-7.7-3.2
								h0.1l-0.5-0.1c0,0,0,0,0.1,0c-0.5-0.4-1.3-0.5-1.9-0.8c0,0,0.1,0,0.1-0.1c-0.5,0-0.6-0.5-1.1-0.2c0,0,0-0.1,0.1-0.1
								c-0.6-0.2-1.3-0.4-2.1-0.6c-0.6-0.2-1.3-0.4-1.9-0.6c-1.2,0-2.4-0.6-3.7-0.5v-0.1c-1.5,0-3.2-0.3-4.9,0
								c-0.6,0.1-1.1,0.3-1.7,0.5v-0.1c-0.4,0.4-1,0.6-1.5,1s-1,0.8-1.3,1.3V98c0,0.2-0.5,0.5-0.2,0.6l-0.2,0.1
								c-0.1,0.4-0.3,0.8-0.5,1c-0.2,0.3-0.5,0.5-0.6,1.1v-0.1c-0.1,0.2-0.2,0.5-0.3,0.6c0,0,0,0,0-0.1c-0.6,0.6-0.8,1.6-1.1,2.4
								l-0.1-0.1c0,0.4-0.4,1.1-0.6,1.6V105v0.3H44C43.5,105.8,43.3,106.4,43,107z"/>
						</g>
					</g>
				</g>
			</g>
		</g>
		<g>
			<path class="st0" d="M36.8,91.9c0,0-4.3-9.1-2.7-14s5-6.4,14.9-5C49,73.1,43.8,88.6,36.8,91.9z"/>
			<g>
				<g>
					<g>
						<g>
							<path class="st5" d="M37.3,92.2L37.3,92.2l-0.1,0.3C37.4,92.6,37.2,92.2,37.3,92.2z"/>
							<path class="st5" d="M37.4,92.2c0.1,0,0.1-0.1,0.1-0.2C37.5,92,37.3,92,37.4,92.2z"/>
							<path class="st5" d="M44.4,83.3L44.4,83.3c-0.1,0.4-0.5,0.8-0.6,1.2l0,0c-0.6,1-1.1,1.9-1.6,2.9c0,0,0,0,0-0.1
								c0,0.1,0,0.2,0,0.2s0,0,0-0.1c-0.3,0.1-0.3,0.6-0.5,0.6c0,0.1,0,0.1,0.1,0.1c-0.5,0.8-1.2,1.5-1.7,2.3c0,0-0.1,0-0.1-0.1
								c-0.4,0.8-1.1,1.3-1.9,1.6c0,0.1,0.1,0,0.1,0.1c0.3,0,0.3-0.4,0.6-0.4v0.1c0.2,0-0.1-0.2,0.1-0.2c0.1,0,0,0.1,0.1,0.1
								c0.3-0.2,0.6-0.4,0.8-0.9c0.2,0.1,0.3-0.2,0.5-0.2c0-0.1,0.1-0.2,0-0.3c1-0.9,1.7-1.9,2.5-3c0.1-0.6,0.9-1.1,1.1-1.7l0,0
								c0.1-0.2,0.2-0.5,0.4-0.8v-0.3c1.1-1.3,1.7-2.9,2.6-4.4c0.9-1.7,1.8-3.2,2.1-5.2c0,0,0,0,0,0.1c0.1-0.2,0.2-0.5,0.3-0.8
								c0.1-0.2,0.3-0.6,0.3-1l0,0l0.1-0.3c0-0.1,0-0.1-0.1-0.1h-0.2l-0.6-0.1c-0.5,0-0.8-0.1-1.1-0.1c-0.6-0.1-1.3-0.1-1.9-0.1
								c-1.5-0.1-3.2-0.2-4.8,0.1v-0.1c-1.2,0.3-2.6,0.2-3.7,1.1c-0.6,0.3-1.1,0.9-1.5,1.4c-0.3,0.5-0.6,1.2-1,1.7
								c-0.3,0.3-0.4,0.8-0.4,1.3c0,0.4-0.1,0.9-0.2,1.3c-0.8,1.5-0.2,3.1,0.4,4.5c0.1,1.5,1,2.7,1.1,4.1c0.4,0.5,0.2,1.4,0.5,2.1
								l0.1-0.1c-0.1,0.3,0.5,0.4,0.2,0.8l0,0c-0.1,0.2,0.5,0.1,0.3,0.3h0.1c0.1,0.1-0.1,0.1-0.1,0.2c0,0,0.2,0,0.1,0.1
								c-0.3,0.2,0.2,0.3-0.1,0.5c0-0.1-0.1,0.2-0.2,0c0,0.1,0.1,0.3,0.3,0.2c0.2-0.1,0.4,0,0.4-0.2h-0.1c0.1-0.1,0-0.1,0.1-0.1
								c-0.1-0.2,0.1-0.3,0.1-0.5l0,0c-0.2,0-0.2-0.2-0.2-0.3l0.1-0.1c0.1-0.1-0.4-0.1-0.1-0.1c-0.2-0.4-0.4-0.9-0.6-1.3
								c-0.1,0-0.1-0.3-0.3-0.2c0.2-0.2,0.1-0.5,0-0.8l0,0c0.2-0.3-0.3-0.2-0.1-0.5c-0.2,0-0.1-0.4-0.4-0.5l0.1-0.1
								c-0.1-0.4-0.2-1-0.3-1.3c-0.3-0.2-0.1-0.8-0.5-1c0-0.2,0-0.6-0.1-1l0,0c-0.1-0.3-0.2-0.8-0.4-1c0.3-0.1,0.2-0.3,0.3-0.4
								c-0.2-0.2-0.2-0.8-0.3-1.1c0.1-0.1-0.1-0.3,0.1-0.3c-0.4-1-0.2-2.4,0.4-3.2l0,0c-0.1-0.2-0.2-0.4-0.3-0.6l0,0
								c0-0.2,0.3-0.3,0.3-0.5c0,0,0,0,0,0.1c0-0.2,0.3-0.3,0.3-0.5h0.1V76c0.1,0,0.1,0.1,0.1,0.1c0.4-0.8,0.9-1.4,1.5-1.9
								c0.6-0.5,1.4-1,2.3-1.2v0.1c0.1-0.1,0.2-0.1,0.3-0.2c0,0,0,0,0,0.1c0.4,0,0.9-0.2,1.3-0.2c0,0-0.1,0.1,0,0.1
								c0.3-0.2,0.5,0.2,0.6-0.2v0.1c0.9-0.2,1.8-0.2,2.7-0.1c0.8-0.3,1.6,0.1,2.4-0.1v0.1c0.5-0.1,1.1,0,1.6,0.1l0.6,0.1
								c0.1,0-0.1,0.2-0.1,0.3l-0.1,0.3c-0.1,0.3-0.2,0.6-0.3,1.1h-0.1c0,0.9-0.9,1.4-0.9,2.2l-0.1-0.1c0.1,0.2-0.2,0.4,0.1,0.5
								l-0.1,0.1c0.2,0.6-0.5,0.8-0.5,1.5v-0.1c0,0.2-0.1,0.4-0.2,0.4c0,0,0,0,0-0.1c-0.5,0.3-0.4,1.1-0.8,1.5l-0.1-0.1
								c0,0.3-0.3,0.8-0.4,1.1l0,0v0.2L45,81.6C44.7,82.4,44.6,82.8,44.4,83.3z"/>
						</g>
					</g>
				</g>
			</g>
		</g>
		<g>
			<path class="st2" d="M131.9,57.8c0,0-4.5-7.8-12.8-0.3c-8.3,7.5-17.7,16-25.1,19.7c0,0-0.1,16.8,3.7,21c0,0-4.9,14-13.2,17.5
				C84.4,115.9,119.1,115.8,131.9,57.8z"/>
			<g>
				<g>
					<g>
						<g>
							<polygon class="st5" points="131.1,57.7 131.1,57.7 131.2,57.9 							"/>
							<path class="st5" d="M131.1,59L131.1,59v-0.9C130.8,58.5,131.2,58.9,131.1,59z"/>
							<path class="st5" d="M131,59.3c-0.1,0.3,0,0.4,0,0.5C130.9,59.7,131.2,59.2,131,59.3z"/>
							<path class="st5" d="M118.9,91.7l0.1,0.1c0.5-1.3,1.5-2.5,2.2-3.8v0.1c1.7-3.1,3-6.3,4.3-9.6c0,0.1,0,0.1,0,0.1
								c0-0.2,0-0.4,0.1-0.5v0.1c0.5-0.6,0.8-2.1,1-2.5c0-0.2,0-0.3-0.1-0.2c1-2.6,1.8-5.5,2.5-8.2c0.1-0.1,0.1-0.1,0.2-0.1
								c0.3-2.4,1.2-4.9,1.7-7.3c-0.1-0.1-0.1,0.2-0.2,0c-0.3,0.8-0.1,1.5-0.4,2.2l-0.1-0.1c-0.2,0.5,0.2,0.1-0.1,0.6
								c-0.1,0.2-0.1-0.1-0.1,0c-0.2,1.1-0.6,2.2-0.8,3.2c-0.2,0.2-0.3,1.2-0.6,1.5c0,0.3-0.1,0.5,0,0.8c-1.3,3.7-2.4,7.6-4,11.3
								c-0.2,1-0.6,1.8-1.2,2.8c-0.5,1-1,1.9-1.5,2.9l0,0c-0.2,0.6-0.8,1.6-1.2,2.4c-0.1,0.2-0.1,0.4-0.2,0.8
								c-2.8,4.4-5.7,8.9-9.4,12.8c-4.2,4.3-8.4,7.5-13.4,10.5c0,0-0.1,0,0.1-0.1c-1.5,0.9-2.9,1.4-4.4,1.9l0,0
								c-2.7,1.3-6,1.9-9,2.2l0.1,0.4c0.9-0.4,1.6-0.9,2.3-1.5c3.9-2.7,6.8-7.4,8.9-11.8h0.1c0.4-0.9,0.8-1.8,1.2-2.7l0.5-1.3
								l0.1-0.4c0-0.1,0-0.1,0-0.2l-0.1-0.2l-0.4-0.6c-0.9-1.7-1.3-3.6-1.7-5.5c-0.6-4-1.5-8.2-1.4-12.3c0.1-0.6,0.1-1.3,0-1.9v-0.2
								L94,77l0.4-0.2c0.3-0.2,0.6-0.3,1-0.5c1.2-0.8,2.4-1.6,3.5-2.2c4.3-2.4,7.8-5.6,11.4-9.1c1.7-1.4,3.4-2.9,5.1-4.4
								c1.6-1.5,3.2-3.1,5.1-4.3c0.4-0.3,0.9-0.6,1.3-1c0.4-0.3,1-0.4,1.5-0.6c1.1-0.2,2.2-0.4,3.4-0.3l-0.1-0.1
								c0.4,0.1,0.9,0.2,1.3,0.2c0.4,0.1,0.9,0.1,1,0.4h-0.1c0.1,0.2,0.4,0.2,0.6,0.2c0.2,0,0.4,0.1,0.5,0.2h0.1
								c0.4,0.3,0,0.1,0.3,0.4c0.1,0.1,0.1-0.1,0.3,0.2c-0.2,0.3,1,0.9,0.6,1.2c-0.2-0.2,0.1,0.4-0.3,0c0.1,0.1,0.5,0.9,0.6,0.6
								c0.2,0,0.5,0.2,0.4-0.3h-0.2c0-0.2,0-0.1,0-0.3c-0.4-0.5-0.3-0.8-0.6-1.3l0,0c-0.3-0.1-0.6-0.5-0.9-0.8v-0.1
								c0-0.2-0.9-0.2-0.5-0.3c-1.3-0.8-3.1-1.3-4.9-1c-0.2,0.1-1.3,0.3-0.9,0.4c-0.2,0-0.6,0-1.1,0.1c-0.4,0.1-0.8,0.3-1,0.4
								c0,0,0-0.1,0.1-0.1c-1,0.1-0.8,0.8-1.7,0.9c0,0.2-1.2,0.9-1.4,1.4c-0.1,0-0.2,0-0.2-0.1c-1.1,1-2.3,1.9-3.2,2.8
								c-0.6,0.9-1.9,1.6-2.4,2.5c-0.6,0.4-1.6,1.1-2.3,1.9v-0.1c-0.9,0.8-1.9,1.7-2.5,2.4c-0.4,0-0.8,0.3-1.3,0.6
								c-0.5,0.6-1.7,1.6-2.6,2.4c-0.2,0-0.8,0.6-0.9,0.5c-2.4,2.4-5.8,4.8-9.1,6.2l0,0c-0.2,0.2-0.3,0.3-0.5,0.5
								c-0.1,0.1-0.3,0.2-0.4,0.3c0,0.2,0.1,0.4,0.1,0.5s0,0,0-0.1c0,0.8-0.1,1.3-0.1,1.9c0,0,0,0-0.1-0.1c0.1,0.6-0.1,1.3,0.1,1.9
								l0,0l0.1,0.4c-0.1,0-0.2,0-0.2-0.2c0.1,2.8,0.4,5.7,0.9,8.6c0.3,1.4,0.5,2.8,1,4.2c0.2,0.8,0.4,1.4,0.8,2.1l0.5,1
								c0.1,0.2,0.2,0.3,0.3,0.4l0.2,0.3h-0.1c0.2,0.1,0.1,0.2,0,0.6v-0.1c-0.6,1.3-1.1,2.7-1.6,3.9c0,0,0-0.2-0.1-0.1
								c-0.3,1-1,1.3-0.9,1.9c0,0-0.1,0-0.1-0.1c-1.3,2.5-2.8,5-4.9,7c-1.2,1.7-3.1,3.1-5.1,4.1l-0.8,0.3l0.8-0.1
								c0.3,0,0.5-0.1,0.9-0.1v0.1c3.1-0.5,6.6-1.2,9.6-2.6c1.3-0.5,2.1-1,3.4-1.6l0.1,0.1c1.9-1.4,4.4-2.3,6.2-4l-0.1,0.2
								c0.2-0.3,1.2-0.9,0.9-1l0.4-0.2c1-1.4,2.5-1.8,3.7-3.5v0.1c0.3-0.4,0.8-0.9,1.1-1.2c0,0,0,0-0.1,0.1c0.8-0.5,1.3-1.2,1.8-1.8
								c0.5-0.6,1.1-1.4,1.6-2.2V98c0.4-0.8,1.5-1.9,2.2-2.9v0.1l0.2-0.5l0.1,0.1C117.5,94.2,118.1,92.9,118.9,91.7z"/>
							<path class="st5" d="M131.1,55.9c0,0.1,0.1,0.1,0.1,0.1C131.2,56.1,131.1,56,131.1,55.9z"/>
						</g>
					</g>
				</g>
			</g>
		</g>
		<g>
			<path class="st11" d="M55,88.3c0.6,0,2.9-13.9,2.9-13.9"/>
			<g>
				<g>
					<g>
						<g>
							<path class="st5" d="M57.5,74.4L57.5,74.4l-0.2-0.1C57,74.3,57.6,74.4,57.5,74.4z"/>
							<path class="st5" d="M57.4,74.4c-0.1,0,0.1,0,0.1,0.1C57.4,74.5,57.6,74.5,57.4,74.4z"/>
							<path class="st5" d="M57.5,77.4h0.1c-0.2-0.1,0-0.2,0-0.3l0,0c0.1-0.3,0-0.5-0.1-0.9c0,0,0,0,0.1,0c0,0-0.1,0-0.1-0.1h0.1
								c0.2,0-0.1-0.2,0.1-0.2h-0.1c0-0.2,0-0.5-0.1-0.8h0.1c-0.3-0.2-0.1-0.4,0-0.6c-0.1,0-0.1,0-0.2,0c-0.1,0,0.2,0.1,0,0.2h-0.1
								c-0.1,0,0.2,0,0.1,0.1c-0.1,0-0.1,0-0.1,0c0,0.1-0.1,0.2,0.1,0.3c-0.2,0,0,0.1-0.2,0.1c0.1,0,0,0.1,0.1,0.1
								c-0.1,0.3,0,0.6-0.1,1c0.3,0.2-0.1,0.3,0,0.5l0,0c0.1,0.1,0.1,0.2,0,0.2l0.1,0.1c-0.3,0.3-0.2,0.9-0.4,1.3
								c-0.2,0.4-0.5,0.9-0.1,1.4c0,0,0,0-0.1,0c0,0.1-0.1,0.2-0.1,0.4l0,0c0.2,0.3-0.1,0.6,0.1,1.1c-0.1,0.3-0.1,0.9-0.1,1.2h-0.1
								c0.1,0.3-0.3,0.5-0.3,1c-0.2,0.3,0.2,0.8,0,1.1c-0.3,0.1,0.3,0.5-0.1,0.6c-0.6,0.3-0.3,0.8-0.1,1.2c-0.2,0.3,0.1,0.8-0.3,1.1
								c0.2,0.2-0.4,0.2-0.4,0.4h0.1c-0.2,0,0.3,0.2-0.1,0.2l0,0c-0.2,0,0.4,0.2,0.2,0.2h0.1c0,0.1-0.1,0-0.1,0l0.1,0.1
								c-0.3-0.2,0,0.2-0.3-0.1c0,0,0,0-0.1-0.1c0,0,0,0-0.1-0.1l0,0l0,0l0,0l0,0l0.1,0.1l0,0l0,0l0,0l0,0l0,0l0,0l0,0l0,0l-0.1-0.1
								l0,0c0,0,0.1,0,0.1-0.1c0.1,0,0.1,0.1,0.1,0.1c0,0.2,0,0.3,0.1,0.5v-0.1c0.1,0.1,0,0.1,0.1,0.1c0.1-0.1,0.2-0.1,0.2,0
								c0.1,0,0.1,0,0.2,0l0,0c-0.1-0.1,0-0.1,0-0.1h0.1c0.1,0-0.2-0.2,0-0.1c0-0.2,0-0.3,0.1-0.4c-0.1,0,0-0.1-0.2-0.1
								c0.2,0,0.3,0,0.3-0.1l0,0c0.3,0-0.2-0.2,0.1-0.1c-0.2-0.1,0.1-0.1-0.2-0.2c0.1,0,0.1,0,0.1,0c0-0.1,0.2-0.2,0.2-0.3
								c-0.2-0.1,0.1-0.2-0.1-0.3c0.1,0,0.2-0.1,0.1-0.2l0,0c0-0.1,0-0.2-0.2-0.3c0.3,0,0.2,0,0.3,0c-0.1-0.1-0.1-0.2-0.1-0.3
								c0.1,0,0-0.1,0.2-0.1c-0.3-0.3-0.1-0.6,0.2-0.9l0,0c-0.1-0.1-0.3-0.1-0.4-0.2l0,0c0-0.1,0.2-0.1,0.1-0.1c0,0,0,0,0.1,0
								c-0.1-0.1,0.2-0.1,0-0.1h0.1h-0.1c0.1,0,0.2,0,0.1,0c0.1-0.4-0.1-1,0-1.4h0.1l-0.1-0.1c0,0,0,0,0.1,0c0.1-0.1,0-0.2,0-0.3
								h0.1c-0.2-0.1,0.2-0.1-0.1-0.2h0.1c-0.1-0.2,0-0.5,0.1-0.8c-0.3-0.2,0-0.4-0.2-0.6h0.1c-0.2-0.3,0.1-0.5,0.1-0.9
								c0-0.1,0-0.2,0-0.3H57c-0.3-0.2,0.3-0.3,0-0.6h0.1c-0.2-0.1,0.1-0.1-0.2-0.1H57c-0.4-0.2,0.2-0.2,0-0.4h0.1
								c0-0.1-0.1-0.1,0-0.1l0,0c0.3-0.1,0-0.3,0.1-0.4h0.1c-0.1-0.1,0-0.2,0-0.3h0.1l-0.1-0.1h0.1C57.6,77.6,57.5,77.5,57.5,77.4z"
								/>
						</g>
					</g>
				</g>
			</g>
		</g>
		<g>
			<path class="st11" d="M63.9,90c0.6,0,2.9-13.9,2.9-13.9"/>
			<g>
				<g>
					<g>
						<g>
							<polygon class="st5" points="66,75.9 66,75.9 66.1,76 							"/>
							<path class="st5" d="M66.2,76.1C66.4,76.1,66.4,76.1,66.2,76.1L66,76C65.9,76,66.4,76.1,66.2,76.1z"/>
							<path class="st5" d="M66.2,76.1c-0.1,0,0.1,0,0.1,0.1C66.2,76.1,66.5,76.1,66.2,76.1z"/>
							<path class="st5" d="M66.4,79h0.1c-0.2-0.1,0-0.2,0-0.3l0,0c0.1-0.3,0-0.5-0.1-0.9c0,0,0,0,0.1,0c0,0-0.1,0-0.1-0.1h0.1
								c0.2,0-0.1-0.2,0.1-0.2h-0.1c0-0.2,0-0.5-0.1-0.8h0.1c-0.3-0.2-0.1-0.4,0-0.6c-0.1,0-0.1,0-0.2,0c-0.1,0,0.2,0.1,0,0.2h-0.1
								c-0.1,0,0.2,0,0.1,0.1c-0.1,0-0.1,0-0.1,0c0,0.1-0.1,0.2,0.1,0.3c-0.2,0,0,0.1-0.2,0.1c0.1,0,0,0.1,0.1,0.1
								c-0.1,0.3,0,0.6-0.1,1c0.3,0.2-0.1,0.3,0,0.5l0,0c0.1,0.1,0.1,0.2,0,0.2l0.1,0.1c-0.3,0.3-0.2,0.9-0.4,1.3
								c-0.2,0.4-0.5,0.9-0.1,1.4c0,0,0,0-0.1,0c0,0.1-0.1,0.2-0.1,0.4l0,0c0.2,0.3-0.1,0.6,0.1,1.1c-0.1,0.3-0.1,0.9-0.1,1.2h-0.1
								c0.1,0.3-0.3,0.5-0.3,1c-0.2,0.3,0.2,0.8,0,1.1c-0.3,0.1,0.3,0.5-0.1,0.6c-0.6,0.3-0.3,0.8-0.1,1.2c-0.2,0.3,0.1,0.8-0.3,1.1
								c0.2,0.2-0.4,0.2-0.4,0.4h0.1c-0.2,0,0.3,0.2-0.1,0.2l0,0c-0.2,0,0.4,0.2,0.2,0.2h0.1c0,0.1-0.1,0-0.1,0l0.1,0.1
								c-0.3-0.2,0,0.2-0.3-0.1c0,0,0,0-0.1-0.1c0,0,0,0-0.1-0.1l0,0l0,0l0,0l0,0l0.1,0.1l0,0l0,0l0,0l0,0l0,0l0,0l0,0l0,0l-0.1-0.1
								l0,0c0,0,0.1,0,0.1-0.1c0.1,0,0.1,0.1,0.1,0.1c0,0.2,0,0.3,0.1,0.5v-0.1c0.1,0.1,0,0.1,0.1,0.1c0.1-0.1,0.2-0.1,0.2,0
								c0.1,0,0.1,0,0.2,0l0,0c-0.1-0.1,0-0.1,0-0.1h0.1c0.1,0-0.2-0.2,0-0.1c0-0.2,0-0.3,0.1-0.4c-0.1,0,0-0.1-0.2-0.1
								c0.2,0,0.3,0,0.3-0.1l0,0c0.3,0-0.2-0.2,0.1-0.1c-0.2-0.1,0.1-0.1-0.2-0.2c0.1,0,0.1,0,0.1,0c0-0.1,0.2-0.2,0.2-0.3
								c-0.2-0.1,0.1-0.2-0.1-0.3c0.1,0,0.2-0.1,0.1-0.2l0,0c0-0.1,0-0.2-0.2-0.3c0.3,0,0.2,0,0.3,0c-0.1-0.1-0.1-0.2-0.1-0.3
								c0.1,0,0-0.1,0.2-0.1c-0.3-0.3-0.1-0.6,0.2-0.9l0,0c-0.1-0.1-0.3-0.1-0.4-0.2l0,0c0-0.1,0.2-0.1,0.1-0.1c0,0,0,0,0.1,0
								c-0.1-0.1,0.2-0.1,0-0.1h0.1h-0.1c0.1,0,0.2,0,0.1,0c0.1-0.4-0.1-1,0-1.4h0.1l-0.1-0.1c0,0,0,0,0.1,0c0.1-0.1,0-0.2,0-0.3
								h0.1c-0.2-0.1,0.2-0.1-0.1-0.2h0.1c-0.1-0.2,0-0.5,0.1-0.8c-0.3-0.2,0-0.4-0.2-0.6h0.1c-0.2-0.3,0.1-0.5,0.1-0.9
								c0-0.1,0-0.2,0-0.3h0.1c-0.3-0.2,0.3-0.3,0-0.6H66c-0.2-0.1,0.1-0.1-0.2-0.1h0.1c-0.4-0.2,0.2-0.2,0-0.4H66
								c0-0.1-0.1-0.1,0-0.1l0,0c0.3-0.1,0-0.3,0.1-0.4h0.1c-0.1-0.1,0-0.2,0-0.3h0.1l-0.1-0.1h0.1C66.5,79.3,66.4,79.2,66.4,79z"/>
						</g>
					</g>
				</g>
			</g>
		</g>
		<g>
			<path class="st11" d="M72.6,90.6c0.6,0,2.9-13.9,2.9-13.9"/>
			<g>
				<g>
					<g>
						<g>
							<polygon class="st5" points="74.8,76.6 74.7,76.6 74.8,76.7 							"/>
							<path class="st5" d="M75,76.8L75,76.8l-0.2-0.1C74.6,76.7,75.1,76.8,75,76.8z"/>
							<path class="st5" d="M74.9,76.8c-0.1,0,0.1,0,0.1,0.1C75,76.8,75.1,76.8,74.9,76.8z"/>
							<path class="st5" d="M75,79.7h0.1c-0.2-0.1,0-0.2,0-0.3l0,0c0.1-0.3,0-0.5-0.1-0.9c0,0,0,0,0.1,0c0,0-0.1,0-0.1-0.1h0.1
								c0.2,0-0.1-0.2,0.1-0.2h-0.1c0-0.2,0-0.5-0.1-0.8h0.1c-0.3-0.2-0.1-0.4,0-0.6c-0.1,0-0.1,0-0.2,0s0.2,0.1,0,0.2h-0.1
								c-0.1,0,0.2,0,0.1,0.1c-0.1,0-0.1,0-0.1,0c0,0.1-0.1,0.2,0.1,0.3c-0.2,0,0,0.1-0.2,0.1c0.1,0,0,0.1,0.1,0.1
								c-0.1,0.3,0,0.6-0.1,1c0.3,0.2-0.1,0.3,0,0.5l0,0c0.1,0.1,0.1,0.2,0,0.2l0.1,0.1c-0.3,0.3-0.2,0.9-0.4,1.3
								c-0.2,0.4-0.5,0.9-0.1,1.4c0,0,0,0-0.1,0c0,0.1-0.1,0.2-0.1,0.4l0,0c0.2,0.3-0.1,0.6,0.1,1.1C74,84,74,84.6,74,84.9h-0.1
								c0.1,0.3-0.3,0.5-0.3,1c-0.2,0.3,0.2,0.8,0,1.1c-0.3,0.1,0.3,0.5-0.1,0.6c-0.6,0.3-0.3,0.8-0.1,1.2c-0.2,0.3,0.1,0.8-0.3,1.1
								c0.2,0.2-0.4,0.2-0.4,0.4h0.1c-0.2,0,0.3,0.2-0.1,0.2l0,0c-0.2,0,0.4,0.2,0.2,0.2H73c0,0.1-0.1,0-0.1,0l0.1,0.1
								c-0.3-0.2,0,0.2-0.3-0.1c0,0,0,0-0.1-0.1c0,0,0,0-0.1-0.1l0,0l0,0l0,0l0,0l0.1,0.1l0,0l0,0l0,0l0,0l0,0l0,0l0,0l0,0l-0.1-0.1
								l0,0c0,0,0.1,0,0.1-0.1c0.1,0,0.1,0.1,0.1,0.1c0,0.2,0,0.3,0.1,0.5V91c0.1,0.1,0,0.1,0.1,0.1c0.1-0.1,0.2-0.1,0.2,0
								c0.1,0,0.1,0,0.2,0l0,0c-0.1-0.1,0-0.1,0-0.1h0.1c0.1,0-0.2-0.2,0-0.1c0-0.2,0-0.3,0.1-0.4c-0.1,0,0-0.1-0.2-0.1
								c0.2,0,0.3,0,0.3-0.1l0,0c0.3,0-0.2-0.2,0.1-0.1c-0.2-0.1,0.1-0.1-0.2-0.2c0.1,0,0.1,0,0.1,0c0-0.1,0.2-0.2,0.2-0.3
								c-0.2-0.1,0.1-0.2-0.1-0.3c0.1,0,0.2-0.1,0.1-0.2l0,0c0-0.1,0-0.2-0.2-0.3c0.3,0,0.2,0,0.3,0c-0.1-0.1-0.1-0.2-0.1-0.3
								c0.1,0,0-0.1,0.2-0.1c-0.3-0.3-0.1-0.6,0.2-0.9l0,0c-0.1-0.1-0.3-0.1-0.4-0.2l0,0c0-0.1,0.2-0.1,0.1-0.1c0,0,0,0,0.1,0
								C73.9,87,74.3,87,74,87h0.1H74c0.1,0,0.2,0,0.1,0c0.1-0.4-0.1-1,0-1.4h0.1l-0.1-0.1c0,0,0,0,0.1,0c0.1-0.1,0-0.2,0-0.3h0.1
								c-0.2-0.1,0.2-0.1-0.1-0.2h0.1c-0.1-0.2,0-0.5,0.1-0.8c-0.3-0.2,0-0.4-0.2-0.6h0.1c-0.2-0.3,0.1-0.5,0.1-0.9
								c0-0.1,0-0.2,0-0.3h0.1c-0.3-0.2,0.3-0.3,0-0.6h0.1c-0.2-0.1,0.1-0.1-0.2-0.1h0.1c-0.4-0.2,0.2-0.2,0-0.4h0.1
								c0-0.1-0.1-0.1,0-0.1l0,0c0.3-0.1,0-0.3,0.1-0.4h0.1c-0.1-0.1,0-0.2,0-0.3H75l-0.1-0.1H75C75.1,80,75,79.8,75,79.7z"/>
						</g>
					</g>
				</g>
			</g>
		</g>
		<g>
			<path class="st11" d="M81.8,90.9c0.6,0,2.9-13.9,2.9-13.9"/>
			<g>
				<g>
					<g>
						<g>
							<polygon class="st5" points="84,76.8 84,76.8 84.1,76.9 							"/>
							<path class="st5" d="M84.2,77C84.2,77,84.3,77,84.2,77L84,76.9C83.8,76.9,84.3,77,84.2,77z"/>
							<path class="st5" d="M84.2,77c-0.1,0,0.1,0,0.1,0.1C84.2,77,84.3,77,84.2,77z"/>
							<path class="st5" d="M84.3,79.9h0.1c-0.2-0.1,0-0.2,0-0.3l0,0c0.1-0.3,0-0.5-0.1-0.9c0,0,0,0,0.1,0c0,0-0.1,0-0.1-0.1h0.1
								c0.2,0-0.1-0.2,0.1-0.2h-0.1c0-0.2,0-0.5-0.1-0.8h0.1c-0.3-0.2-0.1-0.4,0-0.6c-0.1,0-0.1,0-0.2,0s0.2,0.1,0,0.2h-0.1
								c-0.1,0,0.2,0,0.1,0.1c-0.1,0-0.1,0-0.1,0c0,0.1-0.1,0.2,0.1,0.3c-0.2,0,0,0.1-0.2,0.1c0.1,0,0,0.1,0.1,0.1
								c-0.1,0.3,0,0.6-0.1,1c0.3,0.2-0.1,0.3,0,0.5l0,0c0.1,0.1,0.1,0.2,0,0.2l0.1,0.1c-0.3,0.3-0.2,0.9-0.4,1.3
								c-0.2,0.4-0.5,0.9-0.1,1.4c0,0,0,0-0.1,0c0,0.1-0.1,0.2-0.1,0.4l0,0c0.2,0.3-0.1,0.6,0.1,1.1c-0.1,0.3-0.1,0.9-0.1,1.2h-0.1
								c0.1,0.3-0.3,0.5-0.3,1c-0.2,0.3,0.2,0.8,0,1.1c-0.3,0.1,0.3,0.5-0.1,0.6c-0.6,0.3-0.3,0.8-0.1,1.2c-0.2,0.3,0.1,0.8-0.3,1.1
								c0.2,0.2-0.4,0.2-0.4,0.4h0.1c-0.2,0,0.3,0.2-0.1,0.2l0,0c-0.2,0,0.4,0.2,0.2,0.2h0.1c0,0.1-0.1,0-0.1,0l0.1,0.1
								c-0.3-0.2,0,0.2-0.3-0.1c0,0,0,0-0.1-0.1c0,0,0,0-0.1-0.1l0,0l0,0l0,0l0,0l0.1,0.1l0,0l0,0l0,0l0,0l0,0l0,0l0,0l0,0l-0.1-0.1
								l0,0c0,0,0.1,0,0.1-0.1c0.1,0,0.1,0.1,0.1,0.1c0,0.2,0,0.3,0.1,0.5v-0.1c0.1,0.1,0,0.1,0.1,0.1c0.1-0.1,0.2-0.1,0.2,0
								c0.1,0,0.1,0,0.2,0l0,0c-0.1-0.1,0-0.1,0-0.1h0.1c0.1,0-0.2-0.2,0-0.1c0-0.2,0-0.3,0.1-0.4c-0.1,0,0-0.1-0.2-0.1
								c0.2,0,0.3,0,0.3-0.1l0,0c0.3,0-0.2-0.2,0.1-0.1c-0.2-0.1,0.1-0.1-0.2-0.2c0.1,0,0.1,0,0.1,0c0-0.1,0.2-0.2,0.2-0.3
								c-0.2-0.1,0.1-0.2-0.1-0.3c0.1,0,0.2-0.1,0.1-0.2l0,0c0-0.1,0-0.2-0.2-0.3c0.3,0,0.2,0,0.3,0c-0.1-0.1-0.1-0.2-0.1-0.3
								c0.1,0,0-0.1,0.2-0.1c-0.3-0.3-0.1-0.6,0.2-0.9l0,0c-0.1-0.1-0.3-0.1-0.4-0.2l0,0c0-0.1,0.2-0.1,0.1-0.1c0,0,0,0,0.1,0
								c-0.1-0.1,0.2-0.1,0-0.1h0.1h-0.1c0.1,0,0.2,0,0.1,0c0.1-0.4-0.1-1,0-1.4h0.1l-0.1-0.1c0,0,0,0,0.1,0c0.1-0.1,0-0.2,0-0.3
								h0.1c-0.2-0.1,0.2-0.1-0.1-0.2h0.1c-0.1-0.2,0-0.5,0.1-0.8c-0.3-0.2,0-0.4-0.2-0.6h0.1c-0.2-0.3,0.1-0.5,0.1-0.9
								c0-0.1,0-0.2,0-0.3h0.1c-0.3-0.2,0.3-0.3,0-0.6H84c-0.2-0.1,0.1-0.1-0.2-0.1h0.1c-0.4-0.2,0.2-0.2,0-0.4H84
								c0-0.1-0.1-0.1,0-0.1l0,0c0.3-0.1,0-0.3,0.1-0.4h0.1c-0.1-0.1,0-0.2,0-0.3h0.1l-0.1-0.1h0.1C84.4,80.1,84.3,80,84.3,79.9z"/>
						</g>
					</g>
				</g>
			</g>
		</g>
		<g>
			<path class="st11" d="M43.7,140.9l1,2.6c0.4,1.1-0.2,2.4-1.3,2.7l-19.9,7.1c-1.1,0.4-2.4-0.2-2.7-1.3l-1-2.5
				c-0.4-1.1,0.2-2.4,1.3-2.7l19.9-7.1C42.1,139.3,43.4,139.8,43.7,140.9z"/>
			<g>
				<g>
					<g>
						<g>
							<polygon class="st5" points="44.5,140.7 44.5,140.7 44.4,140.6 							"/>
							<path class="st5" d="M43.9,140.2L43.9,140.2c0.1,0.1,0.2,0.1,0.4,0.2C44.5,140.2,43.9,140.3,43.9,140.2z"/>
							<path class="st5" d="M43.9,140.1c0-0.1-0.2-0.1-0.2-0.1C43.8,140,43.8,140.2,43.9,140.1z"/>
							<path class="st5" d="M31.9,142.9v0.1c0.4-0.3,1-0.3,1.4-0.6l0,0c1.2-0.4,2.3-1,3.5-1.5v0.1c0-0.1,0.1-0.1,0.1-0.2v0.1
								c0.3,0.1,0.8-0.4,0.9-0.3c0.1,0,0.1-0.1,0-0.2c1-0.4,1.9-0.8,2.8-1.3c0.1,0,0.1,0.1,0.1,0.1c0.3-0.3,1-0.4,1.5-0.3
								c0.5,0.1,1.1,0.4,1.4,0.9c0.1,0,0-0.1,0.1-0.1c-0.2-0.3-0.6-0.3-0.9-0.5H43c-0.2-0.1-0.1,0.2-0.3,0c-0.1-0.1,0.1-0.1,0-0.1
								c-0.5-0.1-1.1-0.2-1.5,0c-0.1-0.1-0.2,0-0.3,0c-0.1,0-0.2,0.1-0.3,0c-0.1,0.1-0.2,0.1-0.2,0.2c-1.4,0.4-2.7,1.1-4,1.5
								c-0.5,0.5-1.4,0.4-2.2,0.9l0,0c-0.2,0.2-0.5,0.3-0.9,0.4l-0.2,0.2c-1.8,0.3-3.6,1.2-5.4,1.7c-2.1,0.6-4,1.1-5.8,2.2
								c0,0,0,0,0-0.1c-0.3,0.1-0.5,0.2-0.9,0.3c-0.3,0.1-0.6,0.2-0.9,0.5l0,0c-0.5,0.6-0.9,1.5-0.8,2.3c0.2,0.8,0.4,1.4,0.9,2.1
								c0.1,0.4,0.2,0.8,0.4,1.2c0.2,0.4,0.5,0.8,1,1c0.4,0.2,1,0.3,1.4,0.2c0.4-0.1,0.9-0.3,1.3-0.4v0.1c1.3-0.6,2.7-0.8,4-1.3
								c1.4-0.3,2.7-1.4,4.1-1.6c1,0,1.8-1.1,2.8-1.1c1.8-0.1,3.4-1,4.9-1.8c0.8-0.2,1.5-0.5,2.3-0.9c0.3-0.1,0.8-0.3,1.1-0.4
								c0.3-0.1,0.6-0.3,0.9-0.6c0.1-0.3,0.2-0.6,0.4-1.1c0.1-0.4,0.1-0.9-0.1-1.2h0.1c0.1-0.3-0.5-0.5-0.2-0.8l0,0
								c0.1-0.2-0.5-0.2-0.3-0.3H44c-0.1-0.2,0.1-0.1,0.1-0.2c0,0-0.2,0-0.1-0.1c0.3-0.1-0.2-0.4,0.2-0.5c0,0.1,0.1-0.2,0.2,0
								c0-0.1-0.1-0.3-0.3-0.3c-0.2,0-0.4,0-0.4,0.2h0.1c-0.1,0.1,0,0.1-0.1,0.1c0.1,0.2-0.1,0.3-0.1,0.5l0,0
								c0.2,0.1,0.2,0.2,0.2,0.3l-0.1,0.1c-0.1,0.1,0.4,0.1,0.1,0.2c0.2,0.4,0.4,1.1,0.6,1.5c0.1,0,0,0.3,0.2,0.2
								c-0.2,0.1-0.3,0.4-0.3,0.5l0,0c-0.3,0.1,0.2,0.3-0.2,0.4c0.2,0.2-0.2,0.2-0.1,0.5c-0.1,0-0.1-0.1-0.1-0.1
								c-0.1,0.1-0.3,0.2-0.5,0.2c-0.2,0.1-0.5,0.1-0.8,0.2c-0.3,0.3-0.9,0.2-1.1,0.6c-0.3,0-0.8,0-1.1,0.3l0,0
								c-0.4,0.1-0.9,0.3-1.1,0.6c-0.2-0.2-0.3-0.1-0.5-0.2c-0.2,0.2-0.8,0.4-1.1,0.6c-0.1-0.1-0.3,0.2-0.4,0
								c-1,0.8-2.5,1.2-3.8,1.3l0,0c-0.1,0.2-0.2,0.4-0.3,0.6c0,0,0,0,0-0.1c-0.2,0.1-0.4,0-0.6,0.1c0,0,0,0,0-0.1
								c-0.2,0.1-0.4,0-0.6,0.2l0,0l-0.1,0.1c0-0.1,0-0.2,0-0.2c-1.9,0.6-3.8,1.6-5.7,2.3v-0.1l-0.3,0.2v-0.1
								c-0.5,0.1-1,0.4-1.4,0.5v-0.1c-0.3,0.3-0.6,0-0.6,0.4c0,0-0.1-0.1,0-0.1c-0.8,0.5-1.8,0.1-2.2-0.6c-0.3-0.2-0.4-0.8-0.6-1.1
								c-0.1-0.4-0.3-0.9-0.5-1.3h0.1c-0.3-0.5-0.5-1.1-0.3-1.6c0.2-0.5,0.6-1,1.1-1.3c0.4-0.1,0.8-0.3,1.2-0.5v0.1
								c0.6-0.6,1.7-0.3,2.5-1v0.1c0.1-0.2,0.5-0.1,0.3-0.4h0.2c0.4-0.6,1.1-0.2,1.7-0.6v0.1c0.2-0.1,0.3-0.2,0.5-0.2c0,0,0,0,0,0.1
								c0.6,0.1,1.2-0.4,1.8-0.6v0.1c0.2-0.2,0.9-0.3,1.2-0.5v0.1l0.2-0.1v0.1C30.9,143.5,31.4,143.2,31.9,142.9z"/>
						</g>
					</g>
				</g>
			</g>
		</g>
	</g>
</g>
</svg>
