<?xml version="1.0" encoding="utf-8"?>
<!-- Generator: Adobe Illustrator 23.0.1, SVG Export Plug-In . SVG Version: 6.00 Build 0)  -->
<svg version="1.1" id="Layer_1" xmlns="http://www.w3.org/2000/svg" xmlns:xlink="http://www.w3.org/1999/xlink" x="0px" y="0px"
	 viewBox="0 0 200 170" style="enable-background:new 0 0 200 170;" xml:space="preserve">
<style type="text/css">
	.st0{fill:#EAB9C5;}
	.st1{fill:#D97294;}
	.st2{fill:#F5E1E5;}
	.st3{fill:#F8E9EC;}
	.st4{fill:#E299AD;}
	.st5{fill:#D45D85;}
	.st6{fill:#FDF8F9;}
	.st7{fill:#F3DADF;}
	.st8{fill:none;}
	.st9{fill:none;stroke:#B5DFCC;stroke-width:2;stroke-linecap:round;stroke-linejoin:round;stroke-miterlimit:10;}
	.st10{fill:#DB7C99;}
	.st11{fill:#FAF0F2;}
	.st12{fill:#F6E5E8;}
	.st13{fill:#DA7194;}
	.st14{fill:#F3A169;}
	.st15{fill:none;stroke:#EBB1C5;stroke-miterlimit:10;}
	.st16{fill:#0075C2;}
</style>
<g>
	<g>
		<g>
			<path class="st0" d="M67,51.8c-13.8-4-36.6-0.3-52.4,2.9C-1.2,57.8,1.7,67.3,1.7,67.3s0,15.5,0,18.7c0,3.2,1.8,7.2,6.7,8.6
				c4.9,1.4,19.9,2.2,27.1,10.8c7.2,8.6,20.9,17.9,42.7,13c21.8-4.9,24.4-12.6,24.4-18.1s0-16.1,0-16.1C104.2,62,80.8,55.8,67,51.8z
				"/>
			<g>
				<g>
					<g>
						<g>
							<polygon class="st1" points="66.9,52.4 67,52.5 67.3,52.5 							"/>
							<path class="st1" d="M69.1,52.8C69,52.8,69.1,52.8,69.1,52.8l-1.4-0.2C68.2,53,68.8,52.6,69.1,52.8z"/>
							<path class="st1" d="M69.5,53c0.5,0.2,0.7,0.1,0.9,0.1C70.1,53.1,69.4,52.8,69.5,53z"/>
							<path class="st1" d="M102.2,79.6c0,0,0-0.1,0-0.2C102.2,79.6,102.2,79.6,102.2,79.6z"/>
							<path class="st1" d="M102.7,91.5l0.1,0.1c-0.2-2.2,0-4.7-0.1-7.1l0,0.2c0.5-5.9-0.9-11.7-4.6-16.4c0.1,0.1,0.1,0.1,0.2,0.1
								c-0.2-0.2-0.4-0.4-0.6-0.7c0-0.1,0.1,0,0.2,0.1c-0.6-1.1-2.5-2.7-3-3.3c-0.3-0.2-0.4-0.3-0.3-0.1c-3.4-3.1-7.8-5.5-12.2-7.2
								c-0.2-0.1-0.2-0.2-0.1-0.2c-3.8-1.3-7.8-2.7-11.7-3.9c-0.2,0,0.4,0.2,0,0.2c1.2,0.5,2.4,0.5,3.5,1l-0.2,0
								c0.8,0.3,0.2-0.1,1.1,0.2c0.3,0.2-0.1,0.1,0,0.1c1.8,0.5,3.6,1.3,5.2,1.7c0.3,0.3,1.8,0.7,2.4,1.2c0.5,0.1,0.9,0.3,1.1,0.3
								c2.9,1.4,5.8,2.9,8.4,4.9c1.3,1,2.6,2,3.7,3.2c1.1,1.2,2.2,2.4,3,3.8c1,1.2,1.7,2.7,2.2,4.4c0.5,1.7,0.9,3.5,1.1,5.3
								c0,0,0,0,0,0c0.2,1.2,0.3,2.9,0.1,4.4c0,0.4,0.1,0.8,0.1,1.2c-0.1,4.3-0.2,8.7-0.2,13.1c0,1.1,0,2.2-0.1,3.3
								c-0.1,1.1-0.3,2.1-0.7,3.1c-0.8,2-2.2,3.7-3.8,5.1c-1.9,1.6-4,2.8-6.1,3.8c-1.1,0.5-2.2,0.9-3.2,1.3
								c-1.1,0.4-2.2,0.8-3.3,1.1c-4.4,1.4-8.9,2.5-13.7,3.2c0,0-0.1,0,0.2-0.1c-2.8,0.4-5.3,0.3-8,0.2l0,0
								c-3.3-0.1-6.6-0.7-9.8-1.7c-3.2-1-6.2-2.5-9-4.1c-3.3-2.1-6.4-4.8-9.1-7.9c-1.4-1.6-2.9-3-4.7-4.1c-1.8-1.1-3.6-2-5.6-2.7
								l0-0.1c-3.1-1.1-6.2-1.9-9.3-2.6c-1.6-0.4-3.1-0.7-4.7-1c-1.6-0.3-3.2-0.6-4.6-1.3c-3-1.4-5.1-4.6-5.1-8
								c-0.1-3.5-0.2-6.9-0.1-10.3c0.2-2.1,0.1-4.5,0-6.9l0-0.9c0-0.1,0-0.3,0-0.4c0-0.1-0.1-0.3-0.1-0.4c-0.1-0.6-0.1-1.2-0.1-1.7
								c0-1.1,0.4-2.2,0.9-3.1c1-1.8,2.5-3.1,4.2-4.1c1.7-1.1,3.5-1.7,5.4-2.3l2.9-0.8l2.9-0.7c1.9-0.4,3.9-0.9,5.9-1.3
								c7.4-1.1,14.7-2.6,21.9-2.7c3.4-0.4,7.2,0,11,0.1l-0.1-0.1c0.7,0.2,1.4,0.1,2.1,0.1c0.7,0,1.3,0,1.7,0.2l-0.1,0
								c0.7,0.3,1.7-0.2,2.1,0.1l0.1-0.1c0.9,0.1,0.1,0.1,0.7,0.3c0.3,0,0.1-0.1,0.6,0c0.1,0.3,2.1,0.4,2.1,0.8
								c-0.5-0.1,0.7,0.3-0.4,0.2c0.3,0.1,1.7,0.4,1.6,0.2c0.2-0.1,0.8-0.1-0.1-0.5l-0.2,0.1c-0.3-0.2-0.2-0.1-0.3-0.2
								c-1.1-0.3-1.2-0.5-2-0.8c0,0,0,0,0,0c-0.6,0.1-1.4-0.2-1.8-0.3l-0.2-0.1c-0.3-0.2-1.4,0.1-1-0.1c-2.4-0.2-5.1-0.5-7.8-0.5
								c-0.4,0.1-2,0-1.5,0.2c-0.7-0.2-2.6-0.2-3.4-0.2c0,0,0.1,0,0.2,0c-1.4-0.2-1.7,0.3-3,0c-0.2,0.2-2.4,0.1-3.2,0.4
								c-0.2,0-0.2-0.1-0.2-0.1c-2.4,0.2-5,0.4-7.1,0.6c-1.7,0.4-4.2,0.4-5.6,1c-1.2,0.1-3.2,0.3-4.9,0.7l0.2-0.1
								c-1.9,0.3-4.3,0.8-5.6,1.2c-0.6-0.2-1.4,0-2.3,0.1c-0.6,0.2-1.6,0.4-2.6,0.6c-1,0.3-2.2,0.6-3.1,0.9c-0.3,0-1.6,0.6-1.7,0.4
								c-2.6,1.1-5.5,2.7-7.4,5.4c-0.9,1.4-1.5,3-1.6,4.6c0,0.4,0,0.8,0,1.2c0,0.2,0,0.4,0.1,0.6c0,0.1,0,0.1,0,0.2l0,0.3
								c0,0.8-0.1,1.5-0.1,2.3l0-0.1c0.1,0.8,0.3,1.7,0.5,2.4c0,0.1,0,0.1,0-0.1c0,1.1-0.2,2.1-0.1,3.2c0,0,0,0-0.1-0.2
								c0.1,1-0.2,2.1,0,3.3l-0.1,0.1l0.1,0.8c-0.1,0-0.2,0-0.1-0.5c0,2.3,0,4.7,0,7c0,2.5,1,5,2.8,6.7c0.9,0.9,2,1.5,3.1,2
								c1.1,0.5,2.3,0.7,3.5,0.9c2.4,0.4,4.7,0.8,7,1.3l-0.4,0l1.8,0.3c0,0-0.1,0-0.2,0c2.2,0.6,4.6,1.2,6.7,2c0,0-0.4,0-0.1,0.1
								c1.6,0.4,2.4,1.3,3.3,1.3c0.1,0.1,0.1,0.1-0.1,0.1c2.1,1,4.1,2.4,5.7,4.1c0.8,0.8,1.6,1.8,2.4,2.7c0.8,0.9,1.7,1.7,2.6,2.5
								c3.1,2.4,6.7,5.1,10.7,6.6l0,0.1c4.9,2,10.5,3.3,16.1,3.3c1.1,0.1,2.1-0.1,3.1-0.1c0.5,0,1,0,1.5-0.1c0.5-0.1,1-0.1,1.6-0.2
								l0.1,0.1c1.9-0.3,3.9-0.7,6-1c2-0.4,4.1-0.8,6-1.6l-0.2,0.2c0.6-0.3,2.4-0.6,2-0.9l0.7-0.2c0.6-0.3,1.2-0.6,1.8-0.8
								c0.6-0.2,1.2-0.5,1.8-0.7c0.3-0.1,0.6-0.2,1-0.3c0.3-0.1,0.6-0.3,1-0.4c0.7-0.3,1.4-0.6,2-1.1l-0.2,0.2
								c0.7-0.5,1.6-1.1,2.2-1.4c-0.1,0.1,0,0.1-0.2,0.2c2.5-1.4,4.7-3.9,5.7-6.7l0,0.4c0.1-0.2,0.1-0.4,0.2-0.6
								c0.1-0.2,0.1-0.4,0.2-0.7c0.2-0.5,0.2-1,0.4-1.5c0.2-1.1,0.2-2.2,0.2-3.1l0.1,0.1l-0.1-1l0.1,0
								C102.9,96.2,102.8,93.9,102.7,91.5z"/>
							<path class="st1" d="M98,67.9L98,67.9C98,68,98,68,98,67.9z"/>
							<path class="st1" d="M64.1,50.5c0.1,0,0.2,0.1,0.3,0.1C64.4,50.5,64.2,50.5,64.1,50.5z"/>
						</g>
					</g>
				</g>
			</g>
		</g>
		<g>
			<path class="st7" d="M26.5,77.6C17,75,8.2,76.6,5.7,69.1c0,0,0,10.3,0,13.1s2.8,6.4,7.2,7.7s17,1.8,23.4,9.5s19.6,19.8,39.2,15.5
				s21.9-11.3,21.9-16.2c0-4.9,0-14.4,0-14.4s-1,9.5-11.6,11.6"/>
			<g>
				<g>
					<g>
						<g>
							<polygon class="st1" points="85.9,96.5 86,96.6 86.2,96.4 							"/>
							<path class="st1" d="M87.3,95.9C87.3,95.9,87.3,95.9,87.3,95.9l-0.9,0.5C86.9,96.5,87,95.9,87.3,95.9z"/>
							<path class="st1" d="M87.6,95.9c0.4,0,0.4-0.2,0.5-0.3C88,95.8,87.5,95.8,87.6,95.9z"/>
							<path class="st1" d="M97,97.5c0,0,0-0.1,0-0.1C97,97.5,97,97.5,97,97.5z"/>
							<path class="st1" d="M95.7,104.8l0.1,0.1c0.6-1.3,1.4-2.7,1.6-4.3l0,0.1c0.2-0.9,0.2-1.9,0.2-2.8c0-0.9,0-1.8-0.1-2.7
								c-0.1-1.8-0.1-3.6-0.2-5.5c0,0.1,0,0.1,0.1,0.1c0-0.2-0.1-0.4-0.1-0.6c0-0.1,0.1,0.1,0.1,0.1c0.2-0.8-0.1-2.3,0-2.8
								c0-0.2-0.1-0.3-0.2-0.2c0-0.7,0-1.4,0-2.1l0.5,0c-0.3,2.3-1.3,4.7-2.7,6.6c-0.1,0.1-0.2,0.1-0.2,0c-1.4,2.3-3.9,3.9-6.4,4.7
								c-0.1,0.1,0.3,0,0.1,0.2c0.4-0.1,0.8-0.3,1.1-0.5c0.3-0.2,0.7-0.4,1-0.5l-0.1,0.1c0.5-0.2,0-0.2,0.6-0.4
								c0.2-0.1,0,0.1,0.1,0.1c1-0.7,2.1-1.4,2.8-2.4c0.2,0,0.4-0.3,0.6-0.5c0.2-0.3,0.5-0.6,0.7-0.7c0.2-0.3,0.3-0.6,0.3-0.7
								c1.2-1.7,2-3.7,2.3-5.8l-0.9-0.1c0,2.2,0.1,4.3,0.1,6.5c0.3,2-0.1,4.4,0,6.7c0,0,0,0,0,0c0.1,0.8,0.1,1.9,0,2.8
								c0,0.3,0,0.5,0,0.8c-0.3,1.3-0.9,2.6-1.7,3.7c-0.8,1.1-1.8,2.1-2.8,2.9c-2.1,1.7-4.7,3-7.3,4c-3,1.1-5.8,1.9-8.7,2.5
								c-1.4,0.4-2.9,0.6-4.3,0.9c-0.7,0.2-1.5,0.2-2.2,0.3c-0.7,0.1-1.5,0.2-2.3,0.2c0,0,0,0,0.1-0.1c-0.9,0-1.7,0-2.6,0
								c-0.8-0.1-1.6-0.2-2.5-0.3l0,0c-4.2-0.3-8.4-2-12-3.7c-2.1-1.2-4.3-2.6-6.4-4.2c-2.1-1.6-4-3.5-5.8-5.3l0.1,0
								c-1.5-1.4-2.6-3.2-4.2-4.5c-1.5-1.4-3.3-2.5-5.2-3.3c-3.9-1.9-8.5-2.4-12.6-3.3c-1.3-0.4-2.8-0.5-4.3-1
								c-1.5-0.4-2.8-1.2-3.7-2.1c-0.9-0.9-1.6-2-2.1-3.1C6.2,84,6,83.4,5.9,82.8c-0.1-0.6,0-1.2-0.1-1.9c-0.1-2.5-0.2-5.1-0.3-7.6
								c0.1-1.4,0-2.8,0-4.2l0-0.6L5.8,69c0.6,1.5,1.5,2.9,2.8,3.9c1.3,1,2.8,1.5,4.3,2.1c2.1,0.3,4.4,1.1,6.8,1.4l-0.1-0.1
								c0.8,0.4,2,0,2.4,0.4l-0.1,0c0.4,0.3,1.1-0.2,1.4,0l0.1-0.1c0.6,0.1,0,0.1,0.5,0.2c0.2,0,0.1-0.1,0.4,0
								c0,0.4,1.3,0.2,1.3,0.6c-0.3-0.1,0.4,0.3-0.3,0.2c0.2,0.1,1.1,0.3,1,0.1c0.1-0.2,0.5-0.2,0-0.5l-0.1,0.1
								c-0.2-0.2-0.1-0.1-0.2-0.2c-0.7-0.2-0.8-0.4-1.3-0.6c0,0,0,0,0,0c-0.4,0.1-0.9-0.1-1.1-0.2l-0.1-0.1
								c-0.1-0.2-0.9,0.1-0.6-0.1c-1.5-0.2-3.2-0.5-4.9-0.7c-0.2,0.1-1.3-0.2-0.9,0c-0.4-0.3-1.6-0.5-2.1-0.6c0,0,0,0,0.1,0
								c-0.8-0.5-1.1,0.1-1.8-0.5c-0.2,0.2-1.4-0.5-1.9-0.4c-0.1-0.1-0.1-0.1,0-0.2c-1.4-0.5-2.7-1.4-3.5-2.3
								c-0.9-0.5-1.3-2-1.9-2.8l-1.6-1.8l0.6,2l0,0c-0.1,0.8-0.2,2.1-0.1,3.1l0-0.1c0,1.2,0,2.8,0.2,3.6C5,76.1,5,76.7,5,77.2
								C5.1,78,5,79.7,5.2,80.9C5,81.1,5.2,82,5,82c0.1,2,1.3,3.9,2.7,5.3c1.4,1.5,3.3,2.6,5.2,3.3l-0.1,0c0.5,0,1.1-0.1,1.7-0.1
								c0,0,0,0.1-0.1,0c0.7,0.1,1.3,0.4,2,0.5c0,0,0,0-0.1,0c0.6,0,1.3,0.4,2.1,0.4l0,0.1l0.5,0c0,0.1-0.1,0.2-0.3,0.1
								c2.9,0.6,5.8,1.2,8.6,2.2c2.8,1,5.5,2.4,7.7,4.5l-0.2-0.1c0.3,0.2,0.6,0.5,0.9,0.7c0,0-0.1,0-0.1,0c0.9,1.1,2,2.3,3,3.3
								c0,0-0.2-0.1-0.1,0.1c0.9,0.7,1.1,1.4,1.7,1.5c0,0,0,0.1-0.1,0.1c2.2,2,4.6,4,7.1,5.8c2.3,1.2,4.6,2.8,7.2,3.5l0,0.1
								c0.8,0.2,1.6,0.6,2.5,0.8c0.8,0.2,1.7,0.5,2.5,0.8c0.9,0.2,1.7,0.4,2.6,0.6c0.9,0.2,1.8,0.2,2.6,0.3c0.7,0.1,1.3,0.1,2,0.1
								c0.6,0,1.2,0,2,0l0,0.1c1.2-0.2,2.5-0.3,3.8-0.3c1.3-0.2,2.6-0.3,3.9-0.8l-0.1,0.2c0.3-0.3,1.5-0.3,1.3-0.6l0.5,0
								c0.8-0.4,1.6-0.5,2.4-0.7c0.8-0.2,1.7-0.3,2.7-0.8l-0.1,0.1c0.5-0.2,1.1-0.5,1.6-0.6c-0.1,0,0,0-0.1,0.1
								c1.8-0.3,3.5-1.4,5.2-2.3l-0.1,0.2c0.7-0.6,2.3-1.3,3.2-2.1l0,0.1c0.1-0.1,0.3-0.3,0.4-0.4l0.1,0.1
								C93.9,107.2,94.9,106.1,95.7,104.8z"/>
							<path class="st1" d="M97.3,89.4C97.3,89.4,97.3,89.4,97.3,89.4C97.3,89.4,97.3,89.4,97.3,89.4z"/>
							<path class="st1" d="M24.7,76.6c0.1,0,0.1,0,0.2,0.1C24.9,76.6,24.8,76.6,24.7,76.6z"/>
						</g>
					</g>
				</g>
			</g>
		</g>
		<g>
			<path class="st3" d="M48.7,110.5V94.2l0,0c-8.6-5.6-15-14.7-22.2-16.7C17,75,8.2,76.6,5.7,69.1c0,0-2.6-8.5,11.6-11.3
				s35.8-6.2,48.2-2.6s33.3,9.2,32,29.1c0,0-1,9.5-11.6,11.6c-7.9,1.5-12.1,3.8-19.4,3.6l0,0v16.4"/>
			<g>
				<g>
					<g>
						<g>
							<polygon class="st1" points="67.1,115.9 67.1,115.7 67,115.5 							"/>
							<path class="st1" d="M66.8,114C66.8,114,66.8,114,66.8,114l0.2,1.2C67.2,114.7,66.7,114.3,66.8,114z"/>
							<path class="st1" d="M66.9,113.6c0.1-0.4-0.1-0.6-0.1-0.7C66.8,113.1,66.7,113.7,66.9,113.6z"/>
							<path class="st1" d="M89.8,95c0,0-0.1,0-0.1,0.1C89.8,95,89.8,95,89.8,95z"/>
							<path class="st1" d="M96.3,87.6l-0.1-0.1c-0.5,1.8-1.9,3.5-3.3,4.8c0,0,0.1-0.1,0.1-0.1c-1.8,1.7-4,2.8-6.3,3.4
								c-1.1,0.3-2.3,0.6-3.5,0.9c-1.2,0.3-2.3,0.6-3.5,1c0.1,0,0.1-0.1,0.2-0.1c-0.2,0.1-0.5,0.2-0.7,0.3c-0.1,0,0.1-0.1,0.1-0.1
								c-1.1,0.1-2.9,0.9-3.6,0.9c-0.3,0.1-0.4,0.2-0.2,0.2c-1.9,0.5-3.9,0.9-5.9,1c-0.5,0.1-1,0.1-1.5,0.1c-0.3,0-0.5,0-0.8,0
								l-0.6,0c0,0-0.2,0-0.2,0l0,0.2l0,0.6c0,0.5,0,1,0,1.5c0,0.2-0.1,0.2-0.1,0.2c0.3,3.4,0.2,6.9,0.1,10.3c0.1,0.1,0.1-0.4,0.2,0
								c0.1-1.1-0.2-2,0-3l0.1,0.1c0-0.7-0.2-0.1-0.1-0.9c0.1-0.3,0.1,0.1,0.1-0.1c0-1.6,0-3.2-0.1-4.6c0.2-0.4,0-1.7,0.2-2.2
								c-0.1-0.4,0-0.8-0.2-1l0-0.8c0,0,0-0.1,0-0.1l0.2,0l0.4,0c0.2,0,0.3,0,0.5,0l1,0c1.4-0.1,2.8-0.3,4.2-0.5
								c2.8-0.5,5.4-1.4,8.1-2.1c1.2-0.5,2.6-0.8,4.1-1c0.7-0.1,1.5-0.3,2.3-0.5c0.4-0.1,0.7-0.3,1.1-0.4c0.4-0.1,0.7-0.3,1.1-0.5
								c0,0,0,0,0,0c0.9-0.5,2.2-1.3,3.1-2.1c0.2-0.3,0.5-0.5,0.7-0.8c1.3-1.2,2.4-2.8,3.2-4.5c0.4-0.9,0.7-1.8,0.8-2.7
								c0.1-0.5,0.1-1,0.1-1.4c0-0.5,0.1-0.9,0-1.4c0-3.7-1-7.5-2.9-10.7c-2.2-3.7-5.3-6.4-8.6-8.5c-3.3-2.1-7-3.6-10.9-4.8
								c0,0,0-0.1,0.2,0c-2.2-0.7-4.3-1.5-6.4-2.1l0,0c-2.7-0.6-5.4-1.6-8.2-1.9c-2.8-0.4-5.6-0.6-8.3-0.5
								c-6.5-0.1-13.7,0.6-20.5,1.6l0-0.1c-5.4,0.9-10.6,1.5-15.9,2.7c-2.7,0.5-5.6,1.6-7.8,3.5c-1.1,1-2,2.1-2.5,3.5
								c-0.5,1.3-0.7,2.8-0.4,4.2c0.1,0.4,0.3,0.8,0.5,1.3c0.2,0.4,0.5,0.8,0.7,1.2c0.3,0.4,0.6,0.8,1,1.1c0.4,0.3,0.8,0.6,1.2,0.9
								c1.7,1,3.7,1.4,5.2,1.9c3.3,0.9,6.6,1.3,9.8,1.9c1.6,0.3,3.3,0.6,4.8,1.3c1.5,0.7,3,1.5,4.3,2.5c4.8,4,9.3,8.3,14,12
								c0.3,0.2,0.6,0.4,0.9,0.6l0.5,0.3l0.3,0.2c0,0.1,0,0.2,0,0.3c0,0.8-0.1,1.5-0.1,2.3c-0.1,1.5-0.2,3.1-0.2,4.7l0.1-0.1
								c-0.2,1.1,0.3,2.5,0,3.2l0-0.1c-0.2,0.6,0.4,1.4,0.2,1.8l0.1,0.1c0,0.7-0.1,0.1-0.1,0.6c0,0.2,0.2,0.1,0.1,0.5
								c-0.4,0.1,0.1,1.8-0.3,1.8c0-0.4-0.2,0.6-0.2-0.3c0,0.3,0,1.5,0.2,1.4c0.2,0.1,0.3,0.6,0.5-0.2l-0.1-0.1
								c0.1-0.3,0.1-0.2,0.2-0.3c0-1,0.2-1.1,0.3-1.8c0,0,0,0,0,0c-0.2-0.5-0.1-1.1,0-1.5l0.1-0.2c0.2-0.2-0.3-1.1,0-0.8
								c-0.1-2-0.1-4.2-0.1-6.4c-0.1-0.3,0-1.7-0.2-1.2c0.2-0.6,0.3-2.2,0.3-2.8c0,0,0,0,0,0.1c0.1-0.3,0.1-0.5,0.1-0.8
								c0-0.2,0-0.4,0-0.5c0-0.1-0.1-0.1-0.2-0.2L49,93.7c-0.3-0.2-0.4-0.2-0.6-0.3c-0.2-0.1-0.3-0.3-0.5-0.5
								c-0.3,0.1-1.6-1.2-2.2-1.4c-0.1-0.1-0.1-0.2,0-0.2c-1.6-1.2-3.1-2.8-4.4-3.9c-1.2-0.8-2.5-2.4-3.6-3
								c-0.7-0.7-1.9-1.9-3.1-2.8l0.1,0.1c-1.3-1-3-2.2-4-2.6c-0.3-0.5-0.9-0.8-1.6-1.2c-0.3-0.1-0.6-0.2-1-0.4
								c-0.4-0.1-0.8-0.2-1.3-0.4c-0.9-0.2-1.8-0.4-2.7-0.5c-0.2-0.2-1.4-0.2-1.4-0.4c-2.3-0.2-4.9-0.5-7.5-1
								c-1.3-0.2-2.6-0.5-3.7-1c-0.6-0.2-1.1-0.5-1.7-0.8c-0.5-0.3-1-0.7-1.4-1.1l0.1,0C8.1,72,7.5,71.7,7,71.2c0-0.1,0-0.1,0.1,0
								c-0.2-0.4-0.5-0.7-0.6-1.1C6.3,69.7,6.2,69.4,6,69c0,0,0,0,0.1,0.1c-0.2-0.3-0.2-0.8-0.2-1.2c0-0.4,0-0.9,0-1.3l0.1,0
								c0-0.2,0-0.4,0-0.6c0.1,0,0.1,0.1,0.1,0.4c0.2-0.9,0.5-1.7,1-2.5c0.5-0.7,1.1-1.5,1.8-2c1.4-1.2,3.2-2.1,5-2.7
								c1.8-0.7,3.8-1,5.7-1.5c1.9-0.4,3.9-0.8,5.9-1.1l-0.3,0.1l1.5-0.4c0,0-0.1,0.1-0.1,0.1c2-0.2,3.9-0.7,5.8-0.9
								c0,0-0.3,0.1,0,0.1c1.4-0.4,2.3-0.1,2.9-0.5c0.1,0,0.1,0.1,0,0.1c3.9-0.6,7.9-1,11.9-1.1c3.3-0.5,7-0.2,10.4-0.2l0,0.1
								c2.2,0.1,4.5,0.4,6.7,1c2.2,0.6,4.4,1.3,6.7,2c1.8,0.6,3.1,0.9,4.9,1.6l0,0.1c3.2,0.8,6.2,2.8,9.2,4.2l-0.3,0
								c0.5,0.1,1.7,1.1,1.7,0.8L87,64c2.1,1,3.3,2.6,5.3,4.5l-0.2-0.1c0.5,0.5,1.1,1.2,1.4,1.7c-0.1-0.1-0.1,0-0.2-0.2
								c1.2,2,2.6,4.2,3.3,6.6l-0.2-0.2c0.5,1.1,0.7,3.3,0.9,4.8L97.3,81l0.1,0.8l-0.1,0c0,0.5,0,1,0,1.5c0,0.5,0,1-0.1,1.5
								C97,85.7,96.7,86.7,96.3,87.6z"/>
							<path class="st1" d="M79.4,97.5L79.4,97.5C79.5,97.4,79.5,97.4,79.4,97.5z"/>
							<path class="st1" d="M49.3,107.8c0,0.1,0,0.2,0,0.3C49.3,108.1,49.3,107.9,49.3,107.8z"/>
						</g>
					</g>
				</g>
			</g>
		</g>
		<g>
			<path class="st4" d="M93.3,81.7c0,0-2.5,10.2-11.6,11.8s-16,2.5-24.8-1c-11.2-4.4-19.3-16.8-27.5-18.8S12,73.3,9.8,67.3
				c0,0-0.1-5,12.1-7.2s30.9-5,41.6-2.1S94.5,65.7,93.3,81.7z"/>
			<g>
				<g>
					<g>
						<g>
							<polygon class="st1" points="93.9,81.8 94,81.7 93.9,81.4 							"/>
							<path class="st1" d="M93.7,80.1C93.7,80.2,93.7,80.1,93.7,80.1l0.2,1C94.1,80.7,93.6,80.4,93.7,80.1z"/>
							<path class="st1" d="M93.8,79.8c0.1-0.4-0.1-0.5-0.1-0.6C93.7,79.4,93.6,79.9,93.8,79.8z"/>
							<path class="st1" d="M71.4,59.8c0,0,0.1,0,0.1,0C71.4,59.8,71.4,59.8,71.4,59.8z"/>
							<path class="st1" d="M63.3,58l-0.1,0.1c1.5,0.2,3.2,0.8,4.8,1.2l-0.1,0c4,1.2,7.7,2.1,11.5,3.7c-0.1,0-0.1,0-0.2,0
								c0.2,0,0.4,0.1,0.6,0.2c0,0-0.1,0-0.1,0c0.7,0.5,2.3,1,2.8,1.4c0.2,0.1,0.4,0.1,0.3,0c2.8,1.5,5.7,3.6,7.9,6.2
								c0.1,0.1,0.1,0.2,0,0.2c1,1,1.8,2.3,2.3,3.7c0.5,1.4,0.8,2.9,0.9,4.3c0.1,0.1,0.1-0.3,0.2,0c0-1-0.4-1.7-0.5-2.6l0.1,0.1
								c-0.1-0.6-0.2-0.1-0.3-0.7c0-0.3,0.1,0,0.1-0.1c-0.4-1.3-1-2.6-1.8-3.6c0-0.2-0.2-0.5-0.4-0.8c-0.2-0.3-0.5-0.6-0.6-0.9
								c-0.3-0.2-0.5-0.5-0.6-0.5c-1.5-1.8-3.3-3.3-5.3-4.5c-2-1.2-4.1-2.2-6.2-3.2c-2.1-0.6-4.4-1.8-7-2.4c0,0,0,0,0,0
								c-0.8-0.2-2-0.5-3-0.8l-0.9-0.1c-1.4-0.5-2.9-0.9-4.4-1.3c-1.5-0.4-3-0.7-4.5-0.8c-3.1-0.4-6.1-0.4-9.2-0.4
								c-7,0.1-13.1,0.6-19.7,2.1c0,0-0.1,0,0.1-0.1c-1.9,0.4-3.7,0.5-5.5,0.9l0,0c-2.2,0.5-4.6,0.9-6.8,1.6
								c-2.2,0.7-4.5,1.7-6.1,3.3c-0.5,0.4-1,1-1.3,1.6c-0.2,0.3-0.3,0.6-0.4,1c0,0.2-0.1,0.4,0,0.6l0.2,0.5c0.6,1.3,1.8,2.3,3.1,3
								c2.7,1.2,5.7,1.4,8.5,1.7l0,0.1c4.5,0.4,9,1,12.7,3.6c1.9,1.3,3.8,2.8,5.7,4.3c1.9,1.5,3.7,3,5.4,4.6c2,2.1,5.5,3.9,7.7,5.5
								c2.3,1.6,4.9,2.7,7.6,3.4c2.7,0.7,5.5,0.9,8.3,0.8c2.6,0.1,5.2-0.2,7.7-0.6c1.3-0.2,2.5-0.4,3.8-0.6c1.3-0.2,2.5-0.4,3.7-0.8
								c0.3-0.1,0.5-0.3,0.8-0.4c0.3-0.1,0.5-0.3,0.8-0.4c0.6-0.3,1.1-0.6,1.6-0.9c1.1-0.7,2.1-1.6,2.9-2.7l-0.1,0
								c0.8-0.6,0.9-1.9,1.5-2.2l0,0.1c0.4-0.3,0.2-1.2,0.5-1.4l0-0.1c0.2-0.6,0.1,0,0.3-0.4c0.1-0.2-0.1-0.1,0.1-0.4
								c0.4,0.1,0.5-1.4,0.8-1.3c-0.1,0.3,0.3-0.5,0.2,0.3c0.1-0.2,0.4-1.2,0.2-1.2c-0.2-0.1-0.2-0.5-0.5,0l0.1,0.2
								c-0.2,0.2-0.1,0.1-0.2,0.2c-0.3,0.8-0.5,0.8-0.8,1.3c0,0,0,0,0,0c0,0.4-0.3,0.9-0.4,1.1l-0.1,0.1c-0.2,0.1-0.1,0.9-0.3,0.6
								c-0.7,1.5-1.7,3-3,4.3c-0.1,0.3-1,0.9-0.6,0.8c-0.5,0.2-1.6,0.9-2,1.1c0,0,0-0.1,0.1-0.1c-0.5,0.1-0.7,0.3-0.9,0.5
								c-0.2,0.2-0.4,0.4-0.9,0.3c0,0.1-0.4,0.3-0.8,0.4c-0.4,0.1-0.9,0.2-1.1,0.4C82,93,82,92.9,82,92.9c-1.6,0.3-3.4,0.5-4.8,0.7
								c-1.1,0.4-2.9,0.3-3.9,0.7c-0.9,0-2.2,0-3.4,0.1l0.1,0c-1.3,0.1-3,0-3.9,0.1c-0.4-0.3-0.9-0.3-1.5-0.5c-0.9,0-2.6-0.3-4-0.6
								c-0.2-0.2-1.1-0.3-1.1-0.5c-3.8-0.7-7.9-3.1-10.9-5.9l0.1,0c-0.5-0.2-1.1-0.4-1.6-0.6c0,0,0-0.1,0.1,0c-0.6-0.4-1-1-1.6-1.5
								c0,0,0,0,0.1,0c-0.6-0.4-1-1.1-1.7-1.5l0-0.1L43.5,83c0.1,0,0.1-0.1,0.3,0.1c-2.4-2.1-4.9-4.3-7.6-6.2
								c-0.7-0.5-1.4-0.9-2.1-1.4c-0.7-0.4-1.4-0.9-2.2-1.2c-0.4-0.2-0.8-0.4-1.2-0.5l-1.2-0.4c-0.8-0.2-1.6-0.4-2.4-0.5l0.3,0
								l-1.3-0.1c0,0,0.1,0,0.1,0c-1.6-0.4-3.3-0.4-4.9-0.6c0,0,0.3-0.1,0-0.1c-1.2,0-1.8-0.4-2.5-0.2c-0.1,0-0.1-0.1,0-0.1
								c-1.6-0.2-3.3-0.4-4.8-0.9c-1.5-0.5-2.9-1.4-3.6-2.9l-0.3-0.4c-0.1-0.1-0.2-0.3-0.2-0.4c0-0.2,0.1-0.6,0.2-0.9
								c0.3-0.6,0.7-1.2,1.2-1.7c1-1,2.3-1.7,3.5-2.4l0,0.1c3.3-1.7,7.3-2.1,11-2.8c1.6-0.2,2.6-0.5,4.2-0.7l0.1,0.1
								c2.6-0.7,5.6-0.5,8.4-1.2l-0.2,0.1c0.4-0.2,1.7-0.1,1.5-0.4l0.5,0c1.9-0.6,3.5-0.1,5.8-0.5l-0.1,0.1c0.6-0.1,1.3-0.2,1.8-0.1
								c-0.1,0,0,0-0.2,0.1c2,0.2,4.1-0.1,6.2-0.1l-0.2,0.1c0.5-0.1,1.2,0,1.9,0c0.7,0,1.5,0.1,2.2,0.2l-0.1,0.1l0.7,0l0,0.1
								C60.1,57.4,61.7,57.6,63.3,58z"/>
							<path class="st1" d="M79.6,63.2L79.6,63.2C79.5,63.2,79.5,63.2,79.6,63.2z"/>
							<path class="st1" d="M92,83.6c0-0.1,0.1-0.1,0.1-0.2C92.1,83.4,92.1,83.5,92,83.6z"/>
						</g>
					</g>
				</g>
			</g>
		</g>
		<g>
			<path class="st0" d="M33.2,60.3c0,0-10,1.4-14.7,3s-6.1,4.9,0,5.7c6.1,0.9,16.8,0.6,21.9,7.4s14.6,16.2,25.3,16
				S90.1,89.4,89,80.4S85.3,67,72.6,62.1S36.7,59.8,33.2,60.3z"/>
			<g>
				<g>
					<g>
						<g>
							<polygon class="st1" points="33.3,61 33.4,61 33.6,60.9 							"/>
							<path class="st1" d="M34.7,60.6C34.6,60.6,34.7,60.5,34.7,60.6l-0.8,0.3C34.2,61,34.4,60.5,34.7,60.6z"/>
							<path class="st1" d="M34.9,60.6c0.3,0,0.4-0.1,0.5-0.2C35.3,60.5,34.8,60.4,34.9,60.6z"/>
							<path class="st1" d="M63.1,60.3C63.1,60.3,63.1,60.3,63.1,60.3C63.1,60.3,63.1,60.3,63.1,60.3z"/>
							<path class="st1" d="M70.4,61.3l0.1-0.1c-0.7-0.1-1.4-0.3-2.1-0.5c-0.7-0.2-1.5-0.4-2.2-0.5l0.1,0c-3.7-0.7-7.1-0.8-10.8-0.9
								c0.1,0,0.1,0,0.1,0c-0.2,0-0.4,0.1-0.6,0.1c-0.1,0,0.1-0.1,0.1-0.1c-0.8-0.2-2.3,0.1-2.8-0.1c-0.2,0-0.3,0.1-0.2,0.2
								c-2.9,0-5.9,0.1-8.9,0.4c-0.1,0-0.2-0.1-0.1-0.1c-2.5,0.4-5.1,0.5-7.6,0.7c-0.1,0.1,0.3,0.1,0,0.2c0.8,0,1.5-0.4,2.2-0.3
								l-0.1,0.1c0.5,0,0.1-0.2,0.7-0.2c0.2,0,0,0.1,0.1,0.1c1.1-0.1,2.3-0.2,3.4-0.4c0.3,0.1,1.2-0.1,1.7,0.1
								c0.3-0.1,0.6-0.1,0.7-0.2c4-0.1,8.2-0.3,12.3-0.1c1-0.1,2,0,3.1,0.1c1.1,0.1,2.2,0.3,3.4,0.4c0,0,0,0,0,0
								c0.8,0,1.8,0.1,2.7,0.3l0.8,0c2.6,0.7,5.2,1.4,7.7,2.5c2.5,1,5,2.2,7.2,3.8c1.2,0.9,2.3,1.9,3.3,3c0.9,1.1,1.6,2.3,2.2,3.6
								c0.5,1.3,0.9,2.7,1.2,4.1c0.1,0.7,0.3,1.4,0.4,2.1c0.1,0.7,0.3,1.4,0.3,2.2c0,0,0,0-0.1-0.1c0,1.7-0.8,3.1-1.8,4.3l0,0
								c-1.2,1.6-3.1,2.6-5,3.4c-1.9,0.8-3.9,1.3-5.8,1.8c-2.3,0.5-4.9,0.8-7.5,0.9c-2.6,0.2-5.2,0.2-7.7-0.4l0-0.1
								c-2-0.4-3.8-1.2-5.6-2.2c-1.7-1-3.4-2.1-5-3.3c-3.2-2.6-6.6-5.5-9.1-8.9c-0.7-1.1-1.7-2.3-2.9-3.1c-1.2-0.8-2.5-1.5-3.6-2.1
								c-2.2-1.3-4.7-1.9-7.1-2.2c-2.5-0.4-4.9-0.4-7.4-0.5c-1.1-0.2-2.3-0.3-3.4-0.6c-0.6-0.2-1.1-0.4-1.6-0.7
								c-0.5-0.3-0.9-0.9-0.8-1.6c0.1-0.6,0.5-1.1,0.9-1.5c0.4-0.4,0.9-0.7,1.4-1c1-0.5,2.1-0.9,3.2-1.1c2-0.8,4.4-0.8,6.7-1.3
								l-0.1-0.1c0.9,0.1,1.8-0.7,2.4-0.4l-0.1,0c0.5,0.1,1-0.6,1.3-0.4l0.1-0.1c0.5-0.1,0.1,0.1,0.5,0.1c0.2,0,0-0.2,0.4-0.2
								c0.1,0.3,1.3-0.3,1.4,0.1c-0.3,0,0.5,0.1-0.2,0.3c0.2,0,1.1-0.1,1-0.3c0.1-0.2,0.4-0.4-0.2-0.5L33,60.3
								c-0.2-0.1-0.2,0-0.2-0.1c-0.7,0.1-0.8-0.1-1.4-0.1c0,0,0,0,0,0c-0.3,0.2-0.8,0.2-1.1,0.2l-0.1-0.1c-0.2-0.1-0.8,0.4-0.6,0.1
								c-1.4,0.3-3.1,0.6-4.7,0.9c-0.2,0.1-1.2,0.2-0.8,0.4c-0.4-0.1-1.7,0.1-2.1,0.2c0,0,0-0.1,0.1-0.1c-0.9-0.1-1,0.5-1.9,0.4
								c-0.1,0.3-1.5,0.3-1.9,0.8c-0.1,0-0.2,0-0.1-0.1c-1.4,0.5-3.1,1.2-4,2.6C14.1,65.7,14,65.8,14,66c-0.1,0.2-0.1,0.4-0.1,0.6
								c0,0.1,0,0.2,0,0.3l0.1,0.3c0.1,0.2,0.2,0.4,0.3,0.6c0.5,0.7,1.2,1,1.7,1c0.7,0.4,2,0.8,3.1,0.8l-0.1,0
								c1.2,0.1,2.7,0.3,3.6,0.2c0.3,0.3,0.8,0.3,1.4,0.5c0.8,0,2.4,0.2,3.6,0.3c0.2,0.2,1,0.1,1,0.3c1.7,0.1,3.6,0.5,5.3,1.3
								c1.8,0.7,3.4,1.8,4.6,3.1l0,0c0.2,0.1,0.4,0.2,0.7,0.3c0.2,0.1,0.5,0.3,0.7,0.4c0,0,0,0.1-0.1,0c0.5,0.5,0.7,1.1,1.1,1.6
								c0,0,0,0-0.1-0.1c0.5,0.5,0.7,1.1,1.3,1.6l0,0.1l0.4,0.3c-0.1,0-0.1,0.1-0.3-0.1c3.7,4.5,8.5,8.3,13.8,11l-0.2,0
								c0.4,0.2,0.7,0.3,1.1,0.4c0,0-0.1,0-0.1,0c0.7,0.3,1.4,0.6,2.1,0.8c0.4,0.1,0.7,0.2,1.1,0.3c0.4,0.1,0.7,0.2,1.1,0.2
								c0,0-0.2,0-0.1,0.1c1.1,0.1,1.7,0.5,2.2,0.3c0,0,0.1,0.1,0,0.1c1.5,0.1,3,0.1,4.5,0c1.5-0.1,3-0.2,4.5-0.3
								c2.4-0.6,5.2-0.8,7.6-1.8l0,0.1c1.6-0.6,3.1-1.2,4.7-2.1c1.5-0.8,2.9-1.9,3.8-3.5c0.8-1.2,0.9-2.3,1-3.7l0.1,0
								c-0.1-0.6-0.2-1.2-0.3-1.8c-0.1-0.6-0.1-1.3-0.2-1.9c-0.2-1.3-0.4-2.6-1-3.7l0.2,0.1c-0.3-0.3-0.5-1.5-0.7-1.2L87,72.5
								c-0.3-0.3-0.5-0.7-0.7-1c-0.2-0.3-0.4-0.7-0.6-1c-0.4-0.7-1-1.4-1.8-2l0.2,0c-0.5-0.3-0.9-0.8-1.2-1c0.1,0,0,0,0.2,0.1
								c-1.2-1.3-3.1-2.1-4.7-2.9l0.2,0c-0.4-0.1-1-0.4-1.6-0.7c-0.6-0.3-1.2-0.6-1.8-0.8l0.1,0c-0.2-0.1-0.4-0.1-0.6-0.2l0-0.1
								c-0.7-0.3-1.4-0.5-2.1-0.8C71.9,61.7,71.2,61.5,70.4,61.3z"/>
							<path class="st1" d="M55.3,59.3C55.3,59.3,55.3,59.3,55.3,59.3C55.3,59.3,55.3,59.3,55.3,59.3z"/>
							<path class="st1" d="M31.2,60.1c0.1,0,0.1,0,0.2,0C31.4,60,31.3,60.1,31.2,60.1z"/>
						</g>
					</g>
				</g>
			</g>
		</g>
		<g>
			<ellipse transform="matrix(0.9812 -0.1928 0.1928 0.9812 -14.0733 16.1585)" class="st3" cx="76" cy="80.4" rx="6.2" ry="3.9"/>
			<g>
				<g>
					<g>
						<g>
							<polygon class="st1" points="82.7,79.1 82.8,79.1 82.6,79 							"/>
							<path class="st1" d="M82.4,78.8C82.4,78.8,82.4,78.9,82.4,78.8c0,0.1,0.2,0.1,0.3,0.1C82.8,78.8,82.3,78.9,82.4,78.8z"/>
							<path class="st1" d="M82.4,78.8c0-0.1-0.1-0.1-0.1-0.1C82.4,78.7,82.3,78.8,82.4,78.8z"/>
							<path class="st1" d="M77.8,76C77.8,76,77.8,76,77.8,76C77.8,76,77.8,76,77.8,76z"/>
							<path class="st1" d="M76.4,76.5l0,0.1c0.2-0.2,0.5,0,0.8-0.1l0,0c0.7,0,1.3-0.1,2,0c0,0,0,0,0,0c0,0,0.1-0.1,0.1-0.1
								c0,0,0,0,0,0.1c0.1,0.2,0.4,0,0.5,0.2c0,0,0.1-0.1,0.1-0.1c0.5,0.2,1.1,0.4,1.6,0.7c0,0,0,0.1-0.1,0.1c0.6,0.1,0.9,0.7,1,1.2
								c0.1,0,0.1-0.1,0.2-0.1c0-0.2-0.3-0.2-0.3-0.4l0.1,0c0-0.1-0.2,0.1-0.2-0.1c0-0.1,0.1,0,0.1-0.1c-0.2-0.2-0.3-0.4-0.6-0.5
								c0.1-0.2-0.2-0.2-0.2-0.4c-0.1,0-0.1,0-0.2,0c-0.6-0.6-1.5-0.8-2.2-0.9c-0.4,0.2-0.8-0.2-1.2-0.1c0,0,0,0,0,0
								c-0.1,0.1-0.4,0.1-0.5,0.1l-0.1,0.1c-1-0.3-2,0.1-3.1,0.3c-1.1,0.3-2.3,0.6-2.9,1.7c0,0,0,0,0-0.1c-0.2,0.3-0.5,0.4-0.7,0.7
								l0,0c-0.2,0.4-0.4,0.7-0.6,1.1c-0.2,0.4-0.3,0.8-0.1,1.2c0,0.5,0.1,0.9,0.4,1.4c0.3,0.4,0.6,0.7,1,1l0,0.1
								c0.7,0.3,1.2,0.9,2,0.9c0.8,0.3,1.6-0.2,2.4,0c0.5,0.3,1-0.5,1.5-0.3c1,0.3,1.8-0.4,2.5-1.1c0.8-0.3,1.2-1.1,1.9-1.5
								c0-0.4,0.7-0.5,0.7-1l-0.1,0c0.3-0.1-0.3-0.4,0.1-0.4l0,0c0.2-0.1-0.4-0.2-0.2-0.3l-0.1,0c0-0.1,0.1,0,0.1-0.1
								c0,0-0.2,0-0.1-0.1c0.4,0-0.1-0.2,0.3-0.3c0,0.1,0.1-0.1,0.2,0c0,0,0-0.2-0.2-0.2c-0.2,0-0.3,0-0.5,0.1l0.1,0
								c-0.1,0.1-0.1,0-0.2,0.1c0,0.1-0.2,0.2-0.3,0.2c0,0,0,0,0,0c0.2,0,0.1,0.1,0,0.2l-0.1,0c-0.2,0,0.3,0.1,0,0.1
								c0.1,0.2,0,0.5-0.1,0.7c0.1,0.1-0.1,0.2,0.1,0.2c-0.2,0-0.4,0.1-0.4,0.2c0,0,0,0,0,0c-0.3,0,0.1,0.3-0.2,0.2
								c0.2,0.2-0.2,0.1,0,0.4c-0.1,0-0.1,0-0.1-0.1c-0.2,0.2-0.4,0.3-0.6,0.4c0,0.3-0.4,0.2-0.3,0.5c-0.1,0-0.4,0-0.5,0.2l0,0
								c-0.2,0.1-0.4,0.3-0.4,0.5c-0.2-0.2-0.2-0.1-0.4-0.2c-0.1,0.2-0.3,0.3-0.5,0.4c-0.1-0.1-0.1,0.1-0.2-0.1
								c-0.4,0.6-1.2,0.6-1.9,0.4l0,0c-0.1,0.1-0.1,0.4-0.2,0.5c0,0,0,0,0,0c-0.1,0-0.2-0.1-0.4-0.1c0,0,0,0,0-0.1
								c-0.1,0.1-0.2-0.1-0.4,0l0-0.1L75.1,84c0-0.1,0-0.2,0-0.1c-1,0-2.1,0.2-3-0.3l0.1,0l-0.2,0c0,0,0,0,0,0
								c-0.2-0.2-0.5-0.2-0.7-0.3c0,0,0.1-0.1,0.1-0.1c-0.3,0-0.1-0.3-0.4-0.1c0,0,0.1-0.1,0.1-0.1c-0.4-0.2-0.7-0.7-0.8-1.1
								c-0.4-0.3-0.2-0.8-0.3-1.3l0.1,0c-0.1-0.6,0.5-1.1,0.9-1.6c0.2-0.2,0.3-0.3,0.5-0.5l0.1,0.1c0.1-0.5,0.9-0.3,1.1-0.8l0,0.1
								c0-0.2,0.3-0.1,0.1-0.3l0.1,0c0.1-0.5,0.6-0.1,0.8-0.4l0,0.1c0.1-0.1,0.2-0.2,0.3-0.1c0,0,0,0,0,0.1c0.4,0.2,0.6-0.2,1-0.3
								l0,0.1c0.1-0.2,0.4-0.1,0.6-0.2l0,0.1l0.1-0.1l0,0.1C75.9,76.7,76.2,76.6,76.4,76.5z"/>
							<path class="st1" d="M79.2,76.6L79.2,76.6C79.2,76.6,79.2,76.6,79.2,76.6z"/>
							<path class="st1" d="M81.5,79.6C81.6,79.6,81.6,79.6,81.5,79.6C81.5,79.6,81.6,79.6,81.5,79.6z"/>
						</g>
					</g>
				</g>
			</g>
		</g>
	</g>
	<g>
		<g>
			<path class="st0" d="M132.1,63.6c-5.7,2.8-21.1,16.1-18.4,30.3c2.7,14.2,17.5,17.6,23.4,15.9c6.8-1.9,21.6-9.2,23.8-31.4
				C163.1,56.2,147.4,56.2,132.1,63.6z"/>
			<g>
				<g>
					<g>
						<g>
							<polygon class="st1" points="132.4,64.2 132.5,64.3 132.6,64.1 							"/>
							<path class="st1" d="M133.4,63.5C133.4,63.5,133.4,63.5,133.4,63.5l-0.6,0.5C133.2,64.1,133.2,63.5,133.4,63.5z"/>
							<path class="st1" d="M133.6,63.4c0.3-0.1,0.3-0.2,0.4-0.3C133.9,63.3,133.5,63.3,133.6,63.4z"/>
							<path class="st1" d="M156.7,62.6C156.7,62.5,156.7,62.5,156.7,62.6C156.7,62.5,156.7,62.5,156.7,62.6z"/>
							<path class="st1" d="M160.3,67.8l0.1,0c-0.5-1.1-0.9-2.5-1.6-3.5l0.1,0.1c-0.8-1.4-2-2.6-3.4-3.4c-1.4-0.8-2.9-1.3-4.5-1.5
								c0.1,0,0.1,0,0.1,0c-0.2,0-0.3,0-0.5,0c0,0,0.1,0,0.1,0c-0.7-0.3-2-0.1-2.4-0.2c-0.2,0-0.3,0.1-0.2,0.2
								c-2.5,0-5.2,0.6-7.6,1.4c-0.1,0-0.2,0-0.1-0.1c-2,0.9-4.2,1.6-6.3,2.5c0,0.1,0.2,0,0.1,0.1c0.7-0.2,1.1-0.7,1.8-0.8l0,0.1
								c0.5-0.1,0-0.2,0.5-0.3c0.2,0,0,0.1,0.1,0.1c0.9-0.4,1.9-0.7,2.8-1.1c0.3,0.1,1-0.3,1.4-0.3c0.2-0.1,0.5-0.2,0.6-0.3
								c3.4-0.8,7-1.4,10.5-0.6c1.7,0.1,3.5,1.3,4.9,2.5c0,0,0,0,0,0c0.5,0.4,1.2,1.1,1.5,1.7l0.5,0.5c1,2.1,1.6,4.4,1.8,6.8
								c0.2,2.4,0.2,4.8-0.1,7.1c-0.7,5.4-2.1,9.9-4.1,14.8c0,0-0.1,0,0-0.1c-0.3,0.7-0.6,1.3-1,1.9c-0.4,0.6-0.8,1.2-1.1,1.8l0,0
								c-1.8,3.1-4.7,5.7-7.4,7.9c-1.7,1.2-3.7,2.4-5.7,3.3c-2.1,0.9-4.2,1.8-6.5,1.9l0-0.1c-3.6,0.2-6.9-1-10.1-2.4
								c-1.6-0.9-3.2-1.8-4.6-3c-0.8-0.6-1.4-1.3-2-2c-0.3-0.4-0.6-0.8-0.8-1.1c-0.3-0.4-0.6-0.7-0.7-1.2c-1-2-2.5-4.7-2.5-6.9
								c0-1.1-0.1-2.2,0-3.3l0.1-1.6L114,87l0.1-0.8c0-0.3,0.1-0.5,0.2-0.8l0.4-1.6c0.1-0.5,0.3-1,0.5-1.6c0.2-0.5,0.3-1.1,0.6-1.6
								c1.9-3.6,4.1-7.1,7.1-9.8c1.1-1.5,3-2.6,4.6-3.9l-0.1,0c0.7-0.3,1.1-1.3,1.7-1.3l-0.1,0.1c0.4-0.1,0.5-0.9,0.8-0.8l0-0.1
								c0.4-0.3,0.1,0.1,0.4-0.1c0.1-0.1,0-0.2,0.2-0.3c0.1,0.1,0.4,0,0.6-0.2c0.2-0.2,0.5-0.3,0.6-0.1c-0.2,0.1,0.4-0.1,0,0.3
								c0.2,0,0.8-0.4,0.7-0.6c0-0.2,0.2-0.5-0.3-0.4l0,0.2c-0.2,0-0.1,0-0.2-0.1c-0.6,0.3-0.8,0.2-1.2,0.3c0,0,0,0,0,0
								c-0.2,0.3-0.6,0.5-0.8,0.6l-0.1,0c-0.2-0.1-0.4,0.7-0.4,0.3c-1,0.8-2.2,1.7-3.3,2.7c-0.1,0.2-0.8,0.7-0.5,0.7
								c-0.4,0.1-1.3,0.8-1.5,1.1c0,0,0-0.1,0-0.1c-0.8,0.3-0.5,0.8-1.3,1.1c0.1,0.3-1,0.9-1,1.4c-0.1,0-0.2,0-0.2,0
								c-0.5,0.5-0.9,1-1.4,1.5c-0.4,0.5-0.9,1-1.2,1.4c-0.4,0.9-1.5,1.8-1.6,2.7c-0.2,0.3-0.5,0.6-0.8,1c-0.3,0.4-0.5,0.9-0.7,1.3
								l0-0.1c-0.2,0.5-0.5,1-0.7,1.6c-0.2,0.5-0.3,1-0.4,1.4c-0.4,0.2-0.5,0.6-0.7,1.1c0,0.4-0.2,0.9-0.3,1.5
								c-0.1,0.3-0.2,0.6-0.2,0.9c0,0.3-0.1,0.6-0.1,0.9c-0.2,0.1-0.1,0.9-0.3,0.9c-0.1,0.8,0,1.6,0,2.5c0,0.8,0.1,1.7,0.2,2.6
								c0.1,0.4,0.1,0.9,0.1,1.3c0.1,0.4,0.2,0.9,0.3,1.3c0.1,0.4,0.1,0.9,0.3,1.3c0.1,0.4,0.2,0.8,0.4,1.2l0,0
								c0.3,0.4,0.6,0.7,1,1.1c0,0,0,0.1-0.1,0c0.3,0.5,0.4,1.1,0.7,1.6c0,0,0,0-0.1-0.1c0.3,0.5,0.5,1.1,1,1.5l0,0.1l0.3,0.3
								c-0.1,0-0.1,0.1-0.3-0.1c1.5,2.1,3.6,3.9,5.9,5.2c2.3,1.3,4.8,2.2,7.4,2.7l-0.2,0l1,0.1c0,0-0.1,0-0.1,0
								c1.3,0.3,2.7,0.2,3.9,0.2c0,0-0.2,0.1,0,0.1c0.5-0.1,0.9-0.1,1.2-0.1c0.3,0,0.6-0.1,0.8-0.3c0,0,0.1,0.1,0,0.1
								c2.6-0.7,5-1.8,7.3-3c1.8-1.3,3.9-2.6,5.4-4.2l0,0.1c0.5-0.5,1-1,1.5-1.6c0.5-0.6,1-1.1,1.5-1.7c1-1.2,2-2.3,2.7-3.7
								c0.7-1,1-1.8,1.6-3l0.1,0c0.7-2,2.1-4,2.4-6.2l0.1,0.2c-0.1-0.4,0.5-1.3,0.1-1.2l0.2-0.4c0-0.8,0.2-1.4,0.4-2.1
								c0.1-0.3,0.2-0.7,0.3-1.1c0.1-0.4,0.1-0.8,0.1-1.3l0.1,0.1c0-0.5,0-1.1,0.2-1.4c0,0.1,0,0,0,0.2c0.5-1.5,0.4-3.2,0.4-4.8
								l0.1,0.2c-0.1-0.8,0-2.2-0.2-3.3l0.1,0.1l-0.1-0.5l0.1,0C161,70.3,160.7,69.1,160.3,67.8z"/>
							<path class="st1" d="M150.8,59.4C150.8,59.4,150.8,59.4,150.8,59.4C150.8,59.4,150.8,59.4,150.8,59.4z"/>
							<path class="st1" d="M130.3,64c0.1,0,0.1,0,0.2-0.1C130.4,63.9,130.4,64,130.3,64z"/>
						</g>
					</g>
				</g>
			</g>
		</g>
		<g>
			
				<ellipse transform="matrix(0.8673 -0.4977 0.4977 0.8673 -17.1352 77.3846)" class="st2" cx="136.6" cy="70.8" rx="6.4" ry="3.7"/>
		</g>
		<g>
			<ellipse transform="matrix(0.833 -0.5532 0.5532 0.833 -23.8443 83.1071)" class="st2" cx="125.8" cy="81.1" rx="3" ry="1.9"/>
		</g>
		<g>
			<path class="st4" d="M113.4,89.7c-0.1,1.4,0,2.8,0.3,4.2c2.7,14.2,17.5,17.6,23.4,15.9c6.8-1.9,21.6-9.2,23.8-31.4
				c0.6-6.5-0.2-11.1-2.2-14.1l0,0c-1.8,26.6-18.4,34.4-27.6,34C119,97.8,113.4,89.7,113.4,89.7L113.4,89.7z"/>
		</g>
	</g>
	<g>
		<g>
			<path class="st0" d="M167.8,72.1c-5.9,3.1-21.3,17.5-17.9,32c3.4,14.5,19,17.4,25.1,15.4c7-2.3,22.1-10.4,23.4-33.4
				S183.4,63.7,167.8,72.1z"/>
			<g>
				<g>
					<g>
						<g>
							<polygon class="st1" points="168.1,72.6 168.2,72.6 168.3,72.5 							"/>
							<path class="st1" d="M169.1,71.9C169.1,71.9,169.1,71.8,169.1,71.9l-0.6,0.6C168.9,72.4,168.9,71.9,169.1,71.9z"/>
							<path class="st1" d="M169.3,71.8c0.3-0.1,0.3-0.2,0.4-0.3C169.7,71.6,169.2,71.7,169.3,71.8z"/>
							<path class="st1" d="M193.3,69.8C193.3,69.8,193.3,69.7,193.3,69.8C193.3,69.8,193.3,69.8,193.3,69.8z"/>
							<path class="st1" d="M197.3,75l0.1,0c-0.6-1.1-1-2.5-1.9-3.6l0.1,0.1c-1-1.4-2.2-2.5-3.7-3.3c-1.5-0.7-3.1-1.1-4.7-1.3
								c0.1,0,0.1,0,0.1,0c-0.2,0-0.3,0.1-0.5,0c0,0,0.1,0,0.1-0.1c-0.7-0.3-2.1,0-2.5-0.1c-0.2,0-0.3,0.1-0.2,0.2
								c-2.6,0.1-5.3,0.8-7.8,1.8c-0.1,0-0.2,0-0.2-0.1c-2.1,1-4.3,1.8-6.4,2.8c0,0.1,0.2,0,0.1,0.1c0.7-0.2,1.1-0.8,1.8-0.9l0,0.1
								c0.5-0.2,0-0.2,0.5-0.3c0.2,0,0,0.1,0.1,0.1c0.9-0.4,2-0.8,2.8-1.3c0.3,0.1,1.1-0.4,1.5-0.3c0.2-0.1,0.5-0.2,0.6-0.3
								c3.5-1,7.2-1.8,10.9-1.1c1.8,0,3.6,1.1,5.2,2.3c0,0,0,0,0,0c0.6,0.4,1.3,1,1.7,1.7l0.5,0.5c2.4,4.2,2.9,9.4,2.5,14.3
								c-0.5,5.6-1.7,10.4-3.7,15.5c0,0-0.1,0,0-0.1c-0.3,0.7-0.6,1.4-1,2.1c-0.4,0.6-0.8,1.3-1.1,1.9l0,0c-1.8,3.3-4.7,6.1-7.4,8.5
								c-1.7,1.3-3.7,2.6-5.8,3.6c-2.1,1-4.3,2-6.6,2.2l0-0.1c-1.8,0.2-3.7,0-5.4-0.4c-1.8-0.4-3.5-1-5.2-1.7
								c-1.7-0.9-3.4-1.7-5-2.9c-0.8-0.5-1.5-1.3-2.2-1.9c-0.4-0.3-0.6-0.7-0.9-1.1c-0.3-0.4-0.6-0.7-0.8-1.2
								c-0.2-0.5-0.6-1.1-0.9-1.7c-0.3-0.6-0.6-1.2-0.9-1.8c-0.3-0.6-0.6-1.2-0.8-1.8c-0.2-0.6-0.4-1.2-0.4-1.8
								c-0.5-4.5,0-9,1.6-13.3c1.8-3.8,4-7.5,7-10.4c1.1-1.6,3-2.8,4.6-4.2l-0.1,0c0.7-0.3,1.1-1.4,1.7-1.4l-0.1,0.1
								c0.4-0.1,0.5-0.9,0.8-0.9l0-0.1c0.4-0.3,0.1,0,0.4-0.1c0.1-0.1,0-0.2,0.2-0.3c0.2,0.3,1-0.7,1.2-0.4c-0.2,0.1,0.4-0.1,0,0.3
								c0.2-0.1,0.9-0.5,0.7-0.6c0-0.2,0.2-0.5-0.3-0.4l0,0.2c-0.2,0-0.1,0-0.2,0c-0.6,0.3-0.8,0.2-1.2,0.4c0,0,0,0,0,0
								c-0.2,0.3-0.6,0.5-0.8,0.6l-0.1,0c-0.2,0-0.4,0.7-0.4,0.4c-1.1,0.9-2.2,1.9-3.4,2.9c-0.1,0.2-0.8,0.8-0.5,0.7
								c-0.4,0.1-1.3,0.9-1.6,1.2c0,0,0-0.1,0-0.1c-0.8,0.4-0.5,0.9-1.2,1.2c0.1,0.3-1,1-1,1.5c-0.1,0-0.2,0-0.2,0
								c-0.9,1-1.9,2.2-2.5,3.2c-0.4,0.9-1.4,2-1.6,2.9c-0.4,0.6-1.1,1.5-1.4,2.5l0-0.1c-0.5,1-1,2.3-1,3.1
								c-0.4,0.2-0.5,0.7-0.7,1.1c-0.1,0.8-0.5,2.2-0.5,3.4c-0.2,0.2-0.1,0.9-0.3,1c0,1.6,0.1,3.4,0.4,5.2c0.1,0.9,0.4,1.8,0.6,2.7
								c0.1,0.4,0.2,0.9,0.3,1.3c0.2,0.4,0.3,0.8,0.4,1.2l0,0c0.3,0.4,0.7,0.7,1,1.1c0,0,0,0.1-0.1,0c0.4,0.5,0.5,1.1,0.8,1.6
								c0,0,0,0-0.1-0.1c0.3,0.5,0.6,1.1,1.1,1.5l0,0.1l0.3,0.3c-0.1,0-0.1,0.1-0.3-0.1c1.7,2.1,3.9,3.8,6.4,5
								c2.5,1.2,5.1,2,7.8,2.4l-0.2,0l1.1,0c0,0-0.1,0-0.1,0c0.7,0.2,1.4,0.1,2,0.2c0.7,0,1.4-0.1,2-0.1c0,0-0.2,0.1,0,0.1
								c0.5-0.1,0.9-0.1,1.2-0.2c0.3,0,0.6-0.1,0.8-0.3c0,0,0.1,0.1,0,0.1c2.6-0.8,5.1-2.1,7.5-3.4c1.8-1.4,3.9-2.8,5.5-4.6l0,0.1
								c2-2.2,4.2-4.6,5.7-7.4c0.7-1.1,1-1.9,1.6-3.1l0.1,0c0.6-2.1,2-4.2,2.2-6.6l0.1,0.2c-0.1-0.4,0.4-1.3,0.1-1.3l0.2-0.4
								c0-0.8,0.1-1.5,0.3-2.2c0.1-0.4,0.2-0.7,0.3-1.1c0.1-0.4,0.1-0.8,0.1-1.3l0.1,0.1c0-0.5,0-1.1,0.1-1.5c0,0.1,0,0,0,0.2
								c0.5-1.6,0.2-3.4,0.2-5l0.1,0.2c-0.1-0.4-0.1-1-0.1-1.6c0-0.6-0.1-1.2-0.2-1.8l0.1,0.1l-0.2-0.5l0.1,0
								c-0.1-0.7-0.3-1.4-0.4-2C197.7,76.3,197.6,75.6,197.3,75z"/>
							<path class="st1" d="M187,66.9C187,66.9,187,66.9,187,66.9C187,66.9,187,66.9,187,66.9z"/>
							<path class="st1" d="M165.9,72.5c0.1,0,0.1-0.1,0.2-0.1C166.1,72.4,166,72.5,165.9,72.5z"/>
						</g>
					</g>
				</g>
			</g>
		</g>
		<g>
			<ellipse transform="matrix(0.8973 -0.4414 0.4414 0.8973 -15.9255 83.731)" class="st2" cx="172" cy="76.1" rx="7.4" ry="3.9"/>
		</g>
		<g>
			
				<ellipse transform="matrix(0.8149 -0.5797 0.5797 0.8149 -20.7114 109.6107)" class="st2" cx="161.2" cy="87.2" rx="3.9" ry="1.9"/>
		</g>
		<g>
			<path class="st4" d="M149.4,99.7c0,1.4,0.1,2.9,0.5,4.3c3.4,14.5,19,17.4,25.1,15.4c7-2.3,22.1-10.4,23.4-33.4
				c0.4-6.7-0.7-11.4-2.9-14.5l0,0c-0.7,27.4-17.6,36.2-27.4,36.2C155.6,107.8,149.4,99.7,149.4,99.7L149.4,99.7z"/>
		</g>
	</g>
</g>
<g>
	<path class="st10" d="M162.9,117.7L106.2,85l56.7-32.7c1.5-0.9,2-2.8,1.1-4.2c-0.9-1.5-2.8-2-4.2-1.1L100,81.4L40.2,46.9
		c-1.5-0.9-3.4-0.3-4.2,1.1c-0.9,1.5-0.3,3.4,1.1,4.2L93.8,85l-56.7,32.7c-1.5,0.9-2,2.8-1.1,4.2c0.6,1,1.6,1.6,2.7,1.6
		c0.5,0,1.1-0.1,1.5-0.4L100,88.6l59.8,34.5c0.5,0.3,1,0.4,1.5,0.4c1.1,0,2.1-0.6,2.7-1.6C164.9,120.5,164.4,118.6,162.9,117.7z"/>
	<g>
		<g>
			<g>
				<g>
					<path class="st1" d="M162.6,118.3l0.2,0.1c0.2,0.1,0.3,0.2,0.5,0.3C163,118.6,162.8,118.4,162.6,118.3z"/>
					<path class="st1" d="M163.8,121.6c0.1-0.1,0.1,0,0.1-0.1c0.2-0.8,0-1.6-0.4-2.2c0.2,0.5,0.3,0.8,0.4,1.2
						C164,120.9,164,121.3,163.8,121.6z"/>
					<path class="st1" d="M163.4,122.1c-0.7,0.6-1,0.8-1.2,0.9c0.1-0.1,0.5-0.2,0.8-0.5C163.3,122.3,163.5,122.1,163.4,122.1z"/>
					<path class="st1" d="M82.6,98.2c0.1-0.1,0.2-0.1,0.3-0.2C82.7,98.1,82.6,98.1,82.6,98.2z"/>
					<path class="st1" d="M61.8,110.7l-0.2,0.2c3.8-2.4,8.4-4.8,12.5-7.3l-0.3,0.2c9-5.2,17.3-10.1,26.2-15.3c1.5,0.8,3,1.7,4.5,2.6
						c-0.2-0.1-0.2-0.1-0.4-0.2c0.5,0.3,1.1,0.5,1.7,0.9c0.1,0.1-0.2,0-0.4-0.1c2.1,1.4,6.6,3.6,7.9,4.6c0.6,0.3,0.9,0.4,0.6,0.2
						c8.2,4.7,17,9.7,25.4,14.4c0.4,0.3,0.4,0.3,0.3,0.3c3.6,1.9,7.3,4,11,6.1c1.8,1.1,3.7,2.1,5.5,3.2l2.7,1.6l1.3,0.8
						c0.4,0.2,0.9,0.3,1.3,0.3c0.3-0.1-0.7-0.1,0-0.2c-0.6,0-1-0.1-1.5-0.4c-0.6-0.3-1.1-0.6-1.6-0.9c-1.1-0.6-2.1-1.1-3.1-1.8
						l0.3,0.1c-1.5-0.9-0.4,0-2-1c-0.6-0.4,0.2,0-0.1-0.2c-3.3-1.9-6.7-3.9-9.9-5.5c-0.7-0.6-3.5-2-4.7-2.9c-0.9-0.4-1.7-0.9-2.1-1
						c-11.5-6.7-23.3-13.4-35.1-20.2c-0.2-0.1-0.5-0.3-0.7-0.4c-0.3-0.2-0.6-0.3-0.9-0.5c-0.7,0.4-1.4,0.8-2.1,1.3
						c-0.7,0.4-1.4,0.8-2,1.2c-1.4,0.8-2.8,1.6-4.3,2.4c-2.9,1.6-6,3.3-8.9,5.1c-0.1,0,0,0,0,0c-2.1,1.3-5.2,3.1-7.8,4.6l-2.1,1.4
						c-7.7,4.3-15.5,8.8-23.3,13.3l-5.8,3.4l-2.9,1.7l-0.7,0.4c-0.2,0.1-0.5,0.2-0.7,0.3c-0.5,0.1-1,0.1-1.5-0.1
						c-1-0.3-1.7-1.2-1.9-2.2c-0.2-1,0.2-2.1,1.1-2.6c1.9-1.1,3.9-2.2,5.8-3.3c8.9-5.1,17.2-9.8,25.5-14.5c4.1-2.4,8.2-4.8,12.4-7.2
						c2.1-1.2,4.1-2.4,6.2-3.7c2.1-1.3,4.3-2.6,6.5-3.9c0,0,0.2-0.1-0.4,0.3c0.5-0.3,1.1-0.6,1.6-0.9c-2.5-1.4-4.8-2.8-7.1-4.1
						c-2.2-1.3-4.3-2.5-6.5-3.7l0,0c-11.8-6.5-24.2-14-35.5-20.2c-1.7-1-3.4-2-5.2-3c-0.9-0.5-1.8-1-2.6-1.5
						c-0.9-0.4-1.6-1.3-1.8-2.3c-0.2-1,0.2-2.1,0.9-2.7c0.7-0.7,1.8-1,2.8-0.7c0.5,0.1,0.9,0.4,1.4,0.7l1.4,0.8
						c0.9,0.5,1.8,1.1,2.8,1.6C52.3,54,59.8,58.3,67,62.4l-0.1,0c5.6,3.2,11,6.3,16.5,9.5c2.7,1.6,5.4,3.2,8.2,4.8
						c2.8,1.6,5.6,3.2,8.4,4.8c0.5-0.3,0.9-0.5,1.4-0.8c11.9-6.7,24.2-14.4,36.3-21.1c3.8-2,8-4.5,12.2-7.1c2.1-1.2,4.2-2.5,6.2-3.7
						c1-0.6,2-1.1,2.9-1.7c0.5-0.3,0.9-0.6,1.4-0.7c0.5-0.2,1.1-0.2,1.5-0.1c1,0.2,1.9,1,2.2,1.9c0.4,0.9,0.2,2-0.3,2.8
						c-0.3,0.4-0.7,0.7-1.1,1l-1.3,0.7l-2.7,1.5c-3.5,2-7.1,4-10.6,6.1c-7,4.1-14,8.3-21,12.5c-3.5,2-7,4-10.5,6
						c-3.4,2-6.8,4-10.1,5.9c3,1.7,6,3.4,8.9,5.1c3,1.8,6,3.5,9,5.3c6.2,3.3,12.6,7.6,19.3,11.4l-0.2-0.2c2.3,1.6,5.5,2.8,6.9,4
						l-0.3-0.1c1.2,0.9,3.2,1.3,3.9,2l0.3,0c1.6,0.9,0.1,0.2,1.3,0.9c0.5,0.2,0.3,0,1.2,0.5c0,0.4,3.8,2.1,3.7,2.5
						c-0.8-0.5,1.2,0.9-0.7-0.1c0.5,0.3,3.1,1.8,3,1.5c0.3,0,1.4,0.4-0.1-0.6l-0.4-0.1c-0.5-0.4-0.4-0.3-0.5-0.5
						c-2.1-1.2-2.2-1.5-3.7-2.5c0,0,0,0,0,0c-1.1-0.4-2.4-1.3-3.2-1.8l-0.3-0.2c-0.4-0.4-2.5-1.1-1.7-1c-4.2-2.4-9-5.1-13.7-7.8
						c-0.7-0.3-3.6-2.1-2.7-1.3c-1.1-0.9-4.5-2.9-5.8-3.7c0.1,0,0.1,0,0.3,0.1c-2.4-1.7-3.1-1.5-5.3-3.1c-0.5,0-4.2-2.5-5.7-3
						c-0.3-0.2-0.3-0.3-0.2-0.3c-4.1-2.4-8.7-5.1-12.2-7.2c0,0-0.1,0-0.1,0c0,0,0,0,0,0l0,0c0,0,0,0,0.1-0.1
						c0.4-0.2,0.8-0.5,1.2-0.7c0.8-0.5,1.6-0.9,2.5-1.4c1.6-0.9,3.2-1.8,4.3-2.6c2.2-1.2,5.8-3.1,8.8-5l-0.3,0.2c3.4-2,7.7-4.5,10-6
						c1.2-0.3,2.6-1.2,4.1-2c2.2-1.4,6.9-4.1,10.3-6.2c0.6-0.2,2.9-1.7,3.1-1.7c2.4-1.5,5-3,7.6-4.6c1.3-0.8,2.7-1.6,4.1-2.4
						c0.7-0.5,1.3-1.3,1.4-2.2c0.2-0.9,0-1.8-0.5-2.6c-0.5-0.8-1.3-1.3-2.2-1.5c-0.9-0.2-1.9,0-2.6,0.5c-1.4,0.8-2.8,1.6-4.2,2.4
						c-2.8,1.5-5.5,3.1-8.2,4.5l0.1-0.1c-1.3,0.9-2.8,2-4.1,2.9c-0.1,0.1-0.1,0,0.1-0.1c-1.9,1.1-3.8,2-5.7,3.1c0,0,0,0,0.3-0.2
						c-1.7,1.1-3.8,2-5.8,3.4l-0.1,0l-1.3,0.8c0-0.1,0-0.2,0.7-0.6c-5.2,3-10.4,6.1-15.7,9.1c-5.2,3-10.4,6.1-15.7,9.2
						c-3-1.7-6-3.4-9.1-5.2l-9.3-5.3l0.6,0.3L79,69c0,0,0.2,0.1,0.4,0.1c-4.1-2.5-8.5-4.8-12.6-7.2c0,0,0.7,0.3,0.1-0.1
						c-3.1-1.6-4.7-3-6.4-3.5c-0.1-0.1-0.2-0.2,0.1-0.1c-4.2-2.4-8.5-4.8-12.7-7.2c-2.1-1.2-4.2-2.5-6.4-3.7c-0.5-0.3-1-0.6-1.6-0.9
						c-0.6-0.3-1.3-0.4-2-0.2c-1.3,0.2-2.5,1.3-2.8,2.7c-0.2,1.1,0.2,2.3,1,3.1c0.4,0.4,0.9,0.6,1.4,0.9c0.5,0.3,0.9,0.5,1.4,0.8
						c1.8,1.1,3.7,2.1,5.6,3.2c3.7,2.2,7.5,4.3,11.2,6.3l-0.1,0c9.5,5.2,19.4,11.2,29.2,16.8c1.7,0.9,3.1,1.8,4.5,2.6
						c1.4,0.8,2.7,1.6,4.3,2.4c-0.5,0.3-1.2,0.7-1.9,1.1l-0.1,0c-6.7,4.2-14.6,8.1-21.5,12.5l0.4-0.4c-1,0.8-4.4,2.4-3.8,2.5
						l-1.3,0.7c-4.7,3.1-8.9,5-14.8,8.6l0.4-0.3c-1.6,1-3.4,2.1-4.6,2.7c0.2-0.1,0.1-0.1,0.4-0.3c-2.6,1.3-5.2,2.8-7.8,4.4l-2,1.2
						c-0.7,0.4-1.2,1.1-1.4,1.8c-0.5,1.5,0.3,3.3,1.8,3.9c-0.2-0.1-0.5-0.1-0.7-0.2c0.6,0.4,1.6,0.7,2.6,0.5c0.5-0.1,1-0.4,1.4-0.6
						c0.5-0.3,0.9-0.5,1.4-0.8c1.9-1.1,3.9-2.2,5.5-3.2l-0.2,0.2l1.6-1l0.1,0.1C53.5,115.6,57.6,113.2,61.8,110.7z"/>
					<path class="st1" d="M105.4,91.6C105.4,91.6,105.4,91.6,105.4,91.6C105.2,91.5,105.3,91.6,105.4,91.6z"/>
					<path class="st1" d="M157.6,114c0.2,0.1,0.4,0.2,0.5,0.3C158.1,114.3,157.8,114.1,157.6,114z"/>
				</g>
			</g>
		</g>
	</g>
</g>
</svg>
