<?xml version="1.0" encoding="utf-8"?>
<!-- Generator: Adobe Illustrator 23.0.1, SVG Export Plug-In . SVG Version: 6.00 Build 0)  -->
<svg version="1.1" id="Layer_1" xmlns="http://www.w3.org/2000/svg" xmlns:xlink="http://www.w3.org/1999/xlink" x="0px" y="0px"
	 viewBox="0 0 200 170" style="enable-background:new 0 0 200 170;" xml:space="preserve">
<style type="text/css">
	.st0{fill:#EAB9C5;}
	.st1{fill:#D97294;}
	.st2{fill:#F5E1E5;}
	.st3{fill:#F8E9EC;}
	.st4{fill:#E299AD;}
	.st5{fill:#D45D85;}
	.st6{fill:#FDF8F9;}
	.st7{fill:#F3DADF;}
	.st8{fill:none;}
	.st9{fill:none;stroke:#B5DFCC;stroke-width:2;stroke-linecap:round;stroke-linejoin:round;stroke-miterlimit:10;}
	.st10{fill:#DB7C99;}
	.st11{fill:#FAF0F2;}
	.st12{fill:#F6E5E8;}
	.st13{fill:#DA7194;}
	.st14{fill:#F3A169;}
	.st15{fill:none;stroke:#EBB1C5;stroke-miterlimit:10;}
	.st16{fill:#0075C2;}
</style>
<g>
	<g>
		<g>
			<g>
				<g>
					<g>
						<polygon class="st5" points="138.5,146 138.4,145.8 137.9,145.7 						"/>
						<path class="st5" d="M136.1,144.4c0,0.1,0,0.1,0,0.1l1.5,0.7C137.2,144.7,136.4,144.8,136.1,144.4z"/>
						<path class="st5" d="M135.7,144.1c-0.4-0.4-0.7-0.5-1-0.5C135.1,143.5,135.7,144.3,135.7,144.1z"/>
						<path class="st5" d="M93.1,106.2c0,0,0.1,0.1,0.2,0.1C93.2,106.3,93.2,106.2,93.1,106.2z"/>
						<path class="st5" d="M80.2,98.8H80c1.3,0.6,2.6,1.3,3.8,2c1.3,0.7,2.6,1.6,3.8,2.3l-0.2-0.1c6.3,3.9,12,7.9,17.7,12.7
							c-0.1-0.1-0.1-0.1-0.2-0.1c0.3,0.2,0.6,0.4,1,0.6c0.1,0.1-0.1,0-0.2-0.1c1.1,1.2,3.5,3,4,3.7c0.3,0.3,0.5,0.3,0.4,0.1
							c4.3,3.9,8.5,8.4,12.9,12.5c0.2,0.2,0.2,0.3,0.1,0.3c3.8,3.3,7.7,6.9,11.6,10.2c0.2,0.1-0.3-0.4,0.1-0.1
							c-1.2-1.1-2.4-1.8-3.5-2.9l0.2,0.1c-0.7-0.7-0.3,0-1.1-0.9c-0.3-0.3,0.1,0,0-0.1c-1.7-1.5-3.5-3.2-5.2-4.6
							c-0.3-0.5-1.8-1.7-2.3-2.4c-0.4-0.3-0.9-0.9-1.2-0.9c-2.9-2.9-5.8-5.9-8.7-8.7c-3-2.9-6.1-5.8-9.3-8.4c-1.6-1.2-3.3-2.4-5-3.9
							c-1.8-1.4-3.6-2.9-5.5-4l0,0c-1.3-0.7-3.1-2-4.7-3l-1.4-0.6c-1.2-0.7-2.2-1.5-3.4-2.2c-1.2-0.6-2.3-1.4-3.5-2
							c-2.3-1.4-4.8-2.6-7.2-3.9c-4.9-2.6-10-4.7-15.3-6.4c-6-1.9-11.8-3.1-17.7-3.5c-2.9-0.3-5.9-0.4-8.7-0.4c-3,0-5.9,0-8.9-0.1
							c0,0-0.1-0.1,0.2,0c-3.4-0.1-6.6-1.4-8.6-3.8l0,0l-0.4-0.5L13,78.9c-0.3-0.4-0.4-1-0.6-1.4c-0.3-1-0.4-2-0.4-3
							c0.1-2,0.9-4,2-5.9c2.3-3.5,5.8-6.1,9.1-8.2c8.3-4.9,19.1-7.9,29.2-8.8v0.1c8.1-0.9,16.1,0.1,24,1.9c4,1.1,8.1,2.6,12,4.3
							c3.9,1.7,8.1,3.1,12,4.6c4.8,2,11.6,3.5,16.2,5.2c9.5,3.4,19,5.9,28.8,8.5c8.8,2.9,17.9,5.2,26.2,8.8c4,1.3,8.2,3.6,12.5,5.6
							l-0.1-0.1c0.7,0.5,1.6,0.9,2.3,1.2c0.7,0.3,1.5,0.6,1.9,1.2l-0.2-0.1c0.6,0.6,2,0.7,2.3,1.3h0.2c1,0.6,0,0.2,0.7,0.6
							c0.3,0.2,0.2-0.1,0.7,0.3c-0.1,0.4,2.1,1.6,1.9,2c-0.4-0.4,0.5,0.7-0.4-0.1c0.2,0.3,1.5,1.6,1.5,1.3c0.2,0,0.9,0.4,0.2-0.5
							l-0.2-0.1c-0.2-0.3-0.1-0.2-0.2-0.4c-1-1.1-1.1-1.3-1.8-2l0,0c-0.6-0.3-1.4-1-1.9-1.4l-0.1-0.2c-0.2-0.3-1.6-0.6-1.1-0.6
							c-2.6-1.6-5.5-3.1-8.6-4.5c-0.4-0.1-2.3-1.1-1.7-0.5c-0.6-0.5-2.9-1.6-3.7-1.9c0,0,0.1,0,0.2,0c-1.5-1-2-0.5-3.5-1.5
							c-0.3,0.1-2.8-1.2-3.8-1.2c-0.2-0.1-0.2-0.2-0.1-0.2c-2.8-1.1-6-2.2-8.3-3c-2.1-0.4-4.9-1.7-6.8-2c-1.5-0.5-3.8-1.4-5.9-1.9
							h0.2c-2.3-0.7-5.2-1.6-6.9-1.8c-0.6-0.5-1.6-0.7-2.6-1.2c-1.6-0.3-4.7-1.3-7.1-1.9c-0.3-0.2-2-0.5-2-0.7
							c-6.7-1.6-14.9-4.2-21.8-6.8h0.1c-1-0.2-2-0.3-3.1-0.4c-0.1,0-0.1-0.1,0.1,0c-1.3-0.4-2.4-1-3.7-1.4c0,0,0,0,0.2,0
							c-1.3-0.3-2.4-1.1-3.8-1.4l-0.1-0.1l-1-0.2c0-0.1,0.1-0.1,0.5,0.1c-2.7-1.1-5.4-2-8.1-3.3c-1.3-0.5-2.7-1.2-4-1.7
							c-1.4-0.5-2.8-1.1-4.3-1.5c-5.8-1.7-11.7-2.7-17.7-3h0.4c-0.7,0-1.6,0-2.3,0c0,0,0.1,0,0.2-0.1c-3-0.2-6.1,0.1-8.8,0.3
							c0,0,0.4-0.1,0-0.1c-2.1,0.4-3.4,0.1-4.5,0.6c-0.1,0-0.2-0.1,0-0.1c-5.9,1-11.8,2.4-17.4,4.7c-2.2,1.1-4.6,2.2-6.9,3.6
							c-2.2,1.4-4.5,2.9-6.3,4.8v-0.1c-1.2,1.2-2.2,2.4-3.2,3.9c-1,1.4-1.6,3.1-1.9,4.8c-0.3,1.7-0.1,3.5,0.5,5.1
							c0.6,1.6,1.9,3,3.4,3.9c2.4,1.5,4.5,1.8,7.3,2l0.1,0.1c4.9-0.1,10.2,0.4,15.2,0.5l-0.3,0.1c0.7-0.1,3,0.3,2.8,0l0.9,0.2
							c3.5,0,6.2,1.1,10.3,1.7h-0.3c1.1,0.2,2.3,0.5,3.2,0.7c-0.1,0-0.1,0-0.3,0c3.3,1.2,7.1,2.1,10.5,3.5h-0.4c1.7,0.5,4.7,2,6.8,3
							h-0.1l1.1,0.4v0.1C75,96.2,77.5,97.3,80.2,98.8z"/>
						<path class="st5" d="M105.6,116.3L105.6,116.3C105.5,116.2,105.5,116.2,105.6,116.3z"/>
						<path class="st5" d="M192.4,94.9c0.1,0.1,0.2,0.2,0.3,0.2C192.6,95.1,192.5,95,192.4,94.9z"/>
					</g>
				</g>
			</g>
		</g>
	</g>
	<g>
		<path class="st11" d="M25.1,68.9c0,0-10.5,8.8-10,13s24.9,3.7,29.3,4.3C48.8,86.7,57,66.2,25.1,68.9z"/>
		<g>
			<g>
				<g>
					<g>
						<polygon class="st5" points="25.1,69.5 25.3,69.6 25.3,69.5 						"/>
						<path class="st5" d="M25.8,69.3C25.8,69.2,25.8,69.2,25.8,69.3l-0.4,0.3C25.6,69.7,25.7,69.2,25.8,69.3z"/>
						<path class="st5" d="M25.9,69.3c0.1,0.1,0.2-0.1,0.2-0.1C26.1,69.3,25.9,69.1,25.9,69.3z"/>
						<path class="st5" d="M42.8,70.7L42.8,70.7c-0.6-0.2-1.3-0.6-1.9-0.9H41c-1.7-0.5-3.4-0.7-5.1-0.9c0,0,0,0,0.1,0
							c-0.1,0-0.2,0.1-0.3,0.1c0,0,0,0,0.1-0.1c-0.3-0.2-1.1,0-1.3-0.1c-0.1,0-0.1,0.1-0.1,0.1c-1.4-0.1-2.9-0.1-4.3,0.1
							C30,69.1,30,69,30,69c-1.2,0.3-2.4,0.2-3.7,0.3c0,0.1,0.1,0.1,0,0.2c0.4,0.1,0.7-0.2,1.1-0.1v0.1c0.2,0,0-0.2,0.3-0.1
							c0.1,0.1,0,0.1,0,0.1c0.5-0.1,1.2,0,1.6-0.2c0.1,0.2,0.6,0,0.7,0.1c0.1-0.1,0.3-0.1,0.3-0.2c1.9,0.1,3.9,0,5.9,0.3
							c1-0.2,2,0.4,3.1,0.5l0,0c0.3,0,0.9,0.1,1.3,0.3H41c1.2,0.5,2.3,1.2,3.4,1.8c1.1,0.7,2,1.6,2.7,2.7c0.7,1.2,1.1,2.6,1.1,3.8
							c0,1.3-0.1,2.7-0.5,3.9c0,0-0.1,0,0-0.1c-0.2,0.7-0.7,1.4-1.2,1.9l0,0c-0.5,0.7-1.4,1.5-2.2,1.3c-1.1-0.1-2-0.1-3,0
							c-2.3-0.1-4.9-0.1-7.3-0.2v-0.1C32,85.5,30,85,28.1,85c-2-0.3-4.2,0-6.2-0.4c-1.2-0.5-3-0.1-3.9-0.9c-0.5-0.3-1.1-0.5-1.6-0.9
							s-1-0.6-1.1-1.2c-0.1-1.1,0.3-2.2,0.7-3.4c1.3-1.8,2.4-3.7,4.3-5.1c0.5-1,1.7-1.3,2.4-2.1h-0.1c0.4-0.1,0.4-0.9,0.9-0.7l0,0
							c0.3,0,0.1-0.6,0.3-0.6v-0.1c0.2-0.2,0.1,0.1,0.3,0c0-0.1-0.1-0.1,0.1-0.2c0.3,0.2,0.4-0.5,0.7-0.2c-0.1,0.1,0.3,0,0.1,0.2
							c0.1,0,0.4-0.3,0.2-0.4c-0.1-0.2-0.1-0.4-0.4-0.3v0.1c-0.2,0-0.1,0-0.2-0.1c-0.3,0.2-0.4,0.1-0.7,0.2l0,0
							c0,0.2-0.2,0.3-0.4,0.4h-0.1c-0.2-0.1-0.1,0.5-0.2,0.2c-0.5,0.5-1.1,1.1-1.7,1.6c0,0.1-0.4,0.4-0.2,0.4c-0.3,0-0.7,0.3-1,0.5
							c0,0,0,0,0-0.1c-0.5,0.1-0.1,0.5-0.7,0.5c0.1,0.2-0.5,0.4-0.5,0.9c-0.1,0-0.1,0-0.1-0.1c-0.5,0.5-1.1,1.1-1.5,1.5
							c-0.2,0.5-0.9,1-1,1.5c-0.3,0.2-0.7,0.6-1,1.2v-0.1c-0.3,0.5-0.6,1.2-0.6,1.7c-0.3,0-0.4,0.3-0.6,0.5c0,0.4-0.3,1.3-0.1,2
							c-0.1,0.2,0.2,0.6,0.1,0.7c0.9,0.9,1.8,1.1,2.7,1.4c1,0.3,1.8,0.6,2.7,1l0,0c0.2-0.1,0.5-0.3,0.9-0.3c0,0,0,0.1,0,0
							c0.3,0,0.6,0.2,1,0.3c0,0,0,0-0.1,0.1c0.3,0,0.6,0.2,1,0.1v0.1h0.2c0,0.1,0,0.2-0.1,0.1c2.8,0.4,5.6,0.3,8.5,0.5l-0.1,0.1
							l0.5-0.1c0,0,0,0-0.1,0.1c0.7,0.1,1.5,0,2.1,0c0,0-0.1,0.1,0,0.1c0.5-0.2,0.9,0.3,1.1-0.1v0.1c1.4-0.1,2.9,0,4.3,0.1
							c1.2-0.3,2.6,0,3.7-0.2v0.1c0.4,0,0.9,0,1.2,0c0.4,0,0.9,0,1.3-0.1c0.7-0.3,1.4-1,1.9-1.7c0.4-0.5,0.5-1.1,0.9-1.7h0.1
							c0.1-0.6,0.3-1.2,0.5-1.8c0.2-0.6,0.3-1.3,0.1-1.8l0.1,0.1c-0.2-0.2,0-0.7-0.2-0.6l0.1-0.2c-0.2-0.4-0.2-0.7-0.3-1.2
							c0-0.4-0.1-0.9-0.4-1.3h0.1c-0.1-0.2-0.3-0.4-0.4-0.6c0,0,0,0,0.1,0c0-0.4-0.3-0.9-0.6-1.2c-0.3-0.3-0.6-0.6-1-1H46
							c-0.2-0.1-0.4-0.3-0.6-0.5s-0.5-0.4-0.7-0.5h0.1l-0.3-0.1l0.1-0.1C44.2,71.2,43.6,71,42.8,70.7z"/>
					</g>
				</g>
			</g>
		</g>
	</g>
	<g>
		<path class="st7" d="M55,30c0,0,21.1,3.7,32.6,8.7c11.5,5,78.1,34.5,88.8,45.4c0,0-16.2,2.1-51.2-15.8S87.5,42.6,87.5,42.6
			S60.8,38,55,30z"/>
		<g>
			<g>
				<g>
					<g>
						<polygon class="st5" points="54.4,30.4 54.5,30.6 54.8,30.8 						"/>
						<path class="st5" d="M56.1,31.9c0-0.1,0-0.1,0-0.1c-0.4-0.2-0.7-0.4-1.2-0.7C55.3,31.7,55.9,31.6,56.1,31.9z"/>
						<path class="st5" d="M56.5,32.2c0.3,0.4,0.6,0.4,0.7,0.4C57,32.7,56.5,32,56.5,32.2z"/>
						<path class="st5" d="M94.8,50.4l-0.1-0.1C94.7,50.4,94.7,50.4,94.8,50.4z"/>
						<path class="st5" d="M104.4,56.4h0.2c-1.9-1-3.8-2.4-5.6-3.6h0.1c-2.1-1.5-4.3-3.1-6.2-4.7c-1-0.9-1.9-1.6-2.9-2.6
							c-0.4-0.4-0.9-1-1.3-1.4c-0.4-0.5-0.9-1.1-1.1-1.6c-0.3-0.1-0.6-0.1-1.1-0.2c0.1,0,0.1,0,0.2,0c-0.3,0-0.5,0-0.9-0.1
							c-0.1,0,0.1,0,0.2,0c-1.2-0.4-3.4-0.5-4.2-0.9c-0.3,0-0.5,0-0.3,0.1c-4.4-1-8.9-2.1-13.2-3.4c-0.2-0.1-0.2-0.1-0.1-0.2
							c-3.7-1-7.6-2.6-10.8-5c-0.2,0,0.3,0.3-0.1,0.1c1,0.9,2.1,1.2,3.1,1.8h-0.2c0.7,0.4,0.2-0.1,1,0.4c0.3,0.2-0.1,0.1,0,0.1
							c1.6,0.7,3.3,1.6,5,1.9c0.3,0.3,1.8,0.6,2.3,1.1c0.4,0.1,0.9,0.2,1.1,0.2c2.9,1,5.9,1.8,8.8,2.4c1.5,0.3,3,0.6,4.5,1l2.2,0.4
							l2,0.4c0,0,0,0.1,0.1,0.1c0,0,0,0.1,0.1,0.2c1,1.3,2.1,2.4,3.3,3.6c1.2,1.2,2.6,2.4,3.9,3.5l0,0c1,0.6,2.3,1.6,3.4,2.4
							l1.1,0.5c6.6,5,14.2,8.9,21.5,13c8.4,4.5,15.9,8.4,24.7,11.3c0,0,0,0.1-0.2,0c2.6,1,4.8,1.8,7.2,2.6l0,0
							c6.1,1.6,12.6,3.6,18.7,3.8c1,0.1,1.8,0.1,2.8,0.2c0.4,0,1,0,1.6,0c0.3,0,0.5,0,0.9,0c0.1,0,0.3,0,0.4,0l-0.3-0.3
							c-0.4-0.3-0.7-0.7-1.3-1.1l-1.2-1c-0.7-0.5-1.6-1.2-2.4-1.7c-3.3-2.2-6.8-4.2-10.2-6.1l0,0c-5.5-2.9-10.7-6-16.3-8.7
							c-5.6-3-11.9-5.4-17.7-8.4c-3.4-2-8.5-3.6-11.7-5.4C109,47.7,102,44.9,94.9,42c-1.6-0.7-3.2-1.5-4.9-2.2
							c-1.6-0.7-3.3-1.4-4.9-2c-3.3-1.2-6.6-2.2-9.9-3.3c-3.2-0.6-6.6-2-10.1-2.8l0.1,0.1c-1.2-0.5-2.9-0.3-3.6-0.9h0.1
							c-0.6-0.3-1.7,0.1-2-0.2l-0.1,0.1c-0.9-0.1-0.1-0.1-0.7-0.3c-0.2,0-0.1,0.1-0.6,0c0-0.4-2-0.3-2-0.7c0.4,0.1-0.6-0.3,0.3-0.2
							c-0.3-0.1-1.7-0.3-1.6-0.1c-0.1,0.2-0.7,0.2,0.1,0.5l0.2-0.1c0.2,0.2,0.2,0.1,0.3,0.2c1.1,0.2,1.2,0.4,1.9,0.6l0,0
							c0.5-0.1,1.3,0.2,1.7,0.3l0.1,0.1c0.2,0.2,1.3-0.1,1,0.1c2.2,0.4,4.8,1,7.2,1.5c0.3,0,1.9,0.4,1.4,0.1c0.5,0.3,2.3,0.9,3,1.1
							c0,0-0.1,0-0.2,0c1.3,0.6,1.6,0.1,2.8,0.9c0.2-0.2,2.1,0.7,3,0.6c0.1,0.1,0.2,0.2,0.1,0.2c2.1,0.6,4.6,1.5,6.3,2.1
							c1.6,0.3,3.6,1.5,5,1.8c1.1,0.5,2.8,1.4,4.3,1.9h-0.2c1.7,0.7,3.8,1.7,5,2c0.4,0.5,1.2,0.7,1.8,1.2c1.2,0.4,3.4,1.5,5.2,2.1
							c0.2,0.2,1.5,0.6,1.5,0.9c5,1.8,10.9,4.7,15.8,7.3H122c0.7,0.2,1.6,0.3,2.3,0.5c0.1,0,0,0.1-0.1,0c1,0.4,1.7,1,2.7,1.4
							c0,0,0,0-0.2,0c1,0.3,1.7,1,2.9,1.4v0.1l0.6,0.2c0,0.1-0.1,0.1-0.4-0.1c8,3.8,16.3,7.6,24.3,11.9l-0.3-0.1l1.6,0.7
							c0,0-0.1,0-0.2,0c1.9,1.2,4,2.1,6,3.2c0,0-0.3-0.1-0.1,0.1c1.5,0.6,2.1,1.5,3,1.6c0.1,0,0.1,0.1-0.1,0.1
							c2,1.1,3.9,2.2,5.9,3.4c1,0.6,1.9,1.3,2.8,1.9c0.4,0.3,1,0.6,1.4,1.1l0.6,0.5c0.1,0.1,0.2,0.2,0.3,0.3
							c0.2,0.1,0.7,0.4,0.3,0.4c-0.2,0-0.5,0.1-1,0.1c-1,0-2,0-3-0.1c-2-0.2-4-0.4-6-0.7v-0.1c-5-0.6-10.2-2.3-15.1-4
							c-2-0.7-3.5-1.2-5.5-1.9v-0.1c-1.8-0.4-3.5-1.3-5.3-2.1c-1.8-0.7-3.5-1.7-5.4-2.3h0.3c-0.6-0.1-2.1-1.1-2-0.6l-0.5-0.3
							c-2.6-0.7-4.2-2.2-7.1-3.5h0.2c-0.7-0.3-1.7-0.7-2.2-1.2c0.1,0,0.1,0,0.2,0.1c-1.1-0.7-2.3-1.4-3.6-2
							c-1.3-0.6-2.6-1.3-3.8-1.9h0.3c-1.3-0.5-3.4-1.9-5-2.7h0.1l-0.9-0.4v-0.1C108.2,58.7,106.3,57.6,104.4,56.4z"/>
						<path class="st5" d="M57.8,31.2c-0.1,0-0.2-0.1-0.3-0.1C57.6,31.2,57.7,31.2,57.8,31.2z"/>
					</g>
				</g>
			</g>
		</g>
	</g>
	<g>
		<path class="st7" d="M69.1,37.9c1.3,3,9.6,8.4,13.7,10c0,0-27.5,7.9-27.9,11.6c0,0,3.3,9.2,9.2,13.3c0,0-6.6-8.9-5.4-12.9
			c0,0,25.8-6.2,27.9-11.1c0,0,2.6-0.5-7.1-8.2L69.1,37.9z"/>
		<g>
			<g>
				<g>
					<g>
						<polygon class="st5" points="69,38.6 69,38.6 69.2,38.5 						"/>
						<path class="st5" d="M70.1,38.6C70,38.6,70.1,38.5,70.1,38.6h-0.7C69.6,39,69.9,38.4,70.1,38.6z"/>
						<path class="st5" d="M70.2,38.7c0.2,0.1,0.3,0,0.4,0C70.5,38.7,70.2,38.5,70.2,38.7z"/>
						<path class="st5" d="M82.1,52.5v0.1c0.9-0.6,1.9-1,2.8-1.7V51c0.7-0.5,1.4-1.1,1.8-1.9l-0.1,0.1c0.3-0.1,0.4-0.4,0.4-0.6
							c0-0.2-0.1-0.4-0.2-0.6c-0.2-0.4-0.5-0.7-0.9-1.1c-0.6-0.6-1.3-1.3-2-1.9H84c-0.1-0.1-0.3-0.1-0.4-0.2h0.1
							c-0.3-0.5-1.4-1.1-1.5-1.4c-0.1-0.1-0.2-0.1-0.2,0c-0.9-0.6-1.7-1.4-2.6-2c-0.1-0.1-0.1-0.1-0.2-0.1l-0.4-0.1L78,40.9
							c-0.5-0.1-1.1-0.2-1.6-0.3c-0.1-0.1-0.1-0.1,0-0.2c-1.9-0.2-3.7-0.9-5.5-1.4c-0.1,0.1,0.2,0.1,0,0.2c0.5,0.3,1.2,0.1,1.6,0.4
							l-0.1,0.1c0.4,0.2,0.1-0.2,0.5,0c0.1,0.1-0.1,0.1,0,0.1c0.9,0.2,1.7,0.5,2.6,0.5c0.1,0.2,0.9,0.2,1.2,0.5c0.2,0,0.4,0.1,0.5,0
							c0.7,0.2,1.5,0.4,2.1,0.6c0,0,0,0,0.1,0l0.2,0.2L80,42l0.9,0.7c1.2,1,2.3,1.9,3.5,3c0.6,0.3,1.1,1,1.6,1.6
							c0.2,0.3,0.4,0.6,0.5,1c0.1,0.2,0.1,0.3,0.1,0.4c0,0.1,0,0.1,0,0.1l-0.3,0.2l-0.1,0.2l0,0c-0.1,0.4-0.6,1.1-1.3,1.4
							c-0.1,0.1-0.2,0.3-0.3,0.4c-3.5,1.9-7.3,3.4-11.2,4.6c-4.5,1.4-8.4,2.2-12.7,3.8c0,0,0,0,0.1-0.1c-0.3,0.1-0.7,0.2-1.1,0.3
							c-0.4,0.1-0.9,0.2-1.3,0.3l-0.2,1.1c0,0.3,0,0.5,0,0.9l0,0c0.2,1.6,0.9,3.1,1.5,4.6c0.6,1.5,1.4,2.8,2.3,3.9
							c0.5,1,1.2,1.9,1.9,2.9l0.2-0.2c-2-1.5-3.8-3.6-5.3-5.8H59c-1.7-2.2-2.7-5-3.7-7.5c0-0.1,0-0.2,0.1-0.3c1-1.1,2.3-1.9,3.7-2.7
							c1.4-0.7,2.9-1.5,4.4-2c1.9-0.4,4-1.9,5.9-2.2c3.7-0.7,7-2.1,10.5-3.6c1.1-0.3,2-0.5,2.7-0.7c-0.5-0.2-1-0.4-1.4-0.6
							c-0.4-0.2-1.1-0.5-1.6-0.7c-1.1-0.5-2-1.2-3-1.9c-1.5-0.6-2.6-2.1-3.9-3.2v0.1c-0.3-0.5-1.3-0.6-1.4-1.2h0.1
							c-0.1-0.3-0.9-0.2-0.9-0.5h-0.1c-0.3-0.3,0-0.1-0.1-0.3c-0.1-0.1-0.1,0.1-0.3-0.1c0.2-0.2-0.6-0.7-0.3-1.1
							c0.1,0.2,0-0.3,0.3,0c0-0.1-0.3-0.6-0.4-0.5c-0.2,0-0.4-0.2-0.4,0.3h0.2c-0.1,0.2,0,0.1-0.1,0.2c0.2,0.5,0.2,0.6,0.3,1.1l0,0
							c0.3,0.1,0.5,0.4,0.6,0.6v0.1c0,0.2,0.6,0.2,0.3,0.3c0.9,0.7,1.8,1.6,2.8,2.3c0.2,0,0.7,0.5,0.6,0.2c0.1,0.3,0.9,1,1.1,1.2
							c0,0,0,0-0.1,0c0.4,0.6,0.9,0.2,1.2,0.9c0.2-0.2,1,0.6,1.4,0.6c0,0.1,0,0.1,0,0.2c1,0.6,2,1.3,2.9,1.7c0.2,0,0.4,0.1,0.5,0.2
							c0,0,0,0,0.1,0c0,0,0,0,0.4,0.1h0.1c-0.2,0-0.3,0-0.4,0H81c0,0,0,0-0.1,0s-0.2,0.1-0.3,0.1l0.1-0.1c-0.9,0.3-1.9,0.6-2.4,1
							c-0.3-0.2-0.7,0-1.1,0c-0.5,0.3-1.7,0.6-2.6,1.1c-0.2-0.1-0.7,0.3-0.9,0.1c-2.3,1.2-5.3,2.1-8.1,2.8l0,0
							c-0.3,0.2-0.6,0.6-0.9,0.9c0,0,0,0,0-0.1c-0.4,0.2-1,0.2-1.4,0.4c0,0,0,0,0.1-0.1c-0.4,0.2-1,0.2-1.4,0.5l0,0L61.8,55
							c0-0.1,0-0.2,0.1-0.2c-1.3,0.5-2.6,1.2-3.8,1.8c-0.6,0.3-1.3,0.7-1.8,1.2c-0.3,0.2-0.6,0.4-0.9,0.7c-0.3,0.3-0.5,0.6-0.6,1.3
							l0.3,0.6l0.2,0.5l0.5,1.1c0.3,0.7,0.6,1.4,1.1,2.1l-0.1-0.1l0.5,0.7h-0.1c0.4,1.1,1.2,1.9,1.7,2.8c0,0-0.2-0.1-0.1,0.1
							c0.6,0.5,0.5,1.2,1.1,1.3c0,0,0,0.1-0.1,0.1c1.4,1.6,2.8,3.2,4.5,4.5L66,75L64.8,73l-0.2-0.4c-1.4-1.3-2.1-3.2-3.3-4.7h0.1
							c-0.7-1.1-1.3-2.1-1.6-3.4c-0.4-1.2-0.6-2.6-0.5-3.7c0-0.1,0-0.2,0.1-0.3c0.3-0.1,0.7-0.2,1.1-0.3c0.4-0.1,0.7-0.2,1.2-0.3
							v0.1c1.7-0.7,3.7-0.6,5.4-1.6l-0.1,0.1c0.2-0.2,1.1-0.2,1-0.5h0.3c1.1-0.7,2.2-0.4,3.7-1.2l-0.1,0.1c0.4-0.2,0.9-0.3,1.2-0.4
							c0,0,0,0-0.1,0.1c1.3-0.1,2.6-0.9,3.9-1.4l-0.1,0.2c0.5-0.4,1.8-0.6,2.6-1.1v0.1l0.4-0.2l0.1,0.1C80.2,53.4,81.2,53,82.1,52.5
							z"/>
						<path class="st5" d="M69.5,39.5c0,0,0-0.1-0.1-0.1C69.5,39.4,69.5,39.5,69.5,39.5z"/>
					</g>
				</g>
			</g>
		</g>
	</g>
	<g>
		<path class="st7" d="M96.5,51.2c-0.5,1.4,3.2,7.1,3,9.7c-0.2,2.4-16.3,8.4-19.2,9.4s-2.9,3.3,2.3,9.4c0,0,1-4-0.7-5.5
			c-1.7-1.5,1.4-2.1,5.8-4.3c4.4-2.1,13.5-4,14-6.7c0.4-2.7-2.1-9.9-2.1-9.9L96.5,51.2z"/>
		<g>
			<g>
				<g>
					<g>
						<polygon class="st5" points="96.1,51.7 96.1,51.8 96.3,51.8 						"/>
						<path class="st5" d="M96.8,52L96.8,52l-0.5-0.1C96.4,52.2,96.8,51.8,96.8,52z"/>
						<path class="st5" d="M96.9,52.1c0.1,0.1,0.2,0.1,0.3,0C97,52.2,96.9,52,96.9,52.1z"/>
						<path class="st5" d="M97.9,66v0.1c0.5-0.4,1.4-0.6,1.9-1.1v0.1c0.7-0.4,1.6-1.1,1.8-2c0.1-0.9-0.1-1.8-0.3-2.7
							c0,0,0,0,0.1,0.1c0-0.1-0.1-0.2-0.1-0.2h0.1c0.1-0.4-0.3-1.1-0.2-1.4c0-0.1-0.1-0.1-0.2-0.1c-0.3-1.4-0.9-2.8-1.4-4.2
							c0-0.1,0-0.1,0.1-0.1c-0.2-0.3-0.3-0.5-0.4-0.9c-0.2-0.4,0-0.2-0.4-0.4c-0.5-0.3-1.1-0.7-1.5-1.2c-0.1,0,0.1,0.1-0.1,0.1
							c0.3,0.3,0.7,0.3,1,0.6h-0.1c0.2,0.2,0.2-0.1,0.3,0.1c0,0.1-0.1,0.1,0,0.1l0.3,0.2c0.1,0.1,0.2,0.2,0.2,0.2
							c0-0.1,0.1,0.3,0.3,0.5c-0.1,0.2,0.2,0.5,0.1,0.9c0.1,0.1,0.1,0.2,0.2,0.3c0.5,1.9,1.2,3.8,1.5,5.9c0.2,0.4,0.3,1,0.2,1.5
							c0,0.2-0.1,0.5-0.1,0.6c-0.1,0.2-0.2,0.3-0.4,0.5l0,0c-0.1,0.3-0.5,0.6-1,0.9c-0.1,0.1-0.1,0.2-0.2,0.3c-2.4,1-5,1.9-7.6,2.8
							c-1.5,0.4-2.9,0.9-4.3,1.5c-1.3,0.6-2.6,1.2-3.8,2c0,0,0,0,0-0.1c-0.7,0.4-1.6,0.6-2.2,1.2l0,0c-0.1,0.1-0.2,0.2-0.3,0.3
							c-0.1,0.1-0.2,0.3-0.2,0.5s0,0.3,0.1,0.5c0.1,0.1,0.2,0.3,0.3,0.4c0.2,0.2,0.4,0.4,0.5,0.5c0.1,0.2,0.2,0.4,0.3,0.6
							c0.3,1,0.3,2,0.4,2.9c0,0.2-0.1,0.5-0.1,0.7c0,0.2,0,0.7-0.3,0.3l-0.5-0.6l-0.5-0.6c-0.7-1-1.6-2-2.2-3.1h0.1
							c-0.5-0.9-0.9-1.9-0.6-2.8c0.3-1,1.3-1.3,2.1-1.6c2-0.5,3.8-1.8,5.9-2.3c1.3-0.2,2.7-1.5,3.8-1.6c2.4-0.5,4.6-1.8,6.6-3.3
							c0.5-0.2,1-0.5,1.4-1c0.4-0.3,0.9-0.7,0.9-1.3c0-1.1-0.5-2.1-0.7-3.2c-0.6-0.9-0.5-2.1-1.1-3.2l0-0.2c0.1-0.5-0.6-0.7-0.4-1.1
							l0,0c0.1-0.3-0.6-0.3-0.4-0.5h-0.1c-0.1-0.2,0.1-0.1,0.1-0.3c0-0.1-0.2,0-0.2-0.2c0.2-0.1,0.1-0.2,0.1-0.4
							c0-0.1-0.1-0.3,0.1-0.3c0,0.1,0.1-0.2,0.2,0.1c0-0.1,0-0.3-0.1-0.4c-0.2-0.1-0.3-0.3-0.5-0.1l0.1,0.1
							c-0.1,0.1-0.1,0.1-0.2,0.1c0,0.4-0.2,0.5-0.2,0.9l0,0c0.2,0.1,0.2,0.4,0.2,0.5L96,52.8c-0.1,0.1,0.4,0.3,0.1,0.3
							c0.3,0.6,0.6,1.5,1,2.2c0.1,0.1,0.2,0.5,0.3,0.3c-0.1,0.3,0,0.9,0.1,1.1c0,0,0,0-0.1,0c-0.1,0.5,0.4,0.3,0.2,0.9
							c0.3,0,0.2,0.7,0.5,0.9c0,0.1-0.1,0.1-0.1,0.1c0.2,0.6,0.3,1.5,0.4,1.9c0.1,0.1,0.1,0.2,0.1,0.3c0,0.1,0,0-0.1,0.1
							s-0.3,0.3-0.3,0.5c-0.3,0.2-0.9,0.4-1.2,0.7v-0.1c-0.4,0.3-1.1,0.7-1.4,1.1c-0.3-0.2-0.5,0-0.7,0c-0.3,0.3-1,0.6-1.5,1
							c-0.1-0.1-0.4,0.3-0.5,0.1c-1.4,1.1-3.4,1.8-5.1,2.2l0,0c-0.2,0.2-0.3,0.5-0.5,0.7c0,0,0,0,0-0.1c-0.3,0.1-0.6,0.1-1,0.2
							c0,0,0,0,0-0.1c-0.2,0.2-0.6,0.1-1,0.3l0,0L85,67.6c0-0.1,0-0.2,0.1-0.2c-1.4,0.5-2.7,1.1-4,1.6c-0.6,0.3-1.4,0.5-2,0.9
							c-0.3,0.2-0.6,0.5-1,0.9c-0.2,0.3-0.4,0.9-0.4,1.2l-0.1-0.1c0,0.2,0.1,0.4,0.1,0.6c0,0-0.1,0-0.1-0.1c0,0.9,0.5,1.5,0.7,2.1
							c0,0-0.1-0.1-0.1,0c0.4,0.4,0.2,0.9,0.6,1l-0.1,0.1c0.4,0.6,0.9,1.2,1.4,1.8l0.7,1c0.3,0.4,0.6,0.9,1,1.3
							c0.1,0.1,0.2,0.2,0.4,0.3c0,0.1,0,0,0-0.1v-0.2v-0.3c0.1-0.4,0.1-0.9,0.2-1.2c0-0.4,0.1-0.7,0-1.1c0-0.3-0.1-0.6-0.2-1h0.1
							c-0.2-0.9-0.4-1.7-1.1-2.2c-0.3-0.3-0.5-0.6-0.3-1c0.2-0.3,0.6-0.5,1-0.7c0.6-0.3,1.1-0.5,1.7-0.9v0.1c1-0.7,2.4-0.7,3.4-1.6
							v0.1c0.1-0.2,0.7-0.2,0.5-0.5h0.2c0.6-0.7,1.5-0.4,2.3-1v0.1c0.2-0.1,0.5-0.3,0.7-0.3c0,0,0,0-0.1,0.1c1,0,1.7-0.6,2.6-1v0.2
							c0.3-0.3,1.2-0.4,1.7-0.7v0.1l0.2-0.2v0.1C96.6,66.8,97.3,66.3,97.9,66z"/>
					</g>
				</g>
			</g>
		</g>
	</g>
	<g>
		<path class="st7" d="M113.7,62.1c0.2,0.2,2.6,5.1,1.2,8s-8.2,15.3-6.3,18.2c1.9,2.9,14.4,12.7,16.6,15.7c0,0,4-1.5-1.2-5.2
			c-5.2-3.7-15.7-6.5-13.2-14.6c2.4-8.1,9.4-14.2,6.6-20.1L113.7,62.1z"/>
		<g>
			<g>
				<g>
					<g>
						<path class="st5" d="M114.1,62.8C114.1,62.8,114.2,62.8,114.1,62.8h-0.6C113.7,63,114.1,62.7,114.1,62.8z"/>
						<path class="st5" d="M114.2,62.9c0.1,0.1,0.3,0.1,0.3,0C114.5,63,114.3,62.8,114.2,62.9z"/>
						<path class="st5" d="M112.2,80.8L112.2,80.8c0.2-0.7,0.9-1.5,1.2-2.3v0.1c1.1-1.9,2-3.8,2.9-5.8v0.1c0-0.1,0-0.2,0.1-0.3v0.1
							c0.4-0.3,0.4-1.3,0.7-1.5c0-0.1,0-0.2-0.1-0.2c0.6-1.6,1-3.4,0.5-5c0-0.1,0.1-0.1,0.1-0.1c-0.1-0.2-0.1-0.3-0.2-0.5
							c-0.1-0.2-0.2-0.3-0.2-0.5l-0.2-0.4h-0.1l-0.2-0.1c-0.6-0.4-1.4-0.7-2-1.2c-0.1,0,0.1,0.1-0.1,0.1c0.4,0.3,0.9,0.2,1.2,0.6
							h-0.1c0.2,0.2,0.1-0.1,0.4,0.1c0.1,0.1-0.1,0.1,0,0.1l0.4,0.2l0.2,0.1c0.1,0,0,0,0.1,0c0,0,0.2,0.4,0.4,0.6
							c-0.1,0.2,0.1,0.6,0,1c0.1,0.1,0.1,0.3,0.2,0.3c0.1,2.2-0.7,4.6-1.8,6.8c-0.2,1.2-1.3,2.2-1.8,3.5l0,0
							c-0.1,0.4-0.4,1.1-0.7,1.5l-0.1,0.4c-0.9,1.4-1.6,2.9-2.1,4.4c-0.1,0.4-0.3,0.7-0.4,1.2l-0.3,1.3c-0.1,0.4,0,0.9-0.1,1.3
							c0,0.4,0.1,0.9,0.1,1.3c0.4,2,1.6,3.5,3,4.7c1.4,1.2,2.9,2,4.6,2.8c0,0,0,0.1-0.1,0c1,0.4,1.7,1.1,2.7,1.4l0,0
							c1.2,0.4,2.2,1.1,3.3,1.8c1.1,0.7,2,1.5,2.7,2.3c0.3,0.6,0.3,1.4-0.1,1.9c-0.2,0.3-0.5,0.5-0.9,0.6h-0.1c0,0-0.1,0-0.1-0.1
							l-0.1-0.2c-0.1-0.1-0.2-0.3-0.3-0.4c-1.1-1.2-2.2-2.1-3.4-3.2l0,0c-1.9-1.5-3.4-3.3-5.3-4.9c-1.8-1.8-4.2-3.1-5.8-5
							c-0.4-0.6-1.2-1.3-1.7-1.9c-0.4-0.7-0.4-1.8-0.2-2.4c1.1-2.9,1.9-5.5,2.9-8.4c1.3-2.4,2.2-5.1,3.7-7.3
							c0.1-0.6,0.3-1.3,0.4-1.9c0.1-0.6,0.1-1.4-0.1-2.1l-0.1,0.1c0.1-0.5-0.6-1-0.3-1.4l0,0c0.1-0.3-0.6-0.4-0.4-0.6h-0.1
							c-0.1-0.3,0.1-0.1,0-0.3c0-0.1-0.2,0-0.2-0.2c0.3-0.2-0.4-0.7,0-0.9c0.1,0.2,0-0.3,0.3,0c0-0.1-0.1-0.2-0.2-0.3
							c-0.1-0.1-0.3-0.3-0.3-0.2c-0.2,0.1-0.4,0.1-0.3,0.4h0.1c-0.1,0.2,0,0.1-0.1,0.2c0.2,0.4,0,0.5,0,0.9l0,0
							c0.2,0.1,0.2,0.4,0.3,0.6v0.1c-0.1,0.1,0.4,0.3,0.1,0.3c0.3,0.7,0.6,1.7,0.7,2.7c0.1,0.1,0,0.7,0.2,0.5
							c-0.2,0.2-0.3,1-0.3,1.2c0,0,0,0,0-0.1c-0.2,0.2-0.1,0.3-0.1,0.5c0,0.1,0.1,0.3-0.2,0.4c0.1,0.1,0,0.2-0.1,0.4
							c-0.1,0.2-0.2,0.4-0.2,0.6c-0.1,0-0.1,0-0.2,0c-0.4,0.7-1,1.6-1.3,2.3c-0.1,0.6-0.7,1.4-0.7,2c-0.2,0.4-0.7,1-0.9,1.6v-0.1
							c-0.3,0.6-0.6,1.5-0.6,2c-0.3,0.1-0.4,0.4-0.6,0.6c-0.1,0.5-0.4,1.4-0.6,2.1c-0.2,0.1-0.1,0.6-0.3,0.5
							c-0.2,1.1-0.4,2.1-0.7,3.4c-0.1,0.6-0.2,1.2-0.3,1.8c0,0.3,0,0.6,0.1,1.1c0,0.2,0.1,0.3,0.2,0.5c0.1,0.2,0.1,0.3,0.2,0.4l0,0
							c0.3,0.2,0.7,0.3,1,0.4c0,0,0,0.1-0.1,0c0.3,0.3,0.4,0.7,0.7,1c0,0,0,0-0.1,0c0.3,0.2,0.4,0.6,0.9,0.9v0.1l0.2,0.1
							c0,0-0.1,0.1-0.2,0c2.4,2.4,5.4,4.5,8.1,6.9h-0.1l0.6,0.3h-0.1c0.5,0.6,1.4,1.2,2,1.7c0,0-0.2,0-0.1,0.1
							c0.6,0.3,0.6,0.9,1.1,0.7c0,0,0,0.1-0.1,0.1c0.6,0.5,1.4,1.2,1.9,1.8l0.4,0.4l0.5,0.6l0.2,0.2l0.1,0.1h0.1
							c0.1-0.1,0.3-0.1,0.4-0.2s0.3-0.2,0.4-0.2c0.1-0.1,0.2-0.1,0.3-0.2c0.2-0.3,0.4-0.7,0.5-1.2c0-0.4,0-0.9-0.2-1.3
							c-0.3-0.7-1-1.4-1.6-1.7l0,0c-1.7-1.1-3.4-2.2-5.2-3.2c-0.7-0.4-1.3-0.6-2-1.1v-0.1c-1.4-0.4-2.4-1.8-3.8-2.4h0.1
							c-0.3,0-0.6-0.6-0.7-0.3l-0.1-0.2c-0.5-0.2-0.9-0.5-1.1-1c-0.3-0.4-0.5-0.9-1-1.4h0.1c-0.2-0.2-0.4-0.6-0.4-0.9
							c0,0,0,0,0.1,0.1c-0.1-1.1-0.5-2.1-0.4-3.2l0.1,0.1c0-0.5,0.2-1.5,0.4-2.1v0.1v-0.3h0.1C111.5,82.5,111.8,81.7,112.2,80.8z"/>
					</g>
				</g>
			</g>
		</g>
	</g>
	<g>
		<path class="st0" d="M76.7,44.6c0,0-17-0.6-20.1,2.2c-3.1,2.9-2.7,6.5-2.7,6c0-0.5,3.8,0.4,6.2-1.6c2.3-2,10.4,0.6,12.9-0.1L83,48
			L76.7,44.6z"/>
		<g>
			<g>
				<g>
					<g>
						<path class="st5" d="M76.9,45.2C76.9,45.2,77,45.2,76.9,45.2l-0.4,0.1C76.6,45.6,76.9,45.1,76.9,45.2z"/>
						<path class="st5" d="M77,45.3c0.1,0.1,0.2,0,0.2,0C77.1,45.3,77.1,45.1,77,45.3z"/>
						<path class="st5" d="M76.5,50v0.1c0.4-0.3,1.1-0.3,1.5-0.5l0,0c0.6-0.2,1.3-0.4,1.9-0.6c0.5-0.2,1.2-0.5,1.8-0.7
							c0,0,0,0,0,0.1c0,0,0-0.1,0.1-0.1c0,0,0,0,0,0.1c0.2,0,0.4-0.1,0.5-0.1c0.1-0.1,0.1-0.1,0.4-0.1c0,0,0,0-0.1,0s-0.2,0-0.2,0
							l0,0c-0.4-0.2-0.7-0.3-1.1-0.5c-0.4-0.2-1-0.4-1.5-0.6v-0.1c-1-0.1-1.7-0.7-2.6-1.2c-0.1,0.1,0,0.1-0.1,0.1
							c0.2,0.2,0.5,0.1,0.7,0.3l-0.1,0.1c0.1,0.1,0.1-0.1,0.2,0c0,0.1-0.1,0.1,0,0.1c0.4,0.2,0.7,0.4,1.2,0.4c0,0.2,0.4,0.2,0.4,0.4
							c0.1,0,0.2,0.1,0.3,0c0.2,0.1,0.4,0.2,0.6,0.3l0.3,0.2l0.1,0.1l0.5,0.2c-0.1,0.1-0.3,0.1-0.5,0.2c0,0.1-0.2,0.2-0.4,0.2
							c-0.2,0.1-0.4,0.1-0.5,0.1c-0.4,0.1-0.9,0.1-1.2,0.3l0,0c-0.2,0.2-0.6,0.3-1,0.4l-0.2,0.2c-1,0.1-1.9,0.4-2.9,0.7l-1.4,0.4
							c-0.2,0.1-0.5,0.1-0.7,0.2c-0.2,0-0.4,0.1-0.6,0.1c-2.1,0-4.2-0.7-6.4-0.5c0,0,0,0,0-0.1c-0.6,0-1.3-0.2-1.8-0.1l0,0
							c-0.7,0.1-1.6,0.1-2.3,0.2c-0.4,0.1-0.7,0.2-1.2,0.4c-0.2,0.1-0.3,0.2-0.5,0.4l-0.3,0.4c-0.7,0.4-1.6,0.7-2.6,0.9
							c-1,0.2-1.9,0.1-2.8,0.3l0.1-0.1c-0.1,0-0.2,0.1-0.2,0.1V53v-0.1c0-0.2,0-0.3,0-0.5c0-0.3,0.1-0.6,0.2-1.1
							c0.2-0.6,0.5-1.3,0.9-2c0.4-0.6,0.7-1.3,1.3-1.9c0.4-0.6,1.2-1.1,1.9-1.3c1,0,2-1,3-0.7c1.9,0.2,3.6-0.2,5.4-0.6
							c1.7,0.1,3.4-0.4,5-0.1c0.7-0.2,1.6,0.3,2.4,0.2v-0.1c0.3,0.2,0.7-0.3,0.9,0l0,0c0.2,0.2,0.4-0.4,0.5-0.2v-0.1
							c0.2,0,0,0.1,0.2,0.1c0.1,0,0-0.2,0.1-0.1c0,0.4,0.5-0.1,0.5,0.3c-0.1,0,0.2,0.2-0.1,0.2c0.1,0,0.4,0,0.4-0.1
							c0-0.2,0.2-0.3,0-0.5v0.1c-0.1-0.1,0-0.1-0.1-0.2c-0.2,0-0.3-0.2-0.5-0.3l0,0c-0.1,0.2-0.3,0.1-0.4,0v-0.1
							c-0.1-0.2-0.3,0.3-0.2,0c-0.5,0.1-1.2,0-1.8,0c-0.1,0.1-0.4,0-0.3,0.2c-0.1-0.2-0.6-0.3-0.7-0.3l0,0c-0.3-0.3-0.4,0.3-0.6-0.1
							c0,0.2-0.5-0.1-0.7,0.2c0-0.1,0-0.1,0-0.1c-0.5,0-1.2-0.1-1.6-0.1c-0.4,0.2-1-0.1-1.3,0.2c-0.3-0.1-0.7-0.2-1.2,0l0,0
							c-0.4,0-1,0.1-1.3,0.3c-0.1-0.3-0.3-0.2-0.5-0.3c-0.3,0.2-0.9,0.2-1.3,0.3C64,44,63.8,44.2,63.7,44c-1.3,0.5-2.8,0.6-4.3,0.6
							l0,0c-0.1,0.1-0.3,0.4-0.4,0.6c0,0,0,0,0-0.1c-0.2,0.1-0.5,0-0.7,0.1c0,0,0,0,0-0.1c-0.2,0.2-0.5,0-0.7,0.3l0,0l-0.1,0.1
							c0-0.1-0.1-0.1,0-0.2c-0.3,0.1-0.5,0.2-0.7,0.4l-0.4,0.3l-0.3,0.3c-0.4,0.4-0.7,0.9-1,1.4c-0.5,1-1,2.1-1.2,3.2v-0.1v0.4
							c0,0,0,0-0.1-0.1c-0.1,0.3-0.1,0.9-0.1,1.2c0,0.1,0.1,0.3,0.1,0.3s0-0.1,0,0v0.1c0,0,0,0.1,0.1,0.1c0,0.1-0.3,0.2-0.2,0.2
							c0.2,0,0.5-0.3,0.6-0.4c0.2-0.1,0.2-0.1,0.3-0.1c0.2,0,0.2,0,0.3-0.1v0.1c1.1-0.1,2.2-0.2,3.3-0.5c0.4-0.3,0.9-0.5,1.3-0.7
							c0.2-0.1,0.4-0.3,0.6-0.4c0.2-0.1,0.3-0.3,0.5-0.4v0.1c1.1-0.6,2.4-0.4,3.6-0.3c0.5,0.1,0.9,0,1.4,0.1v0.1
							c1-0.2,1.8,0.5,2.8,0.3l-0.1,0.1c0.2-0.2,0.5,0.1,0.5-0.2l0.1,0.1c0.6-0.3,1.1,0.3,1.9,0.1L70.7,51c0.2,0,0.4-0.1,0.6,0
							c0,0,0,0-0.1,0c0.3,0.1,0.6,0.1,1.1,0c0.3-0.1,0.6-0.3,1-0.4v0.1c0.2-0.2,0.9-0.3,1.3-0.5v0.1l0.2-0.1v0.1
							C75.5,50.5,76,50.1,76.5,50z"/>
					</g>
				</g>
			</g>
		</g>
	</g>
	<g>
		<g>
			<g>
				<g>
					<g>
						<polygon class="st5" points="4.7,27.6 4.7,27.6 4.8,27.5 						"/>
						<path class="st5" d="M5.2,27C5.2,27,5.2,26.9,5.2,27l-0.3,0.4C5.2,27.6,5.1,26.9,5.2,27z"/>
						<path class="st5" d="M5.4,27c0.2,0,0.2-0.2,0.2-0.2S5.3,26.8,5.4,27z"/>
						<path class="st5" d="M25.6,24.3l0.1-0.1C24.8,24.3,24,24,23.1,24h0.1c-2.1-0.1-4.2,0-6.3,0.2c0,0,0,0,0.1-0.1
							c-0.1,0-0.2,0.1-0.3,0.1c0,0,0-0.1,0.1-0.1c-0.4-0.2-1.3,0.2-1.6,0.1c-0.1,0-0.2,0.1-0.1,0.2c-1.6,0.2-3.4,0.4-5,1
							c-0.1,0-0.1-0.1-0.1-0.1c-1.4,0.6-2.8,1-4.2,1.5c0,0.1,0.2,0,0.1,0.1c0.4-0.1,0.7-0.5,1.2-0.5v0.1c0.3-0.1,0-0.2,0.3-0.2
							c0.1,0,0,0.1,0.1,0.1c0.6-0.2,1.3-0.3,1.8-0.7c0.2,0.1,0.6-0.1,1,0c0.1-0.1,0.3-0.1,0.3-0.2c2.2-0.3,4.6-0.7,7-0.9
							c1.1-0.4,2.4,0,3.7,0l0,0c0.4-0.1,1.1-0.1,1.6,0l0.4-0.1c3.1,0.4,6.3,0.6,9.4,1.2c3.5,0.6,6.6,1.4,10.1,1.7c0,0,0,0.1-0.1,0
							c1,0.1,1.9,0.4,2.8,0.6l0,0c2.3,0.2,4.8,1.2,7,1.5c0.7,0.2,1.6,0.4,2.6,0.7V30c-1,0-2,0.1-3.1,0.1C51,30.2,50,30.3,49,30.5
							v-0.1c-1.2,0.2-2.3,0.3-3.4,0.4c-1.2,0.1-2.3,0.3-3.4,0.6c-0.6,0.1-1.2,0.2-1.8,0.3c-0.6,0.2-1.2,0.3-1.8,0.5
							c-1.2,0.4-2.3,0.7-3.5,1.1c-1.5,0.1-3.2,1.3-4.7,1.4c-2.9,0.3-5.5,1.6-8.1,2.9c-2.6,0.7-4.9,2.1-7.5,2.8
							c-1.1,0.6-2.4,0.7-3.7,1.3l0.1,0.1c-0.5,0-0.9,0.7-1.3,0.5l0,0c-0.3-0.1-0.3,0.6-0.6,0.5V43C9,43.1,9.2,42.9,9,43
							c-0.1,0,0,0.2-0.1,0.2c-0.2-0.3-0.6,0.4-0.9,0c0.2-0.1-0.3,0,0-0.3c-0.1,0-0.6,0.3-0.5,0.4c0.1,0.2,0,0.4,0.3,0.4v-0.1
							c0.2,0.1,0.1,0,0.2,0.1c0.3-0.2,0.5,0,0.9,0l0,0c0.1-0.2,0.4-0.3,0.5-0.3h0.1c0.1,0.1,0.3-0.5,0.3-0.2
							c0.7-0.4,1.6-0.9,2.4-1.2c0.1-0.1,0.6-0.3,0.4-0.4c0.3,0.1,1-0.1,1.2-0.2c0,0,0,0,0,0.1c0.6,0.1,0.4-0.5,1.1-0.3
							c0-0.3,0.9-0.2,1-0.6c0.1,0,0.1,0.1,0.1,0.1c0.9-0.3,1.7-0.5,2.3-0.9c0.5-0.4,1.5-0.4,1.8-1c0.4-0.1,1.2-0.2,1.7-0.5v0.1
							c0.6-0.2,1.5-0.5,1.8-1c0.3,0.2,0.5,0.1,0.9,0c0.4-0.3,1.3-0.5,1.9-1c0.1,0.1,0.5-0.2,0.6-0.1c1.7-1.1,4.2-1.6,6.3-1.9l0,0
							c0.2-0.2,0.4-0.5,0.7-0.7c0,0,0,0,0,0.1c0.3-0.1,0.7,0,1.2-0.2c0,0,0,0,0,0.1c0.3-0.2,0.7,0,1.2-0.3l0,0l0.2-0.1
							c0,0.1,0,0.2-0.1,0.2c3.2-0.7,6.5-1.9,9.9-2.4l-0.1,0.1L47,31c0,0,0,0.1-0.1,0.1c0.9,0,1.7-0.3,2.4-0.4c0,0-0.1,0.1,0,0.1
							c0.5-0.2,1,0.1,1.3-0.3c0,0,0.1,0.1,0,0.1c1.6-0.3,3.2-0.3,4.8-0.3h2.2l-2.1-0.7l-0.2-0.1c-1.5-0.1-2.9-0.7-4.5-0.9v-0.1
							c-1.9-0.2-3.8-1-5.8-1.4c-0.7-0.2-1.4-0.2-2.1-0.4v-0.1c-1.4,0-2.8-0.9-4.4-0.7l0.1-0.1c-0.2,0.1-0.9-0.2-0.9,0.1l-0.2-0.1
							c-1.1,0.2-1.7-0.5-3-0.4l0.1-0.1c-0.3,0-0.7,0-1-0.1c0,0,0,0,0.1,0c-1-0.4-2.1-0.3-3.2-0.4l0.1-0.1c-0.5,0.1-1.5-0.2-2.1-0.2
							v-0.1l-0.3,0.1v-0.1C27.2,24.3,26.4,24.3,25.6,24.3z"/>
					</g>
				</g>
			</g>
		</g>
	</g>
</g>
</svg>
