<?xml version="1.0" encoding="utf-8"?>
<!-- Generator: Adobe Illustrator 23.0.1, SVG Export Plug-In . SVG Version: 6.00 Build 0)  -->
<svg version="1.1" id="Layer_1" xmlns="http://www.w3.org/2000/svg" xmlns:xlink="http://www.w3.org/1999/xlink" x="0px" y="0px"
	 viewBox="0 0 200 170" style="enable-background:new 0 0 200 170;" xml:space="preserve">
<style type="text/css">
	.st0{fill:#EAB9C5;}
	.st1{fill:#D97294;}
	.st2{fill:#F5E1E5;}
	.st3{fill:#F8E9EC;}
	.st4{fill:#E299AD;}
	.st5{fill:#D45D85;}
	.st6{fill:#FDF8F9;}
	.st7{fill:#F3DADF;}
	.st8{fill:none;}
	.st9{fill:none;stroke:#B5DFCC;stroke-width:2;stroke-linecap:round;stroke-linejoin:round;stroke-miterlimit:10;}
	.st10{fill:#DB7C99;}
	.st11{fill:#FAF0F2;}
	.st12{fill:#F6E5E8;}
	.st13{fill:#DA7194;}
	.st14{fill:#F3A169;}
	.st15{fill:none;stroke:#EBB1C5;stroke-miterlimit:10;}
	.st16{fill:#0075C2;}
</style>
<g>
	<g>
		<g>
			<path class="st7" d="M177.8,101.5c0,0-57,9.6-86.5-22.3C61.8,47.3,69.9,19.1,69.9,19.1l-3.5,0.2c0,0-22.2,28.8,2.4,64.9
				c24.5,36.1,86.7,41.7,111.8,21.7L177.8,101.5z"/>
			<g>
				<g>
					<g>
						<g>
							<polygon class="st5" points="177.3,101.9 177.3,102.1 177.6,102.4 							"/>
							<path class="st5" d="M179,104.3c0-0.1,0-0.1,0-0.1l-1.2-1.2C178.1,103.6,178.8,103.8,179,104.3z"/>
							<path class="st5" d="M179.2,104.7c0.1,0.3,0.3,0.5,0.4,0.6c0.1,0.1,0.1,0.1,0.2,0.1h0.1c0,0-0.2-0.3-0.4-0.5
								C179.5,104.8,179.4,104.6,179.2,104.7z"/>
							<path class="st5" d="M111.4,113.1l-0.2,0.1c1.4,0.3,2.9,0.7,4.3,1.1c1.4,0.4,3,0.7,4.5,1h-0.2c3.8,0.7,7.4,1.3,11.1,1.5
								c1.8,0.2,3.7,0.2,5.5,0.3c0.9,0,1.8,0,2.8,0c0.9,0,1.8,0,2.8,0c-0.1,0-0.2,0-0.3,0.1c0.4,0,0.7-0.1,1.1-0.1
								c0.1,0-0.1,0.1-0.2,0.1c1.6,0.2,4.7-0.3,5.6-0.3c0.4-0.1,0.6-0.2,0.4-0.2c5.8-0.6,12.1-1.7,17.7-3.9c0.3-0.1,0.3,0,0.3,0
								c2.4-1,4.8-2,7.1-3.3c0.6-0.3,1.1-0.6,1.7-0.9l1.6-1c0.6-0.3,1.1-0.7,1.6-1.1l0.8-0.6l0.3-0.2c0,0,0.2-0.1,0.1-0.1
								c-0.1,0-0.1,0-0.1,0c-0.1,0-0.1,0-0.1,0s-0.1,0-0.1,0.1c-0.1,0.1-0.3,0.2-0.4,0.3c-0.3,0.2-0.6,0.5-0.9,0.7
								c-0.5,0.5-1.2,0.9-1.8,1.2l0.1-0.2c-0.9,0.5-0.1,0.3-1.1,0.8c-0.4,0.2,0-0.1-0.1,0c-1,0.6-2,1.1-3.2,1.6
								c-1.1,0.5-2.1,1-3.1,1.5c-0.6,0-2.4,0.9-3.3,1c-0.5,0.2-1.1,0.4-1.3,0.6c-4,1.1-8.1,2-12.2,2.7c-4.2,0.6-8.4,0.8-12.7,0.8
								c-4,0.3-8.7-0.4-13.4-0.9l0,0c-1.5-0.1-3.8-0.5-5.5-0.8c-0.5,0-1-0.1-1.5-0.2c-10.7-2.6-21.5-6.3-30.9-12.6
								c-5.3-3.5-9.9-7.4-13.8-11.8c-4-4.4-7.3-9.3-10.3-14.6c0,0,0-0.1,0.2,0.2c-1.7-3.2-2.9-6.2-4-9.4l0,0
								c-3-7.9-3.5-17.1-2.6-25.1c0.6-4.3,1.8-8.7,3.6-13c0.9-2.1,1.9-4.3,3.1-6.2c0.6-1,1.2-2,1.8-3c1-0.1,2.4-0.1,3.4-0.2
								c-0.1,0.5-0.3,1.2-0.4,1.8c-0.1,0.6-0.2,1.2-0.3,1.9h-0.1c-0.4,4.2-0.4,8.3,0.1,12.4c0.1,2,0.6,4.1,0.9,6.1
								c0.2,1,0.5,2,0.7,3c0.3,1,0.5,2,0.9,3c0.7,2,1.3,4.1,2.3,6.1c0.4,1,0.9,2,1.3,3l1.6,2.9c0.5,0.9,1,1.9,1.6,2.9
								c0.6,0.9,1.2,1.8,1.8,2.8s1.1,1.8,1.7,2.8c0.6,0.9,1.2,1.7,1.9,2.7c0.7,1.1,1.5,2.4,2.6,3.5c1,1.1,2,2.3,3.1,3.4
								c0.5,0.6,1,1.1,1.5,1.6c0.5,0.5,1,1,1.5,1.5s1,1,1.4,1.5c0.5,0.5,1,0.9,1.4,1.3c3.7,3.6,8,6.5,12.5,8.9
								c4.5,2.4,9.3,4.1,14.2,5.5c9,3,18.5,4,27.7,4.9c4.4,0,9.2,0.6,14,0.3l-0.2-0.1c1.7,0.2,3.9-0.5,5-0.2h-0.2
								c0.9,0.1,2.1-0.6,2.7-0.4l0.1-0.1c1.1-0.1,0.1,0.1,1,0c0.3,0,0.1-0.2,0.8-0.2c0.2,0.4,2.7-0.4,2.9,0c-0.6,0.1,1,0-0.4,0.3
								c0.4,0,2.3-0.3,2-0.4c0.1-0.2,0.8-0.5-0.3-0.4l-0.2,0.2c-0.4-0.1-0.3,0-0.4-0.1c-1.4,0.2-1.7,0-2.8,0l0,0
								c-0.7,0.2-1.7,0.2-2.3,0.3l-0.2-0.1c-0.4-0.1-1.6,0.4-1.2,0.1c-3,0.3-6.4,0.5-9.8,0.5c-0.5,0.1-2.6,0-1.8,0.2
								c-0.8-0.2-3.4-0.3-4.3-0.3c0,0,0.1,0,0.2,0c-1.8-0.3-2.1,0.2-3.8-0.2c-0.3,0.2-3.1-0.2-4,0c-0.2-0.1-0.3-0.1-0.2-0.2
								c-3.1-0.2-6.3-0.7-8.9-1.1c-2.3-0.1-5.2-1-7.2-1.1c-0.7-0.2-1.7-0.5-2.8-0.7c-1-0.3-2.1-0.6-3.3-0.8h0.2
								c-1.2-0.3-2.6-0.7-3.8-1.1c-1.2-0.4-2.4-0.7-3.2-0.9c-0.6-0.5-1.5-0.9-2.6-1.3c-0.8-0.2-1.9-0.7-3.2-1.2
								c-1.2-0.5-2.6-1.2-3.7-1.7c-0.3-0.3-1.8-0.9-1.8-1.2c-3.2-1.5-6.4-3.8-9.5-6.3c-3.1-2.6-5.7-5.6-8.1-8.6l0.1,0.1
								c-0.7-0.7-1.6-1.3-2.4-2c0-0.1,0-0.1,0.1,0.1c-0.9-1-1.4-2.3-2.4-3.3c0,0,0,0,0.2,0.1c-0.8-1-1.4-2.3-2.5-3.4v-0.1l-0.6-0.8
								c0.1,0,0.2,0,0.4,0.4c-3.2-4.9-6.1-10.1-8.4-15.8S69.7,39.4,69,33.4l0.1,0.4c-0.1-0.8-0.2-1.5-0.3-2.4c0,0,0.1,0.1,0.1,0.2
								c-0.1-3-0.2-6.1,0.2-9c0,0,0,0.5,0.1,0.1c0-0.8,0.2-1.4,0.3-2c0.2-0.8,0.4-1.5,0.5-2.1c-0.5,0-1.1,0.1-1.5,0.2
								c-0.1,0-0.2-0.1,0.1-0.1c-0.8,0-1.5,0.1-2.4,0.1h-0.4c-0.1,0-0.2,0.2-0.3,0.3l-0.4,0.5l-0.6,0.9c-0.8,1.3-1.5,2.7-2.3,4
								c-1.4,2.8-2.6,5.6-3.5,8.5c-1.1,4.9-2.5,10.5-2.1,15.9h-0.1c0.2,6.8,1.2,14,3.9,20.7c1,2.8,1.9,4.5,3.3,7.2v0.1
								c2.6,4.2,5.1,9.2,8.8,12.9l-0.3-0.2c0.6,0.5,2,2.4,2,1.9l0.6,0.7c2.7,2.3,4.5,4.6,8.1,7.1l-0.3-0.1c0.9,0.6,2,1.4,2.7,1.9
								c-0.1-0.1-0.1,0-0.3-0.2c2.8,2.3,6.3,4.1,9.7,5.8l-0.4-0.1c0.8,0.3,2,0.9,3.3,1.5c1.2,0.6,2.6,1.2,3.7,1.6h-0.2l1.1,0.4v0.1
								C105.7,111.5,108.4,112.3,111.4,113.1z"/>
						</g>
					</g>
				</g>
			</g>
		</g>
		<g>
			<path class="st11" d="M73,19c0,0-3.2,5.3-2.3,10.3c0.9,5,5.1,30.4,23.8,47.7s42,21.2,80.8,19.3c0,0-0.5,2.3,2.4,5.4
				c0,0-117.6,18.4-108.5-81.6L73,19z"/>
			<g>
				<g>
					<g>
						<g>
							<polygon class="st5" points="72.8,18.2 72.6,18.2 72.3,18.4 							"/>
							<path class="st5" d="M70.4,19.3c0.1,0,0.1,0,0.1,0l1.3-0.7C71.2,18.5,70.9,19.2,70.4,19.3z"/>
							<path class="st5" d="M70,19.3c-0.2,0-0.6,0.2-0.8,0.3c-0.3,0-0.1,0.3-0.1,0.4c0,0,0-0.1,0-0.2v-0.1h0.1
								c0.2,0,0.3-0.1,0.5-0.2C69.9,19.4,70.1,19.4,70,19.3z"/>
							<path class="st5" d="M78.3,69.6l-0.1-0.1L78.3,69.6z"/>
							<path class="st5" d="M87.1,79.9h0.2c-1-0.8-1.8-1.8-2.8-2.9c-0.8-1-1.7-2.1-2.6-3.2L82,74c-2-2.7-3.8-5.4-5.3-8.3
								c-1.5-2.9-2.9-5.8-4-9c0,0.1,0.1,0.1,0.1,0.2c-0.1-0.3-0.3-0.6-0.4-0.9c0-0.1,0.1,0.1,0.1,0.2c-0.2-0.7-0.4-1.7-0.7-2.7
								c-0.3-0.9-0.6-1.8-0.6-2.3C71.1,50.9,71,50.8,71,51c-1.3-5.1-2-10.7-2.4-16.2c0-0.3,0.1-0.3,0.1-0.2
								c-0.5-4.6-0.2-9.4,0.2-14.1c-0.1-0.2-0.1,0.5-0.2,0c-0.2,1.5,0,2.8-0.2,4.1l-0.1-0.2c-0.1,1,0.2,0.2,0,1.2
								c-0.1,0.4-0.1-0.1-0.1,0.1c0,1-0.1,2.1-0.1,3.2s0,2.1,0.1,3.2c-0.2,0.5,0,2.3-0.1,3.1c0.1,0.5,0.1,1.1,0.2,1.3
								c0.3,7.5,1.8,14.9,4.4,22.2c1.5,3.3,3,7.3,5.3,10.8l0,0c0.4,0.6,0.9,1.2,1.4,1.9c0.2,0.4,0.5,0.7,0.7,1.1
								c0.3,0.3,0.5,0.7,0.7,1l0.9,1c3,4,6.5,7.6,10.5,10.6c4,3.1,8.4,5.6,12.9,7.9c5.1,2.5,10.2,4.3,15.3,5.7
								c5.1,1.4,10.3,2.4,15.9,2.9c0,0,0.1,0.1-0.2,0c3.2,0.4,6,0.7,9.1,0.9l0,0c7.5,0.3,15.6,0.5,22.8-0.2c2.4-0.1,4.8-0.4,7.3-0.6
								c0.7-0.1,1.3-0.2,2-0.3h0.3c0-0.1-0.1-0.1-0.2-0.2l-0.4-0.4c-0.2-0.3-0.5-0.6-0.6-0.8c-0.7-1-1.3-2.3-1.3-3.6
								c0-0.1,0-0.3,0-0.4l0,0h-0.1h-0.1c-0.1,0-0.1,0-0.2,0c-1.9,0.1-4,0.2-6,0.3c-2,0.1-4.1,0.1-6,0.2v-0.1
								c-7.5,0.2-14.6-0.3-22-0.9c-7.6-0.9-15.7-1.8-22.8-4.5c-1.1-0.5-2.3-1-3.5-1.4c-1.2-0.4-2.5-1-3.7-1.5
								c-1.2-0.5-2.5-1.1-3.6-1.7c-0.6-0.3-1.1-0.6-1.6-0.9s-1-0.7-1.4-1c-3.8-2.7-7.3-5.5-10.5-8.6l-2.5-2.4L89,71
								c-0.8-0.8-1.4-1.7-2.1-2.7c-0.7-0.9-1.4-1.7-2.1-2.8c-4.6-7.1-8.6-14.7-10.7-22.7c-1.4-3.7-1.9-8-2.9-12.2v0.2
								c0-0.8-0.3-1.6-0.4-2.4c-0.1-0.4-0.1-0.7-0.1-1.1c0-0.3,0-0.6,0.1-0.9v0.2c0.2-0.8-0.2-1.9,0.1-2.5l-0.1-0.1
								c0.2-1,0.1-0.1,0.3-0.8c0.1-0.3-0.1-0.2,0.1-0.7c0.3,0,0.8-2.4,1.2-2.3c-0.2,0.5,0.5-0.7,0.1,0.4c0.2-0.3,0.9-1.7,0.7-1.7
								c-0.1-0.2,0.1-0.8-0.5-0.1v0.2c-0.3,0.2-0.2,0.2-0.3,0.3c-0.6,1.2-0.8,1.3-1.2,2.1l0,0c-0.1,0.7-0.4,1.5-0.6,2l-0.1,0.2
								c-0.2,0.3,0,1.5-0.2,1.1c-0.2,1.3-0.2,2.9,0.1,4.4c0.3,1.4,0.6,3,0.9,4.4c0.2,0.4,0.5,2.3,0.5,1.5c-0.1,0.8,0.4,3,0.7,3.8
								c0,0-0.1-0.1-0.1-0.2c0.2,1.6,0.8,1.7,0.9,3.4c0.3,0.1,0.7,2.7,1.3,3.4c0,0.2,0,0.3-0.1,0.2c0.9,2.6,1.9,5.4,2.9,7.6
								c1,1.7,2,4.4,3.1,5.7c0.3,0.6,0.7,1.4,1.2,2.4c0.5,0.9,1,1.8,1.6,2.6L83.2,64c0.6,0.9,1.3,1.9,2,2.9c0.7,0.9,1.4,1.7,1.9,2.3
								c0.2,0.7,0.8,1.4,1.3,2.3c0.5,0.5,1.3,1.3,2.1,2.3c0.8,0.9,1.8,1.7,2.7,2.6c0.1,0.3,1.3,1.2,1.3,1.4c1.3,0.9,2.6,2,4,3.1
								c0.7,0.5,1.4,1,2.1,1.5c0.7,0.5,1.4,1,2.3,1.5l2.3,1.5c0.7,0.5,1.5,0.9,2.4,1.4c0.8,0.4,1.5,0.9,2.3,1.3
								c0.8,0.4,1.5,0.8,2.4,1.2h-0.1c0.8,0.3,1.8,0.5,2.8,0.7c0.1,0,0.1,0.1-0.1,0c1.1,0.4,2.1,1,3.4,1.4c0,0,0,0-0.2,0
								c1.1,0.3,2.3,0.9,3.6,1.1l0.1,0.1l0.8,0.2c0,0.1-0.1,0.1-0.5,0c5.1,1.5,10.4,2.5,15.8,3.1c5.4,0.5,10.8,0.9,16.3,1h-0.4h2.1
								c0,0-0.1,0-0.2,0.1c2.7,0.1,5.4,0,8.1-0.1c0,0-0.4,0.1,0,0.1c1.9-0.2,3.1,0.2,4.1-0.2c0.1,0,0.2,0.1,0,0.1
								c2.6-0.1,5.1-0.2,7.7-0.4c0.1,0,0.2,0,0.2,0c0,0.1,0,0.1,0,0.2v0.1c0,0.1,0,0.2,0,0.2c0,0.2,0,0.3,0.1,0.5
								c0.1,0.3,0.2,0.6,0.3,0.9c0.2,0.6,0.6,1.2,0.9,1.7c0.1,0.1,0.2,0.3,0.3,0.4l0.2,0.2l0.1,0.2l0.1,0.1l0,0h-0.1l-1.3,0.1
								c-4.4,0.8-9.5,0.9-14.1,1.3v-0.1c-6,0.4-12.5,0-18.7-0.5c-2.6-0.2-4.4-0.4-7-0.7l-0.1-0.1c-4.4-0.3-9.1-1.7-13.6-2.6h0.3
								c-0.7,0-2.7-0.8-2.5-0.4l-0.7-0.3c-3.2-0.5-5.4-1.8-9-3h0.3c-1-0.3-2-0.7-2.8-1.1c0.1,0,0.1,0,0.3,0.1
								c-2.8-1.5-6.1-2.9-9-4.6l0.4,0.1c-1.4-0.7-3.9-2.5-5.6-3.7h0.1l-0.9-0.6l0.1-0.1C91,83.4,89,81.9,87.1,79.9z"/>
							<path class="st5" d="M71,22c0.1-0.1,0.1-0.2,0.1-0.3C71.1,21.7,71.1,21.9,71,22z"/>
						</g>
					</g>
				</g>
			</g>
		</g>
		<g>
			<path class="st0" d="M179.9,105.4c0,0-89.5,37.1-120.2-54.9c0,0,0.4,36,26.8,53.3c26.5,17.4,68.7,38.4,95.4,2.7L179.9,105.4z"/>
			<g>
				<g>
					<g>
						<g>
							<polygon class="st5" points="179.6,106 179.7,106.1 180.1,106.2 							"/>
							<path class="st5" d="M181.1,106.7h0.1c0,0,0-0.1-0.1-0.1s-0.1,0-0.2,0c-0.1,0-0.1,0-0.2,0l-0.4-0.1c0.1,0.1,0.3,0.2,0.4,0.2
								c0,0,0.1,0,0.1-0.1C181,106.6,181.1,106.6,181.1,106.7C181.2,106.6,181.2,106.7,181.1,106.7z"/>
							<path class="st5" d="M181,106.8c-0.4,0.3-0.4,0.7-0.5,0.8C180.5,107.5,181.2,106.8,181,106.8z"/>
							<path class="st5" d="M122.5,122.2l-0.2,0.1c1.2,0.3,2.6,0.7,3.8,1.1c1.3,0.4,2.7,0.7,4,1h-0.2c6.7,1.5,13,2,19.6,1.2
								c-0.1,0-0.1,0.1-0.2,0.1c0.3-0.1,0.7-0.1,1-0.2c0.1,0-0.1,0.1-0.2,0.1c0.7,0,1.7-0.2,2.7-0.4c0.9-0.2,1.8-0.5,2.3-0.5
								c0.4-0.1,0.5-0.2,0.3-0.2c5.1-1.2,10.2-3.7,14.5-6.9c0.2-0.1,0.3-0.1,0.3,0c3.5-2.9,7.1-6.1,9.9-9.7c0-0.2-0.4,0.3-0.1-0.1
								c-0.5,0.5-0.9,1.1-1.3,1.6c-0.4,0.5-0.8,1-1.3,1.4l0.1-0.2c-0.7,0.7,0,0.3-0.7,0.9c-0.3,0.2,0-0.1-0.1,0
								c-1.4,1.5-3.1,3-4.5,4.3c-0.2,0.1-0.7,0.4-1.1,0.8c-0.5,0.3-1,0.7-1.3,0.8c-0.4,0.4-0.8,0.6-0.9,0.8
								c-6.1,3.9-13.4,6.5-21,6.9c-3.5,0.5-7.8,0-11.9-0.5l0,0c-1.3-0.1-3.4-0.4-4.9-0.8l-1.3-0.2c-9.5-2.6-18.8-6.4-27.5-11.3
								c-5-2.8-9.5-5.6-13.9-8.5c-4.5-2.9-8.5-6.1-12.2-10.2c0,0,0-0.1,0.2,0.1c-2.1-2.4-3.7-4.8-5.3-7.4l0,0
								c-4.2-6.2-6.8-13.9-8.7-20.9c-1.1-4.7-1.9-9.9-2.1-15.2h-0.2c0.7,1.9,1.4,3.9,2.1,5.8c0.4,1,0.7,1.9,1.1,3
								c0.4,0.9,0.8,1.9,1.3,2.9h-0.1c3.1,6.8,6.3,13.2,10.8,19.1c4.4,6.3,10.3,11.9,16.4,16.6c3.7,3.1,9.3,5.8,13.3,7.8l1.5,0.8
								l1.5,0.7c1,0.4,2.1,0.9,3.2,1.3c1,0.4,2.1,0.7,3.3,1c1.1,0.3,2.1,0.7,3.3,0.9l3.3,0.7c1.1,0.2,2.3,0.3,3.4,0.5
								c2.3,0.4,4.5,0.5,6.9,0.7c4.2,0.4,8.5,0.5,12.6,0.3c2-0.1,4.2-0.3,6.2-0.4c2-0.2,4.1-0.4,6.1-0.6c3.8-0.8,8.1-1.1,12.3-2.3
								h-0.2c1.5-0.2,3.3-1.2,4.3-1.1l-0.1,0.1c0.8-0.1,1.7-0.9,2.3-0.9l0.1-0.1c0.9-0.3,0.1,0.1,0.9-0.1c0.3-0.1,0.1-0.2,0.6-0.3
								c0.2,0.3,2.3-0.8,2.5-0.5c-0.5,0.2,0.8-0.1-0.3,0.4c0.3-0.1,1.9-0.7,1.7-0.8c0.1-0.2,0.6-0.6-0.4-0.4l-0.1,0.2
								c-0.4,0-0.3,0-0.4,0c-1.2,0.4-1.4,0.3-2.4,0.5l0,0c-0.5,0.4-1.4,0.5-1.9,0.7h-0.2c-0.3,0-1.3,0.7-1,0.4
								c-2.6,0.8-5.5,1.6-8.4,2.4c-0.4,0.2-2.3,0.5-1.5,0.5c-0.8,0-3,0.3-3.8,0.5c0,0,0.1-0.1,0.2-0.1c-1.6,0-1.8,0.6-3.4,0.5
								c-0.2,0.3-2.7,0.3-3.5,0.7c-0.2,0-0.3-0.1-0.2-0.1c-2.7,0.3-5.6,0.5-8,0.6c-0.9,0.1-2.1,0.2-3.3,0.2c-1.1,0-2.3,0-3.1,0.1
								c-0.7,0-1.6-0.1-2.6-0.1c-1-0.1-2-0.1-3-0.1h0.2c-0.5,0-1.1-0.1-1.7-0.1c-0.6-0.1-1.2-0.1-1.7-0.2c-1.1-0.1-2.3-0.2-3-0.1
								c-0.6-0.4-1.5-0.5-2.5-0.7c-0.7-0.1-1.8-0.2-3-0.4c-1.1-0.2-2.5-0.5-3.6-0.7c-0.1-0.1-0.6-0.2-1-0.3
								c-0.4-0.1-0.8-0.2-0.8-0.3c-6.1-1.2-13.4-4.4-18.8-8.3h0.1c-0.8-0.3-1.7-0.7-2.6-1.1c-0.1-0.1,0-0.1,0.1,0
								c-1-0.6-1.8-1.4-2.9-2.1c0,0,0,0,0.2,0.1c-0.9-0.6-1.7-1.6-2.9-2.4v-0.1l-0.7-0.5c0.1,0,0.1-0.1,0.5,0.2
								c-8.1-6.7-15-15.2-20.2-24.8l0.2,0.3l-1.1-1.8c0,0,0.1,0.1,0.2,0.2c-0.5-1.2-1.3-2.4-1.8-3.6c-0.6-1.2-1.1-2.5-1.6-3.6
								c0,0,0.2,0.3,0.1,0c-0.9-1.7-1.1-2.9-1.7-3.7c0-0.1,0-0.2,0.1,0c-1-2.6-1.9-5.1-3-7.7l-0.7-1.9l0.1,2
								c0.1,2.7,0.4,5.4,0.7,8.1c1,4.4,1.8,9.4,3.6,13.8H64c2.1,5.7,4.6,11.7,8.2,16.9c1.4,2.1,2.6,3.5,4.3,5.5v0.1
								c3.2,3.1,6.4,6.9,10.4,9.1l-0.3-0.1c0.7,0.3,2.3,1.5,2.3,1.1l0.6,0.5c2.9,1.3,4.7,3.2,8.2,4.9l-0.2-0.1
								c0.9,0.5,1.9,1,2.6,1.4c-0.1,0-0.1,0-0.3-0.1c2.7,1.8,5.9,3.2,9,4.7h-0.4c1.5,0.6,4.2,1.9,6.1,2.8h-0.1l1,0.3v0.1
								C117.3,120.6,119.9,121.4,122.5,122.2z"/>
							<path class="st5" d="M176.3,106.1c0.1,0,0.2-0.1,0.3-0.1C176.6,106,176.4,106,176.3,106.1z"/>
						</g>
					</g>
				</g>
			</g>
		</g>
		<g>
			<polygon class="st10" points="55.4,6.4 63.7,5.5 74.2,11.4 65.4,11.9 			"/>
			<g>
				<g>
					<g>
						<g>
							<polygon class="st5" points="55.1,7 55.1,7 55.2,6.9 							"/>
							<path class="st5" d="M55.5,6.9L55.5,6.9L55.2,7C55.2,7.2,55.5,6.8,55.5,6.9z"/>
							<path class="st5" d="M55.5,7c0,0.1,0.1,0,0.2,0C55.6,7,55.6,6.8,55.5,7z"/>
							<path class="st5" d="M63,10.5L63,10.5c-0.3-0.1-0.5-0.4-0.8-0.5l0,0c-0.7-0.4-1.5-0.7-2.3-1c0,0,0,0,0.1,0
								c-0.1,0-0.1,0.1-0.2,0c0,0,0,0,0.1,0c-0.1-0.2-0.5-0.1-0.5-0.3c-0.1,0-0.1,0-0.1,0.1c-0.6-0.3-1.2-0.6-1.9-0.8V7.8
								c-0.6,0-1.1-0.4-1.6-0.7c-0.1,0.1,0,0.1-0.1,0.1c0.1,0.2,0.4,0,0.5,0.2l-0.1,0.1c0.1,0.1,0.1-0.2,0.2,0c0,0.1-0.1,0.1,0,0.1
								c0.2,0.1,0.4,0.3,0.7,0.3c0,0.2,0.2,0.1,0.2,0.3c0.1,0,0.1,0,0.2-0.1c0.8,0.5,1.6,0.8,2.6,1.3c0.5-0.1,0.8,0.5,1.3,0.7l0,0
								c0.2,0,0.4,0.1,0.6,0.2h0.2c0.4,0.4,0.9,0.7,1.5,1l0.8,0.4l0.4,0.2l0.5,0.3h0.2c1.5,0,2.8,0.2,4.1-0.3c0,0,0,0,0,0.1
								c0.4-0.1,0.8,0,1.1-0.1l0,0c0.5-0.2,0.8-0.2,1.5-0.2c0.6,0,1.3-0.1,1.5-0.2c0.2,0,0.5,0,0.7,0c-0.9-0.5-2-1.1-3-1.5V9.9
								c-0.9-0.3-1.5-1.1-2.4-1.4c-0.7-0.6-1.9-0.6-2.7-1.3c-0.4-0.6-1.4-0.4-1.7-0.9c-0.1-0.2-0.3-0.4-0.5-0.5
								c-0.2-0.1-0.3-0.2-0.6-0.4c-0.2,0-0.4,0.1-0.6,0.1c-0.2,0-0.3,0.1-0.5,0.1c-0.3,0.1-0.7,0.2-1,0.3c-1.1-0.1-2,0.5-3.2,0.2
								c-0.5,0.3-1-0.2-1.6-0.1v0.1c-0.2-0.2-0.4,0.4-0.5,0l0,0c-0.1-0.2-0.2,0.4-0.3,0.2v0.1c-0.1,0,0-0.1-0.1-0.1
								c0,0,0,0.2-0.1,0.1c-0.1-0.4-0.3,0.1-0.3-0.3c0.1,0-0.1-0.1,0-0.2c0,0-0.2,0-0.2,0.2s-0.1,0.3,0.1,0.5V6.5
								c0.1,0.1,0,0.1,0.1,0.2c0.2,0,0.2,0.2,0.3,0.3l0,0C55.8,6.8,56,6.9,56,6.9V7c0.1,0.2,0.2-0.3,0.1,0c0.3-0.1,0.7-0.1,1.1-0.2
								c0-0.1,0.3,0,0.2-0.2c0.1,0.2,0.4,0.2,0.5,0.2l0,0c0.2,0.3,0.2-0.3,0.4,0c0-0.2,0.3,0,0.4-0.3c0,0.1,0,0.1,0,0.1
								c0.3,0,0.7,0,1,0c0.2-0.2,0.6,0,0.8-0.3c0.2,0,0.5,0.1,0.7,0l0,0c0.3,0,0.6-0.1,0.8-0.3c0.1,0.3,0.2,0.2,0.3,0.3
								c0.2-0.2,0.5-0.1,0.8-0.3c0,0.1,0.1,0,0.1,0s0,0,0,0.1l0,0c0-0.1,0.2,0,0.4,0.1c0.2,0.1,0.4,0.2,0.6,0.3
								c0.4,0.2,0.7,0.5,1,0.8l0,0c0.1,0,0.4-0.2,0.5-0.2l0,0c0.1,0,0.2,0.3,0.3,0.3c0,0,0,0-0.1,0c0.2,0,0.2,0.3,0.4,0.2l0,0h0.1
								c0,0.1-0.1,0.1-0.1,0.1c1.1,0.7,2.5,1.1,3.7,1.7h-0.1h0.3c0,0,0,0-0.1,0c0.2,0.3,0.6,0.3,0.9,0.4l-0.1,0.1
								c0.3,0,0.3,0.4,0.5,0.1l-0.1,0.1c0.3,0,0.8,0.3,0.9,0.4c0.2,0.1,0.4,0.1,0.6,0.2c0,0.1-0.2,0.1-0.4,0.1c-0.2,0-0.3,0-0.3,0.1
								l-0.1-0.1C72.1,11,71.6,11,71.3,11c-0.4,0-0.8,0-1.2,0c-0.3,0-0.5,0.1-0.9,0.1V11c-0.5,0.3-1.2-0.2-1.7,0.2v-0.1
								c-0.1,0.2-0.3,0-0.3,0.3L67,11.3c-0.4,0.4-0.7-0.1-1.2,0.1v-0.1c-0.1,0.1-0.3,0.1-0.4,0.1c0,0,0,0,0-0.1
								c-0.2-0.1-0.3-0.1-0.5-0.1c-0.2-0.1-0.5-0.1-0.7-0.2l0.1-0.1c-0.2,0-0.5-0.3-0.8-0.3l0,0h-0.2l0.1-0.1
								C63.6,10.7,63.3,10.7,63,10.5z"/>
						</g>
					</g>
				</g>
			</g>
		</g>
		<g>
			<polygon class="st4" points="52,12.6 55.4,6.4 65.4,11.9 64.5,19.4 			"/>
			<g>
				<g>
					<g>
						<g>
							<path class="st5" d="M52.1,13.1L52.1,13.1l-0.3,0.1C51.8,13.4,52.1,13,52.1,13.1z"/>
							<path class="st5" d="M52.1,13.2c0,0.1,0.1,0,0.2,0C52.2,13.2,52.1,13,52.1,13.2z"/>
							<path class="st5" d="M59.5,16.6L59.5,16.6c-0.3-0.1-0.5-0.4-0.8-0.5l0,0c-0.7-0.4-1.5-0.6-2.3-0.9c0,0,0,0,0.1,0
								c-0.1,0-0.1,0.1-0.2,0c0,0,0,0,0.1,0C56.4,15,56,15.1,56,14.9c-0.1,0-0.1,0.1-0.1,0.1c-0.6-0.3-1.2-0.6-1.9-0.7v-0.1
								c-0.6,0-1.1-0.4-1.6-0.7c-0.1,0.1,0,0.1-0.1,0.1c0.1,0.2,0.4,0,0.5,0.2l-0.1,0.1c0.1,0.1,0.1-0.2,0.2,0c0,0.1-0.1,0.1,0,0.1
								c0.2,0.1,0.5,0.3,0.8,0.2c0,0.2,0.2,0.1,0.3,0.3c0.1,0,0.1,0,0.2-0.1c0.8,0.5,1.7,0.8,2.6,1.2c0.5-0.1,0.8,0.5,1.3,0.7l0,0
								c0.2,0,0.4,0.1,0.6,0.2h0.2c0.9,0.8,2.1,1.2,3.2,1.9c0.4,0.3,0.8,0.5,1.2,0.8l0.3,0.2l0.5,0.3c0.4,0.2,0.7,0.4,1,0.5
								c0-0.7,0-1.5,0-1.9c0,0,0,0,0.1,0c0-0.4,0.1-0.7,0.1-1.1l0,0c-0.2-0.9,0.2-1.9,0-2.9c0.1-0.7,0.2-1.4,0.2-2.4
								c-0.4-0.2-0.7-0.4-1.1-0.5v-0.1c-0.9-0.3-1.5-1-2.4-1.4c-0.7-0.6-1.9-0.6-2.7-1.3C58.9,8,58,8.2,57.6,7.7
								c-0.6-0.7-1.3-1-2.3-1.3c-0.1,0.4-0.2,0.7-0.3,1c-0.7,0.8-0.8,1.9-1.6,2.7c0,0.5-0.7,0.7-0.9,1.2h0.1
								c-0.3,0.1,0.1,0.5-0.3,0.5l0,0c-0.2,0,0.3,0.4,0,0.4l0.1,0.1c0,0.1-0.1,0-0.2,0l0.1,0.1c-0.3-0.2-0.1,0.3-0.4,0.1
								c0-0.1-0.2,0-0.2-0.2c-0.1,0-0.1,0.2,0,0.3c0.2,0.1,0.3,0.3,0.4,0.2L52,12.7c0.1,0,0.1,0,0.2,0c0.1-0.1,0.3-0.1,0.4-0.1l0,0
								c-0.1-0.1,0-0.2,0.1-0.2h0.1c0.2,0-0.2-0.3,0-0.1c0.1-0.3,0.3-0.6,0.5-1c-0.1-0.1,0.1-0.2-0.1-0.3c0.2,0,0.4-0.2,0.5-0.3l0,0
								c0.3,0-0.1-0.3,0.3-0.3c-0.2-0.1,0.2-0.3,0-0.5c0.1,0,0.1,0,0.1,0.1c0.2-0.3,0.4-0.6,0.6-0.8c-0.1-0.3,0.4-0.5,0.2-0.8
								C55,8.2,55.3,8,55.3,7.7l0,0c0.1-0.1,0.1-0.3,0.2-0.4c0,0,0-0.1-0.1-0.2c0.2,0.2,0.2,0.2,0.2,0.3l0,0c0-0.1,0-0.1,0-0.1
								s0,0,0.2,0c0,0.1,0.2,0.1,0.1,0.2c0.9,0.1,1.6,0.6,2.3,1.3l0,0c0.1,0,0.4-0.2,0.5-0.3l0,0c0.1,0,0.2,0.3,0.3,0.3
								c0,0,0,0-0.1,0c0.2,0,0.2,0.3,0.4,0.2l0,0h0.1c0,0.1-0.1,0.1-0.1,0.1c1.1,0.7,2.5,1,3.7,1.7h-0.1h0.3c0,0,0,0-0.1,0
								c0.2,0.3,0.6,0.3,0.9,0.4l-0.1,0.1c0.3,0,0.2,0.4,0.5,0.1c0,0,0,0.1-0.1,0.1c0.3,0.1,0.3,0.1,0.4,0.1c0,0.1-0.1,0.7-0.1,1.1
								c0.3,0.6-0.1,1.2,0.1,1.8h-0.1c0.2,0.8-0.2,1.5-0.2,2.4c-0.1,0.3,0,0.5,0,0.9h-0.1c0.2,0.3,0,0.7-0.1,0.8
								c-0.2-0.1-0.3-0.2-0.4-0.1v-0.1c-0.1,0.2-0.2-0.2-0.3,0.1c0,0,0-0.1-0.1-0.1c-0.5,0.2-0.5-0.5-1.1-0.5h0.1
								c-0.1,0-0.3,0-0.3-0.1c0,0,0,0,0.1,0c-0.2-0.4-0.7-0.4-1.1-0.6l0.1-0.1c-0.2,0-0.5-0.3-0.8-0.3l0,0h-0.2l0.1-0.1
								C60.2,16.8,59.8,16.7,59.5,16.6z"/>
						</g>
					</g>
				</g>
			</g>
		</g>
		<g>
			<polygon class="st4" points="74.1,11.2 72.8,18.7 64.4,19.2 65.2,11.8 			"/>
			<g>
				<g>
					<g>
						<g>
							<path class="st5" d="M73.8,10.8C73.8,10.8,73.8,10.9,73.8,10.8l0.1-0.2C73.9,10.4,73.8,10.9,73.8,10.8z"/>
							<path class="st5" d="M73.7,10.8c-0.1-0.1-0.1,0.1-0.1,0.1C73.7,10.8,73.8,10.9,73.7,10.8z"/>
							<path class="st5" d="M67.1,11.7v0.1c0.2-0.2,0.5,0,0.8-0.1l0,0c0.7,0,1.3-0.2,1.9-0.3c0,0,0,0,0,0.1l0.1-0.1v0.1
								c0.2,0.2,0.4-0.1,0.5,0c0,0,0.1-0.1,0-0.2c0.5-0.1,1.1-0.1,1.6-0.3v0.1c0.4-0.3,0.9-0.2,1.4-0.2c0-0.1-0.1-0.1,0-0.2
								c-0.2-0.1-0.3,0.2-0.4,0.1v-0.1c-0.1,0,0,0.2-0.1,0.1c0-0.1,0-0.1,0-0.1c-0.2,0-0.4,0-0.6,0.2c-0.1-0.2-0.2,0-0.3-0.1
								C72,10.9,72,10.9,72,11c-0.7,0-1.5,0.2-2.3,0.2c-0.3,0.3-0.8,0-1.2,0.1l0,0c-0.1,0.1-0.3,0.1-0.5,0.1l-0.1,0.1
								c-0.4-0.1-0.9-0.1-1.3-0.1h-0.7h-1l-0.1,0.5c-0.1,0.5-0.1,0.7-0.2,0.9c-0.1,0.3-0.1,0.5-0.1,0.8c-0.1,0.5-0.1,1,0.1,1.6
								c0,0,0,0-0.1,0c0,0.3-0.1,0.6-0.1,0.9l0,0c0.2,0.8-0.2,1.5,0,2.4c0,0.2-0.1,0.5-0.1,0.7c0.8,0,1.5-0.1,2.3-0.2v0.1
								c0.7-0.2,1.4,0.1,2.3,0c0.8,0.1,1.5-0.4,2.4-0.3c0.5,0.3,1-0.4,1.5-0.1l0.2,0.1c0.5-0.9,0.4-1.7,0.2-2.7
								c0.3-0.8,0-1.7,0.5-2.5c-0.2-0.4,0.4-0.8,0.4-1.2h-0.1c0.3-0.1-0.3-0.4,0.1-0.4l0,0c0.2-0.1-0.4-0.2-0.2-0.3h-0.1
								c0-0.1,0.1,0,0.1-0.1c0,0-0.2,0-0.1-0.1c0.4,0,0-0.2,0.4-0.2c0,0.1,0.2-0.1,0.2,0.1c0,0,0.1-0.2-0.1-0.2
								c-0.2,0-0.3-0.1-0.5-0.1h0.1c-0.1,0-0.1,0-0.2,0c0,0.1-0.2,0.1-0.3,0.2l0,0c0.1,0.1,0,0.2,0,0.2h-0.1c-0.2,0,0.3,0.2,0,0.1
								c0,0.3,0,0.6-0.1,0.9c0.1,0.1,0,0.2,0.2,0.2c-0.2,0-0.3,0.2-0.3,0.3l0,0c-0.3,0.1,0.2,0.2-0.1,0.3c0.2,0.1-0.1,0.3,0.2,0.4
								c-0.1,0-0.1,0-0.2,0c0,0.3-0.2,0.5-0.2,0.8c0.2,0.2-0.2,0.4,0.1,0.7c-0.1,0.1-0.2,0.3-0.2,0.5l0,0c0,0.2,0,0.5,0.1,0.7
								c-0.3,0-0.3,0.1-0.4,0.2c0.1,0.2,0,0.4,0.1,0.7c-0.1,0,0,0.2-0.2,0.2c0.1,0.2,0.1,0.4,0.1,0.5c0,0.1,0,0.2,0,0.2
								c-0.1,0-0.2,0-0.2-0.1c-0.1,0-0.3-0.1-0.5-0.2l0,0c-0.1,0.1-0.2,0.3-0.2,0.5l0,0c-0.1,0-0.2-0.1-0.4-0.1c0,0,0,0,0-0.1
								c-0.1,0.1-0.2-0.1-0.4,0v-0.1l-0.1,0.1c0-0.1,0-0.2,0-0.1c-1,0-2.1,0.4-3.3,0.4v-0.1l-0.2,0.1c0,0,0,0,0-0.1
								c-0.3-0.1-0.5,0.1-0.8,0.1v-0.1c-0.2,0.2-0.3-0.2-0.4,0.2v-0.1c-0.3,0.1-0.5,0.1-0.8,0.1c-0.2,0-0.3,0-0.4,0
								c0,0-0.1,0-0.1,0.1c-0.2-0.1,0.1-0.5-0.1-1h0.1c-0.2-0.6,0.1-1.2,0.2-1.8c0.1-0.3,0-0.4,0-0.7h0.1c-0.3-0.5,0.4-0.9,0.1-1.4
								h0.1c-0.2-0.1,0.1-0.3-0.2-0.3l0.1-0.1c-0.4-0.3,0.2-0.5,0-0.9h0.1c0-0.1-0.1-0.2,0-0.3l0,0c0.2-0.2,0.1-0.3,0.1-0.5
								c0.1,0,0.2-0.1,0.3-0.1v0.1c0.1-0.2,0.4,0,0.6-0.1v0.1l0.1-0.1v0.1C66.6,11.9,66.9,11.8,67.1,11.7z"/>
						</g>
					</g>
				</g>
			</g>
		</g>
		<g>
			<g>
				<path class="st11" d="M66.4,19.3c0,0-7.5,10.9-7.2,18.8c0.3,8-5.3,73.8,89.6,83.7l1.6,6.3c0,0-95.5,4.3-99.7-84.1
					C50,26.9,62.2,17.7,62.2,17.7L66.4,19.3z"/>
				<g>
					<g>
						<g>
							<g>
								<polygon class="st5" points="66.6,18.6 66.5,18.5 66.1,18.4 								"/>
								<path class="st5" d="M63.9,17.8c0.1,0,0,0.1,0.1,0.1l1.6,0.3C65.1,17.8,64.3,18.1,63.9,17.8z"/>
								<path class="st5" d="M63.5,17.6c-0.6-0.3-0.8-0.2-1.1-0.3c0.2,0,0.4,0.1,0.7,0.2C63.3,17.7,63.5,17.7,63.5,17.6z"/>
								<path class="st5" d="M54.4,68.4c0-0.1,0-0.1-0.1-0.2C54.4,68.3,54.4,68.4,54.4,68.4z"/>
								<path class="st5" d="M60.2,81.7l0.2,0.1c-0.3-0.6-0.7-1.2-1-1.8c-0.2-0.3-0.3-0.6-0.5-0.9c-0.1-0.3-0.3-0.7-0.4-1
									c-0.5-1.3-1-2.8-1.6-4.1l0.1,0.2c-0.2-0.4-0.3-0.8-0.5-1.2c-0.1-0.4-0.3-0.8-0.4-1.3c-0.3-0.8-0.5-1.7-0.8-2.6
									c-0.3-0.8-0.5-1.6-0.8-2.5c-0.2-0.8-0.4-1.7-0.6-2.6c-0.4-1.7-0.9-3.4-1.2-5.1c-0.3-1.7-0.6-3.5-0.9-5.2
									c0,0.1,0.1,0.1,0.1,0.2c-0.1-0.3-0.2-0.7-0.3-1.1c0-0.1,0.1,0.1,0.1,0.2c-0.1-0.7-0.2-1.8-0.3-2.9c-0.1-1-0.2-2-0.2-2.5
									c-0.1-0.4-0.1-0.6-0.2-0.4c-0.1-0.7-0.1-1.4-0.2-2.1l-0.1-1.1v-1.1c0-0.7,0-1.4,0-2.3c0.1-0.7,0.1-1.4,0.2-2.3
									c0.3-3,1-5.8,2-8.6c0.1-0.2,0.2-0.3,0.2-0.2c0.8-2.4,2-4.6,3.5-6.8c0.7-1,1.5-2,2.5-3c0.4-0.5,0.9-0.9,1.3-1.3
									c0.2-0.2,0.5-0.4,0.7-0.6l0.4-0.3l0.5-0.4c0.2-0.3-0.7,0.5-0.1-0.1l-0.4,0.3c-0.1,0.1-0.2,0.1-0.2,0.2
									c-0.1,0.1-0.3,0.3-0.4,0.4c-0.3,0.3-0.5,0.5-0.8,0.8c-0.5,0.5-0.9,1.1-1.5,1.6l0.1-0.2c-0.7,0.8,0,0.3-0.8,1.1
									c-0.3,0.3,0-0.1-0.1,0c-1.4,1.8-2.9,3.8-3.6,5.8c-0.4,0.4-1,2.3-1.5,3c-0.1,0.6-0.3,1.1-0.3,1.4c-1.3,3.8-1.9,7.9-1.7,12
									c0.1,2,0.3,4.1,0.5,6c0.1,1,0.1,2,0.3,3.1l0.5,3.1c0.4,1.8,0.7,4,1.2,6c0.2,1,0.4,2.1,0.7,3.3c0.1,0.5,0.2,1.1,0.4,1.6
									l0.5,1.6l0,0c0.5,1.4,1.2,3.5,1.7,5.1l0.7,1.3c0.5,1.2,0.9,2.5,1.4,3.7c0.5,1.2,1.1,2.5,1.7,3.6c1.1,2.5,2.6,4.7,4,7
									c3.1,4.5,6.3,8.8,10.2,12.5c8.8,8.6,18.2,14.4,29.4,18.4c0,0,0.1,0.1-0.2,0c3.3,1.2,6.1,2.4,9.3,3.2l0,0c3.9,1,8,1.9,12,2.8
									c4.1,0.8,8.2,1.3,12,1.6c2.4,0.2,4.8,0.4,7.3,0.5c1.2,0,2.5,0.1,3.8,0.1c0.6,0,1.2,0,1.9,0h0.5h0.3h0.1c0,0,0.1,0,0.1-0.1
									l-0.3-1c-0.3-1.2-0.6-2.5-0.9-3.7l-0.2-0.9l-0.1-0.5c0-0.2,0-0.4-0.3-0.3l-1.9-0.2c-2.6-0.3-5-0.6-7.5-0.9v-0.1
									c-7.9-1.1-15.3-3.2-22.9-5.4c-7.7-2.6-15.9-5.6-22.8-10.1c-4.2-2.9-9.9-6.5-13.1-10.1c-6.8-7.2-12.3-15-16.2-24.1
									c-3.2-8.5-5.2-17.5-5.1-26.4c-0.2-2-0.1-4.3,0-6.5c0.1-2.3,0.7-4.5,1.4-6.7l-0.1,0.1c0.7-1.5,1-3.6,1.7-4.4l-0.1,0.2
									c0.5-0.7,0.5-2,0.9-2.5v-0.2c0.5-0.9,0.1-0.1,0.6-0.8c0.1-0.3-0.1-0.2,0.3-0.7c0.4,0.1,1.2-2.4,1.6-2.1
									c-0.3,0.5,0.6-0.7,0,0.5c0.2-0.3,1.1-1.8,0.9-1.7c-0.1-0.2,0.2-0.9-0.5-0.1v0.3c-0.3,0.2-0.2,0.2-0.4,0.2
									c-0.8,1.2-1,1.2-1.6,2.1l0,0c-0.2,0.7-0.7,1.5-1,1.9l-0.2,0.2c-0.3,0.2-0.5,1.6-0.5,1.1c-1.2,2.7-2.6,5.7-3.2,9
									c0,0.4-0.4,2.5-0.1,1.8c-0.2,0.4-0.3,1.2-0.3,2c0,0.8,0,1.6,0,2c0,0,0-0.1,0-0.2c-0.3,1.7,0.3,2-0.1,3.7
									c0.2,0.2,0,3,0.4,3.9c0,0.2-0.1,0.3-0.1,0.2c0.2,3,0.5,6.1,0.9,8.6c0.6,2,0.9,5.1,1.7,6.8c0.2,0.7,0.4,1.7,0.7,2.8
									c0.3,1,0.7,2.1,1,3.1l-0.1-0.2c0.4,1.1,0.9,2.4,1.4,3.5c0.5,1.1,1,2.1,1.4,2.9c0,0.8,0.5,1.6,0.9,2.7
									c0.8,1.3,2.5,4.2,3.9,6.1c0.1,0.4,1.2,1.6,1.1,1.8c4.2,5.4,10,11.5,15.8,16l-0.1-0.1c0.8,0.5,1.8,0.9,2.7,1.3
									c0.1,0.1,0,0.1-0.1,0c1.1,0.7,2,1.5,3.2,2.3c0,0,0,0-0.2-0.1c0.5,0.3,1,0.7,1.6,1s1.1,0.7,1.8,1v0.1l0.8,0.4
									c-0.1,0-0.1,0.1-0.5-0.1c9.9,5.7,21.3,9.1,32.6,11.7h-0.4l2.3,0.4c0,0-0.1,0-0.2,0c2.8,0.7,5.7,0.9,8.5,1.5
									c0,0-0.4,0-0.1,0.1c2,0.1,3.3,0.7,4.4,0.4c0.1,0,0.1,0.1-0.1,0.1c1.4,0.2,2.9,0.3,4.3,0.5h0.4c0.1,0,0.1,0.1,0.1,0.2l0.3,1
									l0.5,2.1l0.5,2c0.3,0.5-0.2,0.4-0.9,0.4c-1.4,0-2.9,0-4.4-0.1c-4.8,0.2-10.2-0.6-15.1-1.1v-0.1c-6.4-0.7-13.2-2.6-19.5-4.6
									c-1.3-0.4-2.5-0.8-3.6-1.2c-1.1-0.4-2.3-0.8-3.5-1.3v-0.1c-4.5-1.5-9-4.3-13.3-6.5l0.3,0.1c-0.8-0.2-2.6-1.6-2.5-1.2
									l-0.7-0.5c-1.5-0.7-2.8-1.6-4-2.7c-1.2-1-2.7-2-4.2-3.4l0.2,0.1c-0.8-0.7-1.8-1.4-2.5-2c0.1,0.1,0.1,0,0.3,0.2
									c-2.4-2.5-5.2-5-7.5-7.8l0.4,0.2c-1.3-1.1-3-3.9-4.4-5.7l0.1,0.1c-0.2-0.3-0.5-0.6-0.7-0.9l0.1-0.1
									c-0.8-1.2-1.5-2.5-2.4-3.7l-0.6-0.9l-0.5-0.9C60.9,83,60.6,82.4,60.2,81.7z"/>
								<path class="st5" d="M63.8,22.2c0.1-0.1,0.1-0.2,0.2-0.3C64,21.9,63.9,22.1,63.8,22.2z"/>
							</g>
						</g>
					</g>
				</g>
			</g>
			<g>
				<path class="st7" d="M150.5,128.1l2.6,6c0,0-16.2,14-58.6-1.7c-42.4-15.8-64-69.8-32.6-114.3c0.1-0.1,0.2-0.3,0.3-0.4
					C62.1,17.6,16.8,108.1,150.5,128.1z"/>
				<g>
					<g>
						<g>
							<g>
								<path class="st5" d="M147.6,127.1c0.1,0,0,0.1,0.1,0.1h1.7C148.8,126.9,148,127.3,147.6,127.1z"/>
								<path class="st5" d="M147.1,127c-0.7-0.2-0.9-0.1-1.1-0.1C146.2,126.9,147.2,127.2,147.1,127z"/>
								<path class="st5" d="M90,108.4c0.1,0,0.1,0.1,0.2,0.1C90.1,108.5,90,108.4,90,108.4z"/>
								<path class="st5" d="M76.9,99.7h-0.2c1.2,0.9,2.4,1.9,3.6,3c1.3,0.9,2.6,1.8,3.9,2.8l-0.2-0.1c6.5,4.5,13.1,7.8,20.4,10.6
									c-0.1,0-0.2,0-0.3-0.1c0.4,0.1,0.8,0.2,1.1,0.4c0.1,0.1-0.1,0-0.3,0c0.7,0.4,1.8,0.8,3,1.2c1,0.4,2.1,0.6,2.6,0.9
									c0.4,0.1,0.7,0.1,0.4,0c5.7,2,12.1,3.8,18.2,5.2c0.3,0.1,0.3,0.1,0.2,0.2c2.7,0.4,5.3,1,8,1.5c2.7,0.6,5.4,1,8.1,1.5
									c0.2,0-0.5-0.2,0-0.2c-1.7-0.4-3.2-0.3-4.7-0.8h0.2c-1.1-0.2-0.3,0.1-1.4-0.1c-0.4-0.1,0.1-0.1-0.1-0.1
									c-2.5-0.4-4.9-1.1-7.2-1.4c-0.5-0.3-2.6-0.6-3.5-0.9c-0.6-0.1-1.2-0.2-1.5-0.2c-2-0.6-4.2-1.2-6.2-1.7c-1-0.3-2-0.6-3.2-0.9
									c-1-0.3-2-0.7-3.1-1c-2-0.7-4.2-1.4-6.2-2.1c-2-0.8-4.1-1.6-6.1-2.6c-2-0.6-4-1.6-6.1-2.8c-1-0.5-2.1-1.1-3.2-1.6
									c-1-0.6-2.1-1.2-3.2-1.8l0,0c-0.7-0.4-1.5-0.8-2.5-1.3c-0.4-0.3-0.9-0.5-1.3-0.8c-0.4-0.3-0.8-0.6-1.2-0.9l-1.4-0.8
									c-1.1-0.8-2.4-1.7-3.5-2.6c-1.1-0.9-2.1-1.8-3.3-2.9c-0.5-0.5-1.1-0.9-1.6-1.4l-1.5-1.5c-1-1-2-2-3.1-3.1
									c-3.9-4.4-7.2-9.2-9.6-14.4c-2.9-5.9-4.4-12-5.2-18.1c-0.8-6-0.8-12.2-0.2-18.6c0,0,0.1-0.1,0,0.2c0.3-3.7,1.1-7,1.9-10.4
									l0,0c1-4.7,2.7-9.5,4.7-14l-0.4-0.2c-1.1,1.6-2.3,3.3-3.3,5c-0.5,0.8-0.9,1.7-1.4,2.6c-0.5,0.8-0.9,1.6-1.3,2.6
									c-4.9,9-8.3,20.4-8.8,31.2h-0.1c-0.1,2.1-0.1,4.3-0.1,6.4c0.1,2.1,0.1,4.3,0.4,6.3c0.2,2.1,0.5,4.2,0.9,6.3
									c0.5,2,0.9,4.2,1.5,6.2c1.2,4.3,2.9,8.6,5.1,12.6c2.1,4.1,4.7,7.9,7.3,11.6c1.5,2.3,3.7,4.7,6,6.9c0.6,0.5,1.1,1.1,1.7,1.6
									c0.6,0.5,1.1,1,1.7,1.5c0.5,0.5,1.1,1,1.6,1.4c0.5,0.4,1,0.9,1.5,1.3c4,3.6,8.5,6.4,13.3,8.7c4.8,2.4,9.9,3.8,15,5.2
									c9.4,3.1,19.2,4.4,28.8,4.7c4.5-0.3,9.6-0.4,14.4-2h-0.2c1.8-0.4,3.7-1.7,4.8-2l-0.2,0.1c0.9-0.3,1.7-1.5,2.3-1.6v-0.1
									c-0.2-0.4-0.2-0.4-0.1-0.4c0,0,0.1,0-0.1-0.4c-0.1-0.3-0.2-0.1-0.4-0.7c0.3-0.3-1.2-2.6-0.8-2.9c0.2,0.6-0.2-1,0.4,0.3
									c-0.1-0.4-0.9-2.1-1-1.9c-0.2-0.1-0.7-0.7-0.3,0.4l0.2,0.2c0,0.4,0.1,0.3,0,0.5c0.6,1.4,0.5,1.7,0.8,2.8l0,0
									c0.2,0.3,0.4,0.7,0.6,1.1c0.1,0.2,0.2,0.4,0.2,0.6c0,0.1,0.1,0.2,0.1,0.3v0.1c0,0,0,0-0.1,0.1h-0.1c0,0,0,0,0,0.1
									c-0.1,0.1-0.1,0.1-0.2,0.2c-0.2,0.2-0.4,0.4-0.3,0.2c-2.6,1.7-5.9,3-9.3,3.8c-0.4,0.2-2.6,0.5-1.8,0.5
									c-0.9,0-3.5,0.2-4.4,0.3c0,0,0.1-0.1,0.2-0.1c-1.8-0.1-2.1,0.4-4,0.2c-0.3,0.3-3.2-0.1-4.2,0.2c-0.2-0.1-0.3-0.1-0.2-0.2
									c-0.4,0-0.8,0-1.2,0c-0.4,0-0.8-0.1-1.2-0.1c-0.8-0.1-1.6-0.2-2.5-0.2c-1.6-0.1-3.1-0.4-4.4-0.6c-1.1-0.1-2.6-0.3-3.8-0.5
									c-1.3-0.3-2.6-0.6-3.6-0.6c-0.8-0.2-1.8-0.4-3-0.8c-1.1-0.3-2.3-0.7-3.4-0.9h0.2c-1.2-0.3-2.7-0.7-3.9-1.1s-2.5-0.7-3.4-0.9
									c-0.6-0.5-1.7-0.8-2.7-1.2c-0.8-0.2-2-0.7-3.4-1.1c-1.3-0.5-2.7-1.1-3.9-1.6c-0.3-0.3-1.9-0.9-1.9-1.1
									c-3.3-1.5-6.9-3.7-10.1-6.1c-3.3-2.6-6.3-5.5-8.9-8.4l0.1,0.1c-0.7-0.7-1.7-1.4-2.5-2c-0.1-0.1,0-0.1,0.1,0.1
									c-1-1-1.6-2.3-2.6-3.3c0,0,0,0,0.2,0.1c-0.9-1-1.5-2.4-2.6-3.5v-0.1c-0.2-0.3-0.4-0.5-0.6-0.8c0.1,0,0.2,0,0.4,0.4
									c-6.8-10.1-11.5-22.3-12.5-34.8c0,0.1,0.1,0.3,0.1,0.4c-0.1-0.8-0.2-1.6-0.3-2.5c0,0,0.1,0.1,0.1,0.2c0-0.8-0.1-1.5-0.1-2.4
									v-2.4c-0.1-1.5,0-3.2,0.1-4.6c0,0,0.1,0.5,0.1,0.1c0-0.5,0-1,0-1.5c0.1-0.4,0.1-0.8,0.2-1.2c0.1-0.7,0.2-1.3,0.1-1.9
									c0-0.1,0.1-0.2,0.1,0.1C48,48.2,49.6,42,52,36.2c1.6-5,4.6-10,7.4-14.7v0.1c0.6-1,1.3-2.1,2-3.2l-0.1-0.1
									c-2.5,5.4-4.4,11.3-5.6,17.1c-0.3,1.4-0.5,2.8-0.7,4c-0.2,1.2-0.3,2.6-0.5,4.1l-0.1,0.1c-0.3,5.1-0.9,10.8,0,16.2l-0.1-0.3
									c0.1,0.4,0.2,1.2,0.3,1.8c0.1,0.6,0.2,1.1,0.3,1l0.1,0.9c0.2,0.9,0.4,1.7,0.6,2.6c0.2,0.8,0.4,1.6,0.6,2.6
									c0.2,0.8,0.4,1.7,0.6,2.7c0.3,0.9,0.6,1.8,1.1,3l-0.2-0.2c0.2,0.5,0.4,1.1,0.6,1.7c0.2,0.5,0.5,1,0.6,1.5
									c-0.1-0.1-0.1-0.1-0.2-0.3c0.3,0.9,0.7,1.7,1,2.7c0.2,0.4,0.4,0.9,0.6,1.3c0.2,0.4,0.5,0.8,0.7,1.3c0.5,0.8,1,1.7,1.5,2.6
									l0.4,0.6l0.4,0.6c0.3,0.4,0.6,0.8,0.8,1.2l-0.4-0.3c0.6,0.7,1.3,1.8,2.1,3.1c0.9,1.1,1.8,2.3,2.7,3.2l-0.1-0.1l0.9,0.9
									L69.4,94c0.5,0.6,1.1,1.2,1.6,1.7c0.6,0.5,1.1,1.1,1.7,1.6l1.6,1.6C75.7,98.7,76.3,99.2,76.9,99.7z"/>
								<path class="st5" d="M151.6,132.2c0-0.1-0.1-0.3-0.1-0.4C151.5,131.8,151.6,132.1,151.6,132.2z"/>
							</g>
						</g>
					</g>
				</g>
			</g>
			<g>
				<path class="st4" d="M148.9,121.8c0,0,8.7,4.4,4.2,12.4C153.1,134.1,148.6,127.9,148.9,121.8z"/>
				<g>
					<g>
						<g>
							<g>
								<polygon class="st5" points="148.1,121.7 148.1,121.8 148.2,121.8 								"/>
								<path class="st5" d="M148.4,122L148.4,122l-0.2-0.2C148,121.9,148.6,121.9,148.4,122z"/>
								<path class="st5" d="M148.3,122c-0.1,0.1,0.1,0.1,0.1,0.1C148.3,122.1,148.6,122,148.3,122z"/>
								<path class="st5" d="M149.9,127.6h0.1c-0.3-0.1-0.1-0.4-0.3-0.6l0,0c-0.1-0.6-0.4-1-0.6-1.6c0,0,0,0,0.1,0
									c0,0-0.1,0-0.1-0.1h0.1c0.2-0.2-0.2-0.3,0-0.4c0,0-0.1,0-0.2,0c-0.1-0.4-0.2-0.9-0.4-1.4h0.1c-0.3-0.4-0.2-0.8-0.2-1.2
									c-0.1,0-0.1,0-0.2,0c-0.1,0.1,0.2,0.2,0,0.4h-0.1c0,0.1,0.2,0,0.1,0.1c-0.1,0-0.1,0-0.1,0c0,0.2,0,0.4,0.2,0.6
									c-0.2,0.1,0,0.2-0.1,0.3c0.1,0,0.1,0.1,0.2,0.1c0,0.7,0.2,1.3,0.4,1.9c0.4,0.2,0.1,0.7,0.3,1l0,0c0.1,0.1,0.2,0.2,0.2,0.4
									l0.2,0.1c0,0.9,0.5,1.7,0.7,2.6c0.3,0.9,0.5,1.8,1.3,2.6c0,0,0,0-0.1,0c0.2,0.2,0.2,0.5,0.4,0.7l0,0
									c0.3,0.2,0.5,0.6,0.7,0.9c0.1,0.2,0.2,0.4,0.4,0.5l0.1,0.1c0,0,0.1,0.1,0.1,0s0.1-0.3,0.1-0.4c0.2-0.4,0.4-0.8,0.6-1.2
									c0.1-0.4,0.2-0.8,0.3-1.2h0.1c0-0.3,0.1-0.6,0.2-0.9c0.1-0.3,0.2-0.6,0.1-0.9c0-0.3,0-0.7-0.2-1c-0.2-0.3-0.3-0.6-0.3-1
									c0.1-0.5-0.6-0.8-0.5-1.2c0-0.5-0.1-0.8-0.4-1.1c-0.3-0.3-0.6-0.5-1-0.7c-0.3-0.7-1.2-0.8-1.5-1.5c-0.4,0-0.4-0.6-0.7-0.8
									v0.1c0-0.3-0.4,0.1-0.3-0.2l0,0c0-0.2-0.4,0.3-0.3,0.1l-0.1,0.1c-0.1,0,0-0.1,0-0.2l-0.1,0.1c0.2-0.3-0.2,0,0-0.4
									c0,0,0-0.2,0.1-0.2c0-0.1-0.2-0.1-0.2,0.1c-0.1,0.2-0.2,0.3-0.2,0.4l0.1-0.1c0,0.1,0,0.1-0.1,0.2c0.1,0.1,0,0.2,0,0.4l0,0
									c0.1-0.1,0.1,0,0.2,0v0.1c-0.1,0.1,0.3-0.2,0.1,0c0.2,0.1,0.4,0.2,0.6,0.3c0.1-0.1,0.2,0.1,0.2-0.1c-0.1,0.2,0,0.4,0.1,0.4
									l0,0c-0.1,0.3,0.3-0.1,0.2,0.2c0.2-0.2,0.1,0.2,0.4,0c0,0.1-0.1,0.1-0.1,0.1c0.2,0.2,0.3,0.4,0.4,0.5c0.3,0,0.2,0.3,0.5,0.2
									c0,0.1,0.1,0.3,0.3,0.4l0,0c0.1,0.1,0.3,0.3,0.5,0.3c-0.2,0.2-0.1,0.2-0.1,0.4c0.2,0,0.3,0.2,0.5,0.3
									c-0.1,0.1,0.1,0.1,0,0.2c0.3,0.1,0.5,0.3,0.6,0.6c0.1,0.3,0.1,0.6,0.1,0.9l0,0c0.1,0,0.4,0,0.5,0l0,0c0.1,0.1-0.1,0.2,0,0.3
									c0,0,0,0-0.1,0c0.1,0.1-0.1,0.2,0.1,0.3l0,0l0.1,0.1c-0.1,0-0.2,0-0.1,0c0.1,0.4,0.2,0.8,0.3,1.2c0,0.2,0.1,0.4,0.1,0.6
									c0,0.2,0,0.4-0.1,0.7h-0.1l0.1,0.2c0,0,0,0-0.1,0c-0.1,0.2,0,0.5-0.1,0.7c0,0-0.1-0.1-0.1,0c0.1,0.2-0.3,0.2,0,0.4h-0.1
									c0,0.2,0,0.4-0.1,0.7c-0.1,0.2-0.1,0.3-0.2,0.4c0,0.3,0,0.5-0.1,0.6c0,0.1-0.1,0.1-0.1,0.2h-0.1v-0.1
									c-0.1,0-0.3-0.2-0.4-0.5c-0.1-0.2-0.2-0.5-0.4-0.7c-0.1-0.2-0.2-0.3-0.3-0.5h0.1c-0.5-0.2-0.1-0.8-0.6-1h0.1
									c-0.2,0,0-0.2-0.3-0.1v-0.1c-0.5-0.1-0.1-0.5-0.4-0.7h0.1c-0.1-0.1-0.2-0.1-0.1-0.2c0,0,0,0,0.1,0c0.1-0.4-0.3-0.5-0.4-0.8
									h0.1c-0.2-0.1-0.2-0.4-0.3-0.5h0.1l-0.1-0.1h0.1C150.1,128,150,127.8,149.9,127.6z"/>
							</g>
						</g>
					</g>
				</g>
			</g>
		</g>
		<g>
			<g>
				<path class="st0" d="M41.4,35.2c0,0-3.3,4.1-10.9,5.2S19.9,54.1,19.4,56.9c-0.6,2.8-6.1,46.4,25.3,75.1
					c31.4,28.7,62,38.5,82.7,28.2C127.4,160.3,11.1,143.5,41.4,35.2z"/>
				<g>
					<g>
						<g>
							<g>
								<polygon class="st5" points="40.8,35 40.7,35.2 40.7,35.7 								"/>
								<path class="st5" d="M40.3,38.1c0-0.1,0.1,0,0.1-0.1l0.1-1.8C40.2,37,40.5,37.7,40.3,38.1z"/>
								<path class="st5" d="M40.1,38.6c-0.2,0.7-0.2,1-0.2,1.1C39.9,39.5,40.3,38.5,40.1,38.6z"/>
								<path class="st5" d="M41.4,99.7c0-0.1-0.1-0.1-0.1-0.2C41.4,99.6,41.4,99.7,41.4,99.7z"/>
								<path class="st5" d="M49.2,113.9l0.2,0.1c-0.4-0.6-0.9-1.2-1.3-1.8c-0.4-0.7-0.8-1.4-1.1-2.1c-0.4-0.7-0.8-1.4-1.1-2.1
									c-0.4-0.7-0.8-1.4-1.1-2.1l0.1,0.2c-0.8-1.8-1.6-3.7-2.5-5.4c-0.6-1.8-1.3-3.7-1.9-5.5c-0.4-0.9-0.6-1.8-0.8-2.8
									c-0.2-0.9-0.5-1.8-0.7-2.9c-0.2-0.9-0.5-1.8-0.7-2.9c-0.2-1-0.3-1.9-0.5-3c0,0.1,0.1,0.2,0.1,0.3c-0.1-0.4-0.2-0.8-0.3-1.2
									c0-0.1,0.1,0.1,0.1,0.2c0-0.8-0.3-2-0.5-3.2c-0.1-1.1-0.2-2.3-0.2-2.8c-0.1-0.5-0.1-0.7-0.2-0.4c-0.1-1.5-0.2-3.2-0.4-4.8
									c0-1.6,0-3.3,0-4.9c-0.1-3.3,0.3-6.5,0.5-9.7c0.1-0.3,0.1-0.3,0.2-0.3c0-0.7,0.1-1.3,0.1-2s0.2-1.3,0.3-2
									c0.2-1.3,0.4-2.8,0.7-4.2c0.3-1.4,0.4-2.8,0.8-4.2c0.3-1.3,0.7-2.8,1-4.1c0-0.2-0.2,0.5-0.2,0c-0.5,1.7-0.6,3.3-1.1,4.8
									v-0.2c-0.3,1.1,0.1,0.3-0.2,1.4c-0.1,0.5-0.1-0.1-0.1,0.1c-0.4,2.5-0.9,5.1-1.1,7.5c-0.3,0.5-0.3,2.7-0.5,3.6
									c0,0.6-0.1,1.3,0,1.5c-0.9,8.8-0.7,17.9,1,26.9c0.2,1,0.5,2.1,0.8,3.3s0.5,2.3,0.8,3.5c0.2,1.2,0.6,2.4,1,3.6
									c0.4,1.2,0.8,2.4,1.2,3.6l0,0c0.3,0.8,0.7,1.6,1.2,2.7c0.4,0.9,0.9,1.9,1.2,2.9l0.8,1.4c0.7,1.3,1.3,2.6,2,3.9
									c0.3,0.6,0.7,1.3,1,1.9l1.2,1.8c0.8,1.2,1.6,2.6,2.5,3.7l2.8,3.5l0.7,0.9l0.7,0.8l1.5,1.6c1,1.1,2,2.3,3.1,3.3l3.3,3.1
									l3.4,2.9c5.3,4.3,10.6,7.9,16.2,10.9s11.3,5.7,17.5,7.9c0,0,0.1,0.1-0.3,0c1.8,0.6,3.5,1.2,5.2,1.8c1.7,0.5,3.4,1.1,5.1,1.6
									l0,0c2.7,0.7,5.4,1.4,8.2,2.1c1.3,0.3,2.8,0.6,4.2,0.9l2,0.4c0.5,0.1,0.9,0.2,1.4,0.2c0.1,0,0,0,0,0h-0.1l-0.2,0.1l-0.4,0.2
									l-0.4,0.2c-0.1,0.1-0.2,0.1-0.5,0.2c-0.8,0.3-1.6,0.6-2.4,0.9c-0.8,0.3-1.6,0.5-2.5,0.7c-0.8,0.2-1.6,0.4-2.5,0.6
									c-5.1,0.9-10.7,0.9-16.3,0.1c-5.5-0.8-11.1-2.6-16.2-4.6l0,0c-8.3-3.2-15.6-7.9-22.8-12.8c-3.7-2.7-7.5-5.4-11.1-8.4
									c-3.7-3-7.3-5.9-10.3-9.3c-0.4-0.5-0.9-1.1-1.4-1.6c-0.5-0.5-1-1.1-1.5-1.7c-1-1.1-2-2.5-3.1-3.7c-1.9-2.6-3.8-5.2-4.9-7.6
									c-4.9-9.7-8.5-19.9-10.3-30.6c-0.6-5-1.1-10-1.1-15c0-2.5,0.1-5,0.3-7.5c0.1-1.2,0.2-2.5,0.5-3.7c0.3-1.2,0.6-2.4,1-3.6
									c0.6-2.3,1.4-4.5,2.8-6.7c0.3-0.5,0.7-1,1.1-1.5c0.4-0.5,0.8-1,1.2-1.4c0.4-0.5,0.9-0.8,1.4-1.2c0.5-0.3,1-0.7,1.6-0.9h-0.2
									c0.8-0.3,1.8-0.6,2.8-0.8c0.9-0.2,1.7-0.5,2.4-0.4l-0.2,0.1c1-0.1,2-1,2.7-1.1l0.1-0.1c1-0.5,0.2,0,1-0.3
									c0.3-0.2,0.1-0.2,0.7-0.5c0.2,0.1,0.8-0.2,1.3-0.6c0.6-0.4,1.1-0.8,1.3-0.7c-0.5,0.4,0.9-0.5-0.2,0.5c0.2-0.1,0.7-0.5,1-0.9
									c0.4-0.4,0.6-0.8,0.5-0.8c0-0.3,0.3-0.9-0.5-0.1l-0.1,0.3c-0.4,0.2-0.3,0.2-0.4,0.2c-1.1,1-1.5,0.9-2.5,1.4l0,0
									c-0.5,0.5-1.5,0.9-2,1.1h-0.2c-0.4,0-1.5,0.9-1.2,0.5c-0.7,0.3-1.5,0.5-2.4,0.7c-0.8,0.2-1.6,0.3-2.6,0.5
									c-1.8,0.4-3.5,1.5-4.7,2.9c-0.1,0.2-0.6,0.7-0.9,1.2c-0.3,0.4-0.5,0.7-0.2,0.5c-0.4,0.3-0.9,1-1.4,1.8
									c-0.5,0.8-0.9,1.6-1.1,2c0,0,0-0.1,0.1-0.2c-1,1.6-0.6,2.3-1.5,3.9c0.1,0.3-1,3.2-0.9,4.3C19.1,56.9,19,57,19,56.9
									c-0.6,3.3-0.8,6.9-0.9,9.6c0.2,2.4-0.1,5.7,0.4,7.8c0,1.6,0.1,4.4,0.5,6.8l-0.1-0.2c0.3,2.7,0.9,5.8,1.4,7.6
									c-0.1,0.8,0.1,1.9,0.3,3.1c0.5,1.7,1.4,5.1,2.4,7.7c0,0.4,0.8,2,0.6,2.3c1.4,3.5,3.2,7.4,5.2,11.2c2,3.8,4.3,7.5,6.7,10.7
									l-0.1-0.1c0.7,0.8,1.6,1.5,2.5,2.3c0.1,0.1,0,0.1-0.1-0.1c0.5,0.5,0.9,1.1,1.3,1.6c0.4,0.5,0.9,1.1,1.4,1.6c0,0,0,0-0.2-0.1
									c1,0.9,1.8,2.1,3.2,3.2v0.1l0.8,0.6c-0.1,0-0.2,0.1-0.5-0.3c9.2,8.6,19.9,16.3,31.2,22.5l-0.4-0.2c0.7,0.4,1.5,0.7,2.3,1.1
									c0,0-0.1,0-0.2-0.1c2.8,1.5,5.9,2.8,8.8,4c0,0-0.5-0.1-0.1,0.1c2.3,0.7,3.4,1.5,4.6,1.5c0.1,0.1,0.1,0.2-0.1,0.1
									c6.1,1.9,12.6,3.4,19.1,3.5c5.4-0.2,11.5-0.8,16.6-3.4v0.1c0.4-0.2,0.7-0.4,1.1-0.5l0.5-0.3l0.3-0.1l0.1-0.1
									c0,0,0.1,0,0-0.1c-0.9-0.1-1.9-0.3-2.8-0.4c-0.8-0.1-1.6-0.3-2.5-0.5c-1.6-0.4-3.3-0.7-4.9-1.2c-3.3-0.9-6.5-1.8-9.7-2.9
									c-1.4-0.5-2.7-0.9-3.9-1.3c-1.2-0.4-2.5-0.8-3.9-1.4v-0.1c-1.2-0.4-2.6-0.8-3.8-1.4s-2.5-1.1-3.8-1.7
									c-2.5-1.2-5-2.6-7.5-3.7l0.4,0.1c-0.8-0.2-2.9-1.6-2.8-1.2l-0.8-0.6c-1.7-0.8-3.2-1.6-4.6-2.7c-1.4-1-3.1-2.1-4.9-3.4
									l0.3,0.1c-1-0.7-2.1-1.5-2.9-2c0.1,0.1,0.1,0,0.3,0.2c-1.4-1.2-3-2.6-4.6-3.8c-1.6-1.2-3.1-2.7-4.6-4l0.4,0.2
									c-1.5-1.1-3.8-4-5.6-5.7l0.1,0.1c-0.3-0.3-0.6-0.6-0.9-0.9l0.1-0.1c-1-1.3-2-2.6-3.1-3.8C50.9,116.6,50.1,115.2,49.2,113.9z
									"/>
								<path class="st5" d="M37.8,37.4c0.1-0.1,0.2-0.1,0.3-0.2C38.1,37.2,37.9,37.4,37.8,37.4z"/>
							</g>
						</g>
					</g>
				</g>
			</g>
			<g>
				<path class="st11" d="M52,12.6c0,0-5.8,7.8-6.5,11.7c-0.7,3.9-1.8,7.7-5.4,13.5c-3.5,5.8-23.1,36.6,4.4,77.4
					c27.5,40.6,75.5,43.5,82.9,45.1c0,0-1.6-5.4,2.7-8.6c0,0-43.2-21.6-55-32.4C63,108.4,29.7,72.1,61.6,17.8L52,12.6z"/>
				<g>
					<g>
						<g>
							<g>
								<polygon class="st5" points="51.7,13.2 51.8,13.3 52.3,13.4 								"/>
								<path class="st5" d="M54.6,14.6c-0.1-0.1,0-0.1-0.1-0.1l-1.8-0.6C53.4,14.3,54.1,14.1,54.6,14.6z"/>
								<path class="st5" d="M55.1,14.9c0.6,0.4,0.9,0.4,1.1,0.5C56,15.3,55,14.6,55.1,14.9z"/>
								<path class="st5" d="M53.8,89.6l0.2,0.1c-1.4-2.9-2.5-6.3-3.4-9.5l0.1,0.2c-1.1-4.1-1.8-8.2-2.1-12.2
									c-0.3-4.1-0.5-8.2-0.1-12.4c0,0.1,0,0.2,0,0.3c0-0.4-0.1-0.9,0-1.3c0-0.1,0,0.1,0,0.3c0.2-0.9,0.3-2.1,0.5-3.4
									c0.1-1.2,0.3-2.4,0.5-2.9c0.1-0.5,0-0.7-0.1-0.5c1.2-6.5,3.5-13.3,6.1-19.5c0.2-0.3,0.2-0.3,0.2-0.2c0.5-1.3,1.1-2.7,1.7-4
									c0.3-0.7,0.6-1.3,0.9-2l1.1-1.9l1.1-1.9l0.3-0.5L60.9,18l-0.4-0.2c-1.3-0.7-2.6-1.4-3.9-2.1c-0.2,0,0.5,0.3-0.1,0.2
									c0.8,0.5,1.6,0.8,2.4,1.2c0.4,0.2,0.7,0.4,1.1,0.5c0.3,0.2,0.9,0.5,0.8,0.5h-0.1c0.1,0,0.1,0,0.1,0.1l0,0c0,0.1,0,0-0.2,0.3
									c-0.3,0.4,0-0.2-0.1,0c-0.6,1.1-1.3,2.4-1.9,3.6s-1.1,2.5-1.6,3.6c-0.2,0.2-0.5,0.9-0.9,1.5c-0.3,0.7-0.6,1.4-0.9,1.8
									c-0.2,0.6-0.5,1.3-0.5,1.5c-0.5,1-0.9,2.1-1.3,3.3c-0.4,1.1-0.8,2.3-1.2,3.3c-0.7,2.3-1.4,4.5-1.9,6.9
									c-1.1,4.6-1.9,9.4-2.1,14.1c0,4.5-0.2,9.9,0.7,15.1l0,0c0.1,0.8,0.4,1.9,0.6,3c0.2,1.1,0.5,2.3,0.7,3.2l0.6,1.6
									c3.1,12.1,9.9,23.2,18.4,32.6c1.2,1.3,2.5,2.7,3.7,3.9c0.6,0.6,1.2,1.2,1.8,1.8c0.6,0.6,1.3,1.1,1.9,1.7
									c0.6,0.6,1.3,1,2,1.5c0.7,0.5,1.3,1,2,1.5c1.4,0.9,2.8,1.9,4.2,2.9c5.6,3.7,11.4,7,17.5,10.2c0,0,0.1,0.1-0.3-0.1
									c3.6,1.9,6.8,3.8,10,5.5l0,0c4.2,2.1,8.5,4.4,12.9,6.7c1.1,0.5,2.1,1.1,3.3,1.6l1.3,0.7c0.2,0,0,0.1-0.1,0.2l-0.2,0.2
									c-0.1,0.1-0.4,0.4-0.6,0.6c-0.8,0.9-1.3,2-1.6,3.2c-0.2,1.1-0.2,2.4,0,3.5c0,0.2,0.1,0.5,0.2,0.8c-2.6-0.4-5.2-0.8-8-1.3
									c-2.8-0.5-5.6-1-8.4-1.6c-5.6-1.2-11.4-2.9-16.7-4.7v-0.1c-8.8-3.1-16.9-7.4-24.6-12.5c-7.8-5.5-15.8-12-21.5-19.9
									c-3.5-4.9-8.2-11.2-10.3-16.5C35.3,98.4,33.3,93,32,87.5c-0.4-1.3-0.6-2.8-0.9-4.2c-0.2-1.4-0.5-2.8-0.7-4.2
									c-0.4-2.9-0.6-5.7-0.6-8.6c0.2-5.3,0.9-10.6,2.4-15.8s3.5-10,6.1-14.4c1.1-2.1,2.6-4.3,3.8-6.7c1.2-2.4,2.4-4.8,3-7.5
									l-0.1,0.2c0.4-0.9,0.4-2,0.6-3c0.2-0.9,0.6-1.8,1-2.3l-0.1,0.2c0.6-0.8,0.7-2.4,1.2-2.8v-0.2c0.6-1.1,0.2-0.1,0.7-0.9
									c0.2-0.3-0.1-0.2,0.4-0.8c0.4,0.1,1.6-2.6,2-2.5c-0.4,0.5,0.7-0.8-0.1,0.5c0.3-0.3,1.4-2,1.2-1.9c0-0.2,0.3-1-0.5-0.1V13
									c-0.4,0.3-0.2,0.2-0.4,0.3c-1,1.3-1.2,1.4-2,2.4l0,0c-0.3,0.8-1,1.6-1.3,2.3l-0.2,0.2c-0.3,0.3-0.7,1.8-0.7,1.2
									c-0.8,1.5-1.6,3.2-2,5.1c-0.3,1.8-0.8,3.7-1.4,5.4c-0.1,0.5-1.1,2.7-0.6,1.9c-0.5,0.8-1.8,3.3-2.4,4.1c0,0,0-0.1,0.1-0.2
									c-1.2,1.6-1,2.1-2.3,3.7c0.1,0.4-1.7,3-1.9,4.1c-0.1,0.2-0.2,0.2-0.2,0.1c-1.5,3.1-3,6.7-3.9,9.4c-0.5,2.5-1.6,5.8-1.7,8
									c-0.4,1.7-0.9,4.6-0.9,7.1v-0.2c-0.2,2.8-0.1,6.3,0.2,8.2c-0.3,0.8-0.1,2,0,3.3c0.2,0.9,0.4,2.4,0.6,3.8
									c0.3,1.5,0.6,3.2,1,4.5c0,0.4,0.6,2.3,0.5,2.5c2.5,7.6,6.5,16.6,11.1,23.8l-0.1-0.1c0.7,0.9,1.5,1.8,2.4,2.7
									c0,0.1,0,0.1-0.1-0.1c0.9,1.2,1.5,2.6,2.6,3.7c0,0,0,0-0.2-0.2c1,1.1,1.7,2.5,3,3.7v0.1l0.8,0.8c-0.1,0-0.2,0.1-0.5-0.4
									c8.7,10.2,20.2,18.3,32.4,24.1l-0.5-0.2c0.8,0.4,1.6,0.7,2.5,1c0,0-0.1,0-0.3-0.1c3,1.5,6.3,2.7,9.4,3.8
									c0,0-0.5-0.1-0.1,0.1c2.4,0.6,3.7,1.4,4.9,1.5c0.1,0.1,0.1,0.2-0.1,0.1c6.5,1.9,13.3,3.5,20,4.6c1.3,0.1,2.8,0.3,4.1,0.5
									c0.7,0.1,1.4,0.2,2.1,0.3l1,0.2c0.4,0.1,0.9,0.2,1.3,0.2c-0.1-0.5-0.3-1.1-0.3-1.4c0-0.4-0.1-0.8-0.1-1.1
									c0-0.8,0.1-1.5,0.3-2.3c0.2-0.7,0.5-1.4,0.9-2l0.3-0.5l0.4-0.4c0.2-0.3,0.6-0.6,0.9-0.8h0.1l0.1-0.1c0,0,0.1,0,0-0.1
									l-0.2-0.1l-0.4-0.2l-0.7-0.3l-1.3-0.6c-0.8-0.4-1.7-0.8-2.6-1.3c-1.7-0.9-3.5-1.8-5.2-2.8c-3.5-1.8-7-3.8-10.4-5.6
									c-2.9-1.5-4.8-2.7-7.7-4.2v-0.1c-5-2.5-9.9-6-15-8.9l0.4,0.1c-0.8-0.3-3-1.9-2.8-1.5l-0.8-0.6c-0.8-0.5-1.6-0.9-2.5-1.4
									c-0.7-0.5-1.4-1.1-2.3-1.7c-0.4-0.3-0.7-0.6-1.1-0.9c-0.4-0.3-0.7-0.6-1.1-1c-0.8-0.7-1.6-1.3-2.6-2.1l0.3,0.2
									c-0.9-0.8-2-1.8-2.7-2.6c0.1,0.1,0.1,0,0.3,0.2c-2.7-3.1-5.7-6.2-8.3-9.6l0.4,0.3c-1.3-1.5-3.4-4.7-4.8-7l0.1,0.1
									c-0.3-0.4-0.5-0.7-0.8-1.1l0.1-0.1C56.8,95.6,55.2,92.6,53.8,89.6z"/>
								<path class="st5" d="M48.9,16c0.1-0.1,0.2-0.2,0.3-0.3C49.1,15.7,49,15.9,48.9,16z"/>
							</g>
						</g>
					</g>
				</g>
			</g>
			<g>
				<path class="st4" d="M130,151.6c0,0-4.4,2.4-2.7,8.6C127.4,160.3,132.2,159,130,151.6z"/>
				<g>
					<g>
						<g>
							<g>
								<path class="st5" d="M129.4,151.8l-0.1,0.1L129.4,151.8z"/>
								<path class="st5" d="M129.6,151.9C129.6,151.9,129.7,151.9,129.6,151.9h-0.2C129.2,152,129.7,151.9,129.6,151.9z"/>
								<path class="st5" d="M129.6,151.9c-0.1,0.1,0.1,0,0.1,0C129.6,152,129.7,151.9,129.6,151.9z"/>
								<path class="st5" d="M130.6,155.8h0.1c-0.2-0.2,0-0.3,0-0.5l0,0c0.1-0.4-0.2-0.8-0.3-1.2c0,0,0,0,0.1,0c0,0-0.1,0-0.1-0.1
									h0.1c0.2-0.1-0.2-0.2,0-0.3c0,0-0.1,0-0.2,0c-0.1-0.3-0.2-0.6-0.4-0.9h0.1c-0.4-0.2-0.3-0.5-0.3-0.8c-0.1,0-0.1,0-0.2,0
									c-0.1,0.1,0.2,0.1,0.1,0.2h-0.1c0,0.1,0.2,0,0.1,0c-0.1,0-0.1,0-0.1,0c0.1,0.1,0,0.3,0.2,0.3c-0.2,0.1,0,0.1-0.1,0.2
									c0.1,0,0.1,0.1,0.2,0c0,0.4,0.2,0.8,0.3,1.3c0.3,0.2,0,0.5,0.1,0.7l0,0c0.1,0.1,0.1,0.2,0.1,0.3l0.1,0.1
									c-0.3,0.6-0.2,1.2-0.5,1.7c-0.3,0.6-0.7,0.9-0.8,1.6l0,0c-0.1,0.2-0.3,0.2-0.3,0.4l0,0c-0.1,0.2-0.3,0.4-0.4,0.5
									c-0.2,0.1-0.3,0.2-0.5,0.4c-0.1,0-0.2,0.1-0.3,0.1s-0.1,0-0.1-0.1v-0.2c-0.1-0.2-0.2-0.5-0.2-0.7h0.1
									c-0.2-0.4,0.1-0.9,0-1.3c0.1-0.4-0.3-0.9-0.1-1.4c0.4-0.2-0.2-0.7,0.2-0.9c0.6-0.4,0.5-0.9,0.6-1.6c0.4-0.3,0.4-1,1-1.2
									c0-0.3,0.5-0.1,0.7-0.3l-0.1-0.1c0.2,0.1,0-0.4,0.2-0.1l0,0c0.1,0.1-0.1-0.4,0-0.3v-0.1c0-0.1,0.1,0.1,0.1,0.1
									s-0.1-0.1,0-0.1c0.2,0.3,0.1-0.1,0.3,0.2c0,0,0.1,0.1,0.1,0.2c0,0,0.1,0,0-0.2c-0.1-0.2-0.1-0.3-0.2-0.4l0.1,0.1
									c-0.1-0.1,0,0-0.1-0.1c-0.1,0-0.2-0.1-0.3-0.2l0,0c0,0.2,0,0.1-0.1,0.1l-0.1-0.1c-0.1-0.1,0.1,0.3,0,0.1
									c-0.1,0.2-0.3,0.3-0.4,0.4c0,0.1-0.1,0.1,0,0.2c-0.2-0.1-0.3-0.1-0.4,0l0,0c-0.3-0.1,0.1,0.3-0.2,0.1c0.2,0.2-0.2,0.1,0,0.3
									l-0.1-0.1c-0.1,0.1-0.3,0.2-0.4,0.3c0.1,0.2-0.3,0.2-0.1,0.5c-0.1,0-0.3,0.1-0.3,0.3l0,0c-0.1,0.1-0.1,0.3,0,0.5
									c-0.3-0.1-0.3,0-0.4,0c0.1,0.1,0,0.3,0,0.5c-0.1,0,0,0.1-0.2,0.1c0.2,0.5-0.1,0.9-0.4,1.3l0,0c0.1,0.1,0.3,0.2,0.4,0.3l0,0
									c0,0.1-0.2,0.1-0.2,0.2c0,0,0,0-0.1,0c0.1,0.1-0.2,0.1,0,0.2h-0.1l0.1,0.1c-0.1,0-0.2,0-0.1,0c-0.1,0.7,0.2,1.4,0.2,2h-0.1
									l0.1,0.1c0,0,0,0-0.1,0c-0.1,0.2,0.1,0.3,0.1,0.5h-0.1c0.2,0.1-0.2,0.3,0.2,0.3H127c0.1,0.2,0.2,0.4,0.2,0.6
									c0,0.1,0.1,0.2,0.1,0.3v0.2c0,0.1,0,0.2,0.1,0.1c0.3-0.2,0.4-0.3,0.6-0.4c0.2-0.1,0.4-0.1,0.4-0.3v0.1
									c0.2-0.4,0.6-0.4,0.9-0.7c0.1-0.1,0.1-0.2,0.2-0.4h0.1c-0.1-0.4,0.6-0.3,0.4-0.7l0.1,0.1c-0.1-0.1,0.1-0.1-0.1-0.3h0.1
									c-0.3-0.3,0.3-0.2,0.2-0.6h0.1c0-0.1,0-0.2,0-0.2l0,0c0.3-0.1,0.1-0.4,0.2-0.6l0.1,0.1c-0.1-0.1,0-0.3,0-0.4h0.1l-0.1-0.1
									h0.1C130.7,156.2,130.6,156,130.6,155.8z"/>
							</g>
						</g>
					</g>
				</g>
			</g>
		</g>
		<g>
			<path class="st4" d="M175.5,96.2c0,0-0.4,6.7,6.3,10.3C181.8,106.4,181.7,100.4,175.5,96.2z"/>
			<g>
				<g>
					<g>
						<g>
							<polygon class="st5" points="175.1,96.7 175.1,96.8 175.2,96.7 							"/>
							<path class="st5" d="M175.4,96.7C175.4,96.6,175.5,96.6,175.4,96.7l-0.2,0.1C175.2,96.9,175.5,96.5,175.4,96.7z"/>
							<path class="st5" d="M175.4,96.7c0,0.1,0.1,0,0.1-0.1C175.5,96.7,175.5,96.6,175.4,96.7z"/>
							<path class="st5" d="M179.5,99.9L179.5,99.9c-0.2-0.1-0.1-0.4-0.3-0.5l0,0c-0.3-0.4-0.8-0.7-1.2-1c0,0,0,0,0.1,0h-0.1
								c0,0,0,0,0.1,0c0.1-0.2-0.3-0.1-0.3-0.3c0,0-0.1,0-0.1,0.1c-0.3-0.2-0.7-0.5-1.1-0.6c0,0,0-0.1,0.1-0.1
								c-0.5,0-0.7-0.3-0.9-0.5c-0.1,0.1,0,0.1-0.1,0.1c0,0.1,0.3,0,0.3,0.1l-0.1,0.1c0,0.1,0.1-0.1,0.1,0s-0.1,0.1-0.1,0.1
								c0.1,0.1,0.2,0.2,0.5,0.2c-0.1,0.1,0.1,0.1,0.1,0.3c0.1,0,0.1,0,0.2-0.1c0.4,0.4,0.9,0.7,1.3,1.1c0.4,0,0.4,0.5,0.6,0.6l0,0
								c0.1,0,0.3,0.1,0.3,0.2h0.2c0.2,0.8,0.8,1.3,1.1,2c0.3,0.8,0.4,1.5,1.1,2.3c0,0,0,0-0.1,0c0.1,0.2,0.1,0.5,0.2,0.7l0,0
								c0.1,0.1,0.2,0.3,0.2,0.4c0,0.1,0.1,0.2,0.1,0.3c0,0.2,0,0.3,0.2,0.8v0.2c0,0.1,0,0-0.1,0l-0.1-0.1c-0.1-0.1-0.3-0.1-0.4-0.2
								c-0.3-0.1-0.5-0.3-0.9-0.5l0,0c-0.3-0.1-0.5-0.3-0.6-0.5c-0.2-0.2-0.3-0.5-0.6-0.6c-0.2-0.2-0.4-0.4-0.7-0.6
								c-0.3-0.2-0.5-0.4-0.6-0.7c0-0.5-0.8-0.5-0.7-1c0.1-0.8-0.5-1.3-1-1.9c0-0.7-0.7-1.2-0.4-1.9c-0.3-0.3,0.2-0.7,0.1-1h-0.1
								c0.2-0.1-0.4-0.2,0-0.3l0,0c0.2-0.1-0.4-0.1-0.2-0.2h-0.1c0-0.1,0.1,0,0.1-0.1c0,0-0.2,0-0.1-0.1c0.4,0-0.1-0.2,0.3-0.2
								c0,0,0.2-0.1,0.2,0c0,0,0-0.1-0.1-0.1c-0.2,0-0.3-0.1-0.5,0h0.1c-0.1,0-0.1,0-0.2,0c0,0.1-0.2,0.1-0.3,0.2l0,0
								c0.2,0.1,0.1,0.1,0,0.2h-0.1c-0.2,0,0.3,0.1,0,0.1c0.1,0.2,0.1,0.5,0.1,0.7c0.1,0,0,0.2,0.2,0.1c-0.2,0.1-0.2,0.3-0.2,0.3
								l0,0c-0.3,0.2,0.3,0.1,0,0.3c0.2,0,0,0.2,0.3,0.2c-0.1,0-0.1,0-0.1,0c0,0.2,0,0.5,0,0.7c0.2,0.1,0,0.4,0.3,0.4
								c0,0.1-0.1,0.3,0.1,0.5l0,0c0.1,0.2,0.2,0.4,0.4,0.4c-0.2,0.2-0.2,0.2-0.2,0.3c0.2,0.1,0.2,0.3,0.4,0.4
								c-0.1,0.1,0.1,0.1-0.1,0.2c0.5,0.3,0.7,0.9,0.8,1.5l0,0c0.1,0,0.4-0.1,0.5-0.1l0,0c0.1,0.1,0,0.2,0.1,0.3c0,0,0,0-0.1,0
								c0.1,0,0,0.2,0.2,0.2l0,0h0.1c-0.1,0-0.1,0.1-0.1,0.1c0.2,0.4,0.6,0.6,0.9,0.9c0.4,0.2,0.7,0.5,1,0.8h-0.1h0.2c0,0,0,0-0.1,0
								c0.1,0.2,0.4,0.2,0.5,0.3l-0.1,0.1c0.2,0,0.1,0.3,0.3,0.1c0,0,0,0.1-0.1,0.1c0.6,0.2,1,0.5,1.6,0.8c0-0.1,0.1-0.1,0.2-0.1
								c0-0.1,0-0.3,0-0.4c0-0.2,0-0.5-0.2-0.8l0.1,0.1c-0.3-0.6-0.2-1.1-0.3-1.5c0-0.2-0.1-0.3-0.2-0.5h0.1c-0.4-0.2,0-0.8-0.4-1
								h0.1c-0.2,0,0-0.2-0.3-0.1l0.1-0.1c-0.4-0.1,0-0.5-0.4-0.6h0.1c-0.1,0-0.2-0.1-0.1-0.2c0,0,0,0,0.1,0
								c0.1-0.4-0.3-0.5-0.4-0.7h0.1c-0.2,0-0.2-0.3-0.3-0.4h0.1H180l0.1-0.1C179.8,100.1,179.6,100,179.5,99.9z"/>
							<path class="st5" d="M174.8,96.5C175,96.4,175,96.4,174.8,96.5C174.8,96.4,175,96.4,174.8,96.5z"/>
						</g>
					</g>
				</g>
			</g>
		</g>
	</g>
	<g>
		<path class="st11" d="M30,116.7c0,0,41.3-18.6,64.7-39.8c0,0,13.2,5.1,14.2,10.1c0,0-18.2,18.6-68.2,40.9c0,0-3.4,1.2-3.6-2.9
			c0,0-4.5-0.8-3.7-5.4C33.3,119.7,29.4,120,30,116.7z"/>
		<g>
			<g>
				<g>
					<g>
						<polygon class="st5" points="29.3,116.6 29.2,116.7 29.3,117 						"/>
						<path class="st5" d="M29.8,118.4c0-0.1,0,0,0-0.1c-0.2-0.3-0.4-0.6-0.5-1c-0.1,0.2,0,0.5,0.2,0.6
							C29.6,118.1,29.8,118.2,29.8,118.4z"/>
						<path class="st5" d="M29.9,118.7c0.2,0.4,0.4,0.4,0.5,0.5C30.2,119.1,29.9,118.5,29.9,118.7z"/>
						<path class="st5" d="M61.2,118v-0.1c-1.2,0.8-2.9,1.5-4.3,2.3L57,120c-3.7,1.7-7,3.6-10.5,5.3c0.1,0,0.1-0.1,0.1-0.1
							c-0.2,0.1-0.3,0.3-0.5,0.3c-0.1,0,0-0.1,0.1-0.1c-0.8,0.2-2.3,1.1-2.8,1.2c-0.2,0.1-0.3,0.2-0.1,0.2c-0.6,0.3-1.2,0.6-1.8,0.9
							c-0.3,0.1-0.6,0.3-1,0.4c-0.3,0.1-0.7,0.1-1.1,0.1c-0.7,0-1.5-0.4-1.9-1.1c-0.1-0.2-0.2-0.3-0.3-0.5c-0.1-0.2-0.1-0.3-0.2-0.5
							c0-0.2-0.1-0.4-0.1-0.5c0-0.1,0-0.2-0.1-0.3h-0.2c0,0-0.2-0.1-0.3-0.1c-0.2-0.1-0.5-0.2-0.7-0.3c-0.1-0.1-0.1-0.2-0.1-0.2
							c-0.9-0.4-1.7-1.1-2.3-2c-0.2-0.5-0.3-1-0.4-1.5v-0.4c0-0.1,0-0.3,0-0.3c0-0.1,0-0.2,0-0.3c-0.1,0-0.1,0-0.2,0
							c-0.2,0-0.5-0.1-0.7-0.1c-0.5-0.1-0.9-0.3-1.3-0.6c-0.2,0,0.2,0.3-0.1,0.1c0.4,0.4,0.9,0.5,1.3,0.5c0.2,0,0.4,0,0.6,0.1
							c0.2,0,0.2,0,0.2,0.1c0,0-0.1,0-0.1,0.1c0,0,0,0,0.1,0c0.1,0,0.2-0.1,0.1,0.1c-0.1,0.1-0.1,0-0.1,0.1c0,0.2,0,0.5,0,0.7
							c0,0.3,0.1,0.7,0.2,1c0.2,0.7,0.6,1.3,1.1,1.7c0,0.2,0.3,0.4,0.6,0.7c0.3,0.2,0.7,0.4,0.9,0.6c0.3,0.1,0.7,0.2,0.8,0.2
							l0.2,0.1c0,0.1,0,0.1,0.1,0.5c0.1,0.3,0.1,0.6,0.2,0.8c0.2,0.6,0.6,1.1,1.2,1.4c0.6,0.3,1.2,0.4,1.8,0.3
							c0.3,0,0.6-0.1,0.9-0.3l0.7-0.3c1.9-0.9,3.9-1.8,5.9-2.8c1.8-1.1,4.2-1.9,6.4-3.2l0,0c0.7-0.4,1.7-1,2.7-1.4l0.7-0.5
							c2.7-1.2,5.3-2.6,8-3.9c2.7-1.4,5.3-2.9,7.9-4.3c5.9-3.3,11.3-6.1,16.6-10.1c0,0,0.1,0-0.1,0.1c1.5-1.1,3.1-1.9,4.5-3.1l0,0
							c3.5-2.8,7.6-5.4,10.7-8.4c1-0.8,2-1.7,3.1-2.7l0.8-0.7l0.1-0.1V87v-0.1l-0.1-0.3c-0.1-0.2-0.1-0.3-0.2-0.5
							c-0.3-0.6-0.8-1.2-1.2-1.7c-2-2-4.5-3.5-7-4.8l0,0c-1-0.5-2-0.9-3-1.4l-1.5-0.7l-0.7-0.3c-0.2-0.1-0.6-0.4-0.8-0.1
							c-1.7,1.4-3.4,2.8-5.1,4.2c-3.7,2.8-7.2,6-11.1,8.5c-1.2,0.7-2.6,1.6-3.9,2.7c-1.3,0.9-2.7,1.9-3.8,2.5
							c-4.9,2.6-9.3,5.5-13.9,8.5c-4.5,2.4-8.7,5.1-13.3,7.1c-1.9,1.2-4.5,1.9-6.8,3.2h0.1c-0.9,0.2-1.7,1.2-2.4,1.1l0.1-0.1
							c-0.5,0-0.8,0.9-1.2,0.8v0.1c-0.5,0.3-0.1-0.1-0.5,0.1c-0.1,0.1,0,0.2-0.3,0.3c-0.2-0.3-1.3,0.7-1.5,0.3
							c0.3-0.1-0.5,0.1,0.1-0.3c-0.2,0-1.1,0.5-0.9,0.6c0,0.2-0.3,0.5,0.3,0.4l0.1-0.2c0.2,0,0.2,0,0.3,0.1c0.7-0.3,0.9-0.2,1.4-0.3
							l0,0c0.3-0.3,0.8-0.4,1.1-0.6h0.1c0.2,0.1,0.7-0.7,0.6-0.3c1.4-0.7,3.1-1.5,4.7-2.4c0.2-0.2,1.2-0.6,0.8-0.6
							c0.5,0,1.7-0.5,2.1-0.8c0,0,0,0.1-0.1,0.1c1-0.2,0.9-0.7,1.8-0.8c0-0.3,1.5-0.7,1.8-1.2c0.1,0,0.2,0,0.2,0.1
							c1.4-0.7,3.1-1.5,4.3-2.1c0.9-0.7,2.6-1.2,3.3-2c0.8-0.3,2-0.9,3-1.5l-0.1,0.1c1.1-0.6,2.6-1.4,3.3-2.1
							c0.5,0.1,0.9-0.3,1.5-0.5c0.7-0.6,2.3-1.4,3.4-2.3c0.2,0,0.9-0.6,1.1-0.5c1.5-1.1,3.3-2.3,5.1-3.4c1.8-1.1,3.7-2.3,5.4-3.2
							l0,0c0.4-0.4,0.7-0.9,1.1-1.3c0.1,0,0.1,0,0,0.1c0.6-0.4,1.2-0.7,1.8-1.1c0,0,0,0-0.1,0.1c0.5-0.5,1.2-0.7,1.8-1.2h0.1
							l0.4-0.4c0,0.1,0.1,0.1-0.2,0.3c2.6-1.8,5.1-3.8,7.7-5.8c1.2-1,2.6-2,3.7-3.2l1.8-1.6l0.9-0.8l0.1-0.1c0,0,0,0,0.1,0h0.1
							l0.4,0.2h-0.2l1.2,0.4h-0.1c1.4,0.7,3,1.2,4.3,2c0,0-0.3,0-0.1,0.1c1.1,0.4,1.5,1.1,2.1,1c0,0,0,0.1-0.1,0.1
							c1.4,0.7,2.8,1.6,4,2.7c0.6,0.5,1.1,1.1,1.5,1.7c0.2,0.3,0.4,0.6,0.5,1c0,0.1,0.1,0.2,0,0.3l-0.3,0.3c-1.7,2-4.2,3.8-6.2,5.7
							v-0.1c-2.7,2.5-5.9,4.5-9,6.7c-1.3,0.8-2.1,1.5-3.5,2.4h-0.1c-2,1.6-4.8,2.8-7,4.5l0.1-0.2c-0.3,0.4-1.4,0.8-1.1,1l-0.5,0.2
							c-1.4,1.3-3,1.6-4.9,3l0.1-0.1c-0.5,0.3-1.1,0.7-1.5,0.9c0.1,0,0,0,0.1-0.1c-1.7,0.7-3.5,2-5.2,3l0.1-0.2
							c-0.8,0.6-2.5,1.3-3.5,2v-0.1l-0.5,0.4l-0.1-0.1C63.9,116.5,62.6,117.3,61.2,118z"/>
						<path class="st5" d="M32.2,116.4c-0.1,0-0.1,0-0.2,0.1C32,116.4,32.1,116.4,32.2,116.4z"/>
					</g>
				</g>
			</g>
		</g>
	</g>
	<g>
		<path class="st11" d="M33.3,119.7c0,0,8.2-3.6,10.4-5.5"/>
		<g>
			<g>
				<g>
					<g>
						<path class="st5" d="M43.5,113.7l-0.1-0.1L43.5,113.7z"/>
						<path class="st5" d="M43.5,113.9C43.5,113.9,43.6,113.9,43.5,113.9l-0.1-0.2C43.3,113.6,43.6,114,43.5,113.9z"/>
						<path class="st5" d="M43.5,113.9c-0.1,0,0,0.1,0,0.1C43.5,113.9,43.6,114,43.5,113.9z"/>
						<path class="st5" d="M41.8,115.6L41.8,115.6c0-0.1,0.2,0,0.3-0.1l0,0c0.2-0.1,0.3-0.4,0.5-0.6c0,0,0,0,0,0.1v-0.1
							c0,0,0,0,0,0.1c0.1,0.1,0.1-0.2,0.2-0.1c0,0,0-0.1-0.1-0.1c0.1-0.1,0.3-0.3,0.3-0.5l0.1,0.1c0-0.3,0.1-0.3,0.3-0.4
							c0-0.1-0.1-0.1-0.1-0.1c-0.1,0,0,0.2-0.1,0.1v-0.1c-0.1,0,0.1,0.2,0,0.1l-0.1-0.1c0,0.1-0.1,0.1-0.1,0.2
							c-0.1-0.1-0.1,0-0.2-0.1c0,0.1,0,0.1,0.1,0.2c-0.3,0.1-0.4,0.4-0.6,0.5c0.1,0.3-0.3,0.1-0.3,0.3l0,0c0,0.1,0,0.2-0.1,0.2v0.1
							c-0.4-0.1-0.7,0.3-1,0.4c-0.4,0.1-0.8,0.1-1,0.6c0,0,0,0,0-0.1c-0.1,0.1-0.2,0.1-0.3,0.2l0,0c-0.1,0.4-0.5,0.2-0.6,0.6
							c-0.3,0.1-0.6,0.3-0.9,0.5v-0.1c-0.2,0.2-0.6,0-0.8,0.3c-0.3,0-0.4,0.6-0.7,0.5c-0.3-0.2-0.2,0.5-0.5,0.3
							c-0.5-0.3-0.7,0.1-0.8,0.5c-0.3,0-0.4,0.5-0.9,0.3c0,0.3-0.4-0.1-0.5,0v0.1c-0.1-0.2,0,0.4-0.2,0l0,0c-0.1-0.2,0.1,0.4,0,0.2
							v0.1c0,0,0-0.1-0.1-0.1c0,0,0.1,0.1,0,0.1c-0.1-0.3,0,0.1-0.2-0.3c0,0-0.1-0.1-0.1-0.2c0,0-0.1,0,0,0.2
							c0.1,0.2,0.1,0.3,0.2,0.4v-0.1c0.1,0.1,0,0.1,0.1,0.1c0.1,0,0.1,0.2,0.2,0.2l0,0c0-0.2,0-0.1,0.1-0.1v0.1c0.1,0.1-0.1-0.3,0,0
							c0.1-0.1,0.2-0.1,0.3-0.2c0-0.1,0.1,0,0-0.2c0.1,0.2,0.2,0.2,0.2,0.2l0,0c0.2,0.2,0-0.3,0.1,0c-0.1-0.2,0.1,0,0-0.2l0.1,0.1
							c0.1,0,0.2,0,0.3,0c0-0.2,0.2,0,0.1-0.3c0.1,0,0.2,0.1,0.2,0l0,0c0.1,0,0.2-0.1,0.1-0.3c0.1,0.3,0.1,0.2,0.2,0.3
							c0-0.1,0.1-0.2,0.1-0.3c0.1,0.1,0-0.1,0.1,0.1c0.1-0.4,0.4-0.4,0.7-0.3l0,0c0-0.1-0.1-0.3-0.1-0.5l0,0c0-0.1,0.1,0.1,0.2,0.1
							c0,0,0,0,0,0.1c0-0.1,0.1,0.1,0.1-0.1l0,0v-0.1c0,0.1,0.1,0.1,0,0.1c0.4-0.1,0.6-0.6,1-0.7v0.1v-0.1c0,0,0,0,0,0.1
							c0.1,0.1,0.1-0.2,0.2-0.2c0,0,0,0.1,0.1,0.1c0-0.2,0.2,0.2,0.1-0.2c0,0,0,0.1,0.1,0.1c0.1-0.2,0.3-0.3,0.5-0.3
							c0-0.4,0.3-0.2,0.3-0.5v0.1c0.1-0.3,0.4-0.2,0.6-0.3c0.1,0,0.1-0.1,0.2-0.2v0.1c0-0.3,0.4,0.1,0.4-0.3v0.1
							c-0.1-0.2,0.1,0,0-0.2l0.1,0.1c-0.1-0.4,0.3,0.1,0.3-0.2v0.1c0-0.1,0-0.1,0.1-0.1l0,0c0.2,0.2,0.2-0.1,0.3-0.2l0.1,0.1
							c0-0.2,0.1-0.1,0.2-0.2v0.1v-0.1l0.1,0.1C41.7,115.9,41.7,115.7,41.8,115.6z"/>
					</g>
				</g>
			</g>
		</g>
	</g>
	<g>
		<path class="st11" d="M37,125.1c0,0,6.8-3,12.6-6.5"/>
		<g>
			<g>
				<g>
					<g>
						<polygon class="st5" points="49.2,117.9 49.2,117.9 49.3,118 						"/>
						<path class="st5" d="M49.3,118.2L49.3,118.2l-0.1-0.2C49.1,117.8,49.3,118.3,49.3,118.2z"/>
						<path class="st5" d="M49.2,118.2c-0.1,0,0,0.1,0,0.1C49.2,118.2,49.3,118.3,49.2,118.2z"/>
						<path class="st5" d="M47,120.1L47,120.1c0-0.1,0.3,0,0.3-0.1l0,0c0.3-0.1,0.4-0.4,0.6-0.6c0,0,0,0,0,0.1v-0.1c0,0,0,0,0,0.1
							c0.1,0.1,0.1-0.2,0.2-0.1c0,0,0-0.1-0.1-0.1c0.2-0.2,0.4-0.3,0.5-0.6l0.1,0.1c0-0.4,0.3-0.4,0.4-0.4c0-0.1-0.1-0.1-0.1-0.1
							c-0.1,0,0,0.2-0.1,0.1v-0.1c-0.1,0,0.1,0.2,0,0.1c0,0,0-0.1-0.1-0.1c-0.1,0.1-0.2,0.1-0.2,0.3c-0.1-0.1-0.1,0-0.2-0.1
							c0,0.1,0,0.1,0,0.2c-0.3,0.1-0.5,0.4-0.8,0.5c0,0.4-0.3,0.1-0.4,0.3l0,0c0,0.1-0.1,0.2-0.1,0.2v0.1c-0.5,0-0.8,0.4-1.2,0.5
							c-0.5,0.2-0.9,0.2-1.2,0.8c0,0,0,0,0-0.1c-0.1,0.1-0.3,0.1-0.3,0.2l0,0c-0.2,0.4-0.6,0.3-0.8,0.7c-0.3,0.2-0.7,0.4-1,0.6v-0.1
							c-0.2,0.3-0.7,0.1-0.9,0.3c-0.4,0-0.4,0.6-0.8,0.6c-0.3-0.2-0.3,0.5-0.6,0.3c-0.6-0.3-0.8,0.2-1,0.6c-0.4,0-0.5,0.6-1,0.4
							c-0.1,0.3-0.4-0.1-0.6,0v0.1c-0.2-0.2,0,0.4-0.2,0.1l0,0c-0.1-0.1,0.1,0.4,0,0.2v0.1c0,0,0-0.1-0.1-0.1c0,0,0.1,0.1,0,0.1
							c-0.2-0.3-0.1,0.1-0.2-0.3c0,0-0.1-0.1-0.1-0.2c0,0-0.1,0,0,0.2c0.1,0.2,0.1,0.3,0.2,0.4v-0.1c0.1,0.1,0,0.1,0.1,0.1
							c0.1,0,0.1,0.2,0.2,0.2l0,0c0-0.2,0-0.1,0.1-0.1v0.1c0.1,0.1-0.1-0.3,0-0.1c0.1-0.1,0.2-0.2,0.3-0.2c0-0.1,0.1,0,0-0.2
							c0.1,0.2,0.2,0.2,0.3,0.2l0,0c0.2,0.2,0-0.3,0.2,0c-0.1-0.2,0.1,0,0.1-0.3l0.1,0.1c0.1,0,0.3,0,0.4-0.1c0-0.2,0.2,0,0.2-0.3
							c0.1,0,0.2,0.1,0.2,0l0,0c0.1-0.1,0.2-0.1,0.2-0.3c0.1,0.2,0.2,0.2,0.2,0.2c0-0.1,0.1-0.2,0.2-0.3c0.1,0.1,0-0.1,0.1,0.1
							c0.1-0.5,0.4-0.5,0.8-0.4l0,0c0-0.1-0.1-0.3-0.1-0.5l0,0c0-0.1,0.2,0.1,0.2,0c0,0,0,0,0,0.1c0-0.1,0.2,0.1,0.1-0.1l0,0v-0.1
							c0,0.1,0.1,0.1,0,0.1c0.4-0.1,0.7-0.7,1.2-0.8v0.1v-0.1c0,0,0,0,0,0.1c0.2,0,0.2-0.2,0.3-0.2c0,0,0,0.1,0.1,0.1
							c0-0.2,0.2,0.1,0.1-0.2l0.1,0.1c0.2-0.2,0.4-0.3,0.6-0.4c0-0.4,0.4-0.2,0.4-0.5v0.1c0.1-0.3,0.5-0.2,0.7-0.4
							c0.1,0,0.1-0.1,0.2-0.2v0.1c0-0.4,0.5,0.1,0.5-0.3v0.1c-0.1-0.2,0.1,0,0-0.3l0.1,0.1c-0.1-0.4,0.3,0,0.3-0.3v0.1
							c0-0.1,0-0.1,0.1-0.1l0,0c0.3,0.2,0.2-0.2,0.4-0.2v0.1c0-0.2,0.2-0.1,0.2-0.2v0.1v-0.1l0.1,0.1
							C46.8,120.4,46.9,120.2,47,120.1z"/>
					</g>
				</g>
			</g>
		</g>
	</g>
	<g>
		<g>
			<path class="st2" d="M60,116.3c0,0-8.4,21.3-6.4,33.4c0,0,4.3-2,5.5-4.6c0,0,2.3,5.1,4.5,7.1c0,0-0.1-25,8.1-43
				C71.6,109,70.7,100.8,60,116.3z"/>
			<g>
				<g>
					<g>
						<g>
							<polygon class="st5" points="60.6,116.7 60.7,116.6 60.7,116.5 							"/>
							<path class="st5" d="M60.9,115.7L60.9,115.7l-0.1,0.6C61.1,116.3,60.8,115.9,60.9,115.7z"/>
							<path class="st5" d="M61,115.6c0.2-0.1,0.1-0.3,0.1-0.3C61.2,115.4,60.9,115.6,61,115.6z"/>
							<path class="st5" d="M69.3,115.2L69.3,115.2c0.2-0.8,0.7-1.6,0.9-2.6v0.1c0.4-1.1,0.8-2.1,1.2-3.2c0.1-0.3,0.3-0.5,0.1-0.8
								c-0.1-0.3-0.2-0.5-0.3-0.8c-0.3-0.5-0.7-0.9-1.2-1h0.1c-0.1,0-0.2,0-0.3,0c0,0,0-0.1,0.1-0.1c-0.5-0.2-1.3,0.4-1.6,0.4
								c-0.1,0.1-0.1,0.2,0,0.2c-1.5,0.9-2.9,2.4-3.9,3.9c-0.1,0-0.1,0-0.2,0c-0.8,1.4-1.8,2.7-2.9,3.9c0,0.1,0.2-0.1,0.1,0.1
								c0.4-0.4,0.4-0.9,0.8-1.2v0.1c0.2-0.2-0.1-0.2,0.2-0.4c0.1-0.1,0.1,0.1,0.1,0c0.4-0.6,0.9-1.1,1.2-1.7c0.2,0,0.5-0.6,0.8-0.7
								c0.1-0.2,0.2-0.3,0.2-0.4c0.4-0.5,0.8-0.9,1.3-1.3l0.7-0.7l0.7-0.6c0.2-0.2,0.5-0.4,0.7-0.5c0.2-0.2,0.5-0.3,0.8-0.4
								c0.5-0.2,1.1-0.2,1.4,0.1c0.5,0.1,0.8,0.8,0.8,1.4v0.1c0,0-0.1,0.1-0.1,0.2l-0.2,0.5c-0.2,0.3-0.3,0.7-0.4,1l0,0
								c-0.1,0.5-0.3,1.1-0.6,1.6v0.5c-1.4,3.1-2.3,6.5-3.2,9.9c-0.9,3.8-1.8,7.2-1.9,11.1c0,0-0.1,0,0-0.1c-0.1,1.1-0.3,2-0.4,3.2
								l0,0c0,2.6-0.6,5.3-0.5,7.9c-0.1,1.1-0.1,2.4-0.2,3.6c0,0.6,0,1.2,0,1.8c0,0.6,0,1.1,0,1.6c0,0.2-0.1,0-0.1,0l-0.2-0.2
								c-0.1-0.1-0.2-0.3-0.4-0.4c-0.2-0.3-0.5-0.5-0.7-0.9h0.1c-0.6-0.8-1.1-1.7-1.6-2.7c-0.2-0.4-0.4-0.9-0.6-1.4
								c-0.2-0.5-0.5-1.2-0.8-1.7c-0.2,0.3-0.3,0.5-0.5,0.8c-0.2,0.3-0.4,0.5-0.5,0.7c-0.9,0.9-1.9,1.7-3.1,2.6
								c-0.3,0.2-0.5,0.4-0.8,0.5l-0.4,0.3c-0.1,0-0.2,0.1-0.2,0.1v-0.2c-0.1-0.7-0.2-1.3-0.2-2c0.1-0.8,0-1.7-0.1-2.7
								c0-0.9-0.1-1.8,0.1-2.7c0.8-3.1,1-6.1,1.4-9.3c0.8-2.8,1.1-5.7,2.4-8.4c0.2-1.3,1.1-2.6,1.5-4h-0.1c0.4-0.4,0.1-1.2,0.5-1.4
								v0.1c0.3-0.2-0.2-0.7,0.1-0.8l-0.1-0.1c0.1-0.3,0.1,0,0.2-0.2c0-0.1-0.1-0.1,0-0.3c0.4,0.1,0.2-0.8,0.6-0.7
								c-0.1,0.2,0.2-0.2,0.2,0.2c0.1-0.1,0.3-0.6,0.1-0.6c-0.2-0.1-0.2-0.4-0.5-0.1l0.1,0.1c-0.2,0.1-0.1,0.1-0.2,0.1
								c-0.2,0.4-0.4,0.4-0.6,0.7l0,0c0.1,0.3-0.1,0.5-0.2,0.7h-0.1c-0.2,0,0.1,0.6-0.1,0.4c-0.2,0.9-0.6,1.9-0.9,2.9
								c0,0.2-0.3,0.7,0,0.6c-0.3,0.2-0.6,0.9-0.7,1.1c0,0,0,0,0-0.1c-0.4,0.4,0.1,0.7-0.4,1.1c0.2,0.1-0.3,0.9-0.2,1.2
								c-0.1,0-0.1,0.1-0.2,0c-0.3,0.9-0.6,1.8-0.9,2.7c0,0.7-0.5,1.5-0.4,2.3c-0.2,0.4-0.5,1.2-0.5,1.8v-0.1
								c-0.1,0.7-0.4,1.6-0.3,2.3c-0.3,0.2-0.3,0.5-0.5,0.8c0,0.5-0.2,1.5-0.2,2.4c-0.1,0.1,0,0.6-0.2,0.6c0,2.3-0.4,4.9-0.7,7.3
								l0,0c0.1,0.3,0.3,0.6,0.5,0.9l0,0c0,0.4-0.1,0.8-0.1,1.2c0,0,0,0-0.1-0.1c0.1,0.4-0.1,0.8,0.1,1.3l0,0l0.1,0.5
								c-0.1,0-0.2,0.1-0.2-0.2l0.1,0.9l0.1,0.4v0.2v0.1h0.1c0.5-0.2,1.1-0.5,1.5-0.8l0.3-0.2l0.2-0.1l0.4-0.3
								c0.3-0.2,0.6-0.4,0.8-0.6c0.5-0.4,1.1-0.9,1.6-1.4c0.1-0.1,0.2-0.3,0.4-0.4l0.2-0.2l0.1-0.1l0,0c0.1-0.1,0.2-0.3,0.2-0.4
								c0.1,0.1,0.2,0.3,0.4,0.7l0.7,1.3l-0.1-0.1l0.4,0.6h-0.1c0.4,0.8,1,1.6,1.5,2.4c0,0-0.2-0.1-0.1,0.1c0.5,0.4,1,1.5,1.2,1.3
								c0,0.1,0.1,0.2,0,0.2l0.5,0.4l0.2,0.2l0.1,0.1h0.1c0-0.6,0-1.2,0-1.8v-1.4c0-0.8,0.1-1.5,0.1-2.4c-0.3-1.5,0.2-3.3,0-4.9h0.1
								c-0.1-2.1,0.4-4.3,0.6-6.4c0.1-0.9,0.1-1.5,0.3-2.4h0.1c-0.1-1.5,0.7-3.1,0.7-4.7l0.1,0.1c-0.1-0.3,0.2-0.9-0.1-0.9l0.1-0.3
								c-0.2-1.1,0.6-1.8,0.6-3.3l0.1,0.1c0-0.3,0.1-0.7,0.2-1c0,0,0,0,0,0.1c0.5-1,0.5-2.3,0.8-3.4l0.1,0.2c0-0.6,0.4-1.5,0.5-2.3
								v0.1v-0.4h0.1C68.8,117.1,68.9,116.2,69.3,115.2z"/>
							<path class="st5" d="M59,117.2c0,0,0-0.1,0.1-0.1C59,117.1,59,117.2,59,117.2z"/>
						</g>
					</g>
				</g>
			</g>
		</g>
		<g>
			<path class="st2" d="M77.9,104.7c0,0,25.9,6.5,40.1,19.3c0,0-0.5-3.4-2.7-7.6c0,0,3.9-2.1,6.5-1.5c0,0-13.4-9.9-31.2-14.9
				C90.8,100,77.3,100.8,77.9,104.7z"/>
			<g>
				<g>
					<g>
						<g>
							<polygon class="st5" points="78.7,104.6 78.7,104.5 78.6,104.5 							"/>
							<path class="st5" d="M78.5,104L78.5,104c0,0.2,0.1,0.3,0.1,0.4C78.8,104.3,78.3,104.1,78.5,104z"/>
							<path class="st5" d="M78.6,103.9c0.1-0.1,0.1-0.2,0-0.3C78.7,103.8,78.4,103.9,78.6,103.9z"/>
							<path class="st5" d="M99,102.8L99,102.8c-0.8-0.2-1.6-0.7-2.6-0.9h0.1c-1.1-0.4-2.1-0.7-3.2-1c-0.5-0.1-1-0.3-1.6-0.4
								l-0.8-0.2c-0.1,0-0.2-0.1-0.4,0h-0.4c0,0,0,0,0.1-0.1c-0.1,0-0.2,0.1-0.3,0.1c0,0,0-0.1,0.1-0.1c-0.5-0.1-1.4,0.2-1.7,0.1
								c-0.1,0-0.2,0.1-0.1,0.2c-1.7,0.2-3.7,0.6-5.3,1.2c-0.1,0-0.1,0-0.1-0.1c-0.7,0.3-1.4,0.6-2.1,0.9c-0.7,0.3-1.4,0.6-1.8,1.1
								c0,0.1,0.2,0,0.1,0.1c0.3-0.2,0.5-0.7,0.9-0.8v0.1c0.3-0.1,0-0.2,0.3-0.3c0.1,0,0,0.1,0.1,0.1c0.6-0.3,1.3-0.5,1.8-0.9
								c0.2,0.1,0.7-0.2,1-0.1c0.2-0.1,0.3-0.1,0.4-0.3c1.2-0.2,2.5-0.5,3.7-0.7c0.6-0.1,1.2-0.2,1.8-0.3l0.9-0.1h0.5
								c0.1,0,0.3,0,0.4,0c0.5,0,1.2,0.2,1.8,0.4c0.6,0.2,1.3,0.5,2,0.7l0,0c0.5,0.1,1.1,0.3,1.6,0.5h0.5c3.1,1.4,6.2,2.5,9.3,4.1
								c3.5,1.7,6.3,3.5,9.7,5c0,0,0,0.1-0.1,0c0.9,0.5,1.7,1.1,2.7,1.6l0,0c0.3,0.2,0.7,0.4,1,0.6l0.5,0.3l0.4,0.2l0.7,0.5l0.3,0.2
								c-0.1,0-0.3,0-0.4-0.1c-0.3,0-0.6,0-0.9,0.1c-0.1,0-0.4,0.1-0.6,0.1c-0.2,0.1-0.4,0.1-0.6,0.2c-0.7,0.2-1.4,0.4-2.1,0.8
								c-0.3,0.1-0.8,0.3-1.1,0.6c0.2,0.4,0.4,0.8,0.6,1.1c0.7,1.4,1.2,3,1.7,4.5h-0.1c0.2,0.5,0.3,1.1,0.4,1.6v0.1l-0.1-0.1
								l-0.2-0.1l-0.3-0.3l-0.6-0.6l-1.3-1.2c-0.5-0.4-1-0.7-1.5-1.1s-1-0.8-1.6-1.1c-0.6-0.3-1.1-0.6-1.7-1
								c-1.1-0.7-2.4-1.2-3.5-1.9c-1.2-1.1-3.5-1.4-4.6-2.5c-2.6-1.8-5.5-2.8-8.5-3.7c-2.6-1.2-5.4-1.8-8-3.1
								c-1.3-0.2-2.6-1.1-4-1.5v0.1c-0.4-0.4-1.2,0-1.4-0.4h0.1c-0.2-0.3-0.7,0.2-0.8,0l-0.1,0.1c-0.3-0.1,0-0.1-0.2-0.2
								c-0.1,0-0.1,0.1-0.3,0c0.1-0.4-0.8-0.1-0.7-0.5c0.2,0-0.2-0.2,0.2-0.2c-0.1-0.1-0.6-0.2-0.6,0c-0.1,0.2-0.3,0.3,0,0.5
								l0.1-0.1c0.1,0.2,0.1,0.1,0.1,0.2c0.4,0.1,0.4,0.3,0.7,0.5l0,0c0.2-0.1,0.5,0.1,0.7,0.1v0.1c0.1,0.2,0.6-0.2,0.4,0.1
								c0.9,0.2,1.8,0.5,2.9,0.8c0.2-0.1,0.7,0.2,0.6,0c0.2,0.3,0.9,0.6,1.1,0.6c0,0,0,0-0.1,0c0.4,0.4,0.7-0.1,1,0.4
								c0.2-0.2,0.8,0.4,1.2,0.2c0,0.1,0,0.1,0,0.2c0.8,0.3,1.7,0.7,2.6,1c0.7,0,1.4,0.6,2.1,0.6c0.4,0.2,1.1,0.6,1.7,0.7h-0.1
								c0.7,0.3,1.5,0.6,2.1,0.6c0.1,0.3,0.4,0.4,0.7,0.6c0.5,0.1,1.4,0.5,2.1,0.7c0,0.2,0.6,0.2,0.5,0.4c1,0.3,2.1,0.7,3.3,1.2
								c1.1,0.5,2.1,1.2,3.1,1.8l0,0c0.3,0,0.7,0,1,0c0,0,0,0.1-0.1,0c0.4,0.2,0.6,0.5,1,0.7c0,0,0,0-0.1,0c0.4,0.1,0.6,0.5,1.1,0.6
								v0.1l0.3,0.1c0,0.1-0.1,0.1-0.2,0c0.8,0.4,1.5,0.9,2.3,1.4c0.7,0.5,1.5,0.9,2.4,1.4c0.7,0.5,1.5,1,2.3,1.5
								c0.8,0.5,1.3,1,2.5,2h-0.1c0.3,0.2,0.5,0.3,0.7,0.4c0,0.1,0,0.1,0,0.1c0.3,0.2,0.5,0.4,0.8,0.6c-0.1-0.3-0.1-0.6-0.2-1
								c-0.1-0.6-0.3-1.3-0.5-1.8c0,0,0.1,0.2,0.1,0c-0.1-0.1-0.1-0.2-0.1-0.3c0-0.1,0-0.1-0.1-0.2c0-0.1,0-0.3-0.1-0.4
								c0-0.2-0.1-0.4-0.3-0.5c0,0,0.1-0.1,0.1,0c-0.3-0.8-0.7-1.7-1.1-2.6l-0.5-1.1c0-0.1-0.2-0.3,0-0.3l0.4-0.2
								c0.6-0.5,1.3-0.7,2.1-1c0.4-0.1,0.8-0.2,1.1-0.3c0.4-0.1,1-0.1,1.3-0.2l0.2,0.1c0.2,0,0.4,0,0.6,0c0,0,0.1,0,0.2,0
								c0,0,0.3,0,0-0.1l-0.6-0.4c-0.4-0.3-0.8-0.6-1.2-0.9c-0.8-0.6-1.6-1.1-2.5-1.6c-0.7-0.5-1.3-0.7-2-1.2v-0.1
								c-1.4-0.5-2.6-1.8-4.1-2.3h0.1c-0.3,0-0.8-0.5-0.8-0.2l-0.2-0.2c-1.1-0.1-1.6-1-2.9-1.4h0.1c-0.3-0.1-0.7-0.2-0.9-0.4
								c0,0,0,0,0.1,0c-0.8-0.7-2-0.9-3.1-1.4l0.2-0.1c-0.5-0.1-1.4-0.6-2.1-0.8h0.1l-0.4-0.1v-0.1C100.8,103.3,99.9,103.1,99,102.8
								z"/>
							<path class="st5" d="M79,105.5c0,0-0.1,0-0.1-0.1C78.9,105.5,79,105.5,79,105.5z"/>
						</g>
					</g>
				</g>
			</g>
		</g>
		<g>
			<path class="st2" d="M65.9,97.9c0,0-16.9-11.5-32.8-0.9c0,0-4.2,6.2-2.8,13.9c0,0,9.9-16.2,39.6-3.4
				C70,107.6,69.5,99.9,65.9,97.9z"/>
			<g>
				<g>
					<g>
						<g>
							<path class="st5" d="M66.3,98.8C66.3,98.8,66.3,98.7,66.3,98.8c-0.2-0.1-0.3-0.1-0.5-0.1C65.8,99,66.3,98.6,66.3,98.8z"/>
							<path class="st5" d="M66.4,98.9c0.1,0.2,0.2,0.1,0.3,0.1C66.5,99.1,66.4,98.8,66.4,98.9z"/>
							<path class="st5" d="M59.4,104.1L59.4,104.1c0.7,0.1,1.5,0.6,2.5,0.7h-0.1c1,0.3,2,0.6,3.1,0.8c1,0.3,1.9,0.6,3,1h-0.1
								c0.1,0,0.2,0,0.3,0c0,0,0,0-0.1,0c0.2,0.2,0.5,0.3,0.8,0.3c0.3,0.1,0.5,0.1,0.6,0.2c0.1,0,0.1-0.1,0-0.2
								c0.4,0.3,0.2-0.3,0.2-0.5c0-0.2-0.1-0.8-0.2-1.1c-0.2-0.8-0.4-1.7-0.7-2.5c0-0.1,0-0.1,0.1-0.1c-0.7-1.2-1.2-2.7-2-3.8
								c-0.1,0,0,0.1-0.1,0.1c0.2,0.4,0.7,0.5,0.7,0.9h-0.1c0.1,0.3,0.2,0,0.3,0.3c0,0.1-0.1,0-0.1,0.1c0.3,0.5,0.5,1.2,0.9,1.7
								c-0.1,0.2,0.2,0.7,0.1,0.9c0.1,0.1,0.1,0.3,0.3,0.3c0.1,0.6,0.2,1.1,0.4,1.7c0.1,0.5,0.2,0.9,0.2,1.4v0.2v0.1h-0.1l-0.3-0.1
								l-1.6-0.6c-0.6-0.1-1.1-0.3-1.7-0.6c-0.3-0.1-0.6-0.3-0.9-0.4s-0.6-0.2-1-0.3l0,0c-0.4,0-1.1-0.2-1.5-0.4h-0.5
								c-0.7-0.3-1.5-0.6-2.3-0.8c-0.8-0.2-1.5-0.3-2.4-0.5c-1.5-0.4-3.2-0.5-4.8-0.7c-3.6-0.3-7.1-0.5-10.4,0.8c0,0,0,0,0.1-0.1
								c-1,0.3-1.9,0.5-2.9,0.9l0,0c-2.1,1.1-4.6,2.1-6.1,4c-0.5,0.4-0.9,0.8-1.3,1.2c-0.4,0.4-0.7,0.8-1.1,1.3l-0.1,0.1v-0.1v-0.3
								l-0.1-0.5c-0.1-0.3-0.1-0.7-0.1-1.2c-0.1-0.8-0.1-1.7,0-2.6h0.1c0.1-2.4,1-4.5,1.9-6.8c0.3-0.5,0.5-1.1,0.8-1.6l0.2-0.4
								c0-0.1,0.2-0.1,0.3-0.2l0.8-0.5c0.5-0.3,1-0.7,1.5-1c0.5-0.3,1.1-0.5,1.7-0.7c1.4-0.4,3.2-1.5,4.7-1.5c3-0.1,5.7-0.5,8.7-0.5
								c2.7,0.4,5.4,0.7,7.9,1.8c0.6,0.1,1.2,0.4,1.8,0.7c0.6,0.3,1.1,0.7,1.8,1v-0.1c0.3,0.4,1.1,0.2,1.2,0.6h-0.1
								c0.1,0.3,0.7-0.1,0.8,0.2l0.1-0.1c0.3,0.1,0,0.1,0.2,0.3c0.1,0,0.1-0.1,0.2,0c-0.1,0.3,0.7,0.3,0.5,0.7
								c-0.1-0.1,0.1,0.3-0.2,0.1c0.1,0.1,0.5,0.3,0.6,0.2c0.1-0.1,0.4-0.1,0.2-0.4L66,97.8c0-0.2,0-0.1,0-0.2
								c-0.3-0.2-0.3-0.4-0.5-0.7l0,0c-0.3,0-0.5-0.2-0.6-0.3v-0.1c0-0.2-0.6,0-0.3-0.1c-0.8-0.4-1.7-0.8-2.6-1.2
								c-0.2,0-0.7-0.3-0.6,0c-0.1-0.3-0.8-0.6-1-0.7c0,0,0,0,0.1,0c-0.4-0.5-0.7,0-1-0.5c-0.2,0.2-0.8-0.4-1.1-0.2
								c0-0.1,0-0.1,0-0.2c-0.8-0.3-1.7-0.6-2.5-0.8c-0.7,0.1-1.5-0.4-2.1-0.2c-0.4-0.2-1.1-0.4-1.8-0.3H52c-0.4,0-0.7-0.1-1.1-0.1
								c-0.4,0-0.7,0-1,0.1c-0.2-0.3-0.5-0.3-0.8-0.4c-0.2,0.1-0.6,0.1-1,0.1s-0.8,0.1-1.2,0.2c-0.1-0.1-0.6,0.1-0.6-0.1
								c-1,0.2-2.1,0.5-3.3,0.6c-0.6,0.1-1.1,0.2-1.7,0.3c-0.6,0.1-1.1,0.2-1.7,0.3l0,0c-0.2,0.2-0.5,0.5-0.7,0.7c0,0,0,0,0-0.1
								c-0.3,0.2-0.7,0.1-1.1,0.3c0,0,0,0,0-0.1c-0.3,0.2-0.8,0.2-1.1,0.5l0,0l-0.2,0.2c0-0.1-0.1-0.2,0.1-0.2
								c-0.8,0.3-1.5,0.8-2.3,1.2l-1.2,0.7l-0.2,0.4l-0.2,0.3l-0.3,0.6c-0.7,1.6-1.3,3.3-1.7,5v-0.1c0,0.2,0,0.4,0,0.7
								c0,0,0,0,0-0.1c-0.3,0.8-0.3,1.7-0.3,2.6c0,0-0.1-0.1-0.1,0c0.1,0.6-0.3,1,0.1,1.3H30c0,0.6,0.1,1.3,0.2,1.9
								c0,0.4,0.1,0.9,0.2,1.3l0.1,0.7v0.3c0,0.1,0,0.1,0,0.2l0,0l0.6-0.9l0.6-0.8l0.2-0.4l0.2-0.2c0.1-0.1,0.2-0.3,0.3-0.4
								c0.2-0.3,0.5-0.5,0.8-0.8c0.5-0.5,1.2-0.9,1.7-1.5v0.1c1.4-1.2,3.5-2,5.3-2.7c0.8-0.2,1.3-0.5,2.1-0.7v0.1
								c0.6-0.3,1.4-0.4,2.1-0.5c0.7,0,1.5,0,2.3-0.3l-0.1,0.1c0.2-0.2,0.9,0,0.8-0.3l0.3,0.1c1-0.4,1.8,0.2,3.1-0.1l-0.1,0.1
								c0.3,0,0.7-0.1,0.9,0c0,0,0,0-0.1,0c1,0.4,2.1,0.2,3.2,0.3l-0.1,0.1c0.5-0.1,1.4,0.2,2.1,0.3l-0.1,0.1h0.3v0.1
								C57.7,103.9,58.5,103.9,59.4,104.1z"/>
							<path class="st5" d="M65.2,96.8C65.3,96.8,65.3,96.9,65.2,96.8C65.3,96.9,65.3,96.8,65.2,96.8z"/>
						</g>
					</g>
				</g>
			</g>
		</g>
		<g>
			<path class="st0" d="M30.4,110.9c0,0,2.3,12.3,14.4,10.7c12.2-1.4,23.6-11.1,25.3-14.2c0,0-3.7-1.7-7.6-2.8
				c0,0-22.7,16.8-26.6,1.3C35.7,106.1,30,109.5,30.4,110.9z"/>
			<g>
				<g>
					<g>
						<g>
							<path class="st5" d="M30.9,110.4L30.9,110.4c-0.1,0.1,0,0.3,0.1,0.3C31.2,110.8,30.8,110.5,30.9,110.4z"/>
							<path class="st5" d="M31,110.4c0.1-0.1,0.1-0.2,0.1-0.3C31.1,110.2,30.9,110.3,31,110.4z"/>
							<path class="st5" d="M45.6,112.4v-0.1c-0.7,0.3-1.6,0.2-2.4,0.2h0.1c-1.9-0.1-3.9-0.6-5.4-2H38c-0.1,0-0.2-0.1-0.3-0.2h0.1
								c-0.1-0.2-0.3-0.4-0.5-0.6c-0.2-0.2-0.4-0.4-0.4-0.6c-0.1-0.1-0.2-0.1-0.2,0c-0.2-0.3-0.4-0.7-0.6-1.1
								c-0.1-0.2-0.2-0.4-0.2-0.6l-0.2-0.5l-0.1-0.3c-0.1,0-0.2,0.1-0.3,0.2c-0.3,0.2-0.5,0.4-0.8,0.6c-0.1,0-0.1,0-0.1-0.1
								c-0.9,1-2.3,1.7-3.1,2.8c0,0.1,0.1,0,0.1,0.1c0.3-0.2,0.4-0.7,0.8-0.8v0.1c0.2-0.1-0.1-0.2,0.2-0.3c0.1,0,0,0.1,0.1,0.1
								c0.4-0.4,1-0.7,1.4-1.2c0.2,0.1,0.5-0.4,0.8-0.4c0.1-0.1,0.2-0.2,0.2-0.3l0.3-0.2l0.1-0.1l0.1-0.1v0.1l0.1,0.4
								c0.1,0.3,0.2,0.5,0.3,0.8c0.5,1.1,1.2,2,2.1,2.9c0.5,0.3,1,0.6,1.5,0.9c0.3,0.1,0.6,0.3,0.9,0.4c0.3,0.1,0.6,0.2,0.9,0.3l0,0
								c0.4,0,1,0.1,1.5,0.1l0.4-0.1c1.5,0.2,3.1-0.1,4.5-0.4c1.5-0.4,3-0.9,4.3-1.4c3.2-1.3,6-2.6,8.6-4.8c0,0,0,0,0,0.1
								c0.3-0.2,0.5-0.4,0.8-0.6c0.2-0.1,0.4-0.3,0.7-0.4l0.2,0.1l0.4,0.1l0,0c2.3,0.4,4.4,1.5,6.4,2.1c0.1,0.1,0.2,0.1,0.4,0.2
								c-0.1,0.2-0.3,0.4-0.4,0.7c-0.2,0.2-0.4,0.5-0.6,0.7c-0.4,0.5-0.9,0.9-1.3,1.4c-0.9,0.9-2,1.8-3,2.7V113
								c-1.7,1.4-3.7,2.4-5.6,3.6c-2,1-4,2.6-6.2,3.2c-0.7,0.1-1.4,0.5-2.3,0.8c-0.7,0.3-1.5,0.6-2.3,0.6c-2.8,0.1-5.3,0.8-8.2,0.5
								c-0.3-0.1-0.6-0.2-0.9-0.3l-0.9-0.3c-0.6-0.2-1.2-0.5-1.7-0.8c-0.6-0.3-1-0.7-1.5-1.1c-0.4-0.5-0.9-0.9-1.2-1.4
								c-0.9-0.7-1.2-2.1-1.8-3.3l-0.1,0.1c0-0.5-0.7-0.8-0.5-1.2l0,0c0.1-0.3-0.6-0.4-0.4-0.6h-0.1c-0.1-0.3,0.1-0.1,0-0.3
								c0-0.1-0.2,0-0.2-0.2c0.3-0.1-0.3-0.7,0.1-0.8c0,0.2,0.1-0.3,0.3,0c0-0.1-0.1-0.6-0.3-0.5c-0.2,0-0.4-0.2-0.5,0.2h0.1
								c-0.1,0.1,0,0.1-0.1,0.1c0.1,0.4-0.1,0.5-0.1,0.8l0,0c0.2,0.1,0.2,0.4,0.2,0.6l-0.1,0.1c-0.1,0.1,0.4,0.3,0.1,0.3
								c0.4,0.7,0.7,1.6,1.2,2.5c0.1,0.1,0.3,0.6,0.4,0.3c-0.1,0.3,0.3,0.9,0.4,1.1c0,0,0,0-0.1,0c0,0.6,0.6,0.3,0.6,0.9
								c0.2-0.1,0.5,0.7,0.9,0.7c0,0.1,0,0.1-0.1,0.1c0.6,0.6,1.3,1.3,1.8,1.7c0.7,0.1,1.2,0.9,1.9,0.8c0.2,0.1,0.4,0.3,0.7,0.4
								c0.3,0.1,0.6,0.3,0.9,0.3h-0.1c0.7,0.1,1.5,0.4,2,0.2c0.2,0.3,0.5,0.3,0.8,0.4c0.5-0.1,1.4-0.1,2-0.2
								c0.1,0.1,0.6-0.1,0.6,0.1c1.8-0.6,4.2-0.9,6.2-1.3l0,0c0.2-0.2,0.4-0.5,0.6-0.7c0,0,0,0,0,0.1c0.3-0.2,0.7-0.1,1-0.3
								c0,0,0,0,0,0.1c0.3-0.2,0.7-0.1,1-0.4l0,0c0.1-0.1,0.1-0.1,0.2-0.2c0,0.1,0,0.2-0.1,0.2c3.1-1.1,5.7-3.1,8.5-4.8l-0.1,0.1
								l0.5-0.4v0.1c0.7-0.3,1.3-1,1.9-1.4c0,0,0,0.1,0.1,0.1c0.3-0.5,0.9-0.4,0.9-0.9c0,0,0.1,0,0.1,0.1c1.2-1.1,2.5-2.3,3.6-3.5
								c0.1-0.3,0.3-0.5,0.4-0.8c0.2-0.3,0.4-0.6,0.6-1c-1-0.5-1.7-0.8-2.6-1v-0.1c-1.7-0.5-3.5-1.3-5.4-1.7h-0.1
								c-0.7,0.5-1,0.8-1.7,1.2l-0.1-0.1c-0.9,1-2.5,1.2-3.6,2.3v-0.1c-0.1,0.3-0.7,0.3-0.5,0.6h-0.3c-0.6,0.8-1.6,0.6-2.6,1.3v-0.1
								c-0.2,0.2-0.6,0.4-0.8,0.4c0,0,0,0,0.1-0.1c-1,0.1-1.8,0.8-2.9,1.1l0.1-0.2c-0.4,0.3-1.3,0.4-1.9,0.7v-0.1
								c-0.1,0.1-0.2,0.1-0.3,0.2v-0.1C47.2,112.1,46.4,112.3,45.6,112.4z"/>
						</g>
					</g>
				</g>
			</g>
		</g>
		<g>
			<path class="st2" d="M72.9,95.1c0,0,3.4-23.3,19.5-28.9c0,0,8.4,0.4,13.6,5.7c0,0-11.7-1.7-19.7,11.7
				c-8.1,13.4-8.4,21.8-8.4,21.1C77.9,103.9,78.9,99.2,72.9,95.1z"/>
			<g>
				<g>
					<g>
						<g>
							<polygon class="st5" points="72.6,95.6 72.6,95.7 72.7,95.7 							"/>
							<path class="st5" d="M73.4,95.9L73.4,95.9l-0.6-0.1C72.9,96.1,73.3,95.7,73.4,95.9z"/>
							<path class="st5" d="M73.5,96c0.1,0.2,0.3,0.1,0.3,0.1C73.8,96.2,73.5,95.9,73.5,96z"/>
							<path class="st5" d="M81.3,93.2L81.3,93.2c-0.2,0.8-0.8,1.6-1,2.5v-0.1c-0.8,2.1-1.3,4.3-1.7,6.5V102c0,0.1,0.1,0.2,0,0.4
								c0,0,0,0,0-0.1c-0.3,0.4-0.2,1.4-0.3,1.7c0,0.1,0.1,0.2,0.1,0.1v0.3v0.1l0,0l0,0c0,0,0,0,0,0.1c0,0,0,0-0.1,0.1
								c0,0-0.2,0-0.3,0c-0.1-0.1,0-0.1,0-0.1l0,0l0,0l0,0v-0.1v-0.7c0-0.4,0-0.9-0.1-1.3c-0.1-0.9-0.4-1.7-0.8-2.6
								c0-0.1,0-0.1,0.1-0.1c-0.9-1.2-1.8-2.5-3-3.6c-0.1,0,0.1,0.2-0.1,0.1c0.3,0.4,0.8,0.4,1,0.9H75c0.2,0.3,0.2-0.1,0.3,0.2
								c0,0.1-0.1,0-0.1,0.1c0.5,0.5,0.8,1.1,1.3,1.5c-0.1,0.2,0.4,0.6,0.3,0.9c0.1,0.1,0.2,0.3,0.3,0.3c0.4,1.1,0.6,2.4,0.5,3.6
								v0.5v0.1v0.1l0,0l0,0c0,0,0,0.1,0.2,0.2c0.1,0.1,0.4,0.1,0.5,0.1c0.1,0,0.1-0.1,0.1-0.1l0,0c0,0,0-0.1,0.1-0.1v-0.1l0,0v-0.1
								v-0.2l0.1-0.9c0.1-0.6,0.2-1.2,0.4-1.8c0-1.2,0.7-2.6,1.1-3.9l0,0c0.1-0.5,0.3-1.1,0.5-1.6v-0.5c1.4-3.1,2.8-6.2,4.5-9.1
								c1.9-3.4,4-6,6.4-8.9c0,0,0.1,0,0,0.1c0.8-0.7,1.5-1.3,2.4-1.9l0,0c1.9-1.6,4.6-2.6,6.9-3.4c1.6-0.3,3.1-0.5,5.3-0.4h0.1
								c0,0,0.1,0,0,0l-0.2-0.2l-0.5-0.4c-0.3-0.3-0.6-0.5-0.9-0.8c-0.6-0.5-1.2-0.8-1.9-1.2v-0.1c-2.3-1.1-4.5-2.4-7.1-2.8
								c-0.6-0.2-1.3-0.3-1.9-0.3c-0.3,0-0.7-0.1-1-0.1h-0.3l-0.2,0.1l-0.5,0.2c-1.2,0.5-2.4,1.2-3.6,1.8c-1.6,0.6-2.9,2.5-4.1,3.3
								c-2.7,1.8-4.2,4.6-5.4,7.5c-1.5,2.5-2.3,5.3-3.5,7.8c-0.2,1.3-1.1,2.6-1.4,4h0.1c-0.4,0.4,0,1.2-0.4,1.4V92
								c-0.2,0.2,0.3,0.7,0,0.8l0.1,0.1c0,0.3-0.1,0-0.2,0.3c0,0.1,0.1,0.1,0.1,0.3c-0.4,0-0.1,0.8-0.5,0.8c0-0.2-0.2,0.3-0.2-0.2
								c-0.1,0.1-0.1,0.7,0,0.7c0.2,0.1,0.3,0.3,0.5,0L73,94.8c0.1-0.1,0.1-0.1,0.2-0.1c0.1-0.4,0.3-0.5,0.4-0.7l0,0
								c-0.1-0.2,0-0.5,0.1-0.7l0.1-0.1c0.2-0.1-0.2-0.6,0-0.4c0.1-0.9,0.4-1.9,0.6-2.9c-0.1-0.2,0.2-0.7,0-0.6
								c0.3-0.2,0.5-0.9,0.6-1.1c0,0,0,0,0,0.1c0.4-0.4-0.1-0.7,0.4-1.1c-0.2-0.2,0.4-0.8,0.2-1.2c0.1,0,0.1,0,0.2,0
								c0.3-0.8,0.8-1.7,1.1-2.5c0-0.7,0.7-1.4,0.7-2c0.3-0.4,0.7-1,0.9-1.6v0.1c0.3-0.7,0.8-1.4,0.9-2c0.4,0,0.5-0.3,0.7-0.5
								c0.1-0.5,0.7-1.3,1.1-1.9c0.2,0,0.3-0.5,0.5-0.4c0.9-1.9,3-3.8,4.9-4.9l0,0c0.2-0.3,0.3-0.7,0.5-0.9c0,0,0,0,0,0.1
								c0.3-0.3,0.7-0.3,1.1-0.6c0,0,0,0,0,0.1c0.3-0.3,0.8-0.3,1.1-0.6l0,0l0.2-0.2c0,0.1,0.1,0.2-0.1,0.2c0.8-0.4,1.5-0.8,2.5-1.1
								l0.5-0.2c0,0,0.3,0,0.5,0c0.4,0,0.9,0.1,1.3,0.1c1.8,0.2,3.6,0.6,5.3,1.3h-0.1l0.7,0.2h-0.1c0.8,0.4,1.7,0.7,2.5,1.2
								c0,0-0.2,0-0.1,0.1c0.6,0.2,0.7,0.7,1.2,0.6c0,0,0,0.1-0.1,0.1l0.9,0.6l0.3,0.3l0.2,0.1c0,0,0.1,0.1,0,0.1h-0.1
								c-0.2,0-0.4,0-0.7,0h-0.2h-0.1h-0.2h-0.6c-1.5,0.4-3.3,0.5-4.7,1.3v-0.1c-1.8,0.9-3.9,1.7-5.6,3.1c-0.7,0.5-1.1,1-1.8,1.6H91
								c-0.4,0.6-1,1.1-1.6,1.7c-0.5,0.6-1.1,1.2-1.4,1.9v-0.1c0,0.3-0.6,0.7-0.3,0.8l-0.2,0.2c-0.2,1.1-1.2,1.5-1.6,2.8v-0.1
								c-0.1,0.3-0.3,0.7-0.5,0.9c0,0,0,0,0-0.1c-0.8,0.8-1.1,2-1.6,3.1l-0.1-0.2c-0.1,0.6-0.7,1.4-0.9,2.1v-0.1l-0.1,0.4h-0.1
								C81.9,91.5,81.6,92.4,81.3,93.2z"/>
						</g>
					</g>
				</g>
			</g>
		</g>
		<g>
			<path class="st0" d="M77.9,104.7c0,0,13-3.4,21-9.3c8-5.9,16-12.8,7.2-23.4c0,0-2.9-1.2-7.4,1c0,0,5.3,6.4,1.5,10.2
				s-10.3,9.3-20.1,13C80.2,96.3,79.1,99.1,77.9,104.7z"/>
			<g>
				<g>
					<g>
						<g>
							<polygon class="st5" points="78.7,104.8 78.7,104.8 78.6,104.6 							"/>
							<path class="st5" d="M78.6,104C78.6,104,78.5,104,78.6,104l0.1,0.5C78.9,104.3,78.5,104.1,78.6,104z"/>
							<path class="st5" d="M78.6,103.8c0.1-0.2,0-0.3-0.1-0.3C78.7,103.6,78.5,103.8,78.6,103.8z"/>
							<path class="st5" d="M92,90.1V90c-0.5,0.6-1.4,0.9-2.1,1.5v-0.1c-1.8,1.1-3.6,2.3-5.5,3.3v-0.1c-0.1,0.1-0.1,0.2-0.3,0.2
								v-0.1c-0.5,0-1.2,0.6-1.5,0.6c-0.1,0.1-0.1,0.2,0,0.2c-0.4,0.2-0.8,0.4-1.2,0.5l-0.6,0.3l-0.3,0.1c-0.1,0-0.1,0-0.2,0.1
								L79.9,97l-0.2,0.6c-0.1,0.4-0.2,0.8-0.3,1.2c0,0.1-0.1,0.1-0.2,0c-0.1,1.5-0.6,3-0.9,4.4c0.1,0.1,0.1-0.1,0.2,0
								c0.2-0.4,0-0.9,0.2-1.3l0.1,0.1c0.1-0.3-0.2-0.1,0-0.4c0.1-0.1,0.1,0.1,0.1,0c0.1-0.7,0.4-1.3,0.4-1.9
								c0.2-0.1,0.2-0.7,0.4-0.9c0-0.2,0.1-0.3,0-0.4c0.2-0.5,0.4-1.1,0.6-1.6c0-0.1,0-0.1,0.1-0.1l0.3-0.1l0.8-0.3
								c1.1-0.5,2.3-1,3.4-1.5c0.9-0.8,2.3-1.1,3.4-1.8l0,0c0.3-0.3,0.9-0.6,1.3-0.9l0.3-0.3c2.9-1.4,5.4-3.6,7.9-5.6
								c0.7-0.6,1.3-1.2,2-1.8c0.6-0.5,1.3-1.3,1.7-2.1c0.3-0.9,0.4-1.8,0.3-2.8c-0.2-0.9-0.5-1.7-0.9-2.6c0,0,0,0,0.1,0
								c-0.5-0.9-0.8-1.8-1.4-2.7l0,0l-0.2-0.3l-0.2-0.2l-0.3-0.3c0.2-0.1,0.5-0.3,1-0.5s0.9-0.3,1.4-0.4c0.9-0.2,1.9-0.3,2.9-0.4
								c0.3,0,0.7,0.1,1,0.1c0.2,0,0.4,0.1,0.5,0.1c0.1,0.1,0.2,0.2,0.3,0.4c0.4,0.6,0.9,1.2,1.3,1.8c0.8,1.3,1.5,2.7,1.9,4.1h-0.1
								c0.1,0.3,0.2,0.6,0.2,0.8c0,0.3,0.1,0.6,0.1,0.9s0,0.6,0,0.9l-0.1,0.8c-0.1,1.1-0.6,2.3-1,3.3c-1.1,2.1-2.6,4.4-4.5,5.9
								c-1.3,0.8-2.5,2.6-3.8,3.2c-2.7,1.4-4.8,3.2-7.4,4.8c-2.6,1.1-4.8,2.6-7.5,3.2c-1.1,0.6-2.6,0.6-3.9,1.1l0.1,0.1
								c-0.5-0.1-0.9,0.6-1.3,0.4l0,0c-0.3-0.1-0.5,0.6-0.7,0.4v0.1c-0.3,0.1-0.1-0.1-0.3,0c-0.1,0,0,0.2-0.2,0.2
								c-0.1-0.3-0.7,0.3-0.8-0.1c0.2,0-0.3-0.1,0-0.3c-0.1,0-0.6,0.1-0.5,0.3c0,0.2-0.2,0.4,0.2,0.4v-0.1c0.1,0.1,0.1,0,0.2,0.1
								c0.4-0.1,0.5,0.1,0.8,0.1l0,0c0.2-0.2,0.5-0.2,0.6-0.2l0.1,0.1c0.1,0.1,0.4-0.4,0.3-0.1c0.8-0.3,1.7-0.6,2.7-0.9
								c0.1-0.1,0.7-0.2,0.4-0.3c0.3,0.1,1,0,1.2-0.1c0,0,0,0,0,0.1c0.6,0.1,0.5-0.5,1-0.3c0-0.3,0.8-0.2,1-0.6
								c0.1,0,0.1,0.1,0.1,0.1c0.8-0.3,1.7-0.6,2.5-0.9c0.5-0.5,1.4-0.5,1.8-1c0.4-0.1,1.1-0.3,1.6-0.7v0.1c0.6-0.3,1.4-0.7,1.7-1.1
								c0.3,0.2,0.6,0,0.9-0.1c0.4-0.3,1.2-0.8,1.7-1.3c0.2,0.1,0.5-0.4,0.6-0.2c1.5-1.4,3.6-2.9,5.4-4.1l0,0
								c0.1-0.3,0.2-0.6,0.4-0.9c0,0,0.1,0,0,0.1c0.3-0.3,0.7-0.4,0.9-0.7c0,0,0,0,0,0.1c0.2-0.3,0.7-0.4,0.9-0.8h0.1l0.1-0.2
								c0,0,0.1,0.1,0,0.2c1.2-1.2,2.4-2.6,3.2-4.2c0.8-1.5,1.4-3.4,1.5-5.1v0.1c0-0.2,0-0.5-0.1-0.7c0,0,0.1,0,0.1,0.1
								c0-0.4,0-0.9-0.1-1.3s-0.2-0.8-0.3-1.3c0,0,0.1,0.1,0.1,0c-0.2-0.3-0.2-0.5-0.2-0.8c0-0.2-0.1-0.4-0.3-0.5c0,0,0.1-0.1,0.1,0
								c-0.2-0.4-0.4-0.8-0.6-1.2l-0.7-1.1c-0.4-0.8-1-1.5-1.4-2.3c-0.1-0.1-0.3-0.2-0.4-0.4l-0.1-0.1l-0.2-0.1
								c-0.1,0-0.2-0.1-0.3-0.1c-0.4-0.1-0.8-0.1-1.2-0.2c-0.8-0.1-1.6,0-2.4,0.2v-0.1c-0.6,0.2-1.2,0.4-1.8,0.5L99,72.7
								c-0.3,0.1-0.6,0.3-0.9,0.4c0.2,0.3,0.5,0.7,0.7,1s0.4,0.6,0.6,0.9c0.4,0.7,0.7,1.2,1,1.9h-0.1c0.4,0.6,0.5,1.3,0.6,2.1
								c0,0.7,0,1.4-0.1,2.1l-0.1-0.1c0.1,0.1,0,0.3-0.1,0.5c-0.1,0.2-0.1,0.3,0,0.3l-0.2,0.2c0,0.1,0,0.3-0.1,0.4
								c-0.1,0.1-0.1,0.2-0.2,0.3c-0.1,0.2-0.3,0.4-0.5,0.5c-0.4,0.3-0.8,0.6-1.1,1.1v-0.1c-0.2,0.3-0.4,0.5-0.7,0.7c0,0,0,0,0-0.1
								c-0.9,0.5-1.6,1.4-2.5,2.1V87c-0.3,0.4-1.1,0.9-1.6,1.4v-0.1l-0.2,0.3l-0.1-0.1C93.3,88.9,92.7,89.6,92,90.1z"/>
						</g>
					</g>
				</g>
			</g>
		</g>
		<g>
			<path class="st0" d="M65.9,97.9c0,0,2.1,8.9,5.7,11.1c0,0,4.9-1.5,6.3-4.3c0,0,2.6-3.6-4.9-9.6C72.9,95.1,69.1,94,65.9,97.9z"/>
			<g>
				<g>
					<g>
						<g>
							<polygon class="st5" points="66.4,98.4 66.5,98.4 66.4,98.3 							"/>
							<path class="st5" d="M66.5,98C66.4,97.9,66.4,97.9,66.5,98v0.3C66.7,98.4,66.3,97.9,66.5,98z"/>
							<path class="st5" d="M66.5,97.9c0.1,0,0-0.1,0-0.2C66.6,97.9,66.4,97.8,66.5,97.9z"/>
							<path class="st5" d="M73.4,95.3L73.4,95.3c-0.1-0.1-0.2-0.2-0.4-0.3c-0.2-0.1-0.4-0.1-0.5-0.1l0,0c-0.8-0.1-1.6,0.1-2.5,0.4
								c0,0,0,0,0-0.1L70,95.3v-0.1c-0.2-0.1-0.5,0.2-0.6,0.2c0,0,0,0.1,0,0.2c-0.6,0.3-1.1,0.6-1.6,1.1c0,0-0.1,0-0.1-0.1
								c-0.3,0.6-0.7,0.8-1.1,1.2c0,0.1,0.1,0,0.1,0.1c0.2-0.1,0.1-0.4,0.3-0.4v0.1c0.1,0-0.1-0.2,0-0.2s0.1,0.1,0.1,0.1
								c0.2-0.2,0.4-0.3,0.5-0.6c0.1,0.1,0.2-0.2,0.4-0.1c0-0.1,0.1-0.1,0-0.2c0.7-0.4,1.5-0.9,2.4-1.1c0.3-0.4,0.9-0.1,1.4-0.2l0,0
								c0.2-0.1,0.4-0.1,0.6,0l0.2-0.1c0.2,0.1,0.3,0.1,0.3,0.2c0.1,0.1,0.2,0.2,0.3,0.3c0.2,0.2,0.4,0.4,0.7,0.6
								c0.4,0.4,0.9,0.8,1.3,1.3c0.9,1.1,1.4,2.1,2.4,3.2c0,0,0,0-0.1,0c0.2,0.3,0.2,0.7,0.4,1l0,0c0.2,0.4,0.3,0.8,0.3,1.3
								c0,0.4-0.1,0.9-0.1,1.3c0,0.1-0.1,0.1-0.1,0.2l0,0l0,0c-0.5,0.9-1.3,1.7-2.1,2.4v-0.1c-0.7,0.6-1.6,0.7-2.5,1.2
								c-0.5,0.1-0.9,0.4-1.3,0.6c-0.1,0.1-0.2,0.1-0.3,0.2c-0.1,0-0.2-0.1-0.3-0.2c-0.2-0.1-0.4-0.3-0.5-0.5
								c-0.1-0.3-0.4-0.5-0.7-0.7c-0.3-0.2-0.6-0.4-0.6-0.7c-0.2-1.2-1-2-1.7-3c-0.3-1-1-1.8-1-3c-0.4-0.4,0-1-0.3-1.5h-0.1
								c0.2-0.2-0.4-0.3-0.1-0.5l0,0c0.1-0.1-0.5-0.1-0.3-0.2h-0.1c-0.1-0.1,0.1,0,0.1-0.1c0,0-0.2,0-0.1-0.1
								c0.3-0.1-0.2-0.3,0.2-0.4c0,0.1,0.1-0.1,0.2,0c0-0.1,0-0.2-0.2-0.2c-0.2,0-0.4,0-0.5,0.1h0.1c-0.1,0.1-0.1,0-0.1,0.1
								c0,0.2-0.2,0.2-0.2,0.4l0,0c0.2,0,0.1,0.2,0.1,0.2h-0.1c-0.1,0.1,0.3,0.1,0.1,0.1c0.2,0.3,0.3,0.7,0.4,1
								c0.1,0,0.1,0.3,0.2,0.1c-0.2,0.2-0.2,0.4-0.1,0.5l0,0c-0.2,0.3,0.3,0.1,0,0.4c0.2-0.1,0,0.3,0.3,0.4l-0.1,0.1
								c0.1,0.3,0.1,0.7,0.2,1c0.3,0.2,0.1,0.6,0.5,0.7c0,0.2,0,0.5,0.2,0.7l0,0c0.1,0.2,0.3,0.6,0.5,0.6c-0.2,0.2-0.1,0.3-0.2,0.4
								c0.2,0.1,0.3,0.5,0.6,0.7c-0.1,0.1,0.2,0.2,0,0.3c0.7,0.5,1.1,1.4,1.5,2.3l0,0c0.2,0,0.4,0,0.6,0l0,0
								c0.1,0.1,0.1,0.3,0.2,0.4c0,0,0,0-0.1,0c0.2,0,0.1,0.3,0.4,0.3l0,0h0.1l-0.1,0.1l0.2,0.2l0.3,0.3c0.1,0,0.1,0.1,0.2,0.1
								l0.2-0.1l0.4-0.2c0.3-0.1,0.6-0.3,0.9-0.5c0.6-0.3,1.2-0.7,1.8-1v0.1l0.2-0.2c0,0,0,0,0,0.1c0.3-0.1,0.5-0.4,0.8-0.6
								c0,0,0,0.1,0.1,0.1c0.1-0.3,0.5-0.1,0.3-0.4l0.1,0.1c0.5-0.5,1-1,1.5-1.5c0-0.3,0.1-0.5,0.2-0.7l0,0c0.2-0.4,0.3-0.7,0.3-1.1
								h0.1c-0.1-0.8,0-1.6-0.3-2.4c-0.1-0.3-0.2-0.5-0.4-0.8h0.1c-0.5-0.4-0.3-1.2-0.9-1.5H77c-0.2,0-0.2-0.3-0.4-0.1v-0.1
								c-0.5-0.1-0.3-0.7-0.8-0.9h0.1c-0.1-0.1-0.3-0.1-0.3-0.2c0,0,0,0,0.1,0c-0.1-0.5-0.6-0.6-0.9-0.9l0.1-0.1
								c-0.3,0-0.4-0.4-0.7-0.5h0.1h-0.2l0.1-0.1C74.1,95.7,73.7,95.5,73.4,95.3z"/>
						</g>
					</g>
				</g>
			</g>
		</g>
	</g>
</g>
</svg>
